<?xml version="1.0" encoding="utf-8"?>
<!-- Generator: Adobe Illustrator 24.0.0, SVG Export Plug-In . SVG Version: 6.00 Build 0)  -->
<svg version="1.1" id="Layer_1" xmlns="http://www.w3.org/2000/svg" xmlns:xlink="http://www.w3.org/1999/xlink" x="0px" y="0px"
	 viewBox="0 0 1125 2436" style="enable-background:new 0 0 1125 2436;" xml:space="preserve">
<style type="text/css">
	.st0{clip-path:url(#SVGID_2_);}
	.st1{fill:#FFFFFF;}
	.st2{fill:#FFFFFF;stroke:#231F20;stroke-width:0.934;stroke-miterlimit:10;}
	.st3{fill:#ED1C24;}
	.st4{fill:#231F20;}
</style>
<g>
	<defs>
		<rect id="SVGID_1_" width="1125" height="2436"/>
	</defs>
	<use xlink:href="#SVGID_1_"  style="overflow:visible;fill:#FFFFFF;"/>
	<clipPath id="SVGID_2_">
		<use xlink:href="#SVGID_1_"  style="overflow:visible;"/>
	</clipPath>
	<g class="st0">
		<g>
			<rect x="-554.9" y="-284.2" width="3894.6" height="1746.8"/>
			<path class="st1" d="M3339.1-283.5V1462H-554.2V-283.5H3339.1 M3340.4-284.8h-1.2H-554.2h-1.2v1.2V1462v1.2h1.2h3893.4h1.2v-1.2
				V-283.5V-284.8L3340.4-284.8z"/>
		</g>
		<g>
			<path class="st2" d="M193.4,1465.9c2.4-1.8,5.4-4.4,5.4-4.4l0.3-11.3l3-4.4l-13.5-5.1c-6.1-32.6-11.3-60.3-14.9-79.6l33.9,16.8
				l10.1-2.5l-86.4-614.2l14.3,9.7l0.8-18.5l-6.7-7.5c0,0-1.7-20.5-7.5-20.7c-5.9-0.2-5,8.2-5,8.2L-12.8,593c0,0-3.4-26-8.4-26.8
				s-9.2,9.2-9.2,9.2L-63.9,541H-79l-17.6-20.1h-13.4l-0.8,17.6l5.9,7.5l49.5,437.4L-202.3,1886l-13.4,5.9l-4.2,15.1h56.2v-14.5
				l-15.1-6.5c0,0,132.5-831.8,132.5-829.3c0,2.5,31,210.5,31,210.5l25.5,12.7L25,1406.6l-12.7-2.8l6.1,15.7l6.6,0.3l1.6,0.6
				l57,486.5h26c0,0-7.6-62.4-17.9-148.1l140,16.1l23,124.8h20.1C274.8,1899.8,224.9,1634.1,193.4,1465.9z M35.6,1292.4l117.9,58.5
				l15.1,82.2l-106-40v8c0,0-7.7-1.9-10.2-2.3c-0.6-0.1-2.2-0.1-4.1-0.1C42.7,1352,38.1,1314.2,35.6,1292.4z M89.5,1740.6
				c-11.6-96.1-26.1-216.3-37.5-310.9l111,37.8c0,0,5.7,0,12,0l53.3,289.2L89.5,1740.6z"/>
			<g>
				<g>
					<path d="M362.5,732.7c0-1.6-0.1-2.7-0.4-3.6l0,0l0,0c-0.3-0.9-0.9-1.8-1.9-2.9c-1.9-2.9-4.2-8.9-7.1-16.2c0,0,0,0,0,0
						c-0.8-2-1.5-3.9-2.2-5.6c-1.3-3.5-2.2-7-2.3-10.8c1.8,0.4,4.5,0.9,5-1.5c0.5-2.7,0.2-4.4-4.4-4.9c1.6-8.3,0.9-16.6-3.2-23.8
						c-0.6-1.2-1.6-2.9-3-4.9c-3.5-5.5-7.2-10.3-9.2-11.3c2.7-0.2,11.5-4.6,13-10.3c1.5-5.7-0.6-17.4-3.4-20.2
						c-2.9-2.9-7.3-6.3-7.3-6.3s-1.6,3.5-5,4.6c-4.1-0.8-9-1.9-13.6-3.1c-3.6-1-7.3-1.9-10.5-2.5c-0.6-0.1-1.1-0.2-1.6-0.3
						c-0.2,0-0.4-0.1-0.6-0.1c0,0-0.1,0-0.1,0c-4.2-0.6-22.2-7.5-31.1-5.9l0,0c-3.7-0.2-6.9,0.2-8.8,1.6c-0.1,0.1-0.1,0.1-0.2,0.2
						c-3.3,1.1-6.1,3-9.5,8.2c0,0-1-0.1-2.6,0c-9.6-0.1-14.2,1.1-20.7,8.8c-2.4,2.9-4.7,5.5-6.7,8c-4.9,5.8-8.4,10.2-8.1,14.3
						c-1.8,7.6-4.3,11-4.3,24.5c0,2.2,0,4.3,0.1,6.3c-0.2,6.1-0.1,12.3,0.9,16.2c2.3,8.8,8.2,36.1,9.9,40.1c0.6,1.5,1.5,4.3,2.3,7.3
						c0,0.1,0.1,0.2,0.1,0.4c1.4,5,2.8,10.5,3.3,11.6c0.5,1.1,2.7,1.4,4.5,1c0,0,0,0.1,0,0.1c-2.5,1.1-5.4,20.5-7.2,27.7
						c0,0,0,0,0,0c-0.4,1.8-0.7,3.4-0.9,4.7c-0.3,3,0.7,7.3,2.4,12.1c0,0.1,0,0.1,0,0.1l0,0.1c1.4,3.9,3.2,8.1,5.1,12.1l0,0.1l0,0
						c3.6,7.5,7.4,14.3,9.2,17.2c2.3,4,18.2,9.2,31.6,11.2l0,0c6,2.6,18,1.8,18,1.8c0.1-0.7,0.8-2.3,1.6-4.2
						c3.8-4.9,7.3-14.4,9.5-21.7c0,0,0-0.1,0-0.1c0-0.1,0.1-0.3,0.1-0.4c0.1-0.2,0.1-0.4,0.2-0.6c1.5-5.2,5-15.7,5.1-15.9h0
						c1.2-2.3,2.3-4.7,3.1-7.1c9,2.3,25,3.9,29.2,3.6c5.4-0.4,9.4-1.7,4.5-16.1c0,0,3.1-10,2.8-12c0-0.3-0.2-0.5-0.3-0.8
						c-0.1-0.2-0.3-0.5-0.5-0.7c-1.3-1.8-3.6-3.7-3.6-3.7s-0.4-5.2-2.2-6.7c2.3,0,3.6,0,3.6,0l0-0.3c0-0.1,0-0.1,0-0.2l0.6-3.5l0,0
						c0.1-0.3,0.1-0.6,0.1-0.6s3.2,0.1,4.8-2.4c0-2.3-0.2-4.1-0.4-6.9C355.4,736.3,361.7,735.8,362.5,732.7z"/>
				</g>
				<g>
					<g>
						<g>
							<path d="M312.7,783.7c0,7.3-6.9,15.3-7.3,19.9s-6.4,25.3-12.6,31.8s-46.4-3.4-50.2-10c-3.8-6.5-18-31.8-16.9-41.7
								s11.1-36.8,10.7-51.3c-0.4-14.6,0-42.1,4.2-48.3c4.2-6.1,43-10,52.1,28.3C301.9,750.8,312.7,783.7,312.7,783.7z"/>
							<path d="M268.4,741.6c-0.4,1.1-1.1,14.8,4.9,20.9s27.4,21.4,34.2,24.5c6.8,3,28.5,5.3,33.4,4.9c5.4-0.4,9.4-1.7,4.5-16.1
								c0,0,3.1-10,2.8-12c-0.3-2-4.4-5.2-4.4-5.2s-0.5-6.9-3.1-7c4.4,0.5,4.6,0.4,4.6-0.1s0.7-4,0.7-4s3.2,0.1,4.8-2.4
								c0-2.3-0.2-4.1-0.4-6.9c4.9-1.8,11.2-2.3,12-5.4c0-3.1-0.2-4.3-2.3-6.5s-10.6-25.5-11.6-27.5c-1-3.9,0.5-9.8,0.8-13.8
								c0.3-3.9,1.3-12.1-3.4-21.6c-4.7-9.5-31.1-44.6-70.9-42.6c-44,2.3-72.2,50.7-38,80.5c2.5,25.9,18.1,36.6,23.6,39.1
								C265.8,742.6,268.4,741.6,268.4,741.6z"/>
							<path class="st1" d="M292.2,838.4c0.6-3,9.9-21.4,11.2-26s5.3-16.8,5.4-17c0.1-0.2-16.5-5.5-21.7-7.1
								c-5.2-1.7-17.9-10.2-17.9,11s-1,34.8,5,37.4C280.2,839.3,292.2,838.4,292.2,838.4z"/>
							<path class="st1" d="M228.2,796c-1.9-6.4-3.4-9.8-1.6-17c1.8-7.2,4.7-26.6,7.2-27.7c2.5-1.1,7.8-5.8,8.4-9.8
								c0.6-4,2.5-13.6,2.5-13.6s8.5,9.9,9.6,12.4c1.1,2.5-8.9,26.4-9.6,31.2s-11.2,36.7-11.2,36.7L228.2,796z"/>
						</g>
						<path class="st1" d="M314.2,754.1c-0.8-4.4,0.3-13.8,1.1-15.6s3-8.6,3-8.6s-6.9-2.5-8.3-4.1c-1.4-1.6-2.2-7.5-3.5-13.2
							c-1.3-5.7,2-10.4,2.7-11.8c0.6-1.4,8.3,7.1,10.8,8c2.5,0.9,8.2-0.5,8.2-0.5s-8.1-5.5-8.3-6.4c-0.2-0.9,13.2,0.4,15.8,0.7
							c2.7,0.3,6.6-0.6,6.8-2c0.2-1.4,1.3-7.7,0-8c-1.3-0.3-4.7-0.6-10.4,0s-12.4,3-12.4,3s4.7-6,8.3-6.3c3.6-0.3,12.4-2,14-2.8
							c1.6-0.8,4.9-5,4.6-6.3c-0.3-1.3-3.9-3.1-3.9-3.1s-9.7-2.2-14.1,0c-4.4,2.2-12.6,10.3-13.1,9.1c-0.5-1.3,4.6-10.5,2.8-13.8
							s-4.4-6.8-7.9-12.9c-3.5-6.1-5.1-13.5,1.3-13.2c6.4,0.3,19.6-0.5,22.2,0.8c2.5,1.3,8,8.9,12.2,16.3c4.2,7.4,4.8,15.9,3.1,24.4
							c-1.7,8.6,1.1,15,4,22.3s5.2,13.3,7.1,16.2s1.9,2.9,1.9,2.9s-4,1.1-8.4-0.4c-4.4-1.6-6.1-2.4-7.4-1.3c-1.3,1.1-4.1,3.5-6.4,2
							c-2.4-1.4-3.1-1.6-2.8-3.8c0.3-2.2,5.2-6,5.3-6.4s-3.9-0.3-5.7,0.8c-1.7,1.1-4.1,6.1-3.9,7.4c0.2,1.3-1.4,2.8-1.4,3.5
							c0,0.6-4.6,3.5-6,4.1c-1.4,0.6-2.5,4.7-3.1,6.4c-0.6,1.7,0.2,8.2,0.2,8.2s4.6,5.3,6.9,6.4c2.4,1.1,12.7,1.1,14.4,2.6
							c1.7,1.5,4.5,4,4.4,5.2c-6.3,1.6-15.7-1.1-17.7-2.2c-2-1.1-8.8-10.9-8.5-10.2s5.2,12.1,7.1,14.7s6.8,8.6,10.1,9.7
							c3.3,1.1,4.9,3.9,5.5,7.2s0.6,9.3-6.9,5.7s-13.8-9.9-17.8-15.6S314.2,754.1,314.2,754.1z"/>
						<path class="st1" d="M322.5,733.2c0.3,2.5,0.2,5.7,0,6.9s1.4,4.1,3.4,3.5c2-0.6,9.9-1.8,11.6-2.3s4.5,0.6,4.5,0.6s0-5-2.3-5.1
							c-2.3-0.1-7.2-4-7.5-7.8c-0.3-3.7-1-8.1-2.8-7.3C327.6,722.7,322.5,733.2,322.5,733.2z"/>
						<path class="st1" d="M344.5,748.2c-2.9-0.4-3.4-2-5-2c-1.4,0.1-12.7,1.2-14.4,0.9c-1.7,2.2-0.4,2.6-0.4,2.6s13,2.2,15.8,2.1
							c3-0.1,4.9,0,4.9,0l0.7-3.9L344.5,748.2z"/>
						<path d="M275.2,724.7h14.7c0,0-1-13.8-1-18.4c0-4.6-2.3-13.7-1-16.5c1.3-2.9,15.5-14.7,14.9-18.3s-4.2-13.4-6.3-17.7
							c-2.1-4.4-1.9-7.1,1-7.6c2.9-0.6,33.6,1.2,36.3,1c2.7-0.2,11.5-4.6,13-10.3s-0.6-17.4-3.4-20.2c-2.9-2.9-7.3-6.3-7.3-6.3
							s-3.1,7.3-10.5,4.2s-21.2-5.9-25.2-6.3c-4-0.4-28.8-8.8-35.7-3.6s-9.7,8.4-9.7,8.4s-15.1-1.3-23.3,8.8
							c-8.2,10.1-15.3,16.4-14.9,22.3s-3.2,8.4-3.2,13.2s-2.3,25,0,33.8c2.3,8.8,8.2,36.1,9.9,40.1c1.7,4,5,17.6,5.7,19.3
							c0.8,1.7,5.5,1.5,7.1,0c1.5-1.5,4.6-32.6,4.6-32.6s-6.6-19.3,1.7-26.4c8.2-7.1,23.4,5.8,26.6,13
							C272.4,711.6,275.2,724.7,275.2,724.7z"/>
						<path class="st1" d="M266.2,740.3c-3.6-0.3-12.5-3.5-17.7-12.2c-5.2-8.7-8.5-17.6-9.1-23.3c-0.6-5.7,2.9-14.7,8.5-14.6
							c5.6,0.1,12,5.7,16.6,9.9c4.7,4.2-3.4,1.5-8.1-1.1c-4.7-2.6-12.2-0.2-12.2,4.1s4.3,13.3,5.5,14.2c1.2,0.9,2.7-1.2,2-3.8
							c-0.8-2.6,1-9.7,1-9.7s0.8,5.2,1.6,7.6c0.8,2.4,4.1,13.6,5,14.3c0.9,0.8-0.6,3.4-0.6,3.4l-6-6.2c0,0,4.3,10.4,9.3,10
							s7.2,2.6,7.1,4.2C269.1,738.5,269.2,740.5,266.2,740.3z"/>
						<path class="st1" d="M229.2,750.3c0,0,3.5-3.6,4.1-6.5c0.6-2.9,0-11,0-11s0-8.1-1.9-11c-1.9-2.9-3.6-5.1-4.1-9.8
							c-0.6-4.7,5.8-11.3,3.2-14.3c-2.6-3-3.2-6.6-3.7-9.4c-0.6-2.8,6.9-7,8.8-8c1.9-1.1,8.3,1.1,11,0c2.8-1.1,3.9-4.4,3.9-4.4
							s-6.1,2.5-10.3,1.3c-4.3-1.3-15.6,1.5-15.6,1.5s12.4-9.1,15.6-8.3c3.2,0.8,12.5-3,12.5-3s-6.1-1.4-9.1-1.4
							c-3,0-8-5.5-10.5-4.4c-2.5,1.1-7.3,3.9-7.3,3.9s12.5-10.5,14.3-10.2c1.8,0.3,10.4,1.1,10.4,1.1l6.3-7.4c0,0-2.2-1.1-7.4,0
							c-5.2,1.1-9.6-6.9-14.1-5.5s-13.4,4.1-13.4,4.1s13.7-5.2,15.3-7.7c1.7-2.5,8.3-8,11.6-9.4c3.3-1.4,20.4,0,20.4,0
							s-13.2-5.2-17.9-4.7c18.5-3.6,32.4-3.3,37.7-1.1s27.9,6.1,32,4.1c0,0-12.7,0.6-16-4.1c18.7,2.2,25.5,4.4,30.1,1.7
							s5.2-11.5,1-16.1c-0.3,7.8-1.5,8.7-3.8,10.4s-20.8-4.8-19.7-4.8c1.1,0,16.6,8.2,18.5-1c-9.1-1.7-22.3-5.4-26.5-6.1
							c-4.2-0.6-22.2-7.5-31.1-5.9c-8.8,1.6-12.6,1-18.6,10c-11.5-0.4-16.2,0.4-23.3,8.8c-7.1,8.3-13.1,14.7-14.9,22.3
							c-1.8,7.6-4.3,11-4.3,24.5c0,13.5,0.7,21.1,4.2,35.8C220.3,719,229.2,750.3,229.2,750.3z"/>
						<path d="M322.5,714.2c12.1,0,17.1-0.1,19.6-5.5c2.6-5.8,4-15.6,5.2-15.4c1.2,0.2,5.6,1.8,6.2-1.2s0.1-4.8-6.2-5.1
							c-1.1-3,0-8.9-19.3-7.5c-15.6,1.2-19.2,1.6-19.2,7.3c0,0-46.8-3-48.5-2.4c-1.6,0.6,0.6,8.9,2.8,9.1c2.2,0.2,46.6,3.6,46.6,4.5
							S312.6,714.2,322.5,714.2z"/>
						<g>
							<path class="st1" d="M342.1,684.8c0,0-21.7,0.9-25.3,1.7s-4.2,3.5-2.5,10.2c1.7,6.7,3.3,10.5,5.7,12.1
								c2.4,1.6,12.1,1.6,14.2,1.4c2.1-0.2-4.8,2.8-11.6,1.9c-6.8-0.9-8-4.8-9.9-9.2c-1.9-4.4-2.9-17.2-1.2-18.8
								c1.7-1.7,4.6-1.5,13.9-2.1C334.6,681.4,342.1,684.8,342.1,684.8z"/>
							<path class="st1" d="M261.8,686.5l50.3,2.5v6.3l-49.1-5.1C263,690.2,262,688.8,261.8,686.5z"/>
						</g>
					</g>
					<path class="st1" d="M273.1,733.6c0,0-0.8,11.8,0.8,16.3s12,12.9,16.5,16.2c4.5,3.3,13.3,9.5,13.3,9.5s-17.4-19.6-22.3-25.6
						C276.4,744,273.1,733.6,273.1,733.6z"/>
				</g>
				<g>
					<g>
						<path d="M402.3,1124.1c17.4,1.9,42.4,0.5,56.3-2.5c13.9-3,23.8-20.1,26.7-31.8c7.9-5.8,8.9-21.1,8.9-21.1s6.4-4.9,5.9-9.4
							c8.9-1,13.4-5.4,13.9-10.9c10.4-6.9,10.5-8.9,7.7-23.3c13-9.9,21.5-20.8,19-28.2C601.6,951.4,606,950,606,950l-3.5-8h-71.8
							l-128.5,95V1124.1z"/>
					</g>
					<g>
						<path d="M602.6,942c0,0-89.3,64.6-89.3,64.2c0-0.3-5.5-2.4-12-2.3c-6.5,0-14.4-0.8-13.8,5.4c-2.7,4.1-5.2,4-5.2,4
							s-9.5-1.2-9.6,5.2c-1.8,6.7,0,5.7,0,5.7s-10.7,0.9-10.7,4.3s-1,8.2,0,7.9s-2.9,1.5-2.8,5.1c0.1,3.5-2.8,7.9,0,10.7l-29.5,25.6
							l-17.9-2.8H353l58.5,49.9l50.5-4.4c0,0,21.1-10.9,23.3-30.8c-9.8,10.7-19.1,17.2-23.3,15.1c-4.1-2.1-11-17.5-11-17.5
							s2,8.6,11,8.9s24.4-14.4,25.5-18.6s4.1-6.1,6.7-9.1s5.2-3.1,5.9-9.4c6.5-1.6,13.2-1.5,13.9-10.9c5.8-4.4,11.4-7.1,7.7-23.3
							c11.6-10.5,21.2-19.5,19-28.2c53-38.8,65.3-46.9,65.3-46.9L602.6,942z"/>
					</g>
					<path class="st1" d="M482.3,1066.1c-4.5,0.3-6.2-4.5-7.6-8.3c-1.4-3.8-3.4-9.6-3.4-9.6s-10.5-5.7-12.1-6.6s-0.6-4.8,7.3-2.5
						c7.9,2.3,12.3,2.6,12.4,6.1S482.3,1066.1,482.3,1066.1z"/>
					<path class="st1" d="M496.1,1060.2c4.1-0.9-0.3-7.9-2.8-11.3c-2.4-3.4-5.2-17.2-7.2-20.3c-2.1-3.1-4.5-4.8-9.6-4.1
						c-5.2,0.7-14.8,2.1-14.4,4.1c0.3,2,15.8,1,16.8,2.4c1.1,1.4,9.3,20.3,11.4,23C492.3,1056.8,496.1,1060.2,496.1,1060.2z"/>
					<path class="st1" d="M472.7,1018.6c5.8,0.3,16.9-0.3,19.3,2.4c2.4,2.8,8.6,19.1,10,21.2c1.4,2.1,1.7,13.7,6.9,9.9
						c5.2-3.8,2.8-12.4,0-13.9c-2.8-1.5-8.4-11.1-11.1-15.6c-2.7-4.5,2.1-9.6-5.5-9.3c-7.5,0.3-9.9-0.4-14.8,0
						C472.7,1013.8,472.7,1018.6,472.7,1018.6z"/>
					<path class="st1" d="M487.5,1009.4c0,0,16.9,1.5,18.9,2s7.6,14.9,8.3,17.3c0.7,2.4-3.4,8.8,0,10.4c3.4,1.6,8.3,2.3,7.9-2.5
						s-4.8-14.4-6.2-15.8s-7.9-16.2-7.9-16.2s-14.8-1.4-17.9,0C487.5,1005.9,487.5,1009.4,487.5,1009.4z"/>
				</g>
				<g>
					<g>
						<g>
							<path d="M312.1,1860.5c1.4-1.6-2.5-14.3-5.1-48.1c-2.5-33.8-8.9-80.2-11.8-121.1s4.6-85.6,4.2-100c-0.4-14.3-3-54-8-71.7
								c-5.1-17.7-6.3-234.6,0-244.7c6.3-10.1,117.3,12.8,117.3,12.8s3,2.4,0,74.9c-3,72.6-13.1,129.1-13.5,142.2
								s-2.1,64.1-5.9,77.2c-3.8,13.1-0.4,22.8-6.8,26.2c3,13.1,3.4,21.9-0.4,23.6c1.3,9.3,1.7,58.2,0.8,77.6
								c-0.8,19.4,0,50.2-1.7,63.7c-1.7,13.5-3,31.6-3,31.6s16.9,25.7,15.2,46.4c7.2,0.8,10.5,5.1,23.2,15.6s16.5,24,36.3,26.2
								c19.8,2.1,49.4-1.3,53.2,0s8.9,4.6,11,14.8c2.1,6.3-3.8,5.9-19,13.1c-15.2,7.2-32.9,12.7-59.1,11.4
								c-26.2-1.3-59.9-15.6-65.4-15.6c0.4,10.5-0.8,15.8-0.8,15.8l-65.4-2.3l-2.1-19.4C305.3,1910.7,294.4,1880.8,312.1,1860.5z"/>
						</g>
						<path class="st1" d="M303.1,1501.2c2.5,4.3,5.5,62.2,5.5,69.6s1.8,16.6,0,24s-1,16.6-2.4,19.7c-1.3,3.1,6.7-6.8,8.5-8.6
							c1.8-1.8-1.2,5.5,0,9.2c1.2,3.7-4.9,15.5-5.5,20.7c-0.6,5.2-8,30.4-6.2,34.7c1.8,4.3,0.9,36.3,6,44.3c5.1,8,6.3,84.3,6.3,86.8
							c0,2.5-2.5,45.6,0,47.4s11.7,16,11.7,16l-15.1-4.5c0,0-6.5-26.9-6.5-31.8c0-4.9-6.2-88.6-8-96.6s-6.8-64-6.2-77.6
							s9.8-50,8-63.2c-1.8-13.2-4.3-40.8-6.1-56.3c-1.9-15.5-1.9-72.6-1.9-72.6L303.1,1501.2z"/>
					</g>
					<path class="st1" d="M302.8,1892.5c2.4,4.7,14.6,9.7,22.9,9.7c8.3,0,52.4,1.9,61.4,2.7c9.1,0.8,28,16.3,44.1,15.9
						c-9.3,3.9-69.7-10.1-78.8-8.5c-9.1,1.6-40.9,0-44.9-0.8C303.5,1910.7,302.8,1892.5,302.8,1892.5z"/>
				</g>
				<g>
					<g>
						<g>
							<path d="M194.4,1287.8c2.2,18.8,5.5,155.9,10,173.6c4.4,17.7-4.4,74.1-5,89.6c-0.6,15.5-28.2,86.2-27.1,110.6
								c1.1,24.3,0,99.5,8.8,155.9c8.8,56.4,3.3,84,13.3,87.4c-7.3,16.5-12.7,23.2-8.5,40.5c0.4,16.9,1.3,21.9,1.3,21.9l21.5,4.6
								l13.1-2.1c0,0,19.8,12.2,37.1,13.5s50.2,0.4,69.2-6.8s24.9-10.5,24.9-13.1s-5.1-3.4-5.1-3.4s-2.1-12.7-9.7-14.8
								c-7.6-2.1-21.9-6.3-28.3-9.3c-6.3-3-27-33.3-31.6-38.8c-4.6-5.5-8.4-18.1-13.9-14.8c-0.4-32.1-8-85.2-11.4-89
								c-3.4-3.8,1.7-135,4.2-137.5c2.5-2.5,13.1-18.6,11.8-29.1c15.2-21.9,33.8-83.1,40.5-127.4c6.8-44.3,18.1-98.7,32.5-131.2
								c14.3-32.5,19.8-52.7,18.1-67.5C358.5,1285.9,194.4,1287.8,194.4,1287.8z"/>
						</g>
						<path class="st1" d="M199.3,1341.1c0,0-10.9,15.2,0,19.6c-2.9,10.1,0,23.2,3.6,24.6c3.6,68.1-1.1,120.9,0,133.8
							s-2.2,14.5,3.2,19.9c-2.1,8.7-5,8.3-5.8,17s-5,15.3-8.3,24.1c-3.3,8.7-19.2,53-19.6,77.1c-0.4,24.1,2.2,117.3,5.1,130.6
							c2.9,13.3,11.6,102.1,13.9,107.5s12.7,4.6,12.7,4.6s-5.4-5-7-7.5c-1.7-2.5-7.9-215.6-8.7-226.4c-0.8-10.8,3.7-36.5,7.9-42.7
							c4.1-6.2,36.9-38.1,33.2-34.8c-3.7,3.3-32.3,17.4-34,18.2c-1.7,0.8,2.3-22.4,7.8-26.1s24.5-11.6,24.5-11.6s-19.9-4.1-20.7-6.6
							c-0.8-2.5,5.8-24.5,5.8-24.5l20.7-3.3c0,0-20.3-5-21.6-6.2s7.9-131,8.7-138.1c0.8-7,7-49.1,6.2-49
							C226,1341.2,199.3,1341.1,199.3,1341.1z"/>
					</g>
					<path class="st1" d="M266.4,1978.7c-1.4,0-29.7-6.2-37.5-11.3c-7.8-5-35.5-13.6-39.2-17.9c-3.8-4.2-4.3-10.9-4.3-10.9
						s11-1.6,17.5,3.1s29.8,22.1,41.5,26S266.4,1978.7,266.4,1978.7z"/>
					<path class="st1" d="M293.7,1964.7c0,0-31.1,4.3-39.2,0c-8.2-4.3-38.4-21.7-38.4-21.7s40,13.7,48.5,15.6
						S293.7,1964.7,293.7,1964.7z"/>
					<path class="st1" d="M332.2,1945.7c0,0-14,9.3-28.3,7.4c-14.4-1.9-38.8-6.6-40-7.4c-1.2-0.8,4.7-6.6,9.7-10.1
						c5-3.5,9.3-8.9,15.1-5c5.8,3.9,29.1,8.9,29.1,8.9L332.2,1945.7z"/>
				</g>
				<g>
					<path d="M302.4,823.5c0,0-41.1-41.3-55.5-49.6c-14.4-8.3-25-12.8-25-12.8l-3.8,5l-5.9-0.8c0,0-8,14-11,18.2c-3,4.1,0,8.9,0,8.9
						s-22.9,13-38.5,18s-35.6,45-35.6,75.2s33.5,159.1,35.6,174.4c2.1,15.3-1.7,47.5,3.4,62.8c1.7,48.8-6.8,177.7-7.6,190.9
						c6.8,14.1,55.1,6.4,92.3,6.3c37.3-0.1,180,1.1,184.3,2.2c-2.5-61.3-7.6-172.1-15.7-196.1c-8-24-9.7-66.1-12.7-102.5
						c-3-36.4-13.6-79.8-20.3-93.8s-5.9-28.5-8.5-40.9c-2.5-12.4-5.1-26.4-14.8-31.4c-9.7-5-38.5-22.3-41.9-28.5
						c-3.4-6.2-2.1-13.2-6.4-14.5c-4.2-1.2-10.2,1.2-10.2,1.2L302.4,823.5z"/>
				</g>
				<path class="st1" d="M156.2,812.9c7.6-1.6,19.9-3.5,28-8.7c8.1-5.2,22.6-11.8,22.6-11.8s20.2,17.7,22.5,20.6
					c2.2,2.9,7.6,11.7,7.6,11.7s45.1,49.6,58.2,74.3c13.2,24.7,58.5,115.4,63.2,120.8c4.7,5.4-43.3-58.8-49.1-64.2
					s-21.2-20.7-24.5-21.6c-3.3-0.9-5.1,30.1-2,41.8c3.1,11.7,14.1,58.7,12.4,57.9s-25-48.9-26.4-60.6s-6.1-79.9-11.4-87.6
					c-5.2-7.6-17.4-29.2-22.7-35.9c-5.4-6.7-23.4-18.9-31.4-22.9S156.2,812.9,156.2,812.9z"/>
				<path class="st1" d="M349.3,955.9c-0.5-1.8-50.6-96.6-50.6-96.6l8.3-4.5l6.9,5.4L349.3,955.9z"/>
				<path class="st1" d="M311.1,831.5l-12.3,27.8c0,0-29.9-52.7-45.6-67s-29.7-26.2-29.7-26.2l3.7-5c0,0,15.1,10.7,36.5,24.8
					C285.1,800,311.1,831.5,311.1,831.5z"/>
				<path class="st1" d="M342.2,983.5c0.3-0.8-42.4-84.3-50.4-98.1c-8-13.8-40.5-59.5-50.3-63.9c9.5-1.7,13.4-1.4,13.4-1.4
					s-14.9-8.2-20.9-9.9c-11.8-13-27-26.8-27-26.8s3-5.6,6-9.8c3-4.2,3-14.9,12.4-3.3c9.4,11.6,54.1,57.6,64.6,78.8
					s28.9,57.2,36.2,76C329.2,933,342.2,983.5,342.2,983.5z"/>
				<path class="st1" d="M365.4,960.3c-0.5-2.1-7.9-55.6-6.6-56.6c1.3-1-35.8-58.4-35.8-58.4s-7.3-28.9-6.2-27.2
					c1,1.7-4.6,13.3-4.6,13.3l11.6,21.3l25.6,45.6L365.4,960.3z"/>
				<polygon class="st3" points="308.9,852.9 312.2,836.5 320.9,849.2 323.7,852.6 316.3,857.3 				"/>
				<path class="st3" d="M316.7,859.3c0.7,0.9,23.3,53.5,23.5,55s13.5,39.2,13.5,39.2s11,25.1,11.7,23.8s-6.8-32.3-6.8-32.3
					l-11.2-46.7l-23.7-43.5L316.7,859.3z"/>
				<path class="st1" d="M235.5,1320.5c-20.3,1-56.1-0.9-63.2-3.9c-7.1-3-7-4-5.9-22.7c1.1-18.7,6.2-171.2,6.2-171.2
					s-3.3-39.6-3.3-51.2c0-11.6-22.7-113.2-25.9-129.5c-3.2-16.2-14.3-74.6-8.8-56.5c5.5,18,72,221.7,78,244.4
					C218.6,1152.5,235.5,1320.5,235.5,1320.5z"/>
				<g>
					<g>
						<path d="M156.2,813.7c13.1-2.6,46.5-10.9,64.8,26.2s21.3,65.8,21.3,71.3c0,5.4-5.4,9.9-5.4,9.9s1.5,9.9,3,20.8
							c1.5,10.9-4,40.6-3.5,45.5c0.5,4.9-2,35.6-1.5,48c0.5,12.4-31.7,51.5-43.1,54.9c-11.4,3.5-24.7-22.3-35.6-35.6
							c-10.9-13.4-12.4-44.5-18.3-60.4c-5.9-15.8-8.4-53.4-8.4-53.4s-10.9-8.4-11.9-27.2c-1-18.8,1-49,12.4-69.8
							C141.4,823.1,143.2,816.3,156.2,813.7z"/>
					</g>
					<path class="st1" d="M191.9,1090.3c-1.9-4.9-3.7-24.8-3.3-34.5c0.3-9.6,7.6-42,13.8-45.7c-14.8,5.5-22.4,15.1-22,19.3
						s0.2,25.8-0.4,26.8c-0.6,1-1.6-10.1-3-13.8c-1.4-3.7-0.3-16.1-3.1-12c-2.8,4.1-8.3,12-7.2,16.2c1,4.1-2.4-4.5-3.1-7.2
						c-0.7-2.8,2.1-20.3,6.9-25.8c4.8-5.5,14.5-13.8,14-13.1c-0.6,0.7-16.9,11-21,15.1c-4,4.1-6.1,2.1-4.4-1s4.8-8.3,9.1-10.3
						s-5.3-3.8-7.4-2.1c-2.1,1.7-9.6,7.9-9.6,7.9s2.1-12.4,3.1-14.8c1-2.4,11-9.6,11-9.6s-13.4-1.7-14.1,0s0-8.3,1.7-13.8
						s7.6-17.4,9.6-21.1s14.1-14.7,14.1-14.7s-24.3,11.4-25.8,14.7c-1.5,3.2-7,14.9-7,14.9s4.5-20.6,5.5-24.8
						c1-4.1,8.6-18.2,10.3-19.3c1.7-1,13.4-10.7,13.4-10.7l-27.2,13.8l-11.3,11.7c0,0,3.1-17,5.8-22.8c2.8-5.7,15.8-19.2,15.8-19.2
						s-15.1,5.5-19.6,8.3c-4.5,2.8-8.3,1.7-8.3-0.7c0-2.4-0.3-13.1,6.2-19.3s26.5-24.8,26.5-24.8s-14.8,5.5-20.6,11.7
						c-5.8,6.2-17.5,19.6-18.2,25.8s-3.8,32.5-3.1,33.3c0.7,0.8,9.6,14.5,10.3,15.6c0.7,1,5.8,36.5,8.6,42
						c2.8,5.5,13.1,52.3,16.5,58.8s8.3,27.5,15.8,34.7C177.9,1087.2,191.9,1090.3,191.9,1090.3z"/>
					<path class="st1" d="M118.7,882.9c0,0,10.3-16.2,14.3-22.8c4-6.5,19.3-19,24.4-20.7c5.1-1.7,43.3-1.5,46.5,0
						c3.2,1.5-10.2-11.6-21-12.2c-10.8-0.6-28,2.2-28,2.2s16.5-10.9,25-10.5c8.5,0.3,39.8,18.5,39.8,18.5s-6.5-13.1-7.1-14.7
						s-17.8-10.4-22.3-12.2c-4.5-1.8-20.6-1.6-34,3.2c-13.4,4.8-14.1,6.1-24.6,23.7C121.1,854.9,118.7,882.9,118.7,882.9z"/>
				</g>
				<g>
					<g>
						<g>
							<path d="M168.1,1053.3c0-19.7,17.4-39,25.3-46.5s31.2-16.3,39.1-9.9c10.4-1.5,19.8-2,23.8,2c8.4-6.9,25.7-6.9,32.7-6.9
								c6.9,0,6.4-8.9,13.4-12.4c6.9-3.5,33.6-7.9,37.1-10.9c3.5-3,6.4-3,7.9-3c1.5,0,7.4,0,7.4,0s-2-14.4,4-20.8
								s13.4-18.3,17.8-16.8c4.5,1.5,11.4,9.4,4.9,17.3c-1,9.4-1,9.4-1,9.4s8.4,6.4,9.9,13.9c22.3,6.4,28,3,37.3,2
								c9.3-1,16.7-1,19.7,0.5c22.3-1.5,31.2,2,31.7,5.9c0.5,4,1.9,7.9-4.2,9.4c3.7,2,3.7,5.9,2.7,8.4c-1,2.5-7.9,1-17.8,4.5
								c-9.9,3.5-30,8.4-34.8,13.4c-4.8,4.9-30.5,4.9-32.5,5.4c-2,0.5-8.9,4-8.9,4s-3,11.9-4.5,14.8c-1.5,3-59.4,21.8-64.3,25.2
								c-4.9,3.5-69.3,28.7-86.1,31.2s-24.7,0.9-36.6-4S168.1,1073,168.1,1053.3z"/>
						</g>
						<path class="st1" d="M186.7,1039.1c0.4-4.7,10.2-28.3,14.2-32.3c3.9-3.9,21.7-9.8,24-6.3c0,0-13.4,7.9-14.6,16.5
							c9.4-5.9,21.7-13.4,24.4-13.8c2.8-0.4,11.4,2,12.6,2s-11.8,5.9-13.8,9.1c-2,3.1-2.8,11.8-2.8,11.8s6.7-12.2,8.3-12.6
							c1.6-0.4,21.7-12.2,21.7-12.2s-11.4,17-13,18c-1.6,0.9-4.7,10-3.5,8.4c1.2-1.6,21.7-20.5,23.2-22.4s14.6-1.6,14.6-1.6
							s-6.7,23.6-5.5,22.4c1.2-1.2,17.3-26.7,17.3-26.7l9.8-14.3c0,0,1.6,16.1,2.8,18.9c1.2,2.8,8.3,16.1,8.3,16.1s-3.5-22-3.5-26.8
							c0-4.7,9.4-9.8,9.4-9.8l19.7-2.8l4.7-12.2l-6.3-2l-18.9,10.2l-15-1.2l-14.2,13.4l-19.7,3.9c-4.7,0.8-15.4,3.9-16.1,5.9
							c-6.3-2.8-15.4-8.3-17.7-2c0,0-7.5-5.5-14.6-4.3c-7.1,1.2-22,5.5-24.8,10.2C195,1007.6,186.7,1039.1,186.7,1039.1z"/>
					</g>
					<path class="st1" d="M347.3,994.8c-1-1.6-2.5-15.9-2.3-19.1c0.2-3.2,0-7.1,0-7.1l9.7-2.8c0,0,4.9,39,31.4,54
						c-10.3,7.9-13.5,8.8-13.5,8.8S350.2,999.5,347.3,994.8z"/>
					<path class="st1" d="M361.4,978.9c0.3-5.6-1.2-19.9,0-23c1.2-3.1,8.8-17.9,11.5-19.6c2.6-1.8,6.2,1.9,6.2,5.8
						s-3.2,13.1-4.5,13.8s-2.8,5.1-1.9,6.9c0.9,1.8,2,5,2.3,6.5s15.4-0.4,15.4-0.4s-5.7-11.9-9.9-13.9c0.5-5.1,1-9.4,1-9.4
						s6.3-8,0.7-12.7s-6.5-7.7-11.9-1.4s-10.3,10.6-13.4,16.3c-3.1,5.7-2.1,18-2.1,18L361.4,978.9z"/>
					<path class="st1" d="M405.3,999.3c1-2,2-7.9,16.4-9.9c3.9-0.5,37.5-5.1,37.2-8.5c-0.9-10-11.7-9.8-11.7-9.8s15.8-0.5,21.7,0
						s9.1-0.9,10,5.9c-10-5.9-15.9,0.2-15.9,0.2s-0.5,3-1.5,7.8c-1,4.8-33.8,8.2-42.9,8C412.4,993.1,405.3,999.3,405.3,999.3z"/>
					<path class="st1" d="M390.3,968.8c0,0,16.6,4,21.6,3.8c4.9-0.2,31.2-8.8,44.7,2.5c3.9,4.2,2.4,5.9,2.4,5.9s-4.4-6.4-13.9-6.1
						c-9.5,0.3-31,2.2-34.4,2.5C407.3,977.7,390.3,968.8,390.3,968.8z"/>
				</g>
			</g>
		</g>
		<g>
			<g>
				<path class="st1" d="M619.2,1524.3c-8.3,0-21-1-23.1-2.1c-0.8-0.4-2.4-1.1-4.2-1.8c-7.4-3.2-9.3-4.1-9.3-4.8
					c0-1,2.3-1.5,3.6-1.6c0-1,0.1-4.5,1.7-6.2c0.6-0.6,1.3-1,2.2-1c0.4,0,0.9,0,1.5,0c5.3-0.1,17.9-0.4,25.2-3
					c8.7-3.1,24.5-11.9,28.9-18c-0.5-0.6-0.9-1.2-1.4-1.8c-2.1-2.6-3.8-4.9-3.4-7.6c0.5-3.3,1.5-4.2,5.4-5.1
					c0.4-0.1,0.8-0.2,1.2-0.2c3.3-0.7,6.2-1.3,6.2-5.5c0-2-0.4-3.9-0.8-6.1c-0.6-3.4-1.4-7.7-1.4-14.4c0-10.5,2.2-18.4,2.4-19.3
					c-0.3-1.3-4.1-19.5-7.7-44c-1.6-10.7-4-22.9-6.5-35.8c-3.6-18.1-7.3-36.8-9.1-53.7c-3.1-28.6-8-54.5-8.1-54.8
					c-7.1-30.7-10-85-7.5-96.7c1.4-6.6,3.2-20.9,4.8-33.5c1.2-9.3,2.2-17.4,2.7-19.9c-5-3.7-5-39.6-4.3-74.4
					c0.1-3.5,0.1-6.3,0.1-7.8c0-10,3.6-25.8,4.1-28.2c-2.4-0.5-17.4-3.8-23.6-13.1c-4.4,0.9-9.3,1.4-13.8,1.4
					c-12.9,0-20.6-3.7-21.1-10.1c-0.8-10.6-0.9-28.2,1.7-34.2c2.5-5.9,15.9-15.6,24.5-18.8c8-3,27.4-25.6,29.5-31
					c0.8-2,1.8-5.9,2.8-9.9c1.8-7,3.6-14.3,5.3-15.7c0.6-0.5,2.2-2,4.2-3.9c5.8-5.5,15.5-14.7,19.3-16.6c1.1-0.5,2-0.9,2.7-1.2
					c2.7-1.2,3.3-1.4,4.3-5.3c1.4-5.7,10.4-21.9,22.2-24.9c1.1-6.3,2.2-8.9,2.5-9.5c-0.1-0.2-0.9-1.5-6-3.1c-2.2-0.7-4.2-1-6.3-1
					c-2.1,0-3.9,0.3-5.7,0.6c-0.8,0.1-1.6,0.3-2.4,0.4c-0.3,0-0.6,0.1-0.9,0.1c-4.4,0-7.9-3.9-8.3-9.1c-0.4-5.7-5.9-12.5-7-13.3
					c-0.8-0.6-1.3-2.1-1-3.4c0.2-0.7,0.7-1.9,2.4-2.4c-2.3-5.9-0.7-8.5,0.4-9.5c-3.8-4.4-5.3-8.5-4-11.3c1.2-2.6,10.8-10.7,12.4-12
					c-0.6-1-2.3-4.6,1-9.7c0.8-1.2,1.4-3.3,2.1-5.6c2.4-8.3,6.3-22.1,28.2-28.3c6-1.7,12.1-2.6,18.2-2.6c23,0,40,11.8,41.3,28.8
					c1.2,16.2-4.2,35.4-7.5,46.9c-1.2,4.2-2.1,7.4-2.2,8.7l3.3,1.5l3.3,13.8c1.9,0.3,15.2,2.9,18.8,7c3.6,4.2,11.3,20.6,12.1,22.4
					c1.1,0.2,6.9,1.5,9.7,5.6c3,4.5,8,33.8,7.6,37.3c-0.4,4-8.9,42.6-12.6,52.2c-3.6,9.3-12.1,61.3-10.4,85.8
					c0.8,11.6,2.7,30.9,4.5,49.6c2,19.9,3.8,38.7,3.8,43.3v0.1l0,0.1c-2.6,5.3-5.6,7.5-6.3,8c-0.3,4.2-5.9,90.2-7.5,113.7l-0.2,3.4
					c-1.6,22.1-2.5,35.4,9.8,68.1c9.2,24.3,11,57.5,12.2,79.4c0.5,8.8,0.9,15.7,1.6,19c2.3,10.2,2.2,41,2.1,52.6c0,1.3,0,2.3,0,3.1
					c0,7.6-8.1,15.8-9.2,16.9l0.8,14.3c1.8,0.6,14.1,4.6,16.3,8.9c0.4,0.7,0.9,1.5,1.5,2.4c2.4,3.7,5.6,8.7,4.5,16l-0.2,1.3
					c-1.2,8.2-2.2,14.8-6.3,15.1c0.6,3.6,0.5,6.8-0.5,8c-0.1,0.2-0.3,0.3-0.4,0.4c2.5,3.1,2.5,14.4,2.5,14.9v0.3l-21.5,0.1l-0.8-7.2
					c-2.2,0.9-12.8,5.4-15.8,5.7c-1.6,0.1-10.5,0.3-20,0.5c-9.3,0.2-18.9,0.4-20.3,0.5c-0.9,0.1-5.3,0.1-10.6,0.1
					c-15.5,0-23.6-0.3-23.9-1l-0.1-0.2l0.1-0.2c0.2-0.3,0.3-3.2,0.3-5.7c-1.3-0.2-6.8-0.8-9.4-0.8c-1,0-1.2,0.1-1.2,0.1
					c-1,0.6-15.2,7.2-18.8,8.3c-1.9,0.6-8.5,0.6-15.5,0.7c-6.4,0-12.9,0.1-15.6,0.6C624.1,1524.2,622,1524.3,619.2,1524.3z"/>
				<path class="st4" d="M705.9,674.2c21.4,0,39.6,10.8,40.9,28.5c1.7,22.6-9.6,51.3-9.6,55.8c3.3,1.6,3.3,1.6,3.3,1.6l3.3,13.8
					c0,0,15.1,2.6,18.8,6.9c3.8,4.3,12.1,22.5,12.1,22.5s6.7,1.1,9.6,5.5c2.9,4.4,8,33.3,7.5,37.1c-0.4,3.8-8.8,42.4-12.6,52.2
					c-3.8,9.8-12.1,61.7-10.5,85.9c1.7,24.3,8.4,84.1,8.4,92.9c-2.9,5.9-6.3,8-6.3,8s-5.9,89.6-7.5,113.8
					c-1.7,24.3-3.3,37.3,9.6,71.6s11.3,87.1,13.8,98.4c2.5,11.3,2.1,47.7,2.1,55.7c0,8-9.2,16.7-9.2,16.7l0.8,14.6
					c0,0,14,4.3,16.3,8.8c1.9,3.6,7.3,9.3,6,18.2c-1.3,8.9-2.2,16.1-6.4,16.1c0,0-0.1,0-0.1,0c1,5.1,0.2,8.5-1.1,8.6
					c2.8,2.4,2.8,15,2.8,15l-20.9,0.1l-0.8-7.4c0,0-12.8,5.6-16.1,5.8c-3.3,0.2-37.5,0.7-40.3,1c-0.9,0.1-5.3,0.1-10.6,0.1
					c-10.3,0-24.1-0.2-23.6-0.9c0.5-0.6,0.4-6.2,0.4-6.2s-6.7-0.9-9.7-0.9c-0.7,0-1.2,0-1.4,0.2c-1,0.6-15.3,7.1-18.8,8.2
					c-3.5,1.1-25.5,0.2-31.1,1.2c-1.3,0.2-3.5,0.3-6.2,0.3c-8.4,0-21-1-23-2c-2.7-1.3-13.3-5.4-13.3-6.4c0-1,3.6-1.3,3.6-1.3
					s-0.2-7,3.6-7.1c4.2-0.1,18.6-0.1,26.9-3c8.2-2.9,24.8-12,29.2-18.3c-2.7-3.6-5.3-6.2-4.8-9.3c0.5-3.1,1.5-4,5.2-4.8
					c3.8-0.8,7.6-1.1,7.6-6.1s-2.2-9.3-2.2-20.5c0-11.1,2.4-19.2,2.4-19.2s-4-18.4-7.7-44.1c-3.8-25.7-12.5-60.5-15.6-89.4
					c-3.1-28.9-8.1-54.8-8.1-54.8c-7.1-30.6-10-84.8-7.5-96.6c2.5-11.8,6.3-48.6,7.5-53.6c-6.7-3.8-4.2-71.2-4.2-82
					c0-10.9,4.2-28.5,4.2-28.5s-17.2-2.9-23.9-13.2c-4.2,0.9-9.2,1.4-14,1.4c-10.4,0-20.2-2.5-20.8-9.8c-0.8-10.6-0.8-28.2,1.7-34.1
					c2.5-5.9,15.9-15.5,24.3-18.6c8.4-3.1,27.6-25.8,29.7-31.2c2.1-5.4,5.4-23.4,8-25.5c2.5-2.1,18.4-18,23.4-20.5
					c5-2.5,5.9-1.7,7.1-6.7c1.3-5,10-21.8,22.2-24.7c1.3-7.1,2.5-9.7,2.5-9.7s0-1.5-6.3-3.4c-2.4-0.7-4.5-1-6.4-1
					c-3,0-5.5,0.7-8.2,1c-0.3,0-0.6,0.1-0.9,0.1c-4,0-7.6-3.5-8-8.8c-0.4-5.7-5.9-12.6-7.1-13.6c-1.3-0.9-1.7-4.7,1.7-5.3
					c-2.1-5.2-1.3-8.4,0.4-9.7c-3.8-4.3-5.4-8.5-4.2-11.2s12.6-12.1,12.6-12.1s-2.9-3.8,0.8-9.6c3.8-5.8,2.1-25.8,30.1-33.8
					C693.9,675,700,674.2,705.9,674.2 M705.9,673.6c-6.1,0-12.2,0.9-18.2,2.6c-22.1,6.3-26.1,20.2-28.5,28.5c-0.7,2.3-1.2,4.3-2,5.5
					c-3.2,4.9-1.8,8.5-1.1,9.8c-2.3,1.9-11.1,9.4-12.3,12c-1.3,2.8,0.1,7,3.9,11.4c-1.1,1.2-2.4,3.9-0.4,9.4
					c-1.6,0.6-2.1,1.8-2.3,2.5c-0.3,1.4,0.1,3,1.1,3.7c1.1,0.8,6.5,7.5,6.9,13.1c0.4,5.4,4.1,9.4,8.6,9.4c0.3,0,0.7,0,1-0.1
					c0.8-0.1,1.6-0.2,2.4-0.4c1.8-0.3,3.6-0.6,5.7-0.6c2,0,4.1,0.3,6.2,1c4.5,1.4,5.5,2.5,5.8,2.8c-0.3,0.8-1.3,3.5-2.4,9.2
					c-11.9,3.2-20.8,19.3-22.2,25c-0.9,3.7-1.5,3.9-4.1,5c-0.7,0.3-1.6,0.7-2.7,1.2c-3.8,1.9-13.5,11.1-19.3,16.7
					c-2,1.9-3.6,3.4-4.2,3.9c-1.6,1.3-3.2,7.1-5.4,15.9c-1,4.1-2,7.9-2.8,9.9c-2.1,5.4-21.4,27.9-29.4,30.9
					c-8.6,3.2-22.1,13-24.6,19c-2.6,6-2.6,23.7-1.7,34.4c0.5,6.6,8.3,10.4,21.4,10.4c4.5,0,9.3-0.5,13.7-1.3
					c6.2,9.1,20.2,12.3,23.4,13c-0.7,3.3-4.1,18.3-4.1,28c0,1.6-0.1,4.3-0.1,7.8c-0.7,34.4-0.7,69.9,4.3,74.5
					c-0.6,2.7-1.6,10.6-2.7,19.7c-1.6,12.6-3.3,26.9-4.8,33.5c-2.5,11.8,0.4,66.2,7.5,96.9c0,0.2,5,26.2,8.1,54.7
					c1.8,16.9,5.5,35.6,9.1,53.7c2.5,12.9,5,25.1,6.5,35.8c3.5,24.2,7.3,42.1,7.7,43.9c-0.3,1.2-2.4,9-2.4,19.3
					c0,6.7,0.8,11,1.4,14.4c0.4,2.3,0.8,4.1,0.8,6c0,3.9-2.6,4.5-6,5.2c-0.4,0.1-0.8,0.2-1.2,0.2c-4,0.9-5.2,2-5.7,5.4
					c-0.4,2.8,1.4,5.1,3.5,7.8c0.4,0.5,0.8,1,1.2,1.6c-4.5,5.9-20.3,14.7-28.6,17.7c-7.3,2.6-19.8,2.8-25.1,3c-0.6,0-1.1,0-1.5,0
					c-0.9,0-1.8,0.4-2.4,1.1c-1.6,1.7-1.8,4.8-1.8,6.1c-1.8,0.2-3.6,0.7-3.6,1.9c0,0.8,1.2,1.6,9.5,5.1c1.8,0.8,3.4,1.4,4.2,1.8
					c2.2,1.1,14.9,2.1,23.3,2.1c2.9,0,5-0.1,6.3-0.3c2.6-0.5,9.2-0.5,15.5-0.5c7.1,0,13.7-0.1,15.6-0.7c3.6-1.1,17.9-7.7,18.9-8.3
					c0,0,0,0,0,0c0,0,0.2-0.1,1-0.1c2.4,0,7.4,0.6,9.1,0.8c0,2.3-0.1,4.8-0.3,5.3c-0.1,0.2-0.2,0.5-0.1,0.7c0.2,0.4,0.4,0.8,8.7,1
					c4.1,0.1,9.7,0.2,15.4,0.2c5.4,0,9.6-0.1,10.6-0.1c1.4-0.1,11-0.3,20.3-0.5c9.5-0.2,18.4-0.4,20-0.5c2.9-0.2,12.7-4.3,15.5-5.5
					l0.8,6.6l0.1,0.6l0.6,0l20.9-0.1l0.6,0v-0.6c0-1.2-0.1-11.4-2.4-14.8c0.1-0.1,0.2-0.2,0.2-0.3c1-1.3,1.2-4.3,0.6-7.9
					c4.1-0.6,5-7.1,6.2-15.3l0.2-1.3c1.1-7.4-2.3-12.7-4.6-16.2c-0.6-0.9-1.1-1.7-1.4-2.4c-2.2-4.3-13.9-8.2-16.3-9l-0.8-13.9
					c1.4-1.4,9.2-9.4,9.2-17c0-0.8,0-1.8,0-3.1c0-11.6,0.2-42.4-2.1-52.7c-0.7-3.3-1.1-10.2-1.6-18.9c-1.2-22-3-55.1-12.3-79.5
					c-12.3-32.6-11.4-45.9-9.8-68c0.1-1.1,0.2-2.2,0.2-3.4c1.6-23.3,7.1-107.8,7.5-113.5c0.9-0.6,3.7-3,6.2-8l0.1-0.1v-0.1
					c0-4.6-1.9-23.4-3.8-43.4c-1.8-18.7-3.8-38-4.6-49.6c-1.7-24.4,6.9-76.4,10.4-85.7c3.7-9.6,12.1-48.3,12.6-52.3
					c0.5-4.2-4.7-33-7.6-37.5c-2.7-4.1-8.3-5.4-9.7-5.7c-1.1-2.4-8.5-18.2-12.1-22.3c-3.6-4.1-16.3-6.6-18.8-7.1l-3.3-13.4l-0.1-0.3
					l-0.3-0.1l-3-1.4c0.2-1.4,1-4.6,2.1-8.5c3.2-11.5,8.7-30.7,7.5-47c-0.6-8.7-5.2-16-13.2-21.4
					C726.7,676.3,716.7,673.6,705.9,673.6L705.9,673.6z"/>
			</g>
			<g>
				<path class="st1" d="M824.2,1524.8c-8.1,0-18.6-0.2-24.9-0.4c-2,0-3.6-0.1-4.5-0.1c-1.5-0.4-14.2-3.7-14.2-7
					c0-3.8,2-5.6,6.5-5.8c4.8-0.2,20.4-4.8,22.6-6.7c2.1-1.9,10.7-10.8,12.7-13.9c3.5-5.2,9-14.1,9.1-15.9c0-0.4,0.1-1.1,0.1-1.8
					c0.2-2.9,0.4-7.6,0.2-11.6c-0.3-5.1,2.1-13.7,3-15.6c0.8-1.6,3.1-4.1,3.7-4.8c-0.6-0.9-3.1-5-5.8-8.6c-2.5-3.4-2.6-6.5-2.7-12.1
					c0-1.5-0.1-3.3-0.2-5.3c-0.2-4.5-1.4-16.3-2.7-30c-1.4-14.5-3-31-4-43.7c-1.5-20.3-1.5-44.7-1.4-73c0-6.2,0-12.6,0-19.1
					c0-0.5-1-49.5,0.1-85.5c1.1-36,4-53.6,10.3-85.4c4.9-24.7,11.1-36.6,14.1-42.3c0.7-1.3,1.2-2.3,1.5-3.1c-3-1.8-3-4.5-2.9-8.9
					c0-1.9,0.1-4-0.1-6.5c-7.7-6.7-15.9-33.4-19-43.4c-0.6-2-1-3.4-1.2-3.9c-1.4-3.6-8.4-34.4-8.7-35.7c-0.1-0.1-2.4-4.2-2.5-5.8
					c-0.1-1.5,1.2-5.5,1.5-6.3l-6.1-11.5l-0.4-5.5c-0.2-0.4-1.5-2.8-1.5-4.9c-0.1-1.9-0.2-11.3-0.1-11.8c0-0.5-2.1-7-3.9-11.9
					c-1.5-4.1-1.4-4.4-0.7-5.1c0.1-0.1,0.2-0.2,0.3-0.3c0.3-0.3,0.7-0.5,1.2-0.5c1.1,0,2.6,0.8,3.8,1.9c1.1,1.1,1.6,3,1.9,4.1
					c0.1,0.3,0.1,0.6,0.2,0.7c0.6-0.3,2.4-1.5,2.3-2.2c-0.2-0.9-3.3-8.2-5.1-11.6c-0.6-1.1-0.7-2-0.3-2.6c0.3-0.6,1.1-0.8,2.1-0.8
					c0.6,0,1.3,0.1,1.9,0.3c1.9,0.5,4.6,3,5.9,5.1c0.8,1.2,2.1,2.6,2.9,3.4c-0.4-1.7-1.2-5.1-2.1-7.2c-0.4-1.1-0.5-1.9-0.2-2.3
					c0.2-0.3,0.6-0.5,1.2-0.5c0.5,0,1.2,0.2,2.1,0.5c2,0.8,3.8,2.7,5.4,5.6c2.1,3.8,5.6,9.8,6.1,10.6l20.6,8.5
					c0.3-2,1.5-10.8,3.1-14.8c1.1-2.8,5.6-5.4,9.3-7.4c2.2-1.2,4.2-2.3,4.5-3c0.7-1.5,6.8-3.5,13-5.4c1.3-0.4,2.4-0.7,2.9-0.9
					c2.1-0.8,8.9-5.8,9.7-7.4c0.5-1,3.5-4.6,6.4-8.1c2-2.5,4-4.8,4.3-5.4c0.8-1.4,5.8-2.4,7-2.6c0.2-1.8,1.4-14,1.7-19.7
					c0.1-2.8-0.1-4.3-0.7-5c-0.5-0.6-1.4-0.6-2.7-0.6l-0.8,0c-3.5,0-10,0-11.2-3c-1.2-3-7-20.6-7.6-25.4c-0.6-5.1,1.1-9.3,3.2-14.6
					l0.2-0.4c2.3-5.8,1.9-11.5,1.7-14.5c-0.2-2.6,2-4.7,3.9-6.6c0.9-0.9,1.8-1.8,2.3-2.6c0.5-0.8,0.7-2.3,1-4.3
					c0.5-3.7,1.2-8.7,4.6-13.9c-0.6-1.4-0.1-3.6,1.5-5.9c1.6-2.3,3.9-4.4,6.3-5.6c5.1-2.6,21.6-5.7,30.2-6.5
					c0.6-0.1,1.2-0.1,1.8-0.1c8.3,0,19.3,5,24.2,9.7c5.4,5.1,14.3,19.6,15.3,28.4c10.5,7,8,14.5,5.7,21.1c-0.2,0.7-0.5,1.3-0.7,2
					c-2.1,6.4-9,8.3-10.4,8.6c-0.1,0.8-0.5,3.6-3.1,11.1c-3.4,10-12.1,12.5-15.7,13.1c-4.7,0.8-6,2.8-8.8,10.2
					c-2.5,6.8,0.3,14.3,0.8,15.6h12.1l4.4,8.4l-1.9,6.7c1.9,1.3,17.7,12.4,24.2,15.3c7.3,3.2,15.7,26.9,16.5,32.6
					c0.8,5.6,0.3,35.7-2.8,55.4c-3.1,19.7-21.1,60.2-26.2,68.7c-3.1,5.1-7.2,6.2-10.2,6.2c-1.9,0-3.4-0.4-4-0.7l-4,7.9
					c6.1,3.6,10.7,27.9,16.4,58.5c0.8,4.5,1.7,9.1,2.6,13.8l0.5,2.6c6.6,34.4,7.1,37.2-3.3,66.9c0.9,20.7-5.7,51.4-8.8,66.2
					c-0.9,4-1.5,6.9-1.6,8c-0.2,1.4-0.6,3.6-1.1,6.1c-1.3,6.1-3.1,14.5-1.7,18.8c1.5,4.6,1.1,7.5,0.6,11.6c-0.2,1.5-0.4,3.1-0.6,5.1
					c-0.1,1.3-0.3,4.8-0.6,10c-1.4,24.2-4.6,81-9,113.1c-3.9,28.8-4.7,54.8-5,67.3c-0.2,5.8-0.2,7-0.4,7.3c-0.7,1-2.8,1.8-10.9,2.6
					c2.8,4.5,4.3,18.3,5.3,28.5c0.3,3.2,0.6,5.9,0.9,7.8c0.2,1.3-0.1,2.5-0.9,3.6c-3.2,3.9-13.3,4.7-23.1,5.4
					c-1.4,0.1-2.8,0.2-4.1,0.3c-1.9,0.2-3.4,0.2-4.7,0.2c-5.3,0-5.8-1.3-6.2-3.5c-0.1-0.6-0.3-1.4-0.6-2.1
					c-1.1-2.3-0.3-6.7,0.4-11.4c0.5-2.9,1-5.8,1-8.1c0-6.4-1.5-21.4-2.2-22.6c-0.9-1.5-3.8-29.2-4-31.6c-0.1-1.7,2.1-17.7,4.5-34.6
					c2.4-16.8,4.9-34.1,4.7-35.9c-0.3-3.6-2-32.6-2-32.9c-0.1-0.3-3.7-9.3-3.4-15.8c0.3-6.5,0.3-29.4,0-32.3
					c-0.3-2.6-11.7-55.2-13.3-62.6l-6.6,13.2c0.1,1.5,1.1,22.3,1.7,27.2c0.6,5.5,2.2,73.6,0.6,90.8c-1.6,17.2-1.2,51,0.8,58.3
					c2,7.3,3.9,58.3,3.9,60.5l-3.1,22.8c1,6.5,2.9,19.2,3.1,20l0,0.1l-0.1,0.2c-0.1,0.2-0.4,0.3-1.6,0.3c-1.4,0-3.7-0.2-6.1-0.3
					c-3-0.2-6.3-0.4-8.8-0.4c-2.7,0-3.3,0.3-3.4,0.4c-0.1,0.1-0.3,0.2-0.4,0.2h-0.1l-0.2-0.1c-1.1-1.1-0.2-19.3,0.1-23.9
					c-2.4,0.6-15.3,3.7-20.3,8c-2.4,2.1-5.3,5.1-8.1,8.1c-3.7,3.9-6.9,7.3-8.6,7.9C834.7,1524.7,831,1524.8,824.2,1524.8z"/>
				<path class="st4" d="M947.8,701.1c8.5,0,19.3,5.2,24,9.6c5.1,4.8,14.3,19.4,15.2,28.4c11.5,7.6,7.3,15.7,5.1,22.8
					c-2.2,7-10.4,8.4-10.4,8.4s0,2.2-3.1,11.2c-3.1,9-10.7,12.1-15.5,12.9c-4.8,0.8-6.2,2.8-9,10.4c-2.8,7.6,0.8,16,0.8,16H967
					l4.2,8.1l-2,6.7c0,0,17.4,12.4,24.4,15.5c7,3.1,15.5,26.4,16.3,32.3c0.8,5.9,0.3,36-2.8,55.4c-3.1,19.4-20.8,59.6-26.1,68.6
					c-2.9,5-6.9,6.1-9.9,6.1c-2.4,0-4.2-0.7-4.2-0.7s0,0-4.2,8.4c7,3.4,12.1,35.4,19.1,72.2c7,36.8,7.9,39.1-2.8,69.4
					c1.1,26.4-9.8,69.1-10.4,74.2c-0.6,5.1-4.8,18.8-2.8,25c2,6.2,0.6,9.3,0,16.6c-0.6,7.3-4.2,84-9.6,123.1
					c-5.3,39.1-4.8,73.6-5.3,74.5c-0.6,0.8-2.5,1.7-11.2,2.5c3.9,5.1,5.3,28.9,6.5,36.5c1.1,7.6-15.2,7.9-27.8,8.9
					c-1.9,0.2-3.4,0.2-4.7,0.2c-7.2,0-5.1-2.4-6.6-5.5c-1.7-3.7,1.4-13.5,1.4-19.4c0-5.9-1.4-21.4-2.2-22.8
					c-0.8-1.4-3.7-28.1-3.9-31.5c-0.3-3.4,9.6-66.9,9.3-70.5c-0.3-3.7-2-32.9-2-32.9s-3.7-9.3-3.4-15.7c0.3-6.5,0.3-29.5,0-32.3
					c-0.3-2.8-13.5-63.5-13.5-63.5l-7,14c0,0,1.1,22.2,1.7,27.3c0.6,5.1,2.2,73.1,0.6,90.8s-1.1,51.1,0.8,58.4
					c2,7.3,3.9,60.4,3.9,60.4l-3.1,22.8c0,0,2.8,19.1,3.1,20.1c0,0.2-0.5,0.2-1.4,0.2c-3.1,0-10.4-0.8-14.9-0.8
					c-1.9,0-3.3,0.1-3.6,0.5c0,0-0.1,0.1-0.1,0.1c-1.2,0,0.1-24.1,0.1-24.1s-15.2,3.4-20.8,8.1c-5.6,4.8-13.8,14.9-16.6,15.9
					c-1,0.4-5.5,0.5-11.3,0.5c-10.7,0-25.6-0.4-29.5-0.5c0,0-13.9-3.5-13.9-6.7s1.4-5.3,6.2-5.5c4.9-0.2,20.6-4.9,22.8-6.8
					c2.2-2,10.7-10.9,12.8-14c2-3.1,9-13.9,9.1-16c0.1-2.1,0.6-8.4,0.3-13.5c-0.3-5,2.1-13.6,3-15.4c0.9-1.8,3.8-4.9,3.8-4.9
					s-2.8-4.7-6-8.9c-3.2-4.2-2.4-7.9-2.8-17.2c-0.4-9.3-4.8-49-6.7-73.7c-1.9-24.7-1.4-56-1.4-92.1c0,0-1-49,0.1-85.5
					c1.1-36.4,4.2-54.6,10.3-85.4c6.1-30.8,14.1-41.3,15.7-45.5c-4.4-2.5-2.5-6.7-3.2-15.4c-9.1-7.7-18.8-43.7-20.2-47.3
					c-1.4-3.7-8.7-35.7-8.7-35.7s-2.4-4.2-2.5-5.7c-0.1-1.5,1.5-6.3,1.5-6.3l-6.1-11.6l-0.4-5.5c0,0-1.4-2.6-1.5-4.9
					c-0.1-2.2-0.2-11.3-0.1-11.7c0.1-0.3-2.2-7.3-3.9-12.1c-1.7-4.8-1.3-4.2-0.5-5.1c0.2-0.3,0.6-0.4,1-0.4c1,0,2.5,0.7,3.6,1.8
					c1.6,1.5,1.9,4.9,2.2,4.9c0.3,0,2.9-1.5,2.7-2.6c-0.2-1-3.4-8.4-5.1-11.7c-1.2-2.3,0-3,1.5-3c0.6,0,1.3,0.1,1.8,0.3
					c1.9,0.5,4.4,3,5.7,4.9c1.3,2,3.7,4.2,3.7,4.2s-1.1-5.3-2.3-8.3c-0.7-1.9-0.2-2.4,0.7-2.4c0.6,0,1.3,0.2,1.9,0.5
					c1.8,0.7,3.6,2.4,5.3,5.5c2.2,4.1,6.2,10.7,6.2,10.7l21.1,8.7c0,0,1.4-10.7,3.1-15.2c1.7-4.5,12.9-8.4,13.8-10.4
					c0.8-2,13.5-5.3,15.7-6.2c2.2-0.8,9-5.9,9.8-7.6s9.8-12.1,10.7-13.5c0.8-1.4,7-2.5,7-2.5s1.4-13.8,1.7-19.9
					c0.3-5.7-0.9-5.9-3.7-5.9c-0.3,0-0.5,0-0.8,0c-3.4,0-9.8,0-11-2.8s-7-20.5-7.6-25.3c-0.6-5.1,1.1-9.3,3.4-14.9
					c2.2-5.6,2-11,1.7-14.6c-0.3-3.7,4.5-6.5,6.1-9c1.6-2.5,0.4-10.4,5.7-18.3c-1.4-2.8,2.5-8.7,7.6-11.2c5.1-2.5,21.4-5.6,30.1-6.5
					C946.5,701.1,947.1,701.1,947.8,701.1 M947.8,700.5c-0.6,0-1.3,0-1.9,0.1c-8.6,0.8-25.1,3.9-30.3,6.5c-5.2,2.6-9.2,8.5-8,11.7
					c-3.4,5.1-4.1,10.2-4.6,13.9c-0.3,1.9-0.5,3.4-1,4.1c-0.5,0.8-1.3,1.6-2.2,2.5c-1.9,1.9-4.2,4.1-3.9,6.9c0.2,3,0.7,8.6-1.6,14.3
					l-0.2,0.4c-2.2,5.4-3.9,9.6-3.3,14.8c0.6,4.8,6.4,22.4,7.6,25.4c1.3,3.2,8,3.2,11.5,3.2l0.4,0l0.4,0c1.3,0,2,0.1,2.4,0.5
					c0.6,0.6,0.8,2.1,0.6,4.8c-0.2,5.5-1.4,17-1.6,19.5c-1.9,0.4-6.1,1.3-7,2.7c-0.3,0.6-2.3,3-4.3,5.3c-3.5,4.2-5.9,7.2-6.4,8.2
					c-0.7,1.5-7.2,6.4-9.5,7.3c-0.5,0.2-1.6,0.5-2.9,0.9c-8.1,2.5-12.5,4.1-13.2,5.6c-0.2,0.6-2.4,1.8-4.3,2.9
					c-3.7,2.1-8.3,4.6-9.4,7.6c-1.4,3.8-2.7,11.9-3,14.5l-20.1-8.3c-0.6-1.1-4.1-6.8-6.1-10.5c-1.7-3.1-3.5-5-5.6-5.8
					c-0.9-0.3-1.6-0.5-2.2-0.5c-0.8,0-1.2,0.3-1.4,0.6c-0.4,0.6-0.3,1.4,0.1,2.6c0.7,1.7,1.4,4.3,1.8,6.1c-0.7-0.7-1.5-1.7-2.1-2.5
					c-1.4-2.1-4-4.7-6.1-5.2c-0.7-0.2-1.4-0.3-2-0.3c-1.4,0-2.1,0.5-2.3,1c-0.4,0.7-0.3,1.7,0.3,2.9c1.7,3.4,4.9,10.6,5.1,11.5
					c0,0.4-1.1,1.3-1.8,1.7c0-0.1-0.1-0.2-0.1-0.4c-0.3-1.2-0.8-3.1-2-4.2c-1.3-1.2-2.9-2-4.1-2c-0.8,0-1.2,0.3-1.5,0.6
					c-0.1,0.1-0.2,0.2-0.3,0.3c-0.9,0.9-0.8,1.4,0.7,5.4c1.7,4.9,3.8,11.1,3.9,11.9c-0.1,1.3,0,10.3,0.1,11.7c0.1,2.1,1.3,4.5,1.5,5
					l0.4,5.3l0,0.1l0.1,0.1l6,11.4c-0.4,1.1-1.6,4.8-1.5,6.3c0.1,1.6,2.1,5.2,2.5,5.9c0.5,2.2,7.4,32,8.7,35.6
					c0.2,0.6,0.6,2,1.2,3.9c3.4,11,11.2,36.6,19,43.5c0.2,2.5,0.2,4.5,0.1,6.4c-0.1,4.2-0.1,7.1,2.9,9c-0.3,0.7-0.8,1.7-1.4,2.8
					c-3,5.7-9.2,17.6-14.1,42.3c-6.3,31.8-9.2,49.5-10.3,85.5c-1.1,36-0.1,85-0.1,85.5c0,6.5,0,12.9,0,19.1
					c-0.1,28.3-0.1,52.8,1.4,73c1,12.7,2.6,29.1,4,43.7c1.3,13.7,2.5,25.5,2.7,30c0.1,2,0.1,3.8,0.2,5.3c0.1,5.7,0.2,8.8,2.8,12.3
					c2.6,3.4,4.9,7.2,5.7,8.4c-0.8,0.9-2.9,3.2-3.6,4.7c-0.9,1.9-3.3,10.6-3,15.7c0.2,3.9-0.1,8.7-0.2,11.6c0,0.8-0.1,1.4-0.1,1.9
					c-0.1,1.6-5.3,10.2-9,15.7c-2.1,3.1-10.6,12-12.7,13.9c-2.1,1.9-17.6,6.5-22.4,6.7c-4.7,0.2-6.8,2.1-6.8,6.1
					c0,3.5,12,6.7,14.3,7.3l0.1,0l0.1,0c0.9,0,2.5,0.1,4.5,0.1c6.3,0.1,16.8,0.4,24.9,0.4c9,0,10.9-0.3,11.5-0.5
					c1.7-0.6,4.9-4,8.7-8c2.8-2.9,5.7-6,8.1-8.1c4.7-4,16.5-7.1,19.7-7.8c-0.5,8.8-1,22.6,0,23.7c0.1,0.2,0.3,0.2,0.5,0.2
					c0.2,0,0.4,0,0.6-0.3c0.1,0,0.5-0.3,3.2-0.3c2.5,0,5.8,0.2,8.8,0.4c2.4,0.2,4.8,0.3,6.2,0.3c1.2,0,1.6-0.1,1.9-0.4
					c0.1-0.2,0.2-0.4,0.1-0.6c-0.2-0.7-1.9-12.3-3.1-20l3.1-22.7l0-0.1l0-0.1c-0.1-2.2-2-53.3-4-60.5c-2-7.3-2.5-41.1-0.8-58.2
					c1.6-17.2,0-85.4-0.6-90.9c-0.5-4.8-1.6-25-1.7-27.1l6.2-12.3c2.2,9.9,12.9,59.2,13.1,61.7c0.3,2.8,0.3,25.7,0,32.2
					c-0.3,6.2,3,14.8,3.4,15.9c0.1,1.9,1.7,29.3,2,32.8c0.1,1.8-2.4,19.9-4.7,35.9c-2.4,16.9-4.7,32.9-4.5,34.7c0.1,1.4,3,30,4,31.7
					c0.7,1.2,2.2,16.3,2.2,22.4c0,2.3-0.5,5.2-0.9,8.1c-0.8,4.7-1.5,9.2-0.4,11.6c0.3,0.7,0.5,1.4,0.6,2.1c0.4,2.3,1,3.8,6.5,3.8
					c1.3,0,2.8-0.1,4.7-0.2c1.3-0.1,2.7-0.2,4.1-0.3c9.9-0.7,20-1.5,23.3-5.5c0.9-1.1,1.2-2.4,1-3.8c-0.3-1.8-0.6-4.6-0.9-7.7
					c-1-9.9-2.4-23.2-5.1-28.2c7.9-0.8,10-1.6,10.7-2.7c0.2-0.3,0.3-1,0.4-7.4c0.3-12.5,1.1-38.5,5-67.3c4.4-32.1,7.6-88.9,9-113.1
					c0.3-5.2,0.5-8.7,0.6-10c0.1-1.9,0.4-3.6,0.5-5.1c0.5-4.1,0.9-7.1-0.6-11.7c-1.4-4.3,0.4-12.6,1.7-18.7c0.5-2.5,1-4.6,1.1-6.1
					c0.1-1.1,0.7-4,1.6-8c3.1-14.8,9.7-45.4,8.8-66.2c10.4-29.7,9.9-32.5,3.3-67l-0.5-2.6c-0.9-4.7-1.8-9.3-2.6-13.8
					c-5.7-30.3-10.2-54.3-16.3-58.5l3.7-7.4c0.7,0.2,2.1,0.6,3.9,0.6c3,0,7.3-1.1,10.4-6.4c5-8.5,23.1-49.1,26.2-68.8
					c3.2-19.8,3.6-49.9,2.8-55.5c-0.8-5.7-9.3-29.6-16.7-32.8c-6.3-2.8-21.4-13.4-24-15.1l1.8-6.3l0.1-0.2l-0.1-0.2l-4.2-8.1
					l-0.2-0.3H967h-11.7c-0.6-1.7-3-8.8-0.7-15.2c2.8-7.6,4.2-9.2,8.5-10c3.6-0.6,12.5-3.2,15.9-13.3c2.4-6.8,2.9-9.8,3.1-10.9
					c1.8-0.4,8.4-2.4,10.4-8.8c0.2-0.6,0.4-1.3,0.7-2c2.2-6.3,4.9-14.2-5.7-21.3c-1.1-9.6-10.6-24-15.3-28.5
					C967.2,705.5,956.2,700.5,947.8,700.5L947.8,700.5z"/>
			</g>
			<g>
				<path class="st1" d="M1109.3,1515.1l2.8-1.5c-0.3-0.8-1.1-3-0.9-5.5c0.2-2.4,3.9-5.4,6.6-7.6c0.6-0.5,1.2-1,1.7-1.4
					c2-1.8,5.8-8.5,5.9-14.9c-0.9-0.4-1.1-2.5-1.4-5.9c-0.2-2.2-0.4-4.5-0.9-6c-1.2-3.7-2-14.4-1.6-20c0.4-4.2,4.8-9.6,7.8-13.2
					c1.1-1.3,2.1-2.5,2.5-3.2c1.4-2.4,5.7-14.5,6.1-15.6c-0.3-1.3-3.9-17.6-6-27.3c-1.8-8.1-1.9-10.3-1.9-12.8c0-0.7,0-1.3-0.1-2.1
					c-0.2-4,1.9-49.4,2-52.2c-0.6-1.2-8.2-17.6-9.9-23.3c-0.6-2-1.7-6.7-3.2-12.6c-2.9-11.9-6.8-28.2-10-37.5
					c-2.7-5.3-8.9-24.9-9.1-25.7l-7.8-11.7c-1.5,3-10.1,20-15.4,32.6c-5.8,13.7-12.5,37.1-15.2,50.4c-2.6,12.8-4,15.1-8.5,18.2
					c0.1,2.4,1.5,7,2.3,9.6c0.1,0.4,0.2,0.8,0.3,1.1c0.6,2.1-0.2,12-1.3,19.2c-0.1,0.7-0.2,1.5-0.4,2.4c-1.1,6.8-2.7,17.2-1.8,25.5
					c0.9,8.2-1.5,16.8-3,22.5c-0.2,0.9-0.5,1.7-0.7,2.4c-1.4,5.2-0.5,8,1.8,12.7c2.2,4.6,2.4,9.6,2.6,14.9c0.3,6-0.1,15.2-1.5,21.2
					c-1.4,6-8.4,10.5-9.7,11.3c0.4,1.5,2.4,9.5,1.7,14c-0.7,4.8-1.1,12.8-1.1,12.9c0,0.4,1.1,9.7,0.9,12.6c-0.1,2.3-1.7,4.5-2.4,5.5
					l4.6,0.7l0,0.2c0,0,0.7,9.2,0.9,12.1c0.2,2.4,0.4,4.6-0.5,5.6c-0.3,0.3-0.7,0.5-1.1,0.5h-47.1v-5.1c-1.6,0.5-7.5,2.2-13.7,3.9
					c-4.3,1.2-13.2,1.8-26.5,1.8c-5.1,0-10.8-0.1-17.3-0.3c-17.7-0.5-26.8-5.6-26.9-5.6l-0.2-0.1l1.2-3.9l0.1-0.1
					c0.7-0.4,2.7-1.6,3.1-2.2c0.2-0.2,0.3-1.3,0.4-2.2c0.1-1.5,0.3-3.4,0.9-4.6c1-1.9,4.5-2.9,10.3-2.9c0.4,0,0.7,0,1.1,0
					c0.2,0,0.3,0,0.5,0c5.9,0,13.2-1.9,22.4-4.4c9.2-2.4,24.3-17.9,25.8-19.5c-0.2-0.7-0.9-3.5-1-5.5c-0.1-2.5,4.7-12,7.3-16.2
					c2.6-4.2,2.6-4.2,2.3-10.3l-0.1-1.7c-0.3-7.4,0.3-12.8,0.8-17.5l0.1-0.8c0.4-3.1,2.1-8,3.6-11.8c0.9-2.4,1.6-4.4,1.8-5.4
					c0.2-1.2-0.7-11.3-1.7-23c-1.1-13-2.5-29.2-3.2-41.6c-1.4-25.9,0.3-61.5,2.7-83.3c1.8-16.1,5.1-30.9,7.1-39.7
					c0.9-3.9,1.5-6.7,1.5-7.4c0-1.3-0.5-2.3-1.1-3.4c-0.5-1-1.1-2.1-1.3-3.5c-0.5-2.9-0.3-29.7,1.5-43.1c0.8-6.2,2.9-13.5,5.1-21.2
					c2.4-8.4,4.8-17.1,5.6-24.5c-2.2-1.7-6-7.9-5.3-11c0.7-2.9,6.9-16.3,7.7-17.9c-0.9-1.6-8.5-14.6-8.5-17.1
					c0-2.3,1.9-23.9,4.2-34.4c2.4-11,14.4-75.2,17.7-97.1c3.2-21.5,14.7-40.2,15.4-41.4c0.2-1.8,3.4-26,6.4-32.2
					c2.8-5.7,5.9-8.5,16.4-17.8c1.2-1.1,2.6-2.3,4-3.6c-0.3-2.8,0.4-7.9,1.3-10.1c0.5-1.1,1.2-4.1,1.9-7.1c0.7-3,1.3-5.5,1.7-6.2
					c0.7-1.2,5.8-6.9,6.8-8c-0.7-1.5-5.5-11.1-6.9-13.5c-1.7-3-5.4-8.1-10.9-8.3c-5.6-0.1-9.5-1.3-11.7-3.7
					c-2.2-2.3-1.7-8.1-0.8-10.5c0.7-1.8-0.3-3.3-1.2-4.5c-0.2-0.2-0.3-0.5-0.5-0.7c-0.8-1.3-1.2-3.3,0.1-4.9c-0.9-1.1-1.2-3-1-4.3
					c0-0.3,0.2-0.8,0.3-1.4c0.4-2.2,1.3-6.8,1.3-7.5c-0.1-0.7-3.1-2.9-4.3-2.9c-1.3,0-2.3-1.1-3.3-3.4c-0.4-1,0.8-2.1,2.2-3.4
					c0.8-0.8,1.7-1.5,2.1-2.2c1-1.6,6-9.9,7-11.5c-0.7-0.5-2.6-1.7-3.4-2.7c-0.9-1.2,0.6-4.3,2.3-7.7c0.3-0.5,0.5-1,0.7-1.5
					c0.8-1.6,1.8-4.3,2.8-7.2c1.2-3.2,2.4-6.6,3.4-8.6c0.5-1.1,5.5-10.7,14.5-19.9c4.4-4.4,11-6.4,21.6-6.4c4.9,0,10.2,0.4,16.8,1
					c16.9,1.5,29.3,14.3,34.9,24.7c4.1,7.7,5,18,2.8,31.3c-1.5,8.6-12.8,27.9-15.3,31.4c-2.4,3.4-3.5,15.9-3.6,17.4
					c0.8,0.8,6.3,6.4,8.5,10.4c0.4,0.7,0.8,1.5,1.2,2.2c1.7,3.2,3,5.8,6.3,6c0.4,0,0.9,0,1.5,0c1.8,0,4.8-0.1,8.2-0.2
					c4.9-0.1,11.1-0.3,16.8-0.3c5.3,0,9.3,0.1,12.2,0.4c9.2,0.9,15.8,19.7,20.6,33.4c0.9,2.5,1.7,4.8,2.5,6.9
					c4.3,11.6,5.7,20.1,4.4,26.8c-0.2,1.3-0.5,2.2-0.6,3c-0.6,2.6-0.7,3.3,0.2,7.1c1.1,4.7,0.1,11.6-1.1,17.7
					c-0.9,4.9-0.5,15.9,0,26.5l0,0.1c0.5,10.9,0.7,29.7,0.5,37.8c-0.2,8.1-2.7,18.5-2.7,18.6c0,0.1-1.3,7.6-1.5,11.1
					c-0.2,2.4-1.8,4.7-3.4,7c-0.9,1.3-1.7,2.5-2.3,3.6c-1.5,3.1-9.4,27.3-10.3,30.5c-0.8,2.9-0.6,21.3-0.1,37.6
					c0.3,8.5-3.3,27.7-5.5,39.2c-0.8,4.2-1.4,7.4-1.4,8c0,1.3-1,1.6-1.9,1.8c-0.9,0.3-2,0.6-2.8,1.9c-1,1.7-1.4,4.8-1.9,7.8
					c-0.2,1.8-0.5,3.5-0.8,4.9c-0.8,3.2,0.3,6.7,1.3,10l0.3,1.1c0.7,2.3,0.1,3.9-0.3,5.1c-0.3,0.9-0.6,1.7-0.4,2.6
					c0.8,2.9,0.6,5.8-0.4,8.8c-1.1,3.4-1.4,6.2-0.1,12.5c1.5,6.9,1.9,15.9,1.3,30.9c1.6,7.4-0.5,25.3-0.6,26.1c0,0,0.6,7.4,2,17.6
					c1.2,8.4,1.8,10.3,3.4,15c0.4,1,0.7,2.2,1.2,3.6c2.5,7.7,6.1,24.8,6.5,30.5c0.1,1.5,0.5,4.1,0.9,7.4c1.3,9.3,3.2,23.4,2.7,32.8
					c-0.5,10.1,0.2,26.4,0.8,42.1c0.2,4.1,0.3,8.3,0.5,12.3c0.2,6,0.5,12.8,0.8,19.3c0.6,14.3,1.2,27.9,0.9,30.1
					c-0.2,1.5-1.3,3.8-2.6,6.4c-1.7,3.4-3.5,7.3-4.3,10.8c-1.2,5.9-4.7,12.8-9.8,19.4c-2.7,3.5-3.1,6.6-1.3,9.4
					c0.1,0.1,0.1,0.2,0.2,0.3c0,0.1,0.1,0.5,0.3,1c0.5,1.9,1.7,6.4,2.3,7.8c0.8,1.8,0.4,4.1-1,6.3c1.3,0,2.8,0.9,3.1,1.8
					c0.2,0.8,1.3,15.4,1.4,17l0,0.3l-7,0.4v-7.2c-0.7,1.6-1.7,4.4-1.8,5.2c-0.3,2.6-1.1,4.2-2.4,4.5c-1.7,0.5-60.2,0.8-62.7,0.8
					l-0.3,0L1109.3,1515.1z"/>
				<path class="st4" d="M1093.4,677.7c5.1,0,10.7,0.4,16.8,1c17,1.5,29.3,14.5,34.6,24.5c5.3,10.1,4.1,22.6,2.7,31.1
					s-12.7,27.6-15.3,31.3c-2.6,3.7-3.7,17.7-3.7,17.7s6.2,6.2,8.5,10.4c2.4,4.3,3.4,8.1,7.7,8.3c0.4,0,0.9,0,1.5,0
					c4.5,0,15.4-0.5,24.9-0.5c4.6,0,9,0.1,12.2,0.4c10.7,1.1,17.8,26.8,22.8,40.1c5,13.4,5.5,21.1,4.4,26.7s-1.7,5.2-0.5,10.2
					c1.2,5-0.1,12.6-1.1,17.5c-0.9,5-0.5,15.8,0,26.7c0.5,10.9,0.7,29.6,0.5,37.8c-0.2,8.2-2.7,18.5-2.7,18.5s-1.3,7.6-1.5,11.1
					c-0.2,3.6-4.1,7.2-5.7,10.4s-9.4,27.3-10.3,30.6c-0.9,3.3-0.5,25.8-0.1,37.7c0.4,11.9-6.9,45-6.9,47.2s-3,0.8-4.6,3.6
					c-1.7,2.7-1.8,9.1-2.7,12.8c-0.9,3.7,0.5,7.5,1.7,11.3c1.2,3.8-1.3,5.5-0.7,7.7c0.6,2.3,0.8,5.1-0.4,8.7
					c-1.2,3.6-1.4,6.5-0.1,12.7c1.3,6.2,1.9,14.3,1.3,30.8c1.7,7.5-0.6,26.1-0.6,26.1s0.6,7.4,2,17.7c1.4,10.3,2.1,11,4.6,18.6
					s6,24.8,6.5,30.5c0.5,5.7,4.3,27.4,3.7,40.2c-0.6,12.8,0.6,35,1.3,54.4s2.1,46.1,1.7,49.3s-5.6,10.9-6.9,17.2
					c-1.3,6.3-5.1,13.3-9.7,19.3s-1.3,9.6-1.2,10s1.8,7,2.6,8.9s0.2,4.4-1.3,6.5c0.2,0,0.4-0.1,0.6-0.1c1.2,0,2.7,0.9,2.9,1.6
					c0.2,0.8,1.4,17,1.4,17l-6.4,0.4c0,0,0-7.6,0-8.2c0,0,0,0,0,0c-0.2,0-2.2,5.3-2.4,6.4c-0.1,1.2-0.5,3.8-2.1,4.3
					c-1.7,0.5-62.6,0.8-62.6,0.8l-1.2-9.6l2.8-1.5c0,0-1.2-2.7-0.9-5.6c0.2-2.8,6-6.9,8.2-8.8s6-8.9,6-15.4c-1.5,0-1.2-8.1-2.4-11.7
					c-1.2-3.7-2-14.2-1.5-19.9c0.5-5.7,8.7-13.6,10.2-16.2c1.5-2.6,6.2-15.8,6.2-15.8s-3.8-17.3-6-27.4c-2.3-10.1-1.8-10.9-2-14.9
					c-0.2-4,2-52.3,2-52.3s-8.2-17.4-10-23.4c-1.8-5.9-8.4-36-13.2-50c-2.7-5.3-9.1-25.7-9.1-25.7l-8.2-12.2c0,0-9.7,19.1-15.6,33.1
					c-5.9,14-12.6,37.6-15.2,50.5c-2.6,12.9-4,15.1-8.5,18.1c0,2.7,2,8.9,2.6,10.9c0.6,2-0.2,12.1-1.3,19.1c-1.1,7-3.2,18.6-2.1,28
					c1.1,9.4-2.3,19.3-3.7,24.8c-1.4,5.5-0.4,8.4,1.8,12.9c2.1,4.5,2.4,9.5,2.6,14.8c0.2,5.3,0,14.7-1.5,21.1
					c-1.5,6.4-9.7,11.3-9.7,11.3s2.5,9.2,1.8,14.1s-1.1,12.9-1.1,12.9s1.1,9.7,0.9,12.6c-0.1,2.8-2.7,5.7-2.7,5.7l4.9,0.7
					c0,0,0.7,9.2,0.9,12.1s0.5,5.7-1.3,5.7c-1.8,0-46.8,0-46.8,0v-5.2c0,0-6.9,2-14.1,4c-4.9,1.4-15,1.8-26.5,1.8
					c-5.6,0-11.5-0.1-17.3-0.3c-17.8-0.5-26.8-5.6-26.8-5.6l1.1-3.6c0,0,2.6-1.5,3.2-2.3c0.6-0.7,0.2-4.9,1.3-6.9
					c1-1.9,4.7-2.7,10.1-2.7c0.4,0,0.7,0,1.1,0c0.2,0,0.4,0,0.5,0c5.8,0,12.9-1.9,22.5-4.4c9.8-2.6,26.1-19.7,26.1-19.7
					s-0.9-3.3-1.1-5.6c-0.1-2.3,4.4-11.4,7.2-16c2.8-4.6,2.6-4.3,2.3-12.1c-0.4-7.8,0.4-13.3,0.9-18.3c0.6-5,4.9-14.6,5.4-17.2
					c0.5-2.6-3.6-40.5-4.9-64.7c-1.3-24.2,0.1-59.6,2.7-83.2c2.6-23.6,8.7-44.6,8.7-47.2c0-2.6-1.9-4-2.4-7c-0.5-3-0.2-29.8,1.5-43
					c1.8-13.3,9.2-31.9,10.7-45.9c-2-1.4-6-7.7-5.3-10.8c0.7-3.1,7.7-18,7.7-18s-8.5-14.6-8.5-17.1s1.9-23.9,4.1-34.4
					c2.3-10.4,14.3-74.8,17.7-97.1c3.3-22.3,15.4-41.4,15.4-41.4s3.3-25.8,6.4-32.1c3.1-6.3,6.8-9.1,20.4-21.3
					c-0.4-2.7,0.4-7.9,1.3-10.1c0.9-2.1,2.8-12,3.6-13.3s6.9-8.1,6.9-8.1s-5.5-11-7-13.8c-1.5-2.7-5.3-8.3-11.1-8.4
					c-5.8-0.1-9.5-1.4-11.5-3.6s-1.7-7.8-0.7-10.2c0.9-2.4-0.8-4.1-1.7-5.5c-0.8-1.3-1.2-3.2,0.2-4.7c-0.9-0.9-1.3-3-1.1-4.3
					c0.2-1.3,1.7-8.1,1.5-9c-0.1-0.9-3.3-3.2-4.6-3.2s-2.3-1.4-3-3.2c-0.5-1.3,3.2-3.6,4.3-5.3c1.1-1.8,7.1-11.7,7.1-11.7
					s-2.6-1.7-3.6-2.8c-0.9-1.2,1.4-5.5,3.1-8.9c1.7-3.4,4.3-12,6.2-15.8c1.9-3.8,7-12.2,14.5-19.8
					C1076.8,679.2,1084.3,677.7,1093.4,677.7 M1093.4,677.1c-10.7,0-17.4,2-21.8,6.5c-9.1,9.2-14,18.9-14.6,20c-1,2-2.2,5.4-3.4,8.6
					c-1,2.9-2,5.6-2.8,7.2c-0.2,0.5-0.5,1-0.7,1.5c-2.1,4.2-3.3,6.8-2.3,8c0.7,0.9,2.4,2.1,3.2,2.6c-1.3,2.1-5.9,9.7-6.8,11.2
					c-0.4,0.6-1.2,1.4-2,2.1c-1.5,1.4-2.8,2.6-2.3,3.7c1,2.4,2.1,3.6,3.5,3.6c1.1,0,3.9,2.1,4,2.7c0.1,0.6-0.9,5.5-1.3,7.4
					c-0.1,0.7-0.2,1.2-0.3,1.4c-0.2,1.3,0,3.2,0.9,4.4c-1.2,1.7-0.8,3.7,0,5.1c0.1,0.2,0.3,0.5,0.5,0.7c0.8,1.2,1.8,2.5,1.1,4.2
					c-1,2.5-1.4,8.5,0.8,10.9c2.2,2.4,6.3,3.6,11.9,3.8c5.3,0.1,8.9,5.1,10.6,8.1c1.4,2.4,5.8,11.4,6.8,13.3c-1.3,1.5-6,6.7-6.7,7.9
					c-0.4,0.7-0.9,2.8-1.7,6.3c-0.7,2.8-1.4,6-1.9,7.1c-1,2.2-1.7,7.2-1.4,10.1c-1.4,1.2-2.7,2.4-3.9,3.5
					c-10.5,9.3-13.6,12.1-16.4,17.9c-3,6.1-6.2,29.9-6.4,32.2c-1,1.7-12.3,20.2-15.4,41.5c-3.3,21.9-15.3,86-17.7,97.1
					c-2.3,10.6-4.2,32.2-4.2,34.5c0,2.5,7,14.7,8.5,17.1c-1,2.2-6.9,14.9-7.6,17.8c-0.7,3.2,3,9.3,5.3,11.2
					c-0.8,7.3-3.2,15.9-5.6,24.3c-2.2,7.7-4.2,15-5.1,21.3c-1.8,13.4-2,40.3-1.5,43.2c0.2,1.5,0.8,2.6,1.3,3.6c0.6,1.1,1,2,1,3.3
					c0,0.8-0.6,3.5-1.5,7.4c-2,8.8-5.4,23.6-7.1,39.7c-2.4,21.8-4.1,57.5-2.7,83.3c0.7,12.5,2.1,28.6,3.2,41.6
					c1,11.7,1.9,21.8,1.7,22.9c-0.2,0.9-0.9,3-1.8,5.3c-1.4,3.9-3.2,8.8-3.6,11.9l-0.1,0.8c-0.6,4.7-1.2,10.1-0.8,17.5l0.1,1.7
					c0.3,6,0.3,6-2.2,10.1c-2.7,4.3-7.5,13.8-7.3,16.4c0.1,1.9,0.7,4.4,1,5.4c-2.1,2.1-16.6,16.9-25.5,19.3
					c-9.2,2.4-16.5,4.4-22.3,4.4c-0.2,0-0.3,0-0.5,0c-0.4,0-0.7,0-1.1,0c-6,0-9.5,1-10.6,3.1c-0.7,1.3-0.8,3.2-0.9,4.7
					c-0.1,0.8-0.2,1.9-0.3,2.1c-0.4,0.4-2.1,1.5-3,2.1l-0.2,0.1l-0.1,0.2l-1.1,3.6l-0.1,0.5l0.4,0.2c0.4,0.2,9.3,5.2,27.1,5.7
					c6.5,0.2,12.2,0.3,17.3,0.3c13.5,0,22.2-0.6,26.6-1.8c5.7-1.6,11.3-3.2,13.3-3.8v4.4v0.6h0.6h46.8c0.5,0,1-0.2,1.3-0.6
					c1-1.1,0.8-3.4,0.6-5.8c-0.2-2.8-0.9-12-0.9-12.1l0-0.5l-0.5-0.1l-3.8-0.6c0.8-1.1,2.1-3.1,2.2-5.2c0.1-2.8-0.9-11.8-0.9-12.6
					c0-0.7,0.4-8.2,1.1-12.8c0.6-4.4-1.2-12-1.7-13.9c1.7-1.1,8.2-5.6,9.6-11.4c1.7-6.9,1.8-16.6,1.6-21.3
					c-0.2-5.3-0.5-10.4-2.7-15.1c-2.2-4.6-3.1-7.4-1.7-12.5c0.2-0.7,0.4-1.5,0.7-2.4c1.6-5.7,4-14.4,3-22.6
					c-0.9-8.3,0.7-18.6,1.8-25.4c0.1-0.8,0.3-1.6,0.4-2.4c1-6.4,2-17.1,1.3-19.4c-0.1-0.3-0.2-0.6-0.3-1.1c-0.8-2.5-2.1-7-2.2-9.3
					c4.5-3.1,5.9-5.5,8.5-18.3c2.7-13.3,9.4-36.7,15.2-50.4c5.1-12,13.1-28.1,15.1-32.1l7.5,11.3c0.5,1.6,6.5,20.4,9.1,25.7
					c3.1,9.3,7.1,25.5,10,37.4c1.4,5.9,2.6,10.6,3.2,12.6c1.7,5.7,9.1,21.5,9.9,23.3c-0.2,3.5-2.2,48.2-2,52.2
					c0,0.8,0.1,1.5,0.1,2.1c0.1,2.6,0.1,4.8,1.9,12.9c2.1,9.4,5.6,25.4,6,27.2c-0.5,1.5-4.7,13.1-6.1,15.5c-0.4,0.7-1.3,1.8-2.4,3.1
					c-3,3.6-7.5,9.1-7.8,13.4c-0.5,5.8,0.3,16.3,1.6,20.2c0.5,1.5,0.7,3.8,0.9,6c0.3,3.1,0.5,5.4,1.4,6c-0.2,6.2-3.9,12.8-5.8,14.5
					c-0.4,0.4-1,0.8-1.6,1.4c-2.8,2.2-6.5,5.3-6.7,7.8c-0.2,2.2,0.4,4.4,0.8,5.3l-2.4,1.3l-0.4,0.2l0.1,0.4l1.2,9.6l0.1,0.5l0.6,0
					c6.2,0,61.1-0.4,62.8-0.9c1.4-0.4,2.3-2,2.6-4.8c0.1-0.5,0.6-2.1,1.1-3.5v5.3v0.7l0.7,0l6.4-0.4l0.6,0l0-0.6
					c-0.2-2.7-1.2-16.2-1.4-17.1c-0.3-0.9-1.6-1.8-2.9-2c1.2-2.1,1.5-4.4,0.7-6.1c-0.6-1.4-1.8-5.9-2.3-7.8c-0.2-0.7-0.2-0.9-0.3-1
					c0-0.1-0.1-0.2-0.2-0.4c-1.7-2.6-1.3-5.7,1.3-9c5.1-6.7,8.6-13.6,9.8-19.6c0.7-3.4,2.6-7.3,4.2-10.7c1.3-2.7,2.4-5,2.7-6.5
					c0.3-2.3-0.2-15.2-0.9-30.1c-0.3-6.5-0.6-13.3-0.8-19.3c-0.1-4-0.3-8.1-0.5-12.3c-0.6-15.7-1.3-31.9-0.8-42.1
					c0.4-9.5-1.5-23.6-2.8-32.9c-0.4-3.3-0.8-5.9-0.9-7.4c-0.5-5.8-4-22.9-6.5-30.6c-0.5-1.4-0.8-2.5-1.2-3.6
					c-1.6-4.6-2.2-6.6-3.4-14.9c-1.3-9.7-1.9-16.8-2-17.6c0.2-1.4,2.2-18.8,0.6-26.1c0.5-15,0.2-23.9-1.3-30.9
					c-1.3-6.2-1-9.1,0.1-12.4c1-3.1,1.1-6,0.4-9c-0.2-0.8,0.1-1.5,0.4-2.4c0.5-1.3,1.1-3,0.3-5.3c-0.1-0.4-0.2-0.7-0.3-1.1
					c-1.1-3.4-2.1-6.7-1.3-9.9c0.4-1.4,0.6-3.1,0.8-5c0.4-3,0.8-6.1,1.8-7.7c0.7-1.2,1.7-1.5,2.6-1.7c0.9-0.3,2.1-0.6,2.1-2.1
					c0-0.5,0.6-3.8,1.4-8c2.1-11.5,5.7-30.7,5.5-39.2c-0.5-15.5-0.7-34.7,0.1-37.5c0.9-3.3,8.8-27.4,10.3-30.5
					c0.5-1.1,1.4-2.3,2.3-3.5c1.6-2.3,3.3-4.7,3.5-7.1c0.2-3.5,1.5-11,1.5-11.1c0-0.1,2.5-10.4,2.7-18.6c0.2-8.2,0-26.9-0.5-37.9
					l0-0.1c-0.5-10.6-0.9-21.5,0-26.4c1.2-6.1,2.2-13,1.1-17.8c-0.9-3.7-0.8-4.3-0.2-6.9c0.2-0.8,0.4-1.7,0.6-3
					c1.3-6.8-0.1-15.4-4.4-27c-0.8-2-1.6-4.4-2.5-6.9c-4.8-13.8-11.4-32.7-20.8-33.6c-2.9-0.3-6.9-0.4-12.2-0.4
					c-5.7,0-11.8,0.2-16.8,0.3c-3.4,0.1-6.3,0.2-8.2,0.2c-0.7,0-1.1,0-1.5,0c-3.2-0.2-4.4-2.5-6-5.8c-0.4-0.7-0.7-1.4-1.2-2.2
					c-2.2-3.9-7.3-9.2-8.4-10.4c0.2-2,1.3-13.9,3.5-17.1c2.5-3.6,13.9-22.9,15.4-31.6c2.3-13.4,1.3-23.6-2.8-31.5
					c-5.6-10.5-18.1-23.3-35.1-24.9C1103.7,677.5,1098.3,677.1,1093.4,677.1L1093.4,677.1z"/>
			</g>
			<g>
				<path class="st1" d="M1279.5,1524.7c-2.8,0-7.2-0.4-12.4-1c-7.5-0.8-16.9-1.7-25.4-1.7c-1.8,0-3.6,0-5.2,0.1
					c-4.6,0.3-8.7,0.4-12.3,0.4c-12.2,0-18.3-1.4-18.6-4.3c-0.3-2.5,0.5-5.5,2.2-7.7c1.3-1.7,3.7-3.7,7.9-4.2
					c7.2-0.8,21.4-6.8,22.6-7.2c0.9-1.2,12.7-17.1,15.6-23.8c2.8-6.4,5-32.1,5.3-35.7c0,0,0,0,0,0c-0.9,0-2-0.9-2.2-5.4
					c-0.3-6.1-8.9-118.3-9-119.4c0,0-4.5-11.7-5.3-19c-9.2-12.6-12.7-29.5-15-40.7l-0.5-2.3c-2.1-10.1-11.5-84.1-12.3-90.6
					c-0.7,0.4-2.4,1.1-4.5,1.1c-1.7,0-3.3-0.4-4.8-1.3l-0.1-0.1l0-0.2c-0.1-0.8-5-80.5-5.7-95.7c-0.4-7.4,3.2-21.4,6.9-36.2
					c4.1-16.2,8.4-33,8.4-43.9c0-12.8-4.5-36.5-8.2-55.5c-2.4-12.3-4.2-22-4.2-25.4c0-9.2,26.6-57.4,33.6-65.8
					c6.8-8.2,18.2-17,19.7-18.2c-0.4-2.1-3.9-21.2-6-24.5c-1.9-2.9-7.2-8.5-14.1-8.5c-0.2,0-0.4,0-0.6,0c-0.3,0-0.6,0-0.8,0
					c-3,0-6-0.7-8.4-2.1c-2.1-1.2-3.5-2.7-3.5-3.9c0-1.2,0.6-3.1,1.2-4.9c0.5-1.6,1-3.2,1-4c0-1-0.8-2.4-1.4-3.6
					c-0.6-1.1-1.1-2.1-1.1-2.7c0-1.2,1.7-2.5,2.4-2.9c-0.7-0.9-2.7-3.9-2.4-5.1c0.3-1.2,2.1-5.5,2.5-6.3c-1.1-2.3-3.1-5.7-3.9-6.1
					c-0.8-0.4-1.6-1.6-1.5-2.9c0-0.7,0.4-2,2.2-2.7c2.7-1.1,8.5-6.7,9.8-7.9c-0.6-0.5-2-1.8-2.2-4.3l-0.1-0.7l0.6,0.4
					c0.5,0.4,0.9,0.6,1.3,0.6c0.3,0,0.5-0.1,0.6-0.2l-0.1-3.4c-0.6-0.9-1.6-2.6-2-3c-0.4-0.5,0.1-1.1,0.8-1.9
					c0.4-0.5,0.9-1.1,1.2-1.6l0.2-0.4c3.9-9.8,7.8-16.8,11.2-20.4c0.1-0.7,0.1-1.3,0-1.9c-0.1-2.7-0.1-4.9,8.3-8
					c1.3-0.5,2.5-0.9,3.6-1.3c7.4-2.7,10.7-4,17.6-4.2c1.7-0.1,3.3-0.1,4.7-0.1c7.8,0,8.2,0.8,8.3,1c0.2,0.4,0.5,0.7,0.7,0.9
					c0.6-0.4,2.7-1.7,5.5-1.7c1.6,0,3.1,0.4,4.5,1.2c0.5,0.3,1.1,0.6,1.8,1c5.5,3.1,14.6,8.2,20.9,16.2c7.1,9,10.1,15.1,15.6,31
					c3.7,10.8,6.3,19.7,7.9,25c0.8,2.6,1.3,4.5,1.7,5.4c0.3,0.9,1.3,2.1,2.5,3.5c2.3,2.8,5.5,6.6,7,12.4l0.9,3.7
					c2.5,10.2,6.8,27.2,8.8,33.3c2.3,6.8,5.4,26.3,6.3,32.6c0.6,4.3,2.1,7.8,3.5,10.8c0.4,0.8,0.7,1.6,1,2.3c1.6,4,1.9,10.2,2,12.6
					c0.1,3.8,6.3,32.8,9.8,39.4l0.3,0.6l-0.5,0.3c-0.1-0.2-0.2-0.4-0.3-0.6c-2.2-3.7-3.5-6-4.3-7.3c1.1,3.5,3.4,9.8,5.6,12l1.1,1.1
					l-1.5-0.6c-2.4-1-4.4-2.5-6-3.8c2.2,3.2,5.2,8.5,5.5,12.8l0,0.8l-0.6-0.5c-3.5-3.3-4.8-5.3-5.4-6.2c-0.6,1.5-2.2,5-3.2,6.7
					c-0.3,0.5-0.5,0.7-0.7,0.9c-0.2,0.1-0.2,0.4-0.1,0.8c0.3,1.2,2,2.9,5.1,2.9c0.5,0,1,0,1.6-0.1l0.2,0.6c-3.9,1.4-6.2,1.7-7.5,1.7
					c-0.4,0-0.7,0-0.9-0.1c0.2,1.8,1,8.2,1.4,10.1l0.2,0.8l-0.7-0.5c-5.9-4.5-8.2-8.4-8.6-9l-2.6-1.9c-1.2,2.8-8.7,20.6-10.5,25.6
					c-0.7,2.1-2.9,6.3-5.2,10.8c-3.6,6.9-8,15.4-7.9,17.8c0.2,2.6,12.3,25,21.2,41.4c5.1,9.4,9.5,17.5,10.7,20.2
					c0.3,0.6,0.6,1.2,0.9,1.9c3.6,7.6,7.6,16.2,4,21.4c-3.7,5.3-24,21.5-25.9,22.9c-0.1,1-0.5,7.6,0.3,11.3c0.8,4.1-11.5,9-13.7,9.8
					c-0.2,2.3-1.5,20.6-4.9,23.1c2,7.2,1.9,15-0.4,19.1c-0.6,1.2-1.5,2-2.3,2.3l0.6,2.5c3.7,16.3,5.5,24.4,2.1,35.9
					c-1.2,4.1-2.3,7.4-3.3,10.3c-1.9,5.6-3.1,9.4-3.3,13.1c-0.3,5.4-0.5,18.1-0.5,19.3c0.7,1.1,8.3,13.4,10.4,19.1
					c2.3,6.2,12.4,68.8,14,80.1c1,7.8,1.1,42.2,1.1,67.4c0,14.3,0,25.7,0.2,26.6c0.1,0.3,0,0.5-0.2,0.8c-1.2,1.5-8.7,1.8-14.7,1.8
					c-1.6,0-2.9,0-3.4,0c0,2.4-0.1,18.4,1.9,21.1c2.1,2.9,8.8,17.5,9.9,24.7c0.7,4.4-2.3,8.9-5.2,13.3c-1.9,3-3.8,5.8-4.4,8.4
					c-1.6,6.5-5.6,15.4-5.7,15.5l-0.1,0.2h-9.8l-1.4-13c-2.2,1.6-11.7,8.5-14.7,11.7C1300.5,1524.7,1287.4,1524.7,1279.5,1524.7z"/>
				<path class="st4" d="M1277.1,682.6c5,0,7.8,0.3,8,0.9c0.3,0.7,1,1.2,1,1.2s2.3-1.8,5.5-1.8c1.3,0,2.8,0.3,4.3,1.2
					c5.2,3,15.6,8.3,22.6,17.2c7,8.9,10.1,15,15.5,31c5.4,16,8.5,27.5,9.5,30.4c1,2.9,7.2,7.1,9.5,15.9c2.2,8.8,7.4,30.1,9.8,37
					s5.5,27,6.3,32.5s3.1,9.7,4.5,13.2c1.4,3.5,1.9,8.7,2,12.5c0.1,3.7,6.2,32.7,9.8,39.5c-5.3-9.2-5.6-9.5-5.6-9.5c0,0,0,0,0,0
					s3.2,11.3,6.5,14.6c-4.8-2-8.5-6.3-8.5-6.3s7.2,9.1,7.6,15.6c-5.1-5-5.6-6.7-5.6-6.7s-2.1,5.2-3.5,7.3c-0.2,0.4-0.5,0.6-0.6,0.8
					c-1,0.6,0.6,4.2,5.2,4.2c0.5,0,1,0,1.6-0.1c-3.9,1.4-6.1,1.7-7.3,1.7c-0.9,0-1.2-0.2-1.2-0.2s0.9,8.3,1.4,10.6
					c-6.3-4.7-8.5-9-8.5-9l-3-2.2c0,0-8.7,20.5-10.7,26c-1.9,5.5-13.4,24.6-13.1,28.7s28.4,54.1,32,61.8c3.6,7.7,8.7,17.5,4.9,23
					s-26,23-26,23s-0.5,7.4,0.3,11.5c0.8,4.1-13.7,9.6-13.7,9.6s-1.4,21.3-4.9,23.2c3,10.4,1.1,20.2-2.7,21.3
					c4.1,18.3,6.3,26.5,2.7,38.5c-3.6,12-6.3,17.8-6.6,23.5c-0.3,5.7-0.5,19.4-0.5,19.4s8.2,13.1,10.4,19.1
					c2.2,6,12.3,67.8,13.9,80.1c1.6,12.3,0.8,91.3,1.4,94c0.4,2-9.1,2.2-14.6,2.2c-2.2,0-3.7,0-3.7,0s-0.3,18.6,1.9,21.6
					c2.2,3,8.7,17.5,9.8,24.6c1.1,7.1-7.9,15-9.6,21.6c-1.6,6.6-5.7,15.4-5.7,15.4h-9.3l-1.4-13.2c0,0-11.8,8.4-15.2,12.1
					c-3.4,3.7-16.6,3.7-24.2,3.7c-6.7,0-23.5-2.7-37.8-2.7c-1.8,0-3.5,0-5.2,0.1c-4.2,0.2-8.4,0.4-12.3,0.4c-10.1,0-17.9-1-18.3-4
					c-0.6-4.2,2.2-10.7,9.8-11.5c7.6-0.8,22.8-7.3,22.8-7.3s12.6-16.9,15.7-23.9c3.1-7,5.3-36.2,5.3-36.2s-0.1,0.1-0.4,0.1
					c-0.6,0-1.7-0.6-1.9-5.1c-0.3-6.2-9-119.4-9-119.4s-4.5-11.8-5.3-19.1c-9.8-13.5-13.2-32.3-15.5-43c-2.2-10.7-12.4-91-12.4-91
					s-1.9,1.2-4.7,1.2c-1.4,0-3-0.3-4.6-1.2c0,0-5-80.4-5.7-95.7s15.3-59,15.3-80.2s-12.4-72.1-12.4-80.9c0-8.7,26.2-56.8,33.5-65.6
					c7.3-8.7,19.8-18.2,19.8-18.2s-3.8-21.3-6-24.8c-2.2-3.4-7.6-8.6-14.4-8.6c-0.2,0-0.4,0-0.6,0c-0.3,0-0.6,0-0.8,0
					c-6.6,0-11.6-3.6-11.6-5.7c0-2.2,2.2-7,2.2-8.9s-2.5-5.1-2.5-6.4s2.5-2.9,2.5-2.9s-2.9-3.8-2.5-5.1c0.3-1.3,2.5-6.4,2.5-6.4
					s-2.9-5.7-4.1-6.4c-1.3-0.6-2.5-3.8,0.6-5.1c3.2-1.3,10.2-8.3,10.2-8.3s-2.1-1.2-2.3-4.3c0.6,0.5,1.1,0.7,1.5,0.7
					c0.6,0,0.9-0.3,0.9-0.3l-0.1-3.6c0,0-1.6-2.6-2-3.2s1.4-1.8,2-3.2s5.7-15,11.4-20.9c0.5-3.8-2-6,8.1-9.7s13.2-5.3,21.1-5.5
					C1274.1,682.6,1275.7,682.6,1277.1,682.6 M1385.5,913.2c0.1,0.2,0.2,0.4,0.3,0.6C1385.7,913.6,1385.6,913.4,1385.5,913.2
					 M1277.1,682c-1.4,0-3,0-4.8,0.1c-7,0.2-10.3,1.5-17.7,4.2c-1.1,0.4-2.3,0.8-3.6,1.3c-8.2,3-8.5,5.1-8.5,8.3c0,0.5,0,1.1,0,1.7
					c-3.5,3.7-7.3,10.7-11.2,20.5c-0.1,0.2-0.1,0.4-0.2,0.4c-0.2,0.5-0.7,1-1.1,1.5c-0.7,0.8-1.4,1.6-0.8,2.3
					c0.3,0.4,1.3,1.9,1.9,2.9l0.1,3.1c-0.1,0-0.2,0-0.3,0c-0.3,0-0.7-0.2-1.2-0.5l-1.1-0.9l0.1,1.4c0.2,2.3,1.3,3.6,2,4.3
					c-1.7,1.6-6.9,6.6-9.5,7.6c-2,0.8-2.4,2.2-2.4,3c-0.1,1.5,0.8,2.8,1.7,3.2c0.7,0.3,2.4,3.2,3.7,5.8c-0.5,1.1-2.2,5-2.5,6.2
					c-0.3,1.2,1.3,3.8,2.3,5.1c-0.9,0.6-2.3,1.8-2.3,3c0,0.7,0.5,1.7,1.2,2.9c0.7,1.2,1.4,2.6,1.4,3.5c0,0.8-0.5,2.4-1,3.9
					c-0.6,1.8-1.2,3.7-1.2,5c0,2.5,5.2,6.4,12.2,6.4c0.3,0,0.6,0,0.9,0c0.2,0,0.4,0,0.6,0c6.8,0,12,5.4,13.8,8.3
					c1.7,2.6,4.5,16.7,5.9,24.2c-2,1.5-12.9,10.1-19.6,18.1c-7,8.4-33.7,56.7-33.7,66c0,3.5,1.9,13.2,4.2,25.5
					c3.6,19,8.2,42.6,8.2,55.4c0,10.9-4.2,27.6-8.3,43.9c-3.8,14.9-7.3,28.9-7,36.3c0.7,15.1,5.7,94.9,5.7,95.7l0,0.3l0.3,0.2
					c1.6,0.9,3.2,1.3,4.9,1.3c1.8,0,3.3-0.5,4.2-0.9c1.1,8.8,10.2,80.2,12.3,90.2c0.2,0.7,0.3,1.5,0.5,2.3
					c2.3,11.2,5.8,28.1,15,40.8c0.9,7.1,4.9,17.9,5.3,19c0.3,3.7,8.7,113.3,9,119.3c0.2,3.5,0.9,5.4,2.2,5.7
					c-0.4,4.5-2.5,29.1-5.2,35.3c-2.9,6.6-14.4,22-15.6,23.6c-1.6,0.7-15.4,6.4-22.4,7.2c-4.3,0.5-6.7,2.6-8.1,4.3
					c-1.8,2.3-2.7,5.3-2.3,7.9c0.5,4.1,11.1,4.6,18.9,4.6c3.6,0,7.8-0.1,12.3-0.4c1.6-0.1,3.4-0.1,5.2-0.1c8.4,0,17.8,0.9,25.3,1.7
					c5.2,0.5,9.7,1,12.4,1c7.9,0,21.1,0,24.6-3.9c2.8-3,11.4-9.4,14.2-11.4l1.3,12.1l0.1,0.6h0.6h9.3h0.4l0.2-0.4
					c0-0.1,4.1-9,5.7-15.5c0.6-2.5,2.4-5.3,4.4-8.3c2.9-4.5,5.9-9.1,5.2-13.6c-1.1-7.3-7.8-22-10-24.9c-1.6-2.2-1.9-15.1-1.8-20.6
					c0.7,0,1.8,0,3.1,0c13.3,0,14.5-1.5,14.9-1.9c0.2-0.3,0.3-0.7,0.3-1c-0.2-0.9-0.2-12.8-0.2-26.6c0-25.1-0.1-59.6-1.1-67.4
					c-1.5-11.4-11.7-74-14-80.2c-2.1-5.7-9.4-17.5-10.3-19.1c0-1.7,0.3-13.9,0.5-19.2c0.2-3.7,1.4-7.4,3.3-13
					c1-2.9,2.1-6.2,3.3-10.3c3.4-11.6,1.6-19.8-2.1-36.1l-0.5-2.2c0.9-0.4,1.6-1.2,2.2-2.3c2.3-4.1,2.5-11.9,0.5-19.1
					c3.3-3,4.6-19.6,4.8-23c3.2-1.2,14.5-5.9,13.7-10.1c-0.7-3.5-0.4-9.7-0.3-11c2.4-1.9,22.2-17.7,25.9-22.9c3.7-5.3-0.4-14-4-21.7
					c-0.3-0.6-0.6-1.3-0.9-1.9c-1.3-2.7-5.7-10.9-10.8-20.3c-8.9-16.4-21-38.8-21.2-41.3c-0.2-2.4,4.3-10.8,7.8-17.6
					c2.4-4.6,4.5-8.7,5.3-10.8c1.7-4.8,8.8-21.5,10.3-25.2l2.2,1.7c0.4,0.8,2.8,4.7,8.6,9.1l1.3,1l-0.3-1.6
					c-0.4-1.7-1.1-7.5-1.3-9.7c0.2,0,0.3,0,0.5,0c1.3,0,3.6-0.3,7.6-1.7l-0.3-1.2c-0.5,0.1-1,0.1-1.5,0.1c-2.5,0-4-1.1-4.6-2.2
					c-0.3-0.5-0.3-0.9-0.2-0.9c0.2-0.1,0.5-0.4,0.8-0.9c1-1.5,2.3-4.5,3-6.2c0.7,1.1,2.2,2.9,5.1,5.7l1.1,1.1l-0.1-1.6
					c-0.2-3.7-2.4-8.1-4.5-11.3c1.3,1,2.9,1.9,4.5,2.6l3,1.2l-2.3-2.2c-1.7-1.7-3.4-5.7-4.6-9c0.7,1.2,1.6,2.8,2.7,4.7
					c0.1,0.2,0.2,0.4,0.4,0.6l1.1-0.6l-0.3-0.6c-3.4-6.5-9.7-35.4-9.7-39.2c-0.1-2.5-0.4-8.7-2-12.7c-0.3-0.7-0.6-1.5-1-2.3
					c-1.3-3-2.8-6.4-3.5-10.7c-0.9-6.3-4-25.8-6.3-32.6c-2.1-6.1-6.3-23.1-8.8-33.2c-0.3-1.4-0.7-2.7-0.9-3.7
					c-1.5-5.9-4.7-9.8-7.1-12.6c-1.2-1.4-2.1-2.5-2.4-3.4c-0.3-0.9-0.9-2.8-1.6-5.4c-1.6-5.3-4.2-14.2-7.9-25
					c-5.4-16-8.5-22.1-15.6-31.1c-6.4-8.1-15.5-13.2-21-16.3c-0.6-0.4-1.2-0.7-1.8-1c-1.5-0.8-3-1.3-4.6-1.3c-2.6,0-4.7,1.1-5.5,1.7
					c-0.2-0.2-0.4-0.4-0.5-0.7C1285.5,682.8,1285.2,682,1277.1,682L1277.1,682z"/>
			</g>
		</g>
	</g>
</g>
</svg>
