<?xml version="1.0" encoding="utf-8"?>
<!-- Generator: Adobe Illustrator 24.0.0, SVG Export Plug-In . SVG Version: 6.00 Build 0)  -->
<svg version="1.1" id="Layer_1" xmlns="http://www.w3.org/2000/svg" xmlns:xlink="http://www.w3.org/1999/xlink" x="0px" y="0px"
	 viewBox="0 0 1920 1080" style="enable-background:new 0 0 1920 1080;" xml:space="preserve">
<style type="text/css">
	.st0{clip-path:url(#SVGID_2_);}
	.st1{fill:#FFFFFF;}
	.st2{fill:#FFFFFF;stroke:#231F20;stroke-width:0.934;stroke-miterlimit:10;}
	.st3{fill:#ED1C24;}
	.st4{fill:#231F20;}
</style>
<g>
	<defs>
		<rect id="SVGID_1_" width="1920" height="1080"/>
	</defs>
	<use xlink:href="#SVGID_1_"  style="overflow:visible;fill:#FFFFFF;"/>
	<clipPath id="SVGID_2_">
		<use xlink:href="#SVGID_1_"  style="overflow:visible;"/>
	</clipPath>
	<g class="st0">
		<g>
			<rect x="-107.7" y="-484.3" width="2811.6" height="1261.2"/>
			<path class="st1" d="M2703.3-483.6v1260H-107v-1260H2703.3 M2704.5-484.9h-1.2H-107h-1.2v1.2v1260v1.2h1.2h2810.3h1.2v-1.2v-1260
				V-484.9L2704.5-484.9z"/>
		</g>
		<g>
			<path class="st2" d="M432.6,779.2c1.7-1.3,3.9-3.2,3.9-3.2l0.2-8.2l2.2-3.2l-9.7-3.7c-4.4-23.6-8.1-43.5-10.7-57.5l24.5,12.1
				l7.3-1.8l-62.3-443.4l10.3,7l0.6-13.3l-4.8-5.4c0,0-1.2-14.8-5.4-15c-4.2-0.1-3.6,5.9-3.6,5.9L283.8,149.1c0,0-2.4-18.8-6.1-19.4
				s-6.7,6.7-6.7,6.7l-24.2-24.8H236L223.3,97h-9.7l-0.6,12.7l4.2,5.4l35.7,315.7L147,1082.4l-9.7,4.2l-3,10.9h40.6v-10.5l-10.9-4.7
				c0,0,95.6-600.4,95.6-598.6c0,1.8,22.4,151.9,22.4,151.9l18.4,9.1l10.7,91.5l-9.1-2l4.4,11.3l4.8,0.2l1.1,0.4l41.1,351.2h18.8
				c0,0-5.5-45.1-12.9-106.9l101,11.6l16.6,90.1h14.5C491.4,1092.4,455.4,900.6,432.6,779.2z M318.7,654l85.1,42.2l10.9,59.3
				l-76.5-28.9v5.8c0,0-5.6-1.4-7.4-1.6c-0.4-0.1-1.6-0.1-3-0.1C323.8,697,320.6,669.6,318.7,654z M357.6,977.5
				c-8.4-69.4-18.9-156.2-27.1-224.4l80.1,27.3c0,0,4.1,0,8.6,0l38.5,208.8L357.6,977.5z"/>
			<g>
				<g>
					<path d="M554.7,249.9c0-1.1,0-1.9-0.3-2.6l0,0l0,0c-0.2-0.7-0.6-1.3-1.4-2.1c-1.4-2.1-3.1-6.4-5.2-11.7l0,0
						c-0.6-1.4-1.1-2.8-1.6-4c-0.9-2.5-1.6-5.1-1.7-7.8c1.3,0.3,3.3,0.6,3.6-1.1c0.4-2,0.1-3.1-3.2-3.6c1.1-6,0.7-12-2.3-17.2
						c-0.4-0.9-1.2-2.1-2.1-3.5c-2.5-4-5.2-7.5-6.6-8.2c1.9-0.2,8.3-3.3,9.4-7.5c1.1-4.1-0.4-12.5-2.5-14.6s-5.2-4.5-5.2-4.5
						s-1.1,2.6-3.6,3.3c-2.9-0.6-6.5-1.4-9.8-2.2c-2.6-0.7-5.3-1.3-7.6-1.8c-0.5-0.1-0.8-0.2-1.2-0.2c-0.2,0-0.3-0.1-0.5-0.1
						c0,0-0.1,0-0.1,0c-3-0.5-16.1-5.4-22.4-4.3l0,0c-2.7-0.1-5,0.2-6.4,1.2c-0.1,0-0.1,0.1-0.2,0.1c-2.4,0.8-4.4,2.2-6.9,5.9
						c0,0-0.7-0.1-1.9,0c-6.9-0.1-10.3,0.8-14.9,6.4c-1.7,2.1-3.4,3.9-4.9,5.8c-3.6,4.2-6.1,7.3-5.9,10.4c-1.3,5.5-3.1,7.9-3.1,17.7
						c0,1.6,0,3.1,0.1,4.5c-0.1,4.4-0.1,8.9,0.7,11.7c1.7,6.3,5.9,26,7.2,28.9c0.5,1.1,1.1,3.1,1.7,5.3c0,0.1,0,0.2,0.1,0.3
						c1,3.6,2,7.6,2.4,8.4c0.4,0.8,1.9,1,3.3,0.7c0,0,0,0,0,0.1c-1.8,0.8-3.9,14.8-5.2,20l0,0c-0.3,1.3-0.5,2.4-0.6,3.4
						c-0.2,2.1,0.5,5.3,1.7,8.8c0,0,0,0.1,0,0.1l0,0.1c1,2.8,2.3,5.8,3.7,8.7l0,0.1l0,0c2.6,5.4,5.4,10.3,6.6,12.4
						c1.7,2.9,13.1,6.6,22.8,8.1l0,0c4.3,1.9,13,1.3,13,1.3c0.1-0.5,0.6-1.6,1.2-3.1c2.7-3.5,5.3-10.4,6.8-15.7c0,0,0-0.1,0-0.1
						c0-0.1,0.1-0.2,0.1-0.3c0-0.2,0.1-0.3,0.1-0.5c1.1-3.7,3.6-11.4,3.7-11.5h0c0.8-1.6,1.7-3.4,2.2-5.1c6.5,1.7,18,2.8,21,2.6
						c3.9-0.3,6.8-1.2,3.2-11.6c0,0,2.2-7.2,2-8.6c0-0.2-0.1-0.4-0.2-0.6c-0.1-0.2-0.2-0.3-0.3-0.5c-0.9-1.3-2.6-2.7-2.6-2.7
						s-0.3-3.8-1.6-4.8c1.6,0,2.6,0,2.6,0l0-0.2c0,0,0-0.1,0-0.1l0.4-2.5l0,0c0-0.3,0.1-0.4,0.1-0.4s2.3,0.1,3.5-1.8
						c0-1.6-0.2-3-0.3-5C549.6,252.5,554.1,252.2,554.7,249.9z"/>
				</g>
				<g>
					<g>
						<g>
							<path d="M518.7,286.7c0,5.3-5,11.1-5.3,14.4c-0.3,3.3-4.6,18.2-9.1,22.9s-33.5-2.5-36.3-7.2c-2.8-4.7-13-22.9-12.2-30.1
								s8-26.5,7.7-37s0-30.4,3-34.8c3-4.4,31.1-7.2,37.6,20.5S518.7,286.7,518.7,286.7z"/>
							<path d="M486.8,256.3c-0.3,0.8-0.8,10.7,3.6,15.1c4.4,4.4,19.8,15.5,24.7,17.7c4.9,2.2,20.5,3.8,24.1,3.6
								c3.9-0.3,6.8-1.2,3.2-11.6c0,0,2.2-7.2,2-8.6s-3.2-3.8-3.2-3.8s-0.4-5-2.2-5.1c3.2,0.3,3.3,0.3,3.3,0s0.5-2.9,0.5-2.9
								s2.3,0.1,3.5-1.8c0-1.6-0.2-3-0.3-5c3.6-1.3,8.1-1.6,8.7-3.9c0-2.2-0.1-3.1-1.7-4.7c-1.5-1.7-7.7-18.4-8.4-19.9
								c-0.7-2.8,0.4-7.1,0.6-9.9c0.2-2.8,0.9-8.7-2.5-15.6c-3.4-6.9-22.5-32.2-51.2-30.7c-31.8,1.7-52.1,36.6-27.4,58.1
								c1.8,18.7,13,26.4,17.1,28.2C484.9,257.1,486.8,256.3,486.8,256.3z"/>
							<path class="st1" d="M503.9,326.2c0.4-2.2,7.1-15.4,8.1-18.8c0.9-3.4,3.8-12.1,3.9-12.3c0.1-0.2-11.9-4-15.7-5.2
								c-3.8-1.2-12.9-7.4-12.9,8c0,15.3-0.7,25.1,3.6,27C495.2,326.8,503.9,326.2,503.9,326.2z"/>
							<path class="st1" d="M457.7,295.6c-1.4-4.6-2.5-7.1-1.2-12.3c1.3-5.2,3.4-19.2,5.2-20s5.6-4.2,6-7s1.8-9.8,1.8-9.8
								s6.1,7.1,6.9,8.9c0.8,1.8-6.4,19.1-6.9,22.5c-0.5,3.4-8.1,26.5-8.1,26.5L457.7,295.6z"/>
						</g>
						<path class="st1" d="M519.8,265.4c-0.6-3.2,0.2-10,0.8-11.2s2.2-6.2,2.2-6.2s-5-1.8-6-2.9c-1-1.1-1.6-5.4-2.5-9.5
							s1.5-7.5,1.9-8.5c0.5-1,6,5.1,7.8,5.8s5.9-0.3,5.9-0.3s-5.9-3.9-6-4.6c-0.1-0.7,9.5,0.3,11.4,0.5s4.8-0.5,4.9-1.5
							c0.1-1,0.9-5.6,0-5.8s-3.4-0.5-7.5,0s-9,2.2-9,2.2s3.4-4.3,6-4.5c2.6-0.2,9-1.5,10.1-2c1.1-0.6,3.5-3.6,3.3-4.5
							c-0.2-0.9-2.8-2.2-2.8-2.2s-7-1.6-10.2,0s-9.1,7.5-9.4,6.5c-0.3-0.9,3.3-7.6,2-10s-3.2-4.9-5.7-9.3c-2.5-4.4-3.7-9.7,0.9-9.5
							s14.2-0.4,16,0.6s5.7,6.4,8.8,11.7c3,5.3,3.5,11.5,2.2,17.6s0.8,10.9,2.9,16.1c2.1,5.2,3.8,9.6,5.2,11.7
							c1.4,2.1,1.4,2.1,1.4,2.1s-2.9,0.8-6-0.3c-3.2-1.1-4.4-1.7-5.3-0.9c-0.9,0.8-2.9,2.5-4.7,1.5c-1.7-1-2.3-1.1-2-2.7
							c0.2-1.6,3.7-4.3,3.9-4.7c0.1-0.3-2.8-0.2-4.1,0.6s-2.9,4.4-2.8,5.3c0.1,0.9-1,2-1,2.5c0,0.5-3.3,2.5-4.3,2.9
							c-1,0.5-1.8,3.4-2.3,4.7c-0.5,1.2,0.1,5.9,0.1,5.9s3.3,3.9,5,4.7c1.7,0.8,9.2,0.8,10.4,1.9c1.2,1.1,3.2,2.9,3.2,3.8
							c-4.5,1.2-11.3-0.8-12.8-1.6c-1.5-0.8-6.4-7.9-6.1-7.3c0.2,0.5,3.7,8.7,5.1,10.6c1.4,1.9,4.9,6.2,7.3,7c2.4,0.8,3.5,2.8,4,5.2
							c0.5,2.4,0.5,6.7-5,4.1c-5.4-2.6-10-7.1-12.8-11.2S519.8,265.4,519.8,265.4z"/>
						<path class="st1" d="M525.8,250.3c0.2,1.8,0.2,4.1,0,5c-0.2,0.9,1,3,2.5,2.6c1.4-0.4,7.2-1.3,8.4-1.6c1.2-0.3,3.3,0.4,3.3,0.4
							s0-3.6-1.6-3.7c-1.6-0.1-5.2-2.9-5.4-5.6c-0.2-2.7-0.7-5.9-2-5.2C529.5,242.7,525.8,250.3,525.8,250.3z"/>
						<path class="st1" d="M541.7,261.1c-2.1-0.3-2.4-1.5-3.6-1.4c-1,0.1-9.1,0.9-10.4,0.7c-1.2,1.6-0.3,1.9-0.3,1.9
							s9.4,1.6,11.4,1.5c2.2,0,3.5,0,3.5,0l0.5-2.8L541.7,261.1z"/>
						<path d="M491.7,244.1h10.6c0,0-0.7-10-0.7-13.3c0-3.3-1.7-9.9-0.7-11.9c1-2.1,11.2-10.6,10.7-13.2s-3-9.6-4.5-12.8
							s-1.4-5.1,0.7-5.5c2.1-0.4,24.2,0.9,26.2,0.7c1.9-0.2,8.3-3.3,9.4-7.5c1.1-4.1-0.4-12.5-2.5-14.6c-2.1-2.1-5.2-4.5-5.2-4.5
							s-2.2,5.2-7.6,3c-5.4-2.2-15.3-4.3-18.2-4.5c-2.9-0.3-20.8-6.3-25.8-2.6s-7,6.1-7,6.1s-10.9-1-16.8,6.3
							c-5.9,7.3-11,11.8-10.7,16.1s-2.3,6.1-2.3,9.5c0,3.4-1.7,18,0,24.4c1.7,6.3,5.9,26,7.2,28.9c1.2,2.9,3.6,12.7,4.1,13.9
							c0.6,1.2,4,1.1,5.1,0s3.4-23.5,3.4-23.5s-4.7-13.9,1.2-19s16.9,4.2,19.2,9.4C489.6,234.7,491.7,244.1,491.7,244.1z"/>
						<path class="st1" d="M485.2,255.4c-2.6-0.2-9-2.5-12.8-8.8c-3.7-6.3-6.2-12.7-6.6-16.8c-0.4-4.1,2.1-10.6,6.2-10.6
							c4,0.1,8.6,4.1,12,7.1c3.4,3-2.4,1.1-5.8-0.8s-8.8-0.1-8.8,3c0,3.1,3.1,9.6,4,10.2s2-0.9,1.4-2.7c-0.5-1.9,0.7-7,0.7-7
							s0.6,3.7,1.1,5.5s3,9.8,3.6,10.3s-0.4,2.4-0.4,2.4l-4.3-4.5c0,0,3.1,7.5,6.7,7.2c3.6-0.3,5.2,1.9,5.1,3
							S487.3,255.6,485.2,255.4z"/>
						<path class="st1" d="M458.5,262.6c0,0,2.6-2.6,2.9-4.7c0.4-2.1,0-7.9,0-7.9s0-5.8-1.4-7.9c-1.4-2.1-2.6-3.7-3-7.1
							c-0.4-3.4,4.2-8.2,2.3-10.3s-2.3-4.8-2.7-6.8c-0.4-2,5-5,6.4-5.8c1.4-0.8,6,0.8,8,0c2-0.8,2.8-3.2,2.8-3.2s-4.4,1.8-7.5,0.9
							c-3.1-0.9-11.2,1.1-11.2,1.1s8.9-6.6,11.2-6c2.3,0.6,9.1-2.2,9.1-2.2s-4.4-1-6.6-1c-2.2,0-5.8-4-7.6-3.2s-5.3,2.8-5.3,2.8
							s9-7.6,10.3-7.4c1.3,0.2,7.5,0.8,7.5,0.8l4.6-5.4c0,0-1.6-0.8-5.4,0s-7-5-10.1-4c-3.2,1-9.7,3-9.7,3s9.9-3.8,11.1-5.6
							c1.2-1.8,6-5.8,8.4-6.8c2.4-1,14.7,0,14.7,0s-9.6-3.8-12.9-3.4c13.3-2.6,23.4-2.4,27.2-0.8s20.1,4.4,23.1,3
							c0,0-9.1,0.4-11.5-3c13.5,1.6,18.4,3.2,21.7,1.2c3.3-2,3.7-8.3,0.7-11.6c-0.2,5.6-1.1,6.3-2.7,7.5s-15-3.5-14.2-3.5
							s12,5.9,13.4-0.7c-6.5-1.2-16.1-3.9-19.2-4.4s-16.1-5.4-22.4-4.3s-9.1,0.7-13.4,7.2c-8.3-0.3-11.7,0.3-16.8,6.3
							c-5.1,6-9.5,10.6-10.7,16.1s-3.1,7.9-3.1,17.7c0,9.7,0.5,15.2,3,25.9C452,240,458.5,262.6,458.5,262.6z"/>
						<path d="M525.8,236.5c8.8,0,12.4-0.1,14.1-4c1.9-4.2,2.9-11.3,3.8-11.1s4.1,1.3,4.5-0.9s0.1-3.4-4.5-3.7
							c-0.8-2.2,0-6.4-13.9-5.4c-11.3,0.8-13.9,1.2-13.9,5.3c0,0-33.8-2.2-35-1.8c-1.2,0.4,0.4,6.5,2.1,6.6s33.7,2.6,33.7,3.2
							C516.6,225.4,518.7,236.5,525.8,236.5z"/>
						<g>
							<path class="st1" d="M540,215.4c0,0-15.7,0.6-18.2,1.2c-2.5,0.6-3,2.5-1.8,7.4c1.2,4.8,2.4,7.6,4.1,8.8
								c1.7,1.2,8.7,1.2,10.2,1c1.5-0.2-3.5,2-8.4,1.4c-4.9-0.7-5.8-3.5-7.1-6.6s-2.1-12.4-0.9-13.6c1.2-1.2,3.3-1.1,10-1.5
								C534.5,212.9,540,215.4,540,215.4z"/>
							<path class="st1" d="M482,216.6l36.3,1.8v4.5l-35.4-3.7C482.8,219.2,482.1,218.2,482,216.6z"/>
						</g>
					</g>
					<path class="st1" d="M490.1,250.5c0,0-0.6,8.5,0.6,11.7c1.1,3.2,8.7,9.3,11.9,11.7c3.2,2.4,9.6,6.9,9.6,6.9
						s-12.5-14.2-16.1-18.5C492.5,258.1,490.1,250.5,490.1,250.5z"/>
				</g>
				<g>
					<g>
						<path d="M583.4,532.5c12.5,1.3,30.6,0.4,40.6-1.8s17.1-14.5,19.3-23c5.7-4.2,6.4-15.2,6.4-15.2s4.6-3.6,4.3-6.8
							c6.4-0.7,9.6-3.9,10-7.9c7.5-5,7.6-6.4,5.6-16.8c9.4-7.1,15.5-15,13.7-20.4c43.9-32.9,47.1-33.9,47.1-33.9L728,401h-51.8
							l-92.8,68.6V532.5z"/>
					</g>
					<g>
						<path d="M728,401c0,0-64.5,46.6-64.5,46.4s-4-1.7-8.7-1.7s-10.4-0.6-9.9,3.9c-2,3-3.7,2.9-3.7,2.9s-6.9-0.8-7,3.8
							c-1.3,4.8,0,4.1,0,4.1s-7.7,0.6-7.7,3.1s-0.7,5.9,0,5.7s-2.1,1.1-2.1,3.7c0.1,2.6-2,5.7,0,7.7L603.2,499l-12.9-2h-42.4
							l42.2,36.1l36.5-3.2c0,0,15.2-7.8,16.8-22.2c-7.1,7.7-13.8,12.4-16.8,10.9s-7.9-12.7-7.9-12.7s1.5,6.2,7.9,6.5
							s17.6-10.4,18.4-13.4c0.7-3,3-4.4,4.8-6.5c1.9-2.1,3.7-2.3,4.3-6.8c4.7-1.2,9.5-1.1,10-7.9c4.2-3.2,8.2-5.1,5.6-16.8
							c8.4-7.6,15.3-14.1,13.7-20.4c38.3-28,47.1-33.9,47.1-33.9L728,401z"/>
					</g>
					<path class="st1" d="M641.2,490.6c-3.2,0.2-4.5-3.2-5.5-6c-1-2.7-2.5-7-2.5-7s-7.6-4.1-8.8-4.8c-1.2-0.7-0.4-3.5,5.3-1.8
						c5.7,1.6,8.9,1.9,8.9,4.4C638.7,477.9,641.2,490.6,641.2,490.6z"/>
					<path class="st1" d="M651.1,486.4c2.9-0.7-0.2-5.7-2-8.2s-3.7-12.4-5.2-14.6c-1.5-2.2-3.2-3.5-7-3c-3.7,0.5-10.7,1.5-10.4,3
						s11.4,0.7,12.1,1.7s6.7,14.6,8.2,16.6C648.4,483.9,651.1,486.4,651.1,486.4z"/>
					<path class="st1" d="M634.2,456.3c4.2,0.2,12.2-0.2,13.9,1.7c1.7,2,6.2,13.8,7.2,15.3c1,1.5,1.2,9.9,5,7.2c3.7-2.7,2-8.9,0-10
						c-2-1.1-6.1-8-8-11.3s1.5-7-3.9-6.7c-5.4,0.2-7.2-0.3-10.7,0C634.2,452.8,634.2,456.3,634.2,456.3z"/>
					<path class="st1" d="M644.9,449.6c0,0,12.2,1.1,13.7,1.4c1.5,0.3,5.5,10.8,6,12.5c0.5,1.7-2.5,6.4,0,7.5c2.5,1.1,6,1.6,5.7-1.8
						s-3.5-10.4-4.5-11.4c-1-1-5.7-11.7-5.7-11.7s-10.7-1-12.9,0S644.9,449.6,644.9,449.6z"/>
				</g>
				<g>
					<g>
						<g>
							<path d="M518.3,1064c1-1.2-1.8-10.4-3.7-34.7c-1.8-24.4-6.4-57.9-8.5-87.4c-2.1-29.5,3.4-61.8,3-72.2
								c-0.3-10.4-2.1-39-5.8-51.8c-3.7-12.8-4.6-169.3,0-176.6s84.7,9.3,84.7,9.3s2.1,1.7,0,54.1s-9.4,93.2-9.7,102.6
								c-0.3,9.4-1.5,46.3-4.3,55.7c-2.7,9.4-0.3,16.4-4.9,18.9c2.1,9.4,2.4,15.8-0.3,17.1c0.9,6.7,1.2,42,0.6,56
								c-0.6,14,0,36.2-1.2,46c-1.2,9.7-2.1,22.8-2.1,22.8s12.2,18.6,11,33.5c5.2,0.6,7.6,3.7,16.8,11.3
								c9.1,7.6,11.9,17.4,26.2,18.9c14.3,1.5,35.6-0.9,38.4,0c2.7,0.9,6.4,3.3,7.9,10.7c1.5,4.6-2.7,4.3-13.7,9.4
								c-11,5.2-23.8,9.1-42.6,8.2c-18.9-0.9-43.2-11.3-47.2-11.3c0.3,7.6-0.6,11.4-0.6,11.4l-47.2-1.7l-1.5-14
								C513.4,1100.3,505.5,1078.6,518.3,1064z"/>
						</g>
						<path class="st1" d="M511.8,804.7c1.8,3.1,4,44.9,4,50.2s1.3,12,0,17.3c-1.3,5.3-0.7,12-1.7,14.2c-1,2.2,4.8-4.9,6.1-6.2
							c1.3-1.3-0.9,4,0,6.6c0.9,2.7-3.6,11.2-4,14.9s-5.8,22-4.4,25.1c1.3,3.1,0.7,26.2,4.3,32c3.7,5.8,4.5,60.9,4.5,62.7
							c0,1.8-1.8,32.9,0,34.2c1.8,1.3,8.4,11.6,8.4,11.6l-10.9-3.2c0,0-4.7-19.4-4.7-23s-4.4-64-5.8-69.8c-1.3-5.8-4.9-46.2-4.4-56
							c0.4-9.8,7.1-36.1,5.8-45.6s-3.1-29.5-4.4-40.6c-1.4-11.2-1.4-52.4-1.4-52.4L511.8,804.7z"/>
					</g>
					<path class="st1" d="M511.6,1087.1c1.7,3.4,10.5,7,16.5,7c6,0,37.8,1.4,44.3,2c6.5,0.6,20.2,11.8,31.8,11.5
						c-6.7,2.8-50.3-7.3-56.9-6.2c-6.5,1.1-29.5,0-32.4-0.6C512.1,1100.3,511.6,1087.1,511.6,1087.1z"/>
				</g>
				<g>
					<g>
						<g>
							<path d="M433.4,650.6c1.6,13.6,4,112.5,7.2,125.3c3.2,12.8-3.2,53.5-3.6,64.7s-20.4,62.3-19.6,79.8
								c0.8,17.6,0,71.8,6.4,112.5c6.4,40.7,2.4,60.7,9.6,63.1c-5.2,11.9-9.2,16.8-6.2,29.2c0.3,12.2,0.9,15.8,0.9,15.8l15.5,3.4
								l9.4-1.5c0,0,14.3,8.8,26.8,9.7c12.5,0.9,36.2,0.3,49.9-4.9s18-7.6,18-9.4c0-1.8-3.7-2.4-3.7-2.4s-1.5-9.1-7-10.7
								c-5.5-1.5-15.8-4.6-20.4-6.7c-4.6-2.1-19.5-24.1-22.8-28c-3.4-4-6.1-13.1-10.1-10.7c-0.3-23.1-5.8-61.5-8.2-64.3
								s1.2-97.5,3-99.3c1.8-1.8,9.4-13.4,8.5-21c11-15.8,24.4-60,29.2-92c4.9-32,13.1-71.3,23.5-94.7
								c10.4-23.5,14.3-38.1,13.1-48.7C551.8,649.2,433.4,650.6,433.4,650.6z"/>
						</g>
						<path class="st1" d="M436.9,689.1c0,0-7.8,11,0,14.1c-2.1,7.3,0,16.7,2.6,17.8c2.6,49.2-0.8,87.3,0,96.6
							c0.8,9.3-1.6,10.5,2.3,14.4c-1.5,6.3-3.6,6-4.2,12.3s-3.6,11.1-6,17.4c-2.4,6.3-13.8,38.3-14.1,55.6s1.6,84.7,3.7,94.3
							c2.1,9.6,8.4,73.7,10,77.6s9.1,3.3,9.1,3.3s-3.9-3.6-5.1-5.4c-1.2-1.8-5.7-155.6-6.3-163.4c-0.6-7.8,2.7-26.3,5.7-30.8
							c3-4.5,26.6-27.5,23.9-25.1c-2.7,2.4-23.3,12.6-24.5,13.2c-1.2,0.6,1.7-16.2,5.6-18.9s17.7-8.4,17.7-8.4s-14.4-3-15-4.8
							c-0.6-1.8,4.2-17.7,4.2-17.7l15-2.4c0,0-14.7-3.6-15.6-4.5c-0.9-0.9,5.7-94.6,6.3-99.7c0.6-5.1,5.1-35.5,4.5-35.4
							C456.2,689.2,436.9,689.1,436.9,689.1z"/>
					</g>
					<path class="st1" d="M485.3,1149.3c-1,0-21.5-4.5-27.1-8.1c-5.6-3.6-25.6-9.9-28.3-12.9c-2.7-3-3.1-7.8-3.1-7.8
						s7.9-1.1,12.6,2.2c4.7,3.4,21.5,16,30,18.8C477.9,1144.2,485.3,1149.3,485.3,1149.3z"/>
					<path class="st1" d="M505,1139.2c0,0-22.4,3.1-28.3,0c-5.9-3.1-27.7-15.7-27.7-15.7s28.9,9.9,35,11.3
						C490.2,1136.1,505,1139.2,505,1139.2z"/>
					<path class="st1" d="M532.8,1125.5c0,0-10.1,6.7-20.5,5.3c-10.4-1.4-28-4.8-28.9-5.3c-0.8-0.6,3.4-4.8,7-7.3s6.7-6.4,10.9-3.6
						s21,6.4,21,6.4L532.8,1125.5z"/>
				</g>
				<g>
					<path d="M511.3,315.5c0,0-29.7-29.8-40.1-35.8c-10.4-6-18-9.2-18-9.2l-2.8,3.6l-4.3-0.6c0,0-5.8,10.1-8,13.1
						c-2.1,3,0,6.4,0,6.4s-16.5,9.4-27.8,13s-25.7,32.5-25.7,54.3c0,21.8,24.2,114.8,25.7,125.9c1.5,11-1.2,34.3,2.4,45.3
						c1.2,35.2-4.9,128.3-5.5,137.8c4.9,10.1,39.8,4.6,66.7,4.5c26.9-0.1,130,0.8,133,1.6c-1.8-44.3-5.5-124.2-11.3-141.5
						c-5.8-17.3-7-47.7-9.2-74c-2.1-26.2-9.8-57.6-14.7-67.7s-4.3-20.6-6.1-29.5c-1.8-8.9-3.7-19.1-10.7-22.7
						c-7-3.6-27.8-16.1-30.3-20.6c-2.4-4.5-1.5-9.5-4.6-10.4c-3.1-0.9-7.3,0.9-7.3,0.9L511.3,315.5z"/>
				</g>
				<path class="st1" d="M405.8,307.8c5.5-1.2,14.4-2.5,20.2-6.3c5.8-3.8,16.3-8.6,16.3-8.6s14.6,12.8,16.2,14.8
					c1.6,2.1,5.5,8.4,5.5,8.4s32.5,35.8,42,53.6c9.5,17.8,42.2,83.3,45.6,87.2c3.4,3.9-31.3-42.5-35.5-46.4
					c-4.2-3.9-15.3-14.9-17.7-15.6s-3.7,21.7-1.4,30.1c2.3,8.4,10.2,42.4,9,41.8s-18.1-35.3-19-43.7c-1-8.4-4.4-57.7-8.2-63.2
					c-3.8-5.5-12.5-21.1-16.4-25.9c-3.9-4.9-16.9-13.6-22.7-16.5S405.8,307.8,405.8,307.8z"/>
				<path class="st1" d="M545.2,411c-0.4-1.3-36.5-69.7-36.5-69.7l6-3.2l5,3.9L545.2,411z"/>
				<path class="st1" d="M517.6,321.2l-8.9,20.1c0,0-21.6-38.1-32.9-48.4c-11.3-10.3-21.5-18.9-21.5-18.9l2.7-3.6
					c0,0,10.9,7.7,26.4,17.9C498.8,298.5,517.6,321.2,517.6,321.2z"/>
				<path class="st1" d="M540,430.9c0.2-0.6-30.6-60.8-36.4-70.8s-29.2-43-36.3-46.1c6.9-1.2,9.6-1,9.6-1s-10.7-5.9-15.1-7.1
					c-8.6-9.4-19.5-19.4-19.5-19.4s2.1-4.1,4.3-7.1c2.2-3,2.2-10.8,9-2.4s39.1,41.6,46.6,56.9s20.8,41.3,26.2,54.9
					C530.7,394.5,540,430.9,540,430.9z"/>
				<path class="st1" d="M556.8,414.2c-0.4-1.5-5.7-40.1-4.8-40.9c0.9-0.7-25.8-42.1-25.8-42.1s-5.2-20.9-4.5-19.6
					c0.7,1.2-3.3,9.6-3.3,9.6l8.3,15.3l18.5,32.9L556.8,414.2z"/>
				<polygon class="st3" points="516,336.7 518.3,324.9 524.7,334 526.7,336.5 521.3,339.8 				"/>
				<path class="st3" d="M521.6,341.3c0.5,0.6,16.8,38.6,16.9,39.7c0.1,1,9.7,28.3,9.7,28.3s8,18.1,8.5,17.2
					c0.5-0.9-4.9-23.3-4.9-23.3l-8.1-33.7l-17.1-31.4L521.6,341.3z"/>
				<path class="st1" d="M463,674.2c-14.7,0.8-40.5-0.6-45.6-2.8c-5.2-2.2-5.1-2.9-4.3-16.4s4.5-123.6,4.5-123.6s-2.4-28.6-2.4-37
					c0-8.4-16.4-81.7-18.7-93.4c-2.3-11.7-10.3-53.8-6.4-40.8c4,13,52,160,56.3,176.4C450.8,553,463,674.2,463,674.2z"/>
				<g>
					<g>
						<path d="M405.8,308.4c9.4-1.9,33.6-7.9,46.8,18.9s15.4,47.5,15.4,51.4s-3.9,7.1-3.9,7.1s1.1,7.1,2.1,15
							c1.1,7.9-2.9,29.3-2.5,32.9c0.4,3.6-1.4,25.7-1.1,34.6c0.4,8.9-22.9,37.1-31.1,39.6c-8.2,2.5-17.9-16.1-25.7-25.7
							c-7.9-9.6-8.9-32.1-13.2-43.6c-4.3-11.4-6.1-38.6-6.1-38.6s-7.9-6.1-8.6-19.6c-0.7-13.6,0.7-35.4,8.9-50.4
							C395.1,315.2,396.4,310.3,405.8,308.4z"/>
					</g>
					<path class="st1" d="M431.5,508.1c-1.4-3.5-2.6-17.9-2.4-24.9c0.2-7,5.5-30.3,9.9-33c-10.7,4-16.1,10.9-15.9,13.9
						s0.1,18.6-0.3,19.4c-0.4,0.7-1.2-7.3-2.2-10c-1-2.7-0.2-11.6-2.2-8.7c-2,3-6,8.7-5.2,11.7c0.7,3-1.7-3.2-2.2-5.2
						c-0.5-2,1.5-14.6,5-18.6c3.5-4,10.5-9.9,10.1-9.4c-0.4,0.5-12.2,7.9-15.1,10.9c-2.9,3-4.4,1.5-3.2-0.7c1.2-2.2,3.5-6,6.6-7.4
						c3.1-1.5-3.8-2.7-5.3-1.5s-7,5.7-7,5.7s1.5-8.9,2.2-10.7c0.7-1.7,7.9-7,7.9-7s-9.7-1.2-10.2,0s0-6,1.2-9.9s5.5-12.6,7-15.2
						s10.2-10.6,10.2-10.6s-17.5,8.3-18.6,10.6s-5,10.8-5,10.8s3.2-14.9,4-17.9c0.7-3,6.2-13.2,7.4-13.9c1.2-0.7,9.7-7.7,9.7-7.7
						l-19.6,9.9l-8.2,8.4c0,0,2.2-12.3,4.2-16.5c2-4.1,11.4-13.8,11.4-13.8s-10.9,4-14.2,6c-3.2,2-6,1.2-6-0.5
						c0-1.7-0.2-9.4,4.5-13.9s19.1-17.9,19.1-17.9s-10.7,4-14.9,8.5c-4.2,4.5-12.7,14.1-13.2,18.6c-0.5,4.5-2.7,23.4-2.2,24
						c0.5,0.6,7,10.5,7.4,11.2c0.5,0.7,4.2,26.3,6.2,30.3s9.4,37.7,11.9,42.4c2.5,4.7,6,19.9,11.4,25.1
						C421.4,505.8,431.5,508.1,431.5,508.1z"/>
					<path class="st1" d="M378.7,358.3c0,0,7.5-11.7,10.3-16.4c2.9-4.7,13.9-13.7,17.6-15s31.3-1.1,33.6,0c2.3,1.1-7.4-8.4-15.2-8.8
						c-7.8-0.5-20.2,1.6-20.2,1.6s11.9-7.8,18-7.6s28.8,13.4,28.8,13.4s-4.7-9.4-5.2-10.6s-12.9-7.5-16.1-8.8
						c-3.2-1.3-14.9-1.2-24.6,2.3c-9.7,3.5-10.2,4.4-17.8,17.1S378.7,358.3,378.7,358.3z"/>
				</g>
				<g>
					<g>
						<g>
							<path d="M414.3,481.3c0-14.2,12.5-28.2,18.2-33.5c5.7-5.4,22.5-11.8,28.2-7.1c7.5-1.1,14.3-1.4,17.1,1.4c6.1-5,18.6-5,23.6-5
								c5,0,4.6-6.4,9.6-8.9c5-2.5,24.3-5.7,26.8-7.9s4.6-2.1,5.7-2.1c1.1,0,5.4,0,5.4,0s-1.4-10.4,2.9-15
								c4.3-4.6,9.6-13.2,12.9-12.1s8.2,6.8,3.6,12.5c-0.7,6.8-0.7,6.8-0.7,6.8s6.1,4.6,7.1,10c16.1,4.6,20.2,2.1,26.9,1.4
								c6.7-0.7,12-0.7,14.2,0.4c16.1-1.1,22.5,1.4,22.9,4.3s1.4,5.7-3,6.8c2.7,1.4,2.7,4.3,2,6.1c-0.7,1.8-5.7,0.7-12.9,3.2
								c-7.1,2.5-21.6,6.1-25.1,9.6c-3.5,3.6-22.1,3.6-23.5,3.9c-1.4,0.4-6.4,2.9-6.4,2.9s-2.1,8.6-3.2,10.7
								c-1.1,2.1-42.9,15.7-46.4,18.2c-3.6,2.5-50,20.7-62.2,22.5c-12.1,1.8-17.8,0.6-26.4-2.9C422.9,504,414.3,495.6,414.3,481.3z"
								/>
						</g>
						<path class="st1" d="M427.8,471.1c0.3-3.4,7.4-20.5,10.2-23.3c2.8-2.8,15.6-7.1,17.3-4.5c0,0-9.7,5.7-10.5,11.9
							c6.8-4.3,15.6-9.7,17.6-9.9c2-0.3,8.2,1.4,9.1,1.4s-8.5,4.3-9.9,6.5s-2,8.5-2,8.5s4.8-8.8,6-9.1s15.6-8.8,15.6-8.8
							s-8.2,12.3-9.4,13c-1.1,0.7-3.4,7.2-2.6,6.1c0.9-1.1,15.6-14.8,16.8-16.2s10.5-1.1,10.5-1.1s-4.8,17-4,16.2
							c0.9-0.9,12.5-19.3,12.5-19.3l7.1-10.3c0,0,1.1,11.7,2,13.6c0.9,2,6,11.7,6,11.7s-2.6-15.9-2.6-19.3c0-3.4,6.8-7.1,6.8-7.1
							l14.2-2l3.4-8.8l-4.5-1.4l-13.6,7.4l-10.8-0.9l-10.2,9.7l-14.2,2.8c-3.4,0.6-11.1,2.8-11.7,4.3c-4.5-2-11.1-6-12.8-1.4
							c0,0-5.4-4-10.5-3.1s-15.9,4-17.9,7.4C433.7,448.3,427.8,471.1,427.8,471.1z"/>
					</g>
					<path class="st1" d="M543.7,439.1c-0.7-1.1-1.8-11.5-1.7-13.8c0.2-2.3,0-5.1,0-5.1l7-2c0,0,3.6,28.2,22.7,39
						c-7.4,5.7-9.8,6.4-9.8,6.4S545.8,442.5,543.7,439.1z"/>
					<path class="st1" d="M553.9,427.6c0.2-4-0.8-14.4,0-16.6c0.8-2.3,6.4-12.9,8.3-14.2c1.9-1.3,4.5,1.4,4.5,4.2s-2.3,9.5-3.3,10
						c-1,0.5-2,3.7-1.4,5c0.6,1.3,1.5,3.6,1.7,4.7s11.1-0.3,11.1-0.3s-4.1-8.6-7.1-10c0.4-3.7,0.7-6.8,0.7-6.8s4.6-5.8,0.5-9.1
						c-4.1-3.4-4.7-5.5-8.6-1c-3.9,4.5-7.4,7.6-9.7,11.8c-2.2,4.1-1.5,13-1.5,13L553.9,427.6z"/>
					<path class="st1" d="M585.6,442.4c0.7-1.4,1.4-5.7,11.9-7.1c2.8-0.4,27-3.7,26.8-6.1c-0.6-7.2-8.4-7.1-8.4-7.1s11.4-0.4,15.6,0
						c4.3,0.4,6.6-0.7,7.2,4.3c-7.2-4.3-11.5,0.1-11.5,0.1s-0.4,2.2-1.1,5.6c-0.7,3.5-24.4,5.9-31,5.8
						C590.7,437.9,585.6,442.4,585.6,442.4z"/>
					<path class="st1" d="M574.7,420.3c0,0,12,2.9,15.6,2.7c3.5-0.2,22.5-6.4,32.2,1.8c2.8,3,1.7,4.3,1.7,4.3s-3.2-4.7-10-4.4
						c-6.9,0.2-22.4,1.6-24.8,1.8C587,426.7,574.7,420.3,574.7,420.3z"/>
				</g>
			</g>
		</g>
		<g>
			<g>
				<path class="st1" d="M740,821.4c-6,0-15.2-0.7-16.7-1.5c-0.6-0.3-1.7-0.8-3-1.3c-5.5-2.3-6.8-3-6.8-3.6c0-0.8,1.5-1.1,2.6-1.2
					c0-0.8,0.1-3.2,1.3-4.4c0.4-0.5,1-0.7,1.6-0.7l1.1,0c3.9-0.1,12.9-0.3,18.2-2.1c6.1-2.1,17.6-8.6,20.8-12.9
					c-0.3-0.4-0.6-0.8-0.9-1.2c-1.5-1.9-2.8-3.6-2.5-5.5c0.4-2.4,1.1-3.1,4-3.8c0.3-0.1,0.6-0.1,0.8-0.2c2.4-0.5,4.4-0.9,4.4-3.9
					c0-1.4-0.3-2.8-0.5-4.4c-0.5-2.5-1-5.5-1-10.4c0-7.5,1.5-13.2,1.7-13.9c-0.2-1.1-3-14.1-5.6-31.7c-1.1-7.7-2.9-16.5-4.7-25.8
					c-2.6-13.1-5.2-26.6-6.6-38.7c-2.2-20.6-5.8-39.4-5.8-39.5c-5.2-22.1-7.2-61.4-5.4-69.9c1-4.8,2.3-15.1,3.4-24.2
					c0.8-6.7,1.5-12.4,2-14.3c-3.6-2.9-3.6-28.7-3.1-53.7c0.1-2.5,0.1-4.5,0.1-5.6c0-7.1,2.5-18.3,3-20.3c-2-0.4-12.5-2.7-17-9.4
					c-3.2,0.6-6.7,1-9.9,1c-9.4,0-14.9-2.7-15.3-7.4c-0.6-7.7-0.6-20.4,1.2-24.7c1.8-4.3,11.5-11.3,17.7-13.6
					c5.8-2.2,19.8-18.4,21.3-22.4c0.6-1.5,1.3-4.2,2-7.1c1.3-5.1,2.6-10.4,3.8-11.4c0.5-0.4,1.6-1.5,3.1-2.8
					c4.2-4,11.2-10.6,13.9-12c0.8-0.4,1.4-0.7,1.9-0.9c1.9-0.8,2.4-1,3-3.7c1-4.1,7.5-15.8,16-18c0.8-4.4,1.6-6.3,1.8-6.8
					c-0.1-0.2-0.7-1-4.3-2.2c-1.5-0.5-3-0.7-4.5-0.7c-1.5,0-2.8,0.2-4.1,0.4c-0.6,0.1-1.2,0.2-1.7,0.3c-0.2,0-0.5,0-0.7,0
					c-3.2,0-5.8-2.9-6.1-6.7c-0.3-4.1-4.2-9-5-9.6c-0.6-0.5-0.9-1.6-0.7-2.6c0.1-0.5,0.5-1.4,1.7-1.8c-1.6-4.1-0.5-6.1,0.3-6.8
					c-2.7-3.2-3.8-6.2-2.9-8.2c0.9-1.9,7.6-7.6,8.9-8.7c-0.5-0.8-1.6-3.4,0.8-7c0.6-0.9,1-2.3,1.5-4c1.7-6,4.6-16,20.5-20.5
					c4.3-1.2,8.7-1.8,13.1-1.8c16.7,0,29,8.6,29.9,20.9c0.9,11.7-3,25.6-5.4,33.9c-0.8,3-1.5,5.2-1.6,6.2l2.4,1.1l2.4,9.9
					c1.6,0.3,11,2.1,13.6,5.1c2.6,3,8,14.6,8.7,16.2c0.9,0.2,5,1.1,7,4.1c2.1,3.2,5.8,23.9,5.5,27c-0.3,2.9-6.4,30.8-9.1,37.7
					c-2.6,6.7-8.8,44.2-7.5,61.9c0.6,8.4,2,22.3,3.3,35.8c1.4,14.4,2.8,28,2.8,31.3v0.1l0,0.1c-1.9,3.7-4,5.4-4.5,5.8
					c-0.2,3.5-4.3,65.1-5.4,82l-0.2,2.4c-1.1,15.9-1.8,25.6,7.1,49.1c6.6,17.6,8,41.5,8.8,57.4c0.3,6.3,0.6,11.3,1.1,13.7
					c1.6,7.4,1.6,29.6,1.5,38l0,2.3c0,5.5-5.8,11.3-6.6,12.2l0.6,10.2c1.5,0.5,10.2,3.3,11.8,6.4c0.3,0.5,0.6,1.1,1,1.7
					c1.6,2.5,4.1,6.3,3.3,11.6l-0.1,0.9c-0.9,5.9-1.6,10.7-4.5,10.9c0.5,2.6,0.3,4.8-0.4,5.8c-0.1,0.1-0.2,0.2-0.3,0.3
					c1.8,2.4,1.8,10.4,1.8,10.7v0.3l-15.7,0.1l-0.6-5.2c-1.8,0.8-9.2,3.9-11.3,4.1c-1.2,0.1-7.6,0.2-14.4,0.3
					c-6.7,0.1-13.6,0.3-14.7,0.4c-0.7,0.1-3.8,0.1-7.7,0.1c-16.9,0-17.2-0.5-17.3-0.8l-0.1-0.2l0.1-0.2c0.2-0.3,0.2-2.2,0.2-4
					c-1-0.1-4.8-0.6-6.7-0.6c-0.7,0-0.8,0.1-0.8,0.1c-0.7,0.4-11,5.2-13.6,6c-1.4,0.4-6.2,0.5-11.2,0.5c-4.6,0-9.3,0.1-11.2,0.4
					C743.5,821.4,742,821.4,740,821.4z"/>
				<path class="st4" d="M802.6,207.7c15.4,0,28.6,7.8,29.6,20.6c1.2,16.3-6.9,37-6.9,40.3c2.4,1.1,2.4,1.1,2.4,1.1l2.4,10
					c0,0,10.9,1.9,13.6,5c2.7,3.1,8.8,16.2,8.8,16.2s4.8,0.8,6.9,4c2.1,3.2,5.7,24,5.4,26.8c-0.3,2.7-6.3,30.6-9.1,37.7
					c-2.7,7.1-8.8,44.5-7.6,62s6,60.7,6,67.1c-2.1,4.2-4.5,5.7-4.5,5.7s-4.2,64.7-5.4,82.2c-1.2,17.5-2.4,26.9,6.9,51.7
					c9.4,24.8,8.2,62.8,10,71c1.8,8.2,1.5,34.4,1.5,40.2c0,5.7-6.6,12.1-6.6,12.1l0.6,10.6c0,0,10.1,3.1,11.8,6.3
					c1.3,2.6,5.3,6.7,4.3,13.2c-1,6.4-1.6,11.6-4.6,11.6c0,0-0.1,0-0.1,0c0.7,3.7,0.2,6.1-0.8,6.2c2,1.7,2,10.8,2,10.8l-15.1,0.1
					l-0.6-5.3c0,0-9.3,4-11.6,4.2c-2.4,0.2-27.1,0.5-29.1,0.7c-0.7,0.1-3.8,0.1-7.6,0.1c-7.4,0-17.4-0.2-17-0.6
					c0.3-0.4,0.3-4.5,0.3-4.5s-4.8-0.6-7-0.6c-0.5,0-0.8,0-1,0.1c-0.7,0.4-11,5.2-13.5,5.9s-18.4,0.2-22.5,0.9
					c-1,0.2-2.6,0.2-4.5,0.2c-6,0-15.1-0.7-16.6-1.5c-1.9-1-9.6-3.9-9.6-4.6s2.6-1,2.6-1s-0.2-5.1,2.6-5.2
					c3.1-0.1,13.5-0.1,19.4-2.2c5.9-2.1,17.9-8.6,21.1-13.2c-1.9-2.6-3.8-4.5-3.5-6.7c0.3-2.3,1-2.9,3.8-3.5
					c2.7-0.6,5.5-0.8,5.5-4.4c0-3.6-1.6-6.7-1.6-14.8s1.7-13.9,1.7-13.9s-2.9-13.3-5.6-31.8c-2.7-18.5-9-43.7-11.3-64.6
					c-2.3-20.9-5.8-39.6-5.8-39.6c-5.1-22.1-7.3-61.2-5.4-69.7c1.8-8.5,4.5-35.1,5.4-38.7c-4.8-2.7-3.1-51.4-3-59.2
					c0-7.9,3-20.5,3-20.5s-12.4-2.1-17.2-9.5c-3.1,0.6-6.6,1-10.1,1c-7.5,0-14.6-1.8-15-7.1c-0.6-7.7-0.6-20.4,1.2-24.6
					c1.8-4.2,11.5-11.2,17.5-13.4c6-2.3,19.9-18.6,21.5-22.5c1.5-3.9,3.9-16.9,5.7-18.4c1.8-1.5,13.3-13,16.9-14.8
					c3.6-1.8,4.2-1.2,5.1-4.8c0.9-3.6,7.3-15.7,16-17.8c0.9-5.1,1.8-7,1.8-7s0-1.1-4.5-2.5c-1.7-0.5-3.2-0.7-4.6-0.7
					c-2.2,0-4,0.5-5.9,0.7c-0.2,0-0.4,0-0.6,0c-2.9,0-5.5-2.5-5.8-6.4c-0.3-4.1-4.2-9.1-5.1-9.8c-0.9-0.7-1.2-3.4,1.2-3.9
					c-1.5-3.8-0.9-6,0.3-7c-2.7-3.1-3.9-6.1-3-8.1c0.9-2,9.1-8.7,9.1-8.7s-2.1-2.8,0.6-6.9c2.7-4.2,1.5-18.7,21.8-24.4
					C793.9,208.3,798.3,207.7,802.6,207.7 M802.6,207.1c-4.4,0-8.9,0.6-13.2,1.9c-16.1,4.6-18.9,14.7-20.7,20.7
					c-0.5,1.7-0.9,3.1-1.4,3.9c-2.3,3.5-1.4,6.1-0.9,7.1c-1.8,1.5-8,6.8-8.8,8.6c-1,2.1,0,5.1,2.7,8.3c-0.8,0.9-1.6,2.9-0.3,6.7
					c-0.8,0.3-1.4,1-1.6,1.9c-0.3,1.1,0.1,2.3,0.8,2.9c0.7,0.5,4.6,5.4,4.9,9.3c0.3,4,3,7,6.4,7c0.2,0,0.5,0,0.7,0
					c0.6-0.1,1.2-0.2,1.8-0.3c1.3-0.2,2.6-0.4,4.1-0.4c1.5,0,2.9,0.2,4.4,0.7c2.9,0.9,3.8,1.6,4,1.9c-0.3,0.7-1,2.6-1.7,6.5
					c-8.6,2.4-15,14-16.1,18.2c-0.6,2.6-1,2.7-2.9,3.5c-0.5,0.2-1.2,0.5-2,0.9c-2.8,1.4-9.8,8.1-14,12.1c-1.4,1.4-2.6,2.5-3,2.8
					c-1.2,1-2.3,5.2-3.9,11.5c-0.7,2.9-1.4,5.7-2,7.1c-1.5,3.9-15.3,20-21.1,22.2c-6.2,2.3-16,9.4-17.9,13.8
					c-1.9,4.4-1.9,17.2-1.3,24.9c0.4,4.9,6.1,7.7,15.6,7.7c3.2,0,6.7-0.3,9.8-0.9c4.5,6.4,14.1,8.8,16.8,9.3
					c-0.6,2.7-2.9,13.1-2.9,20.1c0,1.1,0,3.1-0.1,5.6c-0.5,25.9-0.5,50.2,3.1,53.8c-0.4,2.1-1.1,7.7-1.9,14.2
					c-1.1,9.1-2.4,19.4-3.4,24.2c-1.8,8.5,0.3,47.8,5.4,70c0,0.2,3.6,18.9,5.8,39.5c1.3,12.2,4,25.7,6.6,38.8
					c1.8,9.3,3.6,18.1,4.7,25.8c2.5,17.3,5.2,30.1,5.6,31.7c-0.3,1-1.7,6.5-1.7,13.9c0,4.9,0.6,8,1,10.4c0.3,1.6,0.5,2.9,0.5,4.3
					c0,2.6-1.5,3-4.2,3.6c-0.3,0.1-0.6,0.1-0.8,0.2c-2.8,0.6-3.8,1.3-4.2,4c-0.3,2.1,1,3.8,2.5,5.8c0.3,0.3,0.5,0.7,0.8,1
					c-3.3,4.3-14.5,10.5-20.5,12.6c-5.3,1.9-14.3,2-18.1,2.1c-0.4,0-0.8,0-1.1,0c-0.7,0-1.4,0.3-1.9,0.8c-1.1,1.2-1.3,3.3-1.4,4.4
					c-1.7,0.2-2.6,0.8-2.6,1.5c0,0.7,0.7,1.2,6.9,3.9c1.3,0.6,2.4,1,3,1.3c1.7,0.9,11.4,1.5,16.9,1.5c2.1,0,3.6-0.1,4.6-0.2
					c1.9-0.3,6.6-0.4,11.2-0.4c5.1,0,9.9-0.1,11.3-0.5c2.6-0.8,12.7-5.4,13.6-6c0,0,0.2,0,0.7,0c1.7,0,5.1,0.4,6.4,0.6
					c0,1.5,0,3.2-0.2,3.6l-0.2,0.3l0.2,0.4c0.2,0.4,0.4,0.9,17.6,0.9c3.9,0,7,0,7.7-0.1c1-0.1,7.9-0.2,14.6-0.4
					c6.8-0.1,13.3-0.3,14.5-0.3c2.1-0.2,8.8-2.9,11.1-3.9l0.5,4.5l0.1,0.6l0.6,0l15.1-0.1l0.6,0v-0.6c0-0.9-0.1-8-1.7-10.7
					c0,0,0.1-0.1,0.1-0.1c0.7-1,0.9-3.1,0.5-5.7c2.9-0.6,3.6-5.3,4.5-11.2l0.1-0.9c0.8-5.4-1.7-9.3-3.3-11.8c-0.4-0.6-0.8-1.2-1-1.7
					c-1.6-3.1-9.6-5.8-11.7-6.5l-0.6-9.9c1.2-1.2,6.6-6.9,6.6-12.3c0-0.6,0-1.3,0-2.3c0-8.4,0.1-30.6-1.5-38.1
					c-0.5-2.3-0.8-7.3-1.1-13.6c-0.9-15.9-2.2-39.8-8.9-57.5c-8.9-23.5-8.2-33.1-7.1-49l0.2-2.4c1.2-16.7,5.1-77.1,5.4-81.9
					c0.7-0.5,2.7-2.2,4.5-5.8l0.1-0.1v-0.1c0-3.3-1.3-16.9-2.8-31.3c-1.3-13.5-2.7-27.4-3.3-35.8c-1.2-17.6,4.9-55.1,7.5-61.8
					c2.7-6.9,8.8-34.9,9.1-37.8c0.3-2.6-3.2-23.7-5.5-27.2c-1.9-2.9-5.9-3.9-7-4.2c-0.9-2-6.2-13.1-8.7-16.1
					c-2.6-2.9-11.5-4.8-13.6-5.1l-2.3-9.6l-0.1-0.3l-0.3-0.1l-2-1c0.1-1.1,0.8-3.3,1.5-6c2.3-8.3,6.3-22.2,5.4-34
					C831.8,215.8,819.4,207.1,802.6,207.1L802.6,207.1z"/>
			</g>
			<g>
				<path class="st1" d="M888,821.8c-5.9,0-13.5-0.2-18-0.3c-1.4,0-2.6-0.1-3.3-0.1c-1.8-0.4-10.3-2.7-10.3-5.1
					c0-2.8,1.5-4.1,4.8-4.3c3.5-0.1,14.7-3.5,16.2-4.8c1.5-1.3,7.7-7.8,9.2-10c2.5-3.8,6.5-10.2,6.5-11.4c0-0.3,0-0.8,0.1-1.3
					c0.1-2.1,0.3-5.5,0.2-8.4c-0.2-3.7,1.5-9.9,2.2-11.3c0.5-1.1,2.1-2.9,2.7-3.4c-0.5-0.8-2.2-3.6-4.2-6.2c-1.8-2.4-1.9-4.7-2-8.8
					c0-1.1,0-2.4-0.1-3.8c-0.1-3.3-1-11.8-1.9-21.7c-1-10.5-2.2-22.4-2.9-31.5c-1.1-14.6-1.1-32.3-1-52.7c0-4.5,0-9.1,0-13.8
					c0-0.3-0.7-35.7,0.1-61.7c0.8-26,2.9-38.7,7.5-61.7c3.6-17.9,8-26.4,10.2-30.5c0.5-0.9,0.8-1.6,1.1-2.2
					c-2.2-1.3-2.1-3.4-2.1-6.5c0-1.3,0-2.9-0.1-4.7c-5.6-4.9-11.3-23.4-13.7-31.4c-0.4-1.4-0.7-2.4-0.9-2.8
					c-1-2.6-6.1-24.8-6.3-25.8c-0.1-0.2-1.7-3-1.8-4.2c-0.1-1,0.9-3.9,1.1-4.5l-4.4-8.3l-0.3-3.9c-0.2-0.3-1.1-2.1-1.1-3.6
					c0-1.2-0.1-8.2-0.1-8.5c0-0.4-1.5-5-2.8-8.6c-1.1-3-1.1-3.2-0.5-3.8c0.1-0.1,0.1-0.1,0.2-0.2c0.2-0.3,0.5-0.4,0.9-0.4
					c0.8,0,1.9,0.6,2.8,1.4c0.8,0.8,1.2,2.2,1.4,3c0,0.1,0.1,0.3,0.1,0.4c0.5-0.2,1.6-1.1,1.5-1.4c-0.1-0.7-2.4-5.9-3.7-8.3
					c-0.4-0.8-0.5-1.5-0.2-2c0.3-0.4,0.8-0.7,1.6-0.7c0.4,0,0.9,0.1,1.4,0.2c1.4,0.4,3.3,2.2,4.3,3.7c0.5,0.8,1.3,1.6,1.9,2.2
					c-0.3-1.3-0.8-3.5-1.4-4.9c-0.3-0.8-0.4-1.4-0.1-1.8c0.2-0.3,0.5-0.4,0.9-0.4c0.4,0,0.9,0.1,1.5,0.4c1.5,0.6,2.8,1.9,4,4.1
					c1.5,2.7,4,6.9,4.4,7.6l14.7,6.1c0.2-1.6,1.1-7.8,2.2-10.6c0.8-2.1,4.1-3.9,6.8-5.4c1.5-0.8,3-1.7,3.2-2.1
					c0.5-1.1,4.7-2.5,9.4-4c1-0.3,1.7-0.5,2.1-0.7c1.5-0.6,6.4-4.2,6.9-5.3c0.4-0.7,2.5-3.3,4.6-5.9c1.5-1.8,2.9-3.5,3.1-3.9
					c0.6-1,3.9-1.7,5.1-1.9c0.2-1.5,1-10.1,1.2-14.2c0.1-2-0.1-3.1-0.5-3.5c-0.4-0.4-1-0.4-1.9-0.4l-0.6,0c-2.6,0-7.3,0-8.2-2.2
					c-0.9-2.2-5.1-14.9-5.5-18.3c-0.4-3.7,0.8-6.7,2.3-10.6l0.1-0.3c1.7-4.2,1.4-8.2,1.2-10.4c-0.1-1.9,1.4-3.5,2.8-4.8
					c0.7-0.6,1.3-1.3,1.6-1.8c0.4-0.6,0.5-1.7,0.7-3c0.4-2.7,0.9-6.3,3.3-10c-0.9-2.3,1.9-6.5,5.7-8.4c3.7-1.9,15.6-4.1,21.8-4.7
					c0.4,0,0.9-0.1,1.3-0.1c6,0,14,3.6,17.6,7c3.9,3.7,10.3,14.1,11,20.5c7.6,5.1,5.8,10.5,4.1,15.3c-0.2,0.5-0.3,1-0.5,1.4
					c-1.5,4.7-6.4,6-7.5,6.2c-0.1,0.7-0.4,2.8-2.2,8c-2.5,7.2-8.8,9.1-11.4,9.5c-3.2,0.6-4.2,1.7-6.3,7.3
					c-1.8,4.8,0.1,10.1,0.5,11.1h8.7l3.2,6.2l-1.4,4.8c1.6,1.1,12.8,8.9,17.4,11c5.3,2.3,11.4,19.5,11.9,23.6c0.6,4.1,0.2,25.8-2,40
					c-2.3,14.2-15.3,43.5-18.9,49.6c-2.2,3.7-5.3,4.5-7.4,4.5c-1.3,0-2.4-0.3-2.9-0.5l-2.8,5.6c4.4,2.8,7.7,20.2,11.8,42.2
					c0.6,3.2,1.2,6.6,1.9,10l0.4,1.9c4.7,24.8,5.1,26.9-2.4,48.3c0.6,15-4.1,37.1-6.4,47.8c-0.6,2.9-1.1,5-1.1,5.8
					c-0.1,1-0.4,2.6-0.8,4.4c-0.9,4.4-2.2,10.4-1.2,13.6c1.1,3.3,0.8,5.5,0.4,8.4c-0.1,1.1-0.3,2.3-0.4,3.7
					c-0.1,0.9-0.2,3.4-0.4,7.2c-1,17.5-3.3,58.5-6.5,81.7c-2.8,20.8-3.4,39.6-3.6,48.6c-0.1,4.3-0.2,5.1-0.3,5.3
					c-0.5,0.7-2,1.3-7.8,1.9c2,3.4,3,13.2,3.8,20.5c0.2,2.3,0.4,4.3,0.6,5.6c0.1,1-0.1,1.9-0.7,2.6c-2.3,2.9-9.6,3.4-16.7,3.9
					c-1,0.1-2,0.1-3,0.2c-1.4,0.1-2.5,0.2-3.4,0.2c-3.9,0-4.3-1-4.6-2.6c-0.1-0.5-0.2-1-0.4-1.5c-0.8-1.7-0.3-4.9,0.3-8.3
					c0.3-2.1,0.7-4.2,0.7-5.9c0-4.6-1-15.4-1.6-16.3c-0.7-1.1-2.7-21.1-2.9-22.8c-0.1-1.2,1.5-12.8,3.3-25
					c1.7-12.1,3.5-24.6,3.4-25.9c-0.2-2.6-1.4-23.5-1.4-23.7c-0.1-0.2-2.6-6.7-2.4-11.4c0.2-4.7,0.2-21.2,0-23.3
					c-0.2-1.8-8.2-38.8-9.5-44.9l-4.6,9.3c0.1,1.2,0.8,16.1,1.2,19.6c0.4,4,1.6,53.2,0.4,65.6c-1.2,12.4-0.8,36.8,0.6,42.1
					c1.4,5.2,2.8,42.1,2.9,43.7l-2.2,16.5c0.6,3.7,2.1,13.8,2.2,14.4l0,0.1l-0.1,0.2c-0.1,0.2-0.4,0.2-1.2,0.2c-1,0-2.7-0.1-4.4-0.2
					c-2.1-0.1-4.6-0.3-6.3-0.3c-2,0-2.3,0.2-2.4,0.3c-0.1,0.1-0.2,0.2-0.3,0.2h-0.1l-0.2-0.1c-0.8-0.8-0.2-12.9,0-17.2
					c-2,0.5-11,2.7-14.5,5.7c-1.8,1.5-3.8,3.7-5.9,5.8c-2.7,2.8-5,5.3-6.2,5.7C896,821.5,895.2,821.8,888,821.8z"/>
				<path class="st4" d="M977.1,227.1c6.1,0,13.9,3.7,17.3,7c3.7,3.4,10.3,14,11,20.5c8.3,5.5,5.3,11.4,3.7,16.4
					c-1.6,5.1-7.5,6.1-7.5,6.1s0,1.6-2.2,8.1c-2.2,6.5-7.7,8.7-11.2,9.3c-3.4,0.6-4.5,2-6.5,7.5c-2,5.5,0.6,11.6,0.6,11.6h8.7l3,5.9
					l-1.4,4.9c0,0,12.6,8.9,17.6,11.2c5.1,2.2,11.2,19.1,11.8,23.3c0.6,4.3,0.2,26-2,40c-2.2,14-15,43-18.9,49.5
					c-2.1,3.6-5,4.4-7.1,4.4c-1.7,0-3-0.5-3-0.5s0,0-3,6.1c5.1,2.4,8.7,25.6,13.8,52.1c5.1,26.6,5.7,28.2-2,50.1
					c0.8,19.1-7.1,49.9-7.5,53.5c-0.4,3.7-3.4,13.6-2,18.1c1.4,4.5,0.4,6.7,0,12c-0.4,5.3-3,60.6-6.9,88.8
					c-3.9,28.2-3.4,53.1-3.9,53.7c-0.4,0.6-1.8,1.2-8.1,1.8c2.8,3.7,3.9,20.9,4.7,26.4c0.8,5.5-11,5.7-20.1,6.4
					c-1.4,0.1-2.5,0.2-3.4,0.2c-5.2,0-3.7-1.7-4.7-3.9c-1.2-2.6,1-9.7,1-14c0-4.3-1-15.4-1.6-16.4c-0.6-1-2.6-20.3-2.8-22.7
					s6.9-48.3,6.7-50.9c-0.2-2.6-1.4-23.7-1.4-23.7s-2.6-6.7-2.4-11.4c0.2-4.7,0.2-21.3,0-23.3c-0.2-2-9.7-45.8-9.7-45.8l-5.1,10.1
					c0,0,0.8,16,1.2,19.7c0.4,3.7,1.6,52.7,0.4,65.5c-1.2,12.8-0.8,36.9,0.6,42.2s2.8,43.6,2.8,43.6l-2.2,16.4c0,0,2,13.8,2.2,14.5
					c0,0.1-0.3,0.2-1,0.2c-2.2,0-7.5-0.6-10.8-0.6c-1.4,0-2.4,0.1-2.6,0.4c0,0-0.1,0.1-0.1,0.1c-0.9,0,0.1-17.4,0.1-17.4
					s-11,2.4-15,5.9c-4.1,3.4-9.9,10.7-12,11.5c-0.7,0.3-4,0.3-8.1,0.3c-7.7,0-18.5-0.3-21.3-0.3c0,0-10-2.6-10-4.8
					c0-2.3,1-3.8,4.5-3.9c3.5-0.1,14.8-3.5,16.4-4.9c1.6-1.4,7.8-7.9,9.2-10.1c1.5-2.2,6.5-10,6.6-11.6c0.1-1.5,0.4-6.1,0.2-9.7
					s1.5-9.9,2.2-11.1c0.6-1.3,2.8-3.5,2.8-3.5s-2-3.4-4.3-6.4s-1.7-5.7-2-12.4c-0.3-6.7-3.4-35.3-4.8-53.2c-1.4-17.9-1-40.4-1-66.5
					c0,0-0.7-35.4,0.1-61.7s3-39.4,7.4-61.6c4.4-22.2,10.2-29.8,11.3-32.9c-3.2-1.8-1.8-4.9-2.3-11.1c-6.6-5.5-13.6-31.5-14.6-34.2
					c-1-2.6-6.3-25.7-6.3-25.7s-1.7-3-1.8-4.1c-0.1-1.1,1.1-4.6,1.1-4.6l-4.4-8.4l-0.3-3.9c0,0-1-1.9-1.1-3.5
					c-0.1-1.6-0.1-8.2-0.1-8.4c0.1-0.2-1.6-5.3-2.8-8.7c-1.2-3.4-0.9-3-0.4-3.7c0.2-0.2,0.4-0.3,0.7-0.3c0.7,0,1.8,0.5,2.6,1.3
					c1.2,1.1,1.4,3.6,1.6,3.6c0.2,0,2.1-1.1,2-1.8c-0.1-0.7-2.5-6-3.7-8.4c-0.9-1.7,0-2.2,1.1-2.2c0.4,0,0.9,0.1,1.3,0.2
					c1.4,0.4,3.2,2.2,4.1,3.6s2.6,3,2.6,3s-0.8-3.8-1.7-6c-0.5-1.3-0.2-1.8,0.5-1.8c0.4,0,0.9,0.2,1.4,0.3c1.3,0.5,2.6,1.7,3.8,4
					c1.6,3,4.5,7.7,4.5,7.7l15.2,6.3c0,0,1-7.7,2.2-11c1.2-3.2,9.3-6.1,9.9-7.5c0.6-1.4,9.7-3.9,11.4-4.5c1.6-0.6,6.5-4.3,7.1-5.5
					c0.6-1.2,7.1-8.7,7.7-9.7c0.6-1,5.1-1.8,5.1-1.8s1-9.9,1.2-14.4c0.2-4.1-0.7-4.3-2.7-4.3c-0.2,0-0.4,0-0.6,0c-2.4,0-7.1,0-7.9-2
					s-5.1-14.8-5.5-18.3c-0.4-3.7,0.8-6.7,2.4-10.7c1.6-4.1,1.4-7.9,1.2-10.5c-0.2-2.6,3.2-4.7,4.4-6.5c1.1-1.8,0.3-7.5,4.1-13.2
					c-1-2,1.8-6.3,5.5-8.1c3.7-1.8,15.4-4.1,21.7-4.7C976.3,227.1,976.7,227.1,977.1,227.1 M977.1,226.5L977.1,226.5
					c-0.5,0-0.9,0-1.4,0.1c-6.2,0.6-18.2,2.9-21.9,4.7c-3.8,1.9-6.6,6.2-5.9,8.6c-2.4,3.7-2.9,7.3-3.3,10c-0.2,1.3-0.3,2.4-0.7,2.9
					c-0.3,0.5-0.9,1.1-1.6,1.8c-1.4,1.4-3.1,3-2.9,5.1c0.2,2.1,0.5,6.1-1.2,10.3l-0.1,0.3c-1.6,3.9-2.8,7-2.4,10.8
					c0.4,3.6,4.8,16.6,5.5,18.4c0.9,2.2,4.8,2.4,8.5,2.4l0.3,0l0.3,0c0.9,0,1.4,0,1.6,0.3c0.4,0.4,0.5,1.4,0.4,3.3
					c-0.2,3.8-1,11.9-1.2,13.9c-1.6,0.3-4.4,1-5,2c-0.2,0.4-1.7,2.1-3.1,3.8c-2.5,3-4.3,5.2-4.7,5.9c-0.5,1-5.2,4.6-6.8,5.2
					c-0.4,0.1-1.1,0.4-2.1,0.7c-6,1.8-9.1,3-9.6,4.1c-0.2,0.4-1.8,1.3-3.1,2c-2.7,1.5-6.1,3.4-6.9,5.6c-1,2.7-1.9,8.2-2.2,10.3
					l-14.3-5.9c-0.5-0.9-2.9-4.9-4.3-7.5c-1.2-2.2-2.6-3.7-4.1-4.3c-0.7-0.3-1.2-0.4-1.6-0.4c-0.7,0-1,0.3-1.2,0.5
					c-0.4,0.6-0.2,1.5,0.1,2.1c0.4,1,0.8,2.5,1.1,3.7c-0.4-0.4-0.7-0.9-1-1.3c-1-1.6-3-3.4-4.5-3.8c-0.5-0.1-1-0.2-1.5-0.2
					c-1.1,0-1.6,0.4-1.8,0.8c-0.3,0.6-0.3,1.3,0.2,2.3c1.3,2.5,3.5,7.7,3.6,8.3c-0.1,0.2-0.6,0.6-1,0.9c0,0,0,0,0,0
					c-0.2-0.9-0.6-2.3-1.5-3.1c-1-0.9-2.2-1.5-3-1.5c-0.6,0-1,0.3-1.2,0.5c-0.1,0.1-0.1,0.1-0.2,0.2c-0.7,0.7-0.6,1.2,0.4,4.1
					c1.3,3.7,2.7,8,2.8,8.5c-0.1,1.1,0,7.6,0.1,8.5c0.1,1.5,0.9,3.2,1.1,3.7l0.3,3.8l0,0.1l0.1,0.1l4.3,8.1
					c-0.3,0.9-1.1,3.5-1.1,4.5c0.1,1.1,1.4,3.6,1.8,4.3c0.4,1.8,5.3,23.1,6.3,25.7c0.2,0.4,0.5,1.4,0.9,2.8
					c2.4,7.9,8.1,26.4,13.7,31.4c0.1,1.7,0.1,3.2,0.1,4.5c0,3.1-0.1,5.2,2,6.6c-0.2,0.5-0.6,1.1-1,1.9c-2.2,4.1-6.6,12.7-10.2,30.6
					c-4.6,23-6.7,35.7-7.5,61.7c-0.8,26-0.1,61.4-0.1,61.7c0,4.7,0,9.3,0,13.8c-0.1,20.4-0.1,38.1,1,52.7c0.7,9.2,1.8,21,2.9,31.5
					c1,9.9,1.8,18.4,1.9,21.6c0.1,1.4,0.1,2.7,0.1,3.8c0.1,4.2,0.1,6.4,2,9c1.8,2.4,3.4,5,4,5.9c-0.6,0.7-2,2.3-2.6,3.3
					c-0.6,1.4-2.4,7.7-2.2,11.4c0.1,2.8-0.1,6.3-0.2,8.3c0,0.6-0.1,1-0.1,1.3c0,1-3.4,6.6-6.5,11.3c-1.5,2.2-7.6,8.6-9.1,10
					c-1.3,1.2-12.4,4.6-16,4.8c-3.4,0.1-5.1,1.6-5.1,4.6c0,2.6,8,4.8,10.5,5.4l0.1,0l0.1,0c0.7,0,1.8,0,3.3,0.1
					c4.5,0.1,12.1,0.3,18,0.3c6.5,0,7.9-0.2,8.4-0.4c1.2-0.4,3.2-2.5,6.3-5.8c2-2.1,4.1-4.3,5.8-5.8c3.3-2.8,11.4-4.9,13.9-5.6
					c-0.6,10.7-0.5,16.4,0.1,17c0.1,0.1,0.3,0.2,0.5,0.2c0.1,0,0.3,0,0.5-0.2c0.1,0,0.5-0.2,2.2-0.2c1.8,0,4.2,0.2,6.3,0.3
					c1.8,0.1,3.4,0.2,4.5,0.2c0.8,0,1.2-0.1,1.5-0.4c0.1-0.2,0.2-0.4,0.1-0.6c-0.1-0.5-1.4-8.9-2.2-14.4l2.2-16.3l0-0.1l0-0.1
					c-0.1-1.6-1.4-38.5-2.9-43.7c-1.4-5.3-1.8-29.6-0.6-42c1.2-12.4,0-61.7-0.4-65.6c-0.4-3.4-1.1-17.8-1.2-19.5l4.2-8.4
					c3.4,15.5,9.2,42.5,9.3,44c0.2,2,0.2,18.7,0,23.2c-0.2,4.5,2.1,10.7,2.4,11.5c0.1,1.6,1.2,21.1,1.4,23.6
					c0.1,1.3-1.8,14.3-3.4,25.9c-2.1,14.8-3.4,23.9-3.3,25.1c0,0.2,2.1,21.7,2.9,23c0.5,1,1.5,11.7,1.5,16.1c0,1.6-0.3,3.8-0.7,5.8
					c-0.6,3.4-1.1,6.7-0.3,8.4c0.2,0.5,0.3,1,0.4,1.5c0.3,1.8,0.8,2.9,4.9,2.9c0.9,0,2.1-0.1,3.4-0.2c1-0.1,2-0.2,3-0.2
					c7.2-0.5,14.5-1.1,16.9-4c0.7-0.8,0.9-1.8,0.8-2.9c-0.2-1.3-0.4-3.3-0.6-5.6c-0.7-7-1.7-16.4-3.6-20.2c5.6-0.6,7-1.2,7.6-2
					c0.2-0.3,0.2-0.6,0.3-5.4c0.2-9,0.8-27.8,3.6-48.6c3.2-23.2,5.5-64.2,6.5-81.7c0.2-3.6,0.4-6.3,0.4-7.2c0.1-1.4,0.3-2.6,0.4-3.7
					c0.4-3,0.7-5.1-0.4-8.5c-1-3,0.3-9,1.2-13.4c0.4-1.8,0.7-3.3,0.8-4.4c0.1-0.8,0.5-2.8,1.1-5.7c2.3-10.6,7-32.8,6.4-47.8
					c7.5-21.4,7.1-23.5,2.4-48.4l-0.4-1.9c-0.6-3.4-1.3-6.7-1.9-10c-4.2-22.5-7.3-39-11.7-42.3l2.5-5.1c0.6,0.2,1.5,0.4,2.7,0.4
					c2.2,0,5.4-0.8,7.7-4.7c3.6-6.1,16.7-35.5,18.9-49.7c2.3-14.3,2.6-36.1,2-40.1c-0.5-3.8-6.5-21.3-12.1-23.8
					c-4.5-2-15.1-9.4-17.2-10.8l1.3-4.4l0.1-0.2l-0.1-0.2l-3-5.9l-0.2-0.3H991h-8.3c-0.5-1.4-2.1-6.3-0.4-10.7c2-5.5,2.9-6.6,6-7.1
					c2.7-0.5,9.1-2.4,11.6-9.7c1.6-4.7,2.1-6.9,2.2-7.8c1.5-0.4,6.1-1.8,7.5-6.4c0.1-0.5,0.3-0.9,0.5-1.4c1.6-4.6,3.5-10.4-4.1-15.6
					c-0.8-6.5-7.2-16.9-11.1-20.6C991.3,230.2,983.3,226.5,977.1,226.5L977.1,226.5z"/>
			</g>
			<g>
				<path class="st1" d="M1093.6,814.6l2-1.1c-0.2-0.6-0.7-2.2-0.6-3.9c0.1-1.8,2.8-4,4.8-5.5c0.5-0.4,0.9-0.7,1.2-1
					c1.4-1.3,4.2-6.1,4.3-10.7c-0.6-0.3-0.8-1.8-1-4.3c-0.2-1.6-0.3-3.2-0.7-4.3c-0.9-2.7-1.5-10.4-1.1-14.5c0.3-3.1,3.5-7,5.6-9.6
					c0.8-1,1.5-1.8,1.8-2.3c1-1.7,4.1-10.3,4.4-11.2c-0.2-1.1-2.8-12.8-4.3-19.7c-1.3-5.8-1.4-7.4-1.4-9.3c0-0.5,0-1-0.1-1.5
					c-0.2-2.9,1.3-35.4,1.5-37.7c-0.5-1.1-5.9-12.7-7.2-16.8c-0.4-1.4-1.2-4.8-2.3-9.1c-2.1-8.6-4.9-20.3-7.2-27
					c-1.9-3.8-6.4-18-6.6-18.6l-5.6-8.3c-1.3,2.5-7.3,14.5-11,23.4c-4.2,9.9-9,26.8-11,36.4c-1.9,9.3-2.9,11-6.2,13.2
					c0.1,1.7,1.1,5,1.6,6.8l0.2,0.8c0.5,1.6-0.2,9.3-0.9,13.9l-0.3,1.7c-0.8,4.9-2,12.4-1.3,18.4c0.7,5.9-1,12.1-2.2,16.3
					c-0.2,0.6-0.3,1.2-0.5,1.7c-1,3.7-0.3,5.7,1.3,9.1c1.6,3.3,1.7,7,1.9,10.8c0.2,4.3-0.1,11-1.1,15.3c-1,4.3-5.9,7.5-7,8.2
					c0.3,1.2,1.7,6.9,1.2,10.1c-0.5,3.5-0.8,9.2-0.8,9.3c0,0.2,0.8,7,0.7,9.1c-0.1,1.6-1.1,3.1-1.7,3.9l3.2,0.5l0,0.2
					c0,0,0.5,6.7,0.7,8.7c0.1,1.7,0.3,3.4-0.4,4.1c-0.2,0.2-0.5,0.4-0.9,0.4h-34.1v-3.7c-1.3,0.4-5.5,1.6-9.8,2.8
					c-3.2,0.9-9.4,1.3-19.2,1.3c-3.7,0-7.8-0.1-12.5-0.2c-12.8-0.3-19.4-4-19.5-4.1l-0.2-0.1l0.9-2.9l0.1-0.1
					c0.5-0.3,1.9-1.2,2.2-1.6c0.1-0.1,0.2-1,0.2-1.6c0.1-1.1,0.2-2.5,0.7-3.3c0.8-1.4,3.3-2.1,7.5-2.1c0.3,0,1.2,0,1.2,0
					c4.2,0,9.5-1.4,16.1-3.2c6.6-1.7,17.3-12.7,18.6-14c-0.2-0.6-0.7-2.5-0.7-3.9c-0.1-1.8,3.4-8.6,5.3-11.7c1.8-3,1.8-3,1.6-7.4
					l-0.1-1.2c-0.2-5.3,0.2-9.2,0.6-12.6l0.1-0.6c0.3-2.3,1.5-5.8,2.6-8.6c0.6-1.7,1.2-3.2,1.3-3.9c0.2-0.9-0.5-8.2-1.2-16.6
					c-0.8-9.4-1.8-21-2.3-30c-0.9-16.5-0.1-41.8,2-60.1c1.3-11.6,3.7-22.3,5.2-28.7c0.6-2.8,1.1-4.8,1.1-5.4c0-0.9-0.4-1.6-0.8-2.4
					c-0.4-0.7-0.8-1.5-0.9-2.6c-0.3-2.1-0.2-21.5,1.1-31.2c0.6-4.5,2.1-9.8,3.7-15.3c1.7-6.1,3.5-12.3,4-17.6
					c-1.6-1.3-4.4-5.7-3.8-8c0.5-2.1,4.9-11.6,5.5-12.9c-0.9-1.6-6.1-10.6-6.1-12.3c0-1.6,1.4-17.3,3-24.9
					c1.7-8,10.4-54.3,12.7-70.1c2.3-15.4,10.5-28.9,11.1-29.9c0.2-1.4,2.5-18.8,4.6-23.2c2-4.1,4.3-6.1,11.8-12.8l2.9-2.5
					c-0.2-2,0.3-5.7,1-7.3c0.3-0.8,0.9-3.1,1.4-5.1c0.5-2.1,0.9-4,1.2-4.5c0.5-0.9,4.1-4.9,4.9-5.7c-0.6-1.2-3.9-8-4.9-9.7
					c-1.2-2.2-3.9-5.8-7.8-5.9c-4.1-0.1-6.9-1-8.5-2.7s-1.3-5.9-0.6-7.7c0.5-1.3-0.2-2.3-0.8-3.2c-0.1-0.2-0.2-0.3-0.3-0.5
					c-0.6-1-0.9-2.4,0-3.6c-0.6-0.8-0.8-2.2-0.7-3.1c0-0.2,0.1-0.6,0.2-1.1c0.3-1.5,1-4.9,0.9-5.4c-0.1-0.4-2.1-2-3-2
					c-1,0-1.8-0.8-2.4-2.5c-0.3-0.8,0.6-1.6,1.6-2.5c0.6-0.5,1.2-1.1,1.5-1.6c0.7-1.1,4.2-6.9,5-8.2c-0.5-0.4-1.8-1.3-2.4-2
					c-0.7-0.8,0.2-2.8,1.7-5.7c0.2-0.4,0.4-0.7,0.5-1.1c0.6-1.2,1.3-3.1,2-5.2c0.8-2.3,1.7-4.7,2.4-6.2c0.4-0.8,4-7.7,10.5-14.4
					c3.2-3.2,8-4.7,15.7-4.7c3.5,0,7.4,0.3,12.1,0.7c12.2,1.1,21.2,10.3,25.2,17.9c3,5.6,3.6,13,2,22.6c-1,6.2-9.3,20.2-11.1,22.7
					c-1.7,2.4-2.5,11.2-2.6,12.5c0.7,0.7,4.5,4.6,6.1,7.5c0.3,0.5,0.6,1.1,0.8,1.6c1.2,2.4,2.1,4.1,4.5,4.3c0.3,0,0.6,0,1.1,0
					c1.3,0,3.4-0.1,5.9-0.1c3.6-0.1,8-0.2,12.1-0.2c3.9,0,6.7,0.1,8.8,0.3c6.7,0.7,11.5,14.2,14.9,24.2c0.6,1.8,1.2,3.5,1.8,5
					c3.1,8.4,4.1,14.5,3.2,19.4c-0.2,0.9-0.3,1.6-0.5,2.2c-0.4,1.9-0.5,2.3,0.1,5.1c0.8,3.4,0.1,8.4-0.8,12.8
					c-0.7,3.5-0.3,11.5,0,19.1c0.3,8,0.5,21.5,0.3,27.4c-0.2,5.9-2,13.3-2,13.4c0,0-0.9,5.5-1.1,8c-0.1,1.7-1.3,3.4-2.5,5.1
					c-0.6,0.9-1.3,1.8-1.6,2.6c-1.1,2.3-6.8,19.7-7.4,22c-0.6,2.1-0.4,15.4-0.1,27.1c0.2,6.2-2.4,20-4,28.3c-0.6,3-1,5.4-1,5.8
					c0,1-0.7,1.2-1.4,1.4c-0.7,0.2-1.4,0.4-2,1.3c-0.7,1.2-1,3.4-1.3,5.6c-0.2,1.3-0.4,2.6-0.6,3.6c-0.6,2.3,0.2,4.7,1,7.2l0.2,0.8
					c0.5,1.7,0.1,2.8-0.2,3.8c-0.2,0.7-0.4,1.2-0.3,1.8c0.6,2.1,0.5,4.2-0.3,6.4c-0.8,2.4-1,4.5-0.1,9c1.1,5,1.3,11.5,0.9,22.3
					c1.2,5.3-0.4,18.3-0.4,18.9l0,0c0,0,0.4,5.3,1.5,12.7c0.8,6.1,1.3,7.5,2.5,10.8c0.3,0.7,0.5,1.6,0.9,2.6
					c1.8,5.6,4.4,17.9,4.7,22.1c0.1,1.1,0.3,3,0.7,5.3c0.9,6.7,2.3,16.9,2,23.7c-0.3,7.3,0.1,19.1,0.6,30.4c0.1,3,0.2,6,0.3,8.9
					c0.2,4.4,0.4,9.2,0.6,13.9c0.5,10.8,0.9,20.1,0.6,21.7c-0.2,1.1-1,2.7-1.9,4.7c-1.2,2.5-2.5,5.3-3.1,7.8
					c-0.9,4.3-3.4,9.3-7.1,14.1c-1.9,2.5-2.2,4.7-0.9,6.7c0.1,0.1,0.1,0.2,0.1,0.2c0,0.1,0.1,0.3,0.2,0.7c0.4,1.4,1.2,4.6,1.7,5.6
					c0.6,1.3,0.3,2.9-0.6,4.5c0.9,0.1,2,0.7,2.2,1.4c0.2,0.6,1,11.1,1,12.3l0,0.3l-5.3,0.3v-4.9c-0.5,1.2-1,2.8-1.1,3.3
					c-0.2,1.9-0.8,3.1-1.8,3.3c-1.2,0.3-40.8,0.6-45.3,0.6l-0.3,0L1093.6,814.6z"/>
				<path class="st4" d="M1082.3,210.2c3.7,0,7.7,0.3,12.1,0.7c12.2,1.1,21.1,10.4,25,17.7c3.9,7.3,3,16.3,2,22.4
					c-1,6.1-9.2,19.9-11,22.6c-1.9,2.7-2.7,12.8-2.7,12.8s4.4,4.4,6.2,7.5s2.5,5.8,5.6,6c0.3,0,0.6,0,1.1,0c3.3,0,11.1-0.3,18-0.3
					c3.4,0,6.5,0.1,8.8,0.3c7.7,0.8,12.8,19.3,16.4,28.9c3.6,9.7,3.9,15.2,3.2,19.3c-0.8,4-1.2,3.8-0.3,7.4
					c0.9,3.6-0.1,9.1-0.8,12.7c-0.7,3.6-0.3,11.4,0,19.3c0.3,7.9,0.5,21.4,0.3,27.3s-2,13.3-2,13.3s-0.9,5.5-1.1,8s-3,5.2-4.1,7.5
					c-1.1,2.3-6.8,19.7-7.4,22.1c-0.7,2.4-0.3,18.7-0.1,27.2s-5,32.5-5,34.1c0,1.5-2.1,0.6-3.3,2.6c-1.2,2-1.3,6.6-2,9.2
					c-0.7,2.7,0.3,5.4,1.2,8.1c0.9,2.7-0.9,3.9-0.5,5.6c0.4,1.6,0.6,3.7-0.3,6.2c-0.9,2.6-1,4.7-0.1,9.2c0.9,4.4,1.4,10.4,0.9,22.2
					c1.2,5.4-0.4,18.8-0.4,18.8s0.4,5.3,1.5,12.8s1.5,8,3.3,13.4c1.8,5.5,4.4,17.9,4.7,22c0.3,4.1,3.1,19.8,2.7,29
					c-0.4,9.2,0.4,25.2,0.9,39.3s1.5,33.3,1.2,35.6s-4,7.9-5,12.4c-0.9,4.5-3.7,9.6-7,13.9c-3.3,4.4-0.9,6.9-0.9,7.2
					c0.1,0.3,1.3,5,1.9,6.4c0.6,1.4,0.2,3.2-0.9,4.7c0.1,0,0.3-0.1,0.4-0.1c0.9,0,1.9,0.6,2.1,1.2c0.2,0.6,1,12.2,1,12.2l-4.6,0.3
					c0,0,0-5.5,0-5.9c0,0,0,0,0,0c-0.1,0-1.6,3.8-1.7,4.7c-0.1,0.9-0.3,2.7-1.5,3.1c-1.2,0.3-45.2,0.6-45.2,0.6l-0.9-6.9l2.1-1.1
					c0,0-0.9-2-0.7-4s4.4-5,5.9-6.3c1.5-1.4,4.4-6.4,4.4-11.1c-1.1,0-0.9-5.8-1.7-8.5c-0.9-2.7-1.5-10.3-1.1-14.4
					c0.3-4.1,6.2-9.8,7.4-11.7c1.1-1.9,4.4-11.4,4.4-11.4s-2.7-12.5-4.4-19.8c-1.6-7.3-1.3-7.9-1.5-10.8s1.5-37.7,1.5-37.7
					s-5.9-12.6-7.2-16.9s-6.1-26-9.5-36.1c-2-3.9-6.6-18.6-6.6-18.6l-5.9-8.8c0,0-7,13.8-11.3,23.9c-4.3,10.1-9.1,27.1-11,36.5
					c-1.9,9.3-2.9,10.9-6.2,13.1c0,2,1.5,6.4,1.9,7.9c0.4,1.5-0.2,8.7-0.9,13.8c-0.8,5-2.3,13.4-1.5,20.2s-1.6,13.9-2.7,17.9
					c-1,3.9-0.3,6.1,1.3,9.3s1.7,6.8,1.9,10.7c0.2,3.9,0,10.6-1.1,15.2s-7,8.1-7,8.1s1.8,6.7,1.3,10.2c-0.5,3.5-0.8,9.3-0.8,9.3
					s0.8,7,0.7,9.1c-0.1,2.1-2,4.1-2,4.1l3.5,0.5c0,0,0.5,6.7,0.7,8.7s0.3,4.1-0.9,4.1s-33.8,0-33.8,0v-3.8c0,0-5,1.5-10.2,2.9
					c-3.5,1-10.8,1.3-19.1,1.3c-4,0-8.3-0.1-12.5-0.2c-12.8-0.3-19.3-4-19.3-4l0.8-2.6c0,0,1.9-1.1,2.3-1.6c0.4-0.5,0.2-3.5,0.9-5
					c0.7-1.4,3.4-2,7.3-2c0.3,0,0.5,0,0.8,0c0.1,0,0.3,0,0.4,0c4.2,0,9.3-1.3,16.2-3.2c7.1-1.9,18.8-14.2,18.8-14.2s-0.7-2.4-0.8-4
					c-0.1-1.6,3.2-8.2,5.2-11.6c2.1-3.3,1.9-3.1,1.6-8.7c-0.3-5.6,0.3-9.6,0.7-13.2c0.4-3.6,3.5-10.5,3.9-12.4
					c0.3-1.9-2.6-29.3-3.5-46.7c-0.9-17.5,0.1-43,2-60.1c1.9-17,6.2-32.2,6.2-34.1c0-1.9-1.4-2.9-1.7-5c-0.3-2.1-0.2-21.5,1.1-31.1
					c1.3-9.6,6.7-23,7.7-33.1c-1.5-1-4.4-5.6-3.9-7.8s5.6-13,5.6-13s-6.2-10.5-6.2-12.3s1.4-17.3,3-24.8c1.6-7.5,10.4-54,12.8-70.1
					c2.4-16.1,11.1-29.9,11.1-29.9s2.4-18.7,4.6-23.2c2.2-4.5,4.9-6.6,14.7-15.4c-0.3-2,0.3-5.7,0.9-7.3c0.7-1.5,2.1-8.6,2.6-9.6
					c0.5-0.9,5-5.8,5-5.8s-3.9-8-5-9.9c-1.1-2-3.9-6-8-6.1c-4.2-0.1-6.8-1-8.3-2.6c-1.5-1.5-1.2-5.6-0.5-7.4c0.7-1.7-0.6-3-1.2-3.9
					c-0.6-0.9-0.9-2.3,0.2-3.4c-0.7-0.7-0.9-2.1-0.8-3.1c0.2-0.9,1.2-5.8,1.1-6.5s-2.4-2.3-3.3-2.3s-1.6-1-2.1-2.3
					c-0.4-0.9,2.3-2.6,3.1-3.9c0.8-1.3,5.1-8.5,5.1-8.5s-1.9-1.2-2.6-2.1c-0.7-0.9,1-3.9,2.2-6.4c1.2-2.5,3.1-8.6,4.4-11.4
					s5-8.8,10.4-14.3C1070.3,211.3,1075.7,210.2,1082.3,210.2 M1082.3,209.6c-7.8,0-12.7,1.5-15.9,4.8c-6.6,6.7-10.2,13.7-10.6,14.4
					c-0.7,1.5-1.6,3.9-2.5,6.2c-0.7,2.1-1.4,4-2,5.2c-0.2,0.4-0.4,0.7-0.5,1.1c-1.5,3.1-2.4,5-1.6,6c0.5,0.6,1.6,1.4,2.2,1.9
					c-1,1.7-4.2,6.9-4.8,8c-0.3,0.4-0.8,1-1.4,1.5c-1.1,1-2.1,1.9-1.7,2.9c0.3,0.7,1.1,2.7,2.7,2.7c0.6,0,2.5,1.3,2.7,1.8
					c0,0.5-0.7,3.9-0.9,5.2c-0.1,0.5-0.2,0.8-0.2,1c-0.2,0.9,0,2.3,0.6,3.2c-0.9,1.3-0.5,2.7,0.1,3.8c0.1,0.2,0.2,0.3,0.4,0.5
					c0.6,0.9,1.2,1.7,0.8,2.9c-0.7,1.8-1,6.2,0.6,8c1.7,1.7,4.6,2.7,8.7,2.8c3.7,0.1,6.3,3.6,7.5,5.8c1,1.7,4,7.9,4.8,9.5
					c-1.1,1.2-4.3,4.8-4.8,5.6c-0.3,0.5-0.7,2.1-1.2,4.6c-0.5,2-1,4.3-1.3,5.1c-0.7,1.6-1.2,5.2-1,7.3c-1,0.9-1.9,1.7-2.7,2.4
					c-7.6,6.8-9.9,8.8-11.9,12.9c-2.2,4.4-4.4,21.4-4.7,23.3c-0.9,1.4-8.9,14.7-11.1,30c-2.4,15.8-11,62.1-12.7,70
					c-1.6,7.6-3,23.3-3,24.9c0,1.8,4.7,10.1,6.1,12.4c-0.8,1.8-5,10.8-5.5,12.8c-0.5,2.4,2.1,6.7,3.8,8.2c-0.6,5.2-2.3,11.4-4,17.4
					c-1.6,5.6-3.1,10.8-3.7,15.4c-1.3,9.7-1.4,29.1-1.1,31.2c0.2,1.1,0.6,1.9,1,2.7c0.4,0.8,0.7,1.4,0.7,2.3c0,0.5-0.5,2.6-1.1,5.3
					c-1.4,6.4-3.9,17-5.2,28.7c-1.7,15.8-3,41.5-2,60.2c0.5,9,1.5,20.7,2.3,30.1c0.7,8.1,1.4,15.7,1.2,16.5
					c-0.1,0.7-0.7,2.1-1.3,3.8c-1,2.8-2.3,6.3-2.6,8.6l-0.1,0.6c-0.4,3.4-0.8,7.3-0.6,12.7l0.1,1.2c0.2,4.3,0.2,4.3-1.6,7.2
					c-1.9,3-5.4,10-5.3,11.9c0.1,1.3,0.5,3.1,0.7,3.8c-1.7,1.8-12,12.1-18.3,13.8c-6.6,1.8-11.9,3.1-16.1,3.1c-0.1,0-0.2,0-0.4,0
					c-0.3,0-0.5,0-0.8,0c-4.4,0-7,0.8-7.8,2.3c-0.5,0.9-0.6,2.3-0.7,3.5c0,0.5-0.1,1.3-0.2,1.4c-0.2,0.3-1.4,1-2.1,1.5l-0.2,0.1
					l-0.1,0.2l-0.8,2.6l-0.1,0.5l0.4,0.2c0.3,0.2,6.8,3.8,19.6,4.1c4.7,0.1,8.8,0.2,12.5,0.2c9.8,0,16.1-0.4,19.3-1.3
					c3.9-1.1,7.8-2.2,9.4-2.7v2.9v0.6h0.6h33.8c0.4,0,0.8-0.2,1.1-0.5c0.8-0.8,0.6-2.5,0.5-4.3c-0.2-2.1-0.7-8.7-0.7-8.7l0-0.5
					l-0.5-0.1l-2.4-0.4c0.6-0.9,1.4-2.2,1.4-3.6c0.1-2-0.6-8.4-0.7-9.1c0-0.6,0.3-5.9,0.8-9.2c0.5-3.1-0.8-8.4-1.2-10
					c1.4-0.9,5.9-4.1,6.9-8.3c1.2-5,1.3-12,1.1-15.4c-0.2-3.9-0.3-7.5-1.9-10.9c-1.6-3.3-2.2-5.3-1.2-8.9c0.1-0.5,0.3-1.1,0.5-1.7
					c1.1-4.1,2.9-10.4,2.2-16.4c-0.7-6,0.5-13.4,1.3-18.3c0.1-0.6,0.2-1.2,0.3-1.7c0.7-4.7,1.4-12.4,0.9-14
					c-0.1-0.2-0.1-0.5-0.2-0.8c-0.5-1.6-1.5-4.9-1.6-6.6c3.2-2.2,4.3-4,6.1-13.3c1.9-9.6,6.8-26.5,10.9-36.3
					c3.6-8.4,9.1-19.6,10.8-22.9l5.3,7.9c0.4,1.3,4.7,14.7,6.6,18.5c2.3,6.7,5.1,18.4,7.2,27c1,4.3,1.9,7.6,2.3,9.1
					c1.2,4.1,6.5,15.3,7.2,16.8c-0.1,2.8-1.6,34.8-1.4,37.6c0,0.6,0,1.1,0.1,1.5c0.1,1.9,0.1,3.5,1.4,9.4c1.5,6.7,4,18.1,4.3,19.6
					c-0.4,1.3-3.3,9.4-4.3,11.1c-0.3,0.5-1,1.3-1.7,2.2c-2.2,2.6-5.4,6.6-5.7,9.7c-0.3,4.2,0.2,11.8,1.1,14.6
					c0.3,1.1,0.5,2.8,0.6,4.3c0.2,2.2,0.4,3.8,1,4.4c-0.2,4.4-2.8,9.1-4.1,10.3c-0.3,0.3-0.7,0.6-1.2,1c-2,1.6-4.8,3.9-4.9,5.8
					c-0.1,1.5,0.3,3,0.5,3.8l-1.6,0.9l-0.4,0.2l0.1,0.4l0.9,6.9l0.1,0.5l0.6,0c7.4,0,44.1-0.3,45.3-0.6c1.1-0.3,1.8-1.5,2-3.6
					c0-0.2,0.2-0.9,0.5-1.6v2.8v0.7l0.7,0l4.6-0.3l0.6,0l0-0.6c-0.2-2.7-0.9-11.7-1-12.4c-0.2-0.7-1.1-1.3-2-1.5
					c0.8-1.5,1-3.1,0.4-4.4c-0.5-1-1.3-4.2-1.7-5.6c-0.1-0.4-0.2-0.7-0.2-0.8c0-0.1-0.1-0.2-0.2-0.3c-1.2-1.8-0.9-4,0.9-6.3
					c3.7-4.8,6.2-9.9,7.1-14.2c0.5-2.5,1.9-5.2,3-7.7c0.9-2,1.8-3.6,1.9-4.8c0.2-1.7-0.2-11-0.6-21.8c-0.2-4.7-0.4-9.6-0.6-13.9
					c-0.1-2.9-0.2-5.9-0.3-8.9c-0.5-11.3-0.9-23.1-0.6-30.4c0.3-6.9-1.1-17-2-23.8c-0.3-2.4-0.6-4.2-0.7-5.3
					c-0.3-4.2-2.9-16.5-4.7-22.1c-0.3-1-0.6-1.8-0.9-2.6c-1.1-3.3-1.6-4.7-2.4-10.7c-1-6.9-1.4-12-1.4-12.7
					c0.1-1.1,1.6-13.5,0.4-18.9c0.4-10.8,0.1-17.3-1-22.3c-0.9-4.5-0.7-6.5,0.1-8.8c0.8-2.3,0.8-4.4,0.3-6.6c-0.1-0.5,0-1,0.3-1.6
					c0.4-1,0.8-2.2,0.2-4l-0.2-0.8c-0.8-2.5-1.5-4.8-0.9-7c0.3-1,0.4-2.3,0.6-3.6c0.3-2,0.6-4.4,1.3-5.5c0.5-0.8,1.1-1,1.8-1.2
					c0.7-0.2,1.6-0.5,1.6-1.7c0-0.4,0.5-2.8,1-5.7c1.6-8.3,4.2-22.2,4-28.4c-0.3-11.2-0.5-25,0.1-27c0.7-2.4,6.3-19.7,7.4-22
					c0.4-0.8,1-1.6,1.6-2.5c1.2-1.7,2.4-3.4,2.5-5.2c0.2-2.5,1.1-7.9,1.1-8c0,0,1.8-7.5,2-13.4c0.2-5.9,0-19.4-0.3-27.3l0-0.1
					c-0.3-7.6-0.7-15.5,0-19c0.8-4.4,1.6-9.4,0.8-12.9c-0.6-2.6-0.5-3-0.1-4.9c0.1-0.6,0.3-1.3,0.5-2.2c0.9-4.9-0.1-11.2-3.2-19.6
					c-0.6-1.5-1.1-3.2-1.8-5c-3.7-10.5-8.3-23.7-15.2-24.4c-2.1-0.2-5-0.3-8.9-0.3c-4.1,0-8.5,0.1-12.1,0.2
					c-2.4,0.1-4.6,0.1-5.9,0.1c-0.4,0-0.8,0-1.1,0c-2.2-0.1-3-1.8-4.2-4.1c-0.3-0.5-0.5-1-0.8-1.6c-1.5-2.8-5.2-6.5-6.1-7.5
					c0.2-3,1.1-10.2,2.5-12.2c1.8-2.6,10.1-16.6,11.1-22.8c1.6-9.7,1-17.1-2-22.8c-4-7.6-13.1-16.9-25.5-18
					C1089.7,209.9,1085.8,209.6,1082.3,209.6L1082.3,209.6z"/>
			</g>
			<g>
				<path class="st1" d="M1216.6,821.7c-2,0-5.2-0.3-9-0.7c-5.4-0.5-12.2-1.2-18.3-1.2c-1.3,0-2.6,0-3.8,0.1
					c-3.3,0.2-6.3,0.3-8.9,0.3c-8.8,0-13.3-1-13.5-3.2c-0.2-1.9,0.4-4,1.6-5.6c0.9-1.2,2.7-2.7,5.7-3.1c5.1-0.6,15.3-4.8,16.3-5.2
					c0.7-1,9.2-12.3,11.3-17.1c2-4.6,3.6-22.8,3.8-25.7c-0.7-0.1-1.4-0.8-1.6-4c-0.2-4.4-6.4-85.4-6.5-86.2c0,0-3.2-8.4-3.8-13.7
					c-6.6-9.1-9.1-21.3-10.8-29.4l-0.3-1.7c-1.5-7.3-8.2-59.8-8.9-65.3c-0.6,0.3-1.7,0.7-3.1,0.7c-1.2,0-2.4-0.3-3.5-0.9l-0.1-0.1
					l0-0.2c0-0.6-3.6-58.1-4.1-69.1c-0.3-5.4,2.3-15.5,5-26.2c3-11.7,6-23.8,6-31.7c0-9.3-3.3-26.3-5.9-40c-1.7-8.9-3-15.9-3-18.4
					c0-6.7,19.2-41.5,24.3-47.5c4.8-5.8,13-12.2,14.2-13.1c-0.3-1.8-2.8-15.3-4.3-17.6c-1.3-2.1-5.2-6.1-10.1-6.1
					c-0.1,0-0.3,0-0.4,0c-0.2,0-0.4,0-0.6,0c-2.2,0-4.4-0.5-6.1-1.5c-1.6-0.9-2.6-2-2.6-2.9c0-0.9,0.4-2.2,0.9-3.5
					c0.4-1.1,0.7-2.3,0.7-2.9c0-0.7-0.5-1.7-1-2.6c-0.4-0.8-0.8-1.5-0.8-2c0-0.9,1.1-1.8,1.7-2.1c-0.6-0.8-1.9-2.8-1.7-3.7
					c0.2-0.8,1.5-3.8,1.8-4.5c-0.8-1.6-2.2-4-2.8-4.3c-0.6-0.3-1.2-1.2-1.2-2.2c0-0.5,0.3-1.5,1.6-2c1.9-0.8,5.9-4.6,7-5.7
					c-0.5-0.4-1.4-1.4-1.5-3.1l-0.1-0.7l0.6,0.4c0.3,0.3,0.6,0.4,0.9,0.4c0.2,0,0.3,0,0.3-0.1l-0.1-2.4c-0.3-0.6-1.2-1.9-1.4-2.2
					c-0.4-0.4,0.1-0.9,0.5-1.5c0.3-0.4,0.7-0.8,0.8-1.1l0.1-0.3c2.8-7.1,5.6-12.2,8.1-14.8c0-0.5,0-0.9,0-1.3
					c-0.1-2.2,0.2-3.7,6-5.8c0.9-0.3,1.8-0.7,2.6-1c5.3-2,7.7-2.9,12.8-3c1.3,0,2.4-0.1,3.4-0.1c5.7,0,6,0.5,6.1,0.8
					c0.1,0.3,0.3,0.5,0.5,0.6c0.5-0.4,2-1.2,4-1.2c1.1,0,2.2,0.3,3.3,0.9c0.4,0.2,0.8,0.5,1.3,0.7c3.9,2.2,10.6,5.9,15.1,11.7
					c5.1,6.5,7.3,10.9,11.2,22.4c2.7,7.8,4.6,14.2,5.7,18.1c0.6,1.9,1,3.2,1.2,3.9c0.2,0.7,0.9,1.5,1.8,2.5c1.7,2,4,4.8,5.1,9
					l0.7,2.7c1.8,7.3,4.9,19.6,6.4,24c1.7,4.9,3.9,19,4.6,23.5c0.4,3.1,1.5,5.6,2.5,7.8c0.3,0.6,0.5,1.1,0.7,1.6
					c1.2,2.9,1.4,7.4,1.4,9.2c0.1,2.7,4.6,23.7,7.1,28.4l0.2,0.4l-0.5,0.3c-0.1-0.1-0.2-0.3-0.3-0.4c-1.2-2.1-2.1-3.6-2.7-4.6
					c0.9,2.6,2.3,6.4,3.8,7.9l1.1,1.1l-1.5-0.6c-1.5-0.6-2.8-1.5-3.9-2.4c1.5,2.4,3.5,5.9,3.6,8.8l0,0.8l-0.6-0.5
					c-2.3-2.3-3.3-3.6-3.8-4.3c-0.5,1.1-1.5,3.5-2.3,4.7c-0.2,0.3-0.4,0.5-0.6,0.6c-0.1,0-0.1,0.2,0,0.5c0.2,0.8,1.4,2,3.6,2
					c0.4,0,0.7,0,1.1-0.1l0.2,0.6c-2.8,1-4.5,1.2-5.4,1.2c-0.2,0-0.4,0-0.5,0c0.2,1.4,0.7,5.8,1,7.2l0.2,0.8l-0.7-0.5
					c-4.2-3.2-5.9-6-6.2-6.5l-1.8-1.3c-1,2.3-6.3,14.8-7.5,18.4c-0.5,1.5-2.1,4.6-3.8,7.8c-2.6,4.9-5.8,11.1-5.7,12.8
					c0.1,1.8,8.9,18,15.3,29.9c3.7,6.8,6.8,12.6,7.8,14.6l0.6,1.4c2.6,5.5,5.5,11.7,2.9,15.5c-2.7,3.8-17.2,15.3-18.7,16.6
					c-0.1,0.8-0.3,5.4,0.2,8.1c0.6,3-8.2,6.5-9.9,7.2c-0.2,2.2-1.1,14.7-3.5,16.7c1.5,5.2,1.3,10.8-0.3,13.8c-0.5,0.8-1,1.4-1.7,1.7
					l0.4,1.7c2.6,11.8,4,17.7,1.5,26c-0.9,2.9-1.7,5.3-2.4,7.4c-1.3,4.1-2.2,6.7-2.4,9.4c-0.2,3.9-0.4,12.9-0.4,13.9
					c0.6,1,6,9.6,7.5,13.8c1.6,4.5,9,49.6,10.1,57.9c0.8,5.6,0.8,30.5,0.8,48.6c0,9.9,0,18.5,0.2,19.2c0,0.2,0,0.4-0.2,0.6
					c-0.7,0.9-4.3,1.4-10.7,1.4c-1.1,0-1.9,0-2.4,0c0,3.9,0.1,13.4,1.3,15.1c1.5,2.1,6.4,12.6,7.2,17.9c0.5,3.2-1.7,6.5-3.7,9.7
					c-1.4,2.1-2.7,4.2-3.2,6c-1.2,4.7-4.1,11.1-4.1,11.2l-0.1,0.2h-7.2l-1-9.3c-1.8,1.3-8.4,6.1-10.5,8.4
					C1231.8,821.7,1222.3,821.7,1216.6,821.7z"/>
				<path class="st4" d="M1214.9,213.8c3.6,0,5.6,0.2,5.8,0.6c0.2,0.5,0.7,0.9,0.7,0.9s1.7-1.3,4-1.3c1,0,2,0.2,3.1,0.9
					c3.8,2.2,11.3,6,16.3,12.4c5.1,6.4,7.3,10.8,11.2,22.3c3.9,11.5,6.1,19.8,6.9,21.9s5.2,5.1,6.8,11.5c1.6,6.4,5.3,21.7,7,26.7
					c1.7,5,4,19.5,4.5,23.5c0.6,4,2.2,7,3.2,9.5c1,2.5,1.4,6.3,1.4,9c0.1,2.6,4.5,23.6,7.1,28.5c-3.8-6.6-4-6.9-4-6.9c0,0,0,0,0,0
					s2.3,8.2,4.7,10.5c-3.5-1.4-6.1-4.5-6.1-4.5s5.2,6.5,5.5,11.3c-3.7-3.6-4-4.8-4-4.8s-1.5,3.8-2.5,5.2c-0.2,0.3-0.3,0.5-0.5,0.5
					c-0.7,0.5,0.4,3.1,3.8,3.1c0.4,0,0.8,0,1.2-0.1c-2.8,1-4.4,1.2-5.3,1.2c-0.6,0-0.9-0.1-0.9-0.1s0.7,6,1,7.6
					c-4.5-3.4-6.1-6.5-6.1-6.5l-2.2-1.6c0,0-6.3,14.8-7.7,18.7c-1.4,3.9-9.7,17.8-9.5,20.7c0.2,3,20.5,39.1,23.1,44.6
					c2.6,5.5,6.3,12.6,3.6,16.6c-2.8,3.9-18.7,16.6-18.7,16.6s-0.4,5.3,0.2,8.3c0.6,3-9.9,6.9-9.9,6.9s-1,15.4-3.6,16.8
					c2.2,7.5,0.8,14.6-2,15.4c3,13.2,4.5,19.1,2,27.8c-2.6,8.7-4.5,12.8-4.7,17s-0.4,14-0.4,14s5.9,9.5,7.5,13.8
					c1.6,4.3,8.9,48.9,10.1,57.8c1.2,8.9,0.6,65.9,1,67.9c0.3,1.4-6.6,1.6-10.5,1.6c-1.6,0-2.7,0-2.7,0s-0.2,13.4,1.4,15.6
					s6.3,12.6,7.1,17.8s-5.7,10.8-6.9,15.6c-1.2,4.7-4.1,11.1-4.1,11.1h-6.7l-1-9.5c0,0-8.5,6.1-11,8.7s-12,2.6-17.4,2.6
					c-4.9,0-16.9-1.9-27.3-1.9c-1.3,0-2.6,0-3.8,0.1c-3,0.2-6.1,0.3-8.9,0.3c-7.3,0-12.9-0.7-13.2-2.9c-0.4-3,1.6-7.7,7.1-8.3
					c5.5-0.6,16.4-5.3,16.4-5.3s9.1-12.2,11.4-17.2c2.2-5.1,3.9-26.2,3.9-26.2s-0.1,0.1-0.3,0.1c-0.4,0-1.2-0.4-1.4-3.7
					c-0.2-4.5-6.5-86.2-6.5-86.2s-3.2-8.5-3.9-13.8c-7.1-9.7-9.5-23.3-11.2-31s-8.9-65.7-8.9-65.7s-1.4,0.9-3.4,0.9
					c-1,0-2.1-0.2-3.3-0.9c0,0-3.6-58-4.1-69.1c-0.5-11,11-42.6,11-57.9c0-15.3-8.9-52.1-8.9-58.4c0-6.3,18.9-41,24.2-47.3
					c5.3-6.3,14.3-13.2,14.3-13.2s-2.8-15.3-4.4-17.9c-1.6-2.5-5.5-6.2-10.4-6.2c-0.1,0-0.3,0-0.4,0c-0.2,0-0.4,0-0.6,0
					c-4.8,0-8.4-2.6-8.4-4.1c0-1.6,1.6-5.1,1.6-6.4c0-1.4-1.8-3.7-1.8-4.6c0-0.9,1.8-2.1,1.8-2.1s-2.1-2.8-1.8-3.7
					c0.2-0.9,1.8-4.6,1.8-4.6s-2.1-4.1-3-4.6s-1.8-2.8,0.5-3.7c2.3-0.9,7.4-6,7.4-6s-1.5-0.9-1.7-3.1c0.5,0.4,0.8,0.5,1.1,0.5
					c0.4,0,0.7-0.2,0.7-0.2l-0.1-2.6c0,0-1.1-1.9-1.5-2.3c-0.3-0.4,1-1.3,1.4-2.3c0.4-1,4.1-10.9,8.2-15.1c0.3-2.7-1.4-4.3,5.9-7
					s9.6-3.8,15.2-4C1212.7,213.8,1213.9,213.8,1214.9,213.8 M1293.1,380.2c0.1,0.1,0.2,0.3,0.2,0.4
					C1293.2,380.5,1293.2,380.3,1293.1,380.2 M1214.9,213.1c-1,0-2.2,0-3.4,0.1c-5.1,0.2-7.5,1.1-12.9,3.1c-0.8,0.3-1.6,0.6-2.6,1
					c-5.9,2.2-6.3,3.8-6.2,6.1c0,0.4,0,0.8,0,1.2c-2.5,2.7-5.3,7.8-8.1,14.8l-0.1,0.3c-0.1,0.3-0.5,0.7-0.8,1
					c-0.5,0.6-1.1,1.2-0.6,1.9c0.2,0.2,0.9,1.3,1.3,2l0,2.1c0,0,0,0,0,0c-0.1,0-0.4-0.1-0.7-0.3l-1.1-0.9l0.1,1.4
					c0.1,1.6,0.8,2.5,1.4,3.1c-1.7,1.6-5,4.7-6.7,5.4c-1.5,0.6-1.8,1.7-1.8,2.3c0,1,0.5,2.1,1.3,2.5c0.4,0.2,1.6,2.2,2.6,4.1
					c-0.4,0.9-1.5,3.6-1.8,4.4c-0.2,0.9,0.8,2.6,1.6,3.7c-0.7,0.5-1.6,1.3-1.6,2.2c0,0.6,0.4,1.3,0.9,2.2c0.4,0.8,1,1.8,1,2.4
					c0,0.6-0.4,1.7-0.7,2.8c-0.4,1.3-0.9,2.7-0.9,3.6c0,2.1,4.1,4.8,9,4.8c0.2,0,0.4,0,0.6,0c0.1,0,0.3,0,0.4,0
					c4.8,0,8.5,3.9,9.8,5.9c1.2,1.9,3.4,12.8,4.2,17.3c-1.6,1.3-9.4,7.4-14.1,13c-5.1,6.1-24.3,41-24.3,47.7c0,2.5,1.3,9.5,3,18.4
					c2.6,13.7,5.9,30.7,5.9,40c0,7.8-3.1,19.9-6,31.6c-2.7,10.7-5.3,20.9-5,26.3c0.5,10.9,4.1,68.5,4.1,69.1l0,0.3l0.3,0.2
					c1.2,0.7,2.4,1,3.7,1c1.2,0,2.2-0.3,2.9-0.6c1,7.5,7.3,57.7,8.8,64.9c0.1,0.5,0.2,1.1,0.3,1.7c1.7,8.1,4.2,20.3,10.8,29.5
					c0.6,5.1,3.5,12.8,3.8,13.7c0.2,3.1,6.3,81.8,6.5,86.1c0.1,2.5,0.6,3.9,1.6,4.2c-0.3,3.6-1.8,20.9-3.7,25.3
					c-2.1,4.7-10.2,15.6-11.2,17c-1.3,0.6-11.1,4.6-16.1,5.2c-3.1,0.3-5,1.9-5.9,3.2c-1.3,1.7-2,3.9-1.7,5.8
					c0.2,1.5,1.8,3.5,13.8,3.5c2.6,0,5.6-0.1,8.9-0.3c1.2-0.1,2.4-0.1,3.7-0.1c6.1,0,12.8,0.7,18.3,1.2c3.7,0.4,7,0.7,9,0.7
					c5.7,0,15.3,0,17.9-2.8c1.9-2.1,7.8-6.4,10-8l0.9,8.5l0.1,0.6h0.6h6.7h0.4l0.2-0.4c0.1-0.3,2.9-6.5,4.1-11.2
					c0.5-1.8,1.8-3.8,3.1-5.9c2.1-3.2,4.3-6.6,3.8-9.9c-0.8-5.4-5.6-15.9-7.2-18c-1-1.4-1.3-9.4-1.3-14.6c0.5,0,1.2,0,2.1,0
					c9.7,0,10.6-1.1,10.9-1.5c0.2-0.3,0.3-0.6,0.2-0.9c-0.1-0.7-0.1-9.3-0.2-19.1c0-18.2-0.1-43-0.8-48.7
					c-1.1-8.2-8.5-53.4-10.1-57.9c-1.5-4.1-6.6-12.5-7.5-13.8c0-1.4,0.2-10,0.4-13.8c0.1-2.7,1-5.3,2.3-9.4c0.7-2.1,1.5-4.5,2.4-7.5
					c2.5-8.4,1.1-14.3-1.5-26.1l-0.3-1.5c0.6-0.3,1.1-0.9,1.6-1.7c1.4-2.5,2-7.8,0.4-13.8c2.3-2.4,3.2-13.4,3.4-16.6
					c2.4-1,10.5-4.3,9.9-7.5c-0.5-2.5-0.3-6.7-0.2-7.8c2-1.6,16-12.8,18.6-16.5c2.7-3.9-0.2-10.2-2.9-15.8c-0.2-0.5-0.4-0.9-0.6-1.4
					c-0.9-2-4.1-7.8-7.8-14.6c-6-11.1-15.1-28-15.3-29.7c-0.1-1.6,3.2-8,5.6-12.6c1.8-3.4,3.3-6.3,3.8-7.8c1.2-3.4,6.1-15,7.4-18
					l1.4,1c0.4,0.6,2.1,3.5,6.2,6.6l1.3,1l-0.3-1.6c-0.3-1.2-0.7-5.1-0.9-6.8c0.1,0,0.1,0,0.2,0c0.9,0,2.6-0.2,5.5-1.2l-0.3-1.2
					c-0.4,0.1-0.7,0.1-1.1,0.1c-1.9,0-2.7-0.9-3-1.2c-0.3-0.3-0.3-0.6-0.3-0.7c0.2-0.1,0.4-0.3,0.6-0.7c0.6-1,1.5-3,2.1-4.2
					c0.6,0.8,1.6,2.1,3.5,3.9l1.1,1.1l-0.1-1.6c-0.1-2.4-1.5-5.3-2.8-7.5c0.8,0.5,1.7,1,2.6,1.4l3,1.2l-2.3-2.2
					c-0.9-0.9-1.8-2.6-2.5-4.5c0.3,0.5,0.6,1,0.9,1.6c0.1,0.2,0.2,0.3,0.3,0.5l1.1-0.6l-0.2-0.4c-2.5-4.7-7-25.5-7-28.2
					c0-1.8-0.3-6.3-1.5-9.3c-0.2-0.5-0.5-1.1-0.7-1.7c-1-2.2-2-4.6-2.5-7.7c-0.6-4.5-2.9-18.6-4.6-23.6c-1.5-4.4-4.5-16.6-6.4-24
					l-0.7-2.7c-1.1-4.3-3.4-7.1-5.1-9.1c-0.8-1-1.5-1.8-1.7-2.4c-0.2-0.7-0.6-2-1.2-3.9c-1.1-3.8-3-10.3-5.7-18.1
					c-3.9-11.6-6.1-16-11.3-22.5c-4.6-5.9-11.2-9.6-15.2-11.8c-0.5-0.3-0.9-0.5-1.3-0.7c-1.1-0.6-2.2-0.9-3.4-0.9
					c-1.8,0-3.3,0.7-3.9,1.1c-0.1-0.1-0.2-0.2-0.2-0.3C1221,213.7,1220.8,213.1,1214.9,213.1L1214.9,213.1z"/>
			</g>
		</g>
	</g>
</g>
</svg>
