<?xml version="1.0" encoding="utf-8"?>
<!-- Generator: Adobe Illustrator 24.0.0, SVG Export Plug-In . SVG Version: 6.00 Build 0)  -->
<svg version="1.1" id="Layer_1" xmlns="http://www.w3.org/2000/svg" xmlns:xlink="http://www.w3.org/1999/xlink" x="0px" y="0px"
	 viewBox="0 0 1200 900" style="enable-background:new 0 0 1200 900;" xml:space="preserve">
<style type="text/css">
	.st0{clip-path:url(#SVGID_3_);}
	.st1{stroke:#FFFFFF;stroke-width:0.2903;stroke-linecap:round;stroke-linejoin:round;stroke-miterlimit:10;}
	.st2{fill:#FFFFFF;stroke:#231F20;stroke-width:0.2903;stroke-linecap:round;stroke-linejoin:round;stroke-miterlimit:10;}
	.st3{stroke:#FFFFFF;stroke-width:0.2903;stroke-miterlimit:10;}
	.st4{fill:none;stroke:#FFFFFF;stroke-width:0.2903;stroke-linecap:round;stroke-linejoin:round;stroke-miterlimit:10;}
	.st5{fill:none;stroke:#FFFFFF;stroke-width:0.5807;stroke-linecap:round;stroke-linejoin:round;stroke-miterlimit:10;}
	.st6{fill:none;stroke:#FFFFFF;stroke-width:0.1976;stroke-linecap:round;stroke-linejoin:round;stroke-miterlimit:10;}
	.st7{fill:none;stroke:#FFFFFF;stroke-width:0.2075;stroke-linecap:round;stroke-linejoin:round;stroke-miterlimit:10;}
	.st8{fill:none;stroke:#FFFFFF;stroke-width:0.2188;stroke-linecap:round;stroke-linejoin:round;stroke-miterlimit:10;}
	.st9{fill:none;stroke:#FFFFFF;stroke-width:0.2418;stroke-linecap:round;stroke-linejoin:round;stroke-miterlimit:10;}
	.st10{fill:none;stroke:#FFFFFF;stroke-width:0.2591;stroke-linecap:round;stroke-linejoin:round;stroke-miterlimit:10;}
	.st11{fill:#F1F2F2;}
	.st12{fill:#FFFFFF;}
	.st13{fill:#ED1C24;}
</style>
<g>
	<g>
		<rect id="SVGID_1_" width="1200" height="900"/>
	</g>
	<g>
		<defs>
			<rect id="SVGID_2_" x="42.9" y="-28.4" width="1114.1" height="928.4"/>
		</defs>
		<clipPath id="SVGID_3_">
			<use xlink:href="#SVGID_2_"  style="overflow:visible;"/>
		</clipPath>
		<g class="st0">
			<g>
				<rect x="292.3" width="749.6" height="657.5"/>
				<path class="st1" d="M729.9,313.1c0,0,219.2,64.2,219.2,63.5c0-0.8,36.4-319.5,36.4-319.5l-251.2,44.6L729.9,313.1z"/>
				<polygon class="st2" points="336.9,351.6 329.8,631.2 918.8,435.7 602.8,313.1 				"/>
				<polygon class="st3" points="410.8,483.6 413.3,506.7 420.8,504 418.8,489.5 602.8,444.3 604.8,462.3 610.4,459.7 610.4,435.7 
									"/>
				<path class="st3" d="M590.8,344.3c3.6,2.2,16.2,8.1,16.9,9.7c0.7,1.6,2.3,79.3,2.6,81.7c0.3,2.3-3.2,2.6-12.7,5.5
					c-9.7,2.9-180,40.6-183.6,42.2c-3.6,1.6-4.2-2.5-5-5.4c-0.8-2.9-23-120-24.3-122.4s-1.6-8.8-2.3-13.7
					c-0.7-4.9-3.7-47.6-3.9-52.5s2.6-5.8,6.5-6.8c3.9-1,14.9-1.6,19.8-1.6c4.9,0,11.3,4.2,13.6,8.1c8.8,15.6,39.8,57.7,41.3,59.3
					c1.6,1.6,9.4,14.6,9.4,14.6s97.3-16.6,105.1-17.5C581.7,344.6,587.5,342.3,590.8,344.3z"/>
				<g>
					<path class="st4" d="M475.9,376.7c0,0,125.2-20.5,126.9-20.8"/>
					<path class="st4" d="M478,465c0.3-1-5.2-86.1-6.2-88.5c-1-2.3-13.3-27.6-16.6-30.7c-3.3-3.2-45.2-6.8-56.2,2"/>
					<path class="st5" d="M382.3,285.1c0,0,15,47.3,18.8,56.2"/>
					<path class="st4" d="M400.9,329c0.6-0.6,34.8-4.5,42.6,0"/>
					<path class="st6" d="M385.9,287.7c0.4-0.4,23.8-3,29.1,0"/>
					<path class="st7" d="M388.5,295.6c0.4-0.4,24.9-3.2,30.5,0"/>
					<path class="st8" d="M391.6,302.5c0.4-0.4,26.3-3.3,32.1,0"/>
					<path class="st9" d="M393,310c0.5-0.5,29.1-3.7,35.6,0"/>
					<path class="st10" d="M396.1,317.7c0.5-0.5,31.1-4,38.1,0"/>
				</g>
				<path class="st1" d="M423.3,297.4c0.2,0.3,79.5-4.9,79.5-4.9l11.8,6.3l-85.5,7.2L423.3,297.4z"/>
				<path class="st1" d="M514.5,298.7v30.5c0,0-65.5,5.4-65.5,5.2s-20-28.4-20-28.4L514.5,298.7z"/>
				<path class="st2" d="M447.5,324.9c0-5.2,2.3-30.2,14-37.9c11.8-7.7,21.7-11,22-11.8c0.2-0.7,1.6-3.2,1.6-3.8s-4.1-12.9-4.5-15.2
					c-0.4-2.3,1.4-19,11.3-21.4c10-2.3,24.2,3.1,24.7,7.7c0,2.5,0,2.5,0,2.5s5,6.8,5.6,7.5c0.6,0.7,0,4.3,0,4.3s4.1,5.6,4.6,6.3
					c0.6,0.7-2.9,3.1-2.9,3.1s-0.4,4.6-0.6,5.2c-0.2,0.6,0.4,6.4-0.4,8.2c-0.7,1.9-7.1,1.8-8.4,1.3c-1.3-0.5-6.8,1.5-7.7,3.3
					c-0.9,1.9-4.1,8.1-4.1,8.1s5.9,8.2,5.8,10s-0.2,14.3,0,15.3c0.2,1,5.9,6.7,4.8,11.3c7.9,0.4,13.1,0.1,17.9-2
					c4.8-2.2,12-9.4,12.2-10.1s0.4-6.9,0.9-9.4c0.6-2.5,6.3-7.1,7.3-8.7c0.9-1.7,2.3,1.2,1.9,2.2c0,0-1.6,3.2-1.6,3.1
					s5.4-4.7,6.1-5.6c0.6-0.8,1.7-1.9,3.2-2.6c1.6-0.6,4.6-1.7,5.2-1.5c0.6,0.3,1.1,1.1,1.1,1.4c0,0.4-0.6,0.8-0.6,0.8
					s2.5-0.8,3-0.6c0.5,0.4,1,1.4,1,1.4l-0.6,2.2c0,0,1.5,0.2,2,0.9c0.5,0.6,0.7,1.3,0.5,1.7c-0.4,0.4-1,1.1-1,1.1s0.5,0.8,0.5,1.2
					s-0.7,1.7-0.9,2c-0.2,0.4-5,5.3-5.5,5.7c-0.5,0.5-10.4,11-10.7,11.2s-6.2,4.9-6.2,4.9l-6.9,7.1c0,0,6.9-1.5,8.7-2
					c1.9-0.6,7.1-2.6,11.1,2.7c4,5.3,7,9.9,7,9.9l-100.3,16.7l-22.5-32.2L447.5,324.9z"/>
				<path class="st2" d="M753.4,255.7c0,0,146.1,20.1,146.1,18.1s11-125.7,11-125.7l-153.7,11L753.4,255.7z"/>
				<path class="st1" d="M821,262c0-0.3-0.9-9.7-1.2-10.7c-0.3-1-3-4.2-3.1-4.6c-0.2-0.5,0-1,0.2-1.6c0.1-0.6,2.9-3.2,3.3-3.4
					c0.4-0.3,8-4.9,9.1-5.9c1-0.9,3.7-3.8,4.3-4.6c0.6-0.9,1.6-3.4,1.6-4.3s-1.9-11.1-2-11.8c-0.2-0.6-0.7-9.8-0.6-11
					c0.1-1.1,0.1-7.7,0.7-8.8c0.6-1,0.7-1.5,0.7-1.5s4.1,1.1,6.6,0.4c2.5-0.6,5.7-1.8,6.1-1.2c0.4,0.6,0.6,2.8,1.1,4
					c0.6,1.2,4.5,7.8,4.6,8.4c0.2,0.6,0.6,1.9,0.1,1.9c-0.5,0-1,1-0.8,1.4c0.2,0.4,0.5,0.7,0.1,1.5c-0.4,0.7-0.9,1.6-0.7,2
					c0.2,0.5,0.3,3.2,0.2,3.7c-0.1,0.6-0.7,1.5-0.3,1.6s1.2-0.3,1.2-0.3s1.2,0.6,1.6,0.4c0.4-0.2,1.1-0.8,1.5-0.8
					c0.4,0,1.4-0.1,1.6-0.4c0.2-0.3,1-0.6,1.3-0.6c0.3-0.2,1-0.5,1.2-0.8c0.2-0.4-0.2-3.2-0.2-3.8c0-0.5-0.3-3.1-0.2-3.4
					s-0.3-1.3-0.3-1.3s-0.8,0-0.8-0.2s-0.9-6.4-1.1-8.6c-0.2-2.2-2.2-6.7-2.9-8.1c-0.6-1.5-2-3.2-2.2-3.7c-0.2-0.5-2.1-0.5-2.7-0.6
					c-0.6-0.1-7.6-1.3-9.2-1.4c-1.5-0.2-3.2-0.4-3.2-0.4s-0.9-7.2-6.9-7s-11.1,2.4-13.6,2.2c1.4-1.4,1.4-1.4,1.4-1.4
					s-0.2-3.2-0.3-4.2s-0.1-9.5-5.4-11.5c-5.4-2.1-10.7-2.7-14.8,2.6c-2.8,3.6-1.7,7.1-1.7,7.1s-1.4,0.7-0.7,2.8
					c0.6,2,0.9,2.6,0.9,2.6s-0.7,0-0.2,1.1c0.6,1.1,1.9,4.8,2.2,5.5c0.3,0.6,1.4,1.4,2,1.4c-2.7,0.6-4.4,1.4-5.9,3.2
					c-1.6,1.8-3,3.9-2.6,5.6s2.2,6,2.2,6s0.6,1.9,0.2,2.6s-1.7,4.1-1.8,5.4c-0.2,1.3-0.6,3.9-0.6,3.9s-2.3-0.2-1.8,3.8
					c0.6,4,2.5,5.3,4.4,5c1.9-0.3,3.9-1.2,4.1-4.1c4-1.8,5.8-3.2,6.7-3.8c0.8-0.6,3.4-2.9,3.4-2.9s2.7,6,2.7,6.8s-0.3,3.5-0.3,3.5
					s-3.4,1.3-4.3,4.5c-1,0.3-1.2,0.1-3.2,3.1c-1.9,3-5.1,6.7-3.8,8.4c-0.4,1.4-1,2.9-1,2.9s-4,5.1-4.2,7.4
					c-0.2,2.3,1.5,4.6,1.5,4.6s0.7,8.5,1.1,8.6c0.4,0,7.2,0.3,7.2,0.3s1.4-3.5,1.2-4.2c-0.2-0.6-0.9-5.7-0.9-5.7l1.9-3.3
					c0,0,3.1,5.5,4.4,7c1.4,1.5,4.4,8.1,4.5,8C814.4,261.2,821,262,821,262z"/>
			</g>
			<g>
				<g>
					<path d="M354.1,562.7c0,0-39.2,3.4-41.5,2.9c-2.3-0.6-16.3,20.9-19.1,21.7c-2.9,0.8-72.6,16.1-79.8,18
						c-7.1,2-11.8,39.2-12.2,59c-0.3,19.8-1.7,72.4,0.8,83.3c2.6,10.9,8.9,31.5,14,36.6s19.5,13.7,23.2,13.7s6.3,0.6,6.3,0.6
						s7.6,43.5,8.1,84.3c0.4,29.2-7.4,60.7-7.4,60.7s82.7,32.1,222.4-6.5c-1-20.3-5.9-32.3-6.5-46.3c-1.4-35.3,2.6-56.2,2.6-56.2
						s20.4-3.5,26.9-18.8c6.6-15.1,13.5-63.8,11.7-78.1c-1.7-14.3-4.1-116.8-6.4-129.1s-30.8-16.6-47.8-21.8
						c-13.4-4.2-39.7-10.2-43.2-11.3c-3.4-1.1-8.4-10.4-11.6-15.2C391.7,555.4,370.7,562.1,354.1,562.7z"/>
					<g>
						<path class="st11" d="M311.7,566.9c0,0-7.8-2.7-6,21.2c0.4,4.6,29.2,122.9,54.7,182.7c-16.1-33.7-33.1-82.6-40.4-111.9
							c-5.6-22.6-18.6-19-23-36.2c-4.1-15.8-6.1-28.2-6.4-29.3c-6.4,2.8-5.1,12.3-5.5,11.7c-0.5-0.6-2.9-14.4-11.7-12.9
							C264.6,593.6,217,605,217,605s18.8,17,22.1,25c3.8,9.5,8.4,32.9,8.4,32.9s-7.9-25.8-10.9-31.9c-1.5-3-21-22.2-24-21.4
							c-3,0.8-3.9,29.7-4.3,38.2c-0.1,2.5,9.7,32.2,16.6,42.7c7,10.5,8.8,11.1,8.8,11.1s-10.5-8.6-14.7-14.7
							c-4.2-6.1-9.7-11.1-9.7-10.1s-0.2,25.3-0.5,30.9s2.3,20.6,5.5,26.3s8.4,14.3,8.4,14.3s-11.3-13.5-13-14.7s-4.6-9-4.6-9
							l-2,15.7l10.9,38.4l8.6,6.3l5.6,9.1c0,0-14.1-8.8-15.8-12.2s-4.5-12.6-6.7-19.8c-2.2-7.1-6.1-18.3-7-34.7
							c-0.8-16.4,2.5-62.2,2.3-72.9s4.8-24,6.7-32.4c1.9-8.4-0.1-18.5,8.4-21.8s79.3-17.5,79.7-17.9c8.7-12.3,10.1-13.5,12.6-15.7
							c0.8-0.7,1.9-1.1,3-1.1l4.3,0.1L311.7,566.9z"/>
						<path class="st11" d="M222.8,787.7l-2.9-12.3c0,0-6.8-12.6-9.7-23.9c0.4,7.4,5.6,21.6,5.6,21.6l1.9,9.4L222.8,787.7z"/>
						<path class="st11" d="M220.4,780.4c-0.4-0.6-5.1-19.5-6.6-23.6s-2.6-8.8-2.6-8.8s10.1,23.5,10.7,25.1
							C222.3,774.7,220.4,780.4,220.4,780.4z"/>
					</g>
					<g>
						<path class="st11" d="M387.6,559.2c0,0,10.5,1.5,9.8,25.4c-1.1,37.5-7.5,77.7-30.5,138.1c18.9-22.7,48.6-134.1,49.2-136.8
							c6.1,2.8,4.9,12.3,5.3,11.7c0.4-0.6,2.8-14.4,11.2-12.9c8.4,1.5,54.3,12.9,54.3,12.9s-13,17-16.1,25
							c-3.7,9.5-13.4,32.9-13.4,32.9s12.9-25.8,15.8-31.9c1.4-3,15-22.2,17.8-21.4c2.8,0.8,3,62.9,3.3,71.4
							c0.1,2.5-9.3,32.2-16,42.7c-6.7,10.5-8.4,11.1-8.4,11.1s10.1-8.6,14.1-14.7c4-6.1,9.3-11.1,9.3-10.1s0.2,25.3,0.4,30.9
							s-1,32.8-4,38.4s-8.1,14.3-8.1,14.3s10.9-13.5,12.5-14.7c1.7-1.2,4.5-9,4.5-9l1.9,15.8l-10.5,38.4l-8.4,6.3l-5.3,9.1
							c0,0,13.6-8.8,15.1-12.2c1.6-3.3,4.3-12.6,6.5-19.8c2.2-7.1,5.8-18.3,6.7-34.7c0.8-16.4-3.2-107.6-3-118.4
							c0.2-10.7,0.6-24-1.1-32.4c-1.9-8.4-5-18.5-13.1-21.8c-8.1-3.3-81.5-18.8-81.9-19.2c-10-14.6-7.1-11.3-9.7-13.6
							c-0.7-0.7-3.2-1.9-4.3-1.9l-4.9,0.3L387.6,559.2z"/>
						<path class="st11" d="M481.7,825.8l2.7-12.3c0,0,6.5-12.6,9.4-23.9c-0.4,7.4-5.4,21.6-5.4,21.6l-1.8,9.4L481.7,825.8z"/>
						<path class="st11" d="M484.1,818.6c0.4-0.6,4.8-19.5,6.3-23.6c1.4-4.1,2.5-8.8,2.5-8.8s-9.7,23.5-10.2,25.1
							C482.3,812.8,484.1,818.6,484.1,818.6z"/>
					</g>
					<g>
						<path class="st11" d="M314.8,554.3c0.1,0.4,0.2,1.7,0.2,13.6c-2.4-0.2-6.1,1.3-6.1,5.5c0,21.5,20.6,86.2,21.1,85
							c5.3-14.4,10.4-28.4,23.9-35c27.5,13.4,28.8,34.7,28.8,34.7s11.3-48.8,7.7-93.6c-0.1-1.6,0.1-4.8-2.3-5.3
							c-1.6-6.1-4.1-12.5-4.5-20.5C382.6,521.9,314.8,554.3,314.8,554.3z"/>
						<path d="M327.2,554.4c0.1,0.9,5.4,31.7,3.5,39.9c-0.6,2.9-13.6-15-13.6-14.4c-0.2,2.4,12.5,27.4,36.9,42.8
							c18.8-19.3,34.4-46,34.4-46s-10.6,14.5-11.1,9.3c-1.3-12.5-3.6-35.7-4.1-47.4C372.7,522,327.2,554.4,327.2,554.4z"/>
					</g>
					<g>
						<path class="st11" d="M295.5,517.7c0.1-1.1-3.1-18.8-4.9-22.5s-3.7-13-5.6-16.1c-1.9-3.1,0.6-19.8,1.1-20.9s4.2-4.4,6.1-4.4
							c1.9,0,3.2-10.1,3.3-12.3c0.1-2.1,18-8,20.4-11c2.4-3,13.8-4.8,14.4-4.3c0.6,0.6,7.2-2.1,9.4-1c2.1,1.1,10.2,3.2,11.6,4.8
							c1.4,1.6,8.4,3.2,8.4,5.3s4.8,9.4,4.8,9.4s8.3,1,10.4,2.1c2.1,1.1,6.1,13.1,7.4,16.1s-0.3,27.5,1.9,28c2.1,0.6,1,15.7,1,15.7
							l-87,12.3"/>
						<path d="M300.3,515.7c-0.6-0.6-3.1-5.4-3.6-6.2c-0.5-0.8-0.8-4-1.2-5.4c-0.4-1.4-1.2-3.6-1.4-5.2c-0.2-1.6,0.8-4.4-0.1-4.6
							c-1-0.3-2.1-2.2-2.2-2.7c-0.1-0.5,0.5-4.1,0.1-4.4s-1.2-3.1-1.6-3.9c-0.4-0.7-1.4-4.3-1.1-5c0.3-0.7,0.5-3.2,0.1-4
							c-0.4-0.7,0-3.3,0-4.5c0-1.1,0.1-4.8,0.4-5.5c0.3-0.6,0.6-4.4,0.6-4.4l2.6-1.1c0,0,3.4-2.6,4.1-2.3c0.6,0.3,3.6,1.9,4.1,1.9
							s-4.2-5.2-3.6-5.6c0.6-0.4-2.3-1-2.3-1l3-9.9l3.2-2.8c0,0,9-3.9,9.9-4.1c0.9-0.2,9.1-6.5,9.1-6.5s5.9-1.5,9.9-1.3
							c1.3,0,5.8-0.6,6.5-1.8c0.6-1.1,9.1,6.1,9.8,5.8s5.4,3.3,5.4,3.3s6,0.2,6.5,1.4c0.6,1.8,3.6,9.2,2.2,7.2c0,0,3.7,4.5,4.6,5.8
							c0.3,0.5,5.5-0.7,6.7-0.3c1.2,0.5,4,2.2,4.4,3.6c0.4,1.4,1.2,3.4,1.2,3.4s0,4.8,1.2,5.6c1.2,0.7,2.1,6.9,2.1,6.9l0.3,6.7
							c0,0,0.1,5.5,0.1,6.1s1.2,8.9,1.2,8.9l0.3,2.9l-5.1,4L300.3,515.7"/>
						<path d="M342.1,562.5c4.3,0,16.7-2.4,24.9-8.8c8.2-6.4,16.1-21.2,16.3-25.9c0.4-4.7,0.9-6.9,0.9-6.9s7.6,0.6,9-9
							c1.4-9.6,0.9-25.9-4-25.7c-6.8,0.3-5.3,9.7-5.3,9.7l-5.1,1.2c0,0-2-15.7-3.1-20.8S370,465,365.6,463s3.1-6.8-5.5-11.6
							c-8.5-4.7-20.4-6.1-30-1.7c-7.5,1-15,2-20.8,5.5c-5.8,3.4-9.8,9.8-9.8,18.1c0,8.2,3.1,10.4,0,11.8c-3.1,1.4,0.2,24.4,0.5,28.1
							l-3.9-0.5c0,0-1.9-7.1-6.2-7.1c-6.8,0,0.4,20,2.1,24.8c1.7,4.7,4.1,8.5,11.9,7.1c2,9.8,4.3,17.6,18.8,21.4
							C331.9,561.5,337.9,562.5,342.1,562.5z"/>
						<path class="st11" d="M316.6,556c0,0,6.8,2.4,13.6,2.5c-2.7-6.5-6.1-9-7.9-11c-1.8-1.9-1.6-5.8-1.1-10.2
							c-2.2-4.2-2.2-9.5,2-16.2c-1.1-1.1-0.6-1.9-0.9-4.5c-0.2-2.7-2.7,0.5-2.4,3.8c0.2,3.3-3.5,6.7-7.1,7.3
							c-3.5,0.6-4.5-8.4-2.2-12.1c2.2-3.6,2.5-8.1-1.2-10.1c-3.7-2-3.5-5.8-2.3-8.9c2.3-6.2,3.1-4.8,9-9.1c1.6-1.1-0.3-5-6.1-2.9
							c-2.7,1-9.4,7.1-8.4,5.5c11.2-18.8,29.7-7.8,29.2-10.7c-0.1-0.9,0.1-4.8,0.4-9.1c0.6-9.9-6.8-23.2-19.3-16.6
							c-4.5,2.3-13.6,12.9-12.3,19.3c1.3,6.4,2.6,9.4-0.3,11.1c-2.9,1.8,0.5,23.8,0,29.3c-0.5,5.6,0.9,12.4,3.8,19.1
							C306,539.5,301.2,548.9,316.6,556z"/>
						<path class="st11" d="M371.2,549.5c0,0-4.4,5.9-14.5,9.7c6.2-5,6.6-4.5,7.3-8.7c1.8-10.9,1.1-12.4,1.8-13.7
							c1.2-2.4,0-5.9-1.6-10.1c1-4.6-0.7-8.7-6.6-14.1c0.7-1.4,0.6-2.9,0.1-5.6c-0.5-2.7,2.7-0.3,3.3,3s5.2,5.5,8.7,5.2
							c3.6-0.3,2.1-9.3-1-12.3c-3.1-3-4.5-7.1-1.5-10c3.1-2.9,1.9-6.5,0-9.2c-1.9-2.7-6.2-9-3.3-8.6c2.9,0.4,2,0.3,3.6-0.8
							s-10.5-11.7-10.9-14.6c-0.3-2.9,0.7-6.9-2.3-10.8c-3.2-3.9,10.8,2.9,11.1,9.4c0.4,6.6,0.9,5.1,5.5,8.4
							c4.6,3.3,7.8,21.4,8.3,31.4c0.3,5.6,2.3,7.1,3.5,14.3C385.1,526,385.1,531,371.2,549.5z"/>
						<path class="st11" d="M384.2,520.8c0,0,7.2,0,7.7-10.2c0.3-5.5-0.6-18.8-1.5-21c-1.5-3.2-5-0.3-6.4,1.4
							c-0.7,0.8,1.3-7.6,6.2-5.5c4.9,2.1,3.5,14.7,3.7,21.2C394.4,518.4,387.9,521.7,384.2,520.8z"/>
						<path class="st11" d="M303.9,535.2c-7.3,3.2-8.6-0.2-10.5-4.9c-0.5-1.2,0.6-2.3,1.5-3.2v0.1l3.1-2.4c0,0,0-3.2-3.1-1.4
							c0,0-1.2-2.4-2.2-6.8c-1-4.3,0-7.4,0-7.4c0.6,0.9,1.1,2,1.4,2.8c0.6,1.6,4.1,6,4,4.2c-0.1-1-1.9-3.5-3-7.1
							c0.3,0.2,0.1-0.3-0.4-1c-0.5-0.8-0.9-1.4-1.5-1.7c-1.5-1.4-3.7-2.4-5.7-0.6c-4,3.5,1.1,15,2.9,21.3
							c3.2,11.3,10.4,12.4,13.6,10.5C303.9,537.6,306.1,534.3,303.9,535.2z M288.6,509.8c0.2-1.3,0.8-1.9,1.8-2c0.1,0,0.2,0,0.4,0
							l0,0c0.2,0,0.4,0,0.5,0c-0.3,1.9-0.8,4.7-0.9,7.1c-0.2,2.9,2.5,7.9,3.5,9.7c-0.2,0.6-0.8,1.6-1.4,2.3
							C290.5,520.7,288.3,511.7,288.6,509.8z"/>
						<path class="st11" d="M325.1,551.1c-0.6,2.3,0.7,5.3,2.8,6.6c5.1,3.2,15,4.1,15,4.1s-9.8-2.9-9.5-11.4
							c0.2-5.4,10.4-5.8,10.4-5.8c3.2-0.6,11.4,0.9,13.3,3.1c-9.8-8.9-14.1-5.6-16.2-8.6c-2.1-3.1-1.2-5.8-1.2-5.8s3.1,0.8,5.9-4.2
							c0.3-2.7-0.2-1.6-5-2.3c-3-0.5-5.6-0.3-8.2,1.7c-4,3.1-4.3,4.3-5.7,4.5c-1.4,0.2-2.8-0.6-3.4-2.5c-0.6-1.9,0.5,2.7,4.2,0.2
							c3.7-2.5,6.9-8.5,8.4-8.3c1.6,0.3-0.9-7.1-0.9-7.1s-3.4-0.6-4.5-2.3c-3.4,7.4-4.5,7-5.5,9.4c-1,2.5-5.8,8.7-0.8,13.2
							C322.8,542.5,323.1,548.3,325.1,551.1z"/>
						<path class="st11" d="M321.2,528.4c5-15.5,8.4-11.6,8.4-14.8c0-3.2,1.6-7.8,5-10.3c-2.2,4.4-4.1,6.9-2.5,7.5
							c1.9-1.9,2.8-2.5,5.3-1.2c2.5,1.2,2.7-3.1,2.9-4.7c0.2-1.7-1.7-5.5-2.4-5.9s-0.7-0.6-1.7-5.4c-0.9-4.7-2.6-9.5-2.3-10.3
							c0.3-0.7-1.9-1.4-1.9,0.6c0,2,1.4,13.2-4.5,16.2c-5.9,3.1-8.9,1.9-8.9,1.9s2.6-3.5,2.3-4.7c-5.2,1.5-10.6,0.6-11.8-0.6
							c-4.7,5.2-9.2,6.3-9,13.4c0.2,7.1,5,30.8,10.3,35.7c5.2,4.9,8.9,7.1,11.6,7.2c1.4,0.1-0.6-3-1.5-7.8
							C319.4,540.1,319.5,533.4,321.2,528.4z"/>
						<path class="st11" d="M367.2,487l-3.9-2.5c0,0-0.5,1.9-5.8,4.1C357.5,488.6,365.7,489.5,367.2,487z"/>
						<path class="st11" d="M366.4,483.3c0,0-3-6.8-9-5.7c-5.9,1.1-12.5,2-12.5,2s16.6-4.5,19.1-4.5c0,0,4.3,4,5.1,5.3
							C369.9,481.6,366.4,483.3,366.4,483.3z"/>
						<path class="st11" d="M332.7,479.3c-1-0.3-1.3-3.2-1.3-4.6c0-1.4-0.4-7.3-0.4-6.9c0.1,1.9,2.2,2.5,2.5,2.8
							c0.4,0.3,3.1,8.5,2.3,8.9C335.3,479.9,332.7,479.3,332.7,479.3z"/>
					</g>
					<g>
						<g>
							<g>
								<g>
									<g>
										<path d="M379.8,473c-0.2-0.8-0.5-1.6-0.6-1.9c-0.6-1.1-1.7-1.1-6.4-0.8c-2.9,0.2-6.6,0.6-10.2,0.8h-0.3
											c-7.8,0.6-14.2,2.8-16.8,3.9c-2.3,1-5.1,3.3-5.4,4.5c0,0.1,0,0.3,0,0.4c-1.2,0.6-2.7,0.9-4.5,0.9c-0.3,0-0.8,0-1.3-0.1
											c0-0.2-0.1-0.3-0.1-0.5c-0.6-1-3.8-2.6-6.3-3.1c-2.8-0.5-9.6-0.9-17.3,0.4l-0.3,0.1c-3.6,0.6-7.3,1.2-10.1,1.8
											c-4.6,0.8-5.8,1.2-6,2.4c-0.1,0.4-0.2,1.2-0.2,2c0,0.6,0.1,2.5,1.8,2.8c0.1,0,0.2,0,0.4,0c0.9,0.1,1,0.2,1.2,0.5
											c0.1,0.3,0.3,0.8,0.5,1.4c1.3,3.8,2.7,7.7,3.9,9.1c0.3,0.4,0.5,0.6,0.7,1c1,1.4,2.2,3.1,5.5,3.9c2.5,0.6,6.3,0.9,9.9,0.5
											c1.5-0.2,3-0.5,4.4-1c4.7-1.7,8.4-5.1,9.3-8.8c0.3-1.1,0.6-2.8,0.9-4.5c0.3-1.6,0.7-3.6,1.1-5.1c0.6,0.2,1.4,0.2,2,0.1
											c0.6,0,1.3-0.1,1.9-0.2c1.5-0.2,2.9-0.6,4-1.1c0.7,1.4,1.7,3.3,2.3,4.8c0.7,1.7,1.6,3.2,2,4.2c1.8,3.3,6.1,5.8,11.1,6.2
											c1.4,0.1,3,0.1,4.5-0.1c3.6-0.5,7.2-1.7,9.5-3c3-1.7,3.7-3.5,4.4-5.1c0.2-0.4,0.3-0.7,0.5-1.1c0.8-1.7,1.2-5.8,1.5-9.8
											c0.1-0.6,0.1-1.3,0.1-1.5c0-0.3,0.2-0.4,1-0.7c0.1,0,0.2-0.1,0.3-0.1C380.3,475.4,379.9,473.7,379.8,473z"/>
									</g>
								</g>
							</g>
						</g>
						<path class="st12" d="M295,484c-0.2-1.6,0.3-2.8,4-3.6c3.7-0.7,16.5-3.4,24.1-3s10,3.2,10,3.2s-7-2.6-17.1-1.4
							c-10.1,1.2-17,2.1-16.4,4.6c0.6,2.5,3.1,11.1,5.1,14.5c1.8,2.9,11.7,4.1,17.1,1.6c0,0-3.5,2.6-12.7,1.9
							c-6.4-0.5-7.8-7.3-9.2-11.3c-1.9-5.4-1.9-5.6-3.2-5.4C295.4,485.4,295.2,485.6,295,484z"/>
						<path class="st12" d="M360.5,472c0,0,16.1-1.7,17.3-1.3c1.2,0.4,1.9,3.9,1.7,4.1s-2.1,1.1-2.3,1.3c-0.3,0.2-0.6,11.3-3.9,15.4
							c1.5-5.2,2.4-15.1,2.1-16.6c-0.3-1.5-0.5-2.9-3-3C370,471.9,360.5,472,360.5,472z"/>
						<path class="st12" d="M342.9,477.8c0,0-2,1.4-0.2,5.5c1.9,4.1,3.3,12.5,13.7,13.6c0,0-6.7-0.8-10-7.8
							C343,482.1,342.9,477.8,342.9,477.8z"/>
					</g>
					<path class="st13" d="M354.9,626.1c0,0,6.4,6.8,8.9,12.7c2.5,5.8-2,15.1-2.9,17.6c-0.8,2.5-10.3,1.3-12.3,0.6
						c-2-0.7-5.3-14.6-5.4-15.9C343.1,639.9,351.2,627.4,354.9,626.1z"/>
					<path class="st13" d="M347.6,660.7c0,0,4.3,2.8,12.7-0.5c5.3,29.9,6.3,35.7,6.3,35.7S353,731,353.1,730.4
						c0.2-0.6-11-34.2-11-34.2L347.6,660.7z"/>
					<g>
						<path class="st11" d="M298.9,817.8c0,0-12.7-1.3-14.1-2.1c-1.4-0.8-12.4-12.1-14.9-17.4c-2.4-5.3-3.6-11-4.7-13.2
							c-1.1-2.1-1.7-1.7-1.9,0.5c-0.3,2.1-5,13.5-5.6,15.4c-0.6,1.9-2.8,6-8,4.6c-4.7,4.7-8.7,2.7-9.1,0.2
							c-0.5-2.5,1.3-25.3,2.1-29.5c0.8-4.4,20.7-16.7,23.3-18.2c2.5-1.6,27.3,1.6,29.5,3s2.4,6.7,3.3,9.6c1,2.8,8.3,13.8,8.4,14.3
							C307.5,785.4,298.9,817.8,298.9,817.8z"/>
						<path d="M241.8,805.7c0,0,2.1-27.5,3.2-29.5c1.1-2.1,18.9-15.2,19.9-16c1-0.7,2.7-2.5,7.5-2.4c4.9,0.2,21.2,3.9,21.7,4.9
							c0.6,1,1.7,5,2.1,6.1c-2.2-2.1-3.6-3.5-3.6-3.5s4.9,7.4,5.8,8.8c1,1.4,2.8,6.1,5,7.1c2.2,1,6.1,5.8,6.4,7.4
							c0.3,1.7-7.5,24.2-11,25.3c-3.5,1-2.1,2.4-9,1.4c-6.2-0.9-5-1.3-8.8-5c-4-4-8.6-7.9-10.1-11.6c-1.6-3.6-5.3-11.6-6.6-11.7
							c-1.3-0.2-5.2,10.1-6.9,14c-1.7,3.9-3.5,6.4-8,4.6C246.8,808.6,242.2,809.4,241.8,805.7z"/>
					</g>
					<g>
						<path class="st11" d="M340.5,639.5c0,0-10.2-18.8-12.4-20.4c-2.2-1.5-2.6-5.3-3.4-9.8c-0.7-4.5-1.6-13.2-1.2-17
							c0.4-3.8-2.6-7.5-1-9c1.5-1.5,7.7,0.1,8.8,3.5c1.1,3.4,1.6,10.1,1.6,11.2s2.8,3.8,2.8,3.8s0.7-15.1,0-20.1
							c-1-7.1-1.9-20.9-1.9-20.9l0.1-18.4l1.1-7.9c0,0,1.7-3.6,5.7-3.8c3.4-0.2,4.4,4.2,4.5,9.8c0.1,3.4,1.9,20.8,1.9,20.8
							s3.1,13.7,4.3,15.6c1.1,1.9,6.7,6.3,8.5,3.2c1.9-3.1,7.9-7.1,10.6-7.1s5.6,2.6,6.8,5.7c1.1,3.1,1.2,11.5,1.2,11.5
							s5.7-0.8,8.3,1.8c1.4,1.3,1.5,7.9,1.5,7.9s6.3,0.5,7.1,2.6c1.9,4.7-0.4,11.3-3.4,13.9c0.7,9.1-7.5,30.5-10.2,33.2
							c-2.6,2.6-14.8,7.1-17.4,9.1C361.7,660.7,340.5,639.5,340.5,639.5z"/>
						<path d="M368.3,653.5c3.3-3.2,12.1-13.6,14-17.4c1.9-3.7,3.7-17.7,3.9-19.3c-2.3,1.2,0.9-1.4,1.9-4.1c0.9-2.7-1.8-7.8-0.6-8.4
							c1.2-0.6,6.8-1.4,6.8-1.4s2.3-2.7-7.2-2.7c-9.6,0-12.8-1.6-14.4-0.2c-1.6,1.4-3.9,2.3-3.9,2.3s-0.2-7.4,5.5-7.8
							s13.6,0.6,13.6,0.6s-0.9-5.7-6.4-4.8c-5.5,0.7-14.2,0.7-14.2,0.7s7.1-7.6,7.9-9.7c0.4-1,3.6,2.4,4.6,4.4
							c-3.2-8.9-1.8-10.3-7.7-12c-5.6-1.7-7.3,3.6-12.3,7.5c-1.9,1.6-3.9,2.3-5.5,2.8c-2,0.6-8-17.2-8.2-20
							c-0.4-4.2-1.2-17.5-1.6-20.1c-0.5-3.3-0.2-11-1.4-12s-2.5-1.6-4,0c-1.4,1.5-2.1,3.2-2.6,8.4c-0.9,11.6-1.9,11.7-1.6,16
							c0.3,3.8,0.8,19.4,1.7,22.5c1.7,5.9-0.1,9.7,1,13.9c1.8,6.8,0,4.7,0.1,6.8c0.1,3.2-0.1,1.3-0.1,1.5c0,0.6,0.5,1.7-1.3,1.9
							c-1.8,0.2-3.7-3.3-3.9-5.5c-0.2-2.1-0.4-9.7-1.9-10.7c-1.6-1-1.2,0-1.2,1.1c0,1.9,1.2,8.9,1.4,12.6s5.1,24.3,5.7,26.6
							c0.6,2.3,2.8,4.5,4.9,6.5c2.1,1.9,3.6,7.3,5.6,9.5C348.8,645.3,368.3,653.5,368.3,653.5z"/>
						<path d="M331.3,623.3c0,0-3.8-6.7-4.6-7.7s-2.2-11.7-2.5-14c-0.3-2.3-0.2-11.8-0.6-13c-0.4-1.2-3.1-6.2,2.3-5.6
							c-2.9-1.6-4.9,0.6-4.2,2.7c0.6,2,1.7,9.2,1.8,12.7c0.2,3.5,1,14.7,1.9,16.9C326.3,617.6,331.3,623.3,331.3,623.3z"/>
						<path d="M325.6,584.7c0,0,1.8,1.2,1.9,1.4c0.2,0.2,0.8,4.4,0.7,4.7c-0.1,0.4-0.5,0.7-0.5,0.7l-2.1-1c0,0,1.3,0.6,1.4-0.5
							C327.2,589.2,326.8,585.2,325.6,584.7z"/>
						<path d="M330.1,592.8c-0.6,0.6-1.7,0.8-1.6,1.7c0.2,0.9,1.3,5.4,1.3,6.3s0.2,3.9,0.2,4.6c0,0.7,0.1,3.7-0.2,5.3
							c-0.2,1.6,0.6,4.2,1.2,5.1c0.6,0.9,2.9,5.8,2.9,5.8l2.2,4.6l2,1.9l0.6-6.5l-6.4-20.1L330.1,592.8z"/>
						<path class="st11" d="M340,538.7c0,0-1.9,0.3-2.3,0.6c0-3.6,0.6-6.9,0.9-7.1s2.1-1.1,2.7-0.9l-0.3,7.5L340,538.7L340,538.7z"
							/>
						<path class="st11" d="M336.1,543.5c0-0.2,0.9-3.8,3.1-3.9c2.1-0.1,0.1,1-0.6,2.3c-0.6,1.3-1.4,8.2-0.6,8.5
							c0.7,0.4,1.9,1.3,1.9,1.3s-3.6,1.8-3.7,3.1c-0.1,1.3,1.9,23.5,2.6,23.4c4.6-0.5,1,2.4-0.7,5.8c-1.8,3.4-1.4,1.5-1.4,1.5
							s-1.1-17.2-1.4-19.1c-0.3-1.9-0.6-12.4-0.5-14.2C334.8,550.5,336.1,543.5,336.1,543.5z"/>
					</g>
					<g>
						<path class="st11" d="M361.3,635c7,4.3,20,19.7,21.6,21.6s-34.3,56.1-40.6,66.1c-6.3,10-43,39.8-53.2,47.6
							c-10.2,7.8-42.1,26.3-49.8,27.7c-7.8,1.5-15-6-17.5-11.4c-2.4-5.4-9.9-36.2-8.3-44c1.7-7.8,21.6-30.6,31.8-39.6
							c10.2-9,84-68.1,84-68.1s2.2-1.2,4.4,0.9C337.7,628.7,349.9,628,361.3,635z"/>
						<path d="M377.3,664.4c0,0-7-14.4-42-27.1c-2.7-1-5.3-0.9-7.6,1.9c-2.3,2.9-15.3,14.8-15.3,14.8s-1.4,0.6,2.1-0.3
							c4.9-1.2,9.9-4.9,9.9-4.9s-15.1,11.7-17,12.8c-1.9,1.1-12.6,6.4-15.3,8.3c-2.7,1.9-33.4,26.6-35.5,29.4c-2,2.9-7,11.2-7,11.2
							s27.7-21.7,37.2-23.6c-12.3,7.3-28.9,19.5-42.6,30.2c-3.6,2.8-6.9-0.4-9.9,2.1c-6.4,5.2-11.3,14.2-13.8,17.5
							c-6.5,8.8-3.1,19-2,24.4c1,5.4,2.9,9.3,6.2,8.1c3.3-1.2,14.3,3.5,14.3,3.5s-16.8,8.7-15.3,14.3s5.4,8.7,8.1,10.1
							c2.7,1.5,6.6,3.7,11.8,0.6s46-30.1,47.1-32.6c1-2.5,23.4-25.9,23.4-25.9s-8.1,14.5-7.2,14.1c0.8-0.4,30.6-28.4,32.6-31.3
							c0.9-1.4,8.9-14.2,16.8-26.8c0.4-0.6-30.1,19.5-29.7,18.8c0.6-0.8,33.6-25.4,34.3-26.3C368.5,678.6,377.3,664.4,377.3,664.4z"
							/>
						<g>
							<path class="st11" d="M359.9,659.7c0-1.9,1.6-3.6,3.5-3.6c-0.4-0.2-0.8-0.3-1.3-0.3c-2,0-3.7,1.7-3.7,3.7
								c0,2,1.7,3.7,3.7,3.7h0.1C360.9,662.6,359.9,661.3,359.9,659.7z"/>
							<path class="st11" d="M354.2,667.3c0-1.9,1.6-3.6,3.5-3.6c-0.4-0.2-0.8-0.3-1.3-0.3c-2,0-3.7,1.7-3.7,3.7s1.7,3.7,3.7,3.7
								h0.1C355.2,670.3,354.2,668.9,354.2,667.3z"/>
							<path class="st11" d="M342.7,682.8c0-1.9,1.6-3.6,3.5-3.6c-0.4-0.2-0.8-0.3-1.3-0.3c-2,0-3.7,1.7-3.7,3.7
								c0,2,1.7,3.7,3.7,3.7h0.1C343.8,685.6,342.7,684.3,342.7,682.8z"/>
							<path class="st11" d="M348.5,675c0-1.9,1.6-3.6,3.5-3.6c-0.4-0.2-0.8-0.3-1.3-0.3c-2,0-3.7,1.7-3.7,3.7c0,2,1.7,3.7,3.7,3.7
								h0.1C349.4,677.9,348.5,676.6,348.5,675z"/>
						</g>
					</g>
					<path class="st11" d="M439.5,635.9c0,0-3.8,58.8-3.5,63.8c0.3,5.1-1.9,66.4-0.6,65.1c1.3-1.3,17.5-9.2,34.6-9.2
						c-13-2.9-29.5,1.3-29.5,1.3s-2.9-42.2-0.6-48.6c2.2-6.3,13-21.6,24.1-25.1c-10.1,1.3-24.8,12.3-23.8,12.1
						c0.9-0.3,5.1-28.2,7.6-34.9c2.5-6.7,4.1-9.6,4.1-9.6s-12.7,25.1-12.3,28.9S439.5,635.9,439.5,635.9z"/>
					<path class="st11" d="M494.1,648.6c0.9,1.3,2.5,25.4,2.9,30.5c0.3,5.1-14.3,25.7-14.3,25.7s15.2-15.2,15.6-13.9
						c0.3,1.3,5.4,23.5,5.8,22.6c0.3-0.9-2.2-31.8-3.5-37.4C499.2,670.1,494.1,648.6,494.1,648.6z"/>
					<path class="st12" d="M508.7,741.5c1.6,8.3-2.5,25.7-2.2,30.8c0.3,5.1-7,27.3-7,27.3l4.7-26.6c0,0-6.7,3.5-5.8,3.5
						s6-9.6,7-14.3C506.5,757.4,508.7,741.5,508.7,741.5z"/>
					<g>
						<path class="st11" d="M479.8,774.6c-2.9-2.9-21.3-12.3-25.7-11.4c-4.5,0.9-18.8,1.6-18.8,1.6l-55.2,13.9
							c0,0-12.7-0.9-14.6-0.9s-46.3-2.9-46.3-2.9l-2.2,4.5l-15.4-0.2c0,0-10.7,22.1-3.6,43.1c6.7,0,15.4,1.7,15.4,1.7
							s0.5,8.4,2.4,18c-2.2-13.9,3.8-58.1,5.4-60.9c1.6-2.9,5.1-2.5,5.1-2.5s22.6-0.3,25.1,2.2c2.5,2.5,3.5,16.8,9.6,16.8
							c6,0,21.9,5.1,21.9,5.1l-19.7-9.6c0,0-6.3-9.6-5.1-9.8c1.3-0.3,23.8-0.3,25.4-0.3c1.6,0,39.1,12.1,39.1,12.1L391,780.4
							c0,0,47.9-12.3,48.9-13c0.9-0.6,22.6,0.9,22.6,0.9L479.8,774.6z"/>
						<path class="st12" d="M478.4,831.5c0,0-30.6,6.2-38.9,4.9s-47.6-14.9-47.6-14.9s42.2,11.4,47,11.8
							C443.6,833.6,478.4,831.5,478.4,831.5z"/>
						<path class="st12" d="M317.4,841.2c2,0.3,81.9-4.7,87.6-5.7c5.8-0.9,26.9-1.9,26.9-1.9l10.1,2.9L317.4,841.2z"/>
						<g>
							<path class="st11" d="M351.8,829.3c1.7-1,3.9-0.6,5,1.1c-0.1-0.4-0.2-0.8-0.5-1.2c-1-1.8-3.3-2.2-5-1.2c-1.8,1-2.2,3.3-1.2,5
								l0.1,0.1C349.9,831.7,350.4,830.2,351.8,829.3z"/>
							<path class="st11" d="M342.3,828.4c1.7-1,3.9-0.6,5,1.1c-0.1-0.4-0.2-0.8-0.5-1.2c-1-1.8-3.3-2.2-5-1.2c-1.8,1-2.2,3.3-1.2,5
								l0.1,0.1C340.3,830.8,340.9,829.3,342.3,828.4z"/>
							<path class="st11" d="M323.1,826.7c1.7-1,3.9-0.6,5,1.1c-0.1-0.4-0.2-0.8-0.5-1.2c-1-1.8-3.3-2.2-5-1.2c-1.8,1-2.2,3.3-1.2,5
								l0.1,0.1C321.2,829.1,321.8,827.5,323.1,826.7z"/>
							<path class="st11" d="M332.7,827.6c1.7-1,3.9-0.6,5,1.1c-0.1-0.4-0.2-0.8-0.5-1.2c-1-1.8-3.3-2.2-5-1.2c-1.8,1-2.2,3.3-1.2,5
								l0.1,0.1C330.8,830,331.3,828.4,332.7,827.6z"/>
						</g>
					</g>
					<path d="M254.2,871.4c-0.4,18.3-12.7,79.1-14.7,86.1s-5,15.9,5.9,18.9c4,120.4,8,199.1,7,212c-1,12.9-9.9,88.6-11,105.5
						c-1,16.9-4,63.7,1,71.7c5,8,5,25.9,0,42.8c-5,16.9-11,34.8-4,45.8c-25.9,31.8-31.8,48.7-30.8,57.7s40.8,5.9,47.7,3
						c7-3,12.9-13.9,12-18.9c11,1,24.9-5.9,24.9-5.9l-1-34.8c0,0,9-6.1,16.9-17.1c8-11,12.1-85.5,11-102.4
						c-1-16.9,13.7-146.7,14.8-163.6c1-16.9,20-153.7,22.9-160.7c3-7,8.2-18.4,13.2,18.5c5,36.9,19.7,152.4,20.6,167.3
						c1,14.9,4,78.9,5,85.9s9,42,9,51.9c0,9.9-6,62.6-4,76.5c1.9,13.9,13.9,47.7,13.9,47.7s-3.2,24-1.1,32.9c0.9,4.1,4.7,2.1,6.8,7
						c2.4,5.8,7,14.3,9.1,17c4,5,20.4,12.5,30.4,14.5c9.9,1.9,27.4-14.9,25.3-24.9c-1.9-9.9-11-31.2-14-32.2s-6.7-10.3-0.6-24.2
						s8.9-86.6,5.9-105.5c-3-18.9-4-131.4-5-144.3c-1-12.9,1-208,1-210.9s11-4,12-8.9c1-4.9-20.3-107.5-22.7-114.3
						C457.4,853.5,254.5,853.1,254.2,871.4z"/>
				</g>
				<path class="st12" d="M238.5,1454c-4.4-2.1-7.1-17.5-5.2-22.9c1.9-5.5,8.4-35.4,10.6-40.9c2.2-5.5,2.4-13.1,1.4-16.9
					c-1-3.8-4.4-12.2-6-19.2s2.8-69.7,5.2-91.4c2.3-21.6,7.3-67.3,7.7-70.8c0.4-3.5,1.4-42-0.8-57.7c-2.2-15.7-7.6-149.7-5.5-150
					s14.7-1.6,18.2-1.6s16.2-5.5,15.6-1.6c-0.6,3.9-28.9,15.7-23.4,14.9c5.5-0.7,29.8-9.5,29.8-9.5s-22.7,16.9-26.6,18.1
					c-4,1.2,4.6,5.5,8.5,6.7c3.9,1.2,14.9-0.4,14.9-0.4s-17.3,9.8-21.2,11.8c-3.9,1.9-4.9,17.6-2.3,29.8c2.7,12.2-0.7,29.8,0,34.2
					s16.8,55.8,18.4,65.2c1.6,9.5,0.4,28.3,0.4,28.3s-0.4-34.5-8.6-44.4c-8.3-9.8-12.2-27.9-12.2-26.3s-1,33,2,38.1
					c3.1,5.1,12.5,29.4,11.3,27.9s-8.1-16.9-11.3-20.1c-3.2-3.2-0.7,13.7,0,20.8s-3.6,33.4-3.6,33.4s13.4-20.4,13.7-21.6
					c0.4-1.2,0.4-1.2,0.4-1.2s-11.6,25.5-10.5,33.4c9-8.6,14.1-22,14.9-24.8c0.7-2.8,1.2,7.1,0,14.9c-1.2,7.9-12.4,19.7-14.9,29.4
					c-2.4,9.8-9.5,55-10.3,65.5c-0.8,10.6-6.3,40.5-4.4,44.7c1.9,4.3,8.3,16.1,9,14.9c0.7-1.1,3.2-18.1,5.6-32.2
					s12.9-100.9,12.9-100.9s0.7,41.2,3.2,55c2.3,13.7-6.3,59.7-6.7,66.8c-0.4,7.1-19.2,54.2-20.1,63.6c-0.8,9.4-0.4,17.3,1.6,21.2
					c1.9,3.9,11.8-1.2,11.8-3.5s-7.4-19.2-5.8-18.5s4.7,3.2,11.8,12.2s14.9,14.6,4.7,18.1c-10.2,3.5-26.7,3.2-27.5,7.2
					c-0.7,4.2-6.7,16.3-6.7,16.3s-2-4.4-5.8,0c-3.7,4.4-9.2,11.8-4.8,13.4c4.4,1.6,17.6,3.9,19.2,5.8s5.1,8.3,1.6,11.4
					c-3.5,3.2-5.5,9.8-11.8,8.6c-6.3-1.2-14.1,1.2-23.6-3.2c-5.4-2.5-7-0.6-2.8-9.3c4.1-8.7,11-20.5,17.7-28.4
					C234.9,1461,238.5,1454,238.5,1454z"/>
				<path class="st12" d="M252.7,886.8c-1.3,4-14.4,69.3-14.7,76s-3.6,10,3.8,12s30.8-1.9,44.1-4.4c13.3-2.4,40.3-16.3,44.5-20.3
					c0,0-39.7,16.1-46.7,15.8s-17.3,5.5-17.5-4.8c-0.3-10.3-2.1-54.8-2.1-60.3c0-5.5-7.2-72.7-9.1-77.8c-1.9-5.1-7.3-13.5-7.1-11.7
					c0.3,1.8,5.5,45,5.8,52.5C254.2,871.4,252.7,886.8,252.7,886.8z"/>
				<path class="st12" d="M422,1464.2c0,0-6.2-2.7-7.4-5.2c-4.7-10.5-11.5-36.7-12.2-39.3c-0.7-3.2-3-10.8-1.8-28.9
					s4.1-56.2,4.1-56.2s-6.7-39.5-7.9-45.7c-1.1-6.2-6-67.5-5.8-87.8c0.1-20.3-13.6-115.2-15.6-130.7c-2-15.5-8-60.5-10.3-63.5
					c-2.3-3-3.5-4.9-3.5-4.9s14.1,0.5,18.1,3.9c4,3.4,13.9,33.8,13.9,33.8s-10.1-19.5-13.9-25.2s-9.8-7-9-5.7s4.4,23.9,14.8,35.1
					c-4.7,1.3-8.2-4.7-8.2-4.7s8.7,30.4,10.4,32.5s11.1,22.1,11.6,29.1c0.5,7,8.6,50.7,8.6,50.7s-7-24.2-9.1-29.9
					s-13.5-38.5-16.1-40.7c-2.6-2.1,4.9,35.5,5.3,41.6c0.4,6,18.1,43.3,21.5,47.6l2.6,9.1c0,0-25.8-35.9-24.1-34.6
					c1.7,1.3,10.8,35.7,22,49.3c-11.2-8.5-17.4-21.1-17.4-21.1s6.5,34.6,8.3,39.8c1.8,5.2-2.6,31.8-2.1,32.2
					c0.5,0.3,12.2-28.7,12.2-33.9c0-5.2,5.1-1.3,3.6,4.7c-1.5,6-4.9,23.4-6.2,26.8c-1.3,3.4-4.4,25.5-3.9,28.6s4.7,39.4,4.7,39.4
					s0.8,13,1.8,10.9c0.9-2.1,10.4-39.4,10.9-45.9s5.7-20.3,5.7-7.3c0,13-11.7,97.9-14.3,113.5c-2.6,15.6-3.4,31.6,0.5,45.9
					c3.9,14.3,6.5,32.5,11.2,29.9c4.7-2.6,16.9-13.5,16.9-13.5s13.8,12.8,11.7,15.3c-2.1,2.5-16.9,7.7-22.1,7.7s-5.7,8.6-3.4,12.5
					s7.3,12.5,10.9,17.7c3.4,5.2,14.3,1.8,22.9,3.4c8.6,1.8,18.2,2.1,16.9,6s-3.9,11.7-9.6,15.1c-5.7,3.4-7.7,3.6-21.1-1.4
					c-9.8-3.6-16.3-5.1-17.9-10.6c-1.5-5.1-5.8-14.6-8.4-17.1c-0.9-0.8-0.9,2.9-1.4,5.1c-3-2.1-5.2-2.7-6.6-3.9
					c-2.5-2-2.5-21.6,0.4-28.6C414.6,1463.6,422,1464.2,422,1464.2z"/>
			</g>
		</g>
	</g>
</g>
</svg>
