<?xml version="1.0" encoding="utf-8"?>
<!-- Generator: Adobe Illustrator 24.0.0, SVG Export Plug-In . SVG Version: 6.00 Build 0)  -->
<svg version="1.1" id="Layer_1" xmlns="http://www.w3.org/2000/svg" xmlns:xlink="http://www.w3.org/1999/xlink" x="0px" y="0px"
	 viewBox="0 0 1125 2436" style="enable-background:new 0 0 1125 2436;" xml:space="preserve">
<style type="text/css">
	.st0{clip-path:url(#SVGID_2_);}
	.st1{clip-path:url(#SVGID_5_);}
	.st2{fill:#FFFFFF;}
	.st3{stroke:#D1D3D4;stroke-width:0.625;stroke-miterlimit:10;}
	.st4{fill:#FFFFFF;stroke:#FFFFFF;stroke-width:0.625;stroke-miterlimit:10;}
	.st5{stroke:#FFFFFF;stroke-width:0.625;stroke-miterlimit:10;}
	.st6{stroke:#FFFFFF;stroke-width:0.9392;stroke-miterlimit:10;}
	.st7{stroke:#FFFFFF;stroke-width:0.8477;stroke-miterlimit:10;}
	.st8{enable-background:new    ;}
	.st9{fill:#ED1C24;}
	.st10{stroke:#FFFFFF;stroke-width:0.5309;stroke-miterlimit:10;}
	.st11{fill:none;stroke:#231F20;stroke-width:1.1614;stroke-linecap:round;stroke-miterlimit:10;}
	.st12{fill:none;stroke:#FFFFFF;stroke-width:1.1614;stroke-linecap:round;stroke-miterlimit:10;}
	.st13{stroke:#FFFFFF;stroke-width:0.6198;stroke-miterlimit:9.9999;}
	.st14{stroke:#FFFFFF;stroke-width:0.5444;stroke-miterlimit:9.9999;}
	.st15{fill:#FFFFFF;stroke:#231F20;stroke-width:0.3242;stroke-miterlimit:10;}
	.st16{fill:#FFFFFF;stroke:#231F20;stroke-width:0.4217;stroke-miterlimit:10;}
	.st17{font-family:'Marion-Regular';}
	.st18{font-size:49.6529px;}
	.st19{fill:none;stroke:#FFFFFF;stroke-width:1.012;stroke-miterlimit:10;}
	.st20{fill:none;stroke:#231F20;stroke-width:1.1614;stroke-miterlimit:10;}
</style>
<g>
	<defs>
		<rect id="SVGID_1_" y="0" width="1125" height="2436"/>
	</defs>
	<clipPath id="SVGID_2_">
		<use xlink:href="#SVGID_1_"  style="overflow:visible;"/>
	</clipPath>
	<g class="st0">
		<g>
			<defs>
				<rect id="SVGID_4_" x="-7.8" y="-16.9" width="1140.2" height="2460.6"/>
			</defs>
			<clipPath id="SVGID_5_">
				<use xlink:href="#SVGID_4_"  style="overflow:visible;"/>
			</clipPath>
			<g class="st1">
				<g>
					<rect x="-785.7" y="-27.4" class="st2" width="2894.2" height="1681.8"/>
					<rect x="-785.7" y="1542.3" width="2894.2" height="1050.1"/>
					<g>
						<g>
							<g>
								<g>
									<g>
										<path class="st2" d="M968.2,1619.9c0-21.7-266.9-21.7-266.9,0c0,0.8,0,8,0,8.8c0,21.7,59.7,39.3,133.4,39.3
											s133.4-17.6,133.4-39.3C968.2,1627.9,968.2,1620.7,968.2,1619.9z"/>
										<path class="st3" d="M940.4,1596.3c-56.7-21.6-92.2-60.5-92.5-102.8c0-0.5,0-0.9,0-1.4c0-9.2,0-238.4,0-262.1
											c0-69.8,42.6-96,72.4-115.5l-85.5-6.4c0-0.5,0-0.8,0-0.8l-5.1,0.4l-5.1-0.4c0,0,0,0.3,0,0.8l-85.5,6.4
											c29.8,19.6,72.4,45.7,72.4,115.5c0,23.7,0,252.9,0,262.1c0,14.1-1.7,26.5-4.8,37.4c-7.7,27.7-34.4,52-73.1,65.3
											c-20.1,6.9-32.3,15.8-32.3,25.6c0,21.7,59.7,39.3,133.4,39.3s133.4-17.6,133.4-39.3
											C968.2,1611.2,957.9,1602.9,940.4,1596.3z"/>
										<path class="st2" d="M881.7,1577.5c-14.4-21.6-38.8-41.8-38.8-84.1c0-0.5,0-0.9,0-1.4c0-9.2,0-238.4,0-262.1
											c0-69.8,10.8-96,18.4-115.5l-21.7-6.4c0-0.5,0-0.8,0-0.8l-1.3,0.4l-1.3-0.4c0,0,0,0.3,0,0.8l-21.7,6.4
											c7.6,19.6,18.4,45.7,18.4,115.5c0,23.7,0,185.7,0,194.9c0,14.1-1.9,46-1.2,56.8c2.4,37.9,10.8,57.4,26.8,82.9
											c4.5,7.3,19.8,42,23.9,50.8c14.1,30.1,34.9,35.6,62.5,20.4c16.4-9-9-26.3-24.9-32.2
											C912.3,1600.5,886.1,1584.2,881.7,1577.5z"/>
									</g>
									<g>
										<path class="st2" d="M28.1,1619.9c0-21.7-266.9-21.7-266.9,0c0,0.8,0,8,0,8.8c0,21.7,59.7,39.3,133.4,39.3
											S28,1650.4,28,1628.7C28.1,1627.9,28.1,1620.7,28.1,1619.9z"/>
										<path class="st3" d="M0.2,1596.3c-56.7-21.6-92.2-60.5-92.5-102.8c0-0.5,0-0.9,0-1.4c0-9.2,0-238.4,0-262.1
											c0-69.8,42.6-96,72.4-115.5l-85.5-6.4c0-0.5,0-0.8,0-0.8l-5.1,0.4l-5.1-0.4c0,0,0,0.3,0,0.8l-85.5,6.4
											c29.8,19.6,72.4,45.7,72.4,115.5c0,23.7,0,252.9,0,262.1c0,14.1-1.7,26.5-4.8,37.4c-7.7,27.7-34.4,52-73.1,65.3
											c-20.1,6.9-32.3,15.8-32.3,25.6c0,21.7,59.7,39.3,133.4,39.3s133.4-17.6,133.4-39.3C28.1,1611.2,17.7,1602.9,0.2,1596.3z"
											/>
										<path class="st2" d="M-58.5,1577.5c-14.4-21.6-38.8-41.8-38.8-84.1c0-0.5,0-0.9,0-1.4c0-9.2,0-238.4,0-262.1
											c0-69.8,10.8-96,18.4-115.5l-21.7-6.4c0-0.5,0-0.8,0-0.8l-1.3,0.4l-1.3-0.4c0,0,0,0.3,0,0.8l-21.7,6.4
											c7.6,19.6,18.4,45.7,18.4,115.5c0,23.7,0,185.7,0,194.9c0,14.1-1.9,46-1.2,56.8c2.4,37.9,10.8,57.4,26.8,82.9
											c4.5,7.3,19.8,42,23.9,50.8c14.1,30.1,34.9,35.6,62.5,20.4c16.4-9-9-26.3-24.9-32.2C-27.9,1600.5-54.1,1584.2-58.5,1577.5
											z"/>
									</g>
								</g>
								<g>
									<path class="st2" d="M1100.5,1114c0-29-1471.6-29-1471.6,0c0,3.3,0,14.5,0,17.3c0,30.4,257.8,38.7,321.3,29.6
										c61.2-8.7,149-20.5,414.5-21.3c265.4,0.8,353.2,12.6,414.5,21.3c63.5,9,321.3,0.8,321.3-29.6
										C1100.5,1128.5,1100.5,1117.3,1100.5,1114z"/>
									<path class="st3" d="M1100.5,1116.2c0,33.5-257.8,42.5-321.3,32.6c-61.2-9.6-149-22.6-414.5-23.5
										c-265.4,0.9-353.2,13.9-414.5,23.5c-63.5,10-321.3,0.9-321.3-32.6c0-31.9,312.5-51.4,705.9-53.2v-0.1c10,0,20,0,29.9,0
										s19.9,0,29.9,0v0.1C788,1064.7,1100.5,1084.3,1100.5,1116.2z"/>
								</g>
							</g>
							<g>
								<ellipse class="st4" cx="534" cy="1103.5" rx="76.2" ry="11.2"/>
								<path class="st5" d="M539.5,1054V918.2h-11v135.7c0,18.8-14.4,34.6-33.2,36.2c-22.4,1.9-37.5,5.5-37.5,9.6
									c0,6.2,34.1,11.2,76.2,11.2s76.2-5,76.2-11.2c0-4.1-15.1-7.7-37.5-9.6C553.9,1088.6,539.5,1072.8,539.5,1054z"/>
								<circle class="st5" cx="534" cy="917" r="9.8"/>
								<rect x="223.1" y="633" class="st6" width="621.7" height="399.4"/>
								<rect x="247.2" y="656.3" class="st7" width="573.5" height="352.8"/>
								<g class="st8">
									<path class="st9" d="M343.4,771c1-0.3,2.3-0.5,3.8-0.7c1.5-0.2,2.9-0.3,4.2-0.3v43.5h-8.1V771z"/>
									<path class="st9" d="M388.7,770.3c1.4-0.2,2.8-0.3,4.2-0.3v43.5h-7.2l-15.2-24.7c-1.2-2.1-2.1-3.8-2.7-5
										c0.1,2.9,0.1,7.6,0.1,14v15.6h-7.6V771c1.2-0.3,2.4-0.6,3.8-0.8c1.3-0.2,2.6-0.3,3.8-0.3l14.1,23.1c1,1.7,2.1,3.8,3.5,6.4
										c-0.2-5-0.4-10.2-0.4-15.8V771C386,770.7,387.3,770.5,388.7,770.3z"/>
									<path class="st9" d="M409.7,777.4v11.1h15.1c-0.2,3.2-0.5,5.5-0.7,6.9h-14.3v18h-8.1v-42.9h25c0,1.1-0.1,2.3-0.2,3.6
										c-0.1,1.3-0.3,2.4-0.4,3.3H409.7z"/>
									<path class="st9" d="M438.4,811.8c-2.9-1.8-5.1-4.4-6.6-7.8s-2.2-7.4-2.2-12c0-4.7,0.8-8.7,2.3-12.1c1.5-3.4,3.7-6,6.6-7.7
										c2.9-1.8,6.4-2.7,10.5-2.7c4.1,0,7.6,0.9,10.5,2.7c2.9,1.8,5.1,4.4,6.6,7.8c1.5,3.4,2.2,7.4,2.2,12c0,4.7-0.8,8.8-2.3,12.1
										c-1.5,3.4-3.7,5.9-6.6,7.7c-2.9,1.8-6.4,2.7-10.4,2.7C444.9,814.5,441.3,813.6,438.4,811.8z M460,792
										c0-5.1-0.9-8.9-2.8-11.6c-1.9-2.6-4.6-4-8.2-4c-3.6,0-6.4,1.3-8.2,3.9c-1.9,2.6-2.8,6.5-2.8,11.6c0,5.1,0.9,8.9,2.8,11.6
										c1.9,2.6,4.6,4,8.3,4C456.4,807.6,460,802.4,460,792z"/>
									<path class="st9" d="M488,797.6h-5.3v15.9h-8.1v-42.7c3.4-0.8,7.3-1.2,11.7-1.2c3.9,0,7.1,0.6,9.5,1.9c2.5,1.3,4.3,3,5.4,5
										s1.7,4.3,1.7,6.8c0,3-0.7,5.5-2,7.6c-1.3,2.1-3.2,3.7-5.7,4.9l10,17.7h-9.2L488,797.6z M486.6,791.1c2.6,0,4.6-0.6,6-1.8
										c1.4-1.2,2.2-3.1,2.2-5.6c0-2.4-0.7-4.3-2.1-5.6c-1.4-1.3-3.5-2-6.3-2c-0.8,0-2,0-3.7,0.1v14.9H486.6z"/>
									<path class="st9" d="M554.7,813.4h-7.8l-1-17.1c-0.4-5.5-0.6-10.3-0.6-14.4c-1.5,5.3-3.3,11-5.5,17.2l-4.8,14.3h-6.8
										l-5-14.5c-1.8-5-3.5-10.5-5.3-16.6c-0.2,5.9-0.4,10.8-0.6,14.8l-1,16.2h-7.7l3-42.4c1.2-0.3,2.7-0.6,4.6-0.8
										c1.9-0.2,3.6-0.3,5.1-0.3l10.1,32.5l10.1-31.4c1.4-0.4,3-0.6,4.9-0.8c1.8-0.2,3.6-0.2,5.2-0.2L554.7,813.4z"/>
									<path class="st9" d="M584.2,805h-15.9l-2.5,8.4h-7.9l13.5-42.3c1.1-0.3,2.6-0.5,4.5-0.7c1.9-0.2,3.8-0.2,5.7-0.2l13.6,43.3
										h-8.5L584.2,805z M582.3,798.3l-5.8-20.7l-6.2,20.7H582.3z"/>
									<path class="st9" d="M605.1,811.7c-3.1-1.9-5.4-4.5-6.9-7.9c-1.6-3.4-2.4-7.4-2.4-11.9c0-4.5,0.8-8.5,2.4-11.9
										c1.6-3.4,3.9-6,6.9-7.8c3-1.8,6.5-2.7,10.6-2.7c4,0,7.1,0.6,9.5,1.7c0,2.5-0.4,4.8-1.1,6.8c-2.4-1-5-1.5-7.8-1.5
										c-2.4,0-4.6,0.6-6.4,1.8c-1.8,1.2-3.3,3-4.2,5.3c-1,2.3-1.5,5.1-1.5,8.4c0,3.3,0.5,6.1,1.6,8.5c1.1,2.3,2.6,4.1,4.6,5.3
										c2,1.2,4.3,1.8,6.9,1.8c2.9,0,5.7-0.6,8.2-1.7c-0.2,2.2-0.6,4.7-1.2,7.3c-2.4,0.9-5.1,1.4-8,1.4
										C611.9,814.5,608.2,813.6,605.1,811.7z"/>
									<path class="st9" d="M631.4,771c1-0.3,2.3-0.5,3.8-0.7c1.5-0.2,2.9-0.3,4.2-0.3v43.5h-8.1V771z"/>
									<path class="st9" d="M654.6,811.8c-2.9-1.8-5.1-4.4-6.6-7.8c-1.5-3.4-2.2-7.4-2.2-12c0-4.7,0.8-8.7,2.3-12.1
										c1.5-3.4,3.7-6,6.6-7.7c2.9-1.8,6.4-2.7,10.5-2.7c4.1,0,7.6,0.9,10.5,2.7c2.9,1.8,5.1,4.4,6.6,7.8c1.5,3.4,2.2,7.4,2.2,12
										c0,4.7-0.8,8.8-2.3,12.1c-1.5,3.4-3.7,5.9-6.6,7.7c-2.9,1.8-6.4,2.7-10.4,2.7C661,814.5,657.5,813.6,654.6,811.8z
										 M676.2,792c0-5.1-0.9-8.9-2.8-11.6c-1.9-2.6-4.6-4-8.2-4s-6.4,1.3-8.2,3.9c-1.9,2.6-2.8,6.5-2.8,11.6
										c0,5.1,0.9,8.9,2.8,11.6c1.9,2.6,4.6,4,8.3,4C672.5,807.6,676.2,802.4,676.2,792z M663.9,758.8c0.5-0.1,1.3-0.2,2.2-0.3
										c1-0.1,1.9-0.1,2.7-0.1c1.1,0,2.1,0.1,3,0.2c0.9,0.1,1.7,0.3,2.3,0.5c-1.4,2.1-3.2,3.9-5.4,5.2c-2.2,1.3-4.6,2-7.2,2h-1.3
										L663.9,758.8z"/>
									<path class="st9" d="M719.3,770.3c1.4-0.2,2.8-0.3,4.2-0.3v43.5h-7.2L701,788.8c-1.2-2.1-2.1-3.8-2.7-5
										c0.1,2.9,0.1,7.6,0.1,14v15.6h-7.6V771c1.2-0.3,2.4-0.6,3.8-0.8c1.3-0.2,2.6-0.3,3.8-0.3l14.1,23.1c1,1.7,2.1,3.8,3.5,6.4
										c-0.2-5-0.4-10.2-0.4-15.8V771C716.6,770.7,717.8,770.5,719.3,770.3z"/>
								</g>
								<g class="st8">
									<path class="st9" d="M362.5,845.4c1-0.3,2.3-0.5,3.8-0.7c1.5-0.2,2.9-0.3,4.2-0.3v43.5h-8.1V845.4z"/>
									<path class="st9" d="M407.8,844.7c1.4-0.2,2.8-0.3,4.2-0.3v43.5h-7.2l-15.2-24.7c-1.2-2.1-2.1-3.8-2.7-5
										c0.1,2.9,0.1,7.6,0.1,14v15.6h-7.6v-42.4c1.2-0.3,2.4-0.6,3.8-0.8c1.3-0.2,2.6-0.3,3.8-0.3l14.1,23.1
										c1,1.7,2.1,3.8,3.5,6.4c-0.2-5-0.4-10.2-0.4-15.8v-12.6C405.1,845.1,406.4,844.9,407.8,844.7z"/>
									<path class="st9" d="M427.5,886.1c-3.1-1.9-5.4-4.5-6.9-7.9c-1.6-3.4-2.4-7.4-2.4-11.9c0-4.5,0.8-8.5,2.4-11.9
										c1.6-3.4,3.9-6,6.9-7.8c3-1.8,6.5-2.7,10.6-2.7c4,0,7.1,0.6,9.5,1.7c0,2.5-0.4,4.8-1.1,6.8c-2.4-1-5-1.5-7.8-1.5
										c-2.4,0-4.6,0.6-6.4,1.8c-1.8,1.2-3.3,3-4.2,5.3s-1.5,5.1-1.5,8.4c0,3.3,0.5,6.1,1.6,8.5c1.1,2.3,2.6,4.1,4.6,5.3
										c2,1.2,4.3,1.8,6.9,1.8c2.9,0,5.7-0.6,8.2-1.7c-0.2,2.2-0.6,4.7-1.2,7.3c-2.4,0.9-5.1,1.4-8,1.4
										C434.3,888.9,430.6,888,427.5,886.1z"/>
									<path class="st9" d="M459.2,886.2c-2.9-1.8-5.1-4.4-6.6-7.8s-2.2-7.4-2.2-12c0-4.7,0.8-8.7,2.3-12.1c1.5-3.4,3.7-6,6.6-7.7
										c2.9-1.8,6.4-2.7,10.5-2.7c4.1,0,7.6,0.9,10.5,2.7c2.9,1.8,5.1,4.4,6.6,7.8c1.5,3.4,2.2,7.4,2.2,12c0,4.7-0.8,8.8-2.3,12.1
										c-1.5,3.4-3.7,5.9-6.6,7.7c-2.9,1.8-6.4,2.7-10.4,2.7C465.6,888.9,462.1,888,459.2,886.2z M480.8,866.4
										c0-5.1-0.9-8.9-2.8-11.6c-1.9-2.6-4.6-4-8.2-4c-3.6,0-6.4,1.3-8.2,3.9c-1.9,2.6-2.8,6.5-2.8,11.6c0,5.1,0.9,8.9,2.8,11.6
										c1.9,2.6,4.6,4,8.3,4C477.1,882,480.8,876.8,480.8,866.4z"/>
									<path class="st9" d="M540.2,887.8h-7.8l-1-17.1c-0.4-5.5-0.6-10.3-0.6-14.4c-1.5,5.3-3.3,11-5.5,17.2l-4.8,14.3h-6.8
										l-5-14.5c-1.8-5-3.5-10.5-5.3-16.6c-0.2,5.9-0.4,10.8-0.6,14.8l-1,16.2h-7.7l3-42.4c1.2-0.3,2.7-0.6,4.6-0.8
										c1.9-0.2,3.6-0.3,5.1-0.3l10.1,32.5l10.1-31.4c1.4-0.4,3-0.6,4.9-0.8c1.8-0.2,3.6-0.2,5.2-0.2L540.2,887.8z"/>
									<path class="st9" d="M572.9,847.9c2.7,2.7,4.1,6.2,4.1,10.5c0,3.1-0.7,5.7-2,8c-1.3,2.3-3.2,4-5.7,5.3
										c-2.5,1.3-5.6,1.9-9.1,1.9h-4.5v14.3h-8.1V845c1.7-0.3,3.6-0.5,5.8-0.7c2.2-0.2,4.2-0.3,6.1-0.3
										C565.7,843.9,570.2,845.2,572.9,847.9z M566.6,864.8c1.4-1.4,2.1-3.5,2.1-6.1c0-2.6-0.7-4.7-2.1-6.1
										c-1.4-1.4-3.6-2.1-6.8-2.1c-1.4,0-2.8,0.1-4.2,0.2V867h4.5C563.1,867,565.2,866.2,566.6,864.8z"/>
									<path class="st9" d="M583.3,845.4c1-0.3,2.3-0.5,3.8-0.7c1.5-0.2,2.9-0.3,4.2-0.3v36.4h15.4c0,1-0.1,2.2-0.2,3.5
										s-0.3,2.5-0.5,3.5h-22.8V845.4z"/>
									<path class="st9" d="M619.6,881h17.7c0,1-0.1,2.2-0.2,3.5s-0.3,2.5-0.5,3.4h-25.1V845h25.9c0,1.1-0.1,2.3-0.2,3.6
										s-0.3,2.4-0.4,3.3h-17.2v10.9h15.9c0,1-0.1,2.1-0.2,3.5c-0.1,1.3-0.3,2.4-0.5,3.3h-15.2V881z"/>
									<path class="st9" d="M671.1,848.5c-0.1,1.4-0.3,2.5-0.4,3.4h-11.1v36h-8.1v-36h-11.8c0-1.1,0.1-2.3,0.3-3.6
										c0.1-1.3,0.3-2.4,0.5-3.3h30.9C671.3,845.9,671.2,847.1,671.1,848.5z"/>
									<path class="st9" d="M694,879.4H678l-2.5,8.4h-7.9l13.5-42.3c1.1-0.3,2.6-0.5,4.5-0.7c1.9-0.2,3.8-0.2,5.7-0.2l13.6,43.3
										h-8.5L694,879.4z M692,872.7l-5.8-20.7l-6.2,20.7H692z"/>
								</g>
							</g>
							<g>
								<g>
									<polygon class="st4" points="119.9,1725 119.9,1725 120.2,1725.1 120.5,1725.1 120.5,1725.2 241.9,1774.2 241.9,1791.8 
										120.5,1755.6 119.9,1755.4 -1.5,1719.2 -1.5,1701.7 									"/>
									<polygon class="st5" points="119.9,1728.4 119.9,1728.4 120.2,1728.5 120.5,1728.6 120.5,1728.6 241.9,1777.6 
										241.9,1795.2 120.5,1759 119.9,1758.8 -1.5,1722.7 -1.5,1705.1 									"/>
								</g>
								<g>
									<polygon class="st4" points="120.5,1725 120.5,1725 120.2,1725.1 119.9,1725.1 119.9,1725.2 -1.5,1774.2 -1.5,1791.8 
										119.9,1755.6 120.5,1755.4 241.9,1719.2 241.9,1701.7 									"/>
									<polygon class="st5" points="120.5,1728.4 120.5,1728.4 120.2,1728.5 119.9,1728.6 119.9,1728.6 -1.5,1777.6 -1.5,1795.2 
										119.9,1759 120.5,1758.8 241.9,1722.7 241.9,1705.1 									"/>
								</g>
								<g>
									<polygon class="st4" points="119.9,1725 119.9,1725 120.2,1725.1 120.5,1725.1 120.5,1725.2 241.9,1774.2 241.9,1791.8 
										120.5,1755.6 119.9,1755.4 									"/>
									<polygon class="st5" points="119.9,1728.4 119.9,1728.4 120.2,1728.5 120.5,1728.6 120.5,1728.6 241.9,1777.6 
										241.9,1795.2 120.5,1759 119.9,1758.8 									"/>
								</g>
								<path class="st5" d="M126.5,1728.4h-12.6c-0.4,0-0.7-0.3-0.7-0.7v-128.2h14v128.2C127.2,1728.1,126.9,1728.4,126.5,1728.4z"
									/>
								<path class="st5" d="M324.5,1371.4c-40.8-23.9-34-70.7,9.5-138.5c30.7-47.9,74.8-129.4,51.7-160.7
									c-23.1-31.3-38.1-35.4-114.2-5.4c-58.4,22.9-103.2,25.9-136.9,26c-0.3-0.1-0.7-0.2-1-0.2c-4.2,0-8.6,0.1-13.3,0.1
									c-4.7-0.1-9.1-0.1-13.3-0.1c-0.4,0-0.7,0.1-1,0.2c-33.7-0.1-78.5-3.1-136.9-26c-76.2-29.9-91.1-25.8-114.2,5.4
									c-23.1,31.3,20.9,112.9,51.7,160.7c43.5,67.8,50.3,114.6,9.5,138.5c-24.2,14.2-72.1,40.8-46.2,102
									c49.8,118,199.6,148.7,249.4,149.6l0,0c0.3,0,0.7,0,1.1,0c0.3,0,0.7,0,1.1,0l0,0c49.9-0.8,199.6-31.5,249.4-149.6
									C396.6,1412.2,348.7,1385.6,324.5,1371.4z"/>
							</g>
						</g>
					</g>
					<path class="st10" d="M742.5,1577.4c37.2,39.2,76.4,61.9,92.9,66.1c16.5,4.1,72.2-28.9,111.5-74.3
						c39.2-45.4,121.8-150.7,146.6-177.5s80.5-53.7,80.5-53.7l235.3,64c0,0,33,78.4,61.9,103.2c28.9,24.8,95,122.5,99.1,138.7
						s0,30.6,12.4,53.3c12.4,22.7,2.1,51.6,14.4,51.6s76.4-24.8,88.8-37.2s119.7-59.9,119.7-59.9s-6.2-35.1-18.6-28.9
						s-41.3,12.4-53.7,14.4c-12.4,2.1-80.5-2.1-80.5-2.1l-4.1-31l-55.7-60.9c0,0-99.1-240.5-107.3-248.7
						c-74.3-28.9-138.3-64-138.3-64l-95-37.2c0,0,6.2-91,0-101.2s-35.1-66-35.1-66s18.6-41.3,16.5-49.5
						c-2.1-8.3,10.3-51.6,10.3-51.6s118.6,57.1,134.2,64c7.8,0.9,96.8-26.3,124.8-33.5s48.1-13.6,48.1-13.6l-1.6-16.8l36.1-17.6
						c0,0,2.4-14.4,1.6-16.8c28-16.8,68.9-60.1,72.1-64.1s2.4-15.2-2.4-12.8c4-8.8,0.8-18.4-4-14.4c0-9.6-4.8-19.2-11.2-13.6
						c-2.4-11.2-4-16.8-9.6-10.4c-7.2,1.6-7.2,1.6-7.2,1.6s1.6-14.4-5.6-8.8c-7.2,5.6-12,12.8-19.2,19.2s-16,9.6-15.2,15.2
						c0.8,5.6-2.4,31.3-2.4,31.3l-21.6,18.4l-25.6,12.8l-4.8-8c0,0-36.9,13.6-46.5,16s-12.8-1.6-16.8,5.6c-4,7.2-8.8,18.4-18.4,12
						s-22.4-8.8-24.8-6.4c-2.4,2.4-9.6,19.2-14.4,12.8s-12-6.4-22.4-4.8c-10.4,1.6-20.8,3.2-19.2,0c1.6-3.2,5.6-13.6,0.8-16.8
						s-8,4-15.2-2.4s-5.6-13.6-8.8-16.8c-3.2-3.2-10.4-13.6-16-16s-17.6,4-18.4-3.2s5.6-12-2.4-16s-15.2-18.4-15.2-18.4
						s-9.4-28-18.3-39.3s-31.4-25.6-31.4-25.6l-2.1-6.7c0,0,4.6-8.3,5.5-12.4c0.9-4.1,0-7.3,4.1-9.6s8.3-4.1,9.2-7.3
						c0.9-3.2,4.6-11,4.6-11s14.2-3.7,15.6-4.1s4.1-5,5-6.9c0.9-1.8-10.5-34.9-10.5-34.9s1.4-10.1,4.6-9.6s2.3-20.6,2.3-28
						c0-7.3,0-38.5,0-38.5s27.1-23.4,4.6-39c0.5,8.7-2.8,10.5-4.1,10.1c0,0-5-19.7-12.8-18.8c6.9,8.7,0.9,12.8,0.9,12.8
						s-10.1-18.3-15.6-17c5.5,7.3,1.8,10.5,1.8,10.5s-22-13.8-29.4-13.3s-41.3-6.4-52.3-6c-11,0.5-25.7,6.4-25.7,6.4
						s-34.9,35.3-39.9,39.4c-5,4.1-16.1,19.7-19.3,29.8c-3.2,10.1-1.8,24.6,0.5,31.2c1.4,4.1,4.6,25.7,4.6,32.1s-3.2,13.3,0.9,12.8
						s11,2.8,11,2.8s-12.4,18.3-13.8,22.9s-9.2,13.3-10.1,9.2s-2.3-8.7-6.9-7.3s-9.2,11.3-12.4,10.2c-3.2-1.1-10.1-6.1-11.9-9.3
						s-18.3-8.3-27.5-5c-9.2,3.2-33.9-6.9-43.6-1.8c-9.6,5-27.1,14.7-31.7,27.5s-8.7,26.6-8.7,26.6s-138.1,61.5-156,75.7
						s-45,36.7-45,36.7s-6.4,37.6-9.2,58.3c-2.8,20.6-8.3,64.2-8.7,70.2c-0.5,6-9.6,34.9-14.2,48.2c-4.6,13.3-10.1,33.9-10.1,33.9
						l17.4,6c0,0-6,16.5-3.7,19.7s38.5,12.8,38.5,12.8s-7.8,13.3-9.2,17.9s-16.5,15.6-17.4,23.9s-8.7,17.4-4.1,23.4
						c3.7,14.7,3.7,23.9,10.6,25.7c6.9,1.8,7.8-0.5,12.8,7.3s8.7,18.8,15.6,16.5c6.9-2.3,13.8-11.5,13.3-9.6s5.5,8.7,11.9,4.6
						s5.5-11,8.7-19.7s8.7-22.5,5-28.4c-3.7-6-1.8-23.4-2.3-33s0-18.8,0-18.8s6-18.3,6.4-19.7c0.5-1.4,3.7-11.5,3.7-11.5
						s3.7-109.6,7.3-114.7c3.7-5,9.2-10.6,8.7-14.7c-0.5-4.1,12.4-3.2,10.1-14.7c-2.3-11.5-16.5-17.4-7.3-20.2s39.9-14.7,64.7-29.4
						s52.3-25.2,53.2-23.9s7.8,9.6,6.4,45.4s-8.3,174.8-10.5,205c-2.3,30.3-14.7,95.4-14.7,122.5s2.3,63.8,0.9,75.2
						c-1.4,11.5-31.7,70.6-36.2,90.4c-4.6,19.7-30.3,71.1-32.1,81.2s-7.3,14.2-11.5,11.9c-4.1-2.3-50.9-35.8-77.1-43.1
						c-26.1-7.3-125.2-74.8-139.9-82.6s-53.2-45.4-53.2-45.4s-23.4-38.1-36.2-45.4s-25.2-12.8-25.2-12.8s-50.9,39.9-58.3,64.7
						c-31.2,37.6-58.3,58.3-75.2,92.7c-17,34.4-24.3,61-18.8,58.7s10.6-5,10.6-5s13.8,12.4,27.1-5c13.3-17.4,27.5-31.2,52.3-39.4
						c24.8-8.3,66.9-30.7,66.9-30.7s169.8,131.2,182.2,135.8C710.3,1536.3,742.5,1577.4,742.5,1577.4z"/>
					<line class="st11" x1="1100.5" y1="507.9" x2="440.4" y2="507.9"/>
					<line class="st11" x1="1039.4" y1="544.3" x2="652.3" y2="544.3"/>
					<line class="st11" x1="1076.6" y1="599.2" x2="841.3" y2="599.2"/>
					<line class="st11" x1="910" y1="1277.3" x2="674.7" y2="1277.3"/>
					<line class="st12" x1="1564" y1="1746.7" x2="1081.4" y2="1746.7"/>
					<line class="st12" x1="1564" y1="1668" x2="1300.6" y2="1668"/>
					<line class="st11" x1="474.8" y1="1277.3" x2="239.5" y2="1277.3"/>
				</g>
				<g>
					<g>
						<ellipse class="st13" cx="541.8" cy="290.5" rx="190.8" ry="190.8"/>
						
							<ellipse transform="matrix(0.7071 -0.7071 0.7071 0.7071 -46.7354 468.1663)" class="st14" cx="541.8" cy="290.5" rx="167.6" ry="167.6"/>
						<path class="st15" d="M629.5,344.7l-90.2-59c-0.1-0.1-0.3,0-0.4,0.1L532,298c-0.1,0.2,0,0.3,0.1,0.4l97.1,46.8
							C629.5,345.4,629.8,344.9,629.5,344.7z"/>
						<path class="st16" d="M541.4,107.3l-6.9,191.9c0,0.2,0.2,0.4,0.4,0.4h13.8c0.2,0,0.4-0.2,0.4-0.4l-6.9-191.9
							C542.1,106.8,541.4,106.8,541.4,107.3z"/>
					</g>
					<text transform="matrix(1 0 0 1 519.852 167.3367)" class="st2 st17 st18">12</text>
					<text transform="matrix(1 0 0 1 529.5151 445.8108)" class="st2 st17 st18">6</text>
					<text transform="matrix(1 0 0 1 674.7168 303.7341)" class="st2 st17 st18">3</text>
					<text transform="matrix(1 0 0 1 384.3163 303.7343)" class="st2 st17 st18">9</text>
					<g>
						<g>
							<line class="st19" x1="468.2" y1="163" x2="477.2" y2="178.8"/>
							<line class="st19" x1="606.3" y1="402.3" x2="615.4" y2="418"/>
						</g>
						<g>
							<line class="st19" x1="414.3" y1="216.9" x2="430" y2="226"/>
							<line class="st19" x1="653.6" y1="355.1" x2="669.3" y2="364.2"/>
						</g>
						<g>
							<line class="st19" x1="414.3" y1="364.2" x2="430" y2="355.1"/>
							<line class="st19" x1="653.6" y1="226" x2="669.3" y2="216.9"/>
						</g>
						<g>
							<line class="st19" x1="468.2" y1="418" x2="477.2" y2="402.3"/>
							<line class="st19" x1="606.3" y1="178.8" x2="615.4" y2="163"/>
						</g>
					</g>
				</g>
			</g>
		</g>
		<g>
			<rect id="SVGID_3_" x="-7.8" y="-16.9" class="st20" width="1140.2" height="2460.6"/>
		</g>
	</g>
</g>
</svg>
