<?xml version="1.0" encoding="utf-8"?>
<!-- Generator: Adobe Illustrator 24.0.0, SVG Export Plug-In . SVG Version: 6.00 Build 0)  -->
<svg version="1.1" id="Layer_1" xmlns="http://www.w3.org/2000/svg" xmlns:xlink="http://www.w3.org/1999/xlink" x="0px" y="0px"
	 viewBox="0 0 1920 1080" style="enable-background:new 0 0 1920 1080;" xml:space="preserve">
<style type="text/css">
	.st0{clip-path:url(#SVGID_2_);}
	.st1{fill:#FFFFFF;stroke:#231F20;stroke-width:1.4038;stroke-miterlimit:10;}
	.st2{fill:#FFFFFF;stroke:#231F20;stroke-width:0.6875;stroke-linecap:round;stroke-linejoin:round;stroke-miterlimit:10;}
	.st3{fill:#FFFFFF;stroke:#231F20;stroke-width:0.6875;stroke-miterlimit:10;}
	.st4{fill:#FFFFFF;stroke:#231F20;stroke-width:1.5133;stroke-miterlimit:10;}
	.st5{fill:#FFFFFF;stroke:#231F20;stroke-width:0.9953;stroke-miterlimit:10;}
	.st6{stroke:#231F20;stroke-width:0.6875;stroke-linecap:round;stroke-linejoin:round;stroke-miterlimit:10;}
	.st7{fill:#ED1C24;}
	.st8{fill:#FFFFFF;stroke:#FFFFFF;stroke-width:0.6875;stroke-linecap:round;stroke-linejoin:round;stroke-miterlimit:10;}
	.st9{stroke:#FFFFFF;stroke-width:0.6875;stroke-linecap:round;stroke-linejoin:round;stroke-miterlimit:10;}
</style>
<g>
	<defs>
		<rect id="SVGID_1_" width="1920" height="1080"/>
	</defs>
	<use xlink:href="#SVGID_1_"  style="overflow:visible;"/>
	<clipPath id="SVGID_2_">
		<use xlink:href="#SVGID_1_"  style="overflow:visible;"/>
	</clipPath>
	<g class="st0">
		<g>
			<g>
				<path class="st1" d="M932.9,1030c-94.9-59.9-173-135.4-251-215.5c100.2-55.6,210.5-76.3,299.7-152.2
					c66.7,65.5,132.9,104.8,220.8,135.1C1116.3,881.4,1032.1,961.2,932.9,1030z"/>
				<g>
					<path d="M909.2,855.9c-6.3,3.1-17.5,7.8-24.4,9.9c-27.2-20.3-53.3-42.1-78.6-64.7c3.6-1.4,5.4-2.1,8.9-3.6
						c29.9-11.3,62.5-5,92.4,2.6c23.2,5.5,37.3,5.6,50.6-1.8c13.3-7.4,12.8-17-0.8-28c-8.3-6.7-19-12.3-31.7-17.7
						c7.4-3.6,16.3-7.8,25.7-11.7c10.4,4.1,21.8,10.2,31.5,18c27.4,21.8,22.4,40.1-0.6,54.1c-23.7,14.4-53.2,12.9-79.2,6.2
						c-20.2-4.7-34.3-8.4-48.6-5.8C876.6,831.7,887.3,840.1,909.2,855.9z"/>
					<path d="M1065.6,887c-36.5,29.3-87.3,45.6-130.8,17.6c-10.7-6.9-18.1-14.4-20.8-20c5.5-3.2,13.3-6.9,23.8-11
						c2.8,5.1,9.9,11.8,17.7,16.6c24.6,15.3,53.5,8.5,75.5-8.2c-14.1,3.8-29.9,1.6-42.8-5.7c-22.2-12.5-22.1-30.9,4.6-47.8
						c25.2-15.8,56.1-23.3,84.6-11.3C1113,832.5,1084.4,872,1065.6,887z M1045.8,870.4c22.5-19,25.5-30.2,11.5-36.9
						c-12.3-6-26.9-2.1-40.7,7.6c-15.2,10.7-13.1,19.5-1.7,25.5C1023,870.8,1033.5,872.2,1045.8,870.4z"/>
				</g>
			</g>
		</g>
		<path class="st2" d="M1071.7,445.4c0,0,171.8,24.6,235-26.3c96.5,66.6,136.8,75.4,229.8,100c-315.7,110.5-418.1,100-418.1,100
			L1071.7,445.4z"/>
		<g>
			<g>
				<path class="st3" d="M858.3,563.4c29-55,53.6-108.2,67-169.1c58.9,47.4,125.7,103.5,202,118.5c32.5,74.5,94.9,133.4,122.1,210.4
					C1120,697.4,969.8,633.7,858.3,563.4z"/>
				<g>
					<path d="M1038.2,587.7c-28.6-12.4-60.7-37.4-59.6-71.6c0.2-6.9,1.8-12.5,3.7-17.4c7.8,4.5,14.6,9.3,21.9,14.7
						c-1.1,2.4-2.1,7.7-1.6,14.5c1.2,16.4,10.3,29,31.8,39.4c20.1,9.6,26.7,5.3,21.8-10.7c-1.9-6.1-4.9-13-8.3-19.1
						c24.6,13,49.2,25.8,74.8,36.7c13.6,24.2,21.2,36.9,34,61c-7.3-2.6-19.4-7.9-27.1-11.7c-6.9-15.1-10.8-22.8-18.4-38.2
						c-11.6-5.3-17.7-8.2-29.8-14.2c0.7,1.2,1.2,2.5,1.7,3.8C1092.2,597.9,1078,605,1038.2,587.7z"/>
				</g>
			</g>
		</g>
		<g>
			<g>
				<path class="st3" d="M1075.2,431.2c-54.7,29.5-91.3,85.6-128.4,133.3c-23.2-93.6-96.8-192.4-159.1-263.9
					c63.8-36.2,130.3-38.5,202.2-39.2C1028.9,315.3,1056.2,367.3,1075.2,431.2z"/>
				<g>
					<path d="M993.7,383c2.3,4.7,5.5,12.9,6.9,17.7c-19.2,13.5-28.4,21.4-45.8,38.1c-1.6-3.1-2.4-4.6-4-7.8c-13.2-25-14-44.9-8-65.3
						c4.2-13.3,5.3-21.4-1.3-31.7c-6.6-10.3-17-13.8-28.7-9.9c-7.1,2.3-12.7,6.7-17,12.9c-3.8-5.9-8.1-12.8-11.7-19.6
						c3.9-4.7,10.5-8.9,19.4-11.2c25.2-6.5,45.3,3.6,56.1,20.6c9.6,15,8.3,27.6,1.3,48.3c-3.8,11.6-5.6,20.5-2.1,31.4
						C972.3,396.2,979.3,391.5,993.7,383z"/>
				</g>
			</g>
		</g>
		<g>
			<g>
				<path class="st3" d="M1445,780.6c-41-66.1-85.5-129.9-136.1-189.1c74-22.5,141.6-61.6,200.7-111.5c68.1,26.6,123,62,172.3,116.3
					C1597,645.6,1516.6,713.8,1445,780.6z"/>
				<g>
					<path d="M1540.7,538.2c-38.1,26.9-76.8,52.7-116.3,77.5c-5.4-6.1-8.1-9-13.3-14.7c31.9-19,62.8-39,93.6-59.8
						c-10.1-3.9-21.3-7-29.5-8.6c5.8-3.9,12-7.6,17.8-10.6C1506.6,523.4,1525.9,529.3,1540.7,538.2z"/>
					<path d="M1610.2,592.3c-43.8,30.9-86.5,63.2-129.2,95.6c-5.1-7.4-7.7-11.1-13-18.3c35-25.3,69.8-51,104.9-76.1
						c-9.9-5.8-21.5-10.9-30.3-13.8c6.8-4.8,14-9.1,20.7-12.5C1577.8,570.6,1597.1,580.2,1610.2,592.3z"/>
				</g>
			</g>
		</g>
		<g>
			<g>
				<path class="st4" d="M1030.3,1410.3c-136.4-103-312.3-138.3-476.2-173.1c124.3-113,257.4-227.7,344.7-373.2
					c112.3,37.6,198,87.2,280.2,172.9C1176.1,1187.2,1144.9,1307.3,1030.3,1410.3z"/>
				<g>
					<path d="M923.2,1139.9c-34.5,43.9-105.1,33.9-152,21.6c-20.5-5.4-36.5-11.4-47.8-17.2c8.9-8.5,22.5-19.2,33.8-27
						c10.6,5.6,24.3,11.1,38.7,15c26.8,7.3,63.1,13.8,83.4-8.8c15.7-17.4,3.4-32.5-31.8-43.3c-10.8-3.3-16.2-4.9-27-8
						c10.5-11.4,15.6-17.2,25.7-28.7c10.2,3.2,15.4,4.8,25.6,8.1c30.2,9.8,52.3,8.1,65.3-10.5c10.6-15.1,5.2-29.9-23-40.1
						c-14.5-5.3-29.6-7.4-45.3-7.3c3.9-4.9,18.3-25.6,27.1-29.5c8.2-3.6,31.2,2.6,44,7.6c33.1,12.9,58.1,44.7,37.4,79
						c-13.5,22.4-39.9,32-65.4,31.1C934.4,1097,941.8,1116.2,923.2,1139.9z"/>
					<path d="M1115.6,1068.6c-16.4,67.6-40.1,126.2-77.2,185.1c-16.9-9.2-25.7-13.5-43.5-21.7c33-47.5,58.7-95.7,79.6-149.7
						c-17.8-7.3-38.4-12.6-53.8-14.6c5.5-10.8,11.6-21.1,17.7-30C1067.6,1039.1,1091.6,1053.7,1115.6,1068.6z"/>
				</g>
			</g>
		</g>
		<g>
			<g>
				<path class="st5" d="M423.4,767.4c-44.9-114.9-51.8-273.9-34.8-395.5c106.8,58.6,226.5,91.2,346.2,111.1
					c-12.2,85.5-11.4,163.2,17.6,245.2C646.3,759.3,534,779,423.4,767.4z"/>
				<g>
					<path d="M545.3,671c-38.6-0.5-54.3-42.2-58.1-75.1c-3.4-29.6,10.2-67.5,46.4-59.8c20.4,4.4,34,19.2,42.1,39.1
						c8.5-14.6,23.9-22.3,44.1-19.8c28.2,3.5,45.7,27.7,46.8,54.9c1.2,31.1-12.9,50.6-37.1,52.5c-17.5,1.4-31.9-6.7-42.7-24.3
						C579.9,656.6,567.8,671.4,545.3,671z M540,636c12.3,0.6,21.5-7.8,26.1-29.9c0.3-1.6,0.5-2.3,0.8-3.9
						c-8.2-19.1-18.4-28.4-30.6-30.3c-16.3-2.5-24.2,9.1-22.8,29.6C514.9,623.6,525.6,635.3,540,636z M620.8,585.5
						c-13.7-1-21.8,8.7-25.5,23.5c-0.2,0.8-0.4,1.2-0.6,2c8.6,16.7,18.6,22.4,29.3,22.2c11.9-0.2,20-7.4,19-23.4
						C642,594,633,586.4,620.8,585.5z"/>
				</g>
			</g>
		</g>
		<g>
			<path d="M1381.9,539.7c-5.5,2.9-13.7,5.3-20,6.6c-65.5-10.1-126.5-12.1-182-5.3l-19.3-33.8c50.6-5.2,109-1.7,164.3,5.6
				l-58.3-60.8c6.1-1.5,15.1-3.5,20.7-4.2L1381.9,539.7z"/>
		</g>
		<g>
			<polygon class="st2" points="1695.2,113.6 1663.4,455.4 1416.1,429.9 			"/>
			<path class="st2" d="M1651.7,455.4c0,0,23.7-65.1,28.8-204.4c-104.6,17.3-254.2,154.9-254.6,156.1c-0.4,1.2-9.7,22.8-9.7,22.8
				L1651.7,455.4z"/>
			<path class="st2" d="M1627.8,426.4c0,0,37.1-23.1,47.1-119.3s20.4-193.5,20.4-193.5l-233.1,28.3c0,0-37.4,273.7-46.1,288
				C1475.7,434.8,1577.2,439,1627.8,426.4z"/>
			<polygon class="st2" points="1695.2,113.6 1663.4,455.4 1750.2,448.9 1774.5,136.5 			"/>
		</g>
		<g>
			<path class="st2" d="M1460.7,138.8l234.5-25.2c0,0-0.4,10.6-7.2,71.4c-12.8,113.4-31.9,208.3-105.8,154.8
				c0,0-101.9,64-171.8,67.4C1437.3,312,1460.7,138.8,1460.7,138.8z"/>
			<path class="st6" d="M1630.8,353.2c0,0-15.7,8.7-48.6-13.5c-29.6,17-104.9,59.3-171.8,67.4
				C1478.2,401.2,1630.8,353.2,1630.8,353.2z"/>
			<g>
				<path class="st7" d="M1543.2,166.7l-29.6,142.9l-23.8,1.9l24.2-116.9c-12.6,3.4-26.2,8-35.7,12.1c1.7-8,4.1-16.2,6.9-23.5
					C1499.7,175.5,1523,168.7,1543.2,166.7z"/>
				<path class="st7" d="M1641.7,261c-5.5,26.4-27.2,44.1-62.5,46.9c-10.4,0.8-19.3,0.1-26.2-1.3c1.4-6.8,4.4-15.8,7.2-22.5
					c6.6,1.3,14.4,1.8,21.9,1.3c21.1-1.6,32.7-9.1,35.6-23.2c3-14.3-6.1-19.3-25.9-17.8l-15.2,1.2l4.5-21.5l15-1.2
					c17.8-1.4,28.5-8,31.4-21.9c2.3-11.3-4-17.9-22.2-16.5c-9.3,0.7-18.1,3.2-26.5,6.8c0.8-3.6,3.7-14.1,6.9-22.9
					c7.8-3.8,18.5-6.4,27.2-7.1c29.3-2.3,43.7,9.8,38.8,33.8c-3.3,15.9-13.5,28.4-28,35.3C1638.4,233.3,1645.6,242.2,1641.7,261z"/>
			</g>
		</g>
		<g>
			<path class="st8" d="M1284.2,191.3c0,0,35.7-24.1,42.5-29.9l178.5-8.9c0,0-48.8,34.1-123.4,50.4
				C1307.3,219.1,1284.2,191.3,1284.2,191.3z"/>
			<path class="st9" d="M1266.4,152.4c0,0,64.6,53.5,153.8,40.4c-208.4,70.9-245.2,94.5-301.9,73.5
				C1191.8,226.5,1266.4,152.4,1266.4,152.4z"/>
		</g>
		<path class="st8" d="M1368.8,94.4l-135.2-38.9c0,0-11.8,17.6-27.9,19.5c-16.2,18.7,46.9,40.3,73,38.7S1368.8,94.4,1368.8,94.4z"/>
		<path class="st9" d="M1306.7,108.3c0,0-115.4,11-154.3-142.5c-113.9,64.7-203.5,75.7-202.8,78.6c0.7,2.9,29.2,92.3,104.1,93.3
			C1137,138.9,1306.7,108.3,1306.7,108.3z"/>
	</g>
</g>
</svg>
