<?xml version="1.0" encoding="utf-8"?>
<!-- Generator: Adobe Illustrator 24.0.0, SVG Export Plug-In . SVG Version: 6.00 Build 0)  -->
<svg version="1.1" id="Layer_1" xmlns="http://www.w3.org/2000/svg" xmlns:xlink="http://www.w3.org/1999/xlink" x="0px" y="0px"
	 viewBox="0 0 1920 1080" style="enable-background:new 0 0 1920 1080;" xml:space="preserve">
<style type="text/css">
	.st0{clip-path:url(#SVGID_2_);}
	.st1{stroke:#231F20;stroke-width:9.67;stroke-linecap:round;stroke-linejoin:round;stroke-miterlimit:10;}
	.st2{fill:none;stroke:#231F20;stroke-width:9.8433;stroke-linecap:round;stroke-linejoin:round;stroke-miterlimit:10;}
	.st3{stroke:#FFFFFF;stroke-width:0.5956;stroke-linecap:round;stroke-linejoin:round;stroke-miterlimit:10;}
	.st4{fill:#FFFFFF;stroke:#231F20;stroke-width:0.5956;stroke-linecap:round;stroke-linejoin:round;stroke-miterlimit:10;}
	.st5{fill:none;stroke:#FFFFFF;stroke-width:0.5956;stroke-linecap:round;stroke-linejoin:round;stroke-miterlimit:10;}
	.st6{stroke:#FFFFFF;stroke-width:2.1093;stroke-linecap:round;stroke-linejoin:round;stroke-miterlimit:10;}
	.st7{fill:#ED1C24;stroke:#ED1C24;stroke-width:0.5956;stroke-linecap:round;stroke-linejoin:round;stroke-miterlimit:10;}
	.st8{fill:#FFFFFF;stroke:#FFFFFF;stroke-width:0.5956;stroke-linecap:round;stroke-linejoin:round;stroke-miterlimit:10;}
	.st9{fill:none;stroke:#231F20;stroke-width:0.5956;stroke-linecap:round;stroke-linejoin:round;stroke-miterlimit:10;}
	.st10{fill:#ED1C24;}
	.st11{stroke:#231F20;stroke-width:0.5956;stroke-linecap:round;stroke-linejoin:round;stroke-miterlimit:10;}
</style>
<g>
	<defs>
		<rect id="SVGID_1_" width="1920" height="1080"/>
	</defs>
	<use xlink:href="#SVGID_1_"  style="overflow:visible;fill:#FFFFFF;"/>
	<clipPath id="SVGID_2_">
		<use xlink:href="#SVGID_1_"  style="overflow:visible;"/>
	</clipPath>
	<g class="st0">
		<polygon class="st1" points="1527.3,441 1552.3,1019.7 2349,1064.4 2349,128.7 		"/>
		<g>
			<line class="st2" x1="1527.3" y1="441" x2="-513.9" y2="-339"/>
			<g>
				<line class="st2" x1="1579" y1="1185.4" x2="1527.3" y2="441"/>
				<line class="st2" x1="1111" y1="1146" x2="1077.3" y2="275.6"/>
				<line class="st2" x1="643" y1="1106.5" x2="627.3" y2="110.2"/>
				<line class="st2" x1="175" y1="1067.1" x2="177.2" y2="-55.2"/>
				<line class="st2" x1="-293" y1="1027.6" x2="-272.8" y2="-220.6"/>
			</g>
		</g>
		<g>
			<path class="st3" d="M852.8,949.4c0,0,23.9-80.2,23.9-107.6c0-27.3,7.1-104.9-2.9-123.9c-111.2-61.3-146.9-99.2-158.7-86.4
				c-11.8,12.8-30.9,129-28.6,144.7s55.6,182.4,65.2,186.5C761.3,966.8,852.8,949.4,852.8,949.4z"/>
			<path class="st4" d="M923,346.2c0,0-67.2,23.1-68.1,24.4c-0.9,1.3-86.6,34-97.4,52.6c-10.8,18.5-67.6,126.2-69.8,138.7
				s-12.1,105.5-9.9,112.4c2.2,6.9,94.8,38.8,102.5,38.8s60.3,9.5,73.2,2.1c12.9-7.3,63.8-42.6,72.8-49.5c9-6.9,58.2-93.9,89.2-127
				c32.9-35.2,47.4-87.2,47.4-95.7c0-8.6-8.6-21.1-14.6-24.9C1042.4,414.1,940.6,340.1,923,346.2z"/>
		</g>
		<g>
			<path class="st3" d="M1161.1,654.6c0,0-36.1,1.7-54.9,11.1c-31.7,2-53.7,6.1-56.4,8s-11.4,18.5-7.4,43.7
				c4,25.2,35.6,198.9,35.6,198.9l231.6-5.7c0,0-12.4-62.1,7.9-94.8s30.3-51.4,29.8-64.5c-0.5-13.1-11.3-43.1-29.6-50.8
				c-18.3-7.7-64.8-31.7-70-33.4C1242.5,665.5,1177.4,654.8,1161.1,654.6z"/>
			<path class="st4" d="M1165.9,642.9c0.2,0.6-6.2,27-5.8,33.2c0.4,6.2,34.8,75.3,34.8,75.3s30.3-37.7,35.2-45.8
				s11.2-43.7,10.4-48.1S1165.9,642.9,1165.9,642.9z"/>
			<path class="st5" d="M1161.1,654.6c-11.9,4.6-35.3,36.6-41.3,50.3c10.8,15.2,14.2,17.8,14.2,17.8s-18.3-7.4-18.3-5.3
				c0,2.1,22.3,120.8,60.1,187.2"/>
		</g>
		<path class="st3" d="M1325.2,918.2c-10.8-8.6-17.1-21.2-21.2-33.3c-4.1-12.2-1.8-43.3,2.7-55c4.5-11.7,7.8-109.5,6.8-118.1
			s10.7-7.2,17.1-2.3c6.3,5,36.5,90.6,44.2,105c7.7,14.4,38.3,97.3,40.6,108.2C1417.6,933.5,1325.2,918.2,1325.2,918.2z"/>
		<path class="st6" d="M-332.2,1003.7C-324,1001,958,881.9,958,881.9l1420.7,121.7L955.4,1791.3L-332.2,1003.7z"/>
		<path class="st5" d="M1205.5,904.7c0,0,43.3-78.9,52.5-101.1c9.1-22.1,15.6-65.9,14.7-65.5c-1,0.5-22.6,5.5-21.4,4.6
			s22.6-17.6,21.5-18.3c-1.1-0.7-22.3-60.1-33.6-62.5"/>
		<path class="st7" d="M1185.5,807.6h16.7c0,0,7.8,43.2,7.7,43.6c-0.1,0.4-20.5,58.5-20.5,58.5l-16.2-70L1185.5,807.6z"/>
		<path class="st8" d="M1207.1,807.6l8.3-15.5l7.1,9.6c0,0-9.2,37.3-9.1,36.9S1207.1,807.6,1207.1,807.6z"/>
		<path class="st3" d="M1064.6,671.4c-5.4-3-18.9-1.4-28.1,23.8s-48.3,90.2-64.2,120.9s-27,42.9-22.6,64.5
			c4.4,21.6,3,34.8,35.8,32.8s84.8-61.9,86.5-81.5c1.7-19.6-5.4-48.3-6.1-66.7c-0.7-18.4,3.9-58.8,5.1-70
			C1072.3,682.8,1064.6,671.4,1064.6,671.4z"/>
		<g>
			<path class="st3" d="M957.5,852.5c8.7-10.5,34.8-28.3,60.5-24.8c25.7,3.5,66.6,9.8,68.3,14.1c1.7,4.3,0.7,57.6,0,62.9
				c-0.7,5.3-16.6,12.5-34.7,11.7s-63.3-2.9-77.9-2.8C959.2,913.7,941.3,872.1,957.5,852.5z"/>
		</g>
		<g>
			<path class="st4" d="M1077.8,843.8c0,0-49.5,8.1-55.4,25.3c-5.9,17.2,3.2,39.9,49.9,35.6c7.9-4.4,14.9-7.9,14.9-7.9
				s10.6,9.6,15.1,11.7s28.8,0,28.8,0s14.2,12,25.4,9.6c11.2-2.4,11.2-7,11.2-7s0.8,5.3,12.6,4.4s14-5.7,14-5.7s0.3,5.9,6,5.7
				c5.8-0.1,11.4-9.8,11.4-16c7,6.2,10.8,7.5,10.8,7.5s4.8,19.6,11.3,21.6c6.5,2,6.8-2.1,6.8-2.1l-2.5-21.9c0,0-0.1-6.5-2.2-11
				c-2.1-4.4-3.4-5.1-8.8-7.2c-6.7-7.7-18.5-20-21.6-22.7s-22.4-19.9-27.3-22s-8.6-3.9-26.1,0
				C1134.6,845.7,1077.8,843.8,1077.8,843.8z"/>
			<path class="st9" d="M1077.3,904.7c0,0-31.7-5.9-33.9-20.3s8.1-35.4,34.4-40.5"/>
		</g>
		<g>
			<path class="st4" d="M1095.6,558c3.4,7,15.7,30.1,24.9,40.6c9.2,10.5,51.4,51.9,56.3,56.3c4.8,4.4,24.3,21.5,34.1,10.5
				c9.7-10.9,10.1-20.1-3.2-35.8s-35-46.3-46.2-61.6c-11.3-15.3-21.8-29.2-34-32.9C1115.3,531.5,1090.5,547.6,1095.6,558z"/>
			<path class="st4" d="M1007.1,524.4c5.4,3.6,21.5,7.9,26.7,3.9c17.8,15.4,36.4,26.7,43.7,26.7s6.9,2.8,6.9,2.8s3.6,9.7,8.1,10.1
				s26.3-11.3,32.4-15.8c6.1-4.5,13-13.8,10.9-19.9c-2-6-11.3-31.1-13.8-31.1s-9.3,0-9.3,0s-27.9-27-29.9-30.3
				c-2-3.3-14.9-24.4-19.8-28c-4.9-3.6-36.5-9.6-47.8-5.2C1003.9,442.1,995.8,516.8,1007.1,524.4z"/>
		</g>
		<g>
			<path class="st4" d="M814,769.3c0,0-7.1-18.1,17.9-22.6s71.7-18.1,80.7,0c3.8-30.1-5.3-61.9-12.8-67.1s-3.8-20.5-8.3-35.4
				c-4.5-14.9-3-12.7,0-21.7s16.6-31.8,8.3-47.1c-8.3-15.3-0.8-28-0.8-40.9c0-12.9-18.5-72.3-28.8-85.9
				c-10.3-13.5-54.7-39.1-66-27.8c-11.3,11.3-33.1,64.6-30.9,81.2c2.3,16.6,0.8,77.1,5.3,91.6c4.5,14.6,3.8,67.3,3.8,71
				s-9.8,16.6-6,29.4s9.9,32.5,15.1,49.8S814,769.3,814,769.3z"/>
			<path class="st4" d="M808.4,743.8c0,31,37.8,86.2,52.6,110.1c14.8,23.9,36.3,54.6,36.3,54.6s22.5,13.3,39.2,3.3
				c16.7-10,27.7-13.7,21.5-29.8c-6.2-16.1-18.6-33.5-26.8-52.3c-8.1-18.8-16.8-27.3-17.7-55.1c-0.9-27.8,6.2-44.9-7.6-54.5
				C892.1,710.5,808.4,718.3,808.4,743.8z"/>
			<path class="st4" d="M902.1,897.6c5.3-8.3,16.3-22.2,23.4-22.6c15.3-14.3,22.6-16.3,34.3-14.3c4-7.2,9.2-8.6,18.8-7.6
				c7.2-8.1,22-3.1,27.7,3.5c5.7,6.5,17.7,22,21.5,25.5c3.8,3.5,3.8,3.5,3.8,3.5s16.3,0.8,19.1,12.1s-2.4,13.2-4.8,15.1
				c-2.4,1.9-12.4,2.8-12.4,2.8s-4.8,7.2-20.1,5.8c-9.1,6.2-24.9,1-24.9,2.9s-16.3,7.2-26.3,0.3c-8.1,8.8-19.6,11.1-25.3,4.2
				c-5.7-6.9-10-10.7-15.3-6.9s-12.9,4.8-19.6-1.9S902.1,897.6,902.1,897.6z"/>
		</g>
		<g>
			<g>
				<path class="st4" d="M925.9,341.7c-1.9,9.7-4.3,41.5-3.5,56.7s27.6,67.2,41.5,71.8s25.6-18.2,28.3-22.1
					c2.7-3.9,4.3-56.3-4.7-64.4S925.9,341.7,925.9,341.7z"/>
				<g>
					<path class="st3" d="M1065.8,326c7-9.3,10.4-31.2,7.1-41.6c-3.3-10.4-12.6-41-25.2-46.5c-12.6-5.5-44.3-22.4-60.7-19.2
						c-16.4,3.3-41,14.2-52.5,24.6c-11.5,10.4-13.1,22.4-14.2,41c-1.1,18.6,0,52,2.7,61.8c2.7,9.8,18.6,29.9,23,30.8
						C950.4,377.9,1065.8,326,1065.8,326z"/>
					<path class="st4" d="M991.4,463.4c16.4,0.5,25.2,3.7,32.3-18.7c17-23.5,31.2-38.5,36.1-67.7c12.6-34.6,15.9-56.5,10.9-72.9
						c-12,12-26.3,14.8-30.1,14.8c-3.8,0-38.8-20.2-44.9-22.4c-6-2.2-19.7-11.5-23-12s-21.3,14.2-21.9,18.6
						c-0.5,4.4,9.8,24.1,9.8,24.1s-13.1-3.8-17-0.5c-3.8,3.3,0,42.7,0,42.7l-9.8-9.8c0,0-1.1-12.8-3.8-19
						c-2.7-6.2-8.8-24.3-14.8-20.4c-6,3.8-7.7,12-3.3,28.5c4.4,16.4,12,24.1,21.9,25.7c4.4,28.5,5.5,41.6,13.7,53.1
						C955.9,438.7,978.9,463.1,991.4,463.4z"/>
				</g>
				<g>
					<path d="M1066.6,363.1c-2.4-2.4-6.4-1.2-15.6,0c-7.8,1-17.8,0.2-19.1,4.4c-0.4,1.2-0.6,2.4-0.7,3.6c-2.2-1.6-5.4-2.8-9.4-1.8
						c-1.7,0.4-3.3,1-4.9,1.5c0.2-5.6-1.9-10.4-10.2-12.5c-12.7-3.2-25.2-9.8-34.5-9.5c-2.8,0.1-5,2.5-6.7,6
						c-12.2-6.4-37.1-19.1-37.1-19.1s2.8,6.4,3.6,10c8.4,5,22.2,11.6,31.2,15.8c-1.1,4.5-1.6,9.4-1.6,13c0.1,7.5,3.7,15,18.5,15.6
						c11,0.4,19,2.1,25.9-1.1c6.9-3.2,8-5.1,9.1-9.1c0.3-1.2,0.7-2.4,0.9-3.5c4.8-0.8,13.6-1.6,14.8,3.2c0.1,0,0.2,0,0.3,0
						c0.3,2.9,0.9,5.3,1.5,6.5c1.3,2.7,8,4.2,17.9,3c11.2-1.3,12.4-3.8,16.2-14.1C1069.4,367.7,1069.8,366.4,1066.6,363.1z"/>
				</g>
			</g>
			<path class="st4" d="M972.1,461.4c0,0-30.3,16-38.1,33.5c-13.8-28-18.8-104.5-17.9-113.3c0.9-8.7,6.1-13.5,6.1-13.5
				s-3.5,27.6,6,38.2C937.7,416.9,972.1,461.4,972.1,461.4z"/>
			<path class="st9" d="M978,462.7c8,3.6,18.1,21.2,20.5,32.2c12.5-19.7,20.8-36.3,20.8-36.3"/>
			<path class="st10" d="M967.2,493.5c-1.4-0.9-11.1-14.9-9.8-15.9c1.3-0.9,19.3-13.8,19.3-13.8l8.4,15.1l-5.6,13.1l8.3,285.6
				l-21.5,31.2l-27.5-29.3c0,0,11-199.9,11-221.5S967.2,493.5,967.2,493.5z"/>
			<path class="st11" d="M934.1,494.8l42.6-31.4l-4.6-2.1C972.1,461.4,935.4,478.3,934.1,494.8z"/>
			<path class="st11" d="M998.6,494.8"/>
			<path class="st11" d="M998.6,494.8c0,0-22.3-29.2-23.5-30.2s3.1-4,7.5,2.5c4.3,6.5,10.3,12.6,11.9,16.4
				C996.1,487.3,998.6,494.8,998.6,494.8z"/>
		</g>
		<path class="st4" d="M697.6,603.8c5.3-22.7-4.3-50.7-0.8-59.2c3.5-8.5,3.6-10.3,13.5-17.6s26.9-18.1,25.7-28.4
			c-1.2-10.4-51.1-117.6-60.7-120.6c-9.6-3.1-31.5,1.5-34.6,8.8c-3.1,7.3-22.7,26.5-20.4,42.3c2.3,15.8-9.2,33-13.4,40
			s0,38.4,0,38.4s76,212.6,76.7,209.9C684.4,714.7,688.3,643.5,697.6,603.8z"/>
		<path class="st3" d="M791.5,850.8c0,0-17.4-17-30.9-17c-15.3-24.3-37.2-230-42-241.5s-19.9-46.2-21.9-47.6
			c-0.6-0.4-18.1,12.6-24,44.4c-12.5,67.1-16.8,188-13.2,209.2c5.2,31.3,14.9,75.4,19.8,86.5c4.9,11.1,44.8,45.2,70.2,43.8
			C774.9,927.2,791.5,850.8,791.5,850.8z"/>
		<path class="st3" d="M832.8,367.6c1.4-1.7,7.6-14.9-4.5-36.8s-43.6-45.5-81.6-53.2c-38-7.6-70.6-12.2-100.9,19.8
			s-37.9,65.3-34.4,89.3c3.5,24,11.1,41.4,17,50c5.9,8.7,197-47.6,197-47.6L832.8,367.6z"/>
		<path class="st4" d="M727.2,524c-7.7-4.5-17.1-9.8-27.3-21.9c-18.8-22.2-23.8-35.3-24.6-39.2c-0.8-3.8,2.7-38.8,2.7-38.8
			s-15-9.6-19.2-16.9c-4.2-7.3-8.5-39.2-2.7-48.8c5.8-9.6,28.5-22.7,41.5,6.1c11.1,20.7,14.6,22.7,17.3,25.7
			c2.7,3.1,24.2-15,29.6-18.8c5.4-3.8,26.9,1.2,39.6-9.2c12.7-10.4,11.1-18.1,19.6-21.1c8.5-3.1,27.7,4.2,30.7,10.4
			c3.1,6.1,6.9,20,5.4,42.3c-1.5,22.3-5.4,26.5-5.4,26.5s-7.3,1.5-8.8,4.6c-1.5,3.1,5.8,41.5,6.1,45c0.4,3.5-2.7,6.5-5.8,6.9
			c-3.1,0.4-15.4,3.1-15.4,3.1l-2.7,14.6l-9.6,2.7c0,0,2.3,7.7,1.2,10.8c-1.2,3.1-10.8,8.8-10.8,8.8s1.5,18.1-4.6,21.1
			C777.9,540.9,745,534.5,727.2,524z"/>
		<path class="st3" d="M616.3,388.5c0,0-25.4-2.8-25,21.2c29.1,13.7,43.1-8,34.1-14.6C616.3,388.5,616.3,388.5,616.3,388.5z"/>
		<path class="st3" d="M616.3,426.4c0,0-0.3-15.6-3.1-18.1c-2.8-2.4-18.4-6.9-36.8,11.8c-18.4,18.8-46.6,34.1-47.6,53.9
			c-1,19.8,25.4,55.9,37.5,49.7c12.2-6.3,49.7-46.2,50-57S616.3,426.4,616.3,426.4z"/>
		<path d="M787.4,439.5c10.6,4.8,22.9-3.1,25.9-8.4s9.9-3.4,14.5,0c5-4.6,6.1-7.6,0-11.1c-6.1-3.4-6.1-3.4-6.1-3.4s2.3-8.8-5-12.2
			c-7.2-3.4-24.8-11.4-29.4-13.4c-4.6-1.9-12.2,4.2-12.2,7.2c-22.1-13-77.6-33.7-77.6-33.7l8.3,14.4l62.8,30.8
			C768.7,409.7,762.2,428.1,787.4,439.5z"/>
		<path class="st8" d="M616.3,466.7l54.3,96.6c0,0-20.7,37.3-21.5,34.4s-38.4-123.2-38.4-123.2L616.3,466.7z"/>
		<path class="st8" d="M672.7,589.1c0,0,13.6,45.2,15.2,40.4c1.6-4.8,8.8-84.8,8.8-84.8l-26.2,18.6L672.7,589.1z"/>
		<g>
			<path class="st4" d="M616.4,517.4c0,0,37,63,52.5,65.3c22-17.5,29-35.4,29-35.4s-0.2,66.5-5.7,86.3c-7.8-32-26.6-49.2-26.6-49.2
				s-10.7,7.2-22.1,20.9C632,619,616.4,517.4,616.4,517.4z"/>
			<path class="st3" d="M642.3,925.6c18.4-25.6,54.6-124.9,55.2-144c0.7-19.1-17-66.5-31.8-122.2c-8.4-31.8-47.7-179.6-59.6-196.7
				c-5.3-5.3-15.1-5.9-21,0c-5.9,5.9-23,14.5-23,14.5s-41.1-5.8-53.5-12c-8.7-4.4-57,2.2-68.2,14c-11.2,11.8-54.6,72.3-57.9,113.8
				c-3.3,41.4,8.5,278.1,16.4,307.7s12.5,71.1,12.5,71.1l222.6-17.6L642.3,925.6z"/>
			<path class="st3" d="M562.1,477.2c0,0,9.4,36.2,26.1,85.3c1,2.9,15.7-26.9,16.8-23.9c1.6,4.5-10.6,41.7-8.9,46.3
				c23.9,66.4,59.2,148,101.5,196.7"/>
			<path class="st3" d="M716.4,587.2c0,0-0.6,12.9-1.4,28.1c-0.2,2.8-7.5-20.9-7.7-18.1c-0.3,5,8,29.5,7.7,34.3
				c-0.6,9.2-1.6,28.4-2.2,32.8c-2.1,14.8-22.7,79.5-22.7,79.5s-5-25.2-6.5-26.5C682,716.1,698.4,599,700,589.5
				c1.7-9.5-3.3-44.8-3.3-44.8L716.4,587.2z"/>
			<path class="st10" d="M665,587.2c-0.6,0.4-11.8,14.5-11.8,14.5s8.7,35.6,10.2,34.4c1.5-1.2,8.1,1.4,8.9,0.4
				c5.5-7.1,5.5-19.1,5.5-19.1L665,587.2z"/>
		</g>
		<path class="st10" d="M665.3,642c0.9,0,7.4,0,7.4,0l13.8,44.5l-2.9,30.9L665.3,642z"/>
		<path class="st3" d="M365.5,861.9c1.3-1.6,67.1-77.6,70.4-90.1c3.3-12.5,1.3-18.4,8.5-26.3c7.2-7.9,65.8-69.7,74.3-87.5
			c8.5-17.8,35.5-56.5,38.1-80.2c2.6-23.7,8.5-85.5-22.4-101.9c-30.9-16.4-75.8-20.7-106.1,12.8c-30.2,33.5-69.5,75.3-74.8,85.8
			s-9.9,26.3-15.1,37.5c-5.3,11.2-86.1,121.6-91.4,138.1c-5.3,16.4-35.7,85.8-42.2,106.3c-6.5,20.6-10.4,52.8,0.1,60
			S350.5,880.7,365.5,861.9z"/>
		<g>
			<path class="st3" d="M1275,612.4c0.5-2.9,11.3-11.4,12.4-16.2c1.1-4.9,11.8-16.2,12.1-22c0.3-5.8-0.5-22.9-2.4-26.3
				c-1.8-3.4-5.3-6.6-7.4-7.6c-2.1-1.1-2.1-14.7-3.7-18.7c-1.6-3.9-7.4-19.7-14-21.1s-30-7.9-36.3-6.8c-6.3,1.1-24-0.1-24-0.1h-13.7
				c0,0-5.3,12.2-5.5,15.1c-0.3,2.9-1.8,8.2-3.9,9.5c-2.1,1.3-7.1,3.7-9.5,7.4c-2.4,3.7-6.1,10.8-6.6,14.2
				c-0.5,3.4-4.2,15.5-2.4,18.2s3.7,17.1,3.7,17.1l84.8,48.4L1275,612.4z"/>
			<path class="st4" d="M1172,670.3c10.3,6.7,24.5,2.9,36.1,2.1c11.6-0.8,40-12.4,42.9-20c2.9-7.6,6.8-16,6.8-16s12.1,0,15.5-7.1
				s11.8-19,10.3-26.1c-1.6-7.1-9-10.5-16.3-2.9c-7.4,7.6-7.4,7.6-7.4,7.6s5.3-28.4,5-32.1s5.5-5.5,6.1-9c0.5-3.4-6.3-23.4-9-27.9
				c-2.6-4.5-21.6-7.2-28.7-7c-7.1,0.2-19.7-2.2-23.7-4.8s-11.6-9-11.6-9s-17.6,16.1-20.3,23.4c-2.6,7.4-4.2,16.1-5.8,19
				c-1.6,2.9-7.1,11.8-9.7,19s-4.7,30.5-3.4,39.5s3.2,25.5,4.2,33.7S1162.8,664.2,1172,670.3z"/>
		</g>
		<g>
			<g>
				<g>
					<g>
						<path d="M1255.2,587.6c0.7-4.1-1.5-4.7-5.1-5.9c-5.1-1.8-10.3-3.4-15.5-4.9c-5.2-1.5-14.3-3.8-19.7-4.2
							c-3.9-0.3-8.3-0.4-11.8,1.7c-0.9,0.5-1.1,1.1-2,1.3c-1,0.2-2.3-0.2-3.2-0.5c-0.7-0.2-2.7-0.6-3.1-1.3
							c-0.3-0.4-0.3-1.7-0.7-2.4c-2-3.4-4.9-5.2-7.4-6.8c-6.7-4-12.5-5.4-21.2-7.9c-3.1-0.9-5.4-1.8-6.8,2.1c-0.7,1.9-0.4,3,1.1,4.5
							c0.7,0.7,0.8,0.5,1,1.4c0.3,1.2-0.2,3.5-0.3,4.8c-0.3,4.7-0.4,9.6,1,14.1c1.6,4.8,5.7,7.4,8.7,8.9c3.4,1.6,7.1,1.9,11.1-0.3
							c3.8-2.1,6-6.2,8.5-10.5c0.6-1.1,1.3-2.1,1.9-3.2c1-1.7,0.8-1.6,2.4-0.9c1,0.5,2.1,0.8,3.3,1.1c0.6,0.1,4.4,0.2,4.7,0.5
							c0.4,0.4,0.2,2.6,0.3,3.3c0.1,1.4,0.2,2.9,0.3,4.3c0.2,2.4,0.1,5,0.9,7.3c1.8,5.6,7.1,9.6,12.5,11.4
							c5.3,1.9,16.7,4.5,22.1,2.1c4.4-2,7.2-6.7,9.4-10.8c0.9-1.8,1.9-5.3,3.8-6.1c1-0.4,1.9,0.2,2.8-0.7
							C1254.8,589.4,1255,588.4,1255.2,587.6z"/>
					</g>
				</g>
			</g>
		</g>
		<path d="M1248.7,591.8c0.4,0.1,20.6,6.8,20.6,6.8s2.6-4.2,5.4-4.1c-13.9-6.7-19.8-11-21-11
			C1252.5,583.5,1248.7,591.8,1248.7,591.8z"/>
		<path class="st8" d="M1160.1,695.2c0.2-0.8,31.8,56.7,33.3,56.7s-29.9,31.4-29.9,31.1S1154.4,719.2,1160.1,695.2z"/>
		<path class="st8" d="M1194.9,751.9c0,0,41-43.8,41-42.9c-0.1,0.8-10.3,73.9-11.5,84C1203.5,756.7,1194.9,751.9,1194.9,751.9z"/>
		<path class="st7" d="M1193.4,765.1l-17.6,14.1c0,0,6.5,17.2,10.5,22.5c14.3,0,15.3,0,15.3,0l8.3-15L1193.4,765.1z"/>
		<path class="st8" d="M1164.7,791.5c0,0,5.8-5.3,5.9-4.6c0.1,0.7,8.6,15.9,8.6,15.9s-7.4,26-8.6,24.9
			C1169.4,826.6,1164.7,791.5,1164.7,791.5z"/>
		<g>
			<path class="st4" d="M873.8,932.2c0-7.2-36.8-41.4-61.8-54.6c-25-13.2-32.2-9.9-42.1-8.5c-9.9,1.3-25,11.8-38.1,13.8
				c-3.9,0.6-9.9,0.6-18.4,0.2c-3.6,17.5-9,47.5-7.4,65c4-0.3,7.1-0.6,9.3-0.7c12.5,6.6,101.3-6.6,101.3-6.6
				C838,937.9,873.8,939.5,873.8,932.2z"/>
			<path class="st3" d="M713.4,883.1c-3.9-0.2-8.3-0.5-13.4-0.8c-4.9-0.3-0.8-5-6.9-5.5c-19.6-1.5-53.6-6.9-88.1-8.9
				c-80.2-4.6-137.6-38.1-219.8-47.5c-144.7-16.4-182.1,80.9-180.2,96c2,15.1,29.6,56.5,92.7,59.8c59.4,3.1,344-23,408.2-28.2
				C704.4,930.6,709.8,900.6,713.4,883.1z"/>
			<path class="st4" d="M723.2,883.4c0,2-16.8,23.2-7.8,64c-15.1,1.2-24.8,2-24.8,2s2.4-65.3,12.5-66.9S723.2,883.4,723.2,883.4z"/>
		</g>
		<path class="st4" d="M799.7,868c0,0-4.7-5.2-8.3,5.4c-3.5,10.6-6.6,21-13,22.7c-6.4,1.7-16.1-3.3-15.6-9.5
			c0.5-6.1,7.1-21.8,9.7-27.2c2.6-5.4,10.2-14.7,13.7-16.8c3.5-2.1,18.9-0.5,23.2,7.3c12.3-2.1,21.5-1.2,23.4,5.2s1.9,6.4,1.9,6.4
			s8.8-2.1,11.4,4.7c2.6,6.9,3.5,9.5,3.5,9.5s4.3-4,8.8,5c4.5,9,6.6,27,6.9,31.9c0.2,5-3.3,11.6-8.8,12.3
			c-1.7,17.3-11.4,17.3-15.8,17c-5.9,5.2-24.4,6.9-22.5-9.2c-11.1-0.7-27-4.7-22.9-18.2c4-13.5,9.7-37.8,8-40.9
			C801.6,870.6,799.7,868,799.7,868z"/>
		<path class="st4" d="M1041.3,945.6l164.2,116.1c0,0,368.1-89.6,363.7-85.2c-4.4,4.4-334.5-30.9-334.5-30.9H1041.3z"/>
		<path class="st4" d="M899.1,939.8c7.2-1.4,295,64.6,340,76.4c250.7-66.1,250.7-66.1,250.7-66.1L1078,916.3L899.1,939.8z"/>
		<polygon class="st8" points="955.4,1878.7 955.4,1791.3 2378.7,1003.7 2378.7,1064.4 		"/>
		<polygon class="st8" points="-332.2,1003.7 -332.2,1035.5 955.4,1878.7 955.4,1791.3 		"/>
	</g>
</g>
</svg>
