<?xml version="1.0" encoding="utf-8"?>
<!-- Generator: Adobe Illustrator 24.0.0, SVG Export Plug-In . SVG Version: 6.00 Build 0)  -->
<svg version="1.1" id="Layer_1" xmlns="http://www.w3.org/2000/svg" xmlns:xlink="http://www.w3.org/1999/xlink" x="0px" y="0px"
	 viewBox="0 0 1920 1080" style="enable-background:new 0 0 1920 1080;" xml:space="preserve">
<style type="text/css">
	.st0{clip-path:url(#SVGID_2_);}
	.st1{clip-path:url(#SVGID_4_);}
	.st2{fill:#FFFFFF;}
	.st3{fill:#231F20;}
	.st4{fill:#FFFFFF;stroke:#231F20;stroke-width:0.2325;stroke-linecap:round;stroke-linejoin:round;stroke-miterlimit:10;}
	.st5{stroke:#231F20;stroke-width:0.2325;stroke-linecap:round;stroke-linejoin:round;stroke-miterlimit:10;}
	.st6{fill:none;stroke:#FFFFFF;stroke-width:0.465;stroke-miterlimit:10;}
	.st7{fill:none;stroke:#231F20;stroke-width:0.465;stroke-miterlimit:10;}
	.st8{fill:#808285;stroke:#231F20;stroke-width:0.465;stroke-miterlimit:10;}
	.st9{stroke:#FFFFFF;stroke-width:2.7137;stroke-miterlimit:10;}
	.st10{clip-path:url(#SVGID_6_);}
	.st11{fill:#FFFFFF;stroke:#231F20;stroke-width:0.8786;stroke-linecap:round;stroke-linejoin:round;stroke-miterlimit:10;}
	.st12{fill:#FFFFFF;stroke:#231F20;stroke-width:0.8786;stroke-miterlimit:10;}
	.st13{stroke:#231F20;stroke-width:0.1997;stroke-miterlimit:10;}
	.st14{fill:#FFFFFF;stroke:#231F20;stroke-width:0.2184;stroke-miterlimit:10;}
	.st15{fill:none;stroke:#231F20;stroke-width:0.8786;stroke-linecap:round;stroke-linejoin:round;stroke-miterlimit:10;}
	.st16{clip-path:url(#SVGID_8_);}
	.st17{fill:#FFFFFF;stroke:#231F20;stroke-width:0.2834;stroke-linecap:round;stroke-linejoin:round;stroke-miterlimit:10;}
	.st18{fill:#FFFFFF;stroke:#231F20;stroke-width:0.8638;stroke-linecap:round;stroke-linejoin:round;stroke-miterlimit:10;}
	.st19{fill:#FFFFFF;stroke:#231F20;stroke-width:0.8638;stroke-miterlimit:10;}
	.st20{stroke:#231F20;stroke-width:0.1963;stroke-miterlimit:10;}
	.st21{fill:#FFFFFF;stroke:#231F20;stroke-width:0.2147;stroke-miterlimit:10;}
	.st22{fill:none;stroke:#231F20;stroke-width:0.8638;stroke-linecap:round;stroke-linejoin:round;stroke-miterlimit:10;}
	.st23{fill:#ED1C24;}
	.st24{font-family:'SantanderHeadline-Bold';}
	.st25{font-size:271.8842px;}
</style>
<defs>
	<rect id="SVGID_1_" width="1920" height="1080"/>
</defs>
<clipPath id="SVGID_2_">
	<use xlink:href="#SVGID_1_"  style="overflow:visible;"/>
</clipPath>
<g class="st0">
	<defs>
		<rect id="SVGID_3_" x="-12.1" y="-6.8" width="1944.1" height="1096.1"/>
	</defs>
	<use xlink:href="#SVGID_3_"  style="overflow:visible;"/>
	<clipPath id="SVGID_4_">
		<use xlink:href="#SVGID_3_"  style="overflow:visible;"/>
	</clipPath>
	<g class="st1">
		<g>
			<g>
				<path class="st2" d="M901.6,1729.8c22.5,0.4,35.5-9.4,36.4-15.3s-1.9-11.9-1.9-11.9c3.6-6.1,2.1-43.3,2.1-43.3
					s10.7-13.6,12.9-18c2.2-4.4,1.4-25.8-4.4-34.7c-5.8-8.9-19.1-26.6-19.7-36.4s1.4-111.6,3.3-130.5c1.9-18.9,3.6-44.7-0.3-50.5
					s-6.4-18.6-4.7-24.1s4.4-61.9,6.4-82.7s6.7-39.7,8.3-69.7c1.7-30,7.5-64.1,9.7-70.2c2.2-6.1,2.2-78.8,4.2-105.2
					c1.9-26.4,13-97.4,13-133.4c0-36-152.3-33.6-161.6-2c-0.9,3,7.6,186.5,8.7,194.6c1.1,8,3.6,133.5,15,158.8
					c4.4,68.3-1.9,205.7,3.1,220.4c5,14.7,25.8,95.5,27.5,103c1.7,7.5-7.8,29.4-5,38.6s15.5,40.8,18,44.7
					c2.5,3.9-14.2,24.1-14.2,29.7s3.1,11.4,3.1,11.4s-5,9.4,1.7,15.3C869.7,1723.9,886.6,1729.5,901.6,1729.8z"/>
				<path d="M872.5,1661.8c0,0,16.5-25.4,42-24.2c-36,9.3-36.4,4.6-42,0c-5.6-4.6-7.3-16.8-6.8-18.5c4.9,7.4,27.7-4.6,38.2,4.6
					c-2-14.8-29.6-6.9-34.1-15.6s-10.4-29.5-10.4-29.5s-12.9,29.1-2.4,52.1C864.6,1647.3,872.5,1661.8,872.5,1661.8z"/>
				<path d="M904.1,1599.2c-21.7-7.8-57.8-86.8-68-109.8c-10.2-22.9-6.4-62-6.4-62S887.8,1578.5,904.1,1599.2z"/>
				<path d="M931.4,1580.1c-1.2-1.7-21.5-42.4-22.7-48.2s19.2-26.7,18.6-39.5c-0.6-12.8-1.8-69.1-7.3-80.1
					c-5.5-11-17.7-51.7-15.9-73.8c9.9,40.7,25.9,50.7,25.9,50.7s-0.9,124.7-1.5,139.2C927.9,1542.9,931.4,1580.1,931.4,1580.1z"/>
				<path d="M911.2,1313.8c0.7-5.8,25-63.1,26.4-75.3c1.3-12.1,14.5-97,13.5-106.7c-1-9.7,3.1-62.2,2.4-64.9
					c-0.7-2.7-12.9,19.7-11.5,27.7s-23.4,56.8-24.4,65.6c-1,8.9-6.4,44.3-6.4,44.3s13.6-36.1,15.7-44.3c2-8.2,19.1-45,19.1-42.9
					s-17.4,114.4-42.1,147.8c25.7-30.7,32.5-49.7,31.8-46.3S911.2,1313.8,911.2,1313.8z"/>
				<path d="M852.7,1289c0.6-2-17.4-41.2-23.7-51.8c-6.3-10.5-13.2-101.5-13.5-108.3s37.3,72.2,37.3,72.2s-38.7-95.9-40.4-130.7
					c-4,83.7,7.8,155.9,12.6,177.1c4.7,21.1,6,116.5,6,116.5s6.1-43.7,5.4-60.3c-0.7-16.7,27.2,30.3,27.2,30.3L852.7,1289z"/>
				<path d="M885.9,1707c12.9,3,29.6,6.9,37.1,6.1c7.4-0.9,15.6-11.2,15.6-15.6c0-4.3,0.8-30.6-0.5-38.2
					c-1.2-7.6-20.3-26.2-27.6-27.1s-32.4,19-34.2,21.2s-12.3,27.2-16.7,34.1c-4.4,6.8,1.8,15.4,1.8,15.4L885.9,1707z"/>
				<path d="M863,1718.1c0,0,31.5,5.3,44,5.8s29-4,30.9-9.4c0,8.7-21.8,16.8-38.1,15.8C870.7,1728.5,863,1718.1,863,1718.1z"/>
			</g>
			<g>
				<g>
					<path class="st2" d="M1073.3,810.8c-4.1-14.1-17.3-73-24-90.2c-6.7-17.3-3.8-92.2,3.8-109.4c7.7-17.3,27.8-44.2,38.4-36.5
						c10.6,7.7,21.1,47,25,57.6c3.8,10.6,16.3,92.2,19.2,102.7c2.9,10.6,5.8,43.2,7.7,48c1.9,4.8-5.8,56.6-19.2,61.4
						C1110.7,849.2,1084.9,850.7,1073.3,810.8z"/>
				</g>
				<path d="M1137.1,777.8c0,0-30.8,12.8-36.9,16.9s-33.6,14.2-33.6,14.2s-19-73.4-23.4-85.1c-4.4-11.7,0-59.2,0-59.2l3,59.2
					c0,0,25.1-17.3,30.4-30.3c-16.7,37-20.7,56.4-20,55.1c0.7-1.4,20.8-15.4,25.4-31.8c-6.3,26.7-17.6,45.9-17.6,45.9
					s0,19.4,0.7,18.1c0.7-1.4,25.3-48.9,26.3-67.9c-0.7,33.7-19.8,72.3-19.8,70.9c0-1.4,17.8-34.2,34.2-48.9
					c16.4-14.7,21.9-6.8,21.9-6.8s-14.4-0.3-23.9,19.1c-9.6,19.5-26.7,43-26.7,43s36.6-42,44.4-44.3c7.9-2.4,10.9,1.4,10.9,1.4
					l-46.8,41.4c0,0-9.6,7.9-12,10.6S1137.1,777.8,1137.1,777.8z"/>
				<path d="M1113.6,786.3c0.1,0.6-4.4,54,0,60.4c-10.9,4-37.1-25.8-39.4-43.7C1074,801.1,1113.6,786.3,1113.6,786.3z"/>
			</g>
			<g>
				<g>
					<path class="st2" d="M921.5,926.6c37-3.2,56.4,5.2,79-3.9c22.6-9.1,38.9-11,45.8-17.5c6.9-6.5,16.9-39.5,17.6-51.8
						c0.6-12.3,4.4-108.8,3.8-116.6s-2.3-17.8,5.5-33.7c29-59.1,2.6-93.3,13.3-112.7c10.7-19.4,10.3-22-3.5-27.8
						c-13.8-5.8-64.7-27.2-74.1-29.8s-20.9-24.4-23.4-27c-2.5-2.6-18.7-8.7-40-6.8c-21.3,1.9-78.8,8.6-86.6,21.4
						c-6.8,11.2-4.2,17.2-18.4,22.6c-13.6,5.2-82.6,28.9-87,35.4c-4.4,6.5,6.5,57.5,28.5,95.4c7.7,13.2-7.7,44.7-3.3,51.9
						c4.4,7.1,10.7,43.4,10.7,55.1c0,11.7-0.6,41.5,0,52.5c0.6,11,1.9,53.1,3.8,60.9s8.8,12.3,24.4,16.8S884.5,929.9,921.5,926.6z"
						/>
					<path d="M759.9,628c1.6,6.9,20.5,60.8,18.9,69.9s-4.1,32-1.1,36.2c3,4.2,10.3,21,10,30.2c-0.3,9.2-1.3,39-1.3,39l1.7,32.6
						l2.6,33.6c0,0-2.8,27.9,3.4,32.2c6.3,4.3,50.9,18.7,51.4,19.1c0.4,0.5-25.4-22.4-29-25.3s-10.6-11.8-13.1-21.5
						c-2.4-9.7-5-30.5-5-30.5s18,11.1,22.3,20c4.3,8.9,12.5,25.2,11.2,22.4s-4.6-26.8-6.7-32.8c-2.1-6-10.3-21-13.9-24.3
						s-14.2-16.5-14.2-16.5l2.1-38c0,0,0.2-21.6-5.9-29.6c-6.2-8-10.7-25.1-9.8-37c0.8-11.9,5-26.5-0.4-45.9
						C777.8,642.3,759.9,628,759.9,628z"/>
				</g>
				<g>
					<path class="st3" d="M852.7,535.5c0.1,1.5,0.5,3,0.8,4.5l1.1,4.4c0.7,2.9,1.5,5.9,2.3,8.8c1.6,5.8,3.2,11.7,5,17.5
						c1.8,5.8,3.6,11.6,5.7,17.2c1,2.8,2.1,5.7,3.3,8.4c0.6,1.4,1.2,2.7,2,4.1c0.7,1.3,1.5,2.6,2.5,3.6l0,0l-0.4-0.1
						c2.9-0.9,5.8-1.7,8.7-2.5c2.9-0.8,5.9-1.5,8.8-2.1c2.9-0.6,5.9-1.2,8.9-1.8c3-0.5,5.9-1,9-1.3l0,0c0.5,0,0.9,0.3,0.9,0.8
						c0,0.1,0,0.1,0,0.2c-0.8,5.1-1.5,10.1-2,15.2c-0.1,1.3-0.2,2.5-0.2,3.8c0,0.3,0,0.6,0,0.9c0,0.1,0,0.3,0.1,0.4
						c0,0.1,0,0.1,0,0.1c0,0,0,0-0.2-0.2c0.4,0.1,1.1,0.3,1.7,0.4c2.5,0.6,5,1.1,7.5,1.6l30.2,6.3l0,0c0.2,0,0.4,0.2,0.4,0.5
						l-0.3,71.5l-0.3,35.8c-0.1,6-0.2,11.9-0.5,17.9l-0.6,17.9c-0.8,23.8-1.5,47.7-2.5,71.5c-0.5,11.9-1.1,23.8-1.8,35.7
						c-0.4,6-0.8,11.9-1.3,17.8c-0.3,3-0.5,5.9-0.9,8.9c-0.4,3-0.7,5.9-1.4,8.8c0.7-2.9,0.9-5.9,1.2-8.8c0.3-3,0.5-5.9,0.7-8.9
						c0.4-5.9,0.7-11.9,1-17.9c0.5-11.9,1.1-23.8,1.5-35.7c0.9-23.8,1.8-47.7,2.6-71.5l0.7-17.9c0.3-6,0.5-11.9,0.6-17.9
						c0.2-11.9,0.3-23.8,0.4-35.8c0.1-23.8,0.1-47.7,0-71.5l0.4,0.5l0,0l-30.3-5.9c-2.5-0.5-5-1-7.6-1.6c-0.6-0.2-1.2-0.2-2-0.5
						c-0.4-0.2-0.4-0.4-0.5-0.5c-0.1-0.1-0.1-0.3-0.1-0.4c-0.1-0.2-0.1-0.4-0.1-0.6c0-0.4-0.1-0.7-0.1-1c0-1.3,0.1-2.6,0.2-3.9
						c0.4-5.2,1.1-10.3,1.9-15.4l0.9,1l0,0c-2.9,0.2-5.9,0.7-8.9,1.1c-3,0.5-5.9,1-8.9,1.6c-2.9,0.6-5.9,1.2-8.8,1.9
						c-2.9,0.7-5.8,1.5-8.7,2.3l0,0c-0.2,0-0.3,0-0.4-0.1l0,0c-1.2-1.1-1.9-2.5-2.7-3.9c-0.7-1.4-1.3-2.7-1.9-4.1
						c-1.2-2.8-2.2-5.6-3.2-8.5c-2-5.7-3.8-11.5-5.5-17.3c-1.7-5.8-3.3-11.7-4.8-17.5c-0.8-2.9-1.5-5.9-2.2-8.8l-1-4.4
						C853.2,538.5,852.8,537.1,852.7,535.5z"/>
				</g>
				<g>
					<path class="st3" d="M1002,528.2c3.3,4.1,5.5,8.9,7.5,13.8c1.9,4.9,3.5,9.9,4.8,14.9c2.7,10.1,4.8,20.4,6.5,30.7
						c0.9,5.2,1.6,10.3,2.3,15.5l0.5,3.9l0.1,1l0.1,0.5l0,0.3l0,0.1c-0.1,0.1,0.1-0.2-0.1,0.4c-0.2,0.2-0.4,0.1-0.4,0.1
						c-0.2,0-0.2-0.1-0.2-0.1c-0.7-0.3-1.2-0.7-1.7-1c-2.2-1.4-4.4-2.8-6.6-4.2c-4.4-2.8-8.8-5.7-13.2-8.4c-2.2-1.4-4.5-2.7-6.7-4
						c-1.1-0.6-2.3-1.3-3.4-1.9c-0.6-0.3-1.2-0.6-1.7-0.8c-0.6-0.2-1.2-0.5-1.7-0.5l0,0l-0.3-0.1c0,0,0,0,0,0c0,0,0,0,0,0
						c0.1,0,0.2,0,0.3,0c0.1,0,0.2-0.1,0.3-0.2c0-0.1,0.1-0.2,0.1-0.2l0,0c0,0,0-0.1,0-0.1c0,0,0,0.1,0.1,0.1
						c0.1,0.1,0.1,0.2,0.2,0.4l0.5,0.7l1.1,1.4l2.2,2.9l4.5,5.7l9.1,11.3l0,0c0.1,0.2,0.1,0.4-0.1,0.5c0,0-0.1,0-0.1,0.1l-26.7,9.9
						l-13.4,4.9l-6.7,2.4l-3.4,1.2c-1.1,0.4-2.2,0.8-3.4,1c0,0-0.1,0-0.1-0.1c0,0,0-0.1,0.1-0.1l0,0c1.1-0.2,2.2-0.7,3.4-1.1
						l3.3-1.2l6.7-2.5l13.3-5l26.6-10.2l-0.2,0.6l-9.2-11.2l-4.6-5.6l-2.2-2.9l-1.1-1.5l-0.5-0.8c-0.1-0.1-0.2-0.3-0.3-0.4
						c0-0.1-0.1-0.2-0.1-0.3c0-0.1,0-0.1,0-0.2c0,0,0,0,0-0.1c0-0.1,0-0.2,0.1-0.3c0.1-0.2,0.3-0.3,0.3-0.3c0.1,0,0.2,0,0.3,0
						c0.1,0,0.1,0,0.1,0l0.1,0.1l-0.3-0.1l0,0c0.8,0.1,1.4,0.4,2,0.6c0.6,0.3,1.2,0.6,1.8,0.9c1.2,0.6,2.3,1.2,3.5,1.9
						c2.3,1.3,4.5,2.7,6.7,4.1c4.4,2.8,8.8,5.6,13.2,8.5c2.2,1.4,4.4,2.9,6.6,4.3c0.5,0.3,1.1,0.7,1.6,1c0,0,0.1,0,0,0
						c0,0-0.1-0.1-0.4,0.1c-0.3,0.5-0.1,0.2-0.1,0.3l0,0l0-0.2l0-0.5l-0.1-1l-0.4-3.9c-0.6-5.2-1.4-10.4-2.2-15.5
						c-1.6-10.3-3.6-20.6-6.3-30.7c-1.3-5-2.8-10.1-4.7-14.9c-1.9-4.8-4.1-9.7-7.3-13.8c0-0.1,0-0.1,0-0.2
						C1001.8,528.1,1001.9,528.1,1002,528.2z"/>
				</g>
				<path d="M1031.2,752.7c0,0,0.1-14.8,18.1-32.2c18-17.4,23.7-17.4,30.6-34.1c-4.1,11.7-11.8,59-12.6,73.4
					c-0.8,14.5-0.8,49.1-0.8,49.1s-0.6,27.2-0.4,37.9c0.2,10.7-5.6,28.3-5.6,28.3s-3.6,21.1-12.5,28c-10.2,8-20.2,9-20.2,9
					s17.3-9.9,20-22.5c2.7-12.6,5.7-27.8,5.7-36.1c0-8.4-15.2-43-18.3-46.4c-3-3.4,20.2,26.6,20.2,26.6s-14.1-43-13.7-48.7
					c0,0,16,12.9,19,11.6c-8-31-9.5-50.8-1.1-66C1049.4,738.1,1031.2,752.7,1031.2,752.7z"/>
				<path d="M770,584.5c0,0,21.5,38.6,28.4,49.7c6.9,11.1,15.2,31.9,28.6,38.8c13.4,6.9,46.3,32.2,54.6,39.9s14.3,52,14.3,52
					s-13.9-44.1-20.8-46.6c-6.9-2.4-47.1-8-57.7-16.3c9.2,22.2,18.5,50.8,18,52.7s-2.4,35.6-2.4,35.6s-5-32.3-7.3-37.7
					s-13.9-34.3-13.9-34.3l-9.2-13.5l2.4,57.8l-10.4,41.1c0,0-3.7-32.6-2.3-51.1c1.4-18.5,1.8-67.7,0-82
					C790.6,656.4,770,584.5,770,584.5z"/>
			</g>
			<g>
				<path class="st2" d="M710.4,804.2c-6.4-1.8-14.8,0.1-15.6-5.1s14.7-80,18.3-96.7s11.5-27.1,15.5-51s4.8-38.2,11.1-51.4
					c6.4-13.1,15.1-31,25.5-21.5c10.3,9.6,23.5,45.8,28.7,58.1c5.2,12.3,8,37.4,8.8,50.6c0.8,13.1-14.3,73.6-15.5,82.8
					s-20.7,29.9-31.4,37.8C744.9,815.9,719.7,806.9,710.4,804.2z"/>
				<path d="M763.9,794.3c4.6-14.8,10.3-40.5,8.2-65.7c7.2,31.9,5.7,43.2,6.2,40.6c0.5-2.6,12.9-40.1,9.8-56.3
					c-3.1-16.2-1-30.1-4.1-37.3s-22.4-36-24.1-42.7c0,0,24.6,20.6,30.5,36s6.4-17,0-25.7c-6.4-8.7-9.8-38.4-9.8-38.4
					s19.9,48.7,24.5,59.5c4.6,10.8-6.6,61.2-7.2,75.6c-0.6,14.5-10.6,36.2-14.8,39.4s-17.7,25-19.7,24.4
					C761.4,803.2,763.9,794.3,763.9,794.3z"/>
				<path d="M731.9,630c-0.6,4.3,17.7,33.3,20.5,38.4c2.8,5.1,7.5,41.6,7.5,41.6s-10.1-33.9-12.6-37
					C744.9,669.9,731.9,630,731.9,630z"/>
				<path d="M726.6,661.4c-0.4,1.4,4.2,30.6,5.3,32.2c1.1,1.6,7.2,16.5,7.2,16.5s-8.1-8.2-10.2-11.8c-2.1-3.6-5.9-24.9-5.9-24.9
					L726.6,661.4z"/>
				<path d="M695.6,791c-0.9,9.9,8.9,14,10.2,9.3c1.3-4.8,2.6-40.4,3.3-47.6s3.1-21.5,3.1-21.5s-3.1,59.8-2.9,62.3
					c0.5,7.6,3.8,9,7.3,10.3c3.5,1.3,18.5,6.4,24.7,7.4c-17.5,0.7-33.6-7.8-35.1-6.4c-1.5,1.3-10.3-0.3-11.5-5.6
					C694.7,797.4,695.6,791,695.6,791z"/>
			</g>
			<g>
				<path class="st2" d="M983.1,471.9c0,0-2.9,37.2-2.5,49.2c0.3,11.9-1.4,55.2-31.7,95.9c-8.9-12.4-46.6-53.7-50.7-60.1
					s-21.3-37-22.9-66.4C874.3,461.1,983.1,471.9,983.1,471.9z"/>
				<path d="M873.9,495.6c6.1,26.5,4.7,40.1,15.7,55.2c11,15.1,58,55.9,60.8,69.9c18.6-32.7,34.1-64.7,34.8-71.3
					c0.7-6.7-2-31.3-5.3-42.9c-1.4,28.8-9.1,57-10.6,69.4s-19,34.9-19,34.9s-42.2-47.1-42.9-49.5c-0.9-14.9,32.2-35.4,32.2-35.4
					S867.8,469.1,873.9,495.6z"/>
				<path d="M907.5,561.3c2.3-11.8,17.2-3.6,21.9-6.7c4.7-3.1,18.9-12,18.9-12s5.5,34.9,0,41.9c10.4-22.3,9.2-41.7,12.7-52.8
					c3.5-11.1,12.3-30.4,12.3-30.4s-13.5,14.5-29.1,21.3c-15.6,6.8-28.3-5.5-34.4-3.3C903.7,521.5,907.5,561.3,907.5,561.3z"/>
			</g>
			<g>
				<g>
					<path class="st2" d="M1090.7,849.3c-10.3-15.5-11.9-36.6,1.6-45.8s19.1-16.3,32.6-19.5c13.5-3.2,36.6,0.4,46.2-4.4
						s26.3,0.4,25.9,9.2c-0.4,8.8-18.7,31.4-38.6,47.4c-19.9,15.9-49.8,19.9-54.5,22.3S1090.7,849.3,1090.7,849.3z"/>
				</g>
				<path d="M1159,803.6c-0.8,0.7-18.7,12.9-31,20.1c-4.4,2.6-24.9,18.2-29.6,16.3s-15-14.3-15.8-19.6
					c-1.7-11.5,16.2-17.2,30.5-24.7c18.9-9.8,53.4-14.2,58.1-16.1C1175.8,777.8,1174.3,789.5,1159,803.6z"/>
			</g>
			<path class="st2" d="M715.9,788.8c-9,6.3-18.3,33.4-5.6,51.7c12.7,18.3,23.9,28.3,42.2,21.5c18.3-6.8,25.9-23.9,19.5-39
				C765.6,807.9,725,782.4,715.9,788.8z"/>
			<path d="M759.9,818c-1.5,1.5-15.7,8-13.1,27.8c0.5,4.2-2.5,18.3-9.3,18.1c10,1.8,19.4-1.9,24.9-7.2c5.5-5.4,10.8-8.6,11.8-15.5
				c0.9-6.7,0.1-19.4-5.5-23.4S759.9,818,759.9,818z"/>
			<g>
				<g>
					<path class="st2" d="M912.1,541.1c9.5,5.7,31-5.7,40.1-12.8c9.1-7.1,20.9-25.3,24.4-33.3c3.5-8.1,8.2-33.4,8.2-33.4
						s8.8,1.5,16-8.4c17.6,0.5,29.7-2.5,28.7-24.2c-7.1,10.1-12.6,5-12.6,5s10.7-1.5,12.7-15.1c-9.1,6.6-13.2,0-13.2,0
						s14.1-14.6,0.5-21.2c-4.5-3.5-4.5-3.5-4.5-3.5l-1.5-12.6c0,0,25.2-4,27.7-15.6c2.5-11.6-24.7-34.8-57.4-46.4s-75.6-3.5-95.7,0
						c-20.2,3.5-28.7,15.1-29.2,22.2c-0.5,7.1,17.6,6.1,17.6,6.1l1.3,13.4c0,0-6,13.1-6,18.1c-19.3,17.4-9.2,29.2-4.6,32.3
						c4.6,3.1,10.9,6.6,10.9,6.6s-1,6.8-0.2,12.2c0.4,2.7,2.9,3.6,2.8,6.1c-0.2,4.8-2.8,8.7-3.5,14.4c-0.5,3.5-0.3,37,2.3,50.1
						c2.5,13.1,20,36.3,23.9,38.6C904.5,542.1,907,538.1,912.1,541.1z"/>
					<path d="M866.8,341.1c11.8-4.2,36.7-11.1,48.3-8.7s34.3,14,49.3,26.1s23.2,20.3,38.7,19.8c-67.7,5.8-127.6-11.1-128.1-16.9
						s-1.4-15-1.4-15S858.8,344,866.8,341.1z"/>
					<path d="M992.2,460.5c0,0,8.6-3.6,12.2-14.2c3-9,9.6-19.3,8-24.1c-1.6-4.8-12.1-5.2-16.1,0s-7.7,8.5-7.7,8.5s-1.6-5.6,0-9.3
						s1.6-10.5,3.2-12.1s8.5-6.5,11.3-6.1s9.7,1.7,9.5-3.6c-0.2-5.3,4.3-1.8,4.3-1.8s10,3,10.4,5c0.4,2,0,9.3-2,10.9
						c-0.9,0.7-2.7,1.8-4.4,2.8c-2.3,1.3-4.5,2.5-4.5,2.5s6.1,7.3,13.2,0c-6.3,9.3-10.7,9.6-10.7,9.6s4,8.1,10.7,0.5
						c-0.2,10.9-12.7,11.3-12.7,10.1s0,7.3,7.7,6.5c-7.3,10.9-15.8-3.2-15.8-3.2S999,459.4,992.2,460.5z"/>
					<path d="M869,379.5c0,0,18.4,20,59,23c40.6,3.1,84.4-8.3,84.4-8.3s-25.4,49.8-108.9,32.8C824.6,411,869,379.5,869,379.5z"/>
					<path class="st2" d="M992.5,418.4c0,0,9-6.3,14.5-3.5s10.9,3.2,13.2-3.4c2.3-6.6,0-9,0-9s1.9,9.1-3.9,9.2
						c-5.8,0.1-12.5-4.1-17-1.3c6-1.6,10.3,2.7,10.3,2.7S998.4,410.3,992.5,418.4z"/>
					<path d="M975.5,443.7c-0.8,0.3-10.8-3.1-11.4-3.6s-6.5-2.8-7.2-2.8c-0.6,0-13.7-0.8-15.7-0.1c-1.9,0.6-8.3,7.6-8.3,7.6
						s4.8,2.3,5.2,2.9c0.4,0.6,2.5,1.2,3.1,1.3s4.7,0.5,6.5,0.8c1.8,0.3,13.9,0.4,13.9,0.4s-1.8-3.9-3.5-4.9
						c-0.6-0.3-11.1-2.6-11.1-2.6s6-0.9,7-0.7s8.7,4.5,11.2,4.1S975.5,443.7,975.5,443.7z"/>
					<path d="M934.8,468c2.5-0.8,13.2,3.3,14.6,7.1c1.4,3.8,8.5,11.8,12.4,12.1c0,0-6.7,1.6-10.2,0c-3.5-1.6-4.1-5.7-6.5-9.3
						C942.5,474.3,934.8,468,934.8,468z"/>
					<path d="M948.3,501.6c0,0-23.2,3.1-30.5,2.4s-19.9-3.1-21.8-4.7s-9.5-5.9-10.6-6.6c-1-0.7-4.2-0.9-5.2,0
						c-1,0.9,4.7-3.5,5.9-3.5s5,4.2,6.2,4.7s13,4.8,15.9,4.6c2.9-0.1,7.8,3.5,8.8,3.5c4.9-2.9,9.9-1.2,14.7-1
						c4.9,0.2,10.1-1,13.4-2.1c3.4-1.1,8.9,3.6,8.9,3.6L948.3,501.6z"/>
					<path class="st4" d="M942.7,514.9c0,0-1.5,8.1,0,9.6c-0.8,0-2.3-0.1-3.8-2.4c-0.2,2,0.8,3.8,0.8,3.8s-3.5-1.4-3.5-2.9
						c-0.6,2.7,0,3.5,0,3.5s-4-0.3-4.8-0.8c-0.8-0.6-3.1-2-3.4-3.5c-0.3-1.5,0.4-4.1,0.7-4.6c0.3-0.5,0.5-2.9,0-3.6
						c0,0-1.3,3.2-2.3,4.3c-0.1-4.4-0.8-5.5-0.8-5.5s-0.8,5.2-1,5.9c-1.5-4.7-0.7-6.5-0.7-6.5s-2.4,3.2-1.5,6.6
						c-2-1.8-2-3.3-1.8-5.5c-2.5,3.1-0.2,5.5-0.5,5.5c0,0-3.8-0.5-4.4-6.6c-0.6,5.7,0.9,7.7,0.9,7.7s-4.4-4-2.9-8.4
						c-2.9,1.4-1.9,5.4-1.9,5.4s-4.4-4.1-2.9-7.3c-1.7,2.1-1.4,4.6-1.4,4.6s-0.4,4.7,0,5.1c0.4,0.4,0.1,5.7-0.7,7.2
						c0,0-1.3-4.4-1.4-5.4c-1.4,5.4-4.6,6.3-4.6,6.3s1.9-2.6,1.4-4.4c-3,3.4-5.9,2.5-5.9,2.5s3-1,3.6-2.5c0,0-3.6,0.4-4.3,0
						c0,0,1.4-3.3,2-4.5c0.6-1.1,0.6-1.1,0.6-1.1s-4.6,2.6-4,2.6c0.6,0,3-3,3.7-5.1c0,0-3.9,1.6-7,1.7c3.9,0.6,4.7-6.8,4.7-6.8
						s-3.4,4-5.9,3.1c3-3.1,3.1-7.1,3.1-7.1l-3.1,3.4c0,0,0.9-6.1,3.6-8.6c-3.3,2.1-3.6,5.3-3.6,5.3s0.1-4.6,2.3-7.2
						c0,0-4.7,3.2-4.3,5.5c1-7.1,1.7-9.1,1.7-9.1l-2.9-0.6c0,0-4.9-1.1-5-2.6s-3.6-4.6-3.9-5.4s-2.6-5.1-2.7-6.7
						c-0.1-1.6-1.9,2.6-1,3.9c0.9,1.3-1.6,9-0.2,12c0,0,0.1-4.4,1.4-5.1c-1.6,10.4-0.1,14.3-0.1,14.3s0.3-3.6,2.3-6.8
						c-3.1,11-0.3,17.8-0.3,17.8s-0.6-7.1,0.9-9.4c-0.9,9.4,3,16.8,3,16.8s-0.1-6.8,0.4-9.3c-0.4,9.3,2.9,15.4,2.9,15.4
						s-1.3-6.8-0.3-11.4c2,15.3,7,20.5,7,20.5s-0.9-4.6-2-8.7c2,8.7,8,14.3,8,14.4s-2.3-4.7-1.3-10c1.9,6.1,1.9,12.4,1.9,12.4
						s2.7-3,3-6.6c0,5.3,1.1,6,1.1,6l1.6-7.3l1.1,7.9c0,0,2.6-3,3.7-6c-0.9,4.4-1.4,6-1.4,6s4.1-1.7,5.4-5.3c-1,3.4-1.4,5.3-1.4,5.3
						s4.1-0.9,5.4-3.7l-1.3,2.9c0,0,4.6,0.3,5.1-1.7v2.6c0,0,4.7-1.6,5.9-4.3c-1,2.4-2.1,4.3-2.1,4.3s4.1-3.2,5.3-6.6
						c0,3.4-1.4,6.6-1.4,6.6s4.5-1.7,5-4.3c0,3.4-0.8,4.3-0.8,4.3s6.1-4.6,7-8c-2,5.4-2,5.4-2,5.4l6-7.8c0,0,0.2,4-2.1,6
						c5.1-3.4,6.3-6.4,6.3-6.4l-1.4,4.6c0,0,5.1-4.4,5.7-7.1c0,4.4-1.1,5.9-1.1,5.9s5.1-4,5.3-7c1.3,3.6,2.4,3.9,2.4,3.9
						s-0.4-4.6,0-6.1c2.4,3.1,3.3,2.1,3.3,2.1s-2-3.4-2.4-5.3c4,3,4.6,1.4,4.6,1.4s-0.9-2.9-2.1-4.8c1.4-2.6,6.6,0.4,9.4-0.8
						c0,0-2-1.9-2.9-3c0,0,3.4-1,4.3-2.4l-5.3-0.1c0,0,3.3-3.6,3.7-4.7s7.4-12.5,7.4-12.5l-1.1-4.5c0,0,8.1-25.2,8.2-33.4
						c-4.5,16.4-13.8,37-13.8,37l-8.1,11.4l3.1-5.9l-3.4,1L959,505l-4.8-2.4c-2.8,3-4.2,7.3-4.5,13.1c-2-7-2-7-2-7
						s-3.5,10.2-2.3,14.2C942.7,514.9,942.7,514.9,942.7,514.9"/>
					<g>
						<path class="st2" d="M921.8,485.9c0,0,10.3-5.2,12.7-4.4s8.8,6.5,13.8,2.6c-2.6,4-9.7,3.9-9.7,3.9s10.7,4,18.6-1.6
							c-9.8,6.6-9.6,5.8-8.9,5.8c0.7,0,8.6,2.7,14.7-1.7c-7.3,5.7-14.7,7.4-22,6.3c0,0,5.6,1.8,9.5,1.9c-8.5,1.4-18.1-4.7-18.1-4.7
							s1.3,2.4,6.7,5.2c-6.5,2.3-12-8.7-12-8.7s-1.3,5.7,1.7,8.2c-5.4-2.3-7.1-6.9-7.1-6.9s-0.2,2.5,0,5c0.2,2.6-6.9-0.6-7.4-4.7
							c-6.7,8.6-13.7,3-13.7,3s3.1-0.2,3.8-3.4c-10,4.4-12.2,2.4-12.2,2.4s4.4-1.9,4.8-3.5c-3,2.1-6,3.1-9.1,0c0,0,3-0.3,4-1.9
							c-6.4,2.5-10.3-0.6-10.1-0.6s5.2-0.3,7.1-2c-13.9-0.1-14-6.3-14-6.3s9.5,3.4,13.4,2c0,0-4.1-2.5-4.6-3.8
							c9,2.5,12.9,1.5,12.9,1.5s5.4-0.1,6.8,1.6c1.5,1.7,8.1,4.2,8.1,4.2L921.8,485.9z"/>
						<path class="st3" d="M921.7,485.7c2.1-1,4.3-2.1,6.5-2.9c1.1-0.4,2.2-0.9,3.4-1.2c0.6-0.2,1.2-0.3,1.8-0.4c0.3,0,0.6,0,0.9,0
							c0.3,0.1,0.6,0.2,0.9,0.3c2.1,1.1,4.1,2.4,6.4,3.2c1.1,0.4,2.3,0.6,3.5,0.5c1.2-0.1,2.3-0.6,3.2-1.3c0.1,0,0.1,0,0.2,0
							c0,0,0,0.1,0,0.1c-1,1.6-2.7,2.5-4.4,3.1c-1.7,0.6-3.5,0.8-5.4,0.9l0-0.2c1.5,0.5,3.1,0.9,4.7,1.1c1.6,0.2,3.2,0.3,4.8,0.2
							c1.6-0.1,3.2-0.3,4.7-0.8c1.5-0.5,3-1.2,4.3-2.1l0.1,0.2c-1.8,1.2-3.7,2.5-5.5,3.6c-0.9,0.6-1.9,1.2-2.8,1.7l-0.7,0.4l-0.1,0
							c0,0,0,0,0,0c0,0,0,0,0-0.1c-0.1-0.1-0.1,0-0.1-0.1l0,0l0.1,0c0.1,0,0.1,0,0.2,0c0.2,0,0.3,0,0.4,0.1c0.5,0.1,1.1,0.2,1.6,0.3
							c2.2,0.4,4.4,0.5,6.6,0.3c2.2-0.3,4.3-1,6.1-2.3c0.1,0,0.1,0,0.2,0c0,0,0,0.1,0,0.2c-3.1,2.4-6.6,4.4-10.4,5.5
							c-3.8,1.1-7.8,1.4-11.7,0.8l0.1-0.2c1.5,0.5,3.1,0.9,4.7,1.2c1.6,0.3,3.2,0.6,4.8,0.7c0.1,0,0.1,0.1,0.1,0.1
							c0,0.1,0,0.1-0.1,0.1l0,0c-3.2,0.5-6.4,0.1-9.5-0.8c-1.5-0.4-3-1-4.5-1.6c-1.5-0.6-2.9-1.4-4.3-2.2l0.3-0.3l0,0
							c0.3,0.6,0.8,1.1,1.3,1.6c0.5,0.5,1,0.9,1.6,1.4c1.1,0.9,2.3,1.6,3.6,2.3c0.1,0,0.1,0.1,0,0.2c0,0,0,0-0.1,0.1
							c-1.3,0.4-2.7,0.4-4-0.1c-1.3-0.5-2.4-1.3-3.4-2.2c-2-1.8-3.5-4.1-4.9-6.4l0.5-0.1v0c-0.3,1.4-0.4,2.8-0.2,4.3
							c0.2,1.4,0.7,2.8,1.8,3.8l0,0l0,0c0,0,0,0.1,0,0.2c0,0-0.1,0-0.1,0c-0.8-0.3-1.6-0.7-2.3-1.2c-0.7-0.4-1.4-1-2-1.6
							c-0.6-0.6-1.2-1.2-1.7-1.9c-0.5-0.7-1-1.4-1.3-2.3l0,0l0.7-0.1c-0.3,1.3-0.4,2.6-0.3,3.9c0,0.3,0,0.7,0.1,1
							c0.1,0.3,0,0.8-0.4,1c-0.7,0.4-1.4,0.1-2,0c-1.3-0.4-2.4-1.1-3.4-2c-1-0.9-1.9-2-2.2-3.5l0,0l0.8,0.2c-0.8,1-1.8,2-2.9,2.8
							c-1.1,0.8-2.3,1.4-3.6,1.7c-1.3,0.3-2.7,0.3-4,0c-1.3-0.3-2.5-0.9-3.6-1.7l0,0c0,0-0.1-0.1,0-0.2c0,0,0,0,0.1,0l0,0
							c0.9-0.1,1.7-0.5,2.4-1.1c0.3-0.3,0.6-0.6,0.8-1c0.2-0.4,0.3-0.8,0.4-1.2l0,0l0.3,0.3c-2,0.8-3.9,1.6-6,2.1
							c-1,0.3-2.1,0.5-3.1,0.6c-0.5,0-1.1,0.1-1.6,0c-0.5-0.1-1.1-0.1-1.6-0.4l0,0c0,0-0.1-0.1,0-0.2c0,0,0,0,0,0l0,0
							c0.9-0.4,1.8-0.9,2.6-1.5c0.4-0.3,0.8-0.6,1.2-0.9c0.3-0.3,0.7-0.7,0.8-1.1l0,0l0.5,0.3c-0.7,0.5-1.5,0.9-2.3,1.2
							c-0.8,0.3-1.6,0.6-2.5,0.6c-0.9,0-1.7-0.1-2.5-0.5c-0.8-0.4-1.5-0.9-2.1-1.5c0,0,0-0.1,0-0.2c0,0,0,0,0.1,0
							c0.7-0.1,1.5-0.3,2.2-0.6c0.7-0.3,1.3-0.7,1.7-1.3l0.3,0.3c-1.4,0.6-2.9,0.9-4.5,1c-1.5,0.1-3.1-0.2-4.5-0.8
							c-0.4-0.2-0.7-0.3-1-0.5c-0.1-0.1-0.2-0.1-0.3-0.2l-0.1-0.1c0,0-0.1-0.1-0.1-0.1c0,0,0,0,0-0.1c0,0,0-0.1,0-0.2
							c0.1-0.1,0.2-0.1,0.2-0.1c0.1,0,0.1,0,0.1,0l0,0l0,0l0,0l0.1,0c0.2,0,0.4,0,0.5,0c0.7-0.1,1.5-0.2,2.2-0.3
							c1.4-0.3,2.9-0.7,4-1.6l0,0l0.2,0.5c-2.8-0.1-5.5-0.3-8.2-1.2c-1.3-0.4-2.6-1-3.7-1.9c-1.1-0.9-2-2.1-2.2-3.5l0,0
							c0-0.1,0-0.1,0.1-0.1c0,0,0,0,0,0c2.2,0.7,4.4,1.4,6.6,1.8c1.1,0.2,2.3,0.4,3.4,0.5c1.1,0.1,2.3,0.1,3.4-0.3l0,0.2
							c-0.9-0.5-1.7-1.1-2.5-1.7c-0.4-0.3-0.8-0.6-1.2-1c-0.4-0.4-0.8-0.7-1-1.2c0-0.1,0-0.1,0.1-0.1c0,0,0,0,0.1,0l0,0
							c1.1,0.3,2.1,0.6,3.2,0.8c1.1,0.2,2.1,0.4,3.2,0.6c1.1,0.2,2.2,0.3,3.3,0.3c1.1,0,2.2,0,3.2-0.2l0,0l0,0
							c1.4,0,2.7,0.1,4.1,0.3c0.7,0.1,1.3,0.3,2,0.6c0.3,0.2,0.6,0.4,0.9,0.6c0.2,0.2,0.5,0.5,0.7,0.7c1.1,0.8,2.3,1.4,3.5,1.9
							c1.2,0.6,2.5,1.1,3.8,1.6l0,0L921.7,485.7z M921.8,486l-10-0.7l0,0c-1.3-0.5-2.5-1-3.8-1.6c-1.2-0.6-2.5-1.2-3.6-2
							c-0.3-0.2-0.5-0.4-0.8-0.7c-0.2-0.2-0.5-0.4-0.8-0.6c-0.6-0.3-1.2-0.5-1.9-0.6c-1.3-0.3-2.7-0.3-4-0.3l0,0
							c-1.1,0.2-2.2,0.2-3.3,0.2c-1.1,0-2.2-0.1-3.3-0.3c-1.1-0.1-2.2-0.4-3.2-0.6c-1.1-0.2-2.1-0.5-3.2-0.8l0.1-0.2
							c0.2,0.4,0.5,0.8,0.9,1.1c0.4,0.3,0.8,0.7,1.2,1c0.8,0.6,1.7,1.2,2.5,1.7c0.1,0,0.1,0.1,0,0.2c0,0,0,0-0.1,0.1
							c-1.1,0.4-2.3,0.3-3.5,0.3c-1.2-0.1-2.3-0.3-3.4-0.5c-2.3-0.5-4.5-1.1-6.6-1.8l0.2-0.1l0,0c0.1,1.3,1.1,2.5,2.1,3.3
							c1.1,0.8,2.3,1.3,3.6,1.7c2.6,0.8,5.4,1,8.1,1l0,0c0.2,0,0.3,0.1,0.3,0.3c0,0.1,0,0.2-0.1,0.2l0,0c-1.3,1-2.8,1.4-4.3,1.7
							c-0.7,0.1-1.5,0.2-2.3,0.3c-0.2,0-0.4,0-0.6,0c0,0-0.1,0-0.2,0l0,0l0,0l0,0c0,0,0,0,0.1,0c0.1,0,0.2,0,0.2-0.1
							c0-0.1,0-0.2,0-0.2c0,0,0,0,0-0.1c0,0,0-0.1,0-0.1l0,0c0.1,0,0.1,0.1,0.2,0.1c0.3,0.2,0.6,0.4,1,0.5c1.3,0.6,2.8,0.8,4.3,0.8
							c1.5,0,2.9-0.4,4.3-0.9l0,0c0.1,0,0.3,0,0.3,0.1c0,0.1,0,0.1,0,0.2c-0.5,0.7-1.2,1.1-1.9,1.4c-0.7,0.3-1.5,0.4-2.3,0.5
							l0.1-0.2c0.6,0.6,1.3,1.1,2,1.4c0.7,0.3,1.6,0.5,2.4,0.4c1.6-0.1,3.1-1,4.4-2l0,0c0.1-0.1,0.3-0.1,0.4,0.1
							c0.1,0.1,0.1,0.2,0,0.3l0,0c-0.2,0.6-0.6,1-1,1.3c-0.4,0.3-0.8,0.6-1.3,0.9c-0.9,0.5-1.8,1-2.8,1.4l0-0.2l0,0
							c0.4,0.2,0.9,0.3,1.4,0.4c0.5,0,1,0,1.6-0.1c1-0.1,2.1-0.4,3.1-0.6c2-0.6,4-1.4,5.9-2.2l0,0c0.1,0,0.2,0,0.3,0.1
							c0,0,0,0.1,0,0.1l0,0c-0.1,0.5-0.3,0.9-0.5,1.3c-0.2,0.4-0.6,0.8-0.9,1.1c-0.7,0.6-1.6,1-2.6,1l0.1-0.2l0,0
							c2.1,1.5,4.8,2.1,7.3,1.4c2.5-0.7,4.4-2.5,5.9-4.5c0.1-0.2,0.4-0.2,0.6-0.1c0.1,0.1,0.2,0.2,0.2,0.3l0,0l0,0
							c0,1.2,0.7,2.3,1.6,3.2c0.9,0.9,2,1.7,3.2,2.1c0.6,0.2,1.3,0.4,1.8,0.1c0.2-0.1,0.3-0.4,0.3-0.8c0-0.3-0.1-0.7-0.1-1
							c-0.1-1.3-0.1-2.6-0.2-4c0-0.2,0.1-0.4,0.3-0.4c0.2,0,0.3,0.1,0.4,0.2l0,0l0,0c0.3,0.7,0.7,1.5,1.1,2.2c0.5,0.7,1,1.3,1.6,1.9
							c0.6,0.6,1.2,1.1,1.9,1.6c0.7,0.5,1.4,0.9,2.2,1.3l-0.1,0.2l0,0c-0.6-0.5-1-1.1-1.4-1.8c-0.3-0.7-0.5-1.4-0.6-2.1
							c-0.2-1.5-0.2-3,0.1-4.4v0c0-0.1,0.1-0.2,0.2-0.2c0.1,0,0.2,0.1,0.2,0.1l0,0c0.6,1.2,1.3,2.3,2.1,3.4c0.8,1.1,1.6,2.1,2.6,3
							c1,0.9,2,1.7,3.3,2.2c1.2,0.5,2.6,0.5,3.8,0.1l0,0.2c-1.3-0.7-2.5-1.4-3.7-2.2c-0.6-0.4-1.1-0.9-1.7-1.4c-0.5-0.5-1-1-1.4-1.6
							l0,0c-0.1-0.1,0-0.2,0.1-0.3c0.1,0,0.1,0,0.2,0l0,0c2.7,1.6,5.6,3,8.6,3.9c3,0.9,6.2,1.4,9.3,0.9l0,0l0,0.2
							c-1.6-0.1-3.2-0.4-4.8-0.7c-1.6-0.3-3.2-0.8-4.7-1.2c-0.1,0-0.1-0.1-0.1-0.1c0-0.1,0.1-0.1,0.1-0.1c3.9,0.6,7.9,0.3,11.6-0.8
							c3.7-1.1,7.2-3.1,10.3-5.5l0.1,0.2c-1.8,1.3-4,2.1-6.2,2.4c-2.2,0.3-4.5,0.1-6.6-0.3c-0.5-0.1-1.1-0.2-1.6-0.3
							c-0.1,0-0.3-0.1-0.4-0.1c-0.1,0-0.1,0-0.2,0l-0.1,0l0,0c0,0,0,0.1-0.1-0.1c0-0.2,0-0.1,0-0.1l0,0c0,0,0.1,0,0.1-0.1l0.7-0.4
							c1-0.6,1.9-1.1,2.8-1.7c1.9-1.2,3.7-2.4,5.5-3.6c0.1,0,0.1,0,0.2,0c0,0.1,0,0.1,0,0.2c-1.3,0.9-2.8,1.7-4.3,2.2
							c-1.5,0.5-3.2,0.8-4.8,0.8c-1.6,0.1-3.2,0-4.8-0.2c-1.6-0.2-3.2-0.6-4.7-1.1c-0.1,0-0.1-0.1-0.1-0.1c0,0,0.1-0.1,0.1-0.1l0,0
							c1.8,0,3.6-0.3,5.3-0.9c1.7-0.6,3.3-1.5,4.3-3l0.2,0.2c-1,0.7-2.1,1.2-3.3,1.3c-1.2,0.1-2.4-0.1-3.6-0.5
							c-2.3-0.7-4.3-2.1-6.4-3.2c-0.3-0.1-0.5-0.3-0.8-0.3c-0.3,0-0.6,0-0.9,0c-0.6,0.1-1.2,0.2-1.7,0.4c-1.1,0.3-2.3,0.7-3.4,1.2
							C926.1,483.9,924,484.9,921.8,486z"/>
					</g>
					<path d="M926.4,472.1c2.7-0.6,4.7-0.5,5.2,1.4c0.5,1.9,1.3,6.6,0,7.6s-10.1,1.9-13.4,2.9s-8,0.4-9.3-1s-3.1-5.1-4.4-7
						s-1.6-6.3,0-8.1s6.1,0,6.1,0s4.5-9.7,4.9-11.1s1.4-11.4,1.4-13.4s-6.4-7.2-7.7-8.1s-16.4-4.3-19.4-4.7
						c-3.1-0.4-9.1,4.4-9.6,4.5c-0.5,0.2,6,3.3,7.7,3.4c1.8,0.2,13.1-0.1,13.1-0.1l-7.3,1l-4,2.4l4.1,1.9c0,0,6.5,1.1,7.4,1.2
						c4.1,0.4,7.6-2.4,7.6-2.4s3.7,4.6,3.5,6.4c-0.2,1.8-1.8,9.9-4.2,12.5c-2.4,2.6-8.3,5-9.9,6.4s-8.4,4.6-9.9,9.3
						c-1.4,4.7-6.8,4.9-8.2,5c0,0,6.2,3.1,8.4-0.4c4.8-7.7,10.2-8.6,10.2-8.6s3.1,12.1,5.3,15.5s13,1.3,18.2-0.8
						c5.2-2.1,11.3-5.2,12.2-6.4s-0.3-6.6-0.8-9C933.2,470,928,469.7,926.4,472.1z"/>
					<path class="st5" d="M978.4,422.7c0,0,1.8,13.6,2.9,15.4c-0.7-9.1,0-11.5,0-11.5s1.8,8.5,1.6,9.1c-0.2,0.5-1.4,9.1-1.4,9.1
						s2.1-5.1,2.7-6.6c0.5-1.4,3.7-6,3.7-6s2.3-2.9,2.8-3.5c0.6-0.6,7.8-2.2,9.6-2.9c1.8-0.7,5.7,1.6,5.3,3.9s-2.1,6.4-3.4,8.5
						c-1.2,2.1-4.4,6.7-4.8,8.9c-0.4,2.1-4,4.3-4.9,5.5c-0.9,1.2-4.7,2.7-4.7,2.7s5.3-4.6,6-6.6c0.7-2,0.2-1.8,0.2-4.3
						c0-2.5-1.5-2.7-1.5-2.7s-3.6,6.4-3.8,5.7c-0.2-0.7,0.7-3.2,1.4-5.1c0.7-2,3.4-2.8,4.1-5.3c0.7-2.5,4.1-6.3,4.1-6.3l-1.6,6.3
						c0,0,1.4,1.6,2,0c0.5-1.6,2.8-3.1,3-4.8c0.2-1.8,0.4-3.4-0.4-3.9s-5.3,0.6-6,1.3c-0.7,0.7-7.5,7.5-7.5,7.5s-3.4,6.4-3.9,7.6
						c-0.5,1.2-4.4,5.5-4.1,6.4c0.3,0.9,0.2-1.2,0-3.7c-0.2-2.5-1.6-6.2-1.5-8.2S978.4,422.7,978.4,422.7z"/>
				</g>
				<path d="M898.7,443.5c-2.4-0.4-11.4,2-12.9,3.3s-5.9,7.4-5.7,10.5c0.2,3.1,0,24.9,0,24.9s5.2,2.4,5.9,3.6
					c0.7,1.3,0.8,4.3-0.7,6.9c-1.5,2.6-2.6,10.4-1.1,12.4c1.5,2,6.8,15.7,7.2,17c0.4,1.3,4.9,3.3,4.9,3.3s7.8,1.5,8.5,2.6
					c0.7,1.1,1.3,7.9,0.9,9.6c-0.4,1.7-4.3-2.6-4.3-2.6l-3.1,0.3c0,0-1.2-1.4-3-3.6c-0.3-0.4-1,0.7-2.1,4.9c-1.4-4.8,0.4-7-0.1-7.6
					c-4.6-5.6-10.7-13.3-10.6-15c0.1-2.8-3.2-7.5-6-13.1c-2.7-5.6-1.9-19.9-2.1-23.3s-3.6-21.3-2.7-24.2c0.9-2.9,2.6-7.9,3.3-11.8
					s-1.5-3.8-3.4-7.4s-0.1-5,0-7.8c0.1-2.8,3.6-8.3,3.6-8.3l2.6-4.1l10.5,7l2,14.2l10.7,3L898.7,443.5z"/>
				<path d="M881.7,499.5c0.3-0.8,4.5-2.7,4.5-2.7s-1.5,2.8-1.7,5.6c1.6-2.2,2.5-2.3,2.3-2s-1.5,3.1-0.8,8c1.4-3.9,2-2.5,2-2.5
					s-1.7,3.6-1.4,6.1c2.2-1.8,3.5-2.3,3.5-2.3l-2,3.7c0,0,3.4,1.8,4.6,0.9c-2.9,0.7-3.9,0.9-3.9,0.9s2.9,4.6,5.6,2.3
					c-1.8,1.6-3.1,1.9-3.1,1.9s1.3,3.5,3.1,1.9c-1.1,1.6,0,5.2,0,5.2v2.2l-6.9-4.7L881.7,499.5z"/>
				<path d="M896,529.4"/>
				<path d="M894.4,528.7c0,0-3.4,2-3.1,4.1c-0.5-2.7,1-5.2,1-5.2s-2,0.3-1.9,1.8c-0.3-1.3,0.8-3.5,0.8-3.5s-3,0.3-2.8,2.3
					c-0.9-2.4,0.5-4.4,0.5-4.4s-2,2.3-1.8,3.4c-0.7-3-1.3-8.5-1.3-8.5l-1.3-5.8c0,0-2.1,4.8-1.7,7.6c-0.3-5-0.1-9.5-0.1-9.5
					s-2.9,0.3-2.6,3.7c-0.7-2.2,0.1-4.2,0.1-4.2s-1.7,1.7-0.4,6.3c-1.4-4.7,0.3-11.4,0.3-11.4s-2.4-2-2.9,0.3
					c-0.2-2.7,0.7-4.2,0.7-4.2l6.8,8.2l3.4,8.5L894.4,528.7z"/>
				<path d="M906.2,528.7c0,0,3-0.4,3.1-0.6c0.1-0.3,1.7-3.4,1-4.8c-0.7-1.3-0.6-4-0.6-4s-0.1,4.1,2.7,6.5c0.1-3.1,0.5-4.9,0.5-4.9
					l2.1,7.8c0,0,1.2-4.3,0.4-6c2.5,2.1,1.3,6.8,1.3,6.8s4-1.3,3.8-3.3c-0.2,5.2-3.4,6.7-3.4,6.7s2.1,3.1-0.5,6.3
					c-0.2-3.6-1.7-7.3-1.7-7.3s-1.2,4.3-0.5,7.3c-2-0.8-1.9-8-1.9-8s-1,9.9-3.3,12c1.3-8.6,0-10.3,0-10.3s-3.9,9.2-4.1,9.4
					s0-6.9,0-6.9l-0.5-5.5L906.2,528.7z"/>
			</g>
			<g>
				<path d="M1162.1,765.5c-1.2-1.2-6.1-34.4-41.3-58.3c77-63.6,134.5-115.8,134.5-115.8s48.2,14.6,45.8,59.5
					c-77.8,91.5-117.1,121.3-117.1,121.3l-18.7,5.7L1162.1,765.5z"/>
				<path class="st2" d="M1164.1,761.8c-1.2-1.2-5.9-33.7-40.5-57.1c75.4-62.3,131.7-113.4,131.7-113.4s47.2,14.3,44.8,58.3
					c-76.1,89.6-114.6,118.7-114.6,118.7l-18.3,5.6L1164.1,761.8z"/>
			</g>
			<g>
				<g>
					<path class="st2" d="M1184.9,805.9c5.5-0.8,22.7,0,22.7-6c0-4.4,0-4.4,0-4.4s15.1-1.2,10.7-11.5c10.7-3.6,10.7-11.9,8.4-15.5
						c0-15.1,3.4-20.7,1.3-25.5c-2.1-4.8-6.1-21.5-9.6-23.9s-12.3,0.8-9.6,8c2.8,7.2,5.2,14.3,5.2,14.3l-3.2,11.5
						c0,0-10.3-4.8-14.3-7.2c-4-2.4-6-3.6-14.3-5.2s-14.7-1.1-14.5,2.5c0.2,3.9,2.1,7.1,15.9,13.2c3.8,3,6.9,5.8,6.9,5.8
						s-10.7-0.4-13.1,0c-2.4,0.4-18.7-4.4-22.7-4s-6,11.5,0,13.9c-1.6,5.2-2.9,7.9,2,12.3c6.1,5.6,8.8,5.6,7.6,11.5
						C1163,802,1158.2,809.9,1184.9,805.9z"/>
					<path d="M1210.7,753l7.8,4.9c0,0,0.8-12.5,1-14.9c0.2-2.4-7.6-18.5-8.5-20.6s0.1-3,0.9-3.3c-5.5,2.3-4.5,4.9-3.3,8
						c1.2,3.1,5.2,14.3,5.2,14.3L1210.7,753z"/>
					<path d="M1211.9,775.1c0,0-14-6.4-16.6-9.6c-5.8-3.3-12.1-9.2-11.9-9.1c0.2,0.1-17.2-3.3-15.8-13.3c-0.9,4.3,17.2,9.6,18.5,9.4
						c1.4-0.2,8,7.3,10.1,8.1c6.9,2.7,11.8,9.1,13.4,9.6S1211.9,775.1,1211.9,775.1z"/>
					<path d="M1226.9,777.4c-5,3.9-9.4,2.1-10.9,1.3c-1.5-0.8,1.5,1.5,2.3,5.4C1225.6,782.3,1226.9,777.4,1226.9,777.4z"/>
					<path d="M1151.2,762.7c0.7-2.1,2.5-3.8,9-1.9s15.2,4.2,16.5,4.2s19.9,2,23.2,3.9c-5.5-7.5-9.5-6.8-9.5-6.8s-10.3-0.8-14.1,0
						c-7.2-2-19.4-4.2-21.7-4C1152.4,758.4,1151.2,762.7,1151.2,762.7z"/>
					<path d="M1154.6,772.1c0,0,18.6,5.2,20.4,5.3c1.8,0.1,26,10.9,26,10.9s0.7,1.7,0.8,2.2c0.1,0.5-3.4-1.4-4.4-2.3
						c-1-0.9-22.3-7.2-22.9-7.5c-0.6-0.3-15.3-4.8-16.3-4.8c-1,0-5.2,3.2-2.8,6.4s13,9.6,15.1,10.2s21.1,5.9,22,5.8
						c1-0.1-16.1-2-18.2-2.5c-2.1-0.6-9.3-3.6-12.8-6.1c-3.5-2.5-9.6-8.2-9.4-10.6C1152.6,773.2,1154.6,772.1,1154.6,772.1z"/>
				</g>
				<path d="M1206.8,801.9c-6.8,2.6-11.2-1.3-10.4-1.8c0.9-0.5-9.4-0.4-12.1-1.9c-2.7-1.5-9.4-0.2-9.9-2.5
					c-0.5-2.3-17.8-11.3-17.8-11.3s0.1,12.8,2.4,15.7c2.2,2.9,9.4,7.5,16.6,6.8C1182.7,806.2,1203.9,805.6,1206.8,801.9z"/>
			</g>
			<g>
				<path class="st2" d="M960.7,1149.1c3.9,14.4,25.8,61.3,28.6,79.9c2.8,18.6,5,56.3,4.4,67.7s0,24.1,13.6,32.2
					c-1.7,17.8,0.8,28.6,1.1,34.4s-4.7,23-6.7,55.5c-1.9,32.5,1.4,74.4-0.3,98.8c-1.7,24.4-11.1,86.6-7.8,119.9
					c-3.6,20.8-2.5,33.3-0.6,36.9c-5.6,4.2-8.6,20.5-4.2,21.4c4.4,0.8,27.5,7.5,54.7,17.5c27.2,10,41.6,11.7,65.8,12.5
					c24.1,0.8,33.3-9.2,33-16.1c-0.3-6.9-3.6-6.9-3.6-6.9s-1.4-11.7-19.7-21.4s-38.3-25.3-40-30c-1.7-4.7-1.1-27.8-1.7-33.6
					s-10.5-22.8-10.3-33.6s20.5-34.1,26.4-59.4s5.8-89.7,7.8-108.5c1.9-18.9,6.9-68,6.7-86.1c-0.3-18,0-52.5-3.1-58.6
					s0.3-36.4,0.3-36.4c-1.1-8.9-5.3-12.5-5.3-12.5s0.3-61.3-5.3-116.3c-5.6-55-14.2-85.5-10.8-96.6c3.3-11.1,9.7-11.1,7.8-34.4
					c-1.9-23.3-23-45.2-23-45.2s-1.7-22.5-3.1-25c-1.4-2.5-6.9-3.6-6.9-3.6s-93,0.8-135.7,2.2c6.4,132.7,22.8,221.9,28,227.9
					C956.3,1137.8,956.9,1134.6,960.7,1149.1z"/>
				<path d="M1003.7,1504.8c-2.1,12.9-4.5,50.7-3.7,63.4c0.7,12.7-1.6,25.3,1.8,21.6c3.4-3.7,37-17.2,42.2-42.2
					c-11.2,7.1-32.1,19-32.1,19s0-51.5,0-53.3s2.2-44.3,0-50.3c-2.2-6,7.3-35.8,10-44c2.7-8.2,34-32.1,40.7-50.7
					c-19.4,17.9-59.7,50.3-61.1,59.1C1000,1436.2,1003.7,1504.8,1003.7,1504.8z"/>
				<path d="M1008.9,1407.1c0,0-0.7-17.9,6-27.6c6.7-9.7,41.7-39.5,43.2-46.2c-20.1,16.4-49.9,38.8-52.9,46.2
					C1002.2,1387,1008.9,1407.1,1008.9,1407.1z"/>
				<path d="M1008.9,1357.2c0-3.7,3-28.3,4.5-34.3c1.5-6,23.1-13.4,23.1-13.4s-17.9,16.4-19.4,23.9
					C1015.6,1340.8,1008.9,1357.2,1008.9,1357.2z"/>
				<path d="M1022.7,1296.8c0,0-13-5.2-29.4-54.4c-1.4-4.3-2.9-8.7-4.5-13.2c-16.2-46.3-48.8-125.1-48.8-125.1l13.9-66.9
					c0,0,39.4,24.1,55.1,22.6c15.7-1.5,22.1-3.4,56.2,17.7c-28.8-13.4-42.8-6.9-60.7-7.1c-17.9-0.2-26.1,0-26.1,0s27.6,7.3,41.7,14
					s54.2,40.3,54.2,40.3s-41.5-23.9-54.2-26.1c-12.7-2.2-56.6-9.7-56.6-9.7s11.2,85.7,52.2,120s38.3,41.7,38.3,41.7l-77.1-74.5
					c0,0,60.4,85,81.2,100.6C991.8,1208.8,1022.7,1296.8,1022.7,1296.8z"/>
				<path d="M1084,1010c0,0-9.6-13.6-12-24.1c7,3.5,11.1-0.4,12-5c0.8-4.6-16.2-44.1-16.2-44.1s24.2,21.7,26,28.7
					c1.8,7-3.8,28.9-4.7,33.6S1084,1010,1084,1010z"/>
				<path d="M1080.2,1552c3.9-11.2,8.6-39.5,9-61.6c0.3-22.1-4.5-85.6-4.5-85.6l10.4,58.9c0,0,2.5-63.9,2.5-65.8
					c0-1.9-5.4-37.2-5.4-45.7s0.4-31.7,0.4-31.7s-0.8,31.3,2.5,36.8s6.8,38,7.9,45.3c1.2,7.4-2.3,92.9-5.8,107.6
					C1093.7,1524.9,1080.2,1552,1080.2,1552z"/>
				<path d="M1091.7,1254.6l8.4-31.7c0,0-0.7-42.7-1-50C1095.6,1209.7,1091.7,1254.6,1091.7,1254.6z"/>
				<path d="M1105.4,1235.4c0,0-7.3,41.3-9.5,43.6c-2.2,2.3-4.2,26.3-4.2,26.3s7.7-21.6,11.5-21.7c3.8-0.1,4.8,32.5,4.7,30.2
					s2.9-29.1,0-35.6C1105.1,1271.8,1105.4,1235.4,1105.4,1235.4z"/>
			</g>
			<path d="M993.8,1637.6c0,0,6.5,20.1,18.6,21.6s43.4-3.3,48.3-5.2c4.9-1.8,18.6-2.6,18.6-2.6s37.8,28.6,47.5,34.7
				c9.7,6.1,12.5,14,12.2,16.6c-2.5,19.9-58.9,11.7-83-2.1c-6.8-3.9-17.2-17.3-28.1-18.8c-10.9-1.5-29.6-6.7-34.7-7.5
				c-5.1-0.7-6.9-12.3-6.3-19.6C987.5,1647.7,993.8,1637.6,993.8,1637.6z"/>
			<path d="M987.8,1691.7c0.9-0.3,28.8,6.7,36.4,8.2c7.6,1.5,35,21,64.5,22.5c29.5,1.5,51.3-1.5,53.8-12.7
				c0,10.8-15.4,18.6-37.5,17.1s-38.2-3-55.6-10.4c-17.4-7.4-39.7-14.6-58.4-20C984.8,1694.5,987.8,1691.7,987.8,1691.7z"/>
			<g>
				<g>
					<path d="M1029.6,893.7c9.6-27.5,28.9-36.4,24.3-104.8s3-168.2-0.8-177.8l-11-68.4l-33.4-9.9c0,0,19.2,43.2,14.6,112.1
						c-1.3,19,18.5,140.1-7.6,235.2C1012.4,918.4,1029.6,893.7,1029.6,893.7z"/>
					<g>
						<path class="st6" d="M1020.8,587.4c0.3,7.4-0.3,13.2,8.8,15.2c9.1,1.9,18,3.5,20.7,3.9c2.7,0.4,4.1-3.1,3.6-6.6
							c-0.5-3.5-1.9-7-10.6-8.6C1035.2,589.9,1020.6,583.9,1020.8,587.4z"/>
						<path class="st7" d="M1020.1,585.6c0.3,7.4-0.3,13.2,8.8,15.2s18,3.5,20.7,3.9c2.7,0.4,4.1-3.1,3.6-6.6
							c-0.5-3.5-1.9-7-10.6-8.6C1034.5,588,1019.9,582.1,1020.1,585.6z"/>
					</g>
				</g>
				<path class="st8" d="M1031.7,888.3c0.6-3.4,24.9-47.4,25.9-62.3c1-15,3.6-67.4-1.1-77.4c-4.6-10-47.5-17.1-64.4-17.4
					s-136.1-14.5-161.1-18.3c-25-3.8-34.4,3.6-38.4,39.8c-4,36.2-3.2,80.7-3.2,80.7s204,30.6,213.5,33.5S1031.7,888.3,1031.7,888.3z
					"/>
				<g>
					<g>
						<polygon points="973.3,964.3 1031.7,765.5 900.5,743 856.2,936.7 						"/>
					</g>
					<polygon class="st2" points="969.8,960.8 1028.1,761.9 896.9,739.5 852.6,933.1 					"/>
				</g>
				<g>
					<g>
						<polygon points="952.8,991 982.8,785.9 849.8,782 832.9,980 						"/>
					</g>
					<polygon class="st2" points="948.8,987.9 978.8,782.9 845.8,779 828.9,976.9 					"/>
				</g>
				<g>
					<g>
						<polygon points="942.6,953.4 931.1,746.4 800,769.1 823,966.5 						"/>
					</g>
					<polygon class="st2" points="938,951.2 926.5,744.3 795.4,767 818.4,964.3 					"/>
				</g>
				<g>
					<path class="st2" d="M691.7,1022.9c3-3.6,14.4-20.7,14.4-20.7l40.7-65.5c0,0,13.8-49.2,16.9-63.2c3.2-14,12.2-49.7,12.2-49.7
						s229.2,39.6,232.8,40.4c3.5,0.9,9.2,10,12.7,16.1s8.2,13.4,8.2,13.4l-60.2,223.9c0,0-3.9,0.3-13.6,0
						c-9.8-0.3-150.3-34.7-157.5-36c-7.2-1.4-75.1-11.2-75.1-11.2s-24.1-29.8-26-33.2C695,1033.8,691.7,1022.9,691.7,1022.9z"/>
					<path d="M775.1,821.9c0.9,2,57.4,7.6,81.5,11.5c24,4,146.5,28,152.2,30.9c5.7,2.9-41.9,167.9-41.9,167.9l50.9-158.3
						c0,0,8.5,15.2,11.9,19.9c3.4,4.6-17.3,95.4-20.9,102S972,1117,969.4,1117.6c-2.7,0.7-17.1-39.1-17.1-39.1s5.2,33.1,7.1,39.1
						c-39.1-6.6-162.6-38.4-176.4-38.4c-13.8,0-55.2-8.4-60-8.8s-31.9-39.5-31.3-44.2c0.7-4.6,225.7,45.7,243.1,49
						c-43-17.9-240.1-56-240.1-56s44.2-65.3,52.1-82.5S775.1,821.9,775.1,821.9z"/>
				</g>
			</g>
			<g>
				<path d="M784.8,805.5l46,12.8l-10-138.5c0,0-173.5-42.4-181.1-54.3c11.4,77.2,33.4,137.2,33.4,137.2L784.8,805.5z"/>
				<path class="st2" d="M780.1,799.7l44.8,12.4l-9.7-134.7c0,0-168.8-41.3-176.2-52.9C650,699.7,671.4,758,671.4,758L780.1,799.7z"
					/>
			</g>
			<g>
				<path class="st2" d="M753.3,840.2c-7.2,0.1-8.8,1.5-13.2-4.5c-3.7,0.3-6.8-0.2-9.2-1.2c-3.3-1.4-5.4-3.8-5.8-6.3
					c-7.2-1.2-9.2-4-10-9.6c-6.8,3.2-8.4,3.6-10.3-4s-3.2-16.4,4.4-22.3c4.4-6.7,7.2-15.5,11.1-22.3c4-6.8,13.9-15.1,17.5-17.1
					c3.6-2,3.7,6.2,3.7,11s-7.2,12.5-7.2,12.5s-9.2,13.1-9.2,14.3s0,10.7,0,10.7s12.3-14.7,14.7-18.3s9.6-10.7,13.5-12.7
					s12.3-8.8,16.7-5.6c4.4,3.2,1.3,7.8-1.7,12.3c-2.9,4.3-13.9,10.8-14.7,14.8s-7.2,15.9-7.2,15.9s11.9-4,15.5-6.8
					s13.5-11.5,13.5-11.5s5.7-12.8,10-10.4c1.9,1,4.8,6.9,2.8,9.7c2.6,1.5,2.7,5.8,0.3,9.5c-4.3,6.8-10.3,21.9-12.7,25.5
					S756.9,840.1,753.3,840.2z"/>
				<path d="M725,828.2c2.3,1,18.2-4.9,19.3-8.5c1.1-3.6-0.5-5,0.2-8.1c0.8-3.1,15.8-2.4,18.8-7.8c2.8-5.1,9.7-10.5,12.2-14.1
					c2.5-3.6,9.7-14.4,13.4-4.4c0.3-4.4-3.6-8.1-6.8-6.1c-2.8,1.8-5.9,10.4-22.3,22.7c-1.9,1.6-10.7,5-13.4,6
					c5.3-7.5,7.9-17.5,7.9-17.5s-7.9,17.5-17,20.7C734.3,824.3,725,828.2,725,828.2z"/>
				<path d="M719.2,810.1c-3.6,3.3,0.8,15.9-0.5,15.9c-1.2,0.1-7.7-8.4-2.1-22.3c0.8-1.9,5-4,6.4-11.6c0.6-3.3,5.3-15.1,7.5-17.8
					c2.2-2.7,10.5-10.3,10-20c0,0,4.7,10.5-2.7,17.5c-7.3,7-12.8,28.2-12.8,28.2s13.4-18,16.4-20.8c2.9-2.8,13.9-10.8,18.5-13.9
					c4.6-3.1,9.9-2.9,11.4-0.7c1.5,2.2,0.8,7.7,0.5,6.4c-1.7-6.3-5-5.4-6.9-4.2c-1.9,1.2-17.3,10.9-19,13
					c-1.6,2.2-13.3,16.1-20.9,25.9C721.7,806.3,722.1,807.4,719.2,810.1z"/>
				<path d="M751,798.3c0-0.2,2.8-9.2,2.8-9.2s11.6-8.4,13.1-10.1c-6.8,6.9-11.8,10-12.5,11.5S751,798.3,751,798.3z"/>
				<path d="M787.6,790.2c0,0-6.5,15-15.4,24.5c-6.8,7.2-16.1,9.1-18.6,10.6c0.6,6.9-4.4,7.5-6.5,9c-2,1.4-8.6,1.6-7.9,1.6
					c0.7,0,9.5,0.3,11.4,0c1.9-0.3,3.5-2.6,3.8-4.5c0.3-1.9,4-2.7,3.8-3.2c-0.1-0.2,6.8-3,14-10.4c7.5-7.7,15.4-20.1,16.2-21.2
					c1.6-2,0-7.6,0-7.6L787.6,790.2z"/>
				<path d="M750.6,835.9c0,0,2.9,1.8,6.4,0c3.4-1.8,16.3-11.2,18.1-14s10-17,9.7-16.4c-0.3,0.6-7.9,19.9-11.2,22.8
					c-3.3,2.9-17.3,11.9-18.6,13c-1.3,1.1-12.9,1.2-13.7-1c-0.8-2.1-1.3-4.7-1.3-4.7L750.6,835.9z"/>
			</g>
		</g>
		<g>
			<g>
				<circle class="st9" cx="1453.8" cy="479.5" r="116.5"/>
				<circle cx="1467.1" cy="479.5" r="107.1"/>
				<g>
					<defs>
						<path id="SVGID_5_" d="M1512.5,378.9c-159.9-93.2-315.8-123.6-348.2-68s71,176.2,230.9,269.4s315.8,123.6,348.2,68
							S1672.4,472,1512.5,378.9z M1444.5,488.7c-49-29.3-100.9-51.4-91.3-67.8c10.1-17.4,24-31.2,40.1-40.9
							c35.3-21.4,72.7-9.2,110.9,13.1c32.9,19.2,61.2,37.8,65.4,72.9c2.8,24.2-1.8,49.5-15.1,72.2
							C1543.3,557.4,1495.5,519.1,1444.5,488.7z"/>
					</defs>
					<clipPath id="SVGID_6_">
						<use xlink:href="#SVGID_5_"  style="overflow:visible;"/>
					</clipPath>
					<g class="st10">
						<path class="st2" d="M1661.8,571.1c-48.8-36.1-116.2-79.7-189.9-122.6c-73.7-42.9-144.8-80.1-200.3-104.7
							c-58.1-25.8-90.4-34-95.9-24.6c-5.5,9.4,17.6,33.4,68.7,71.3c48.8,36.1,116.2,79.7,189.9,122.6c118.4,69,248.5,133,286.2,133
							c5.1,0,8.6-1.2,10-3.7C1736,633,1712.9,609,1661.8,571.1z M1709.7,628.6c-5.4,7.4-103.5-34.6-267-129.9
							c-163.5-95.3-248.5-159.9-244.7-168.2c0.4-0.5,1.3-0.8,2.7-0.8c17.6,0,112.9,42.6,264.3,130.7
							C1628.5,555.7,1713.5,620.3,1709.7,628.6z M1467,456.9c-48.7-28.4-109.3-61.9-161-87.9c47.5,23.4,103.5,53.7,161.3,87.3
							c57.3,33.4,110.8,66.8,154.3,96.4C1573.7,520.8,1515.3,485,1467,456.9z M1194.5,328.4c-9.7,16.6,141.9,113,246.1,173.7
							c95.2,55.5,235.7,130.6,266.8,130.6c3,0,4.9-0.7,5.8-2.1c1.5-2.6-0.9-7.1-6.5-13.2c13.4,12.9,12.4,16.4,12.1,16.9
							c-0.5,0.9-7.4,7.8-86-28.5c-53.1-24.6-121.6-61-192.9-102.5c-71.2-41.5-136.7-83.2-184.3-117.3
							c-70.3-50.4-67.7-59.9-67.2-60.8c0.2-0.3,0.9-1.1,4.1-1.1c2.9,0,8,0.7,16.5,3.2C1201.1,325.7,1196,325.9,1194.5,328.4z
							 M1653.3,569.9c-47.6-34.1-112.9-75.6-184-117c-71-41.4-139.3-77.7-192.5-102.3c54.3,24.5,122.5,60.3,193,101.4
							C1540.5,493.1,1605.2,534.7,1653.3,569.9z M1727,640.4c-8,13.6-129.3-36.7-290.7-130.7c-73.6-42.9-140.9-86.3-189.5-122.4
							c-70.5-52.3-68.7-64.2-67.6-66c0.4-0.6,1.7-1.9,6.5-1.9c2.5,0,5.9,0.4,10.5,1.3c-9-1.1-10.5,1.5-11.3,2.8
							c-1.7,3-7,12.1,68.3,66.1c47.7,34.2,113.2,75.9,184.6,117.5c71.3,41.6,140,78,193.2,102.6c52.7,24.4,74.5,29.9,83.8,29.9
							c5.6,0,6.7-2,7.4-3.1c0.8-1.3,2.3-3.9-3.1-11.2C1728.3,635.7,1727.6,639.4,1727,640.4z"/>
					</g>
				</g>
			</g>
			<g>
				<g>
					<g>
						<polygon class="st11" points="1494.1,435.2 1485.9,426.4 1559.1,250.8 1588.2,262.3 						"/>
						<polygon class="st11" points="1485.9,426.4 1474.8,425.1 1559.1,250.8 1571.7,255.8 						"/>
					</g>
					<path class="st12" d="M1544.1,261.3l86.9,22.4c0,0,12.7-19.2,29.5-44.4c18.7-28.1-8.6-41.5-26.2-52.1
						c-17.8-10.7-66-46.8-76.2-51.2c-10.2-4.4-34.8-7.4-48.7,21.3c-12.6,26-27.1,72.2-27.1,72.2L1544.1,261.3z"/>
					<path class="st12" d="M1482.4,229.5l61.3,31.6c0,0,20-44.4,29.9-66.4c10.8-24,1.2-52.1-16.8-59.3c-18-7.1-46.6,2-56.2,34
						C1491.8,198.3,1482.4,229.5,1482.4,229.5z"/>
					<path class="st13" d="M1486.6,228.2l54.9,28.7c0,0,18.5-41.9,27.7-62.6c9.9-22.4,1.6-48.2-14.4-54.5
						c-16-6.3-41.6,2.4-50.8,32.1C1495.7,198.8,1486.6,228.2,1486.6,228.2z"/>
					<g>
						<path class="st12" d="M1571.9,246.6c4.4,2.3,9-5.6,11.9-12.1c3-6.7,34.9-68.9,34.9-68.9l19.9,13.6l16.4-29.6l-28.1-25.7
							c0,0-49.2,99.1-52.9,106.7C1570.5,238.1,1567.1,244,1571.9,246.6z"/>
						<path class="st14" d="M1577.9,240c-0.9,1.8-2.4,3-3.2,2.7c-0.9-0.3-0.9-2.1,0-3.9c0.9-1.8,2.4-3.1,3.3-2.7
							C1578.8,236.4,1578.8,238.2,1577.9,240z"/>
					</g>
					<g>
						<path class="st11" d="M1482.1,230.1c0.4-0.6,60.4,30.9,60.4,30.9l-1.7,13c0,0-49.4,7.4-58.5,8.8c-9,1.4-40-3.7-55.6-11.6
							c-10.3-5.2-12.3-8.8-13.7-14.6c-0.9-3.9-6.4-16.8,8.7-19.7C1437.4,234,1482.1,230.1,1482.1,230.1z"/>
						<path class="st11" d="M1542.5,261c0,0-6.4,1-15.5,2.4c-19,2.8-49,6.9-58,6.4c-13.1-0.7-45.1-7.3-52.8-17.1
							c-7.9-10.1,2.5-15.8,12.8-17.5c10.5-1.8,53.6-4.9,53.6-4.9L1542.5,261z"/>
						<polyline class="st11" points="1482.2,231.8 1480.2,238.7 1527,263.4 						"/>
						<path class="st11" d="M1478.1,238.3c0,0-37.1,3.4-47.7,4.9c-10.3,1.4-12.5,7.8-12.6,11.3"/>
					</g>
				</g>
				<path class="st15" d="M1514.4,440.8l-20.4-5.6l-8.2-8.8c0,0-9.3,0.7-11.1-1.3c-1.8-2-8.4-13.3-8.9-12.5"/>
			</g>
		</g>
		<g>
			<g>
				<defs>
					<circle id="SVGID_7_" cx="526.1" cy="492.2" r="143.4"/>
				</defs>
				<use xlink:href="#SVGID_7_"  style="overflow:visible;"/>
				<clipPath id="SVGID_8_">
					<use xlink:href="#SVGID_7_"  style="overflow:visible;"/>
				</clipPath>
				<g class="st16">
					<path class="st17" d="M453.1,580c3,2.9,8,7.3,7.2,3.7c-0.8-3.6,2.1-11.4,1.2-16.2c-0.9-4.8,1.9-8.9,3.4-10.7
						c1.5-1.8,8.5-2.6,9.4-5.4c0.9-2.8,1.9-5.8,1.9-5.8s6.5,4.9,9.8,0.1s3.5-6.4,6.7-9.3c3.2-2.9,12.9-4.5,14.6-7.9
						c1.7-3.4,4.7-10.3,5.7-11.6c1-1.4,8.9-5,9.9-8s1-7.5-1.5-9.2c-2.6-1.7-16.3-13.9-16.3-13.9l-3.7-11.3l-8.9-9.9l-7.1-7.6
						c0,0-5.7,0.4-7.6-2.5c-1.9-2.9-3-3.8-5.5-3.7c-2.5,0-6.3,3.9-8.7,1.7c-2.4-2.2-9.7-2-9.5-6.1s2.9-1.9,0.1-8.1s-4.5-5.1-4.4-7.3
						s5.5,1.2,6-1.2s0.5-4.9-2.2-4.6s-10.2,1.2-12.1-1.7c-1.9-2.9-0.4-10.2,0.6-11.3c0.9-1.1,5.5-4.9,7.6-4.3s12.9,5.3,15,4.8
						c2.1-0.4,6.9,0.3,5.6,3.5s-3.3,5.1-0.1,3.9s14.7-9.8,14.7-9.8s14.4-4.6,17.5-7.3c3.1-2.6,1.5-3.1,7.2-4.4
						c5.6-1.3,9.1,5.2,9.8-0.2c0.6-5.4,2.9-9.1,2.9-9.1s9,2.6,12.4,4c3.5,1.4,7.8-2.5,7.8-2.5s1.2-8.3-0.8-11.5
						c-2-3.2-4.4-4.2-7.3-6.6c-2.9-2.3-8.5-6.4-9.5-7c-1-0.6-9.5,5.6-9.5,5.6s-7.2,5.8-9.5,3.9c-2.3-1.9-4.9-4.1-6-7
						c-1-2.9-6.1-6.4-2-6.4s14,1,16.4,0.3s13.3-4.7,13.3-4.7l8.2-0.2c-0.2,5-0.8,6.2,1.3,7.4c2.1,1.2,1.4,4.1,4.8,2.4
						c3.4-1.7,6.6-2.9,7.6-3.4s0.6-0.1,0.2-4.1c-0.4-4-1.7-5.3-2.8-7.9c-1.1-2.6-2.7-4.5-4.1-4.7c-1.4-0.2-4.1,0.4-7.8,0.6
						c-3.7,0.2-6.9,0.6-6.9,0.6l-4.2,2.6c0,0-4.5-1.2-5.2-2c-0.7-0.8-69.1-2.5-69.1-2.5l-26.9,25.9c0,0-5.4,41.1-4.3,43.7
						c1.1,2.6,2.3,0.7,3.4-1.7c1.1-2.5,1.2-8.9,2.5-8.7c1.4,0.2,3,4.6,3,6.3s0.2,6.2-0.5,7.7c-0.7,1.4-0.5,4.6,1.4,5.2
						c2,0.6,6,3.9,7.4,4.6c1.4,0.7,5.8,4.7,5.8,4.7l2.1,4c0,0,2.9,2.3,3.5,4.8c0.6,2.4,0.8,2.8,2.3,5c1.5,2.2,3.2,1.4,4.4,2.9
						c1.2,1.4,6,3.8,6,3.8l3.2,3.3c0,0,2.3,0.7-0.1,3s-4.1,1.5-5.8,3.2c-1.7,1.7-3.7,1.9-5.1,5.4c-1.4,3.5-4.5,10.6-4.5,10.6
						s-0.9,7.3,0.8,10.6c1.7,3.4,3.4,10.3,3.4,10.3s0.4,3.2,3.4,6.7c3.1,3.5,3,4.6,2.8,7.1s0.8-6.8-2.2,4.3
						c-3,11.1-2.8,7.8-3.8,14.5c-1,6.7-0.9,8.1-0.9,8.1l-2.3,2.6c0,0-4,4.6-2.4,8.2c1.6,3.6,1.6,3.6,1.6,3.6s0.8-3.4,2,8.5
						c1.2,11.9,1.8,14,1.8,14L453.1,580z"/>
					<path class="st17" d="M597.5,586.2c5.8,1,18.4,5.4,22.7-3.6c4.3-9,9.5-15.7,13.4-18.9c3.8-3.2,9.1-4.9,11-12.4
						s4.4-12.9,7.4-16.1s14.1-1.1,18.1-3.1c4-2.1,6.9-11,6.9-11s-6.2-4.2-9.6-5.1c-3.4-0.8-8.3-6.3-8.3-6.3l0.5-7.7l0-7.8l-0.5-8.3
						l-1-6.8l6.6,11.7l1.4,6.1l0.3,6.8l3.6,7.1l5.8,1.3l5.7-11.6l-1.1-20l-3-17.5c0,0-2.3-11.1-7.1-11.5s-11-1.7-10.8-3.6
						c0.5-4.2,3-5.9,6.2-7.2c3.2-1.2,5-4.3,5-4.3l-0.9-7.6c0,0-4.8-6-6.6-7.4c-1.8-1.4-2.9-6.8-5.4-7.7c-2.5-1-0.7,0.5-5,0.7
						s-10.3,3.4-15.1,1.6c-4.7-1.8-11.5-0.9-11.5-0.9l-11.2,7c0,0-5.9,0.1-6,1.2c-0.1,1.1-0.3,1.9-1.5,4.6c-1.1,2.7-4,3.8-6.2,2.8
						c-2.2-1-4.1,0.6-4.1,0.6l-3.9,6.9c3.9,3.5,10.7,3.2,10.7,3.2l9.3-5.4c0,0,4.6-2.2,7.8-2.5c3.2-0.4,6.6-1.2,7.8,0.3
						s1.2,4,3.7,7.6c2.5,3.6,1.1,7.1,3.7,6c2.6-1.1,2.6-1.1,2.6-1.1s-0.5-4.6,1.2-2.1c1.7,2.5-0.1,5.6,2.5,7
						c2.6,1.4,3.2,4.9,5.7,2.4c2.5-2.6,3.4-1.1,5.8,1c2.4,2.2,1,4,3.6,6.2c2.6,2.3,7,3.4,4,5.8s-5.5,2.2-8.9,0.8
						c-3.5-1.4-9-4.3-12.1-5c-3.1-0.7-10.1-1.6-10.1-1.6s-6.5,0.1-7.4-2.4s-0.5-2.9-1.1-5.4c-0.6-2.4,1.7-2.8-1.2-4s-5.4,0.2-7.8,0
						s-4.6-0.4-7.6-0.8c-3-0.4,1.6-1.5-3-0.4c-4.5,1.1-4.5,1.1-4.5,1.1l-8,3c0,0-1.9-0.3-5.9,0.9c-4,1.2-6.3,3.9-6.3,3.9l-7.7,6.5
						l-3.5,5.6l0.6,6.9c0,0-2.7,8.2-2.5,11.3s-2.1,2.1,1.4,5.2c3.5,3.1,1.6,3.9,5.7,4.9c4.1,1.1,4.2,2.5,7.6,2.5c3.4,0,5,1,7,0.9
						c2-0.2,5.6,1,5.6,1s1.8-1.4,3.6,1.7c1.8,3.1,2.2,3.5,3.2,5.8s2.4,0.5,3.1,4.4c0.7,3.9-0.5,6.8-0.5,6.8s-2.3,11.6-0.8,13.8
						s-0.6,4.6-2,9.7c-1.4,5.2-4.1,13.5-3.2,16.1c0.9,2.5,0.3,6.8,0.3,6.8s-0.9,8.1-0.4,10.8C596,579.5,597.5,586.2,597.5,586.2z"/>
					<path class="st17" d="M566.3,346.5l-0.3,20.9c0,0-11.4,14.5-4.4,13.7c7-0.8,9.1,2.1,13.1,0.3c3.9-1.8,14-4.2,14-4.2l14.7-2.8
						c0,0,6.4-0.8,8.7-5.1c2.2-4.3,2.1-6.6,2.1-6.6l-1.2-10.2c0,0-12.8-8.1-15.3-10C595.1,340.6,566.3,346.5,566.3,346.5z"/>
					<path class="st17" d="M633.8,398c-1.3,1.5,2.6,10.1,2.6,10.1l3.6,4.5l8.2,0.7l4.8-2.8l1.8-5.7l-4.5-7.9c0,0-6-0.5-8.5,0.3
						C639.3,398.1,633.8,398,633.8,398z"/>
					<path class="st17" d="M621.4,408.8c-1,5.6,7.3,1.8-1,5.6c-8.2,3.8-7,4.2-7,4.2l-1.6-4.5l3.4-5.3
						C615.2,408.7,622.4,403.2,621.4,408.8z"/>
					<path class="st17" d="M606.9,404.9c3,0.1,2.9,5.5,2.9,5.5l-3.8,3.8l-3.4-3.3c0,0-1.7-7.7,1.1-6.8
						C606.5,405.2,606.9,404.9,606.9,404.9z"/>
				</g>
				<use xlink:href="#SVGID_7_"  style="overflow:visible;fill:none;stroke:#FFFFFF;stroke-width:2.6678;stroke-miterlimit:10;"/>
			</g>
			<g>
				<g>
					<g>
						<polygon class="st18" points="486.6,448.6 494.6,439.9 422.7,267.3 394,278.6 						"/>
						<polygon class="st18" points="494.6,439.9 505.5,438.7 422.7,267.3 410.2,272.3 						"/>
					</g>
					<path class="st19" d="M437.4,277.6l-85.5,22c0,0-12.5-18.9-29-43.7c-18.3-27.6,8.4-40.8,25.8-51.2c17.5-10.6,64.9-46,74.9-50.3
						c10-4.3,34.2-7.3,47.9,21c12.3,25.6,26.6,71,26.6,71L437.4,277.6z"/>
					<path class="st19" d="M498.1,246.4l-60.3,31c0,0-19.6-43.6-29.4-65.3c-10.6-23.6-1.2-51.3,16.5-58.3s45.8,2,55.3,33.5
						C488.8,215.7,498.1,246.4,498.1,246.4z"/>
					<path class="st20" d="M493.9,245.1l-54,28.2c0,0-18.2-41.2-27.2-61.5c-9.7-22-1.6-47.3,14.1-53.6c15.7-6.2,40.9,2.4,49.9,31.6
						C484.9,216.2,493.9,245.1,493.9,245.1z"/>
					<g>
						<path class="st19" d="M410,263.1c-4.3,2.3-8.8-5.5-11.7-11.9c-3-6.6-34.4-67.7-34.4-67.7l-19.6,13.4l-16.1-29.1l27.6-25.3
							c0,0,48.3,97.4,52,104.9C411.4,254.8,414.8,260.6,410,263.1z"/>
						<path class="st21" d="M404.1,256.7c0.9,1.8,2.3,3,3.2,2.6c0.9-0.3,0.9-2.1,0-3.9c-0.9-1.8-2.3-3-3.2-2.7
							S403.2,254.9,404.1,256.7z"/>
					</g>
					<g>
						<path class="st18" d="M498.3,247c-0.4-0.6-59.3,30.4-59.3,30.4l1.6,12.7c0,0,48.5,7.3,57.5,8.7c8.8,1.4,39.4-3.6,54.7-11.4
							c10.1-5.1,12.1-8.7,13.4-14.3c0.9-3.9,6.3-16.5-8.6-19.3C542.2,250.8,498.3,247,498.3,247z"/>
						<path class="st18" d="M439,277.4c0,0,6.3,1,15.3,2.3c18.7,2.8,48.1,6.8,57.1,6.3c12.9-0.7,44.3-7.2,51.9-16.8
							c7.7-9.9-2.5-15.5-12.6-17.2c-10.3-1.7-52.7-4.8-52.7-4.8L439,277.4z"/>
						<polyline class="st18" points="498.2,248.6 500.2,255.4 454.2,279.7 						"/>
						<path class="st18" d="M502.2,255c0,0,36.5,3.4,46.8,4.8c10.1,1.4,12.3,7.7,12.4,11.1"/>
					</g>
				</g>
				<path class="st22" d="M466.5,454.1l20-5.5l8-8.6c0,0,9.1,0.7,10.9-1.3s8.2-13.1,8.8-12.3"/>
			</g>
		</g>
		<text transform="matrix(1 0 0 1 875.4604 257.5596)" class="st23 st24 st25">?</text>
		<g>
			<g>
				<g>
					<path class="st23" d="M733.7,222.7l-9.4-12.5c3.1-2.2,6.3-4.4,9.6-6.6l8.6,12.5C739.5,218.3,736.6,220.5,733.7,222.7z"/>
					<path class="st23" d="M889.6,292.1c-0.7-3.8-1.5-7.7-2.5-11.6l2.7-2.7c1,4.1,1.9,8.2,2.6,12.2L889.6,292.1z M883.8,269.1
						c-1.2-3.8-2.6-7.6-4-11.3l2.6-3.8c1.5,3.9,2.9,7.9,4.1,11.9L883.8,269.1z M758.5,205.3l-7.3-12.4c5.8-3.2,11.3-5.9,16.5-8.1
						l5.9,12.2C768.9,199.3,763.8,202.1,758.5,205.3z M875,246.7c-1.7-3.7-3.6-7.3-5.6-10.8l2.2-5.1c2.1,3.7,4,7.6,5.8,11.5
						L875,246.7z M787.9,191.5l-4.6-11.9c5.2-1.3,10.2-2,14.9-2.2l3.2,11.4C797.2,189.2,792.6,190.1,787.9,191.5z M862.9,225.4
						c-2.4-3.5-4.9-6.8-7.5-10l1.7-6.6c2.8,3.5,5.4,7.1,7.8,10.8L862.9,225.4z M814.3,189l-1.9-10.7c4.5,0.8,9,2.2,13.2,4.1l0.6,9.8
						C822.4,190.6,818.4,189.5,814.3,189z M846.7,205.9c-3.1-3-6.4-5.7-9.7-8l0.5-8.7c3.6,2.6,7.2,5.7,10.5,9.2L846.7,205.9z"/>
					<path class="st23" d="M894.5,309.7h-2.9c0-1.7-0.1-3.7-0.3-5.9l2.9-1.1C894.4,305.3,894.5,307.6,894.5,309.7z"/>
				</g>
				<g>
					<path class="st23" d="M720.6,232.4L786,248c2.1,0.5,3.2-2.5,1.7-4.8l-63.3-97.6c-2.4-3.7-6.5-4.1-6.5-0.7l-0.3,83.7
						C717.6,230.3,718.9,232,720.6,232.4z"/>
				</g>
			</g>
		</g>
		<g>
			<g>
				<g>
					<path class="st23" d="M1129.9,222.7l9.4-12.5c-3.1-2.2-6.3-4.4-9.6-6.6l-8.6,12.5C1124.1,218.3,1127,220.5,1129.9,222.7z"/>
					<path class="st23" d="M971.1,290c0.7-4,1.6-8.1,2.6-12.2l2.7,2.7c-1,3.9-1.8,7.8-2.5,11.6L971.1,290z M977.1,265.9
						c1.2-4,2.6-8,4.1-11.9l2.6,3.8c-1.4,3.7-2.8,7.5-4,11.3L977.1,265.9z M1089.9,197.1l5.9-12.2c5.2,2.2,10.7,4.9,16.5,8.1
						l-7.3,12.4C1099.7,202.1,1094.7,199.3,1089.9,197.1z M986.1,242.3c1.8-3.9,3.8-7.8,5.8-11.5l2.2,5.1c-2,3.5-3.9,7.1-5.6,10.8
						L986.1,242.3z M1062.1,188.8l3.2-11.4c4.7,0.2,9.7,1,14.9,2.2l-4.6,11.9C1070.9,190.1,1066.4,189.2,1062.1,188.8z M998.7,219.6
						c2.5-3.7,5.1-7.3,7.8-10.8l1.7,6.6c-2.6,3.2-5.2,6.6-7.5,10L998.7,219.6z M1037.4,192.1l0.6-9.8c4.2-1.9,8.6-3.2,13.2-4.1
						l-1.9,10.7C1045.2,189.5,1041.2,190.6,1037.4,192.1z M1015.6,198.4c3.4-3.4,6.9-6.5,10.5-9.2l0.5,8.7c-3.3,2.3-6.6,5-9.7,8
						L1015.6,198.4z"/>
					<path class="st23" d="M969,309.7h2.9c0-1.7,0.1-3.7,0.3-5.9l-2.9-1.1C969.1,305.3,969,307.6,969,309.7z"/>
				</g>
				<path class="st23" d="M1143,232.4l-65.4,15.6c-2.1,0.5-3.2-2.5-1.7-4.8l63.3-97.6c2.4-3.7,6.5-4.1,6.5-0.7l0.3,83.7
					C1146,230.3,1144.6,232,1143,232.4z"/>
			</g>
		</g>
	</g>
</g>
</svg>
