<?xml version="1.0" encoding="utf-8"?>
<!-- Generator: Adobe Illustrator 24.0.0, SVG Export Plug-In . SVG Version: 6.00 Build 0)  -->
<svg version="1.1" id="Layer_1" xmlns="http://www.w3.org/2000/svg" xmlns:xlink="http://www.w3.org/1999/xlink" x="0px" y="0px"
	 viewBox="0 0 1125 2436" style="enable-background:new 0 0 1125 2436;" xml:space="preserve">
<style type="text/css">
	.st0{clip-path:url(#SVGID_2_);}
	.st1{clip-path:url(#SVGID_4_);}
	.st2{fill:#FFFFFF;}
	.st3{fill:#231F20;}
	.st4{fill:#FFFFFF;stroke:#231F20;stroke-width:0.2325;stroke-linecap:round;stroke-linejoin:round;stroke-miterlimit:10;}
	.st5{stroke:#231F20;stroke-width:0.2325;stroke-linecap:round;stroke-linejoin:round;stroke-miterlimit:10;}
	.st6{fill:none;stroke:#FFFFFF;stroke-width:0.465;stroke-miterlimit:10;}
	.st7{fill:none;stroke:#231F20;stroke-width:0.465;stroke-miterlimit:10;}
	.st8{fill:#808285;stroke:#231F20;stroke-width:0.465;stroke-miterlimit:10;}
	.st9{stroke:#FFFFFF;stroke-width:1.9972;stroke-miterlimit:10;}
	.st10{clip-path:url(#SVGID_6_);}
	.st11{fill:#FFFFFF;stroke:#231F20;stroke-width:0.6467;stroke-linecap:round;stroke-linejoin:round;stroke-miterlimit:10;}
	.st12{fill:#FFFFFF;stroke:#231F20;stroke-width:0.6467;stroke-miterlimit:10;}
	.st13{stroke:#231F20;stroke-width:0.147;stroke-miterlimit:10;}
	.st14{fill:#FFFFFF;stroke:#231F20;stroke-width:0.1607;stroke-miterlimit:10;}
	.st15{fill:none;stroke:#231F20;stroke-width:0.6467;stroke-linecap:round;stroke-linejoin:round;stroke-miterlimit:10;}
	.st16{clip-path:url(#SVGID_8_);}
	.st17{fill:#FFFFFF;stroke:#231F20;stroke-width:0.2122;stroke-linecap:round;stroke-linejoin:round;stroke-miterlimit:10;}
	.st18{fill:#ED1C24;}
	.st19{font-family:'SantanderHeadline-Bold';}
	.st20{font-size:378.6248px;}
</style>
<defs>
	<rect id="SVGID_1_" width="1125" height="2436"/>
</defs>
<clipPath id="SVGID_2_">
	<use xlink:href="#SVGID_1_"  style="overflow:visible;"/>
</clipPath>
<g class="st0">
	<defs>
		<rect id="SVGID_3_" x="-12.5" y="-27.2" width="1145.1" height="2490.5"/>
	</defs>
	<use xlink:href="#SVGID_3_"  style="overflow:visible;"/>
	<clipPath id="SVGID_4_">
		<use xlink:href="#SVGID_3_"  style="overflow:visible;"/>
	</clipPath>
	<g class="st1">
		<g>
			<g>
				<path class="st2" d="M478.7,2371c31.3,0.6,49.5-13.1,50.6-21.3c1.2-8.1-2.7-16.6-2.7-16.6c5-8.5,2.9-60.3,2.9-60.3
					s14.9-18.9,18-25.1c3.1-6.2,1.9-35.9-6.2-48.3s-26.6-37.1-27.4-50.6c-0.8-13.5,1.9-155.4,4.6-181.7c2.7-26.3,5-62.2-0.4-70.4
					c-5.4-8.1-8.9-25.9-6.6-33.6s6.2-86.2,8.9-115.2c2.7-29,9.3-55.3,11.6-97c2.3-41.7,10.4-89.3,13.5-97.8
					c3.1-8.5,3.1-109.8,5.8-146.5c2.7-36.7,18.1-135.7,18.1-185.8s-212.1-46.7-225.1-2.8c-1.2,4.2,10.6,259.8,12.2,271
					s5,185.9,20.9,221.1c6.2,95.1-2.7,286.4,4.3,306.9c7,20.5,35.9,133,38.3,143.4c2.3,10.4-10.8,41-7,53.7
					c3.9,12.8,21.6,56.8,25.1,62.2s-19.7,33.6-19.7,41.4s4.3,15.8,4.3,15.8s-7,13.1,2.3,21.3S457.8,2370.6,478.7,2371z"/>
				<path d="M438.1,2276.3c0,0,23-35.3,58.5-33.7c-50.1,12.9-50.8,6.4-58.5-0.1s-10.2-23.4-9.4-25.8c6.8,10.3,38.6-6.4,53.1,6.4
					c-2.8-20.6-41.2-9.6-47.5-21.7c-6.3-12.1-14.4-41-14.4-41s-17.9,40.6-3.4,72.6C427.2,2256.1,438.1,2276.3,438.1,2276.3z"/>
				<path d="M482.1,2189.2c-30.3-10.9-80.5-120.9-94.6-152.9c-14.2-32-9-86.4-9-86.4S459.5,2160.3,482.1,2189.2z"/>
				<path d="M520.1,2162.5c-1.6-2.4-29.9-59-31.5-67.1c-1.6-8.1,26.7-37.2,25.9-55s-2.5-96.2-10.1-111.6
					c-7.7-15.4-24.6-72-22.2-102.7c13.7,56.6,36,70.6,36,70.6s-1.3,173.6-2.1,193.8C515.3,2110.7,520.1,2162.5,520.1,2162.5z"/>
				<path d="M492.1,1791.8c0.9-8,34.8-87.9,36.7-104.8c1.8-16.9,20.1-135.1,18.8-148.6c-1.4-13.6,4.3-86.6,3.4-90.4
					c-0.9-3.8-18,27.4-16,38.5c2,11.2-32.6,79.1-33.9,91.4c-1.3,12.3-8.9,61.7-8.9,61.7s19-50.3,21.8-61.7
					c2.8-11.4,26.6-62.6,26.6-59.8s-24.2,159.4-58.6,205.8c35.8-42.7,45.3-69.2,44.3-64.5S492.1,1791.8,492.1,1791.8z"/>
				<path d="M410.6,1757.2c0.8-2.8-24.2-57.4-33-72.1c-8.8-14.7-18.4-141.3-18.9-150.8s51.9,100.5,51.9,100.5
					s-53.8-133.6-56.3-182.1c-5.5,116.6,10.9,217.1,17.5,246.6c6.6,29.4,8.3,162.2,8.3,162.2s8.5-60.8,7.5-84
					c-0.9-23.2,37.9,42.3,37.9,42.3L410.6,1757.2z"/>
				<path d="M456.9,2339.3c17.9,4.2,41.3,9.6,51.6,8.4s21.8-15.7,21.8-21.7c0-6,1.1-42.6-0.7-53.2c-1.7-10.6-28.2-36.5-38.5-37.7
					s-45.2,26.5-47.6,29.5s-17.1,37.9-23.3,47.5c-6.1,9.4,2.5,21.4,2.5,21.4L456.9,2339.3z"/>
				<path d="M425,2354.7c0,0,43.8,7.4,61.3,8c17.5,0.6,40.4-5.6,43.1-13.1c0,12.1-30.3,23.4-53,22
					C435.6,2369.2,425,2354.7,425,2354.7z"/>
			</g>
			<g>
				<g>
					<path class="st2" d="M717.8,1091.2c-5.7-19.6-24.1-101.6-33.4-125.7c-9.4-24.1-5.3-128.3,5.3-152.4
						c10.7-24.1,38.8-61.5,53.5-50.8c14.7,10.7,29.4,65.5,34.8,80.2c5.3,14.7,22.7,128.3,26.7,143c4,14.7,8,60.2,10.7,66.8
						s-8,78.9-26.7,85.6C769.9,1144.7,734,1146.9,717.8,1091.2z"/>
				</g>
				<path d="M806.6,1045.3c0,0-42.8,17.8-51.4,23.6c-8.6,5.7-46.8,19.7-46.8,19.7s-26.4-102.2-32.6-118.5c-6.2-16.4,0-82.5,0-82.5
					l4.1,82.5c0,0,34.9-24.1,42.3-42.1c-23.3,51.5-28.8,78.6-27.9,76.7s29-21.4,35.4-44.3c-8.8,37.1-24.5,63.9-24.5,63.9
					s0,27,1,25.1c1-1.9,35.2-68.1,36.6-94.5c-1,46.9-27.6,100.7-27.6,98.8s24.7-47.6,47.6-68.1s30.5-9.5,30.5-9.5s-20-0.5-33.3,26.7
					c-13.3,27.1-37.1,59.9-37.1,59.9s50.9-58.4,61.9-61.8c10.9-3.3,15.2,1.9,15.2,1.9l-65.2,57.6c0,0-13.3,10.9-16.7,14.7
					C714.8,1078.9,806.6,1045.3,806.6,1045.3z"/>
				<path d="M774,1057.1c0.1,0.9-6.1,75.2,0,84.1c-15.2,5.6-51.6-35.9-54.9-60.8C718.7,1077.7,774,1057.1,774,1057.1z"/>
			</g>
			<g>
				<g>
					<path class="st2" d="M506.3,1252.6c51.5-4.5,78.6,7.2,110-5.4c31.4-12.6,54.1-15.3,63.7-24.4c9.6-9,23.6-55,24.4-72.2
						c0.9-17.1,6.1-151.6,5.2-162.4s-3.2-24.8,7.7-46.9c40.4-82.3,3.7-129.9,18.5-157c14.8-27.1,14.4-30.6-4.8-38.7
						c-19.2-8.1-90.1-37.9-103.2-41.5s-29.2-33.9-32.6-37.5c-3.5-3.6-26-12.2-55.7-9.5c-29.7,2.7-109.8,12-120.6,29.9
						c-9.4,15.6-5.9,24-25.6,31.5c-18.9,7.2-115,40.3-121.1,49.3c-6.1,9,9.1,80.1,39.7,132.9c10.7,18.3-10.8,62.3-4.7,72.2
						c6.1,9.9,14.8,60.5,14.8,76.7s-0.9,57.7,0,73.1c0.9,15.3,2.6,74,5.2,84.8c2.6,10.8,12.2,17.1,34,23.5
						C383.3,1237.2,454.8,1257.1,506.3,1252.6z"/>
					<path d="M281.3,836.6c2.2,9.7,28.6,84.7,26.3,97.4c-2.3,12.7-5.7,44.6-1.5,50.5c4.2,5.9,14.3,29.2,13.9,42
						c-0.4,12.8-1.8,54.3-1.8,54.3l2.4,45.5l3.6,46.8c0,0-4,38.8,4.8,44.9c8.8,6,70.9,26,71.5,26.6s-35.4-31.2-40.4-35.2
						c-5-4-14.8-16.5-18.2-30c-3.4-13.5-6.9-42.4-6.9-42.4s25.1,15.5,31.1,27.9c6,12.3,17.4,35.1,15.6,31.2
						c-1.8-3.9-6.5-37.3-9.4-45.7s-14.4-29.2-19.4-33.9c-5-4.6-19.7-23-19.7-23l3-53c0,0,0.3-30-8.3-41.2
						c-8.6-11.1-14.9-35-13.7-51.6c1.2-16.6,6.9-36.9-0.5-63.9C306.3,856.6,281.3,836.6,281.3,836.6z"/>
				</g>
				<g>
					<path class="st3" d="M410.6,707.9c0,1.1,0.3,2.1,0.5,3.1l0.7,3.1c0.5,2.1,1,4.1,1.5,6.2c1,4.1,2.1,8.2,3.2,12.2
						c2.2,8.1,4.5,16.3,6.9,24.3c2.4,8.1,5,16.1,7.9,24c1.4,4,2.9,7.9,4.6,11.7c0.8,1.9,1.7,3.8,2.7,5.7c1,1.8,2.1,3.7,3.5,5l0,0
						l-0.4-0.1c4-1.2,8.1-2.3,12.1-3.4c4.1-1.1,8.1-2,12.2-2.9c4.1-0.9,8.2-1.7,12.4-2.4c4.1-0.7,8.3-1.4,12.5-1.8l0,0
						c0.5,0,0.9,0.3,0.9,0.8c0,0.1,0,0.1,0,0.2c-1.1,7-2.1,14.1-2.8,21.2c-0.2,1.8-0.3,3.5-0.3,5.3c0,0.4,0,0.9,0.1,1.3
						c0,0.2,0.1,0.4,0.1,0.6c0,0.1,0,0.2,0.1,0.2c0,0,0,0-0.1-0.1c0.1,0,0.3,0.1,0.5,0.1l0.6,0.2l1.3,0.3c3.5,0.8,7,1.5,10.5,2.3
						c14,3,28,5.8,42,8.7l0,0c0.2,0,0.4,0.2,0.4,0.5l-0.3,99.6c-0.1,16.6-0.2,33.2-0.4,49.8c-0.1,8.3-0.3,16.6-0.7,24.9l-0.8,24.9
						c-1.1,33.2-2.1,66.4-3.4,99.6c-0.7,16.6-1.5,33.2-2.5,49.8c-0.5,8.3-1,16.6-1.7,24.9c-0.4,4.1-0.7,8.3-1.2,12.4
						c-0.2,2.1-0.5,4.1-0.8,6.2c-0.3,2.1-0.6,4.1-1.2,6.1c0.5-2,0.8-4.1,1.1-6.1c0.3-2.1,0.5-4.1,0.7-6.2c0.4-4.1,0.7-8.3,1-12.4
						c0.6-8.3,1-16.6,1.4-24.9c0.8-16.6,1.5-33.2,2.2-49.8c1.3-33.2,2.5-66.4,3.6-99.6l0.9-24.9c0.4-8.3,0.6-16.6,0.7-24.9
						c0.3-16.6,0.4-33.2,0.5-49.8c0.1-33.2,0.2-66.4,0.1-99.6l0.4,0.5l0,0c-14-2.7-28.1-5.5-42.1-8.3c-3.5-0.7-7-1.4-10.5-2.2
						l-1.3-0.3l-0.7-0.2c-0.2-0.1-0.4-0.1-0.8-0.2c-0.4-0.2-0.5-0.4-0.6-0.6c-0.1-0.2-0.1-0.3-0.2-0.4c-0.1-0.3-0.1-0.5-0.1-0.8
						c-0.1-0.5-0.1-0.9-0.1-1.4c0-1.8,0.1-3.6,0.2-5.4c0.6-7.2,1.6-14.3,2.6-21.4l0.9,1l0,0c-4.1,0.4-8.3,0.9-12.4,1.6
						c-4.1,0.7-8.2,1.4-12.3,2.2c-4.1,0.9-8.2,1.7-12.2,2.7c-4.1,1-8.1,2.1-12.1,3.2l0,0c-0.2,0-0.3,0-0.4-0.1l0,0
						c-1.6-1.6-2.7-3.4-3.7-5.3c-1-1.9-1.9-3.8-2.7-5.8c-1.7-3.9-3.1-7.9-4.5-11.8c-2.8-8-5.3-16-7.7-24.1
						c-2.4-8.1-4.6-16.2-6.7-24.4c-1.1-4.1-2.1-8.2-3.1-12.3c-0.5-2.1-1-4.1-1.4-6.2l-0.6-3.1C410.9,710,410.6,709,410.6,707.9z"/>
				</g>
				<g>
					<path class="st3" d="M618.4,697.7c2.3,2.8,4.2,6,5.9,9.2c1.7,3.2,3.1,6.6,4.5,10c2.7,6.8,4.8,13.8,6.7,20.8
						c3.8,14.1,6.6,28.4,9,42.8c1.2,7.2,2.2,14.4,3.2,21.6l0.7,5.4l0.2,1.4l0.1,0.7l0,0.3l0,0.1c-0.1,0.1,0.2-0.1-0.2,0.4
						c-0.2,0.1-0.4,0.1-0.4,0.1c-0.2,0-0.2-0.1-0.3-0.1c-0.9-0.4-1.6-0.9-2.4-1.4c-3.1-1.9-6.1-3.9-9.2-5.9
						c-6.1-4-12.2-7.9-18.4-11.7c-3.1-1.9-6.2-3.8-9.3-5.6c-1.6-0.9-3.2-1.8-4.8-2.6c-0.8-0.4-1.6-0.8-2.4-1.2
						c-0.8-0.3-1.7-0.7-2.4-0.8l0,0l-0.3-0.1c0,0,0,0,0,0c0,0,0,0,0.2,0c0.1,0,0.1,0,0.2-0.1c0.1-0.1,0.2-0.2,0.2-0.3
						c0-0.1,0-0.2,0-0.2c0-0.1,0,0,0-0.1c0,0,0.1,0.1,0.1,0.2c0.1,0.2,0.2,0.3,0.3,0.5l0.7,1l1.5,2l3.1,4l6.3,7.9
						c4.2,5.2,8.5,10.5,12.7,15.7c0.1,0.2,0.1,0.4,0,0.5c0,0-0.1,0.1-0.1,0.1l-37.1,13.8l-18.6,6.8l-9.3,3.3L554,838
						c-1.6,0.5-3.1,1.1-4.8,1.5c0,0-0.1,0-0.1-0.1c0,0,0-0.1,0.1-0.1l0,0c1.6-0.3,3.1-1,4.7-1.5l4.7-1.7l9.3-3.4l18.5-7l37-14.1
						l-0.2,0.6c-4.3-5.2-8.6-10.4-12.8-15.6l-6.3-7.9l-3.1-4l-1.5-2l-0.7-1c-0.1-0.2-0.2-0.4-0.4-0.6c-0.1-0.1-0.1-0.2-0.2-0.4
						c0-0.1,0-0.1-0.1-0.2c0,0,0-0.2,0-0.3c0-0.1,0.1-0.2,0.2-0.3c0.1-0.1,0.2-0.1,0.3-0.1c0.3,0,0.3,0.1,0.4,0.1
						c0.1,0,0.1,0,0.1,0.1l-0.3-0.1l0,0c1.1,0.1,1.9,0.5,2.8,0.9c0.9,0.4,1.7,0.8,2.5,1.2c1.6,0.8,3.2,1.7,4.8,2.6
						c3.2,1.8,6.3,3.7,9.4,5.7c6.2,3.9,12.3,7.8,18.4,11.8c3.1,2,6.1,4,9.2,5.9c0.8,0.5,1.6,1,2.3,1.4c0,0,0.1,0,0,0
						c0,0-0.1,0-0.3,0.1c-0.3,0.5-0.1,0.3-0.2,0.3l0-0.1l0-0.3l-0.1-0.7l-0.1-1.4l-0.6-5.4c-0.9-7.2-1.9-14.4-3-21.6
						c-2.3-14.4-5.1-28.7-8.8-42.8c-1.9-7-4-14-6.6-20.8c-1.3-3.4-2.7-6.7-4.4-10c-1.7-3.2-3.5-6.4-5.8-9.2c0-0.1,0-0.1,0-0.2
						C618.3,697.6,618.4,697.6,618.4,697.7z"/>
				</g>
				<path d="M659.1,1010.3c0,0,0.2-20.6,25.3-44.8s33-24.2,42.6-47.5c-5.8,16.4-16.4,82.1-17.5,102.3c-1.1,20.1-1.1,68.4-1.1,68.4
					s-0.8,37.9-0.5,52.8c0.3,14.8-7.7,39.3-7.7,39.3s-5,29.3-17.3,39c-14.3,11.2-28.2,12.5-28.2,12.5s24.1-13.8,27.8-31.3
					c3.7-17.5,7.9-38.7,7.9-50.3c0-11.7-21.2-59.9-25.4-64.6c-4.2-4.8,28.1,37.1,28.1,37.1s-19.6-59.9-19.1-67.8
					c0,0,22.3,17.9,26.5,16.1c-11.1-43.1-13.2-70.7-1.6-91.9C684.5,990,659.1,1010.3,659.1,1010.3z"/>
				<path d="M295.4,776.1c0,0,30,53.7,39.6,69.2c9.7,15.4,21.2,44.4,39.9,54s64.5,44.9,76,55.6s19.9,72.5,19.9,72.5
					s-19.4-61.5-29-64.8c-9.6-3.4-65.6-11.1-80.4-22.7c12.9,30.9,25.7,70.8,25.1,73.4s-3.4,49.5-3.4,49.5s-6.9-45-10.1-52.4
					c-3.2-7.4-19.3-47.8-19.3-47.8l-12.8-18.8l3.4,80.5l-14.4,57.2c0,0-5.1-45.4-3.2-71.1s2.6-94.3,0-114.2S295.4,776.1,295.4,776.1
					z"/>
			</g>
			<g>
				<path class="st2" d="M212.4,1082.1c-8.9-2.6-20.6,0.1-21.7-7.1c-1.1-7.2,20.5-111.4,25.5-134.7c5-23.3,16.1-37.7,21.6-71
					s6.7-53.2,15.5-71.5c8.9-18.3,21.1-43.2,35.5-29.9c14.4,13.3,32.7,63.8,39.9,80.9c7.2,17.2,11.1,52.1,12.2,70.4
					c1.1,18.3-20,102.6-21.6,115.3s-28.8,41.6-43.8,52.7C260.5,1098.3,225.3,1085.8,212.4,1082.1z"/>
				<path d="M286.9,1068.2c6.4-20.6,14.3-56.4,11.5-91.5c10,44.4,7.9,60.2,8.6,56.6c0.7-3.6,17.9-55.8,13.6-78.4s-1.4-41.9-5.7-52
					c-4.3-10-31.3-50.1-33.5-59.5c0,0,34.3,28.7,42.5,50.1c8.2,21.5,9-23.6,0-35.8s-13.6-53.5-13.6-53.5s27.7,67.8,34.1,82.9
					c6.4,15-9.2,85.2-10.1,105.3c-0.9,20.1-14.8,50.4-20.6,54.9c-5.9,4.5-24.6,34.8-27.4,34C283.5,1080.6,286.9,1068.2,286.9,1068.2
					z"/>
				<path d="M242.4,839.4c-0.9,5.9,24.7,46.3,28.5,53.5c3.8,7.2,10.4,58,10.4,58s-14.1-47.3-17.5-51.6
					C260.4,895,242.4,839.4,242.4,839.4z"/>
				<path d="M234.9,883.1c-0.5,2,5.9,42.6,7.4,44.8c1.6,2.2,10.1,22.9,10.1,22.9s-11.3-11.4-14.2-16.4c-2.9-5-8.2-34.7-8.2-34.7
					L234.9,883.1z"/>
				<path d="M191.9,1063.7c-1.3,13.8,12.4,19.5,14.2,12.9s3.6-56.3,4.6-66.3c1-10,4.3-29.9,4.3-29.9s-4.3,83.3-4.1,86.7
					c0.6,10.5,5.4,12.5,10.2,14.3s25.7,8.9,34.4,10.3c-24.4,1-46.8-10.8-48.9-8.9s-14.4-0.4-16-7.8
					C190.6,1072.6,191.9,1063.7,191.9,1063.7z"/>
			</g>
			<g>
				<path class="st2" d="M592.2,619.3c0,0-4,51.9-3.5,68.5s-1.9,76.9-44.1,133.5c-12.4-17.3-65-74.7-70.7-83.7
					c-5.7-9-29.7-51.5-31.9-92.4C440.7,604.3,592.2,619.3,592.2,619.3z"/>
				<path d="M440.1,652.3c8.5,36.8,6.6,55.8,21.8,76.9c15.3,21,80.8,77.8,84.7,97.4c25.9-45.5,47.5-90,48.4-99.3
					c1-9.3-2.8-43.6-7.3-59.7c-2,40.1-12.7,79.4-14.7,96.7c-2,17.3-26.4,48.7-26.4,48.7s-58.8-65.6-59.7-69
					c-1.2-20.8,44.9-49.3,44.9-49.3S431.6,615.4,440.1,652.3z"/>
				<path d="M486.9,743.8c3.2-16.5,23.9-5,30.5-9.3c6.6-4.3,26.3-16.7,26.3-16.7s7.7,48.6,0,58.3c14.5-31,12.9-58,17.7-73.6
					c4.8-15.5,17.1-42.3,17.1-42.3s-18.8,20.2-40.5,29.6c-21.8,9.4-39.4-7.7-48-4.6S486.9,743.8,486.9,743.8z"/>
			</g>
			<g>
				<g>
					<path class="st2" d="M742,1144.9c-14.4-21.6-16.6-51,2.2-63.8c18.8-12.8,26.6-22.7,45.5-27.2c18.8-4.4,51,0.6,64.3-6.1
						c13.3-6.7,36.6,0.6,36,12.8c-0.6,12.2-26.1,43.8-53.8,66c-27.7,22.2-69.3,27.7-75.9,31C753.7,1161,742,1144.9,742,1144.9z"/>
				</g>
				<path d="M837.1,1081.2c-1.1,1-26,17.9-43.2,28c-6.1,3.6-34.7,25.3-41.3,22.7c-6.6-2.6-20.8-20-21.9-27.3
					c-2.4-16,22.5-24,42.4-34.4c26.3-13.7,74.4-19.8,80.9-22.4C860.6,1045.3,858.4,1061.5,837.1,1081.2z"/>
			</g>
			<path class="st2" d="M220,1060.6c-12.6,8.7-25.5,46.6-7.8,72.1s33.3,39.4,58.8,29.9c25.5-9.4,36-33.3,27.2-54.3
				C289.3,1087.2,232.8,1051.8,220,1060.6z"/>
			<path d="M281.3,1101.3c-2.1,2-21.8,11.1-18.2,38.6c0.8,5.8-3.5,25.5-12.9,25.1c13.9,2.5,27-2.6,34.7-10
				c7.7-7.5,15.1-12,16.4-21.5c1.3-9.3,0.1-27.1-7.6-32.6C285.9,1095.4,281.3,1101.3,281.3,1101.3z"/>
			<g>
				<g>
					<path class="st2" d="M493.3,715.7c13.3,8,43.2-8,55.9-17.8c12.6-9.8,29.1-35.2,34-46.4c4.9-11.2,11.4-46.5,11.4-46.5
						s12.3,2.1,22.3-11.8c24.6,0.7,41.4-3.5,40-33.7c-9.8,14-17.5,7-17.5,7s14.9-2.1,17.6-21c-12.7,9.1-18.3,0-18.3,0
						s19.6-20.3,0.7-29.5c-6.3-4.9-6.3-4.9-6.3-4.9l-2.1-17.5c0,0,35.1-5.6,38.6-21.8c3.5-16.1-34.4-48.4-80-64.6
						c-45.6-16.1-105.2-4.9-133.3,0c-28.1,4.9-40,21-40.7,30.9c-0.7,9.8,24.5,8.5,24.5,8.5l1.8,18.7c0,0-8.4,18.2-8.4,25.2
						c-26.8,24.3-12.8,40.7-6.4,45c6.4,4.3,15.2,9.2,15.2,9.2s-1.4,9.5-0.3,17c0.5,3.8,4,5,3.9,8.5c-0.3,6.7-3.9,12.2-4.9,20.1
						c-0.7,4.9-0.4,51.5,3.2,69.7s27.8,50.6,33.3,53.8C482.7,717.1,486.2,711.5,493.3,715.7z"/>
					<path d="M430.3,437.1c16.5-5.9,51.2-15.5,67.3-12.1s47.8,19.5,68.7,36.3s32.3,28.3,53.8,27.6c-94.2,8.1-177.7-15.5-178.4-23.6
						c-0.7-8.1-2-20.9-2-20.9S419,441.2,430.3,437.1z"/>
					<path d="M604.9,603.4c0,0,12-5.1,16.9-19.8c4.2-12.5,13.4-26.8,11.2-33.6c-2.2-6.7-16.9-7.3-22.5,0
						c-5.6,7.3-10.7,11.8-10.7,11.8s-2.2-7.9,0-12.9s2.2-14.6,4.5-16.9s11.9-9,15.8-8.4c3.9,0.6,13.5,2.3,13.2-5.1
						c-0.3-7.4,6-2.5,6-2.5s13.9,4.2,14.5,7s0,12.9-2.8,15.2c-1.2,1-3.7,2.5-6.1,3.9c-3.2,1.8-6.2,3.5-6.2,3.5s8.5,10.1,18.3,0
						c-8.8,12.9-14.9,13.4-14.9,13.4s5.5,11.3,14.9,0.6c-0.2,15.2-17.7,15.7-17.7,14.1c0-1.7,0,10.1,10.7,9
						c-10.1,15.2-22-4.5-22-4.5S614.4,601.8,604.9,603.4z"/>
					<path d="M433.3,490.6c0,0,25.6,27.8,82.2,32.1C572.1,527,633,511.2,633,511.2s-35.3,69.4-151.6,45.7
						C371.4,534.5,433.3,490.6,433.3,490.6z"/>
					<path class="st2" d="M605.3,544.7c0,0,12.5-8.7,20.1-4.9c7.6,3.8,15.2,4.4,18.4-4.8c3.2-9.2,0-12.5,0-12.5s2.7,12.7-5.4,12.9
						s-17.4-5.7-23.6-1.7c8.4-2.2,14.3,3.8,14.3,3.8S613.4,533.5,605.3,544.7z"/>
					<path d="M581.5,580c-1.1,0.4-15.1-4.3-15.8-5c-0.7-0.7-9.1-3.9-10-3.9s-19.1-1-21.8-0.2c-2.7,0.9-11.6,10.6-11.6,10.6
						s6.6,3.1,7.2,4s3.5,1.7,4.2,1.9c0.7,0.2,6.6,0.8,9.1,1.1s19.3,0.5,19.3,0.5s-2.5-5.4-4.9-6.9c-0.8-0.5-15.4-3.6-15.4-3.6
						s8.3-1.2,9.8-1s12.2,6.3,15.6,5.8C570.6,582.7,581.5,580,581.5,580z"/>
					<path d="M525,613.9c3.4-1.1,18.4,4.6,20.3,9.9c1.9,5.4,11.9,16.5,17.2,16.8c0,0-9.4,2.3-14.2,0c-4.9-2.3-5.7-7.9-9.1-13
						C535.7,622.7,525,613.9,525,613.9z"/>
					<path d="M543.7,660.7c0,0-32.3,4.3-42.5,3.4c-10.1-1-27.7-4.3-30.4-6.5s-13.3-8.2-14.7-9.2c-1.4-1-5.8-1.2-7.3,0
						c-1.4,1.2,6.5-4.8,8.2-4.8s7,5.8,8.7,6.5s18.1,6.7,22.2,6.5s10.9,4.9,12.3,4.9c6.8-4.1,13.8-1.7,20.5-1.4
						c6.8,0.2,14.1-1.4,18.7-2.9s12.4,5.1,12.4,5.1L543.7,660.7z"/>
					<path class="st4" d="M535.9,679.2c0,0-2.1,11.2,0,13.3c-1.1,0-3.2-0.1-5.3-3.3c-0.3,2.8,1,5.2,1,5.2s-4.9-1.9-4.9-4
						c-0.8,3.7,0,4.9,0,4.9s-5.6-0.4-6.7-1.2c-1-0.8-4.3-2.8-4.7-4.9c-0.4-2.1,0.5-5.8,0.9-6.4s0.7-4.1,0-5c0,0-1.8,4.5-3.1,6
						c-0.1-6.2-1.2-7.7-1.2-7.7s-1.2,7.2-1.4,8.2c-2.1-6.6-0.9-9-0.9-9s-3.4,4.5-2.1,9.2c-2.8-2.5-2.8-4.6-2.5-7.6
						c-3.5,4.3-0.3,7.6-0.7,7.6c0,0-5.3-0.7-6.1-9.2c-0.8,8,1.2,10.8,1.2,10.8s-6.2-5.6-4-11.7c-4,2-2.6,7.6-2.6,7.6
						s-6.2-5.8-4-10.1c-2.4,3-2,6.4-2,6.4s-0.6,6.6,0,7.2c0.6,0.6,0.2,8-1,10c0,0-1.8-6.2-2-7.6c-2,7.6-6.4,8.7-6.4,8.7
						s2.6-3.6,2-6.1c-4.2,4.7-8.1,3.5-8.1,3.5s4.2-1.4,5-3.5c0,0-5,0.5-6,0c0,0,2-4.7,2.8-6.3s0.8-1.6,0.8-1.6s-6.4,3.6-5.6,3.6
						s4.2-4.2,5.2-7.2c0,0-5.4,2.2-9.7,2.4c5.4,0.8,6.6-9.5,6.6-9.5s-4.8,5.6-8.1,4.4c4.2-4.4,4.4-9.9,4.4-9.9l-4.4,4.8
						c0,0,1.2-8.5,5-11.9c-4.6,3-5,7.4-5,7.4s0.2-6.4,3.2-10.1c0,0-6.6,4.5-6,7.7c1.4-9.9,2.4-12.7,2.4-12.7l-4-0.8
						c0,0-6.8-1.6-7-3.6s-5-6.4-5.4-7.6c-0.4-1.2-3.6-7.2-3.8-9.3c-0.2-2.2-2.6,3.6-1.4,5.4c1.2,1.8-2.3,12.5-0.3,16.7
						c0,0,0.1-6.2,1.9-7.2c-2.2,14.5-0.2,19.9-0.2,19.9s0.4-5,3.2-9.5c-4.4,15.3-0.4,24.8-0.4,24.8s-0.8-9.9,1.2-13.1
						c-1.2,13.1,4.2,23.3,4.2,23.3s-0.2-9.4,0.6-13c-0.6,13,4,21.5,4,21.5s-1.8-9.5-0.4-15.9c2.8,21.3,9.7,28.6,9.7,28.6
						s-1.2-6.4-2.8-12.1c2.8,12.1,11.1,19.9,11.1,20.1s-3.2-6.6-1.8-13.9c2.6,8.5,2.6,17.3,2.6,17.3s3.8-4.2,4.2-9.2
						c0,7.4,1.6,8.3,1.6,8.3l2.2-10.1l1.6,11c0,0,3.6-4.2,5.2-8.4c-1.2,6.2-2,8.4-2,8.4s5.8-2.4,7.6-7.4c-1.4,4.8-2,7.4-2,7.4
						s5.8-1.2,7.6-5.2l-1.8,4c0,0,6.4,0.4,7.2-2.4v3.6c0,0,6.6-2.2,8.1-6c-1.4,3.4-3,6-3,6s5.8-4.4,7.4-9.2c0,4.8-2,9.2-2,9.2
						s6.3-2.4,7-6c-0.1,4.8-1,6-1,6s8.5-6.4,9.7-11.2c-2.8,7.6-2.8,7.6-2.8,7.6l8.3-10.9c0,0,0.2,5.6-2.9,8.3
						c7.2-4.8,8.7-8.9,8.7-8.9l-2,6.4c0,0,7.2-6.2,7.9-9.9c0,6.2-1.6,8.1-1.6,8.1s7.2-5.6,7.4-9.7c1.8,5,3.4,5.4,3.4,5.4
						s-0.6-6.4,0-8.5c3.4,4.4,4.6,3,4.6,3s-2.8-4.8-3.4-7.4c5.6,4.2,6.4,2,6.4,2s-1.2-4-3-6.7c2-3.7,9.1,0.5,13.1-1.1
						c0,0-2.8-2.6-4-4.2c0,0,4.8-1.4,6-3.4l-7.3-0.2c0,0,4.6-5,5.2-6.6c0.6-1.6,10.4-17.5,10.4-17.5l-1.5-6.3
						c0,0,11.3-35.1,11.4-46.5c-6.2,22.8-19.3,51.6-19.3,51.6L564,672.3l4.4-8.2l-4.8,1.4l-5-0.2l-6.7-3.3
						c-3.8,4.1-5.9,10.2-6.3,18.3c-2.8-9.7-2.8-9.7-2.8-9.7s-4.9,14.2-3.2,19.8C535.9,679.2,535.9,679.2,535.9,679.2"/>
					<g>
						<path class="st2" d="M506.8,638.7c0,0,14.3-7.2,17.7-6.2c3.4,1.1,12.3,9,19.2,3.7c-3.6,5.5-13.5,5.4-13.5,5.4s15,5.5,25.8-2.3
							c-13.6,9.2-13.4,8.1-12.4,8.1c1,0,12,3.7,20.5-2.4c-10.2,7.9-20.4,10.3-30.6,8.7c0,0,7.8,2.4,13.3,2.7
							c-11.9,1.9-25.2-6.6-25.2-6.6s1.8,3.3,9.3,7.3c-9.1,3.1-16.7-12.1-16.7-12.1s-1.8,8,2.4,11.4c-7.5-3.2-9.9-9.6-9.9-9.6
							s-0.3,3.4,0,7c0.3,3.6-9.7-0.8-10.3-6.6c-9.3,12-19,4.1-19,4.1s4.3-0.2,5.3-4.7c-13.9,6.1-17,3.4-17,3.4s6.2-2.7,6.7-4.9
							c-4.1,2.9-8.3,4.4-12.7,0c0,0,4.2-0.4,5.6-2.7c-8.9,3.4-14.4-0.9-14-0.8c0.3,0.1,7.2-0.4,9.9-2.7c-19.4-0.2-19.5-8.7-19.5-8.7
							s13.3,4.7,18.7,2.8c0,0-5.8-3.4-6.5-5.4c12.6,3.5,18,2,18,2s7.5-0.2,9.5,2.2c2,2.4,11.2,5.8,11.2,5.8L506.8,638.7z"/>
						<path class="st3" d="M506.7,638.6c2.9-1.5,6-2.9,9-4.1c1.5-0.6,3.1-1.2,4.7-1.6c0.8-0.2,1.6-0.4,2.5-0.5
							c0.4-0.1,0.8-0.1,1.3,0c0.4,0.1,0.8,0.3,1.2,0.4c3,1.5,5.7,3.4,8.9,4.4c1.6,0.5,3.2,0.8,4.8,0.7c1.6-0.1,3.2-0.8,4.5-1.8
							c0.1,0,0.1,0,0.2,0c0,0,0,0.1,0,0.1c-0.7,1.1-1.6,2-2.7,2.7c-1.1,0.7-2.2,1.2-3.4,1.6c-2.4,0.8-4.9,1.2-7.4,1.2l0-0.2
							c2.1,0.7,4.3,1.2,6.5,1.5c2.2,0.3,4.5,0.4,6.7,0.3c2.2-0.1,4.5-0.5,6.6-1.2c2.1-0.7,4.1-1.7,6-3l0.1,0.2
							c-2.5,1.7-5.1,3.4-7.7,5.1c-1.3,0.8-2.6,1.6-3.9,2.4l-1,0.6l-0.1,0.1c0,0,0,0,0,0c0,0,0,0,0-0.1c-0.1-0.1-0.1,0-0.1-0.1l0,0
							l0.1,0c0.1,0,0.2,0,0.3,0c0.2,0,0.4,0.1,0.6,0.1c0.8,0.2,1.5,0.3,2.3,0.5c3,0.6,6.1,0.8,9.1,0.4c3-0.4,6-1.5,8.5-3.2
							c0.1,0,0.1,0,0.2,0c0,0,0,0.1,0,0.2c-4.3,3.3-9.2,6.1-14.4,7.6c-5.2,1.6-10.8,1.9-16.3,1.1l0.1-0.2c2.2,0.7,4.3,1.2,6.5,1.7
							c2.2,0.5,4.4,0.9,6.7,1c0.1,0,0.1,0.1,0.1,0.1c0,0.1,0,0.1-0.1,0.1l0,0c-2.2,0.4-4.4,0.4-6.6,0.1c-2.2-0.2-4.4-0.7-6.5-1.3
							c-2.1-0.6-4.2-1.4-6.2-2.3c-2-0.9-4-1.9-5.9-3.1l0.3-0.3l0,0c0.5,0.8,1.2,1.5,1.9,2.2c0.7,0.7,1.5,1.3,2.3,1.9
							c0.8,0.6,1.6,1.1,2.4,1.7c0.8,0.5,1.7,1,2.6,1.5l0,0c0.1,0,0.1,0.1,0,0.1c0,0,0,0-0.1,0.1l0,0c-1.8,0.6-3.8,0.6-5.6-0.1
							c-1.8-0.7-3.3-1.8-4.7-3c-1.4-1.3-2.6-2.7-3.7-4.2c-1.1-1.5-2.1-3.1-3-4.7l0.5-0.1l0,0c-0.4,1.9-0.5,4-0.3,6
							c0.1,1,0.4,2,0.8,2.9c0.4,0.9,1,1.7,1.7,2.4l0,0c0,0,0.1,0.1,0,0.2c0,0-0.1,0-0.1,0l0,0c-1.1-0.5-2.2-1-3.2-1.6
							c-1-0.6-1.9-1.4-2.8-2.2c-0.9-0.8-1.7-1.7-2.4-2.7c-0.7-1-1.3-2-1.8-3.1l0.7-0.1l0,0c-0.3,1.8-0.4,3.6-0.3,5.4
							c0,0.5,0,0.9,0.1,1.4c0.1,0.4,0,1.1-0.5,1.3c-0.4,0.3-0.9,0.3-1.4,0.2c-0.5,0-0.9-0.2-1.4-0.3c-1.8-0.6-3.4-1.6-4.7-2.8
							c-1.3-1.3-2.6-2.8-2.9-4.8l0.8,0.2l0,0c-1.2,1.4-2.5,2.8-4,3.9c-1.5,1.1-3.2,2-5,2.4c-1.8,0.4-3.7,0.4-5.5,0
							c-1.8-0.4-3.5-1.2-5-2.4c-0.1,0-0.1-0.1,0-0.2c0,0,0.1,0,0.1,0l0,0c1.2-0.1,2.4-0.7,3.3-1.5c0.5-0.4,0.9-0.9,1.1-1.4
							c0.3-0.5,0.5-1.1,0.6-1.7l0.3,0.3l0,0c-1.4,0.6-2.7,1.1-4.1,1.6c-1.4,0.5-2.8,1-4.2,1.4c-1.4,0.4-2.9,0.7-4.4,0.8
							c-0.7,0.1-1.5,0.1-2.2,0c-0.7-0.1-1.5-0.2-2.2-0.6c0,0-0.1-0.1,0-0.1c0,0,0,0,0,0l0,0l0,0c1.3-0.6,2.5-1.3,3.7-2
							c0.6-0.4,1.1-0.8,1.7-1.3c0.5-0.5,1-1,1.1-1.6l0.5,0.3l0,0c-1,0.7-2,1.3-3.1,1.8c-1.1,0.5-2.3,0.8-3.5,0.9
							c-1.2,0.1-2.4-0.2-3.5-0.7c-1.1-0.5-2-1.3-2.8-2.1l0,0c0,0,0-0.1,0-0.2c0,0,0,0,0.1,0l0,0c1-0.1,2.1-0.4,3-0.8
							c1-0.4,1.9-1,2.4-1.9l0,0l0.3,0.3c-2,0.8-4.1,1.3-6.2,1.3c-2.1,0.1-4.3-0.2-6.2-1.1c-0.5-0.2-1-0.4-1.4-0.7
							c-0.1-0.1-0.2-0.2-0.3-0.2c0,0-0.1,0-0.1-0.1c0,0,0,0,0-0.1c0,0,0,0,0-0.1c0-0.1,0,0,0-0.1c0-0.2,0.3-0.2,0.2-0.2
							c0,0,0.1,0,0.1,0c0.1,0,0,0,0.1,0c0,0,0.1,0,0.1,0c0.2,0,0.5,0,0.8,0c1-0.1,2.1-0.2,3.1-0.4c2-0.4,4.1-1,5.6-2.2l0,0l0.2,0.5
							c-3.8-0.1-7.7-0.4-11.4-1.6c-1.8-0.6-3.6-1.4-5.2-2.6c-1.5-1.2-2.8-2.8-3-4.8l0,0c0-0.1,0-0.1,0.1-0.1c0,0,0,0,0,0
							c3,1,6.1,1.9,9.2,2.5c1.6,0.3,3.1,0.6,4.7,0.7c1.6,0.1,3.2,0.1,4.7-0.4l0,0.2c-1.2-0.7-2.4-1.5-3.5-2.4
							c-0.6-0.4-1.1-0.9-1.6-1.4c-0.5-0.5-1-1-1.3-1.7c0-0.1,0-0.1,0.1-0.1c0,0,0,0,0.1,0l0,0c1.5,0.4,2.9,0.8,4.4,1.1
							c1.5,0.3,3,0.6,4.5,0.8c1.5,0.2,3,0.4,4.5,0.4c1.5,0,3.1,0,4.5-0.3l0,0l0,0c1.9,0,3.8,0.1,5.7,0.5c0.9,0.2,1.9,0.4,2.7,0.9
							c0.4,0.2,0.8,0.5,1.2,0.9c0.3,0.4,0.7,0.6,1,0.9c1.5,1.1,3.2,1.9,5,2.7c1.7,0.8,3.5,1.5,5.2,2.2l0,0L506.7,638.6z
							 M506.8,638.8l-14-1l0,0c-1.8-0.7-3.5-1.4-5.2-2.2c-1.7-0.8-3.4-1.6-5-2.7c-0.4-0.3-0.8-0.6-1.1-1c-0.3-0.3-0.7-0.6-1.1-0.8
							c-0.8-0.4-1.7-0.7-2.7-0.8c-1.8-0.4-3.7-0.5-5.6-0.5l0,0c-1.5,0.3-3.1,0.3-4.6,0.3c-1.5,0-3.1-0.2-4.6-0.4
							c-1.5-0.2-3-0.5-4.5-0.8c-1.5-0.3-3-0.7-4.4-1.1l0.1-0.2c0.3,0.6,0.8,1.1,1.3,1.6c0.5,0.5,1.1,0.9,1.6,1.3
							c1.1,0.8,2.3,1.6,3.5,2.4c0.1,0,0.1,0.1,0,0.2c0,0,0,0-0.1,0.1c-1.6,0.5-3.2,0.5-4.8,0.4c-1.6-0.1-3.2-0.4-4.8-0.7
							c-3.1-0.6-6.2-1.5-9.2-2.5l0.2-0.1l0,0c0.2,1.9,1.5,3.5,3,4.6c1.5,1.1,3.3,1.9,5.1,2.5c3.6,1.1,7.5,1.4,11.3,1.4l0,0
							c0.2,0,0.3,0.1,0.3,0.3c0,0.1,0,0.2-0.1,0.2l0,0c-0.8,0.7-1.8,1.2-2.8,1.5c-1,0.4-2,0.6-3.1,0.8c-1,0.2-2.1,0.3-3.1,0.4
							c-0.3,0-0.5,0-0.8,0c-0.1,0-0.1,0-0.2,0c0,0-0.1,0,0,0c0,0,0,0,0.1,0c0,0,0.2,0,0.2-0.2c0-0.2,0-0.1,0-0.1c0,0,0,0,0-0.1
							c0,0,0,0,0,0l0,0c0.1,0.1,0.2,0.1,0.3,0.2c0.4,0.3,0.9,0.5,1.3,0.7c1.9,0.8,4,1.1,6,1.1c2.1-0.1,4.1-0.5,6-1.3l0,0
							c0.1,0,0.2,0,0.3,0.1c0,0.1,0,0.2,0,0.2l0,0c-0.6,1-1.6,1.6-2.6,1.9c-1,0.4-2.1,0.6-3.1,0.7l0.1-0.2l0,0
							c0.8,0.8,1.8,1.5,2.8,2c1,0.5,2.2,0.7,3.3,0.6c2.3-0.2,4.4-1.4,6.3-2.8l0,0l0,0c0.1-0.1,0.3,0,0.4,0.1c0,0.1,0.1,0.2,0,0.2
							c-0.2,0.8-0.8,1.3-1.4,1.8c-0.6,0.5-1.2,0.9-1.8,1.2c-1.2,0.7-2.5,1.4-3.8,1.9l0,0l0-0.2c0.6,0.4,1.3,0.5,2,0.5
							c0.7,0.1,1.5,0,2.2-0.1c1.5-0.2,2.9-0.5,4.3-0.9c1.4-0.4,2.8-0.9,4.2-1.4c1.4-0.5,2.7-1.1,4.1-1.7l0,0l0,0
							c0.1,0,0.2,0,0.3,0.1c0,0,0,0.1,0,0.1c-0.2,0.6-0.4,1.3-0.7,1.8c-0.3,0.6-0.8,1.1-1.3,1.5c-1,0.9-2.3,1.3-3.6,1.5l0,0l0.1-0.2
							c2.9,2.1,6.8,3,10.2,2c1.7-0.5,3.3-1.3,4.7-2.4c1.4-1.1,2.6-2.4,3.7-3.9l0,0l0,0c0.2-0.2,0.4-0.2,0.6,0
							c0.1,0.1,0.1,0.2,0.1,0.3c0.1,1.7,1.1,3.3,2.4,4.5c1.3,1.3,2.8,2.3,4.5,2.9c0.4,0.1,0.9,0.3,1.3,0.3c0.4,0,0.9,0,1.2-0.2
							c0.4-0.2,0.4-0.7,0.4-1.1c0-0.5-0.1-0.9-0.1-1.4c-0.1-1.8-0.1-3.7-0.1-5.5l0,0c0-0.2,0.2-0.4,0.4-0.3c0.1,0,0.3,0.1,0.3,0.2
							c0.4,1,1,2.1,1.6,3c0.7,1,1.4,1.9,2.2,2.7c0.8,0.8,1.7,1.6,2.7,2.2c0.9,0.7,2,1.2,3,1.7l0,0l-0.1,0.2
							c-0.8-0.7-1.4-1.5-1.9-2.4c-0.4-0.9-0.7-1.9-0.9-3c-0.2-1-0.2-2-0.2-3.1c0-1,0.1-2,0.3-3.1l0,0c0-0.1,0.2-0.2,0.3-0.2
							c0.1,0,0.1,0.1,0.2,0.1c0.8,1.6,1.8,3.2,2.9,4.7c1.1,1.5,2.3,2.9,3.6,4.2c1.3,1.3,2.9,2.4,4.6,3c1.7,0.7,3.6,0.8,5.4,0.2l0,0
							l0,0.2c-0.9-0.5-1.7-1-2.6-1.5c-0.8-0.5-1.7-1.1-2.5-1.7c-0.8-0.6-1.6-1.2-2.3-1.9c-0.7-0.7-1.4-1.4-2-2.3l0,0
							c-0.1-0.1,0-0.2,0.1-0.3c0.1,0,0.1,0,0.2,0l0,0c1.9,1.2,3.8,2.2,5.8,3.1c2,0.9,4.1,1.7,6.2,2.3c2.1,0.6,4.3,1.1,6.5,1.3
							c2.2,0.2,4.4,0.2,6.6-0.1l0,0l0,0.2c-2.3-0.1-4.5-0.5-6.7-1c-2.2-0.5-4.4-1-6.6-1.7c-0.1,0-0.1-0.1-0.1-0.1
							c0-0.1,0.1-0.1,0.1-0.1c5.4,0.8,10.9,0.5,16.2-1.1c5.2-1.6,10-4.3,14.4-7.6l0.1,0.2c-2.5,1.8-5.5,2.9-8.6,3.3
							c-3.1,0.4-6.2,0.2-9.2-0.4c-0.8-0.1-1.5-0.3-2.3-0.5c-0.2,0-0.4-0.1-0.5-0.1c-0.1,0-0.2,0-0.3,0l-0.1,0l0,0c0,0,0,0.1-0.1-0.1
							c0-0.2,0-0.1,0-0.1l0,0c0.1,0,0.1-0.1,0.1-0.1l1-0.6c1.3-0.8,2.6-1.6,3.9-2.4c2.6-1.6,5.2-3.3,7.7-5.1c0.1,0,0.1,0,0.2,0
							c0,0.1,0,0.1,0,0.2c-1.8,1.3-3.9,2.3-6,3c-2.1,0.7-4.4,1-6.6,1.2c-2.2,0.1-4.5,0-6.7-0.3c-2.2-0.3-4.4-0.8-6.6-1.5
							c-0.1,0-0.1-0.1-0.1-0.1c0,0,0.1-0.1,0.1-0.1l0,0c2.5,0,5-0.4,7.4-1.2c1.2-0.4,2.3-0.9,3.4-1.6c1-0.7,2-1.5,2.6-2.6l0.2,0.2
							c-1.3,1-2.9,1.7-4.6,1.8c-1.7,0.1-3.4-0.2-4.9-0.7c-3.2-1-6-2.9-8.9-4.4c-0.4-0.2-0.7-0.4-1.1-0.4c-0.4-0.1-0.8-0.1-1.2,0
							c-0.8,0.1-1.6,0.3-2.4,0.5c-1.6,0.4-3.1,1-4.7,1.6C512.8,636,509.8,637.3,506.8,638.8z"/>
					</g>
					<path d="M513.3,619.5c3.8-0.9,6.5-0.7,7.2,2c0.7,2.7,1.8,9.2,0,10.5c-1.8,1.3-14.1,2.7-18.6,4c-4.5,1.3-11.2,0.6-13-1.4
						c-1.8-2-4.3-7.1-6.1-9.8c-1.8-2.7-2.2-8.7,0-11.2c2.2-2.5,8.5,0,8.5,0s6.3-13.5,6.8-15.5s2-15.9,2-18.6s-9-10.1-10.8-11.2
						c-1.8-1.1-22.8-6-27.1-6.6s-12.6,6.1-13.3,6.3c-0.7,0.2,8.3,4.6,10.8,4.8c2.5,0.2,18.3-0.1,18.3-0.1l-10.2,1.4l-5.6,3.4
						l5.8,2.6c0,0,9,1.5,10.3,1.6c5.8,0.5,10.6-3.3,10.6-3.3s5.1,6.4,4.9,8.9c-0.2,2.5-2.5,13.8-5.9,17.4s-11.5,6.9-13.8,9
						c-2.2,2-11.8,6.4-13.8,12.9s-9.5,6.8-11.5,7c0,0,8.6,4.3,11.6-0.6c6.7-10.8,14.2-12,14.2-12s4.3,16.8,7.4,21.5
						c3.1,4.7,18.2,1.8,25.4-1.1c7.2-2.9,15.7-7.2,17-9c1.4-1.8-0.4-9.2-1.1-12.6C522.7,616.6,515.5,616.2,513.3,619.5z"/>
					<path class="st5" d="M585.6,550.7c0,0,2.6,19,4,21.5c-1-12.6,0-16.1,0-16.1s2.5,11.9,2.2,12.6c-0.2,0.7-2,12.6-2,12.6
						s3-7.2,3.7-9.1c0.7-2,5.2-8.4,5.2-8.4s3.2-4.1,3.9-4.9c0.8-0.8,10.9-3,13.4-4c2.5-1,7.9,2.2,7.4,5.4c-0.5,3.2-3,8.9-4.7,11.9
						s-6.2,9.4-6.7,12.4s-5.5,5.9-6.8,7.7c-1.3,1.7-6.5,3.7-6.5,3.7s7.4-6.4,8.4-9.1c1-2.7,0.2-2.5,0.2-5.9c0-3.5-2.2-3.7-2.2-3.7
						s-5,8.9-5.3,7.9c-0.2-1,1-4.4,2-7.2c1-2.7,4.7-3.9,5.7-7.4c1-3.5,5.7-8.7,5.7-8.7l-2.2,8.7c0,0,2,2.3,2.7,0
						c0.7-2.3,4-4.2,4.2-6.7c0.2-2.5,0.5-4.7-0.5-5.5c-1-0.7-7.4,0.8-8.4,1.8c-1,1-10.4,10.4-10.4,10.4s-4.7,8.9-5.4,10.6
						s-6.1,7.7-5.7,8.9c0.5,1.2,0.3-1.7,0-5.2c-0.3-3.5-2.2-8.6-2.1-11.5C585.7,570.5,585.6,550.7,585.6,550.7z"/>
				</g>
				<path d="M474.7,579.7c-3.3-0.5-15.8,2.8-18,4.6c-2.1,1.8-8.2,10.3-7.9,14.6c0.3,4.3,0,34.7,0,34.7s7.3,3.3,8.2,5.1
					c1,1.8,1.1,6-1,9.6c-2.1,3.6-3.7,14.5-1.5,17.3s9.4,21.9,10,23.7c0.6,1.8,6.8,4.6,6.8,4.6s10.9,2.1,11.8,3.6
					c0.9,1.5,1.8,11,1.2,13.4c-0.6,2.4-6-3.6-6-3.6l-4.2,0.4c0,0-1.7-2-4.2-5c-0.4-0.5-1.3,1-2.9,6.9c-1.9-6.7,0.5-9.8-0.1-10.5
					c-6.5-7.8-14.9-18.5-14.8-20.9c0.2-3.9-4.5-10.4-8.3-18.2s-2.7-27.7-2.9-32.4c-0.2-4.7-5-29.7-3.7-33.7c1.2-4,3.6-11,4.5-16.5
					c0.9-5.4-2.1-5.3-4.7-10.3c-2.6-5-0.1-7,0-10.9c0.1-3.9,5.1-11.6,5.1-11.6l3.6-5.7l14.6,9.7l2.7,19.8l14.8,4.2L474.7,579.7z"/>
				<path d="M450.9,657.7c0.4-1.1,6.3-3.8,6.3-3.8s-2.1,3.9-2.3,7.8c2.2-3.1,3.5-3.2,3.2-2.8c-0.3,0.4-2.1,4.4-1.2,11.2
					c1.9-5.5,2.8-3.4,2.8-3.4s-2.3,5-1.9,8.5c3.1-2.5,4.8-3.2,4.8-3.2l-2.7,5.2c0,0,4.8,2.5,6.4,1.2c-4.1,1-5.4,1.2-5.4,1.2
					s4.1,6.4,7.7,3.2c-2.5,2.2-4.2,2.6-4.2,2.6s1.8,4.8,4.2,2.6c-1.5,2.2,0,7.2,0,7.2v3.1l-9.7-6.6L450.9,657.7z"/>
				<path d="M470.8,699.3"/>
				<path d="M468.6,698.3c0,0-4.8,2.7-4.3,5.7c-0.7-3.8,1.4-7.2,1.4-7.2s-2.7,0.4-2.7,2.5c-0.5-1.8,1.1-4.8,1.1-4.8
					s-4.2,0.4-3.9,3.3c-1.2-3.3,0.7-6.1,0.7-6.1s-2.8,3.2-2.5,4.7c-1-4.1-1.9-11.9-1.9-11.9l-1.8-8.1c0,0-2.9,6.7-2.3,10.6
					c-0.4-7-0.1-13.3-0.1-13.3s-4.1,0.4-3.7,5.1c-1-3.1,0.1-5.8,0.1-5.8s-2.4,2.3-0.6,8.7c-1.9-6.6,0.4-15.9,0.4-15.9
					s-3.3-2.7-4.1,0.4c-0.2-3.7,1-5.8,1-5.8l9.5,11.4l4.7,11.9L468.6,698.3z"/>
				<path d="M485,698.3c0,0,4.2-0.5,4.3-0.9c0.1-0.4,2.3-4.8,1.4-6.6c-0.9-1.8-0.8-5.6-0.8-5.6s-0.1,5.7,3.8,9.1
					c0.1-4.3,0.6-6.9,0.6-6.9l3,10.9c0,0,1.7-6,0.5-8.4c3.5,3,1.8,9.4,1.8,9.4s5.5-1.8,5.3-4.6c-0.2,7.3-4.7,9.4-4.7,9.4
					s2.9,4.3-0.7,8.8c-0.3-5.1-2.4-10.1-2.4-10.1s-1.7,6-0.7,10.1c-2.7-1.2-2.6-11.2-2.6-11.2s-1.4,13.7-4.5,16.7
					c1.8-11.9,0-14.4,0-14.4s-5.4,12.8-5.7,13.1s0-9.6,0-9.6l-0.6-7.7L485,698.3z"/>
			</g>
			<g>
				<path d="M841.4,1028.1c-1.7-1.7-8.5-47.9-57.5-81.2c107.2-88.6,187.3-161.3,187.3-161.3s67.1,20.3,63.7,82.9
					c-108.3,127.5-163,168.9-163,168.9l-26,8L841.4,1028.1z"/>
				<path class="st2" d="M844.2,1023.1c-1.7-1.7-8.3-46.9-56.3-79.5c104.9-86.7,183.4-158,183.4-158s65.7,19.9,62.4,81.2
					C927.6,991.6,874,1032.1,874,1032.1l-25.5,7.8L844.2,1023.1z"/>
			</g>
			<g>
				<g>
					<path class="st2" d="M873.2,1084.5c7.7-1.1,31.6,0,31.6-8.3c0-6.1,0-6.1,0-6.1s21.1-1.7,15-16.1c15-5,15-16.6,11.6-21.6
						c0-21.1,4.7-28.8,1.8-35.5c-2.9-6.7-8.4-29.9-13.4-33.3c-5-3.3-17.2,1.1-13.3,11.1c3.9,10,7.2,20,7.2,20l-4.4,16.1
						c0,0-14.4-6.7-20-10c-5.5-3.3-8.3-5-20-7.2c-11.6-2.2-20.5-1.5-20.2,3.5c0.3,5.4,2.9,9.9,22.2,18.4c5.3,4.2,9.6,8.1,9.6,8.1
						s-15-0.6-18.3,0c-3.3,0.5-26.1-6.1-31.6-5.6c-5.5,0.6-8.3,16.1,0,19.4c-2.2,7.2-4,11,2.8,17.2c8.5,7.8,12.2,7.8,10.5,16.1
						C842.7,1078.9,836,1090,873.2,1084.5z"/>
					<path d="M909.1,1010.7l10.9,6.8c0,0,1.2-17.4,1.4-20.7c0.2-3.3-10.5-25.7-11.8-28.7s0.1-4.1,1.3-4.5c-7.6,3.1-6.2,6.8-4.6,11.2
						s7.2,20,7.2,20L909.1,1010.7z"/>
					<path d="M910.8,1041.5c0,0-19.5-8.9-23.1-13.4c-8-4.6-16.8-12.8-16.5-12.7c0.2,0.1-23.9-4.5-22-18.6
						c-1.3,6,23.9,13.4,25.8,13.1c1.9-0.2,11.2,10.2,14.1,11.3c9.7,3.7,16.5,12.7,18.6,13.4C909.8,1035.4,910.8,1041.5,910.8,1041.5
						z"/>
					<path d="M931.6,1044.7c-6.9,5.4-13.1,2.9-15.2,1.8c-2.1-1.2,2.1,2,3.2,7.5C929.9,1051.5,931.6,1044.7,931.6,1044.7z"/>
					<path d="M826.2,1024.2c1-2.9,3.4-5.3,12.6-2.7c9.2,2.6,21.1,5.9,23,5.9s27.7,2.8,32.4,5.5c-7.7-10.4-13.3-9.4-13.3-9.4
						s-14.4-1.1-19.7,0c-10-2.8-27.1-5.9-30.2-5.5C827.9,1018.3,826.2,1024.2,826.2,1024.2z"/>
					<path d="M831,1037.3c0,0,25.9,7.2,28.5,7.4c2.5,0.2,36.2,15.2,36.2,15.2s0.9,2.4,1.1,3.1c0.1,0.7-4.8-2-6.1-3.2
						c-1.3-1.2-31.1-10.1-31.9-10.5c-0.8-0.4-21.3-6.7-22.7-6.7c-1.3,0-7.2,4.4-3.9,8.9c3.3,4.5,18.1,13.4,21.1,14.2
						c2.9,0.8,29.3,8.2,30.7,8.1c1.3-0.1-22.4-2.7-25.3-3.5c-2.9-0.8-12.9-5.1-17.9-8.5s-13.4-11.4-13.1-14.8
						C828.3,1038.9,831,1037.3,831,1037.3z"/>
				</g>
				<path d="M903.7,1078.9c-9.5,3.6-15.6-1.9-14.5-2.5c1.3-0.7-13-0.6-16.8-2.6s-13.1-0.3-13.8-3.5c-0.7-3.3-24.8-15.7-24.8-15.7
					s0.2,17.9,3.3,21.9s13.1,10.4,23.1,9.4C870.2,1084.9,899.6,1084,903.7,1078.9z"/>
			</g>
			<g>
				<path class="st2" d="M561,1562.3c5.4,20.1,36,85.4,39.8,111.3c3.9,25.9,7,78.5,6.2,94.3c-0.8,15.8,0,33.6,18.9,44.8
					c-2.3,24.7,1.2,39.8,1.5,47.9c0.4,8.1-6.6,32.1-9.3,77.3c-2.7,45.2,1.9,103.6-0.4,137.6c-2.3,34-15.5,120.6-10.8,167
					c-5,29-3.5,46.4-0.8,51.4c-7.7,5.8-12,28.6-5.8,29.8s38.3,10.4,76.2,24.4c37.9,13.9,58,16.2,91.6,17.4s46.4-12.8,46-22.4
					c-0.4-9.7-5-9.7-5-9.7s-1.9-16.2-27.4-29.8s-53.3-35.2-55.7-41.7s-1.5-38.7-2.3-46.8c-0.8-8.1-14.7-31.7-14.3-46.8
					c0.4-15.1,28.6-47.5,36.7-82.7c8.1-35.2,8.1-124.9,10.8-151.1c2.7-26.3,9.7-94.7,9.3-119.8c-0.4-25.1,0-73.1-4.3-81.6
					c-4.3-8.5,0.4-50.6,0.4-50.6c-1.5-12.4-7.3-17.4-7.3-17.4s0.4-85.4-7.3-162c-7.7-76.5-19.7-119.1-15.1-134.5
					c4.6-15.5,13.5-15.5,10.8-47.9c-2.7-32.5-32.1-63-32.1-63s-2.3-31.3-4.3-34.8c-1.9-3.5-9.7-5-9.7-5s-129.5,1.2-189,3.1
					c8.9,184.8,31.7,309.1,39,317.4C554.8,1546.6,555.6,1542.2,561,1562.3z"/>
				<path d="M620.8,2057.7c-3,18-6.2,70.6-5.2,88.2c1,17.6-2.3,35.3,2.5,30.1c4.8-5.2,51.5-24,58.7-58.7
					c-15.6,9.9-44.6,26.5-44.6,26.5s0-71.7,0-74.2c0-2.6,3.1-61.8,0-70.1s10.2-49.8,13.9-61.2c3.7-11.4,47.3-44.6,56.7-70.6
					c-27,24.9-83.1,70.1-85.1,82.3S620.8,2057.7,620.8,2057.7z"/>
				<path d="M628.1,1921.7c0,0-1-24.9,8.3-38.4s58.1-55,60.2-64.4c-28,22.8-69.5,54-73.7,64.4S628.1,1921.7,628.1,1921.7z"/>
				<path d="M628.1,1852.1c0-5.2,4.2-39.4,6.2-47.7c2.1-8.3,32.2-18.7,32.2-18.7s-24.9,22.8-27,33.2
					C637.4,1829.3,628.1,1852.1,628.1,1852.1z"/>
				<path d="M647.3,1768c0,0-18.2-7.3-41-75.8c-2-6-4.1-12.1-6.3-18.3c-22.6-64.5-68-174.2-68-174.2l19.3-93.2
					c0,0,54.9,33.5,76.7,31.4s30.8-4.7,78.3,24.7c-40.1-18.7-59.6-9.6-84.5-9.9c-24.9-0.3-36.3,0-36.3,0s38.4,10.1,58.1,19.5
					c19.7,9.3,75.4,56.1,75.4,56.1s-57.8-33.2-75.4-36.3c-17.6-3.1-78.9-13.5-78.9-13.5s15.6,119.4,72.7,167.1
					c57.1,47.7,53.3,58.1,53.3,58.1l-107.3-103.8c0,0,84.1,118.3,113.1,140.1C604.2,1645.6,647.3,1768,647.3,1768z"/>
				<path d="M732.7,1368.6c0,0-13.4-19-16.7-33.6c9.7,4.9,15.5-0.5,16.7-7c1.1-6.5-22.6-61.5-22.6-61.5s33.7,30.2,36.3,39.9
					c2.6,9.7-5.4,40.2-6.5,46.8C738.7,1359.9,732.7,1368.6,732.7,1368.6z"/>
				<path d="M727.3,2123.4c5.4-15.6,12-55,12.5-85.7c0.5-30.7-6.2-119.2-6.2-119.2l14.5,82c0,0,3.5-89,3.5-91.7s-7.5-51.8-7.5-63.6
					s0.5-44.2,0.5-44.2s-1.1,43.6,3.5,51.2c4.6,7.6,9.4,52.9,11.1,63.1c1.6,10.2-3.2,129.3-8.1,149.9S727.3,2123.4,727.3,2123.4z"/>
				<path d="M743.4,1709.3l11.7-44.1c0,0-0.9-59.4-1.3-69.7C748.9,1646.7,743.4,1709.3,743.4,1709.3z"/>
				<path d="M762.4,1682.5c0,0-10.2,57.5-13.2,60.7c-3,3.2-5.8,36.7-5.8,36.7s10.8-30.1,16.1-30.2c5.3-0.1,6.6,45.3,6.6,42
					c0-3.2,4-40.6,0-49.6C762.1,1733.2,762.4,1682.5,762.4,1682.5z"/>
			</g>
			<path d="M607,2242.6c0,0,9,28,25.9,30.1c16.9,2.1,60.5-4.7,67.3-7.2c6.8-2.5,25.9-3.6,25.9-3.6s52.6,39.9,66.1,48.3
				c13.5,8.5,17.4,19.5,17,23.2c-3.5,27.7-82,16.2-115.5-2.9c-9.5-5.4-23.9-24.1-39.1-26.2c-15.2-2.1-41.2-9.4-48.3-10.4
				s-9.7-17.1-8.8-27.3C598.3,2256.6,607,2242.6,607,2242.6z"/>
			<path d="M598.7,2318c1.3-0.4,40.2,9.4,50.7,11.5c10.6,2.1,48.8,29.2,89.8,31.3c41,2.1,71.4-2,75-17.6c0,15-21.4,25.9-52.3,23.8
				s-53.2-4.2-77.4-14.5c-24.2-10.3-55.3-20.3-81.4-27.9C594.5,2321.9,598.7,2318,598.7,2318z"/>
			<g>
				<g>
					<path d="M656.9,1206.7c13.3-38.3,40.3-50.7,33.9-146c-6.4-95.2,4.2-234.2-1.1-247.6l-15.4-95.3l-46.5-13.8
						c0,0,26.8,60.1,20.3,156.1c-1.8,26.4,25.8,195-10.6,327.6C633,1241,656.9,1206.7,656.9,1206.7z"/>
					<g>
						<path class="st6" d="M644.7,780.2c0.5,10.3-0.4,18.4,12.3,21.1c12.6,2.7,25.1,4.9,28.9,5.4c3.8,0.5,5.7-4.3,5-9.2
							c-0.7-4.9-2.6-9.8-14.8-11.9C664.7,783.6,644.4,775.3,644.7,780.2z"/>
						<path class="st7" d="M643.7,777.6c0.5,10.3-0.4,18.4,12.3,21.1c12.6,2.7,25.1,4.9,28.9,5.4c3.8,0.5,5.7-4.3,5-9.2
							c-0.7-4.9-2.6-9.8-14.8-11.9C663.8,781,643.5,772.8,643.7,777.6z"/>
					</g>
				</g>
				<path class="st8" d="M659.8,1199.2c0.8-4.7,34.7-66,36-86.8c1.3-20.8,5-93.8-1.5-107.8c-6.5-14-66.1-23.9-89.7-24.2
					c-23.6-0.4-189.5-20.2-224.4-25.5c-34.9-5.4-47.9,5-53.5,55.4c-5.6,50.4-4.5,112.3-4.5,112.3s284,42.6,297.3,46.6
					S659.8,1199.2,659.8,1199.2z"/>
				<g>
					<g>
						<polygon points="578.6,1305.1 659.8,1028.1 477.2,996.9 415.4,1266.6 						"/>
					</g>
					<polygon class="st2" points="573.6,1300.1 654.8,1023.1 472.2,991.9 410.5,1261.6 					"/>
				</g>
				<g>
					<g>
						<polygon points="550,1342.2 591.8,1056.6 406.6,1051.1 383.1,1326.8 						"/>
					</g>
					<polygon class="st2" points="544.3,1337.9 586.2,1052.3 400.9,1046.9 377.4,1322.6 					"/>
				</g>
				<g>
					<g>
						<polygon points="535.8,1289.8 519.8,1001.6 337.2,1033.2 369.1,1308.1 						"/>
					</g>
					<polygon class="st2" points="529.4,1286.8 513.4,998.6 330.8,1030.2 362.8,1305 					"/>
				</g>
				<g>
					<path class="st2" d="M186.4,1386.6c4.2-5,20-28.8,20-28.8l56.7-91.2c0,0,19.2-68.5,23.6-88s17-69.2,17-69.2
						s319.2,55.1,324.1,56.3c4.9,1.2,12.7,13.9,17.7,22.4c4.9,8.4,11.4,18.6,11.4,18.6L573,1518.5c0,0-5.4,0.4-19,0
						c-13.6-0.4-209.3-48.3-219.4-50.2c-10.1-1.9-104.6-15.6-104.6-15.6s-33.5-41.5-36.3-46.2C191,1401.8,186.4,1386.6,186.4,1386.6
						z"/>
					<path d="M302.5,1106.7c1.2,2.7,80,10.5,113.4,16.1c33.4,5.5,204,38.9,211.9,43c7.9,4.1-58.4,233.8-58.4,233.8l70.9-220.5
						c0,0,11.8,21.2,16.5,27.7c4.7,6.5-24,132.9-29,142.1s-51.1,168.8-54.8,169.8c-3.7,0.9-23.8-54.4-23.8-54.4s7.2,46.1,10,54.4
						c-54.4-9.2-226.4-53.5-245.6-53.5s-76.9-11.7-83.6-12.3c-6.7-0.6-44.5-55.1-43.6-61.5c0.9-6.5,314.2,63.6,338.5,68.3
						c-59.9-24.9-334.4-78-334.4-78s61.6-91,72.5-114.9C274.1,1242.7,302.5,1106.7,302.5,1106.7z"/>
				</g>
			</g>
			<g>
				<path d="M316.1,1083.9l64.1,17.8l-13.9-192.8c0,0-241.6-59.1-252.2-75.7c15.9,107.5,46.5,191,46.5,191L316.1,1083.9z"/>
				<path class="st2" d="M309.5,1075.8l62.4,17.3l-13.6-187.6c0,0-235.1-57.5-245.4-73.6c15.5,104.6,45.2,185.8,45.2,185.8
					L309.5,1075.8z"/>
			</g>
			<g>
				<path class="st2" d="M272.1,1132.1c-10,0.2-12.3,2.1-18.4-6.2c-5.1,0.5-9.5-0.2-12.9-1.6c-4.6-1.9-7.5-5.2-8.1-8.8
					c-10-1.7-12.8-5.5-13.9-13.3c-9.4,4.4-11.6,5-14.4-5.5c-2.8-10.5-4.4-22.8,6.1-31c6.1-9.3,10-21.6,15.5-31
					c5.5-9.4,19.4-21.1,24.4-23.8c5-2.8,5.1,8.7,5.1,15.3c0,6.7-10.1,17.4-10.1,17.4s-12.8,18.3-12.8,20s0,15,0,15
					s17.2-20.5,20.5-25.5c3.3-5,13.3-15,18.8-17.7c5.5-2.8,17.2-12.2,23.3-7.8c6.1,4.4,1.8,10.9-2.3,17.1c-4,6-19.3,15.1-20.4,20.6
					c-1.1,5.5-10,22.2-10,22.2s16.6-5.5,21.6-9.4c5-3.9,18.8-16.1,18.8-16.1s7.9-17.8,14-14.4c2.6,1.4,6.7,9.6,3.9,13.4
					c3.6,2.1,3.7,8.1,0.4,13.2c-6,9.5-14.4,30.5-17.7,35.5C300.4,1114.4,277.1,1132,272.1,1132.1z"/>
				<path d="M232.8,1115.5c3.2,1.4,25.4-6.8,26.9-11.9c1.5-5.1-0.8-7,0.3-11.3c1.1-4.3,22-3.4,26.2-10.9c3.9-7.1,13.5-14.6,17-19.7
					c3.4-5,13.5-20,18.6-6.1c0.4-6.1-5-11.2-9.4-8.4c-3.9,2.5-8.2,14.5-31,31.6c-2.6,2.2-14.8,6.9-18.6,8.4
					c7.3-10.5,10.9-24.3,10.9-24.3s-10.9,24.3-23.7,28.8C245.7,1110.1,232.8,1115.5,232.8,1115.5z"/>
				<path d="M224.7,1090.2c-5,4.6,1.1,22.1-0.7,22.2s-10.7-11.7-2.9-31c1.1-2.6,6.9-5.6,8.9-16.1c0.8-4.5,7.4-21,10.5-24.8
					c3-3.7,14.6-14.3,13.9-27.8c0,0,6.5,14.7-3.7,24.3s-17.9,39.3-17.9,39.3s18.7-25,22.8-28.9s19.4-15,25.8-19.3
					c6.4-4.3,13.8-4.1,15.8-1s1.1,10.7,0.6,9c-2.4-8.7-7-7.5-9.6-5.8c-2.6,1.7-24.1,15.1-26.4,18.2c-2.3,3-18.6,22.4-29.1,36
					C228.1,1084.9,228.7,1086.5,224.7,1090.2z"/>
				<path d="M269,1073.8c0-0.3,3.9-12.8,3.9-12.8s16.1-11.7,18.2-14.1c-9.5,9.6-16.4,13.9-17.4,16
					C272.7,1065.1,269,1073.8,269,1073.8z"/>
				<path d="M319.9,1062.6c0,0-9,20.9-21.4,34.1c-9.4,10-22.4,12.6-25.9,14.8c0.9,9.6-6.2,10.5-9,12.5s-12,2.2-11,2.2
					c1,0,13.2,0.4,15.9,0c2.6-0.4,4.9-3.7,5.3-6.3c0.4-2.6,5.5-3.8,5.2-4.4c-0.1-0.3,9.4-4.2,19.4-14.5c10.5-10.8,21.5-28,22.6-29.5
					c2.2-2.8,0-10.6,0-10.6L319.9,1062.6z"/>
				<path d="M268.4,1126.1c0,0,4.1,2.6,8.9,0c4.8-2.6,22.7-15.6,25.2-19.4c2.6-3.8,13.9-23.6,13.5-22.8c-0.4,0.8-11,27.7-15.6,31.8
					c-4.6,4.1-24.1,16.6-25.8,18.1s-17.9,1.6-19.1-1.4c-1.1-3-1.8-6.6-1.8-6.6L268.4,1126.1z"/>
			</g>
		</g>
		<g>
			<g>
				<circle class="st9" cx="952.6" cy="530.2" r="119.4"/>
				<circle cx="966.3" cy="530.2" r="109.8"/>
				<g>
					<defs>
						<path id="SVGID_5_" d="M1012.8,427.1c-163.9-95.5-323.7-126.7-356.9-69.7s72.8,180.6,236.7,276.1s323.7,126.7,356.9,69.7
							C1282.6,646.1,1176.7,522.5,1012.8,427.1z M943.1,539.6c-50.2-30-103.4-52.7-93.6-69.5c10.4-17.8,24.6-31.9,41.1-41.9
							c36.2-22,74.5-9.4,113.7,13.4c33.7,19.7,62.8,38.7,67,74.8c2.9,24.8-1.9,50.7-15.4,74C1044.3,610.1,995.3,570.8,943.1,539.6z"
							/>
					</defs>
					<clipPath id="SVGID_6_">
						<use xlink:href="#SVGID_5_"  style="overflow:visible;"/>
					</clipPath>
					<g class="st10">
						<path class="st2" d="M1165.8,624.1c-50-37-119.1-81.7-194.6-125.7c-75.5-44-148.4-82.1-205.3-107.3
							c-59.6-26.4-92.7-34.9-98.3-25.2c-5.6,9.7,18,34.3,70.4,73.1c50,37,119.1,81.7,194.6,125.7
							c121.3,70.7,254.6,136.3,293.3,136.3c5.3,0,8.8-1.2,10.3-3.8C1241.9,687.5,1218.2,662.9,1165.8,624.1z M1214.9,683
							c-5.5,7.6-106-35.5-273.6-133.1c-167.6-97.6-254.7-163.9-250.8-172.4c0.4-0.6,1.3-0.8,2.8-0.8c18,0,115.7,43.6,270.8,134
							C1131.7,608.3,1218.7,674.5,1214.9,683z M966.2,507c-49.9-29.1-112-63.4-165-90c48.6,23.9,106,55,165.3,89.5
							c58.7,34.2,113.5,68.5,158.1,98.8C1075.5,572.5,1015.7,535.8,966.2,507z M686.8,375.4c-9.9,17,145.4,115.8,252.3,178.1
							c97.6,56.8,241.6,133.8,273.4,133.8c3,0,5-0.7,5.9-2.2c1.5-2.7-0.9-7.3-6.6-13.5c13.7,13.3,12.7,16.8,12.4,17.4
							c-0.5,0.9-7.6,8-88.1-29.2c-54.5-25.2-124.7-62.5-197.7-105c-73-42.5-140.1-85.2-188.9-120.2c-72.1-51.7-69.4-61.3-68.9-62.3
							c0.2-0.3,0.9-1.1,4.2-1.1c3,0,8.2,0.8,16.9,3.3C693.6,372.6,688.4,372.7,686.8,375.4z M1157.1,622.8
							c-48.8-35-115.7-77.5-188.5-119.9c-72.8-42.4-142.8-79.6-197.3-104.8c55.7,25.1,125.5,61.8,197.8,103.9
							C1041.4,544.1,1107.8,586.8,1157.1,622.8z M1232.6,695.1c-8.2,14-132.5-37.6-297.9-134c-75.4-43.9-144.4-88.5-194.2-125.4
							c-72.2-53.6-70.4-65.7-69.3-67.6c0.4-0.7,1.8-2,6.7-2c2.5,0,6,0.4,10.7,1.3c-9.2-1.1-10.8,1.5-11.6,2.9
							c-1.8,3.1-7.2,12.4,70,67.8c48.9,35,116.1,77.8,189.2,120.4c73.1,42.6,143.5,80,198,105.2c54.1,25,76.4,30.7,85.9,30.7
							c5.7,0,6.9-2,7.5-3.2c0.8-1.4,2.3-4-3.2-11.5C1233.9,690.3,1233.2,694.1,1232.6,695.1z"/>
					</g>
				</g>
			</g>
			<g>
				<g>
					<g>
						<polygon class="st11" points="993.9,484.8 985.5,475.8 1060.5,295.8 1090.4,307.6 						"/>
						<polygon class="st11" points="985.5,475.8 974.1,474.5 1060.5,295.8 1073.5,301 						"/>
					</g>
					<path class="st12" d="M1045.2,306.5l89.1,22.9c0,0,13-19.7,30.2-45.5c19.1-28.8-8.8-42.5-26.9-53.4c-18.3-11-67.7-48-78.1-52.4
						c-10.4-4.5-35.7-7.6-49.9,21.9c-12.9,26.7-27.8,74-27.8,74L1045.2,306.5z"/>
					<path class="st12" d="M981.9,274l62.8,32.4c0,0,20.5-45.5,30.6-68.1c11.1-24.6,1.3-53.4-17.2-60.8c-18.5-7.3-47.7,2-57.7,34.9
						C991.6,242,981.9,274,981.9,274z"/>
					<path class="st13" d="M986.3,272.6l56.3,29.4c0,0,19-43,28.3-64.1c10.1-22.9,1.7-49.4-14.7-55.8c-16.4-6.5-42.6,2.5-52.1,32.9
						C995.6,242.5,986.3,272.6,986.3,272.6z"/>
					<g>
						<path class="st12" d="M1073.7,291.5c4.5,2.4,9.2-5.7,12.2-12.4c3.1-6.9,35.8-70.6,35.8-70.6l20.4,14l16.8-30.3l-28.8-26.4
							c0,0-50.4,101.5-54.2,109.4C1072.2,282.7,1068.7,288.8,1073.7,291.5z"/>
						<path class="st14" d="M1079.8,284.8c-0.9,1.9-2.4,3.1-3.3,2.7s-0.9-2.1,0-4c0.9-1.9,2.4-3.1,3.3-2.8
							C1080.8,281.1,1080.7,282.9,1079.8,284.8z"/>
					</g>
					<g>
						<path class="st11" d="M981.6,274.6c0.4-0.6,61.9,31.7,61.9,31.7l-1.7,13.3c0,0-50.6,7.6-60,9c-9.2,1.4-41-3.8-57-11.9
							c-10.5-5.3-12.6-9.1-14-14.9c-0.9-4-6.6-17.2,9-20.1C935.8,278.6,981.6,274.6,981.6,274.6z"/>
						<path class="st11" d="M1043.5,306.3c0,0-6.6,1-15.9,2.4c-19.5,2.9-50.2,7.1-59.5,6.6c-13.5-0.7-46.2-7.5-54.1-17.6
							c-8.1-10.4,2.6-16.2,13.1-18c10.8-1.8,55-5,55-5L1043.5,306.3z"/>
						<polyline class="st11" points="981.8,276.3 979.6,283.4 1027.6,308.7 						"/>
						<path class="st11" d="M977.6,283c0,0-38.1,3.5-48.8,5c-10.6,1.5-12.8,8-13,11.6"/>
					</g>
				</g>
				<path class="st15" d="M1014.8,490.5l-20.9-5.7l-8.4-9c0,0-9.5,0.7-11.4-1.3c-1.9-2-8.6-13.6-9.2-12.8"/>
			</g>
		</g>
		<g>
			<g>
				<defs>
					<circle id="SVGID_7_" cx="161.3" cy="543.8" r="149.5"/>
				</defs>
				<use xlink:href="#SVGID_7_"  style="overflow:visible;"/>
				<clipPath id="SVGID_8_">
					<use xlink:href="#SVGID_7_"  style="overflow:visible;"/>
				</clipPath>
				<g class="st16">
					<path class="st17" d="M85.2,635.3c3.1,3,8.3,7.7,7.5,3.9c-0.8-3.8,2.2-11.9,1.2-16.8c-0.9-5,2-9.3,3.6-11.1
						c1.6-1.8,8.9-2.7,9.8-5.6c0.9-2.9,2-6.1,2-6.1s6.8,5.1,10.2,0.1c3.4-5,3.6-6.7,6.9-9.7c3.3-3,13.5-4.7,15.2-8.2
						c1.7-3.5,4.9-10.7,5.9-12.1c1-1.4,9.3-5.2,10.3-8.4s1.1-7.9-1.6-9.6s-16.9-14.5-16.9-14.5l-3.8-11.7l-9.3-10.3l-7.4-7.9
						c0,0-6,0.4-7.9-2.6s-3.1-3.9-5.8-3.9c-2.6,0-6.6,4-9,1.8c-2.5-2.3-10.1-2.1-9.9-6.4c0.2-4.3,3-2,0.1-8.4
						c-2.9-6.5-4.7-5.3-4.6-7.6s5.7,1.3,6.2-1.2c0.5-2.5,0.5-5.1-2.2-4.8c-2.7,0.3-10.6,1.2-12.6-1.7s-0.4-10.6,0.6-11.8
						c1-1.2,5.8-5.2,7.9-4.5c2.1,0.7,13.4,5.5,15.6,5c2.2-0.5,7.2,0.3,5.8,3.6c-1.4,3.4-3.5,5.3-0.1,4c3.3-1.3,15.3-10.3,15.3-10.3
						s15-4.8,18.2-7.6c3.2-2.8,1.6-3.3,7.5-4.6s9.5,5.4,10.2-0.2c0.6-5.6,3.1-9.5,3.1-9.5s9.4,2.7,13,4.2s8.2-2.6,8.2-2.6
						s1.2-8.7-0.9-12c-2.1-3.3-4.6-4.4-7.6-6.8c-3-2.4-8.9-6.7-9.9-7.3c-1-0.6-9.9,5.9-9.9,5.9s-7.5,6.1-9.9,4.1
						c-2.4-1.9-5.2-4.3-6.2-7.3c-1.1-3-6.3-6.7-2.1-6.6c4.2,0,14.6,1,17.1,0.4c2.5-0.7,13.8-4.9,13.8-4.9l8.5-0.2
						c-0.2,5.2-0.9,6.4,1.3,7.7c2.2,1.3,1.5,4.3,5,2.5c3.5-1.8,6.8-3.1,7.9-3.6s0.6-0.1,0.2-4.3c-0.4-4.2-1.8-5.5-2.9-8.2
						s-2.8-4.7-4.2-4.9s-4.2,0.4-8.1,0.6s-7.2,0.6-7.2,0.6l-4.4,2.7c0,0-4.7-1.2-5.4-2c-0.7-0.8-72-2.6-72-2.6l-28,27
						c0,0-5.6,42.9-4.5,45.6c1.2,2.7,2.4,0.8,3.5-1.8c1.1-2.6,1.2-9.2,2.6-9.1c1.4,0.2,3.1,4.8,3.1,6.6s0.2,6.5-0.5,8
						c-0.8,1.5-0.6,4.8,1.5,5.5c2.1,0.7,6.2,4.1,7.7,4.8c1.5,0.8,6,4.9,6,4.9l2.2,4.2c0,0,3,2.4,3.7,5c0.6,2.5,0.8,2.9,2.4,5.2
						c1.6,2.3,3.3,1.5,4.6,3c1.3,1.5,6.3,4,6.3,4l3.3,3.4c0,0,2.4,0.8-0.1,3.2c-2.5,2.4-4.3,1.5-6,3.3c-1.7,1.8-3.9,2-5.3,5.6
						c-1.5,3.6-4.7,11-4.7,11s-1,7.6,0.8,11.1c1.8,3.5,3.5,10.8,3.5,10.8s0.4,3.3,3.6,7s3.1,4.8,2.9,7.4s0.8-7-2.3,4.5
						c-3.1,11.6-2.9,8.1-4,15.1c-1.1,7-0.9,8.5-0.9,8.5l-2.4,2.7c0,0-4.2,4.8-2.5,8.6c1.7,3.8,1.7,3.8,1.7,3.8s0.8-3.5,2.1,8.9
						s1.8,14.6,1.8,14.6L85.2,635.3z"/>
					<path class="st17" d="M235.7,641.8c6.1,1.1,19.2,5.6,23.7-3.8c4.5-9.4,10-16.4,14-19.8s9.5-5.1,11.5-13
						c1.9-7.8,4.6-13.4,7.8-16.8c3.1-3.4,14.7-1.1,18.9-3.3c4.2-2.2,7.2-11.4,7.2-11.4s-6.5-4.4-10-5.3c-3.5-0.8-8.7-6.6-8.7-6.6
						l0.5-8l0-8.2l-0.6-8.7l-1.1-7.1l6.9,12.2l1.5,6.3l0.3,7.1l3.8,7.4l6,1.3l5.9-12.1l-1.2-20.8l-3.2-18.3c0,0-2.4-11.6-7.4-12
						c-5-0.4-11.5-1.7-11.2-3.7c0.5-4.4,3.2-6.2,6.5-7.5s5.2-4.5,5.2-4.5l-1-7.9c0,0-5-6.3-6.9-7.8c-1.9-1.5-3-7.1-5.6-8.1
						c-2.6-1-0.7,0.5-5.2,0.8c-4.5,0.3-10.8,3.5-15.7,1.7c-4.9-1.9-12-0.9-12-0.9l-11.7,7.3c0,0-6.2,0.1-6.2,1.2
						c-0.1,1.1-0.4,1.9-1.5,4.8s-4.2,3.9-6.5,2.9s-4.3,0.7-4.3,0.7l-4.1,7.2c4.1,3.7,11.2,3.3,11.2,3.3l9.7-5.6c0,0,4.8-2.2,8.2-2.6
						c3.3-0.4,6.8-1.3,8.1,0.3c1.2,1.6,1.3,4.2,3.9,8c2.6,3.8,1.1,7.4,3.8,6.2s2.7-1.2,2.7-1.2s-0.5-4.8,1.3-2.2
						c1.8,2.6-0.1,5.8,2.6,7.3c2.7,1.5,3.3,5.2,5.9,2.5c2.6-2.7,3.6-1.2,6.1,1.1c2.5,2.3,1,4.1,3.8,6.5c2.8,2.3,7.3,3.5,4.2,6
						c-3.1,2.5-5.7,2.3-9.3,0.8c-3.6-1.5-9.4-4.5-12.6-5.2s-10.6-1.7-10.6-1.7s-6.8,0.2-7.7-2.5c-0.9-2.6-0.5-3.1-1.1-5.6
						c-0.6-2.5,1.8-2.9-1.3-4.2c-3.1-1.3-5.6,0.2-8.2,0c-2.6-0.2-4.8-0.4-7.9-0.8c-3.1-0.4,1.7-1.5-3.1-0.4s-4.7,1.1-4.7,1.1
						l-8.3,3.2c0,0-1.9-0.3-6.1,0.9s-6.6,4-6.6,4l-8,6.8l-3.6,5.8l0.6,7.2c0,0-2.8,8.6-2.6,11.8c0.1,3.2-2.2,2.2,1.5,5.4
						c3.6,3.2,1.6,4,5.9,5.1c4.3,1.1,4.4,2.6,7.9,2.6c3.5,0,5.2,1.1,7.3,0.9c2.1-0.2,5.8,1,5.8,1s1.9-1.4,3.8,1.8
						c1.9,3.2,2.3,3.7,3.3,6c1,2.4,2.5,0.5,3.2,4.5c0.7,4-0.5,7.1-0.5,7.1s-2.4,12.1-0.8,14.3c1.6,2.3-0.7,4.8-2.1,10.1
						s-4.3,14.1-3.4,16.7c0.9,2.6,0.3,7.1,0.3,7.1s-1,8.5-0.4,11.3S235.7,641.8,235.7,641.8z"/>
					<path class="st17" d="M203.1,391.9l-0.3,21.8c0,0-11.9,15.2-4.6,14.3c7.3-0.9,9.5,2.2,13.6,0.3c4.1-1.9,14.6-4.4,14.6-4.4
						l15.3-3c0,0,6.7-0.8,9-5.3c2.3-4.5,2.2-6.8,2.2-6.8l-1.2-10.6c0,0-13.4-8.4-15.9-10.4C233.2,385.8,203.1,391.9,203.1,391.9z"/>
					<path class="st17" d="M273.5,445.6c-1.4,1.6,2.7,10.5,2.7,10.5l3.7,4.7l8.5,0.7l5-2.9l1.9-6l-4.7-8.2c0,0-6.3-0.6-8.9,0.4
						S273.5,445.6,273.5,445.6z"/>
					<path class="st17" d="M260.6,456.8c-1,5.8,7.6,1.9-1,5.8c-8.6,4-7.3,4.4-7.3,4.4l-1.7-4.6l3.6-5.6
						C254.2,456.8,261.6,451,260.6,456.8z"/>
					<path class="st17" d="M245.6,452.8c3.2,0.1,3,5.8,3,5.8l-3.9,4l-3.6-3.5c0,0-1.8-8.1,1.1-7
						C245.1,453.1,245.6,452.8,245.6,452.8z"/>
				</g>
				<use xlink:href="#SVGID_7_"  style="overflow:visible;fill:none;stroke:#FFFFFF;stroke-width:1.9972;stroke-miterlimit:10;"/>
			</g>
			<g>
				<g>
					<g>
						<polygon class="st11" points="120.1,498.3 128.4,489.3 53.4,309.4 23.6,321.2 						"/>
						<polygon class="st11" points="128.4,489.3 139.8,488 53.4,309.4 40.4,314.5 						"/>
					</g>
					<path class="st12" d="M68.8,320.1L-20.3,343c0,0-13-19.7-30.2-45.5c-19.1-28.8,8.8-42.5,26.9-53.4c18.3-11,67.7-48,78.1-52.4
						c10.4-4.5,35.7-7.6,49.9,21.9c12.9,26.7,27.8,74,27.8,74L68.8,320.1z"/>
					<path class="st12" d="M132,287.5l-62.8,32.4c0,0-20.5-45.5-30.6-68.1c-11.1-24.6-1.3-53.4,17.2-60.8c18.5-7.3,47.7,2,57.7,34.9
						C122.4,255.5,132,287.5,132,287.5z"/>
					<path class="st13" d="M127.7,286.1l-56.3,29.4c0,0-19-43-28.3-64.1c-10.1-22.9-1.7-49.4,14.7-55.8s42.6,2.5,52.1,32.9
						C118.4,256,127.7,286.1,127.7,286.1z"/>
					<g>
						<path class="st12" d="M40.2,305c-4.5,2.4-9.2-5.7-12.2-12.4C25,285.7-7.7,222-7.7,222l-20.4,14L-45,205.7l28.8-26.4
							c0,0,50.4,101.5,54.2,109.4C41.7,296.3,45.2,302.4,40.2,305z"/>
						<path class="st14" d="M34.1,298.3c0.9,1.9,2.4,3.1,3.3,2.7s0.9-2.1,0-4c-0.9-1.9-2.4-3.1-3.3-2.8
							C33.2,294.6,33.2,296.4,34.1,298.3z"/>
					</g>
					<g>
						<path class="st11" d="M132.3,288.1c-0.4-0.6-61.9,31.7-61.9,31.7l1.7,13.3c0,0,50.6,7.6,60,9c9.2,1.4,41-3.8,57-11.9
							c10.5-5.3,12.6-9.1,14-14.9c0.9-4,6.6-17.2-9-20.1C178.1,292.1,132.3,288.1,132.3,288.1z"/>
						<path class="st11" d="M70.4,319.8c0,0,6.6,1,15.9,2.4c19.5,2.9,50.2,7.1,59.5,6.6c13.5-0.7,46.2-7.5,54.1-17.6
							c8.1-10.4-2.6-16.2-13.1-18c-10.8-1.8-55-5-55-5L70.4,319.8z"/>
						<polyline class="st11" points="132.2,289.9 134.3,297 86.3,322.2 						"/>
						<path class="st11" d="M136.4,296.5c0,0,38.1,3.5,48.8,5c10.6,1.5,12.8,8,13,11.6"/>
					</g>
				</g>
				<path class="st15" d="M99.2,504l20.9-5.7l8.4-9c0,0,9.5,0.7,11.4-1.3c1.9-2,8.6-13.6,9.2-12.8"/>
			</g>
		</g>
		<text transform="matrix(1 0 0 1 442.2646 320.7983)" class="st18 st19 st20">?</text>
		<g>
			<g>
				<g>
					<path class="st18" d="M244.8,272.3l-13.1-17.4c4.4-3.1,8.8-6.2,13.3-9.1l12,17.4C252.9,266.1,248.8,269.2,244.8,272.3z"/>
					<path class="st18" d="M462,369c-1-5.2-2.1-10.7-3.5-16.1l3.8-3.8c1.4,5.7,2.6,11.4,3.6,17L462,369z M453.9,336.9
						c-1.7-5.3-3.6-10.6-5.6-15.7l3.6-5.3c2.1,5.4,4,11,5.7,16.5L453.9,336.9z M279.4,248l-10.1-17.2c8-4.5,15.7-8.2,22.9-11.2
						l8.2,16.9C293.9,239.7,286.8,243.5,279.4,248z M441.7,305.7c-2.4-5.1-5.1-10.2-7.8-15.1l3.1-7.1c2.9,5.2,5.6,10.6,8.1,16
						L441.7,305.7z M320.4,228.8l-6.3-16.5c7.2-1.8,14.2-2.8,20.8-3.1l4.5,15.8C333.3,225.6,326.9,226.8,320.4,228.8z M424.7,276
						c-3.3-4.8-6.8-9.5-10.5-14l2.4-9.2c3.8,4.8,7.5,9.9,10.9,15.1L424.7,276z M357.1,225.3l-2.6-14.9c6.3,1.2,12.5,3.1,18.3,5.7
						l0.9,13.6C368.4,227.6,362.8,226.1,357.1,225.3z M402.2,248.9c-4.3-4.2-8.9-8-13.5-11.1l0.6-12.1c5,3.7,10,8,14.6,12.8
						L402.2,248.9z"/>
					<path class="st18" d="M468.8,393.4h-4.1c0-2.3-0.1-5.1-0.4-8.2l4-1.6C468.7,387.2,468.8,390.5,468.8,393.4z"/>
				</g>
				<g>
					<path class="st18" d="M226.6,285.7l91.1,21.8c3,0.7,4.4-3.5,2.4-6.7l-88.1-136c-3.3-5.1-9-5.7-9.1-0.9l-0.4,116.6
						C222.4,282.8,224.3,285.2,226.6,285.7z"/>
				</g>
			</g>
		</g>
		<g>
			<g>
				<g>
					<path class="st18" d="M796.6,272.3l13.1-17.4c-4.4-3.1-8.8-6.2-13.3-9.1l-12,17.4C788.5,266.1,792.6,269.2,796.6,272.3z"/>
					<path class="st18" d="M575.5,366c1-5.5,2.2-11.2,3.6-17l3.8,3.8c-1.4,5.5-2.6,10.9-3.5,16.1L575.5,366z M583.8,332.4
						c1.7-5.6,3.7-11.1,5.7-16.5l3.6,5.3c-2,5.1-3.9,10.4-5.6,15.7L583.8,332.4z M740.9,236.5l8.2-16.9c7.2,3,14.9,6.8,22.9,11.2
						L762,248C754.6,243.5,747.5,239.7,740.9,236.5z M596.4,299.5c2.5-5.5,5.2-10.8,8.1-16l3.1,7.1c-2.8,4.9-5.4,9.9-7.8,15.1
						L596.4,299.5z M702.1,225l4.5-15.8c6.6,0.3,13.6,1.4,20.8,3.1l-6.3,16.5C714.5,226.8,708.1,225.6,702.1,225z M613.9,267.9
						c3.4-5.2,7.1-10.2,10.9-15.1l2.4,9.2c-3.7,4.5-7.2,9.2-10.5,14L613.9,267.9z M667.7,229.7l0.9-13.6c5.8-2.6,12-4.5,18.3-5.7
						l-2.6,14.9C678.6,226.1,673,227.6,667.7,229.7z M637.4,238.5c4.7-4.8,9.6-9.1,14.6-12.8l0.6,12.1c-4.6,3.2-9.2,6.9-13.5,11.1
						L637.4,238.5z"/>
					<path class="st18" d="M572.6,393.4h4.1c0-2.3,0.1-5.1,0.4-8.2l-4-1.6C572.7,387.2,572.6,390.5,572.6,393.4z"/>
				</g>
				<path class="st18" d="M814.8,285.7l-91.1,21.8c-3,0.7-4.4-3.5-2.4-6.7l88.1-136c3.3-5.1,9-5.7,9.1-0.9l0.4,116.6
					C819,282.8,817.1,285.2,814.8,285.7z"/>
			</g>
		</g>
	</g>
</g>
</svg>
