<?xml version="1.0" encoding="utf-8"?>
<!-- Generator: Adobe Illustrator 24.0.0, SVG Export Plug-In . SVG Version: 6.00 Build 0)  -->
<svg version="1.1" id="Layer_1" xmlns="http://www.w3.org/2000/svg" xmlns:xlink="http://www.w3.org/1999/xlink" x="0px" y="0px"
	 viewBox="0 0 1125 2436" style="enable-background:new 0 0 1125 2436;" xml:space="preserve">
<style type="text/css">
	.st0{clip-path:url(#SVGID_2_);}
	.st1{stroke:#231F20;stroke-width:9.3632;stroke-linecap:round;stroke-linejoin:round;stroke-miterlimit:10;}
	.st2{fill:none;stroke:#231F20;stroke-width:9.531;stroke-linecap:round;stroke-linejoin:round;stroke-miterlimit:10;}
	.st3{stroke:#FFFFFF;stroke-width:0.5767;stroke-linecap:round;stroke-linejoin:round;stroke-miterlimit:10;}
	.st4{fill:#FFFFFF;stroke:#231F20;stroke-width:0.5767;stroke-linecap:round;stroke-linejoin:round;stroke-miterlimit:10;}
	.st5{fill:none;stroke:#FFFFFF;stroke-width:0.5767;stroke-linecap:round;stroke-linejoin:round;stroke-miterlimit:10;}
	.st6{stroke:#FFFFFF;stroke-width:2.0424;stroke-linecap:round;stroke-linejoin:round;stroke-miterlimit:10;}
	.st7{fill:#ED1C24;stroke:#ED1C24;stroke-width:0.5767;stroke-linecap:round;stroke-linejoin:round;stroke-miterlimit:10;}
	.st8{fill:#FFFFFF;stroke:#FFFFFF;stroke-width:0.5767;stroke-linecap:round;stroke-linejoin:round;stroke-miterlimit:10;}
	.st9{fill:none;stroke:#231F20;stroke-width:0.5767;stroke-linecap:round;stroke-linejoin:round;stroke-miterlimit:10;}
	.st10{fill:#ED1C24;}
	.st11{stroke:#231F20;stroke-width:0.5767;stroke-linecap:round;stroke-linejoin:round;stroke-miterlimit:10;}
</style>
<g>
	<defs>
		<rect id="SVGID_1_" width="1125" height="2436"/>
	</defs>
	<use xlink:href="#SVGID_1_"  style="overflow:visible;fill:#FFFFFF;"/>
	<clipPath id="SVGID_2_">
		<use xlink:href="#SVGID_1_"  style="overflow:visible;"/>
	</clipPath>
	<g class="st0">
		<polygon class="st1" points="1373.8,1004.8 1407.3,1781.1 2476,1841.1 2476,586 		"/>
		<g>
			<line class="st2" x1="1373.8" y1="1004.8" x2="-1364.3" y2="-41.5"/>
			<g>
				<line class="st2" x1="1443.2" y1="2003.4" x2="1373.8" y2="1004.8"/>
				<line class="st2" x1="815.4" y1="1950.5" x2="770.2" y2="783"/>
				<line class="st2" x1="187.6" y1="1897.6" x2="166.5" y2="561.1"/>
				<line class="st2" x1="-440.2" y1="1844.7" x2="-437.2" y2="339.3"/>
				<line class="st2" x1="-1068" y1="1791.8" x2="-1040.9" y2="117.4"/>
			</g>
		</g>
		<g>
			<path class="st3" d="M469,1686.8c0,0,32.1-107.6,32.1-144.3s9.6-140.8-3.9-166.1c-149.1-82.2-197.1-133.1-212.9-115.9
				c-15.9,17.2-41.5,173-38.3,194.1c3.2,21.1,74.6,244.6,87.5,250.1S469,1686.8,469,1686.8z"/>
			<path class="st4" d="M563.2,877.7c0,0-90.2,30.9-91.3,32.7c-1.2,1.7-116.1,45.7-130.6,70.5c-14.4,24.8-90.7,169.3-93.6,186.1
				c-2.9,16.8-16.2,141.6-13.3,150.8c2.9,9.2,127.2,52,137.6,52c10.4,0,80.9,12.7,98.2,2.9c17.3-9.8,85.5-57.2,97.7-66.4
				c12.1-9.2,78.1-126,119.6-170.4c44.1-47.2,63.6-116.9,63.6-128.4s-11.6-28.3-19.6-33.5C723.3,968.7,586.8,869.6,563.2,877.7z"/>
		</g>
		<g>
			<path class="st3" d="M882.6,1291.4c0,0-48.5,2.3-73.7,14.9c-42.5,2.7-72,8.2-75.7,10.7c-3.7,2.6-15.3,24.8-10,58.7
				c5.3,33.8,47.8,266.8,47.8,266.8l310.7-7.6c0,0-16.6-83.3,10.6-127.1c27.2-43.8,40.7-69,40-86.6c-0.7-17.6-15.1-57.8-39.7-68.1
				c-24.6-10.3-87-42.5-93.9-44.8C991.8,1306,904.5,1291.7,882.6,1291.4z"/>
			<path class="st4" d="M889,1275.7c0.3,0.8-8.3,36.2-7.8,44.5c0.6,8.3,46.7,101,46.7,101s40.6-50.6,47.3-61.5s15-58.7,13.9-64.5
				C988,1289.3,889,1275.7,889,1275.7z"/>
			<path class="st5" d="M882.6,1291.4c-16,6.2-47.3,49.1-55.4,67.5c14.5,20.3,19,23.9,19,23.9s-24.5-10-24.5-7.1
				c0,2.9,30,162.1,80.6,251.2"/>
		</g>
		<path class="st3" d="M1102.7,1645c-14.5-11.5-23-28.4-28.4-44.7c-5.4-16.3-2.4-58,3.6-73.7c6-15.7,10.5-146.9,9.2-158.4
			c-1.3-11.5,14.4-9.7,22.9-3s49,121.5,59.2,140.8c10.3,19.3,51.4,130.6,54.4,145.1S1102.7,1645,1102.7,1645z"/>
		<path class="st6" d="M-1120.5,1759.7c10.9-3.6,1730.7-163.3,1730.7-163.3l1905.7,163.3L606.6,2816.2L-1120.5,1759.7z"/>
		<path class="st5" d="M942.1,1626.9c0,0,58.1-105.9,70.4-135.6c12.3-29.7,21-88.5,19.7-87.8s-30.3,7.4-28.7,6.1
			s30.3-23.6,28.9-24.5c-1.4-1-29.9-80.6-45.1-83.8"/>
		<path class="st7" d="M915.3,1496.7h22.4c0,0,10.5,58,10.4,58.5c-0.1,0.5-27.6,78.5-27.6,78.5l-21.7-93.9L915.3,1496.7z"/>
		<path class="st8" d="M944.3,1496.7l11.1-20.8l9.5,12.9c0,0-12.3,50-12.2,49.5C953,1537.8,944.3,1496.7,944.3,1496.7z"/>
		<path class="st3" d="M753.2,1313.9c-7.3-4.1-25.4-1.9-37.6,31.9s-64.8,121-86.1,162.2c-21.3,41.2-36.3,57.5-30.4,86.5
			c5.9,29,4.1,46.7,48.1,44c44-2.7,113.8-83,116.1-109.3c2.3-26.3-7.3-64.8-8.2-89.5c-0.9-24.7,5.3-78.9,6.8-93.9
			C763.5,1329.3,753.2,1313.9,753.2,1313.9z"/>
		<g>
			<path class="st3" d="M609.4,1556.9c11.7-14.1,46.7-38,81.2-33.3c34.5,4.7,89.3,13.2,91.6,18.9s0.9,77.2,0,84.3
				c-0.9,7.1-22.3,16.8-46.5,15.7s-85-3.9-104.5-3.7S587.7,1583.2,609.4,1556.9z"/>
		</g>
		<g>
			<path class="st4" d="M770.9,1545.2c0,0-66.4,10.8-74.3,33.9c-7.9,23.1,4.3,53.6,66.9,47.7c10.6-5.9,19.9-10.6,19.9-10.6
				s14.2,12.9,20.3,15.6c6.1,2.7,38.6,0,38.6,0s19,16.1,34,12.8c15-3.2,15-9.4,15-9.4s1.1,7.2,17,5.9c15.9-1.2,18.8-7.7,18.8-7.7
				s0.4,7.9,8.1,7.7c7.7-0.2,15.3-13.1,15.3-21.4c9.4,8.3,14.5,10.1,14.5,10.1s6.5,26.3,15.1,29c8.7,2.7,9.2-2.8,9.2-2.8l-3.4-29.4
				c0,0-0.1-8.8-2.9-14.7c-2.8-5.9-4.5-6.8-11.9-9.6c-9-10.4-24.8-26.8-29-30.5c-4.2-3.7-30.1-26.7-36.7-29.5
				c-6.6-2.8-11.5-5.3-35,0S770.9,1545.2,770.9,1545.2z"/>
			<path class="st9" d="M770.2,1626.9c0,0-42.6-7.9-45.4-27.3c-2.9-19.4,10.8-47.5,46.2-54.4"/>
		</g>
		<g>
			<path class="st4" d="M794.7,1161.8c4.6,9.3,21,40.4,33.4,54.5c12.4,14,69,69.6,75.5,75.5c6.5,5.9,32.7,28.8,45.8,14
				c13-14.6,13.5-27-4.3-48c-17.8-21-46.9-62.1-62-82.6c-15.1-20.5-29.3-39.2-45.6-44.1S787.8,1147.8,794.7,1161.8z"/>
			<path class="st4" d="M676,1116.7c7.2,4.8,28.8,10.7,35.8,5.2c23.9,20.6,48.9,35.8,58.6,35.8s9.2,3.8,9.2,3.8s4.9,13,10.9,13.6
				c6,0.5,35.3-15.2,43.4-21.2c8.1-6,17.4-18.6,14.7-26.7c-2.7-8.1-15.2-41.7-18.5-41.7s-12.5,0-12.5,0s-37.5-36.2-40.2-40.6
				s-20-32.7-26.6-37.6s-48.9-12.8-64.1-7C671.7,1006.3,660.8,1106.6,676,1116.7z"/>
		</g>
		<g>
			<path class="st4" d="M417,1445.3c0,0-9.5-24.2,24.1-30.3s96.1-24.2,108.2,0c5-40.4-7.1-83.1-17.2-90s-5-27.5-11.1-47.5
				c-6.1-20-4-17,0-29.1c4-12.1,22.2-42.6,11.1-63.2c-11.1-20.6-1-37.5-1-54.8c0-17.3-24.8-97-38.6-115.2
				c-13.9-18.2-73.4-52.5-88.6-37.4s-44.4,86.6-41.4,108.9c3,22.3,1,103.4,7.1,122.9s5,90.2,5,95.3s-13.1,22.2-8.1,39.4
				c5,17.2,13.3,43.6,20.3,66.7S417,1445.3,417,1445.3z"/>
			<path class="st4" d="M409.5,1411.1c0,41.5,50.7,115.6,70.5,147.7c19.9,32.1,48.7,73.2,48.7,73.2s30.1,17.8,52.6,4.4
				c22.4-13.5,37.2-18.3,28.9-39.9c-8.3-21.6-25-45-35.9-70.2s-22.6-36.6-23.8-73.9c-1.2-37.3,8.4-60.3-10.2-73.1
				C521.7,1366.4,409.5,1376.9,409.5,1411.1z"/>
			<path class="st4" d="M535.1,1617.3c7.1-11.1,21.8-29.7,31.4-30.4c20.5-19.2,30.4-21.8,46-19.2c5.3-9.6,12.4-11.5,25.2-10.3
				c9.6-10.9,29.5-4.1,37.2,4.7c7.7,8.8,23.7,29.6,28.9,34.2c5.1,4.7,5.1,4.7,5.1,4.7s21.8,1.1,25.6,16.3
				c3.8,15.2-3.2,17.7-6.4,20.3s-16.7,3.7-16.7,3.7s-6.4,9.7-26.9,7.8c-12.2,8.3-33.3,1.3-33.3,3.8c0,2.6-21.8,9.7-35.3,0.4
				c-10.9,11.8-26.3,14.9-34,5.7c-7.7-9.2-13.5-14.4-20.5-9.2s-17.3,6.4-26.3-2.6C526.2,1638.2,535.1,1617.3,535.1,1617.3z"/>
		</g>
		<g>
			<g>
				<path class="st4" d="M567.1,871.7c-2.6,13-5.7,55.7-4.7,76s37,90.1,55.7,96.3c18.7,6.2,34.4-24.5,38-29.7
					c3.6-5.2,5.7-75.5-6.2-86.5C637.9,917,567.1,871.7,567.1,871.7z"/>
				<g>
					<path class="st3" d="M754.8,850.6c9.4-12.5,13.9-41.9,9.5-55.8c-4.4-13.9-16.9-55-33.8-62.4s-59.5-30.1-81.5-25.7
						s-55,19.1-70.5,33c-15.4,13.9-17.6,30.1-19.1,55c-1.5,25,0,69.7,3.7,83s25,40.1,30.8,41.3C599.9,920.3,754.8,850.6,754.8,850.6
						z"/>
					<path class="st4" d="M655,1035c22,0.6,33.8,5,43.3-25.1c22.8-31.6,41.8-51.7,48.4-90.8c16.9-46.5,21.3-75.8,14.7-97.8
						C745.3,837.3,726.2,841,721,841c-5.1,0-52.1-27.2-60.2-30.1c-8.1-2.9-26.4-15.4-30.8-16.1s-28.6,19.1-29.4,25
						c-0.7,5.9,13.2,32.3,13.2,32.3s-17.6-5.1-22.8-0.7c-5.1,4.4,0,57.2,0,57.2l-13.2-13.2c0,0-1.5-17.1-5.1-25.4
						c-3.7-8.3-11.7-32.5-19.8-27.4c-8.1,5.1-10.3,16.1-4.4,38.2s16.1,32.3,29.4,34.5c5.9,38.2,7.3,55.8,18.3,71.2
						C607.3,1001.8,638.1,1034.5,655,1035z"/>
				</g>
				<g>
					<path d="M755.8,900.4c-3.2-3.2-8.5-1.6-20.9,0.1c-10.5,1.4-23.9,0.3-25.7,5.8c-0.5,1.5-0.8,3.2-1,4.9c-3-2.1-7.3-3.8-12.7-2.4
						c-2.2,0.6-4.5,1.3-6.6,2c0.3-7.5-2.6-14-13.7-16.8c-17-4.3-33.8-13.1-46.3-12.8c-3.8,0.1-6.7,3.4-9,8
						c-16.4-8.6-49.7-25.6-49.7-25.6s3.8,8.5,4.8,13.4c11.3,6.7,29.7,15.6,41.8,21.2c-1.5,6.1-2.2,12.6-2.1,17.5
						c0.1,10.1,5,20.1,24.9,20.9c14.8,0.6,25.5,2.8,34.8-1.4c9.3-4.3,10.7-6.8,12.2-12.2c0.4-1.6,0.9-3.2,1.2-4.8
						c6.5-1,18.3-2.1,19.9,4.3c0.2,0,0.3,0,0.4,0c0.4,3.9,1.2,7.1,2,8.7c1.8,3.6,10.8,5.6,24,4.1c15.1-1.7,16.7-5.1,21.8-18.9
						C759.6,906.6,760.2,904.8,755.8,900.4z"/>
				</g>
			</g>
			<path class="st4" d="M629.1,1032.2c0,0-40.6,21.5-51,44.9c-18.5-37.5-25.2-140.2-24-151.9c1.2-11.7,8.2-18,8.2-18s-4.7,37,8,51.2
				C583,972.5,629.1,1032.2,629.1,1032.2z"/>
			<path class="st9" d="M637,1033.9c10.7,4.8,24.3,28.4,27.5,43.1c16.8-26.4,27.9-48.7,27.9-48.7"/>
			<path class="st10" d="M622.4,1075.3c-1.8-1.2-14.9-20-13.1-21.3c1.8-1.2,26-18.5,26-18.5l11.3,20.3l-7.6,17.6l11.1,383.2
				l-28.9,41.8l-36.9-39.4c0,0,14.8-268.2,14.8-297.1S622.4,1075.3,622.4,1075.3z"/>
			<path class="st11" d="M578,1077.1l57.2-42.1l-6.2-2.8C629.1,1032.2,579.9,1055,578,1077.1z"/>
			<path class="st11" d="M664.5,1077.1"/>
			<path class="st11" d="M664.5,1077.1c0,0-29.9-39.2-31.6-40.5s4.2-5.4,10,3.3c5.8,8.7,13.8,16.8,16,21.9
				S664.5,1077.1,664.5,1077.1z"/>
		</g>
		<path class="st4" d="M260.8,1223.3c7.1-30.4-5.8-68-1.1-79.3c4.6-11.3,4.8-13.9,18.1-23.6c13.3-9.8,36.1-24.2,34.5-38.1
			c-1.5-13.9-68.6-157.7-81.4-161.8c-12.9-4.1-42.3,2.1-46.4,11.9c-4.1,9.8-30.4,35.6-27.3,56.7c3.1,21.1-12.4,44.3-18,53.6
			c-5.7,9.3,0,51.5,0,51.5s101.9,285.1,102.9,281.5C243.1,1372,248.3,1276.5,260.8,1223.3z"/>
		<path class="st3" d="M386.8,1554.5c0,0-23.3-22.8-41.5-22.8c-20.5-32.6-49.9-308.6-56.4-324c-6.5-15.4-26.7-61.9-29.3-63.8
			c-0.8-0.6-24.2,16.9-32.2,59.6c-16.7,90-22.5,252.2-17.8,280.6c7,42,20,101.2,26.6,116.1c6.5,14.9,60.1,60.6,94.2,58.7
			C364.5,1657.1,386.8,1554.5,386.8,1554.5z"/>
		<path class="st3" d="M442.1,906.5c1.9-2.3,10.3-20-6.1-49.4c-16.3-29.4-58.5-61.1-109.4-71.3s-94.7-16.3-135.3,26.6
			c-40.6,42.9-50.8,87.6-46.1,119.8c4.7,32.2,14.9,55.5,22.8,67.1c7.9,11.7,264.3-63.9,264.3-63.9L442.1,906.5z"/>
		<path class="st4" d="M300.5,1116.2c-10.3-6.1-22.9-13.2-36.6-29.4c-25.2-29.8-32-47.4-33-52.6c-1-5.2,3.6-52.1,3.6-52.1
			s-20.1-12.9-25.8-22.7c-5.7-9.8-11.3-52.6-3.6-65.5c7.7-12.9,38.2-30.4,55.7,8.2c14.9,27.8,19.6,30.4,23.2,34.5
			s32.5-20.1,39.7-25.3c7.2-5.2,36.1,1.5,53.1-12.4c17-13.9,14.9-24.2,26.3-28.3c11.3-4.1,37.1,5.7,41.2,13.9
			c4.1,8.2,9.3,26.8,7.2,56.7c-2.1,29.9-7.2,35.6-7.2,35.6s-9.8,2.1-11.9,6.2s7.7,55.7,8.2,60.3c0.5,4.6-3.6,8.8-7.7,9.3
			c-4.1,0.5-20.6,4.1-20.6,4.1l-3.6,19.6l-12.9,3.6c0,0,3.1,10.3,1.5,14.4c-1.5,4.1-14.4,11.9-14.4,11.9s2.1,24.2-6.2,28.3
			C368.5,1138.9,324.4,1130.3,300.5,1116.2z"/>
		<path class="st3" d="M151.7,934.4c0,0-34-3.7-33.6,28.4c39.1,18.3,57.8-10.7,45.7-19.6C151.7,934.4,151.7,934.4,151.7,934.4z"/>
		<path class="st3" d="M151.7,985.2c0,0-0.5-21-4.2-24.2s-24.7-9.3-49.4,15.8c-24.7,25.2-62.5,45.7-63.9,72.2
			c-1.4,26.6,34,75,50.3,66.7s66.7-62,67.1-76.4S151.7,985.2,151.7,985.2z"/>
		<path d="M381.2,1002.8c14.2,6.4,30.7-4.1,34.8-11.3c4.1-7.2,13.3-4.6,19.5,0c6.7-6.1,8.2-10.2,0-14.8c-8.2-4.6-8.2-4.6-8.2-4.6
			s3.1-11.8-6.7-16.4c-9.7-4.6-33.3-15.4-39.4-17.9c-6.1-2.6-16.4,5.6-16.4,9.7c-29.7-17.4-104-45.2-104-45.2l11.1,19.3l84.2,41.3
			C356.1,962.9,347.4,987.5,381.2,1002.8z"/>
		<path class="st8" d="M151.7,1039.3l72.8,129.6c0,0-27.7,50-28.8,46.2c-1-3.8-51.6-165.2-51.6-165.2L151.7,1039.3z"/>
		<path class="st8" d="M227.5,1203.5c0,0,18.2,60.6,20.4,54.1s11.8-113.7,11.8-113.7l-35.1,25L227.5,1203.5z"/>
		<g>
			<path class="st4" d="M151.9,1107.3c0,0,49.7,84.5,70.4,87.5c29.6-23.4,38.9-47.5,38.9-47.5s-0.2,89.2-7.6,115.8
				c-10.5-42.9-35.7-65.9-35.7-65.9s-14.3,9.6-29.7,28S151.9,1107.3,151.9,1107.3z"/>
			<path class="st3" d="M186.7,1655c24.7-34.4,73.2-167.6,74.1-193.2c0.9-25.6-22.9-89.2-42.7-163.9c-11.3-42.6-64-241-79.9-263.9
				c-7.1-7.1-20.3-7.9-28.2,0s-30.9,19.4-30.9,19.4s-55.2-7.8-71.7-16.1c-11.7-5.9-76.5,2.9-91.4,18.8s-73.2,97-77.6,152.6
				s11.5,373.1,22.1,412.8s16.8,95.4,16.8,95.4l298.7-23.6L186.7,1655z"/>
			<path class="st3" d="M79.1,1053.5c0,0,12.6,48.6,35.1,114.4c1.3,3.8,21.1-36.1,22.5-32.1c2.1,6-14.2,55.9-12,62.1
				c32.1,89.1,79.3,198.5,136.1,263.9"/>
			<path class="st3" d="M286.1,1201c0,0-0.8,17.3-1.9,37.7c-0.2,3.7-10.1-28-10.3-24.2c-0.4,6.7,10.8,39.6,10.3,46
				c-0.8,12.4-2.1,38.1-3,44c-2.8,19.9-30.4,106.6-30.4,106.6s-6.6-33.8-8.8-35.5s19.8-158.8,22-171.6c2.2-12.8-4.4-60.1-4.4-60.1
				L286.1,1201z"/>
			<path class="st10" d="M217.1,1201c-0.8,0.6-15.8,19.5-15.8,19.5s11.7,47.7,13.7,46.1c2.1-1.6,10.9,1.9,11.9,0.5
				c7.4-9.5,7.4-25.6,7.4-25.6L217.1,1201z"/>
		</g>
		<path class="st10" d="M217.5,1274.4c1.2,0,9.9,0,9.9,0l18.5,59.7l-3.8,41.5L217.5,1274.4z"/>
		<path class="st3" d="M-184.6,1569.4c1.7-2.2,90-104.1,94.4-120.8c4.4-16.8,1.8-24.7,11.5-35.3c9.7-10.6,88.2-93.5,99.7-117.3
			s47.6-75.9,51.2-107.6s11.5-114.7-30-136.7s-101.7-27.8-142.3,17.2s-93.2,101-100.3,115.1c-7.1,14.1-13.2,35.3-20.3,50.3
			c-7.1,15-115.5,163.2-122.6,185.2s-47.8,115-56.5,142.6c-8.7,27.6-14,70.8,0.1,80.5C-385.7,1652.3-204.8,1594.7-184.6,1569.4z"/>
		<g>
			<path class="st3" d="M1035.3,1234.8c0.7-3.9,15.2-15.2,16.6-21.7c1.4-6.5,15.9-21.7,16.2-29.5c0.4-7.8-0.7-30.7-3.2-35.3
				c-2.5-4.6-7.1-8.8-9.9-10.2c-2.8-1.4-2.8-19.8-4.9-25.1c-2.1-5.3-9.9-26.5-18.7-28.3c-8.8-1.8-40.3-10.6-48.7-9.2
				c-8.5,1.4-32.1-0.2-32.1-0.2h-18.4c0,0-7.1,16.4-7.4,20.3c-0.4,3.9-2.5,10.9-5.3,12.7c-2.8,1.8-9.5,4.9-12.7,9.9
				c-3.2,4.9-8.1,14.5-8.8,19.1c-0.7,4.6-5.7,20.8-3.2,24.4s4.9,23,4.9,23l113.7,65L1035.3,1234.8z"/>
			<path class="st4" d="M897.3,1312.5c13.8,9,32.8,3.9,48.4,2.8s53.7-16.6,57.6-26.8c3.9-10.2,9.2-21.5,9.2-21.5s16.2-0.1,20.8-9.6
				c4.6-9.5,15.9-25.4,13.8-35c-2.1-9.5-12-14.1-21.9-3.9c-9.9,10.2-9.9,10.2-9.9,10.2s7.1-38.1,6.7-43.1s7.4-7.4,8.1-12
				c0.7-4.6-8.5-31.4-12-37.4c-3.5-6-29-9.7-38.5-9.4c-9.5,0.3-26.5-2.9-31.8-6.5c-5.3-3.5-15.5-12-15.5-12s-23.7,21.5-27.2,31.4
				c-3.5,9.9-5.7,21.5-7.8,25.4s-9.5,15.9-13.1,25.4c-3.5,9.5-6.4,41-4.6,53s4.2,34.3,5.7,45.2S884.9,1304.3,897.3,1312.5z"/>
		</g>
		<g>
			<g>
				<g>
					<g>
						<path d="M1008.7,1201.5c0.9-5.5-2-6.3-6.8-8c-6.9-2.4-13.8-4.5-20.8-6.6c-6.9-2-19.2-5.1-26.4-5.6c-5.2-0.4-11.2-0.5-15.8,2.3
							c-1.2,0.7-1.5,1.4-2.7,1.7c-1.3,0.3-3.1-0.3-4.3-0.6c-0.9-0.2-3.6-0.8-4.2-1.7c-0.4-0.6-0.4-2.3-0.9-3.2
							c-2.6-4.5-6.5-7-10-9.1c-8.9-5.3-16.8-7.3-28.4-10.7c-4.1-1.2-7.2-2.4-9.1,2.8c-0.9,2.6-0.5,4,1.4,6c0.9,0.9,1.1,0.7,1.4,1.9
							c0.4,1.7-0.3,4.7-0.4,6.4c-0.4,6.3-0.6,12.9,1.3,18.9c2.1,6.5,7.7,10,11.7,11.9c4.6,2.2,9.6,2.5,14.9-0.5
							c5.1-2.8,8-8.3,11.4-14.1c0.8-1.4,1.7-2.9,2.6-4.3c1.4-2.2,1.1-2.2,3.2-1.2c1.3,0.6,2.9,1.1,4.4,1.5c0.8,0.2,5.9,0.2,6.3,0.6
							c0.6,0.6,0.3,3.5,0.4,4.4c0.1,1.9,0.3,3.9,0.4,5.8c0.2,3.2,0.2,6.7,1.2,9.8c2.4,7.5,9.6,12.8,16.7,15.4
							c7.1,2.5,22.4,6,29.6,2.8c5.9-2.6,9.7-9,12.6-14.5c1.3-2.4,2.5-7.1,5-8.1c1.3-0.5,2.5,0.2,3.7-0.9
							C1008.2,1203.9,1008.5,1202.6,1008.7,1201.5z"/>
					</g>
				</g>
			</g>
		</g>
		<path d="M1000.1,1207.1c0.5,0.2,27.6,9.1,27.6,9.1s3.5-5.6,7.3-5.5c-18.7-9-26.6-14.7-28.2-14.7S1000.1,1207.1,1000.1,1207.1z"/>
		<path class="st8" d="M881.2,1345.8c0.3-1.1,42.6,76.1,44.7,76.1s-40.1,42.1-40.2,41.8S873.6,1378.1,881.2,1345.8z"/>
		<path class="st8" d="M927.9,1421.9c0,0,55.1-58.7,55-57.6s-13.8,99.1-15.5,112.6C939.5,1428.4,927.9,1421.9,927.9,1421.9z"/>
		<path class="st7" d="M925.9,1439.7l-23.6,18.9c0,0,8.8,23.1,14.1,30.2c19.1,0,20.5,0,20.5,0l11.1-20.1L925.9,1439.7z"/>
		<path class="st8" d="M887.4,1475c0,0,7.8-7.1,7.9-6.2c0.1,0.9,11.5,21.4,11.5,21.4s-9.9,34.8-11.5,33.3
			C893.7,1522.1,887.4,1475,887.4,1475z"/>
		<g>
			<path class="st4" d="M497.1,1663.8c0-9.7-49.4-55.6-82.9-73.2c-33.5-17.6-43.2-13.2-56.4-11.5c-13.2,1.8-33.5,15.9-51.2,18.5
				c-5.3,0.8-13.3,0.8-24.6,0.2c-4.9,23.5-12.1,63.7-9.9,87.2c5.3-0.4,9.6-0.8,12.5-1c16.8,8.8,135.8-8.8,135.8-8.8
				C449.1,1671.4,497.1,1673.5,497.1,1663.8z"/>
			<path class="st3" d="M282,1597.9c-5.3-0.3-11.2-0.6-18-1.1c-6.5-0.4-1.1-6.7-9.2-7.3c-26.3-2-72-9.3-118.2-11.9
				c-107.6-6.2-184.6-51.1-294.8-63.7c-194-22.1-244.3,108.5-241.7,128.8c2.6,20.3,39.7,75.9,124.4,80.3
				c79.7,4.2,461.4-30.8,547.6-37.8C269.9,1661.6,277.1,1621.3,282,1597.9z"/>
			<path class="st4" d="M295.1,1598.3c0,2.6-22.5,31.1-10.5,85.8c-20.3,1.6-33.3,2.7-33.3,2.7s3.2-87.6,16.8-89.7
				C281.6,1594.9,295.1,1598.3,295.1,1598.3z"/>
		</g>
		<path class="st4" d="M397.8,1577.6c0,0-6.3-7-11.1,7.3c-4.8,14.3-8.9,28.2-17.4,30.5s-21.6-4.4-20.9-12.7
			c0.6-8.2,9.5-29.2,13-36.5c3.5-7.3,13.6-19.7,18.4-22.5c4.8-2.9,25.4-0.6,31.1,9.8c16.5-2.9,28.9-1.6,31.4,7
			c2.5,8.6,2.5,8.6,2.5,8.6s11.7-2.9,15.2,6.3c3.5,9.2,4.8,12.7,4.8,12.7s5.7-5.4,11.7,6.7c6,12.1,8.9,36.2,9.2,42.8
			c0.3,6.7-4.4,15.5-11.7,16.5c-2.2,23.2-15.2,23.2-21.3,22.8c-7.9,7-32.7,9.2-30.1-12.4c-14.9-1-36.2-6.3-30.8-24.4
			c5.4-18.1,13-50.8,10.8-54.9S397.8,1577.6,397.8,1577.6z"/>
		<path class="st4" d="M721.9,1681.8l220.2,155.8c0,0,493.7-120.2,487.8-114.3c-5.9,5.9-448.8-41.5-448.8-41.5H721.9z"/>
		<path class="st4" d="M531.1,1674c9.7-1.9,395.7,86.7,456.1,102.5c336.3-88.7,336.3-88.7,336.3-88.7L771,1642.5L531.1,1674z"/>
		<polygon class="st8" points="606.6,2933.5 606.6,2816.2 2515.9,1759.7 2515.9,1841.1 		"/>
		<polygon class="st8" points="-1120.5,1759.7 -1120.5,1802.3 606.6,2933.5 606.6,2816.2 		"/>
	</g>
</g>
</svg>
