<?xml version="1.0" encoding="utf-8"?>
<!-- Generator: Adobe Illustrator 24.0.0, SVG Export Plug-In . SVG Version: 6.00 Build 0)  -->
<svg version="1.1" id="Layer_1" xmlns="http://www.w3.org/2000/svg" xmlns:xlink="http://www.w3.org/1999/xlink" x="0px" y="0px"
	 viewBox="0 0 1125 2436" style="enable-background:new 0 0 1125 2436;" xml:space="preserve">
<style type="text/css">
	.st0{clip-path:url(#SVGID_2_);}
	.st1{fill:#FFFFFF;stroke:#231F20;stroke-width:1.1691;stroke-miterlimit:10;}
	.st2{fill:#FFFFFF;stroke:#231F20;stroke-width:0.5726;stroke-linecap:round;stroke-linejoin:round;stroke-miterlimit:10;}
	.st3{fill:#FFFFFF;stroke:#231F20;stroke-width:0.5726;stroke-miterlimit:10;}
	.st4{fill:#FFFFFF;stroke:#231F20;stroke-width:1.2603;stroke-miterlimit:10;}
	.st5{fill:#FFFFFF;stroke:#231F20;stroke-width:0.8289;stroke-miterlimit:10;}
	.st6{stroke:#231F20;stroke-width:0.5726;stroke-linecap:round;stroke-linejoin:round;stroke-miterlimit:10;}
	.st7{fill:#ED1C24;}
	.st8{fill:#FFFFFF;stroke:#FFFFFF;stroke-width:0.5726;stroke-linecap:round;stroke-linejoin:round;stroke-miterlimit:10;}
	.st9{stroke:#FFFFFF;stroke-width:0.5726;stroke-linecap:round;stroke-linejoin:round;stroke-miterlimit:10;}
</style>
<g>
	<defs>
		<rect id="SVGID_1_" width="1125" height="2436"/>
	</defs>
	<use xlink:href="#SVGID_1_"  style="overflow:visible;"/>
	<clipPath id="SVGID_2_">
		<use xlink:href="#SVGID_1_"  style="overflow:visible;"/>
	</clipPath>
	<g class="st0">
		<g>
			<g>
				<path class="st1" d="M72.7,1522.8c-110.1-69.5-200.6-157-291-249.9c116.2-64.5,244.1-88.5,347.5-176.5
					c77.4,75.9,154.1,121.5,256.1,156.7C285.4,1350.4,187.8,1443.1,72.7,1522.8z"/>
				<g>
					<path d="M45.3,1320.8c-7.3,3.6-20.3,9-28.3,11.5c-31.5-23.6-61.8-48.8-91.2-75c4.1-1.7,6.2-2.5,10.4-4.1
						c34.7-13.1,72.4-5.8,107.2,3c26.9,6.3,43.2,6.5,58.7-2.1s14.9-19.7-0.9-32.5c-9.7-7.8-22-14.3-36.7-20.5
						c8.5-4.2,18.9-9,29.9-13.6c12.1,4.7,25.2,11.9,36.5,20.8c31.8,25.3,25.9,46.5-0.7,62.7c-27.5,16.7-61.7,15-91.8,7.1
						c-23.5-5.4-39.8-9.7-56.3-6.7C7.4,1292.9,19.8,1302.6,45.3,1320.8z"/>
					<path d="M226.6,1357c-42.4,33.9-101.3,52.9-151.7,20.4c-12.5-8-21-16.7-24.2-23.2c6.4-3.7,15.4-8,27.6-12.7
						c3.2,6,11.5,13.6,20.6,19.3c28.5,17.8,62.1,9.9,87.6-9.5c-16.4,4.4-34.6,1.9-49.6-6.6c-25.8-14.5-25.7-35.9,5.4-55.4
						c29.2-18.4,65.1-27,98.1-13.1C281.6,1293.7,248.4,1339.6,226.6,1357z M203.7,1337.7c26.1-22,29.5-35,13.4-42.8
						c-14.3-6.9-31.3-2.4-47.2,8.8c-17.6,12.4-15.2,22.6-1.9,29.5C177.2,1338.2,189.4,1339.8,203.7,1337.7z"/>
				</g>
			</g>
		</g>
		<path class="st2" d="M233.7,844.8c0,0,199.2,28.5,272.5-30.5c111.9,77.3,158.7,87.4,266.4,115.9
			c-366,128.1-484.9,115.9-484.9,115.9L233.7,844.8z"/>
		<g>
			<g>
				<path class="st3" d="M-13.8,981.7C19.8,918,48.3,856.2,63.9,785.6c68.4,54.9,145.8,120,234.3,137.4
					c37.7,86.4,110,154.6,141.6,244C289.7,1137.1,115.5,1063.3-13.8,981.7z"/>
				<g>
					<path d="M194.8,1009.9c-33.2-14.4-70.4-43.4-69.1-83c0.3-8,2-14.5,4.3-20.2c9,5.3,16.9,10.8,25.4,17.1c-1.3,2.8-2.4,9-1.8,16.8
						c1.3,19,11.9,33.7,36.9,45.7c23.3,11.2,30.9,6.2,25.3-12.4c-2.1-7-5.7-15-9.6-22.1c28.5,15,57,29.9,86.7,42.6
						c15.8,28,24.6,42.8,39.4,70.7c-8.5-3.1-22.5-9.2-31.4-13.6c-8.1-17.5-12.5-26.5-21.4-44.2c-13.5-6.2-20.5-9.5-34.6-16.4
						c0.8,1.4,1.4,2.9,2,4.4C257.4,1021.7,241,1029.9,194.8,1009.9z"/>
				</g>
			</g>
		</g>
		<g>
			<g>
				<path class="st3" d="M237.7,828.4C174.4,862.6,131.8,927.6,88.8,983C62,874.5-23.4,759.9-95.6,677c74-42,151-44.6,234.5-45.5
					C184,694,215.7,754.3,237.7,828.4z"/>
				<g>
					<path d="M143.2,772.5c2.6,5.4,6.4,14.9,8,20.5c-22.2,15.7-33,24.8-53.1,44.1c-1.8-3.6-2.8-5.4-4.7-9
						c-15.3-29-16.3-52.1-9.3-75.8c4.8-15.5,6.2-24.8-1.5-36.8c-7.7-11.9-19.7-16-33.2-11.5c-8.3,2.7-14.7,7.8-19.7,15
						c-4.5-6.9-9.4-14.9-13.5-22.7c4.5-5.5,12.1-10.3,22.5-13c29.2-7.5,52.5,4.2,65.1,23.9c11.1,17.4,9.7,32,1.5,56.1
						c-4.5,13.5-6.5,23.7-2.4,36.5C118.4,787.9,126.6,782.3,143.2,772.5z"/>
				</g>
			</g>
		</g>
		<g>
			<g>
				<path class="st3" d="M666.6,1233.6c-47.5-76.6-99.1-150.6-157.8-219.2C594.6,988.3,673,943,741.5,885.1
					c79,30.9,142.6,71.9,199.8,134.9C842.9,1077,749.6,1156.1,666.6,1233.6z"/>
				<g>
					<path d="M777.6,952.5c-44.2,31.2-89.1,61.1-134.9,89.8c-6.2-7.1-9.3-10.5-15.4-17c36.9-22.1,72.9-45.2,108.5-69.3
						c-11.7-4.5-24.7-8.2-34.2-9.9c6.8-4.6,13.9-8.8,20.7-12.3C738,935.3,760.4,942.2,777.6,952.5z"/>
					<path d="M858.1,1015.2c-50.8,35.8-100.3,73.3-149.8,110.9c-5.9-8.6-8.9-12.8-15.1-21.2c40.6-29.4,80.9-59.1,121.7-88.3
						c-11.5-6.7-24.9-12.7-35.1-16c7.9-5.6,16.2-10.6,24-14.5C820.6,990,842.9,1001.2,858.1,1015.2z"/>
				</g>
			</g>
		</g>
		<g>
			<g>
				<path class="st4" d="M185.7,1963.8c-158.1-119.5-362.1-160.4-552.2-200.7c144.2-131,298.5-264,399.7-432.7
					c130.2,43.6,229.6,101.1,324.9,200.5C354.7,1705.1,318.6,1844.4,185.7,1963.8z"/>
				<g>
					<path d="M61.4,1650.2c-40.1,50.9-121.8,39.3-176.2,25.1c-23.8-6.2-42.3-13.2-55.4-20c10.3-9.9,26.1-22.3,39.2-31.3
						c12.3,6.5,28.2,12.9,44.8,17.4c31.1,8.5,73.1,16,96.7-10.2c18.2-20.2,3.9-37.7-36.9-50.2c-12.5-3.8-18.8-5.7-31.3-9.3
						c12.1-13.2,18.1-19.9,29.8-33.3c11.9,3.7,17.8,5.5,29.6,9.4c35,11.4,60.6,9.4,75.8-12.1c12.3-17.5,6-34.7-26.7-46.5
						c-16.8-6.1-34.3-8.5-52.5-8.5c4.6-5.7,21.3-29.7,31.5-34.2c9.6-4.2,36.1,3,51,8.8c38.4,15,67.4,51.8,43.4,91.6
						c-15.7,26-46.3,37.1-75.9,36C74.5,1600.5,83,1622.8,61.4,1650.2z"/>
					<path d="M284.5,1567.6c-19,78.4-46.6,146.3-89.5,214.7c-19.6-10.6-29.8-15.6-50.5-25.2c38.2-55.1,68-111,92.3-173.5
						c-20.7-8.4-44.5-14.6-62.3-16.9c6.3-12.5,13.5-24.5,20.5-34.8C228.9,1533.3,256.8,1550.3,284.5,1567.6z"/>
				</g>
			</g>
		</g>
		<g>
			<g>
				<path class="st5" d="M-518.1,1218.3c-52.1-133.2-60.1-317.7-40.3-458.6c123.8,67.9,262.7,105.8,401.5,128.8
					c-14.2,99.1-13.2,189.3,20.4,284.3C-259.6,1208.9-389.8,1231.7-518.1,1218.3z"/>
				<g>
					<path d="M-376.7,1106.5c-44.8-0.6-63-48.9-67.4-87.1c-4-34.3,11.8-78.3,53.8-69.3c23.7,5.1,39.5,22.2,48.9,45.4
						c9.8-16.9,27.7-25.9,51.2-23c32.7,4.1,53,32.2,54.2,63.7c1.3,36-14.9,58.6-43.1,60.8c-20.3,1.6-37-7.8-49.5-28.2
						C-336.6,1089.8-350.6,1106.9-376.7,1106.5z M-382.9,1065.9c14.3,0.7,24.9-9.1,30.3-34.6c0.4-1.8,0.5-2.7,0.9-4.5
						c-9.5-22.2-21.4-32.9-35.5-35.2c-18.9-3-28.1,10.5-26.4,34.4C-412,1051.5-399.5,1065-382.9,1065.9z M-289.2,1007.3
						c-15.9-1.2-25.2,10.1-29.6,27.3c-0.3,0.9-0.4,1.4-0.7,2.3c9.9,19.4,21.6,25.9,34,25.7c13.8-0.3,23.2-8.6,22.1-27.1
						C-264.6,1017.2-275,1008.4-289.2,1007.3z"/>
				</g>
			</g>
		</g>
		<g>
			<path d="M593.4,954.2c-6.4,3.4-15.9,6.1-23.2,7.7c-76-11.7-146.7-14-211-6.2l-22.4-39.2c58.7-6,126.4-2,190.5,6.5l-67.6-70.5
				c7.1-1.7,17.5-4,24-4.9L593.4,954.2z"/>
		</g>
		<g>
			<polygon class="st2" points="956.8,460.1 919.8,856.5 633.1,826.9 			"/>
			<path class="st2" d="M906.2,856.5c0,0,27.5-75.4,33.4-237c-121.3,20-294.8,179.6-295.3,181s-11.3,26.4-11.3,26.4L906.2,856.5z"/>
			<path class="st2" d="M878.5,822.9c0,0,43-26.8,54.6-138.3s23.6-224.4,23.6-224.4l-270.3,32.8c0,0-43.3,317.4-53.4,334
				C702.2,832.6,819.9,837.4,878.5,822.9z"/>
			<polygon class="st2" points="956.8,460.1 919.8,856.5 1020.5,848.9 1048.7,486.7 			"/>
		</g>
		<g>
			<path class="st2" d="M684.8,489.3l272-29.2c0,0-0.4,12.3-8.4,82.7c-14.8,131.5-37,241.5-122.6,179.5c0,0-118.2,74.2-199.3,78.1
				C657.6,690.2,684.8,489.3,684.8,489.3z"/>
			<path class="st6" d="M882,738c0,0-18.2,10.1-56.3-15.6c-34.3,19.7-121.6,68.7-199.3,78.1C705.1,793.6,882,738,882,738z"/>
			<g>
				<path class="st7" d="M780.4,521.7l-34.4,165.7l-27.6,2.2L746.6,554c-14.6,3.9-30.3,9.3-41.4,14c1.9-9.3,4.7-18.7,7.9-27.2
					C730,531.8,757,524,780.4,521.7z"/>
				<path class="st7" d="M894.7,631c-6.3,30.6-31.5,51.1-72.5,54.3c-12.1,0.9-22.4,0.1-30.4-1.5c1.6-7.9,5.1-18.3,8.3-26.1
					c7.6,1.5,16.7,2.1,25.4,1.5c24.4-1.9,37.9-10.5,41.3-26.9c3.4-16.6-7.1-22.4-30-20.6l-17.6,1.4l5.2-25l17.4-1.4
					c20.6-1.6,33.1-9.2,36.4-25.3c2.7-13.1-4.7-20.8-25.7-19.1c-10.8,0.8-21,3.7-30.7,7.9c0.9-4.2,4.2-16.4,8-26.6
					c9.1-4.4,21.4-7.4,31.6-8.2c34-2.7,50.7,11.4,45,39.2c-3.8,18.4-15.6,32.9-32.5,40.9C890.9,598.9,899.2,609.3,894.7,631z"/>
			</g>
		</g>
		<g>
			<path class="st8" d="M480.1,550.2c0,0,41.4-28,49.3-34.7l207-10.3c0,0-56.6,39.6-143.1,58.4S480.1,550.2,480.1,550.2z"/>
			<path class="st9" d="M459.4,505.1c0,0,74.9,62.1,178.4,46.9c-241.7,82.2-284.3,109.6-350,85.2C373,591,459.4,505.1,459.4,505.1z"
				/>
		</g>
		<path class="st8" d="M578.2,437.8l-156.8-45.2c0,0-13.6,20.4-32.4,22.6c-18.7,21.7,54.4,46.7,84.7,44.9
			C504,458.3,578.2,437.8,578.2,437.8z"/>
		<path class="st9" d="M506.2,454c0,0-133.8,12.8-178.9-165.3c-132.1,75-236,87.8-235.2,91.2c0.9,3.4,33.8,107,120.7,108.2
			C309.4,489.4,506.2,454,506.2,454z"/>
	</g>
</g>
</svg>
