<?xml version="1.0" encoding="utf-8"?>
<!-- Generator: Adobe Illustrator 24.0.0, SVG Export Plug-In . SVG Version: 6.00 Build 0)  -->
<svg version="1.1" id="Layer_1" xmlns="http://www.w3.org/2000/svg" xmlns:xlink="http://www.w3.org/1999/xlink" x="0px" y="0px"
	 viewBox="0 0 1920 1080" style="enable-background:new 0 0 1920 1080;" xml:space="preserve">
<style type="text/css">
	.st0{clip-path:url(#SVGID_2_);}
	.st1{clip-path:url(#SVGID_5_);}
	.st2{fill:#FFFFFF;}
	.st3{stroke:#D1D3D4;stroke-width:0.5797;stroke-miterlimit:10;}
	.st4{fill:#FFFFFF;stroke:#FFFFFF;stroke-width:0.5797;stroke-miterlimit:10;}
	.st5{stroke:#FFFFFF;stroke-width:0.5797;stroke-miterlimit:10;}
	.st6{stroke:#FFFFFF;stroke-width:0.8709;stroke-miterlimit:10;}
	.st7{stroke:#FFFFFF;stroke-width:0.7862;stroke-miterlimit:10;}
	.st8{enable-background:new    ;}
	.st9{fill:#ED1C24;}
	.st10{stroke:#FFFFFF;stroke-width:0.4923;stroke-miterlimit:10;}
	.st11{fill:none;stroke:#231F20;stroke-width:1.077;stroke-linecap:round;stroke-miterlimit:10;}
	.st12{fill:none;stroke:#FFFFFF;stroke-width:1.077;stroke-linecap:round;stroke-miterlimit:10;}
	.st13{stroke:#FFFFFF;stroke-width:0.5748;stroke-miterlimit:10;}
	.st14{stroke:#FFFFFF;stroke-width:0.5049;stroke-miterlimit:10;}
	.st15{fill:#FFFFFF;stroke:#231F20;stroke-width:0.3006;stroke-miterlimit:10;}
	.st16{fill:#FFFFFF;stroke:#231F20;stroke-width:0.3911;stroke-miterlimit:10;}
	.st17{font-family:'Marion-Regular';}
	.st18{font-size:33.2823px;}
	.st19{fill:none;stroke:#FFFFFF;stroke-width:0.9385;stroke-miterlimit:10;}
	.st20{fill:none;stroke:#231F20;stroke-width:1.1614;stroke-miterlimit:10;}
</style>
<g>
	<defs>
		<rect id="SVGID_1_" y="0" width="1920" height="1080"/>
	</defs>
	<clipPath id="SVGID_2_">
		<use xlink:href="#SVGID_1_"  style="overflow:visible;"/>
	</clipPath>
	<g class="st0">
		<g>
			<defs>
				<rect id="SVGID_4_" x="-14.3" y="-14.1" width="1948.5" height="1098.6"/>
			</defs>
			<clipPath id="SVGID_5_">
				<use xlink:href="#SVGID_4_"  style="overflow:visible;"/>
			</clipPath>
			<g class="st1">
				<g>
					<rect x="-93" y="-88.8" class="st2" width="2070.9" height="1127.3"/>
					<rect x="-93" y="963.4" width="2070.9" height="703.9"/>
					<g>
						<g>
							<g>
								<g>
									<g>
										<path class="st2" d="M1161.4,1015.4c0-14.6-178.9-14.6-178.9,0c0,0.5,0,5.4,0,5.9c0,14.6,40,26.3,89.5,26.3
											c49.4,0,89.5-11.8,89.5-26.3C1161.4,1020.8,1161.4,1015.9,1161.4,1015.4z"/>
										<path class="st3" d="M1142.7,999.6c-38-14.5-61.8-40.6-62-68.9c0-0.3,0-0.6,0-0.9c0-6.2,0-159.8,0-175.7
											c0-46.8,28.5-64.3,48.5-77.4l-57.3-4.3c0-0.3,0-0.5,0-0.5l-3.4,0.3l-3.4-0.3c0,0,0,0.2,0,0.5l-57.3,4.3
											c20,13.1,48.5,30.7,48.5,77.4c0,15.9,0,169.5,0,175.7c0,9.5-1.2,17.8-3.2,25c-5.2,18.6-23,34.9-49,43.7
											c-13.5,4.6-21.6,10.6-21.6,17.2c0,14.6,40,26.3,89.5,26.3c49.4,0,89.5-11.8,89.5-26.3
											C1161.4,1009.6,1154.4,1004,1142.7,999.6z"/>
										<path class="st2" d="M1103.4,987c-9.7-14.5-26-28-26-56.4c0-0.3,0-0.6,0-0.9c0-6.2,0-159.8,0-175.7
											c0-46.8,7.2-64.3,12.3-77.4l-14.6-4.3c0-0.3,0-0.5,0-0.5l-0.9,0.3l-0.9-0.3c0,0,0,0.2,0,0.5l-14.6,4.3
											c5.1,13.1,12.3,30.7,12.3,77.4c0,15.9,0,124.5,0,130.6c0,9.5-1.3,30.8-0.8,38.1c1.6,25.4,7.3,38.5,17.9,55.6
											c3,4.9,13.3,28.1,16,34.1c9.5,20.1,23.4,23.9,41.9,13.7c11-6-6-17.6-16.7-21.6C1123.9,1002.4,1106.3,991.5,1103.4,987z"/>
									</g>
									<g>
										<path class="st2" d="M531.2,1015.4c0-14.6-178.9-14.6-178.9,0c0,0.5,0,5.4,0,5.9c0,14.6,40,26.3,89.5,26.3
											c49.4,0,89.5-11.8,89.5-26.3C531.2,1020.8,531.2,1015.9,531.2,1015.4z"/>
										<path class="st3" d="M512.5,999.6c-38-14.5-61.8-40.6-62-68.9c0-0.3,0-0.6,0-0.9c0-6.2,0-159.8,0-175.7
											c0-46.8,28.5-64.3,48.5-77.4l-57.3-4.3c0-0.3,0-0.5,0-0.5l-3.4,0.3l-3.4-0.3c0,0,0,0.2,0,0.5l-57.3,4.3
											c20,13.1,48.5,30.7,48.5,77.4c0,15.9,0,169.5,0,175.7c0,9.5-1.2,17.8-3.2,25c-5.2,18.6-23,34.9-49,43.7
											c-13.5,4.6-21.6,10.6-21.6,17.2c0,14.6,40,26.3,89.5,26.3c49.4,0,89.5-11.8,89.5-26.3
											C531.2,1009.6,524.2,1004,512.5,999.6z"/>
										<path class="st2" d="M473.2,987c-9.7-14.5-26-28-26-56.4c0-0.3,0-0.6,0-0.9c0-6.2,0-159.8,0-175.7
											c0-46.8,7.2-64.3,12.3-77.4l-14.6-4.3c0-0.3,0-0.5,0-0.5l-0.9,0.3l-0.9-0.3c0,0,0,0.2,0,0.5l-14.6,4.3
											c5.1,13.1,12.3,30.7,12.3,77.4c0,15.9,0,124.5,0,130.6c0,9.5-1.3,30.8-0.8,38.1c1.6,25.4,7.3,38.5,17.9,55.6
											c3,4.9,13.3,28.1,16,34.1c9.5,20.1,23.4,23.9,41.9,13.7c11-6-6-17.6-16.7-21.6C493.7,1002.4,476.1,991.5,473.2,987z"/>
									</g>
								</g>
								<g>
									<path class="st2" d="M1250,676.3c0-19.4-986.4-19.4-986.4,0c0,2.2,0,9.7,0,11.6c0,20.4,172.8,25.9,215.4,19.8
										c41-5.9,99.9-13.8,277.8-14.3c177.9,0.6,236.8,8.5,277.8,14.3c42.6,6.1,215.4,0.6,215.4-19.8
										C1250,686,1250,678.6,1250,676.3z"/>
									<path class="st3" d="M1250,677.8c0,22.4-172.8,28.5-215.4,21.8c-41-6.4-99.9-15.1-277.8-15.7
										c-177.9,0.6-236.8,9.3-277.8,15.7c-42.6,6.7-215.4,0.6-215.4-21.8c0-21.4,209.4-34.5,473.1-35.7V642c6.7,0,13.4,0,20.1,0
										c6.7,0,13.3,0,20.1,0v0.1C1040.6,643.3,1250,656.4,1250,677.8z"/>
								</g>
							</g>
							<g>
								<ellipse class="st4" cx="870.3" cy="669.3" rx="51.1" ry="7.5"/>
								<path class="st5" d="M874,636.1v-91h-7.4v91c0,12.6-9.7,23.2-22.2,24.3c-15,1.3-25.1,3.7-25.1,6.4c0,4.1,22.9,7.5,51.1,7.5
									c28.2,0,51.1-3.4,51.1-7.5c0-2.7-10.1-5.1-25.1-6.4C883.7,659.3,874,648.7,874,636.1z"/>
								<circle class="st5" cx="870.3" cy="544.3" r="6.5"/>
								<rect x="661.9" y="353.9" class="st6" width="416.7" height="267.7"/>
								<rect x="678.1" y="369.5" class="st7" width="384.4" height="236.5"/>
								<g class="st8">
									<path class="st9" d="M742.5,446.4c0.7-0.2,1.5-0.4,2.6-0.5c1-0.1,2-0.2,2.8-0.2v29.1h-5.4V446.4z"/>
									<path class="st9" d="M772.9,445.9c0.9-0.1,1.9-0.2,2.8-0.2v29.1h-4.8l-10.2-16.5c-0.8-1.4-1.4-2.5-1.8-3.3
										c0.1,2,0.1,5.1,0.1,9.4v10.5h-5.1v-28.4c0.8-0.2,1.6-0.4,2.5-0.5c0.9-0.1,1.8-0.2,2.6-0.2l9.4,15.5
										c0.7,1.1,1.4,2.5,2.3,4.3c-0.2-3.3-0.2-6.9-0.2-10.6v-8.5C771.1,446.2,772,446.1,772.9,445.9z"/>
									<path class="st9" d="M787,450.7v7.4h10.1c-0.1,2.1-0.3,3.7-0.5,4.6H787v12.1h-5.4v-28.8h16.7c0,0.7-0.1,1.6-0.2,2.4
										s-0.2,1.6-0.3,2.2H787z"/>
									<path class="st9" d="M806.3,473.7c-1.9-1.2-3.4-3-4.4-5.2c-1-2.3-1.5-4.9-1.5-8c0-3.1,0.5-5.8,1.5-8.1c1-2.3,2.5-4,4.4-5.2
										c1.9-1.2,4.3-1.8,7-1.8c2.8,0,5.1,0.6,7.1,1.8s3.4,3,4.4,5.2c1,2.3,1.5,4.9,1.5,8c0,3.2-0.5,5.9-1.5,8.1
										c-1,2.3-2.5,4-4.4,5.2c-1.9,1.2-4.3,1.8-7,1.8C810.6,475.6,808.2,475,806.3,473.7z M820.7,460.5c0-3.4-0.6-6-1.9-7.8
										c-1.2-1.8-3.1-2.7-5.5-2.7c-2.4,0-4.3,0.9-5.5,2.6s-1.9,4.4-1.9,7.8c0,3.4,0.6,6,1.9,7.8c1.3,1.8,3.1,2.7,5.5,2.7
										C818.3,470.9,820.7,467.4,820.7,460.5z"/>
									<path class="st9" d="M839.5,464.2h-3.5v10.6h-5.4v-28.6c2.3-0.6,4.9-0.8,7.9-0.8c2.6,0,4.7,0.4,6.4,1.3
										c1.7,0.9,2.9,2,3.6,3.4c0.7,1.4,1.1,2.9,1.1,4.5c0,2-0.5,3.7-1.4,5.1c-0.9,1.4-2.2,2.5-3.8,3.3l6.7,11.9h-6.1L839.5,464.2z
										 M838.5,459.9c1.7,0,3.1-0.4,4-1.2c1-0.8,1.5-2.1,1.5-3.8c0-1.6-0.5-2.9-1.4-3.8c-0.9-0.9-2.4-1.3-4.2-1.3
										c-0.5,0-1.3,0-2.5,0.1v10H838.5z"/>
									<path class="st9" d="M884.2,474.9H879l-0.7-11.4c-0.2-3.7-0.4-6.9-0.4-9.6c-1,3.5-2.2,7.4-3.7,11.5l-3.2,9.6h-4.6l-3.3-9.7
										c-1.2-3.4-2.4-7.1-3.5-11.1c-0.1,3.9-0.2,7.2-0.4,9.9l-0.7,10.8h-5.2l2-28.4c0.8-0.2,1.8-0.4,3.1-0.5
										c1.3-0.1,2.4-0.2,3.4-0.2l6.8,21.8l6.8-21.1c0.9-0.2,2-0.4,3.3-0.5c1.2-0.1,2.4-0.2,3.5-0.2L884.2,474.9z"/>
									<path class="st9" d="M904,469.2h-10.7l-1.7,5.7h-5.3l9-28.4c0.7-0.2,1.8-0.3,3-0.5c1.3-0.1,2.5-0.2,3.8-0.2l9.1,29h-5.7
										L904,469.2z M902.7,464.7l-3.9-13.9l-4.2,13.9H902.7z"/>
									<path class="st9" d="M918,473.7c-2.1-1.2-3.6-3-4.7-5.3c-1.1-2.3-1.6-5-1.6-8c0-3,0.5-5.7,1.6-8c1.1-2.3,2.6-4,4.6-5.2
										c2-1.2,4.4-1.8,7.1-1.8c2.7,0,4.8,0.4,6.4,1.1c0,1.7-0.3,3.2-0.7,4.6c-1.6-0.7-3.3-1-5.2-1c-1.6,0-3.1,0.4-4.3,1.2
										c-1.2,0.8-2.2,2-2.8,3.6c-0.7,1.6-1,3.4-1,5.6c0,2.2,0.4,4.1,1.1,5.7c0.7,1.6,1.7,2.8,3.1,3.6c1.3,0.8,2.9,1.2,4.6,1.2
										c2,0,3.8-0.4,5.5-1.2c-0.1,1.5-0.4,3.1-0.8,4.9c-1.6,0.6-3.4,0.9-5.4,0.9C922.5,475.6,920,475,918,473.7z"/>
									<path class="st9" d="M935.6,446.4c0.7-0.2,1.5-0.4,2.6-0.5c1-0.1,2-0.2,2.8-0.2v29.1h-5.4V446.4z"/>
									<path class="st9" d="M951.2,473.7c-1.9-1.2-3.4-3-4.4-5.2c-1-2.3-1.5-4.9-1.5-8c0-3.1,0.5-5.8,1.5-8.1c1-2.3,2.5-4,4.4-5.2
										c1.9-1.2,4.3-1.8,7-1.8c2.8,0,5.1,0.6,7.1,1.8c1.9,1.2,3.4,3,4.4,5.2c1,2.3,1.5,4.9,1.5,8c0,3.2-0.5,5.9-1.5,8.1
										c-1,2.3-2.5,4-4.4,5.2c-1.9,1.2-4.3,1.8-7,1.8C955.5,475.6,953.1,475,951.2,473.7z M965.6,460.5c0-3.4-0.6-6-1.9-7.8
										c-1.2-1.8-3.1-2.7-5.5-2.7c-2.4,0-4.3,0.9-5.5,2.6s-1.9,4.4-1.9,7.8c0,3.4,0.6,6,1.9,7.8c1.3,1.8,3.1,2.7,5.5,2.7
										C963.2,470.9,965.6,467.4,965.6,460.5z M957.4,438.3c0.4-0.1,0.9-0.1,1.5-0.2c0.6,0,1.2-0.1,1.8-0.1c0.7,0,1.4,0,2,0.1
										c0.6,0.1,1.1,0.2,1.5,0.3c-0.9,1.4-2.2,2.6-3.6,3.5c-1.5,0.9-3.1,1.3-4.8,1.3h-0.9L957.4,438.3z"/>
									<path class="st9" d="M994.5,445.9c0.9-0.1,1.9-0.2,2.8-0.2v29.1h-4.8l-10.2-16.5c-0.8-1.4-1.4-2.5-1.8-3.3
										c0.1,2,0.1,5.1,0.1,9.4v10.5h-5.1v-28.4c0.8-0.2,1.6-0.4,2.5-0.5c0.9-0.1,1.8-0.2,2.6-0.2l9.4,15.5
										c0.7,1.1,1.4,2.5,2.3,4.3c-0.2-3.3-0.2-6.9-0.2-10.6v-8.5C992.7,446.2,993.5,446.1,994.5,445.9z"/>
								</g>
								<g class="st8">
									<path class="st9" d="M755.3,496.3c0.7-0.2,1.5-0.4,2.6-0.5s2-0.2,2.8-0.2v29.1h-5.4V496.3z"/>
									<path class="st9" d="M785.7,495.8c0.9-0.1,1.9-0.2,2.8-0.2v29.1h-4.8l-10.2-16.5c-0.8-1.4-1.4-2.5-1.8-3.3
										c0.1,2,0.1,5.1,0.1,9.4v10.5h-5.1v-28.4c0.8-0.2,1.6-0.4,2.5-0.5c0.9-0.1,1.8-0.2,2.6-0.2l9.4,15.5
										c0.7,1.1,1.4,2.5,2.3,4.3c-0.2-3.3-0.2-6.9-0.2-10.6v-8.5C783.9,496.1,784.8,496,785.7,495.8z"/>
									<path class="st9" d="M799,523.6c-2-1.2-3.6-3-4.7-5.3s-1.6-5-1.6-8c0-3,0.5-5.7,1.6-8c1.1-2.3,2.6-4,4.6-5.2
										c2-1.2,4.4-1.8,7.1-1.8c2.7,0,4.8,0.4,6.4,1.1c0,1.7-0.3,3.2-0.7,4.6c-1.6-0.7-3.3-1-5.2-1c-1.6,0-3.1,0.4-4.3,1.2
										c-1.2,0.8-2.2,2-2.8,3.6c-0.7,1.6-1,3.4-1,5.6c0,2.2,0.4,4.1,1.1,5.7c0.7,1.6,1.7,2.8,3.1,3.6c1.3,0.8,2.9,1.2,4.6,1.2
										c2,0,3.8-0.4,5.5-1.2c-0.1,1.5-0.4,3.1-0.8,4.9c-1.6,0.6-3.4,0.9-5.4,0.9C803.5,525.5,801,524.9,799,523.6z"/>
									<path class="st9" d="M820.2,523.6c-1.9-1.2-3.4-3-4.4-5.2c-1-2.3-1.5-4.9-1.5-8c0-3.1,0.5-5.8,1.5-8.1c1-2.3,2.5-4,4.4-5.2
										c1.9-1.2,4.3-1.8,7-1.8c2.8,0,5.1,0.6,7.1,1.8c1.9,1.2,3.4,3,4.4,5.2c1,2.3,1.5,4.9,1.5,8c0,3.2-0.5,5.9-1.5,8.1
										c-1,2.3-2.5,4-4.4,5.2c-1.9,1.2-4.3,1.8-7,1.8C824.5,525.5,822.1,524.9,820.2,523.6z M834.6,510.4c0-3.4-0.6-6-1.9-7.8
										c-1.2-1.8-3.1-2.7-5.5-2.7c-2.4,0-4.3,0.9-5.5,2.6c-1.2,1.8-1.9,4.4-1.9,7.8c0,3.4,0.6,6,1.9,7.8s3.1,2.7,5.5,2.7
										C832.2,520.8,834.6,517.3,834.6,510.4z"/>
									<path class="st9" d="M874.5,524.8h-5.2l-0.7-11.4c-0.2-3.7-0.4-6.9-0.4-9.6c-1,3.5-2.2,7.4-3.7,11.5l-3.2,9.6h-4.6
										l-3.3-9.7c-1.2-3.4-2.4-7.1-3.5-11.1c-0.1,3.9-0.2,7.2-0.4,9.9l-0.7,10.8h-5.2l2-28.4c0.8-0.2,1.8-0.4,3.1-0.5
										c1.3-0.1,2.4-0.2,3.4-0.2l6.8,21.8l6.8-21.1c0.9-0.2,2-0.4,3.3-0.5c1.2-0.1,2.4-0.2,3.5-0.2L874.5,524.8z"/>
									<path class="st9" d="M896.4,498c1.8,1.8,2.8,4.1,2.8,7c0,2-0.4,3.8-1.3,5.4c-0.9,1.5-2.2,2.7-3.8,3.6
										c-1.7,0.8-3.7,1.3-6.1,1.3h-3v9.6h-5.4V496c1.1-0.2,2.4-0.4,3.9-0.5c1.5-0.1,2.8-0.2,4.1-0.2
										C891.6,495.3,894.6,496.2,896.4,498z M892.2,509.3c1-1,1.4-2.3,1.4-4.1c0-1.8-0.5-3.1-1.4-4.1c-0.9-0.9-2.4-1.4-4.5-1.4
										c-0.9,0-1.9,0.1-2.8,0.2v10.9h3C889.8,510.8,891.2,510.3,892.2,509.3z"/>
									<path class="st9" d="M903.4,496.3c0.7-0.2,1.5-0.4,2.6-0.5c1-0.1,2-0.2,2.8-0.2v24.4h10.3c0,0.7,0,1.4-0.1,2.3
										c-0.1,0.9-0.2,1.7-0.3,2.3h-15.2V496.3z"/>
									<path class="st9" d="M927.7,520.2h11.9c0,0.7,0,1.4-0.1,2.3c-0.1,0.9-0.2,1.7-0.3,2.3h-16.8V496h17.4
										c0,0.7-0.1,1.6-0.2,2.4c-0.1,0.9-0.2,1.6-0.3,2.2h-11.5v7.3h10.7c0,0.7,0,1.4-0.1,2.3s-0.2,1.6-0.3,2.2h-10.2V520.2z"/>
									<path class="st9" d="M962.2,498.4c-0.1,0.9-0.2,1.7-0.3,2.3h-7.4v24.1h-5.4v-24.1h-7.9c0-0.7,0.1-1.5,0.2-2.4
										c0.1-0.9,0.2-1.6,0.3-2.2h20.7C962.3,496.7,962.3,497.5,962.2,498.4z"/>
									<path class="st9" d="M977.5,519.1h-10.7l-1.7,5.7h-5.3l9-28.4c0.7-0.2,1.8-0.3,3-0.5s2.5-0.2,3.8-0.2l9.1,29h-5.7
										L977.5,519.1z M976.2,514.6l-3.9-13.9l-4.2,13.9H976.2z"/>
								</g>
							</g>
							<g>
								<g>
									<polygon class="st4" points="592.7,1085.9 592.7,1085.9 592.9,1085.9 593.2,1086 593.2,1086 674.5,1118.9 674.5,1130.6 
										593.2,1106.4 592.7,1106.3 511.4,1082 511.4,1070.3 									"/>
									<polygon class="st5" points="592.7,1088.2 592.7,1088.1 592.9,1088.2 593.2,1088.3 593.2,1088.3 674.5,1121.2 
										674.5,1132.9 593.2,1108.7 592.7,1108.6 511.4,1084.3 511.4,1072.5 									"/>
								</g>
								<g>
									<polygon class="st4" points="593.2,1085.9 593.2,1085.9 592.9,1085.9 592.7,1086 592.7,1086 511.4,1118.9 511.4,1130.6 
										592.7,1106.4 593.2,1106.3 674.5,1082 674.5,1070.3 									"/>
									<polygon class="st5" points="593.2,1088.2 593.2,1088.1 592.9,1088.2 592.7,1088.3 592.7,1088.3 511.4,1121.2 
										511.4,1132.9 592.7,1108.7 593.2,1108.6 674.5,1084.3 674.5,1072.5 									"/>
								</g>
								<g>
									<polygon class="st4" points="592.7,1085.9 592.7,1085.9 592.9,1085.9 593.2,1086 593.2,1086 674.5,1118.9 674.5,1130.6 
										593.2,1106.4 592.7,1106.3 									"/>
									<polygon class="st5" points="592.7,1088.2 592.7,1088.1 592.9,1088.2 593.2,1088.3 593.2,1088.3 674.5,1121.2 
										674.5,1132.9 593.2,1108.7 592.7,1108.6 									"/>
								</g>
								<path class="st5" d="M597,1088.1h-8.1c-0.4,0-0.6-0.3-0.6-0.6v-85.8h9.4v85.8C597.6,1087.9,597.3,1088.1,597,1088.1z"/>
								<path class="st5" d="M729.9,848.9c-27.3-16-22.8-47.4,6.4-92.8c20.6-32.1,50.1-86.8,34.6-107.7c-15.5-21-25.5-23.7-76.6-3.6
									c-39.2,15.4-69.2,17.4-91.8,17.4c-0.2-0.1-0.5-0.1-0.7-0.1c-2.8,0-5.8,0-8.9,0.1c-3.1,0-6.1-0.1-8.9-0.1
									c-0.2,0-0.5,0-0.7,0.1c-22.6-0.1-52.6-2.1-91.8-17.4c-51.1-20.1-61.1-17.3-76.6,3.6c-15.5,21,14,75.6,34.6,107.7
									c29.2,45.4,33.7,76.8,6.4,92.8c-16.2,9.5-48.3,27.3-31,68.4c33.4,79.1,133.8,99.7,167.2,100.3l0,0c0.2,0,0.5,0,0.7,0
									s0.5,0,0.7,0l0,0c33.4-0.6,133.8-21.1,167.2-100.3C778.2,876.2,746.1,858.4,729.9,848.9z"/>
							</g>
						</g>
					</g>
					<g>
						<path class="st10" d="M1486.9,986.9c24.9,26.3,51.2,41.5,62.3,44.3c11.1,2.8,48.4-19.4,74.7-49.8c26.3-30.4,81.6-101,98.2-119
							s54-36,54-36l157.7,42.9c0,0,22.1,52.6,41.5,69.2c19.4,16.6,63.6,82.1,66.4,92.9s0,20.5,8.3,35.7s1.4,34.6,9.7,34.6
							s51.2-16.6,59.5-24.9s80.3-40.1,80.3-40.1s-4.2-23.5-12.5-19.4c-8.3,4.2-27.7,8.3-36,9.7s-54-1.4-54-1.4l-2.8-20.8l-37.4-40.8
							c0,0-66.4-161.2-72-166.7c-49.8-19.4-92.7-42.9-92.7-42.9l-63.6-24.9c0,0,4.2-61,0-67.9s-23.5-44.2-23.5-44.2
							s12.5-27.7,11.1-33.2s6.9-34.6,6.9-34.6s79.5,38.2,89.9,42.9c5.2,0.6,64.9-17.6,83.7-22.5c18.8-4.8,32.2-9.1,32.2-9.1
							l-1.1-11.3l24.2-11.8c0,0,1.6-9.7,1.1-11.3c18.8-11.3,46.2-40.3,48.3-43s1.6-10.2-1.6-8.6c2.7-5.9,0.5-12.4-2.7-9.7
							c0-6.4-3.2-12.9-7.5-9.1c-1.6-7.5-2.7-11.3-6.4-7c-4.8,1.1-4.8,1.1-4.8,1.1s1.1-9.7-3.8-5.9c-4.8,3.8-8.1,8.6-12.9,12.9
							s-10.7,6.4-10.2,10.2c0.5,3.8-1.6,21-1.6,21l-14.5,12.4l-17.2,8.6l-3.2-5.4c0,0-24.7,9.1-31.2,10.7c-6.4,1.6-8.6-1.1-11.3,3.8
							s-5.9,12.4-12.4,8.1c-6.4-4.3-15-5.9-16.7-4.3c-1.6,1.6-6.4,12.9-9.7,8.6c-3.2-4.3-8.1-4.3-15-3.2c-7,1.1-14,2.1-12.9,0
							s3.8-9.1,0.5-11.3c-3.2-2.1-5.4,2.7-10.2-1.6c-4.8-4.3-3.8-9.1-5.9-11.3c-2.1-2.1-7-9.1-10.7-10.7c-3.8-1.6-11.8,2.7-12.4-2.1
							c-0.5-4.8,3.8-8.1-1.6-10.7s-10.2-12.4-10.2-12.4s-6.3-18.8-12.3-26.3s-21-17.2-21-17.2l-1.4-4.5c0,0,3.1-5.5,3.7-8.3
							s0-4.9,2.8-6.5c2.8-1.5,5.5-2.8,6.1-4.9c0.6-2.2,3.1-7.4,3.1-7.4s9.5-2.5,10.5-2.8s2.8-3.4,3.4-4.6s-7.1-23.4-7.1-23.4
							s0.9-6.8,3.1-6.5s1.5-13.8,1.5-18.8s0-25.8,0-25.8s18.1-15.7,3.1-26.1c0.3,5.8-1.8,7.1-2.8,6.8c0,0-3.4-13.2-8.6-12.6
							c4.6,5.8,0.6,8.6,0.6,8.6s-6.8-12.3-10.5-11.4c3.7,4.9,1.2,7.1,1.2,7.1s-14.8-9.2-19.7-8.9c-4.9,0.3-27.7-4.3-35.1-4
							s-17.2,4.3-17.2,4.3s-23.4,23.7-26.7,26.4s-10.8,13.2-12.9,20c-2.2,6.8-1.2,16.5,0.3,20.9c0.9,2.8,3.1,17.2,3.1,21.5
							s-2.2,8.9,0.6,8.6c2.8-0.3,7.4,1.8,7.4,1.8s-8.3,12.3-9.2,15.4s-6.1,8.9-6.8,6.1c-0.6-2.8-1.5-5.8-4.6-4.9s-6.1,7.6-8.3,6.9
							c-2.2-0.7-6.8-4.1-8-6.3s-12.3-5.5-18.4-3.4s-22.8-4.6-29.2-1.2c-6.5,3.4-18.1,9.8-21.2,18.4s-5.8,17.8-5.8,17.8
							s-92.5,41.2-104.5,50.7s-30.1,24.6-30.1,24.6s-4.3,25.2-6.1,39c-1.8,13.8-5.5,43-5.8,47s-6.5,23.4-9.5,32.3
							c-3.1,8.9-6.8,22.8-6.8,22.8l11.7,4c0,0-4,11.1-2.5,13.2c1.5,2.2,25.8,8.6,25.8,8.6s-5.2,8.9-6.1,12s-11.1,10.5-11.7,16
							s-5.8,11.7-2.8,15.7c2.5,9.8,2.5,16,7.1,17.2s5.2-0.3,8.6,4.9s5.8,12.6,10.5,11.1s9.2-7.7,8.9-6.5c-0.3,1.2,3.7,5.8,8,3.1
							c4.3-2.8,3.7-7.4,5.8-13.2c2.2-5.8,5.8-15.1,3.4-19.1s-1.2-15.7-1.5-22.1c-0.3-6.5,0-12.6,0-12.6s4-12.3,4.3-13.2
							s2.5-7.7,2.5-7.7s2.5-73.5,4.9-76.9c2.5-3.4,6.1-7.1,5.8-9.8c-0.3-2.8,8.3-2.2,6.8-9.8c-1.5-7.7-11.1-11.7-4.9-13.5
							s26.7-9.8,43.4-19.7c16.6-9.8,35.1-16.9,35.7-16s5.2,6.5,4.3,30.4c-0.9,24-5.5,117.1-7.1,137.4c-1.5,20.3-9.8,64-9.8,82.1
							s1.5,42.7,0.6,50.4s-21.2,47.3-24.3,60.6c-3.1,13.2-20.3,47.7-21.5,54.4s-4.9,9.5-7.7,8c-2.8-1.5-34.1-24-51.7-28.9
							c-17.5-4.9-83.9-50.1-93.8-55.3c-9.8-5.2-35.7-30.4-35.7-30.4s-15.7-25.5-24.3-30.4s-16.9-8.6-16.9-8.6s-34.1,26.7-39,43.4
							c-20.9,25.2-39,39-50.4,62.1s-16.3,40.9-12.6,39.4c3.7-1.5,7.1-3.4,7.1-3.4s9.2,8.3,18.1-3.4s18.4-20.9,35.1-26.4
							c16.6-5.5,44.9-20.6,44.9-20.6s113.8,87.9,122.1,91C1465.4,959.4,1486.9,986.9,1486.9,986.9z"/>
						<line class="st11" x1="1726.9" y1="270.1" x2="1284.4" y2="270.1"/>
						<line class="st11" x1="1686" y1="294.4" x2="1426.4" y2="294.4"/>
						<line class="st11" x1="1710.8" y1="331.3" x2="1553.1" y2="331.3"/>
						<line class="st11" x1="1599.2" y1="785.8" x2="1441.5" y2="785.8"/>
						<line class="st12" x1="2037.6" y1="1100.5" x2="1714.1" y2="1100.5"/>
						<line class="st12" x1="2037.6" y1="1047.7" x2="1861" y2="1047.7"/>
						<line class="st11" x1="1307.5" y1="785.8" x2="1149.8" y2="785.8"/>
					</g>
				</g>
				<g>
					<g>
						<circle class="st13" cx="875.5" cy="124.4" r="127.9"/>
						<circle class="st14" cx="875.5" cy="124.4" r="112.3"/>
						<path class="st15" d="M933.3,160l-59.4-38.8c-0.1-0.1-0.3,0-0.4,0.1l-4.5,8c-0.1,0.1,0,0.3,0.1,0.4l63.9,30.8
							C933.3,160.6,933.6,160.2,933.3,160z"/>
						<path class="st16" d="M875.2,4.3L870.6,130c0,0.2,0.2,0.4,0.4,0.4h9c0.2,0,0.4-0.2,0.4-0.4L875.9,4.3
							C875.9,3.8,875.2,3.8,875.2,4.3z"/>
					</g>
					<text transform="matrix(1 0 0 1 860.8301 41.7842)" class="st2 st17 st18">12</text>
					<text transform="matrix(1 0 0 1 867.3037 228.4404)" class="st2 st17 st18">6</text>
					<text transform="matrix(1 0 0 1 964.6338 133.209)" class="st2 st17 st18">3</text>
					<text transform="matrix(1 0 0 1 769.9819 133.209)" class="st2 st17 st18">9</text>
					<g>
						<g>
							<line class="st19" x1="826.2" y1="38.9" x2="832.3" y2="49.4"/>
							<line class="st19" x1="918.8" y1="199.3" x2="924.9" y2="209.8"/>
						</g>
						<g>
							<line class="st19" x1="790.1" y1="75" x2="800.6" y2="81.1"/>
							<line class="st19" x1="950.4" y1="167.6" x2="961" y2="173.7"/>
						</g>
						<g>
							<line class="st19" x1="790.1" y1="173.7" x2="800.6" y2="167.6"/>
							<line class="st19" x1="950.4" y1="81.1" x2="961" y2="75"/>
						</g>
						<g>
							<line class="st19" x1="826.2" y1="209.8" x2="832.3" y2="199.3"/>
							<line class="st19" x1="918.8" y1="49.4" x2="924.9" y2="38.9"/>
						</g>
					</g>
				</g>
			</g>
		</g>
		<g>
			<rect id="SVGID_3_" x="-14.3" y="-14.1" class="st20" width="1948.5" height="1098.6"/>
		</g>
	</g>
</g>
</svg>
