<?xml version="1.0" encoding="utf-8"?>
<!-- Generator: Adobe Illustrator 24.0.0, SVG Export Plug-In . SVG Version: 6.00 Build 0)  -->
<svg version="1.1" id="Layer_1" xmlns="http://www.w3.org/2000/svg" xmlns:xlink="http://www.w3.org/1999/xlink" x="0px" y="0px"
	 viewBox="0 0 1200 900" style="enable-background:new 0 0 1200 900;" xml:space="preserve">
<style type="text/css">
	.st0{clip-path:url(#SVGID_2_);}
	.st1{fill:#FFFFFF;}
	.st2{stroke:#D1D3D4;stroke-width:0.5263;stroke-miterlimit:10;}
	.st3{fill:#FFFFFF;stroke:#FFFFFF;stroke-width:0.5263;stroke-miterlimit:10;}
	.st4{stroke:#FFFFFF;stroke-width:0.5263;stroke-miterlimit:10;}
	.st5{stroke:#FFFFFF;stroke-width:0.7908;stroke-miterlimit:10;}
	.st6{stroke:#FFFFFF;stroke-width:0.7139;stroke-miterlimit:10;}
	.st7{enable-background:new    ;}
	.st8{fill:none;stroke:#FFFFFF;stroke-width:0.7139;stroke-miterlimit:10;}
	.st9{fill:none;stroke:#ED1C24;stroke-width:1.1599;stroke-miterlimit:10;}
	.st10{fill:#F1F2F2;}
	.st11{fill:#ED1C24;}
</style>
<g>
	<g>
		<g>
			<defs>
				<rect id="SVGID_1_" x="0.2" width="1200" height="899.3"/>
			</defs>
			<clipPath id="SVGID_2_">
				<use xlink:href="#SVGID_1_"  style="overflow:visible;"/>
			</clipPath>
			<g class="st0">
				<g>
					<g>
						<g>
							<rect x="-226.3" y="-383.9" class="st1" width="1978.9" height="1149.9"/>
							<rect x="-226.3" y="692.4" width="1978.9" height="446.1"/>
							<g>
								<g>
									<g>
										<g>
											<g>
												<path class="st1" d="M972.9,745.5c0-14.8-182.5-14.8-182.5,0c0,0.5,0,5.5,0,6c0,14.8,40.9,26.9,91.2,26.9
													c50.4,0,91.2-12,91.2-26.9C972.9,750.9,972.9,746,972.9,745.5z"/>
												<path class="st2" d="M953.9,729.3c-38.8-14.8-63-41.4-63.3-70.3c0-0.3,0-0.6,0-0.9c0-6.3,0-163,0-179.2
													c0-47.7,29.1-65.6,49.5-79l-58.5-4.3c0-0.3,0-0.5,0-0.5l-3.5,0.3l-3.5-0.3c0,0,0,0.2,0,0.5l-58.5,4.3
													c20.4,13.4,49.5,31.3,49.5,79c0,16.2,0,172.9,0,179.2c0,9.7-1.2,18.1-3.3,25.5c-5.3,18.9-23.5,35.6-50,44.6
													c-13.8,4.7-22.1,10.8-22.1,17.5c0,14.8,40.9,26.9,91.2,26.9c50.4,0,91.2-12,91.2-26.9
													C972.9,739.5,965.8,733.8,953.9,729.3z"/>
												<path class="st1" d="M913.7,716.5c-9.8-14.8-26.5-28.6-26.6-57.5c0-0.3,0-0.6,0-0.9c0-6.3,0-163,0-179.2
													c0-47.7,7.4-65.6,12.6-79l-14.8-4.3c0-0.3,0-0.5,0-0.5l-0.9,0.3l-0.9-0.3c0,0,0,0.2,0,0.5l-14.8,4.3
													c5.2,13.4,12.6,31.3,12.6,79c0,16.2,0,127,0,133.3c0,9.7-1.3,31.4-0.8,38.9c1.6,25.9,7.4,39.2,18.3,56.7
													c3.1,5,13.5,28.7,16.4,34.7c9.6,20.6,23.9,24.3,42.8,13.9c11.2-6.2-6.1-18-17-22C934.6,732.2,916.7,721,913.7,716.5z"/>
											</g>
											<g>
												<path class="st1" d="M330,745.5c0-14.8-182.5-14.8-182.5,0c0,0.5,0,5.5,0,6c0,14.8,40.9,26.9,91.2,26.9
													c50.4,0,91.2-12,91.2-26.9C330,750.9,330,746,330,745.5z"/>
												<path class="st2" d="M311,729.3c-38.8-14.8-63-41.4-63.3-70.3c0-0.3,0-0.6,0-0.9c0-6.3,0-163,0-179.2
													c0-47.7,29.1-65.6,49.5-79l-58.5-4.3c0-0.3,0-0.5,0-0.5l-3.5,0.3l-3.5-0.3c0,0,0,0.2,0,0.5l-58.5,4.3
													c20.4,13.4,49.5,31.3,49.5,79c0,16.2,0,172.9,0,179.2c0,9.7-1.2,18.1-3.3,25.5c-5.3,18.9-23.5,35.6-50,44.6
													c-13.8,4.7-22.1,10.8-22.1,17.5c0,14.8,40.9,26.9,91.2,26.9c50.4,0,91.2-12,91.2-26.9C330,739.5,322.9,733.8,311,729.3z
													"/>
												<path class="st1" d="M270.9,716.5c-9.8-14.8-26.5-28.6-26.6-57.5c0-0.3,0-0.6,0-0.9c0-6.3,0-163,0-179.2
													c0-47.7,7.4-65.6,12.6-79l-14.8-4.3c0-0.3,0-0.5,0-0.5l-0.9,0.3l-0.9-0.3c0,0,0,0.2,0,0.5l-14.8,4.3
													c5.2,13.4,12.6,31.3,12.6,79c0,16.2,0,127,0,133.3c0,9.7-1.3,31.4-0.8,38.9c1.6,25.9,7.4,39.2,18.3,56.7
													c3.1,5,13.5,28.7,16.4,34.7c9.6,20.6,23.9,24.3,42.8,13.9c11.2-6.2-6.1-18-17-22C291.8,732.2,273.9,721,270.9,716.5z"/>
											</g>
										</g>
										<g>
											<path class="st1" d="M1063.3,399.6c0-19.8-1006.2-19.8-1006.2,0c0,2.3,0,9.9,0,11.8c0,20.8,176.3,26.4,219.7,20.2
												c41.9-6,101.9-14,283.4-14.6c181.5,0.6,241.5,8.6,283.4,14.6c43.4,6.2,219.7,0.6,219.7-20.2
												C1063.3,409.4,1063.3,401.8,1063.3,399.6z"/>
											<path class="st2" d="M1063.3,401c0,22.9-176.3,29.1-219.7,22.3c-41.9-6.6-101.9-15.4-283.4-16
												c-181.5,0.6-241.5,9.5-283.4,16c-43.4,6.8-219.7,0.6-219.7-22.3c0-21.8,213.6-35.2,482.6-36.4v-0.1c6.9,0,13.7,0,20.5,0
												s13.6,0,20.5,0v0.1C849.7,365.9,1063.3,379.2,1063.3,401z"/>
										</g>
									</g>
									<g>
										<ellipse class="st3" cx="676" cy="392.4" rx="52.1" ry="7.6"/>
										<path class="st4" d="M679.7,358.5v-92.8h-7.5v92.8c0,12.9-9.9,23.7-22.7,24.8c-15.3,1.3-25.6,3.8-25.6,6.6
											c0,4.2,23.3,7.6,52.1,7.6s52.1-3.4,52.1-7.6c0-2.8-10.3-5.2-25.6-6.6C689.6,382.2,679.7,371.4,679.7,358.5z"/>
										<circle class="st4" cx="676" cy="264.9" r="6.7"/>
										<rect x="463.4" y="70.7" class="st5" width="425.1" height="273.1"/>
										<rect x="479.9" y="86.6" class="st6" width="392.1" height="241.3"/>
										<g class="st7">
											<path class="st1" d="M555.1,287.6c-2.1-1.3-3.7-3.1-4.7-5.4s-1.6-5.1-1.6-8.2s0.5-5.8,1.6-8.1c1.1-2.3,2.7-4.1,4.7-5.3
												c2-1.2,4.5-1.9,7.3-1.9c2.7,0,4.9,0.4,6.5,1.1c0,1.7-0.3,3.2-0.7,4.7c-1.6-0.7-3.4-1-5.3-1c-1.7,0-3.1,0.4-4.4,1.2
												c-1.3,0.8-2.2,2-2.9,3.6s-1,3.5-1,5.7c0,2.3,0.4,4.2,1.1,5.8c0.7,1.6,1.8,2.8,3.1,3.6c1.3,0.8,2.9,1.2,4.7,1.2
												c2,0,3.9-0.4,5.6-1.2c-0.1,1.5-0.4,3.2-0.8,5c-1.7,0.6-3.5,0.9-5.5,0.9C559.7,289.5,557.1,288.9,555.1,287.6z"/>
											<path class="st1" d="M576.7,287.7c-2-1.2-3.5-3-4.5-5.3s-1.5-5-1.5-8.2s0.5-5.9,1.5-8.2c1-2.3,2.5-4.1,4.5-5.3
												c2-1.2,4.4-1.8,7.2-1.8s5.2,0.6,7.2,1.9c2,1.2,3.5,3,4.5,5.3s1.5,5,1.5,8.2s-0.5,6-1.5,8.3s-2.5,4.1-4.5,5.3
												c-2,1.2-4.4,1.8-7.1,1.8C581.1,289.5,578.7,288.9,576.7,287.7z M591.5,274.1c0-3.5-0.6-6.1-1.9-7.9
												c-1.3-1.8-3.2-2.7-5.6-2.7c-2.5,0-4.4,0.9-5.6,2.7c-1.3,1.8-1.9,4.4-1.9,7.9s0.6,6.1,1.9,7.9c1.3,1.8,3.2,2.7,5.7,2.7
												C589,284.8,591.5,281.2,591.5,274.1z"/>
											<path class="st1" d="M632.1,288.8h-5.3l-0.7-11.7c-0.3-3.8-0.4-7-0.4-9.8c-1,3.6-2.3,7.5-3.7,11.7l-3.3,9.8H614l-3.4-9.9
												c-1.2-3.4-2.4-7.2-3.6-11.3c-0.1,4-0.3,7.4-0.4,10.1l-0.7,11.1h-5.3l2-29c0.8-0.2,1.9-0.4,3.2-0.5s2.5-0.2,3.5-0.2
												l6.9,22.2l6.9-21.5c1-0.3,2.1-0.4,3.3-0.6c1.3-0.1,2.5-0.2,3.6-0.2L632.1,288.8z"/>
											<path class="st1" d="M654.5,261.5c1.9,1.8,2.8,4.2,2.8,7.2c0,2.1-0.4,3.9-1.3,5.5c-0.9,1.6-2.2,2.8-3.9,3.6
												c-1.7,0.9-3.8,1.3-6.2,1.3h-3.1v9.7h-5.5v-29.3c1.1-0.2,2.5-0.4,4-0.5s2.9-0.2,4.2-0.2
												C649.5,258.8,652.6,259.7,654.5,261.5z M650.1,273c1-1,1.5-2.4,1.5-4.2c0-1.8-0.5-3.2-1.4-4.2s-2.5-1.4-4.6-1.4
												c-1,0-1.9,0.1-2.8,0.2v11.1h3.1C647.7,274.5,649.2,274,650.1,273z"/>
											<path class="st1" d="M661.6,259.8c0.7-0.2,1.6-0.4,2.6-0.5s2-0.2,2.9-0.2V284h10.5c0,0.7,0,1.5-0.1,2.4s-0.2,1.7-0.3,2.4
												h-15.6L661.6,259.8L661.6,259.8z"/>
											<path class="st1" d="M686.4,284.1h12.1c0,0.7,0,1.5-0.1,2.4s-0.2,1.7-0.3,2.3h-17.2v-29.3h17.7c0,0.8-0.1,1.6-0.2,2.5
												c-0.1,0.9-0.2,1.6-0.3,2.2h-11.7v7.5h10.9c0,0.7,0,1.5-0.1,2.4s-0.2,1.7-0.3,2.3h-10.4v7.7H686.4z"/>
											<path class="st1" d="M721.6,261.9c-0.1,0.9-0.2,1.7-0.3,2.3h-7.6v24.6h-5.5v-24.6h-8.1c0-0.7,0.1-1.6,0.2-2.5
												c0.1-0.9,0.2-1.7,0.3-2.3h21.1C721.7,260.2,721.7,261,721.6,261.9z"/>
											<path class="st1" d="M737.2,283h-10.9l-1.7,5.8h-5.4l9.2-28.9c0.8-0.2,1.8-0.4,3.1-0.5s2.6-0.2,3.9-0.2l9.3,29.6h-5.8
												L737.2,283z M735.9,278.5l-4-14.2l-4.2,14.2H735.9z"/>
											<path class="st1" d="M767.2,262.8c2.3,2.7,3.5,6.4,3.5,11.1c0,4.8-1.2,8.5-3.6,11.1c-2.4,2.6-6,3.9-10.7,3.9h-8.6v-29.3
												c2.3-0.5,5.2-0.8,8.5-0.8C761.2,258.8,764.8,260.1,767.2,262.8z M762.9,281.6c1.4-1.7,2-4.2,2-7.7c0-3.4-0.7-6-2.1-7.8
												c-1.4-1.8-3.6-2.6-6.6-2.6c-1.1,0-2.1,0.1-3.1,0.2v20.4h3.2C759.4,284.1,761.6,283.2,762.9,281.6z"/>
											<path class="st1" d="M779.3,287.7c-2-1.2-3.5-3-4.5-5.3s-1.5-5-1.5-8.2s0.5-5.9,1.5-8.2c1-2.3,2.5-4.1,4.5-5.3
												c2-1.2,4.4-1.8,7.2-1.8s5.2,0.6,7.2,1.9c2,1.2,3.5,3,4.5,5.3s1.5,5,1.5,8.2s-0.5,6-1.5,8.3s-2.5,4.1-4.5,5.3
												c-2,1.2-4.4,1.8-7.1,1.8C783.7,289.5,781.3,288.9,779.3,287.7z M794.1,274.1c0-3.5-0.6-6.1-1.9-7.9
												c-1.3-1.8-3.2-2.7-5.6-2.7s-4.4,0.9-5.6,2.7c-1.3,1.8-1.9,4.4-1.9,7.9s0.6,6.1,1.9,7.9c1.3,1.8,3.2,2.7,5.7,2.7
												C791.6,284.8,794.1,281.2,794.1,274.1z"/>
										</g>
									</g>
									<g>
										<g>
											<polygon class="st3" points="392.8,817.3 392.8,817.3 393,817.4 393.3,817.4 393.3,817.5 476.3,851 476.3,863 
												393.3,838.2 392.8,838.1 309.8,813.4 309.8,801.4 											"/>
											<polygon class="st4" points="392.8,819.7 392.8,819.6 393,819.7 393.3,819.8 393.3,819.8 476.3,853.3 476.3,865.3 
												393.3,840.6 392.8,840.5 309.8,815.7 309.8,803.7 											"/>
										</g>
										<g>
											<polygon class="st3" points="393.3,817.3 393.3,817.3 393,817.4 392.8,817.4 392.8,817.5 309.8,851 309.8,863 
												392.8,838.2 393.3,838.1 476.3,813.4 476.3,801.4 											"/>
											<polygon class="st4" points="393.3,819.7 393.3,819.6 393,819.7 392.8,819.8 392.8,819.8 309.8,853.3 309.8,865.3 
												392.8,840.6 393.3,840.5 476.3,815.7 476.3,803.7 											"/>
										</g>
										<g>
											<polygon class="st3" points="392.8,817.3 392.8,817.3 393,817.4 393.3,817.4 393.3,817.5 476.3,851 476.3,863 
												393.3,838.2 392.8,838.1 											"/>
											<polygon class="st4" points="392.8,819.7 392.8,819.6 393,819.7 393.3,819.8 393.3,819.8 476.3,853.3 476.3,865.3 
												393.3,840.6 392.8,840.5 											"/>
										</g>
										<path class="st4" d="M397.2,819.6h-8.4c-0.3,0-0.6-0.3-0.6-0.6v-87.5h9.5V819C397.8,819.4,397.6,819.6,397.2,819.6z"/>
										<path class="st4" d="M532.7,575.5c-27.9-16.4-23.2-48.4,6.5-94.7c21-32.7,51.1-88.5,35.3-109.9s-26-24.2-78.1-3.7
											c-39.9,15.7-70.6,17.7-93.6,17.8c-0.2-0.1-0.5-0.1-0.7-0.1c-2.9,0-5.9,0-9.1,0.1c-3.2,0-6.2-0.1-9.1-0.1
											c-0.2,0-0.5,0-0.7,0.1c-23-0.1-53.7-2.1-93.6-17.8c-52.1-20.5-62.3-17.7-78.1,3.7c-15.8,21.4,14.3,77.2,35.3,109.9
											c29.8,46.3,34.4,78.3,6.5,94.7c-16.5,9.7-49.3,27.9-31.6,69.7C255.8,726,358.2,747,392.3,747.6l0,0c0.2,0,0.5,0,0.7,0
											s0.5,0,0.7,0l0,0c34.1-0.6,136.5-21.6,170.6-102.3C582,603.4,549.3,585.2,532.7,575.5z"/>
									</g>
								</g>
							</g>
						</g>
					</g>
					<g>
						<g>
							<rect x="550.8" y="120.7" class="st6" width="26.3" height="26.3"/>
							<rect x="550.8" y="178.4" class="st6" width="26.3" height="26.3"/>
						</g>
						<line class="st8" x1="595.9" y1="133.9" x2="800.9" y2="133.9"/>
						<line class="st8" x1="597.9" y1="191" x2="797.3" y2="191"/>
					</g>
					<polyline class="st9" points="560.2,130.3 567.9,137.6 589.7,115 					"/>
					<polyline class="st9" points="560.2,187.9 567.9,195.1 589.7,172.5 					"/>
				</g>
				<g>
					<g>
						<path d="M321,536.1c0,0-42.2,3.7-44.6,3.1s-17.5,22.5-20.6,23.4S177.7,579.8,170,582s-12.7,42.2-13,63.4s-1.8,77.9,0.9,89.6
							c2.8,11.7,9.5,33.9,15.1,39.4s20.9,14.8,24.9,14.8s6.8,0.6,6.8,0.6s8.2,46.9,8.7,90.8c0.4,31.4-8,65.3-8,65.3s89,34.6,239.2-7
							c-1.1-21.9-6.4-34.8-7-49.8c-1.5-37.9,2.8-60.4,2.8-60.4s21.9-3.8,29-20.1s14.5-68.6,12.6-84c-1.8-15.4-4.4-125.6-6.9-138.9
							c-2.5-13.2-33.2-17.8-51.5-23.5c-14.4-4.5-42.8-11-46.5-12.2s-9.1-11.2-12.5-16.4C361.5,528.2,338.9,535.5,321,536.1z"/>
						<g>
							<path class="st10" d="M275.5,540.5c0,0-8.4-2.9-6.5,22.7c0.4,5,31.4,132.2,58.9,196.6c-17.3-36.3-35.6-88.9-43.4-120.4
								c-6-24.3-19.9-20.4-24.8-39c-4.4-17-6.6-30.4-6.9-31.5c-6.9,3-5.5,13.3-5.9,12.6c-0.5-0.7-3.1-15.5-12.6-13.9
								s-60.6,13.9-60.6,13.9s20.3,18.3,23.8,26.9c4.1,10.2,9,35.4,9,35.4s-8.5-27.8-11.7-34.3c-1.6-3.2-22.6-23.9-25.8-23
								s-4.2,31.9-4.6,41.1c-0.1,2.7,10.4,34.6,17.9,45.9c7.5,11.3,9.5,12,9.5,12s-11.3-9.3-15.8-15.8c-4.5-6.6-10.4-12-10.4-10.9
								s-0.2,27.1-0.5,33.2c-0.2,6.1,2.5,22.2,5.9,28.3s9,15.4,9,15.4s-12.2-14.5-14-15.8c-1.8-1.4-5-9.7-5-9.7l-2.2,16.9l11.7,41.4
								l9.3,6.8l6,9.8c0,0-15.2-9.5-17-13.1s-4.7-13.6-7.2-21.3s-6.6-19.7-7.5-37.3s2.7-66.9,2.5-78.5c-0.2-11.5,5.2-25.8,7.2-34.8
								s-0.1-19.9,9-23.5c9-3.6,85.3-18.8,85.7-19.3c9.4-13.2,10.9-14.5,13.5-16.9c0.9-0.8,2-1.2,3.2-1.2l4.6,0.1L275.5,540.5z"/>
							<path class="st10" d="M179.8,778.1l-3.1-13.2c0,0-7.3-13.6-10.5-25.7c0.4,8,6,23.3,6,23.3l2,10.1L179.8,778.1z"/>
							<path class="st10" d="M177.2,770.3c-0.4-0.7-5.5-21-7.1-25.4s-2.8-9.4-2.8-9.4s10.9,25.3,11.4,27
								C179.3,764.2,177.2,770.3,177.2,770.3z"/>
						</g>
						<g>
							<path class="st10" d="M357.1,532.3c0,0,11.3,1.6,10.6,27.3c-1.2,40.4-8,83.6-32.9,148.6c20.3-24.4,52.3-144.3,52.9-147.2
								c6.6,3,5.3,13.3,5.7,12.6c0.4-0.7,3-15.5,12.1-13.9s58.4,13.9,58.4,13.9s-13.9,18.4-17.3,27c-4,10.2-14.4,35.4-14.4,35.4
								s13.9-27.8,17-34.3c1.5-3.2,16.2-23.9,19.2-23s3.2,67.7,3.6,76.8c0.1,2.7-10,34.6-17.1,45.9c-7.2,11.3-9.1,12-9.1,12
								s10.9-9.3,15.2-15.8c4.3-6.6,10-12,10-10.9s0.2,27.1,0.4,33.2c0.2,6.1-1.1,35.3-4.3,41.4c-3.3,6.1-8.7,15.4-8.7,15.4
								s11.7-14.5,13.5-15.8c1.7-1.4,4.8-9.7,4.8-9.7l2.1,16.9l-11.2,41.4l-8.9,6.8l-5.8,9.8c0,0,14.5-9.5,16.3-13.1
								c1.7-3.6,4.6-13.6,6.9-21.3s6.3-19.7,7.2-37.3s-3.4-115.8-3.1-127.4c0.2-11.5,0.7-25.8-1.2-34.8c-2-9-5.4-19.9-14.1-23.5
								s-87.7-20.2-88.1-20.7c-10.8-15.7-7.7-12.2-10.3-14.7c-0.8-0.8-3.5-2.1-4.6-2.1l-5.3,0.3L357.1,532.3z"/>
							<path class="st10" d="M458.5,819.2l2.9-13.2c0,0,7-13.6,10.1-25.7c-0.4,8-5.7,23.3-5.7,23.3l-1.9,10.1L458.5,819.2z"/>
							<path class="st10" d="M461,811.4c0.4-0.7,5.2-21,6.8-25.4c1.5-4.4,2.7-9.4,2.7-9.4s-10.5,25.3-11,27S461,811.4,461,811.4z"/>
						</g>
						<g>
							<path class="st10" d="M278.8,526.9c0.1,0.4,0.2,1.8,0.2,14.6c-2.6-0.2-6.6,1.3-6.6,5.9c0,23.2,22.2,92.7,22.7,91.4
								c5.7-15.5,11.2-30.6,25.7-37.6c29.6,14.4,31,37.4,31,37.4s12.2-52.6,8.3-100.7c-0.1-1.7,0.1-5.2-2.5-5.7
								c-1.7-6.6-4.4-13.5-4.8-22.1C351.7,492.1,278.8,526.9,278.8,526.9z"/>
							<path d="M292.2,527.2c0.1,1,5.8,34.1,3.8,42.9c-0.7,3.1-14.6-16.2-14.7-15.4c-0.2,2.6,13.5,29.5,39.7,46.1
								c20.3-20.8,37.1-49.4,37.1-49.4s-11.4,15.6-11.9,10c-1.4-13.5-3.9-38.4-4.4-51.1C341.1,492.3,292.2,527.2,292.2,527.2z"/>
						</g>
						<g>
							<path class="st10" d="M258,487.7c0.1-1.2-3.3-20.1-5.3-24.1s-4-14-6-17.3s0.7-21.3,1.2-22.5s4.5-4.7,6.6-4.7
								c2,0,3.5-10.9,3.6-13.2c0.1-2.3,19.4-8.6,21.9-11.8c2.6-3.2,14.9-5.2,15.5-4.6s7.8-2.3,10.1-1.1c2.3,1.1,11,3.4,12.5,5.2
								c1.5,1.7,9,3.4,9,5.7s5.2,10,5.2,10s8.9,1.1,11.2,2.3c2.3,1.2,6.6,14.1,8,17.2c1.4,3.2-0.3,29.6,2,30.1
								c2.3,0.6,1.1,16.9,1.1,16.9L260.8,489"/>
							<path d="M263.2,485.5c-0.7-0.7-3.3-5.8-3.9-6.7c-0.5-0.9-0.9-4.3-1.3-5.8s-1.3-3.9-1.5-5.6c-0.1-1.7,0.9-4.7-0.1-4.9
								c-1.1-0.3-2.3-2.4-2.4-2.9s0.5-4.4,0.1-4.7s-1.3-3.3-1.7-4.1s-1.5-4.5-1.2-5.4c0.3-0.8,0.5-3.5,0.1-4.3s0-3.6,0-4.8
								s0.1-5.2,0.4-5.9c0.3-0.7,0.7-4.7,0.7-4.7l2.8-1.2c0,0,3.7-2.8,4.4-2.5c0.7,0.3,3.9,2.1,4.4,2.1s-4.5-5.6-3.9-6
								c0.5-0.4-2.5-1.1-2.5-1.1l3.2-10.7l3.4-3c0,0,9.7-4.2,10.7-4.4c1.1-0.1,9.8-7,9.8-7s6.4-1.6,10.7-1.4c1.4,0,6.3-0.7,7-1.9
								c0.7-1.2,9.8,6.6,10.6,6.3s5.8,3.6,5.8,3.6s6.5,0.2,7,1.5c0.7,1.9,3.9,9.9,2.4,7.8c0,0,4,4.8,4.9,6.3
								c0.3,0.5,5.9-0.8,7.2-0.3c1.3,0.5,4.3,2.4,4.7,3.9c0.4,1.5,1.3,3.7,1.3,3.7s0,5.2,1.3,6s2.3,7.4,2.3,7.4l0.3,7.2
								c0,0,0.1,5.9,0.1,6.6s1.3,9.6,1.3,9.6l0.3,3.1l-5.5,4.3L263.2,485.5"/>
							<path d="M308.2,535.8c4.6,0,18-2.6,26.8-9.5s17.2-22.7,17.6-27.9c0.4-5.1,1-7.4,1-7.4s8.2,0.6,9.7-9.7s1-27.8-4.3-27.6
								c-7.3,0.3-5.7,10.4-5.7,10.4l-5.5,1.3c0,0-2.1-16.9-3.2-22.4s-6.2-12.1-11-14.3s3.3-7.3-5.9-12.5c-9.2-5.1-22-6.6-32.3-1.8
								c-8.1,1.1-16.1,2.2-22.4,5.9s-10.6,10.6-10.6,19.4s3.3,11.2,0,12.7s0.2,26.3,0.5,30.3l-4.2-0.5c0,0-2-7.6-6.7-7.6
								c-7.2,0,0.4,21.5,2.3,26.6c1.8,5.1,4.4,9.2,12.8,7.7c2.2,10.6,4.6,19,20.2,23.1C297.2,534.7,303.6,535.8,308.2,535.8z"/>
							<path class="st10" d="M280.7,528.9c0,0,7.3,2.5,14.7,2.7c-2.9-7-6.5-9.7-8.5-11.8s-1.7-6.2-1.2-11
								c-2.4-4.5-2.4-10.2,2.2-17.4c-1.2-1.2-0.7-2-1-4.8c-0.2-2.9-2.9,0.5-2.6,4.1c0.2,3.6-3.8,7.2-7.6,7.9
								c-3.8,0.7-4.8-9.1-2.4-13s2.6-8.7-1.3-10.9s-3.8-6.2-2.5-9.6c2.5-6.7,3.3-5.2,9.7-9.8c1.7-1.2-0.3-5.4-6.6-3.1
								c-2.9,1.1-10.1,7.7-9,5.9c12.1-20.3,32-8.4,31.5-11.5c-0.1-1,0.1-5.2,0.4-9.8c0.7-10.7-7.3-25-20.8-17.9
								c-4.8,2.5-14.7,13.9-13.3,20.8c1.4,6.9,2.8,10.1-0.3,12c-3.1,1.9,0.5,25.6,0,31.5c-0.5,6,1,13.4,4.1,20.5
								S264.2,521.2,280.7,528.9z"/>
							<path class="st10" d="M339.6,521.9c0,0-4.7,6.4-15.6,10.4c6.7-5.4,7.1-4.9,7.8-9.4c1.9-11.7,1.2-13.4,1.9-14.8
								c1.3-2.6,0-6.4-1.7-10.9c1.1-5-0.8-9.4-7-15.2c0.8-1.5,0.6-3.1,0.1-6s2.9-0.3,3.6,3.2s5.6,5.9,9.4,5.6
								c3.9-0.3,2.3-10-1.1-13.2c-3.3-3.2-4.8-7.7-1.6-10.8c3.3-3.1,2-7,0-9.9s-6.7-9.7-3.6-9.3s2.2,0.3,3.9-0.9
								c1.7-1.2-11.3-12.6-11.7-15.7c-0.3-3.1,0.8-7.4-2.5-11.6c-3.4-4.2,11.5,3.1,12,10.1s1,5.5,5.9,9c5,3.6,8.4,22.9,8.9,33.7
								c0.3,6,2.5,7.7,3.8,15.4C354.5,496.6,354.5,502,339.6,521.9z"/>
							<path class="st10" d="M353.5,491c0,0,7.8,0,8.3-11c0.3-5.9-0.6-20.2-1.6-22.6c-1.6-3.4-5.4-0.3-6.9,1.5
								c-0.8,0.9,1.4-8.2,6.7-5.9c5.3,2.3,3.8,15.8,4,22.8C364.5,488.4,357.4,491.9,353.5,491z"/>
							<path class="st10" d="M267.1,506.5c-7.9,3.4-9.3-0.2-11.3-5.3c-0.5-1.3,0.6-2.5,1.6-3.3v0.1l3.3-2.6c0,0,0-3.5-3.3-1.5
								c0,0-1.3-2.6-2.4-7.3c-1.1-4.6,0-8,0-8c0.6,1,1.2,2.2,1.5,3c0.6,1.7,4.4,6.5,4.3,4.5c-0.1-1.1-2.1-3.8-3.2-7.7
								c0.3,0.2,0.1-0.3-0.4-1.1c-0.5-0.9-1-1.5-1.6-1.8c-1.6-1.5-4-2.6-6.1-0.7c-4.3,3.8,1.2,16.2,3.1,22.9
								c3.4,12.2,11.2,13.3,14.6,11.3C267.1,509.1,269.4,505.5,267.1,506.5z M250.6,479.1c0.2-1.4,0.9-2,1.8-2.2c0.1,0,0.2,0,0.4,0
								l0,0c0.2,0,0.4,0,0.5,0c-0.3,2-0.9,5.1-1,7.6c-0.2,3.1,2.7,8.5,3.8,10.5c-0.2,0.7-0.9,1.7-1.5,2.5
								C252.6,490.9,250.3,481.2,250.6,479.1z"/>
							<path class="st10" d="M289.9,523.6c-0.7,2.5,0.8,5.7,3,7c5.5,3.4,16.2,4.4,16.2,4.4s-10.5-3.1-10.2-12.3
								c0.2-5.8,11.2-6.2,11.2-6.2c3.4-0.7,12.3,1,14.3,3.3c-10.6-9.6-15.2-6-17.5-9.3s-1.3-6.3-1.3-6.3s3.3,0.9,6.4-4.5
								c0.3-2.9-0.2-1.7-5.4-2.5c-3.2-0.5-6-0.3-8.8,1.8c-4.3,3.3-4.6,4.6-6.1,4.9c-1.5,0.2-3-0.7-3.7-2.7s0.5,2.9,4.5,0.2
								s7.4-9.2,9.1-8.8s-1-7.6-1-7.6s-3.7-0.6-4.8-2.5c-3.7,8-4.8,7.5-5.9,10.1c-1.1,2.7-6.3,9.4-0.9,14.2
								C287.4,514.3,287.8,520.6,289.9,523.6z"/>
							<path class="st10" d="M285.6,499.2c5.4-16.7,9-12.5,9-15.9s1.7-8.4,5.4-11.1c-2.4,4.7-4.4,7.4-2.7,8.1c2-2,3-2.7,5.7-1.3
								c2.7,1.3,2.9-3.3,3.1-5.1s-1.8-5.9-2.6-6.4c-0.8-0.5-0.8-0.7-1.8-5.8s-2.8-10.2-2.5-11s-2-1.5-2,0.7s1.5,14.2-4.9,17.5
								s-9.6,2-9.6,2s2.8-3.8,2.5-5.1c-5.6,1.6-11.4,0.7-12.7-0.7c-5.1,5.6-9.9,6.8-9.7,14.3s5.4,33.1,11,38.4
								c5.6,5.3,9.6,7.6,12.5,7.7c1.5,0.1-0.6-3.2-1.6-8.4C283.8,511.8,283.9,504.5,285.6,499.2z"/>
							<path class="st10" d="M335.2,454.7L331,452c0,0-0.5,2.1-6.3,4.4C324.7,456.4,333.5,457.2,335.2,454.7z"/>
							<path class="st10" d="M334.4,450.6c0,0-3.2-7.3-9.6-6.1s-13.5,2.2-13.5,2.2s17.9-4.9,20.6-4.9c0,0,4.6,4.3,5.5,5.7
								C338.1,448.8,334.4,450.6,334.4,450.6z"/>
							<path class="st10" d="M298,446.4c-1.1-0.3-1.4-3.5-1.4-5s-0.4-7.9-0.4-7.4c0.1,2.1,2.4,2.7,2.7,3s3.3,9.2,2.5,9.6
								C300.8,446.9,298,446.4,298,446.4z"/>
						</g>
						<g>
							<g>
								<g>
									<g>
										<g>
											<path d="M348.7,439.6c-0.2-0.9-0.5-1.7-0.7-2.1c-0.6-1.2-1.8-1.2-6.9-0.9c-3.1,0.2-7.1,0.6-11,0.9h-0.3
												c-8.4,0.7-15.3,3-18.1,4.2c-2.5,1.1-5.5,3.6-5.8,4.9c0,0.1,0,0.3,0,0.4c-1.3,0.6-2.9,1-4.9,1c-0.3,0-0.9,0-1.4-0.1
												c0-0.2-0.1-0.3-0.1-0.5c-0.6-1.1-4.1-2.8-6.8-3.3c-3-0.5-10.3-1-18.6,0.4l-0.3,0.1c-3.9,0.6-7.9,1.3-10.9,1.9
												c-5,0.9-6.2,1.3-6.4,2.6c-0.1,0.4-0.2,1.3-0.2,2.2c0,0.7,0.1,2.7,1.9,3c0.1,0,0.2,0,0.4,0c1,0.1,1.1,0.2,1.3,0.5
												c0.1,0.3,0.3,0.9,0.5,1.5c1.4,4.1,2.9,8.2,4.2,9.8c0.3,0.3,0.5,0.7,0.8,1.1c1.1,1.5,2.4,3.3,5.9,4.2
												c2.7,0.7,6.8,1,10.7,0.5c1.6-0.2,3.2-0.5,4.7-1.1c5.1-1.8,9-5.5,10-9.5c0.3-1.2,0.7-3,1-4.9c0.3-1.7,0.8-3.9,1.2-5.5
												c0.7,0.2,1.5,0.2,2.2,0.1c0.7,0,1.4-0.1,2-0.2c1.6-0.2,3.1-0.6,4.3-1.2c0.8,1.5,1.8,3.6,2.5,5.1c0.8,1.8,1.7,3.4,2.2,4.5
												c1.9,3.6,6.6,6.3,12,6.7c1.5,0.1,3.2,0.1,4.8-0.1c3.9-0.5,7.8-1.8,10.2-3.2c3.2-1.8,4-3.8,4.7-5.5
												c0.2-0.4,0.3-0.8,0.5-1.2c0.9-1.8,1.3-6.2,1.6-10.5c0.1-0.7,0.1-1.4,0.1-1.6c0-0.3,0.2-0.4,1.1-0.8
												c0.1,0,0.2-0.1,0.3-0.1C349.3,442.2,348.9,440.2,348.7,439.6z"/>
										</g>
									</g>
								</g>
							</g>
							<path class="st1" d="M257.5,451.4c-0.2-1.7,0.3-3,4.3-3.9c4-0.8,17.8-3.7,26-3.2s10.8,3.5,10.8,3.5s-7.4-2.8-18.3-1.5
								s-18.3,2.3-17.7,5c0.6,2.7,3.3,12,5.5,15.5c1.9,3.1,12.6,4.4,18.4,1.7c0,0-3.8,2.8-13.6,2.1c-6.8-0.5-8.4-7.9-9.9-12.1
								c-2.1-5.8-2-6-3.5-5.8C257.9,452.9,257.7,453.1,257.5,451.4z"/>
							<path class="st1" d="M328,438.4c0,0,17.2-1.8,18.6-1.4c1.4,0.5,2.1,4.2,1.8,4.4c-0.3,0.3-2.3,1.2-2.5,1.4
								c-0.3,0.2-0.7,12.2-4.2,16.6c1.6-5.6,2.6-16.2,2.3-17.9c-0.3-1.6-0.5-3.1-3.2-3.2C338.3,438.4,328,438.4,328,438.4z"/>
							<path class="st1" d="M309.1,444.7c0,0-2.2,1.5-0.2,5.9s3.6,13.5,14.8,14.7c0,0-7.1-0.9-10.8-8.4
								C309.2,449.3,309.1,444.7,309.1,444.7z"/>
						</g>
						<path class="st11" d="M321.9,604.3c0,0,6.9,7.3,9.6,13.6s-2.2,16.3-3.1,18.9c-0.9,2.6-11.1,1.4-13.2,0.6s-5.7-15.7-5.8-17.1
							C309.2,618.9,318,605.7,321.9,604.3z"/>
						<path class="st11" d="M314.1,641.5c0,0,4.6,3,13.7-0.5c5.7,32.2,6.8,38.4,6.8,38.4s-14.6,37.8-14.5,37.1
							c0.2-0.7-11.9-36.8-11.9-36.8L314.1,641.5z"/>
						<g>
							<path class="st10" d="M261.8,810.6c0,0-13.7-1.4-15.2-2.3c-1.5-0.9-13.4-13-16-18.7s-3.9-11.9-5.1-14.2
								c-1.2-2.3-1.8-1.8-2.1,0.5s-5.4,14.5-6,16.6s-3,6.5-8.6,5c-5.1,5.1-9.3,2.9-9.8,0.2s1.4-27.1,2.3-31.8s22.3-17.9,25-19.6
								c2.7-1.7,29.4,1.7,31.8,3.2c2.4,1.5,2.6,7.2,3.6,10.3c1.1,3,8.9,14.9,9,15.4S261.8,810.6,261.8,810.6z"/>
							<path d="M200.3,797.5c0,0,2.3-29.5,3.5-31.8s20.4-16.4,21.4-17.2s2.9-2.7,8.1-2.6s22.8,4.2,23.4,5.3s1.8,5.4,2.3,6.6
								c-2.4-2.3-3.9-3.8-3.9-3.8s5.3,8,6.3,9.5s3,6.6,5.4,7.7c2.4,1.1,6.6,6.2,6.9,8s-8.1,26.1-11.9,27.1c-3.8,1.1-2.3,2.6-9.6,1.5
								c-6.7-1-5.4-1.4-9.5-5.4c-4.3-4.3-9.3-8.5-10.9-12.5c-1.7-3.9-5.7-12.5-7-12.6c-1.4-0.2-5.6,10.9-7.4,15.1
								c-1.8,4.2-3.8,6.9-8.6,5C205.7,800.6,200.7,801.5,200.3,797.5z"/>
						</g>
						<g>
							<path class="st10" d="M306.5,618.7c0,0-11-20.3-13.4-21.9c-2.4-1.6-2.8-5.7-3.7-10.6c-0.8-4.9-1.7-14.2-1.3-18.3
								c0.4-4.1-2.8-8.1-1.1-9.7s8.3,0.1,9.5,3.8s1.7,10.9,1.7,12.1c0,1.2,3,4.1,3,4.1s0.8-16.3,0-21.5c-1.1-7.5-2.1-22.5-2.1-22.5
								l0.1-19.8l1.2-8.5c0,0,1.8-3.9,6.1-4.1c3.7-0.2,4.7,4.5,4.9,10.6c0.1,3.7,2.1,22.4,2.1,22.4s3.3,14.7,4.5,16.8
								c1.2,2,7.2,6.8,9.2,3.5c2-3.2,8.5-7.7,11.4-7.7c2.8,0,6,2.8,7.3,6.1c1.2,3.2,1.3,12.4,1.3,12.4s6.1-0.9,8.9,1.9
								c1.5,1.4,1.6,8.5,1.6,8.5s6.8,0.5,7.7,2.8c2.1,5.1-0.4,12.2-3.7,15c0.8,9.7-8.1,32.9-11,35.7c-2.8,2.8-15.8,7.7-18.7,9.7
								C329.3,641.5,306.5,618.7,306.5,618.7z"/>
							<path d="M336.3,633.8c3.6-3.4,13-14.7,15.1-18.6c2.1-4,4-19.1,4.2-20.7c-2.5,1.3,1-1.5,2.1-4.4c1-2.9-1.9-8.4-0.6-9
								s7.3-1.5,7.3-1.5s2.5-2.9-7.8-2.9s-13.8-1.7-15.5-0.2s-4.2,2.5-4.2,2.5s-0.2-8,5.9-8.4s14.7,0.6,14.7,0.6s-1-6.1-6.9-5.2
								c-5.9,0.8-15.3,0.8-15.3,0.8s7.6-8.2,8.5-10.5c0.4-1.1,3.9,2.6,4.9,4.7c-3.4-9.6-1.9-11-8.3-12.9c-6-1.7-7.9,3.9-13.2,8.1
								c-2.1,1.7-4.1,2.5-5.9,3c-2.2,0.7-8.6-18.5-8.8-21.5c-0.4-4.5-1.3-18.8-1.7-21.5c-0.5-3.6-0.2-11.9-1.5-12.9s-2.6-1.7-4.3,0
								c-1.5,1.6-2.3,3.4-2.8,9c-1,12.5-2,12.6-1.7,17.2c0.3,4.1,0.9,20.8,1.8,24.2c1.8,6.4-0.1,10.5,1.1,15c1.9,7.3,0,5.1,0.1,7.3
								c0.1,3.5-0.1,1.4-0.1,1.6c0,0.6,0.5,1.8-1.4,2s-4-3.6-4.2-5.9c-0.2-2.3-0.4-10.4-2.1-11.5c-1.7-1-1.3,0-1.3,1.2
								c0,2.1,1.3,9.6,1.5,13.6s5.5,26.2,6.1,28.7s3,4.9,5.3,7s3.9,7.9,6,10.2S336.3,633.8,336.3,633.8z"/>
							<path d="M296.5,601.3c0,0-4.1-7.2-5-8.3s-2.4-12.6-2.7-15.1s-0.2-12.7-0.6-14s-3.3-6.7,2.5-6c-3.1-1.7-5.3,0.6-4.5,2.9
								s1.8,9.9,1.9,13.7s1.1,15.8,2,18.2S296.5,601.3,296.5,601.3z"/>
							<path d="M290.4,559.7c0,0,1.9,1.3,2.1,1.5s0.9,4.7,0.8,5.1c-0.1,0.4-0.5,0.8-0.5,0.8l-2.3-1.1c0,0,1.4,0.6,1.5-0.5
								S291.7,560.3,290.4,559.7z"/>
							<path d="M295.2,568.4c-0.7,0.6-1.8,0.9-1.7,1.8c0.2,1,1.3,5.8,1.3,6.8s0.2,4.2,0.2,5s0.1,4-0.2,5.7c-0.2,1.7,0.6,4.4,1.3,5.5
								c0.6,1,3.1,6.2,3.1,6.2l2.4,5l2.2,2.1l0.7-7l-6.9-21.6L295.2,568.4z"/>
							<path class="st10" d="M305.9,510.2c0,0-2.1,0.3-2.5,0.6c0-3.9,0.7-7.4,1-7.7s2.3-1.2,2.9-1l-0.3,8.1L305.9,510.2L305.9,510.2
								z"/>
							<path class="st10" d="M301.7,515.3c0-0.2,1-4.1,3.3-4.2c2.3-0.1,0.1,1.1-0.6,2.5c-0.8,1.4-1.5,8.8-0.6,9.2
								c0.8,0.4,2,1.4,2,1.4s-3.9,1.9-4,3.3c-0.1,1.4,2.1,25.3,2.8,25.2c5-0.5,1.1,2.6-0.8,6.3s-1.5,1.6-1.5,1.6s-1.2-18.5-1.5-20.6
								s-0.7-13.4-0.5-15.3S301.7,515.3,301.7,515.3z"/>
						</g>
						<g>
							<path class="st10" d="M328.8,613.8c7.5,4.6,21.4,21.2,23.3,23.3c1.8,2.1-36.9,60.4-43.7,71.1s-46.3,42.9-57.2,51.2
								c-11,8.4-45.2,28.2-53.6,29.8s-16.2-6.5-18.8-12.3s-10.7-38.9-8.9-47.3c1.8-8.4,23.3-32.9,34.2-42.6
								c11-9.7,90.4-73.2,90.4-73.2s2.4-1.3,4.7,1C303.4,607.1,316.5,606.3,328.8,613.8z"/>
							<path d="M346,645.4c0,0-7.5-15.5-45.2-29.2c-2.9-1.1-5.7-1-8.1,2.1s-16.5,15.8-16.5,15.8s-1.5,0.6,2.3-0.3
								c5.3-1.3,10.7-5.3,10.7-5.3s-16.3,12.6-18.3,13.7c-2,1.1-13.6,6.9-16.5,8.9s-36,28.6-38.2,31.7c-2.2,3.1-7.5,12.1-7.5,12.1
								s29.8-23.4,40.1-25.4c-13.2,7.9-31.1,21-45.8,32.5c-3.9,3-7.4-0.4-10.7,2.3c-6.8,5.5-12.2,15.3-14.9,18.9
								c-7,9.5-3.3,20.5-2.2,26.3s3.1,10,6.7,8.7c3.6-1.3,15.4,3.8,15.4,3.8s-18.1,9.4-16.5,15.4s5.8,9.4,8.7,10.9
								c2.9,1.6,7.1,4,12.7,0.7s49.5-32.3,50.6-35s25.2-27.9,25.2-27.9s-8.7,15.6-7.8,15.2c0.9-0.4,33-30.6,35-33.7
								c1-1.5,9.6-15.3,18.1-28.9c0.4-0.7-32.4,20.9-32,20.2c0.6-0.9,36.1-27.4,36.8-28.2C336.6,660.7,346,645.4,346,645.4z"/>
							<g>
								<path class="st10" d="M327.4,640.4c0-2.1,1.7-3.9,3.8-3.9c-0.4-0.2-0.9-0.3-1.4-0.3c-2.2,0-4,1.8-4,4s1.8,4,4,4h0.1
									C328.5,643.5,327.4,642.1,327.4,640.4z"/>
								<path class="st10" d="M321.2,648.7c0-2.1,1.7-3.9,3.8-3.9c-0.4-0.2-0.9-0.3-1.4-0.3c-2.2,0-4,1.8-4,4s1.8,4,4,4h0.1
									C322.3,651.8,321.2,650.4,321.2,648.7z"/>
								<path class="st10" d="M308.8,665.2c0-2.1,1.7-3.9,3.8-3.9c-0.4-0.2-0.9-0.3-1.4-0.3c-2.2,0-4,1.8-4,4s1.8,4,4,4h0.1
									C309.9,668.4,308.8,666.9,308.8,665.2z"/>
								<path class="st10" d="M315,656.9c0-2.1,1.7-3.9,3.8-3.9c-0.4-0.2-0.9-0.3-1.4-0.3c-2.2,0-4,1.8-4,4s1.8,4,4,4h0.1
									C316.1,660.1,315,658.6,315,656.9z"/>
							</g>
						</g>
						<path class="st10" d="M413,614.8c0,0-4.1,63.2-3.8,68.7s-2,71.4-0.7,70c1.4-1.4,18.8-9.9,37.2-9.9c-14-3.1-31.8,1.4-31.8,1.4
							s-3.1-45.4-0.7-52.3s14-23.2,26-27c-10.9,1.4-26.6,13.3-25.6,13s5.5-30.4,8.2-37.6c2.7-7.2,4.4-10.2,4.4-10.2
							s-13.7,27-13.3,31.1C413.3,666,413,614.8,413,614.8z"/>
						<path class="st10" d="M471.7,628.4c1,1.4,2.7,27.3,3.1,32.8s-15.4,27.7-15.4,27.7s16.4-16.4,16.7-15
							c0.3,1.4,5.8,25.3,6.1,24.3c0.3-1-2.4-34.2-3.8-40.3C477.2,651.6,471.7,628.4,471.7,628.4z"/>
						<path class="st1" d="M487.5,728.5c1.7,8.9-2.7,27.7-2.4,33.1s-7.5,29.4-7.5,29.4l5.1-28.7c0,0-7.2,3.8-6.1,3.8
							c1,0,6.5-10.2,7.5-15.4C485.1,745.6,487.5,728.5,487.5,728.5z"/>
						<g>
							<path class="st10" d="M456.4,764c-3.1-3.1-22.9-13.3-27.7-12.3c-4.8,1-20.2,1.7-20.2,1.7l-59.4,15c0,0-13.7-1-15.7-1
								s-49.9-3.1-49.9-3.1l-2.4,4.8l-16.6-0.2c0,0-11.4,23.8-3.9,46.3c7.2,0,16.6,1.8,16.6,1.8s0.5,9,2.6,19.4
								c-2.4-15,4.1-62.5,5.8-65.6c1.7-3.1,5.5-2.7,5.5-2.7s24.3-0.3,27,2.4s3.8,18.1,10.2,18.1s23.6,5.5,23.6,5.5l-21.2-10.2
								c0,0-6.8-10.2-5.5-10.6c1.4-0.3,25.6-0.3,27.3-0.3c1.7,0,42,13,42,13l-33.8-15.7c0,0,51.6-13.3,52.6-14s24.3,1,24.3,1
								L456.4,764z"/>
							<path class="st1" d="M454.8,825.3c0,0-33,6.7-41.9,5.3s-51.2-16.1-51.2-16.1s45.4,12.3,50.6,12.6
								C417.4,827.6,454.8,825.3,454.8,825.3z"/>
							<path class="st1" d="M281.6,835.7c2.2,0.3,88.1-5.1,94.3-6.1c6.1-1,28.9-2.1,28.9-2.1l10.9,3.1L281.6,835.7z"/>
							<g>
								<path class="st10" d="M318.6,822.9c1.8-1.1,4.2-0.6,5.4,1.2c-0.1-0.4-0.2-0.9-0.5-1.3c-1.1-1.9-3.6-2.4-5.4-1.3
									c-1.9,1.1-2.4,3.6-1.3,5.4l0.1,0.1C316.5,825.5,317.2,823.8,318.6,822.9z"/>
								<path class="st10" d="M308.3,822c1.8-1.1,4.2-0.6,5.4,1.2c-0.1-0.4-0.2-0.9-0.5-1.3c-1.1-1.9-3.6-2.4-5.4-1.3
									c-1.9,1.1-2.4,3.6-1.3,5.4l0.1,0.1C306.2,824.6,306.9,822.9,308.3,822z"/>
								<path class="st10" d="M287.8,820.1c1.8-1.1,4.2-0.6,5.4,1.2c-0.1-0.4-0.2-0.9-0.5-1.3c-1.1-1.9-3.6-2.4-5.4-1.3
									c-1.9,1.1-2.4,3.6-1.3,5.4l0.1,0.1C285.7,822.7,286.3,821,287.8,820.1z"/>
								<path class="st10" d="M298.1,821.1c1.8-1.1,4.2-0.6,5.4,1.2c-0.1-0.4-0.2-0.9-0.5-1.3c-1.1-1.9-3.6-2.4-5.4-1.3
									c-1.9,1.1-2.4,3.6-1.3,5.4l0.1,0.1C296,823.6,296.6,822,298.1,821.1z"/>
							</g>
						</g>
						<path d="M213.5,868.2c-0.4,19.7-13.7,85.1-15.8,92.6s-5.4,17.1,6.4,20.3c4.3,129.6,8.6,214.2,7.5,228.1s-10.7,95.3-11.8,113.5
							s-4.3,68.5,1.1,77.1c5.4,8.6,5.4,27.8,0,46s-11.8,37.5-4.3,49.3c-27.8,34.3-34.3,52.5-33.2,62.1s43.9,6.4,51.4,3.2
							s13.9-15,12.8-20.3c11.8,1.1,26.8-6.4,26.8-6.4l-1.1-37.5c0,0,9.7-6.6,18.2-18.4c8.6-11.8,13-92,11.9-110.2
							s14.8-157.8,15.9-176s21.5-165.4,24.7-172.9s8.8-19.8,14.2,19.9c5.4,39.6,21.1,164,22.2,180s4.3,85,5.4,92.5
							s9.7,45.1,9.7,55.8c0,10.7-6.5,67.3-4.3,82.3c2.1,15,15,51.4,15,51.4s-3.4,25.8-1.2,35.4c1,4.4,5.1,2.3,7.3,7.5
							c2.6,6.2,7.5,15.4,9.8,18.3c4.3,5.4,22,13.5,32.7,15.6s29.4-16.1,27.3-26.8c-2.1-10.7-11.9-33.5-15.1-34.6s-7.2-11.1-0.7-26.1
							c6.4-15,9.6-93.2,6.4-113.5s-4.3-141.3-5.4-155.3c-1.1-13.9,1.1-223.8,1.1-227s11.8-4.3,12.8-9.6c1.1-5.4-21.9-115.7-24.5-123
							C432.2,848.9,214,848.5,213.5,868.2z"/>
					</g>
					<path class="st1" d="M196.7,1495.1c-4.7-2.3-7.7-18.8-5.6-24.7c2.1-5.9,9-38.1,11.4-43.9s2.6-14.1,1.5-18.2s-4.7-13.1-6.5-20.7
						s3-75,5.6-98.3s7.9-72.4,8.2-76.2c0.3-3.8,1.4-45.2-0.9-62.1c-2.4-16.9-8.2-161-5.9-161.4s15.8-1.7,19.6-1.7s17.5-5.9,16.8-1.7
						s-31.1,16.9-25.2,16.1c5.9-0.8,32.1-10.1,32.1-10.1s-24.4,18.2-28.7,19.4c-4.3,1.3,5,5.9,9.2,7.2s16.1-0.4,16.1-0.4
						s-18.6,10.6-22.8,12.7s-5.3,19-2.5,32.1c2.9,13.1-0.8,32.1,0,36.8s18.1,60,19.8,70.2c1.7,10.1,0.4,30.4,0.4,30.4
						s-0.4-37.2-9.3-47.8c-8.9-10.6-13.1-30-13.1-28.3s-1.1,35.5,2.2,41s13.4,31.7,12.2,30c-1.3-1.7-8.7-18.2-12.2-21.6
						s-0.8,14.8,0,22.4s-3.9,35.9-3.9,35.9s14.4-22,14.8-23.2s0.4-1.3,0.4-1.3s-12.5,27.5-11.3,35.9c9.6-9.3,15.1-23.7,16-26.6
						c0.8-3,1.3,7.6,0,16.1s-13.4,21.1-16,31.7s-10.2,59.2-11.1,70.6c-0.8,11.4-6.8,43.5-4.6,48.2c2.1,4.6,8.9,17.3,9.7,16.1
						c0.8-1.3,3.5-19.4,6-34.7c2.5-15.2,13.9-108.6,13.9-108.6s0.8,44.4,3.4,59.2s-6.8,64.2-7.2,71.8s-20.7,58.3-21.6,68.5
						c-0.8,10.1-0.4,18.6,1.7,22.8c2.1,4.2,12.7-1.3,12.7-3.8s-8-20.7-6.3-19.9c1.7,0.8,5.1,3.4,12.7,13.1s16.1,15.6,5.1,19.4
						s-28.7,3.4-29.6,7.8s-7.2,17.5-7.2,17.5s-2.2-4.6-6.2,0s-9.9,12.7-5.2,14.4c4.6,1.7,19,4.2,20.7,6.3c1.7,2.1,5.5,8.9,1.7,12.3
						s-5.9,10.6-12.7,9.3s-15.2,1.3-25.4-3.4c-5.8-2.7-7.5-0.6-3-10s11.9-22.1,19.1-30.6C192.8,1502.5,196.7,1495.1,196.7,1495.1z"
						/>
					<path class="st1" d="M211.9,884.8c-1.4,4.3-15.5,74.6-15.7,81.9s-3.9,10.8,4.1,12.9s33.2-2.1,47.5-4.7s43.4-17.6,47.9-21.8
						c0,0-42.7,17.3-50.2,16.9c-7.5-0.3-18.6,5.9-18.9-5.2c-0.3-11.1-2.3-59-2.3-64.8s-7.8-78.2-9.8-83.7s-7.9-14.5-7.6-12.6
						c0.3,1.9,5.9,48.5,6.3,56.6C213.5,868.2,211.9,884.8,211.9,884.8z"/>
					<path class="st1" d="M394.2,1506.1c0,0-6.7-2.9-7.9-5.6c-5.1-11.3-12.4-39.4-13.1-42.2c-0.8-3.5-3.2-11.5-1.9-31
						c1.3-19.5,4.4-60.4,4.4-60.4s-7.2-42.4-8.4-49.1c-1.2-6.7-6.5-72.6-6.3-94.6c0.1-21.9-14.6-124-16.7-140.7
						c-2.2-16.7-8.6-65.2-11.1-68.4c-2.5-3.2-3.7-5.3-3.7-5.3s15.2,0.5,19.5,4.2s15,36.3,15,36.3s-10.9-21-15-27
						c-4.1-6.1-10.6-7.5-9.7-6.1s4.7,25.6,15.8,37.7c-5.1,1.4-8.8-5.1-8.8-5.1s9.4,32.6,11.2,34.9c1.8,2.3,12,23.8,12.5,31.2
						c0.5,7.5,9.3,54.5,9.3,54.5s-7.5-26.1-9.8-32.2s-14.4-41.5-17.2-43.8s5.3,38.2,5.7,44.7c0.4,6.5,19.5,46.6,23.2,51.3l2.8,9.8
						c0,0-27.8-38.7-26-37.3c1.8,1.4,11.6,38.4,23.7,53c-12.1-9.2-18.6-22.7-18.6-22.7s7,37.3,8.9,42.9s-2.8,34.3-2.3,34.6
						s13-30.9,13-36.5s5.5-1.4,3.9,5.1s-5.3,25.2-6.7,28.9c-1.4,3.7-4.7,27.5-4.2,30.8s5.1,42.4,5.1,42.4s0.9,14,1.9,11.6
						s11.2-42.4,11.6-49.4c0.5-7,6.1-21.9,6.1-7.9S387.8,1400,385,1416.8s-3.7,34,0.5,49.4s7,34.9,12.1,32.2
						c5.1-2.8,18.2-14.4,18.2-14.4s14.9,13.8,12.6,16.4c-2.3,2.7-18.2,8.3-23.8,8.3s-6.1,9.3-3.7,13.5c2.3,4.2,7.9,13.5,11.6,19.1
						s15.4,1.9,24.7,3.7c9.3,1.9,19.6,2.3,18.2,6.5s-4.2,12.6-10.3,16.3c-6.1,3.7-8.3,3.9-22.7-1.5c-10.6-3.9-17.6-5.5-19.3-11.4
						c-1.5-5.5-6.2-15.6-9.1-18.3c-1-0.9-1,3.1-1.5,5.5c-3.2-2.3-5.6-2.9-7.1-4.2c-2.7-2.2-2.7-23.3,0.4-30.8
						C386.2,1505.4,394.2,1506.1,394.2,1506.1z"/>
				</g>
			</g>
		</g>
	</g>
</g>
</svg>
