<?xml version="1.0" encoding="utf-8"?>
<!-- Generator: Adobe Illustrator 24.0.0, SVG Export Plug-In . SVG Version: 6.00 Build 0)  -->
<svg version="1.1" id="Layer_1" xmlns="http://www.w3.org/2000/svg" xmlns:xlink="http://www.w3.org/1999/xlink" x="0px" y="0px"
	 viewBox="0 0 222.3 221" style="enable-background:new 0 0 222.3 221;" xml:space="preserve">
<style type="text/css">
	.st0{fill:#FFFFFF;}
</style>
<path class="st0" d="M222.3,73.3v123c0,13.6-11.1,24.7-24.7,24.7h-41.2c-9.1,0-16.5-7.4-16.5-16.5v-45.3c0-4.6-3.7-8.2-8.2-8.2H90.5
	c-4.6,0-8.2,3.7-8.2,8.2v45.3c0,9.1-7.4,16.5-16.5,16.5H24.7C11.1,221,0,209.9,0,196.3v-123c0-5.8,3-11.1,8-14.1l94.7-56.8
	c5.2-3.1,11.8-3.1,16.9,0l94.7,56.8C219.3,62.1,222.3,67.5,222.3,73.3z"/>
</svg>
