<?xml version="1.0" encoding="utf-8"?>
<!-- Generator: Adobe Illustrator 24.0.0, SVG Export Plug-In . SVG Version: 6.00 Build 0)  -->
<svg version="1.1" id="Layer_1" xmlns="http://www.w3.org/2000/svg" xmlns:xlink="http://www.w3.org/1999/xlink" x="0px" y="0px"
	 viewBox="0 0 1125 2436" style="enable-background:new 0 0 1125 2436;" xml:space="preserve">
<style type="text/css">
	.st0{fill:#FFFFFF;stroke:#231F20;stroke-width:0.9705;stroke-miterlimit:10;}
	.st1{fill:#FFFFFF;stroke:#231F20;stroke-width:0.9792;stroke-miterlimit:10;}
	.st2{clip-path:url(#SVGID_2_);}
	.st3{fill:none;stroke:#231F20;stroke-width:0.3264;stroke-miterlimit:10;}
	.st4{fill:none;stroke:#231F20;stroke-width:0.6528;stroke-miterlimit:10;}
	.st5{fill:none;stroke:#231F20;stroke-width:0.9792;stroke-miterlimit:10;}
	.st6{fill:#FFFFFF;}
	.st7{stroke:#231F20;stroke-width:0.9792;stroke-miterlimit:10;}
	.st8{clip-path:url(#SVGID_4_);}
	.st9{fill:#ED1C24;stroke:#231F20;stroke-width:0.4321;stroke-miterlimit:10;}
</style>
<rect x="-4.2" width="1128.5" height="2435.5"/>
<path class="st0" d="M553.2,653.1c-27.7,0-38.6,15.9-42.9,27.3h83.2C593.4,680.4,586,653.1,553.2,653.1z"/>
<path class="st0" d="M497.9,701.8c2.1-9.3,7.9-24.1,21.7-24.1c9.1,0,19.1,0,30,0c1.5,0,2.9,0,4.4,0c10.8,0,20.9,0,30,0
	c13.8,0,19.7,14.8,21.7,24.1c2.1,9.3,0,20,0,20h-49.9h-8.1h-49.9C497.9,721.8,495.9,711.1,497.9,701.8z"/>
<path class="st0" d="M617.3,768c0,0,0-29.9,0-37.4c0-7.5-11.9-11.8-20.6-11.8c-8.7,0-59.3,0.5-79.3,0s-26.5,7.5-26.5,7.5v41.3
	L617.3,768z"/>
<path class="st1" d="M601.7,1873.6c0,0,39.6-20.4,44.1-37.6c4.5-17.2,9.1-115.5,9-150.9c-0.2-50.6-9-101.7-13.4-115.9
	c-4.5-14.1-8.4-21.6-8.4-21.6s-8.8,13.3-5.1,21.6c0.9,2,13.7,52.2,15.7,115.1c0.8,23.9-4.8,73.2-10.6,84.4
	C621.1,1765.8,601.7,1873.6,601.7,1873.6z"/>
<g>
	<defs>
		<path id="SVGID_1_" d="M552.3,1217.6c-21.8,0-45.1,0-51.6,0c-6.5,0-11.6,1.5-11.6,18.2c0,16.7,0,530.5,0,550.9
			s-9.4,124.3,59.6,124.3s68.3-76.3,68.3-120.7s0-564.7,0-566.9s-1.5-5.8-17.4-5.8S552.3,1217.6,552.3,1217.6z"/>
	</defs>
	<use xlink:href="#SVGID_1_"  style="overflow:visible;fill:#FFFFFF;"/>
	<clipPath id="SVGID_2_">
		<use xlink:href="#SVGID_1_"  style="overflow:visible;"/>
	</clipPath>
	<g class="st2">
		<line class="st3" x1="494" y1="1787.4" x2="494" y2="1217.8"/>
		<line class="st3" x1="501.9" y1="1787.4" x2="501.9" y2="1217.8"/>
		<line class="st4" x1="580.6" y1="1787.4" x2="580.6" y2="1217.8"/>
		<line class="st3" x1="594.9" y1="1787.4" x2="594.9" y2="1217.8"/>
		<line class="st3" x1="606.7" y1="1787.4" x2="606.7" y2="1217.8"/>
		<line class="st4" x1="515.1" y1="1787.4" x2="515.1" y2="1217.8"/>
		<line class="st4" x1="565.2" y1="1787.4" x2="565.2" y2="1217.8"/>
		<line class="st5" x1="530.8" y1="1787.4" x2="530.8" y2="1217.8"/>
		<line class="st5" x1="548.3" y1="1217.8" x2="548.3" y2="1787.4"/>
		<path class="st3" d="M617,1779.4c0,0,4.6,8-42.3,8c-46.9,0-51.6,0-66.1,0s-20-4-20-4"/>
	</g>
	<g class="st2">
		<path d="M497,1783.9c0,0,0,33.2,0,54.1c0,20.9,19.8,54.6,29.5,54.6c9.6,0,15.5-4.3,15.5-17.1s0-18.8,0-18.8s-6.4,2.7-6.4,0
			s-3.8-68.6,0-68.6s28.2,0,28.2,0v68.6h-7.4c0,0-4.8,18.8-4.8,23.6c0,4.8,0,9.1,6.4,7.5c6.4-1.6,14.5-1.1,14.5-1.1
			s-19.3,15.5-37.8,12.3c20.1,3.2,40.4,4.8,50.6-17.7c-3.8,16.6-12.9,24.6-34.8,24.6s-61.6-26.3-61.6-72.3c0-46.1,0-49.8,0-49.8H497
			z"/>
		<circle class="st6" cx="549.4" cy="1838.4" r="6.6"/>
		<circle class="st6" cx="549.4" cy="1804.8" r="6.6"/>
	</g>
	<path class="st2" d="M605.5,1875.3c-1.8-3-1.3-9.5,1.1-15.4c2.5-5.9,3.5-22.4,5.1-28.1s-0.9-25.7,2.1-33.6l6.5-14.9
		c0,0,0.2,68.9-3.5,75C613.3,1864.5,605.5,1875.3,605.5,1875.3z"/>
	<use xlink:href="#SVGID_1_"  style="overflow:visible;fill:none;stroke:#231F20;stroke-width:0.9792;stroke-miterlimit:10;"/>
</g>
<path class="st1" d="M617,1786.4c0,0,7.4,5.6,8.5,8.5c1.1,3,8.2,14.8,18.9,8.5c10.8-6.3,1.5-21.1-5.2-27.1
	c-6.7-5.9-22.3-17.4-22.3-17.4V1786.4z"/>
<circle class="st1" cx="637.8" cy="1793" r="4.7"/>
<path class="st1" d="M604.1,1217.6c0-3.9,0-447.1,0-447.1S590,768,552.8,768c-37.2,0-50.5,2.5-50.5,2.5v2.5v444.6H604.1z"/>
<g>
	<path class="st7" d="M490.8,768c0.5,2.3,11.4,5,11.4,5s2.1-2.9,5-3.1c2.8-0.3,36.5-1.8,45.6-1.8c9,0,10.5-5.4,0-5.9
		c-10.5-0.5-44.5,2.5-51.5,2.7C494.2,765.1,490.8,768,490.8,768z"/>
	<path class="st7" d="M617.3,768c-0.5,2.3-11.4,5-11.4,5s-2.1-2.9-5-3.1c-2.8-0.3-36.5-1.8-45.6-1.8c-9,0-10.5-5.4,0-5.9
		s44.5,2.5,51.5,2.7C613.9,765.1,617.3,768,617.3,768z"/>
</g>
<g>
	<line class="st3" x1="494" y1="762.1" x2="494" y2="721.3"/>
	<line class="st3" x1="501.9" y1="762.1" x2="501.9" y2="721.3"/>
	<line class="st4" x1="580.6" y1="762.1" x2="580.6" y2="721.3"/>
	<line class="st3" x1="594.9" y1="762.1" x2="594.9" y2="721.3"/>
	<line class="st3" x1="606.7" y1="762.1" x2="606.7" y2="721.3"/>
	<line class="st4" x1="515.1" y1="762.1" x2="515.1" y2="721.3"/>
	<line class="st4" x1="565.2" y1="762.1" x2="565.2" y2="721.3"/>
	<line class="st5" x1="530.8" y1="762.1" x2="530.8" y2="721.3"/>
	<line class="st5" x1="548.3" y1="721.3" x2="548.3" y2="762.1"/>
</g>
<g>
	<defs>
		<path id="SVGID_3_" d="M497.9,701.8c1.5-6.8,5.1-16.6,12.3-21.4h0c4.4-11.4,15.2-27.3,42.9-27.3c32.8,0,40.3,27.3,40.3,27.3h0
			c7.2,4.7,10.8,14.5,12.3,21.4c2.1,9.3,0,20,0,20h-49.9h-8.1h-49.9C497.9,721.8,495.9,711.1,497.9,701.8z"/>
	</defs>
	<clipPath id="SVGID_4_">
		<use xlink:href="#SVGID_3_"  style="overflow:visible;"/>
	</clipPath>
	<g class="st8">
		<ellipse cx="591.9" cy="707.1" rx="9.9" ry="9.8"/>
		<path d="M588.5,677.6c0,0-11.8-10-16.9-9.7c-5,0.3-7.7,7.6-7.4,9.7C564.5,679.7,588.5,677.6,588.5,677.6z"/>
		<g>
			<path d="M535.5,718.9c0,0,10.9-24.9-6.5-39.6c11.8-4.4,14.2-9.7,9.9-13.5c-4.3-3.8-20,4.4-18.8,8.8c-6.2,5.9-21.9,11.7-20.7,44.3
				c-1.8,4.7-11.2-0.3-10.4-2.6s12.1-53.9,20.1-60.4c8-6.4,42.3-11.4,45-8.2c2.7,3.2,3.3,69.8,3.3,70.9c0,1.2-6.2,16.4-7.1,15.5
				S535.5,718.9,535.5,718.9z"/>
			<path d="M550.6,727.1c8-2.1,18.3-7.3,21.9-20.1c3.6-12.7-0.6-28.9-8.3-29.5c0,0,2.5-14.1-2-15.8c-4.5-1.8-13.4-1.5-13.4-1.5
				L550.6,727.1z"/>
		</g>
	</g>
</g>
<rect x="530.8" y="721.8" transform="matrix(-1 -4.522395e-11 4.522395e-11 -1 1104.1611 1483.8779)" width="42.5" height="40.3"/>
<path class="st9" d="M1274.8,743.4c0,2.7-556.4,4.9-682,5.2c-0.7,4.4-2.3,8.5-4.5,12.2c36.8,38.1,179.8,178.7,173.8,184.7
	c-6,6-146.6-137-184.7-173.8c-3.7,2.3-7.9,3.9-12.5,4.5c-0.5,77.7-2.5,442.6-4.9,442.6c-2.4,0-4.5-364.8-4.9-442.6
	c-4.5-0.7-8.7-2.2-12.5-4.5c-38.1,36.8-178.7,179.8-184.6,173.8c-6-6,137-146.6,173.8-184.7c-2.3-3.7-3.8-7.8-4.5-12.2
	c-125.6-0.3-682-2.5-682-5.2c0-2.7,556.4-4.9,682-5.2c0.7-4.4,2.3-8.5,4.5-12.2c-36.8-38.1-179.8-178.7-173.8-184.7
	c6-6,146.6,137,184.6,173.8c3.7-2.3,7.9-3.9,12.5-4.5c0.5-77.7,2.5-442.6,4.9-442.6c2.4,0,4.5,364.8,4.9,442.6
	c4.5,0.7,8.7,2.2,12.5,4.5c38.1-36.8,178.7-179.8,184.7-173.8c6,6-137,146.6-173.8,184.7c2.3,3.7,3.8,7.8,4.5,12.2
	C718.5,738.5,1274.8,740.7,1274.8,743.4"/>
<g>
	<path class="st6" d="M255.1,743.4c0-1.1,237.4-2.1,291-2.2c0.3-1.9,1-3.6,1.9-5.2c-15.7-16.3-76.7-76.2-74.2-78.8
		c2.6-2.6,62.5,58.5,78.8,74.2c1.6-1,3.4-1.7,5.3-1.9c0.2-33.2,1.1-188.9,2.1-188.9c1,0,1.9,155.7,2.1,188.9c1.9,0.3,3.7,1,5.3,1.9
		c16.3-15.7,76.2-76.7,78.8-74.2c2.6,2.6-58.5,62.5-74.2,78.8c1,1.6,1.6,3.3,1.9,5.2c53.6,0.1,291,1.1,291,2.2s-237.4,2.1-291,2.2
		c-0.3,1.9-1,3.6-1.9,5.2c15.7,16.3,76.7,76.2,74.2,78.8c-2.6,2.6-62.5-58.5-78.8-74.2c-1.6,1-3.4,1.7-5.3,1.9
		c-0.2,33.2-1.1,188.9-2.1,188.9c-1,0-1.9-155.7-2.1-188.9c-1.9-0.3-3.7-1-5.3-1.9c-16.3,15.7-76.2,76.7-78.8,74.2
		c-2.6-2.6,58.5-62.5,74.2-78.8c-1-1.6-1.6-3.3-1.9-5.2C492.5,745.5,255.1,744.6,255.1,743.4z"/>
</g>
</svg>
