<?xml version="1.0" encoding="utf-8"?>
<!-- Generator: Adobe Illustrator 24.0.0, SVG Export Plug-In . SVG Version: 6.00 Build 0)  -->
<svg version="1.1" id="Layer_1" xmlns="http://www.w3.org/2000/svg" xmlns:xlink="http://www.w3.org/1999/xlink" x="0px" y="0px"
	 viewBox="0 0 445 221" style="enable-background:new 0 0 445 221;" xml:space="preserve">
<style type="text/css">
	.st0{fill:#FFFFFF;}
</style>
<path class="st0" d="M437.9,105.8l-98.9-95c-8.1-7.7-21.2-7.7-29.2,0c-4,3.8-6.2,9-6.2,14.4c0,5.5,2.2,10.6,6.2,14.4v0l74,71.1
	l-74,71.1c-4,3.8-6.2,9-6.2,14.4c0,5.5,2.2,10.6,6.2,14.4c4,3.9,9.3,5.8,14.6,5.8c5.3,0,10.6-1.9,14.6-5.8l98.9-95
	c1.3-1.3,2.1-3.1,2.1-4.9S439.2,107,437.9,105.8z"/>
<path class="st0" d="M285.5,105.8l-98.9-95c-8.1-7.7-21.2-7.7-29.2,0c-4,3.8-6.2,9-6.2,14.4c0,5.5,2.2,10.6,6.2,14.4v0l74,71.1
	l-74,71.1c-4,3.8-6.2,9-6.2,14.4c0,5.5,2.2,10.6,6.2,14.4c4,3.9,9.3,5.8,14.6,5.8c5.3,0,10.6-1.9,14.6-5.8l98.9-95
	c1.3-1.3,2.1-3.1,2.1-4.9S286.9,107,285.5,105.8z"/>
<path class="st0" d="M140,105.8l-98.9-95C33,3,19.9,3,11.8,10.8c-4,3.8-6.2,9-6.2,14.4c0,5.5,2.2,10.6,6.2,14.4v0l74,71.1l-74,71.1
	c-4,3.8-6.2,9-6.2,14.4c0,5.5,2.2,10.6,6.2,14.4c4,3.9,9.3,5.8,14.6,5.8c5.3,0,10.6-1.9,14.6-5.8l98.9-95c1.3-1.3,2.1-3.1,2.1-4.9
	S141.4,107,140,105.8z"/>
</svg>
