<?xml version="1.0" encoding="utf-8"?>
<!-- Generator: Adobe Illustrator 24.0.0, SVG Export Plug-In . SVG Version: 6.00 Build 0)  -->
<svg version="1.1" id="Layer_1" xmlns="http://www.w3.org/2000/svg" xmlns:xlink="http://www.w3.org/1999/xlink" x="0px" y="0px"
	 viewBox="0 0 445 221" style="enable-background:new 0 0 445 221;" xml:space="preserve">
<style type="text/css">
	.st0{fill:#FFFFFF;}
</style>
<path class="st0" d="M7.7,115.5l98.9,95c8.1,7.7,21.2,7.7,29.2,0c4-3.8,6.2-9,6.2-14.4c0-5.5-2.2-10.6-6.2-14.4l0,0l-74-71.1
	l74-71.1c4-3.8,6.2-9,6.2-14.4c0-5.5-2.2-10.6-6.2-14.4c-4-3.9-9.3-5.8-14.6-5.8c-5.3,0-10.6,1.9-14.6,5.8l-98.9,95
	c-1.3,1.3-2.1,3.1-2.1,4.9S6.4,114.3,7.7,115.5z"/>
<path class="st0" d="M160.1,115.5l98.9,95c8.1,7.7,21.2,7.7,29.2,0c4-3.8,6.2-9,6.2-14.4c0-5.5-2.2-10.6-6.2-14.4l0,0l-74-71.1
	l74-71.1c4-3.8,6.2-9,6.2-14.4c0-5.5-2.2-10.6-6.2-14.4c-4-3.9-9.3-5.8-14.6-5.8c-5.3,0-10.6,1.9-14.6,5.8l-98.9,95
	c-1.3,1.3-2.1,3.1-2.1,4.9S158.7,114.3,160.1,115.5z"/>
<path class="st0" d="M305.6,115.5l98.9,95c8.1,7.8,21.2,7.8,29.3,0c4-3.8,6.2-9,6.2-14.4c0-5.5-2.2-10.6-6.2-14.4l0,0l-74-71.1
	l74-71.1c4-3.8,6.2-9,6.2-14.4c0-5.5-2.2-10.6-6.2-14.4c-4-3.9-9.3-5.8-14.6-5.8c-5.3,0-10.6,1.9-14.6,5.8l-98.9,95
	c-1.3,1.3-2.1,3.1-2.1,4.9S304.2,114.3,305.6,115.5z"/>
</svg>
