<?xml version="1.0" encoding="utf-8"?>
<!-- Generator: Adobe Illustrator 24.0.0, SVG Export Plug-In . SVG Version: 6.00 Build 0)  -->
<svg version="1.1" id="Layer_1" xmlns="http://www.w3.org/2000/svg" xmlns:xlink="http://www.w3.org/1999/xlink" x="0px" y="0px"
	 viewBox="0 0 1125 2436" style="enable-background:new 0 0 1125 2436;" xml:space="preserve">
<style type="text/css">
	.st0{clip-path:url(#SVGID_2_);}
	.st1{stroke:#FFFFFF;stroke-width:1.9926;stroke-miterlimit:10;}
	.st2{fill:#FFFFFF;}
	.st3{fill:#ED1C24;}
	.st4{fill:#D1D3D4;}
	.st5{fill:#FFFFFF;stroke:#FFFFFF;stroke-width:0.9826;stroke-linecap:round;stroke-linejoin:round;stroke-miterlimit:10;}
	.st6{fill:#FFFFFF;stroke:#FFFFFF;stroke-width:0.6239;stroke-linecap:round;stroke-linejoin:round;stroke-miterlimit:10;}
	.st7{fill:none;stroke:#231F20;stroke-width:0.6239;stroke-miterlimit:10;}
	.st8{fill:#FFFFFF;stroke:#FFFFFF;stroke-width:0.6239;stroke-miterlimit:10;}
	.st9{stroke:#231F20;stroke-width:0.6239;stroke-miterlimit:10;}
	.st10{stroke:#FFFFFF;stroke-width:0.6239;stroke-miterlimit:10;}
	.st11{fill:#FFFFFF;stroke:#231F20;stroke-width:0.6239;stroke-linecap:round;stroke-linejoin:round;stroke-miterlimit:10;}
	.st12{fill:#FFFFFF;stroke:#231F20;stroke-width:0.7224;stroke-linecap:round;stroke-linejoin:round;stroke-miterlimit:10;}
	.st13{fill:none;stroke:#FFFFFF;stroke-width:1.9926;stroke-miterlimit:10;}
</style>
<g>
	<defs>
		<rect id="SVGID_1_" width="1125" height="2436"/>
	</defs>
	<use xlink:href="#SVGID_1_"  style="overflow:visible;"/>
	<clipPath id="SVGID_2_">
		<use xlink:href="#SVGID_1_"  style="overflow:visible;"/>
	</clipPath>
	<g class="st0">
		<g>
			<rect x="327.8" y="199.7" class="st1" width="739.9" height="1205.4"/>
			<polygon class="st2" points="423.8,280.4 425.4,304.3 438.8,305.9 425.4,307.5 423.8,331.4 422.2,307.5 408.8,305.9 422.2,304.3 
							"/>
			<polygon class="st2" points="870.2,688.5 871.8,712.4 885.2,714 871.8,715.6 870.2,739.5 868.6,715.6 855.2,714 868.6,712.4 			
				"/>
			<polygon class="st2" points="995.2,1287.5 996.8,1311.4 1010.2,1313 996.8,1314.6 995.2,1338.5 993.6,1314.6 980.2,1313 
				993.6,1311.4 			"/>
			<polygon class="st2" points="590.9,1279 592.5,1302.9 605.8,1304.5 592.5,1306.1 590.9,1330 589.3,1306.1 575.9,1304.5 
				589.3,1302.9 			"/>
			<polygon class="st2" points="433,1041.2 434.6,1065.1 448,1066.7 434.6,1068.3 433,1092.2 431.4,1068.3 418,1066.7 431.4,1065.1 
							"/>
			<polygon class="st2" points="832.9,1092.2 833.7,1104.4 840.5,1105.2 833.7,1106 832.9,1118.2 832,1106 825.2,1105.2 832,1104.4 
							"/>
			<polygon class="st2" points="756.7,503.3 757.5,515.5 764.3,516.3 757.5,517.1 756.7,529.2 755.9,517.1 749.1,516.3 755.9,515.5 
							"/>
			<polygon class="st2" points="438.8,776.4 439.6,788.6 446.4,789.4 439.6,790.2 438.8,802.4 438,790.2 431.2,789.4 438,788.6 			
				"/>
			<polygon class="st2" points="915.1,250.3 915.9,262.5 922.8,263.3 915.9,264.1 915.1,276.3 914.3,264.1 907.5,263.3 914.3,262.5 
							"/>
			<polygon class="st2" points="416.5,540.4 417.3,552.6 424.1,553.4 417.3,554.2 416.5,566.4 415.7,554.2 408.8,553.4 415.7,552.6 
							"/>
			<polygon class="st2" points="724.4,658 724.8,664.4 728.4,664.8 724.8,665.3 724.4,671.7 724,665.3 720.4,664.8 724,664.4 			"/>
			<polygon class="st2" points="879,516.3 879.4,522.7 883,523.1 879.4,523.6 879,530 878.6,523.6 874.9,523.1 878.6,522.7 			"/>
			<polygon class="st2" points="571.8,573 572.3,579.4 575.9,579.8 572.3,580.3 571.8,586.7 571.4,580.3 567.8,579.8 571.4,579.4 
							"/>
			<polygon class="st2" points="561,921.5 561.5,927.9 565.1,928.3 561.5,928.8 561,935.2 560.6,928.8 557,928.3 560.6,927.9 			"/>
			<polygon class="st2" points="527.2,699.8 527.6,706.2 531.2,706.6 527.6,707.1 527.2,713.5 526.8,707.1 523.2,706.6 526.8,706.2 
							"/>
			<polygon class="st2" points="463.3,434.4 463.8,440.8 467.4,441.2 463.8,441.7 463.3,448.1 462.9,441.7 459.3,441.2 462.9,440.8 
							"/>
			<polygon class="st2" points="771.7,901 772.1,907.4 775.7,907.8 772.1,908.3 771.7,914.7 771.3,908.3 767.6,907.8 771.3,907.4 
							"/>
			<polygon class="st2" points="723.3,1118.2 723.8,1124.6 727.4,1125.1 723.8,1125.5 723.3,1131.9 722.9,1125.5 719.3,1125.1 
				722.9,1124.6 			"/>
			<polygon class="st2" points="506.1,1148.4 506.5,1154.8 510.2,1155.3 506.5,1155.7 506.1,1162.1 505.7,1155.7 502.1,1155.3 
				505.7,1154.8 			"/>
			<polygon class="st3" points="842.2,456.5 846.4,417 847,417 847.6,417 			"/>
			<polygon class="st3" points="845.6,445 847.6,417 848.2,417 848.9,416.9 			"/>
			<polygon class="st3" points="847.8,447 848.9,416.9 849.5,416.9 850.1,416.9 			"/>
			<polygon class="st2" points="849.7,446.9 850.1,416.9 850.7,416.9 851.4,416.8 			"/>
			<polygon class="st2" points="852.1,438.4 851.4,416.8 852,416.8 852.6,416.8 			"/>
			<polygon class="st2" points="854,438.4 852.6,416.8 853.2,416.8 853.9,416.7 			"/>
			<polygon class="st2" points="856.5,444.4 853.9,416.7 854.5,416.7 855.1,416.7 			"/>
			<polygon class="st3" points="859.4,454.1 855.1,416.7 855.7,416.7 856.4,416.6 			"/>
			<polygon class="st2" points="856.2,430.2 854.5,416.7 855.1,416.7 855.7,416.7 			"/>
			<polygon class="st2" points="854.7,434.3 853.2,416.8 853.9,416.7 854.5,416.7 			"/>
			<polygon class="st3" points="850.9,448.1 850.7,416.9 851.4,416.8 852,416.8 			"/>
			<polygon class="st3" points="853.8,446.1 852,416.8 852.6,416.8 853.2,416.8 			"/>
			<polygon class="st3" points="849.3,435.7 849.5,416.9 850.1,416.9 850.7,416.9 			"/>
			<polygon class="st3" points="847.7,432.9 848.2,417 848.9,416.9 849.5,416.9 			"/>
			<polygon class="st3" points="846.1,431.8 847,417 847.6,417 848.2,417 			"/>
			<polygon class="st3" points="903.3,465.5 907.4,426 908,426 908.7,426 			"/>
			<polygon class="st3" points="906.6,454 908.7,426 909.3,426 909.9,425.9 			"/>
			<polygon class="st3" points="908.9,456 909.9,425.9 910.5,425.9 911.2,425.9 			"/>
			<polygon class="st3" points="910.7,455.9 911.2,425.9 911.8,425.9 912.4,425.8 			"/>
			<polygon class="st2" points="913.1,447.4 912.4,425.8 913,425.8 913.7,425.8 			"/>
			<polygon class="st2" points="915,447.4 913.7,425.8 914.3,425.8 914.9,425.7 			"/>
			<polygon class="st3" points="917.5,453.4 914.9,425.7 915.5,425.7 916.2,425.7 			"/>
			<polygon class="st3" points="920.4,463.1 916.2,425.7 916.8,425.7 917.4,425.6 			"/>
			<polygon class="st2" points="917.3,439.2 915.5,425.7 916.2,425.7 916.8,425.7 			"/>
			<polygon class="st2" points="915.8,443.3 914.3,425.8 914.9,425.7 915.5,425.7 			"/>
			<polygon class="st3" points="914.9,455.1 913,425.8 913.7,425.8 914.3,425.8 			"/>
			<polygon class="st2" points="910.4,444.7 910.5,425.9 911.2,425.9 911.8,425.9 			"/>
			<polygon class="st2" points="908.7,441.9 909.3,426 909.9,425.9 910.5,425.9 			"/>
			<polygon class="st2" points="907.1,440.8 908,426 908.7,426 909.3,426 			"/>
			<polygon class="st3" points="959.5,466.7 963.6,427.2 964.2,427.2 964.9,427.2 			"/>
			<polygon class="st3" points="962.8,455.2 964.9,427.2 965.5,427.1 966.1,427.1 			"/>
			<polygon class="st3" points="965.1,457.2 966.1,427.1 966.7,427.1 967.4,427.1 			"/>
			<polygon class="st2" points="966.9,457.1 967.4,427.1 968,427.1 968.6,427 			"/>
			<polygon class="st2" points="969.3,448.6 968.6,427 969.2,427 969.9,427 			"/>
			<polygon class="st2" points="971.2,448.6 969.9,427 970.5,427 971.1,426.9 			"/>
			<polygon class="st3" points="973.7,454.6 971.1,426.9 971.7,426.9 972.4,426.9 			"/>
			<polygon class="st3" points="976.6,464.3 972.4,426.9 973,426.9 973.6,426.8 			"/>
			<polygon class="st2" points="973.5,440.4 971.7,426.9 972.4,426.9 973,426.9 			"/>
			<polygon class="st2" points="972,444.5 970.5,427 971.1,426.9 971.7,426.9 			"/>
			<polygon class="st3" points="968.2,458.3 968,427.1 968.6,427 969.2,427 			"/>
			<polygon class="st3" points="971.1,456.3 969.2,427 969.9,427 970.5,427 			"/>
			<polygon class="st2" points="964.9,443.1 965.5,427.1 966.1,427.1 966.7,427.1 			"/>
			<polygon class="st2" points="963.3,442 964.2,427.2 964.9,427.2 965.5,427.1 			"/>
			<polygon class="st3" points="996.4,463 1000.5,423.6 1001.1,423.6 1001.7,423.5 			"/>
			<polygon class="st3" points="999.7,451.5 1001.7,423.5 1002.4,423.5 1003,423.5 			"/>
			<polygon class="st3" points="1002,453.6 1003,423.5 1003.6,423.5 1004.2,423.4 			"/>
			<polygon class="st3" points="1003.8,453.4 1004.2,423.4 1004.9,423.4 1005.5,423.4 			"/>
			<polygon class="st2" points="1006.2,445 1005.5,423.4 1006.1,423.4 1006.7,423.3 			"/>
			<polygon class="st2" points="1008.1,444.9 1006.7,423.3 1007.4,423.3 1008,423.3 			"/>
			<polygon class="st3" points="1010.6,451 1008,423.3 1008.6,423.3 1009.3,423.2 			"/>
			<polygon class="st3" points="1013.5,460.7 1009.3,423.2 1009.9,423.2 1010.5,423.2 			"/>
			<polygon class="st2" points="1010.3,436.8 1008.6,423.3 1009.3,423.2 1009.9,423.2 			"/>
			<polygon class="st2" points="1008.9,440.9 1007.4,423.3 1008,423.3 1008.6,423.3 			"/>
			<polygon class="st3" points="1005.1,454.6 1004.9,423.4 1005.5,423.4 1006.1,423.4 			"/>
			<polygon class="st2" points="1003.4,442.3 1003.6,423.5 1004.2,423.4 1004.9,423.4 			"/>
			<polygon class="st2" points="1001.8,439.5 1002.4,423.5 1003,423.5 1003.6,423.5 			"/>
			<polygon class="st2" points="1000.2,438.3 1001.1,423.6 1001.7,423.5 1002.4,423.5 			"/>
			<g>
				<polygon class="st3" points="850,429.8 858.4,348.8 859.7,348.8 861,348.7 				"/>
				<polygon class="st3" points="875.6,384.3 872.5,348.3 873.8,348.2 875.1,348.2 				"/>
				<polygon class="st3" points="867.8,412.5 867.4,348.5 868.7,348.4 869.9,348.4 				"/>
				<polygon class="st3" points="873.7,408.5 869.9,348.4 871.2,348.3 872.5,348.3 				"/>
				<polygon class="st3" points="864.5,387.2 864.8,348.6 866.1,348.5 867.4,348.5 				"/>
				<polygon class="st3" points="861.1,381.5 862.3,348.7 863.5,348.6 864.8,348.6 				"/>
				<polygon class="st3" points="857.9,379.1 859.7,348.8 861,348.7 862.3,348.7 				"/>
			</g>
			<g>
				<polygon class="st2" points="786.5,270.3 786.9,276.7 790.5,277.2 786.9,277.6 786.5,284 786,277.6 782.4,277.2 786,276.7 				
					"/>
				<polygon class="st3" points="589.3,396.2 610,352.3 610.6,352.5 611.3,352.7 				"/>
				<polygon class="st2" points="597.6,384 611.3,352.7 612,352.8 612.6,353 				"/>
				<polygon class="st2" points="599.1,387.1 612.6,353 613.3,353.1 614,353.3 				"/>
				<polygon class="st2" points="601.1,387.5 614,353.3 614.6,353.5 615.3,353.6 				"/>
				<polygon class="st2" points="607.1,378.5 615.3,353.6 616,353.8 616.6,353.9 				"/>
				<polygon class="st2" points="609.1,379 616.6,353.9 617.3,354.1 618,354.3 				"/>
				<polygon class="st2" points="609.2,386.7 618,354.3 618.6,354.4 619.3,354.6 				"/>
				<polygon class="st3" points="608.3,398.6 619.3,354.6 620,354.7 620.6,354.9 				"/>
				<polygon class="st3" points="614.8,370.4 618.6,354.4 619.3,354.6 620,354.7 				"/>
				<polygon class="st3" points="611.6,374.6 617.3,354.1 618,354.3 618.6,354.4 				"/>
				<polygon class="st3" points="601.9,389.2 614.6,353.5 615.3,353.6 616,353.8 				"/>
				<polygon class="st3" points="605.7,387.8 616,353.8 616.6,353.9 617.3,354.1 				"/>
				<polygon class="st3" points="605.3,374.6 613.3,353.1 614,353.3 614.6,353.5 				"/>
				<polygon class="st3" points="604.8,370.9 612,352.8 612.6,353 613.3,353.1 				"/>
				<polygon class="st2" points="603.6,369.1 610.6,352.5 611.3,352.7 612,352.8 				"/>
				<polygon class="st3" points="626.9,412.7 647.6,368.8 648.2,369 648.9,369.1 				"/>
				<polygon class="st2" points="635.2,400.5 648.9,369.1 649.6,369.3 650.2,369.4 				"/>
				<polygon class="st2" points="636.7,403.5 650.2,369.4 650.9,369.6 651.5,369.8 				"/>
				<polygon class="st2" points="638.7,403.9 651.5,369.8 652.2,369.9 652.9,370.1 				"/>
				<polygon class="st2" points="644.7,395 652.9,370.1 653.5,370.2 654.2,370.4 				"/>
				<polygon class="st2" points="646.7,395.5 654.2,370.4 654.9,370.6 655.5,370.7 				"/>
				<polygon class="st2" points="646.8,403.1 655.5,370.7 656.2,370.9 656.9,371 				"/>
				<polygon class="st3" points="645.8,415.1 656.9,371 657.5,371.2 658.2,371.4 				"/>
				<polygon class="st3" points="652.4,386.8 656.2,370.9 656.9,371 657.5,371.2 				"/>
				<polygon class="st3" points="649.2,391.1 654.9,370.6 655.5,370.7 656.2,370.9 				"/>
				<polygon class="st3" points="639.5,405.7 652.2,369.9 652.9,370.1 653.5,370.2 				"/>
				<polygon class="st3" points="643.3,404.3 653.5,370.2 654.2,370.4 654.9,370.6 				"/>
				<polygon class="st3" points="642.9,391 650.9,369.6 651.5,369.8 652.2,369.9 				"/>
				<polygon class="st3" points="642.4,387.4 649.6,369.3 650.2,369.4 650.9,369.6 				"/>
				<polygon class="st3" points="641.2,385.6 648.2,369 648.9,369.1 649.6,369.3 				"/>
				<polygon class="st3" points="678.4,431.3 699.1,387.4 699.8,387.5 700.4,387.7 				"/>
				<polygon class="st2" points="686.7,419.1 700.4,387.7 701.1,387.9 701.7,388 				"/>
				<polygon class="st2" points="688.2,422.1 701.7,388 702.4,388.2 703.1,388.3 				"/>
				<polygon class="st2" points="690.2,422.5 703.1,388.3 703.7,388.5 704.4,388.7 				"/>
				<polygon class="st2" points="696.2,413.5 704.4,388.7 705.1,388.8 705.7,389 				"/>
				<polygon class="st2" points="698.2,414.1 705.7,389 706.4,389.1 707.1,389.3 				"/>
				<polygon class="st2" points="698.3,421.7 707.1,389.3 707.7,389.5 708.4,389.6 				"/>
				<polygon class="st3" points="697.4,433.7 708.4,389.6 709.1,389.8 709.7,389.9 				"/>
				<polygon class="st2" points="703.9,405.4 707.7,389.5 708.4,389.6 709.1,389.8 				"/>
				<polygon class="st3" points="700.7,409.6 706.4,389.1 707.1,389.3 707.7,389.5 				"/>
				<polygon class="st2" points="691,424.2 703.7,388.5 704.4,388.7 705.1,388.8 				"/>
				<polygon class="st3" points="694.8,422.9 705.1,388.8 705.7,389 706.4,389.1 				"/>
				<polygon class="st2" points="694.4,409.6 702.4,388.2 703.1,388.3 703.7,388.5 				"/>
				<polygon class="st2" points="693.9,406 701.1,387.9 701.7,388 702.4,388.2 				"/>
				<polygon class="st2" points="692.7,404.2 699.8,387.5 700.4,387.7 701.1,387.9 				"/>
				<polygon class="st2" points="741.9,449.4 762.6,405.5 763.2,405.7 763.9,405.8 				"/>
				<polygon class="st2" points="750.2,437.2 763.9,405.8 764.5,406 765.2,406.1 				"/>
				<polygon class="st2" points="751.7,440.2 765.2,406.1 765.9,406.3 766.5,406.5 				"/>
				<polygon class="st2" points="753.7,440.6 766.5,406.5 767.2,406.6 767.9,406.8 				"/>
				<polygon class="st2" points="759.7,431.7 767.9,406.8 768.5,406.9 769.2,407.1 				"/>
				<polygon class="st2" points="761.7,432.2 769.2,407.1 769.9,407.3 770.5,407.4 				"/>
				<polygon class="st2" points="761.8,439.8 770.5,407.4 771.2,407.6 771.9,407.7 				"/>
				<polygon class="st3" points="760.8,451.8 771.9,407.7 772.5,407.9 773.2,408.1 				"/>
				<polygon class="st3" points="767.4,423.5 771.2,407.6 771.9,407.7 772.5,407.9 				"/>
				<polygon class="st3" points="764.2,427.8 769.9,407.3 770.5,407.4 771.2,407.6 				"/>
				<polygon class="st3" points="754.5,442.4 767.2,406.6 767.9,406.8 768.5,406.9 				"/>
				<polygon class="st3" points="758.3,441 768.5,406.9 769.2,407.1 769.9,407.3 				"/>
				<polygon class="st3" points="757.9,427.7 765.9,406.3 766.5,406.5 767.2,406.6 				"/>
				<polygon class="st3" points="757.4,424.1 764.5,406 765.2,406.1 765.9,406.3 				"/>
				<polygon class="st3" points="756.2,422.3 763.2,405.7 763.9,405.8 764.5,406 				"/>
				<polygon class="st3" points="912,457.1 911.8,425.9 912.4,425.8 913,425.8 				"/>
				<polygon class="st2" points="966.6,445.9 966.7,427.1 967.4,427.1 968,427.1 				"/>
				<polygon class="st3" points="1007.9,452.7 1006.1,423.4 1006.7,423.3 1007.4,423.3 				"/>
				<g>
					<path class="st2" d="M630.1,355.1c-0.5,2.8-9.9,3.4-17-0.8c-4.8-2.8-7.3-9.5-2.9-13.1C614.6,337.7,630.6,352.3,630.1,355.1z"/>
					<path class="st2" d="M653.4,374.8c-12.8-2.4-15.2-13.2-14.4-14.7c0.8-1.5,26,8.2,28.1,11.3S663.2,376.6,653.4,374.8z"/>
					<path class="st2" d="M707.3,392.9c-10.1-2.9-13.5-6.4-14.6-10.7c-1.1-4.3,26.4,4.7,29.6,8.1S713.8,394.8,707.3,392.9z"/>
					<path class="st2" d="M770.8,409.8c-13.4-2.3-19.4-9.4-16.8-11.6c2.6-2.2,24.7-1.5,30.5,5.8
						C788.1,408.4,779.4,411.3,770.8,409.8z"/>
				</g>
				<g>
					<path class="st3" d="M992.6,423.7c-0.5,2.8,7.5,6.7,15.3,5.3c5.3-0.9,9.8-6.2,7.2-11.2S993.1,420.8,992.6,423.7z"/>
					<path class="st3" d="M965,433.7c12.1,2.3,18.2-6.9,18-8.6c-0.2-1.7-25.9-1.6-28.9,0.5C951.1,427.8,955.7,432,965,433.7z"/>
					<path class="st3" d="M911,431.4c10,0.8,14.2-1.1,16.7-4.8s-25-5-29-3S904.6,430.9,911,431.4z"/>
					<path class="st3" d="M848.9,424.6c12.7,2.6,20.5-1.9,19-4.9c-1.5-3-21.3-10.2-29-5.5C834.1,417.1,840.7,422.9,848.9,424.6z"/>
				</g>
				<g>
					<path class="st3" d="M630.1,355.1c-0.5,2.8-9.9,3.4-17-0.8c-4.8-2.8-7.3-9.5-2.9-13.1C614.6,337.7,630.6,352.3,630.1,355.1z"/>
					<path class="st3" d="M653.4,374.8c-12.8-2.4-15.2-13.2-14.4-14.7c0.8-1.5,26,8.2,28.1,11.3S663.2,376.6,653.4,374.8z"/>
					<path class="st3" d="M707.3,392.9c-10.1-2.9-13.5-6.4-14.6-10.7c-1.1-4.3,26.4,4.7,29.6,8.1S713.8,394.8,707.3,392.9z"/>
					<path class="st3" d="M770.8,409.8c-13.4-2.3-19.4-9.4-16.8-11.6c2.6-2.2,24.7-1.5,30.5,5.8
						C788.1,408.4,779.4,411.3,770.8,409.8z"/>
				</g>
				<path class="st4" d="M831.2,267.7c59,12.9,106.7,29.5,155.8,62.5c49,33,72.4,52.4,70.8,62.7c-1.6,10.3-494.1-93.1-488.6-99.8
					C574.8,286.5,682.6,235.2,831.2,267.7z"/>
				<path class="st2" d="M1059.7,392.1c0.2-4.3-7-33.1-125-67.5s-225.6-49.9-281.6-49.9c-56,0-81.5,4.6-85.3,16.7
					c-3.8,12.1,39.9,55.9,52.2,62.8c12.3,6.9,75.8,37.7,189.2,57.7c113.4,19.9,167.3,23.3,197.6,12.8
					C1037.1,414.3,1059.2,402.6,1059.7,392.1z"/>
				<path d="M1057.8,392.9c0.2-4.2-7.1-32.1-124.4-66s-224.1-49.4-279.7-49.6c-55.6-0.3-80.9,4.1-84.6,15.9
					c-3.7,11.8,39.8,54.4,52.1,61.1c12.3,6.7,75.3,37,187.9,56.8s166.1,23.4,196.1,13.3S1057.3,403.1,1057.8,392.9z"/>
				<path class="st4" d="M830.1,354.9C759.9,338.8,631,324,623.9,336.1c-7.2,12.1,50.8,43.7,192.6,70.9s186.4,16.6,178.1,3.4
					C986.2,397.2,894.2,369.7,830.1,354.9z"/>
				<path d="M922.1,377.7c-8.6,3.3-18,4.9-27.3,6c-9.3,1-18.8,1.2-28.2,0.8c-18.8-0.6-37.5-3.6-55.9-7.6
					c-18.4-4.2-36.7-8.8-54.5-15.1c-8.9-3.1-17.6-6.6-25.9-11c-8.1-4.5-16.3-9.8-21.2-17.6l-1.6,1c5.5,8.2,13.9,13.3,22.3,17.7
					c8.4,4.4,17.3,7.8,26.2,10.8c17.9,6.1,36.2,10.6,54.7,14.6c18.4,4.2,37.1,7.4,56,8.1c9.4,0.5,18.9,0.3,28.3-0.5
					c9.4-0.8,18.8-2.2,27.9-5.4L922.1,377.7z"/>
				<path d="M942.5,382.7c-1,2.3-3.1,4.5-5.2,6.3c-2.2,1.8-4.7,3.3-7.3,4.4c-5.2,2.4-10.8,3.9-16.5,4.9c-11.5,1.8-23.2,1.7-34.8,0.9
					c-11.6-0.8-23.2-2.2-34.7-4c-11.5-1.7-23-3.8-34.4-6.1c-11.4-2.4-22.7-5.1-34-8.1c-11.3-3-22.4-6.4-33.3-10.4
					c-5.5-2-10.8-4.3-16-6.9c-5.1-2.7-10.2-5.7-15-8.8c-4.8-3.2-9.6-6.6-13.8-10.5c-4.3-3.9-8.2-8.2-10.5-13.4l-1.7,0.8
					c2.6,5.4,6.8,9.9,11.2,13.7c4.5,3.8,9.3,7.2,14.3,10.3c5,3.1,10,6,15.2,8.7c5.2,2.6,10.6,4.9,16.1,6.8c22,7.8,44.7,13.2,67.5,18
					c11.4,2.4,22.8,4.6,34.4,6.4c11.5,1.8,23.1,3.4,34.7,4.2c11.6,0.9,23.4,1.1,35-0.6c5.8-0.9,11.5-2.3,17-4.6
					c2.7-1.2,5.3-2.6,7.7-4.5c2.4-1.9,4.6-3.9,6-6.9L942.5,382.7z"/>
				<g>
					<g>
						<polygon points="814.9,378.4 820.6,348.1 819.7,347.9 813.9,378.2 						"/>
						<rect x="797.2" y="361.6" transform="matrix(0.2047 -0.9788 0.9788 0.2047 291.7525 1083.3314)" width="30.7" height="1"/>
						<polygon points="805,376.1 811.8,346.4 810.9,346.2 804,375.9 						"/>
						<polygon points="800.3,375 807.7,345.6 806.7,345.3 799.3,374.8 						"/>
						<rect x="784.1" y="358.7" transform="matrix(0.2622 -0.965 0.965 0.2622 242.9988 1036.2626)" width="30.2" height="1.1"/>
						<polygon points="791.3,372.9 799.8,344 798.8,343.7 790.3,372.6 						"/>
						<rect x="776.1" y="356.8" transform="matrix(0.301 -0.9536 0.9536 0.301 212.1434 1004.1094)" width="30" height="1.1"/>
						<rect x="772.2" y="355.8" transform="matrix(0.3204 -0.9473 0.9473 0.3204 197.3222 987.8735)" width="29.9" height="1.1"/>
						<polygon points="778.9,369.7 789,341.7 787.9,341.3 777.8,369.3 						"/>
						<rect x="765" y="354" transform="matrix(0.3592 -0.9333 0.9333 0.3592 168.8165 955.0017)" width="29.7" height="1.2"/>
						<polygon points="771.3,367.6 782.5,340.2 781.4,339.7 770.1,367.1 						"/>
						<polygon points="767.6,366.6 779.4,339.4 778.3,338.9 766.5,366.1 						"/>
						<rect x="754.9" y="351.2" transform="matrix(0.4169 -0.909 0.909 0.4169 129.0513 904.7864)" width="29.6" height="1.3"/>
						<rect x="751.8" y="350.2" transform="matrix(0.4359 -0.9 0.9 0.4359 116.6121 887.817)" width="29.5" height="1.3"/>
						<rect x="748.7" y="349.3" transform="matrix(0.4546 -0.8907 0.8907 0.4546 104.7478 870.9405)" width="29.5" height="1.3"/>
						<polygon points="754.2,362.3 768.2,336.3 767,335.7 753,361.7 						"/>
						<rect x="743" y="347.3" transform="matrix(0.4916 -0.8708 0.8708 0.4916 82.1595 836.771)" width="29.5" height="1.4"/>
						<polygon points="748.1,360.1 763.1,334.7 761.9,334 746.8,359.4 						"/>
						<polygon points="745.1,359 760.8,333.8 759.5,333.1 743.9,358.2 						"/>
						<polygon points="742.3,357.8 758.5,333 757.2,332.2 741.1,357 						"/>
						<polygon points="739.6,356.7 756.3,332.1 755,331.2 738.3,355.8 						"/>
						<rect x="730" y="342.1" transform="matrix(0.5795 -0.815 0.815 0.5795 33.791 751.2248)" width="29.8" height="1.5"/>
						<rect x="727.6" y="341" transform="matrix(0.5961 -0.8029 0.8029 0.5961 25.5213 734.2455)" width="29.9" height="1.6"/>
						<rect x="725.3" y="339.8" transform="matrix(0.6124 -0.7905 0.7905 0.6124 17.6554 717.2347)" width="30" height="1.6"/>
						<polygon points="729.3,351.7 748.2,328.2 747,327.2 728,350.6 						"/>
						<rect x="720.9" y="337.4" transform="matrix(0.6438 -0.7652 0.7652 0.6438 3.36 683.6501)" width="30.2" height="1.6"/>
						<rect x="718.7" y="336.1" transform="matrix(0.6589 -0.7522 0.7522 0.6589 -3.134 667.0067)" width="30.4" height="1.7"/>
						<rect x="716.6" y="334.8" transform="matrix(0.6736 -0.7391 0.7391 0.6736 -9.1975 650.4919)" width="30.5" height="1.7"/>
						<polygon points="720,346 741.1,323.8 739.9,322.6 718.8,344.9 						"/>
						<rect x="712.6" y="332" transform="matrix(0.7019 -0.7122 0.7122 0.7019 -20.1163 617.7734)" width="30.9" height="1.7"/>
						<polygon points="715.7,343 737.9,321.3 736.6,320 714.4,341.7 						"/>
						<rect x="708.7" y="329.1" transform="matrix(0.7284 -0.6852 0.6852 0.7284 -29.3524 585.9197)" width="31.3" height="1.8"/>
						<rect x="706.8" y="327.5" transform="matrix(0.741 -0.6715 0.6715 0.741 -33.3982 570.2748)" width="31.5" height="1.8"/>
						<rect x="704.9" y="325.9" transform="matrix(0.7532 -0.6578 0.6578 0.7532 -37.1041 554.7402)" width="31.7" height="1.9"/>
						<rect x="703.1" y="324.2" transform="matrix(0.765 -0.644 0.644 0.765 -40.4543 539.4182)" width="31.9" height="1.9"/>
					</g>
				</g>
				<g>
					<g>
						<polygon points="814.9,378.4 820.6,348.1 819.7,347.9 813.9,378.2 						"/>
						<rect x="806.6" y="363.5" transform="matrix(0.1666 -0.986 0.986 0.1666 326.0923 1113.8638)" width="30.7" height="1"/>
						<rect x="811.3" y="364.3" transform="matrix(0.1472 -0.9891 0.9891 0.1472 343.9833 1128.6718)" width="30.5" height="1"/>
						<polygon points="829.6,380.7 833.4,350.6 832.4,350.5 828.5,380.6 						"/>
						<rect x="820.2" y="365.8" transform="matrix(0.1079 -0.9942 0.9942 0.1079 380.9172 1157.1669)" width="30.2" height="1.1"/>
						
							<rect x="824.4" y="366.4" transform="matrix(8.796870e-02 -0.9961 0.9961 8.796870e-02 400.0208 1170.8623)" width="30.1" height="1.1"/>
						<polygon points="843,382.6 845,352.7 843.9,352.6 841.9,382.5 						"/>
						<polygon points="847.2,383.1 848.6,353.2 847.5,353.2 846.1,383 						"/>
						<polygon points="851.3,383.5 852.1,353.7 850.9,353.7 850.1,383.5 						"/>
						
							<rect x="839.9" y="368.4" transform="matrix(6.072044e-03 -1 1 6.072044e-03 480.5477 1221.5579)" width="29.7" height="1.2"/>
						
							<rect x="857.7" y="354.6" transform="matrix(0.9999 -1.506996e-02 1.506996e-02 0.9999 -5.4697 12.9768)" width="1.2" height="29.7"/>
						
							<rect x="861.1" y="354.9" transform="matrix(0.9994 -3.550750e-02 3.550750e-02 0.9994 -12.5851 30.832)" width="1.2" height="29.6"/>
						<polygon points="865.3,384.8 866.6,384.7 864.9,355.2 863.6,355.3 						"/>
						
							<rect x="867.7" y="355.4" transform="matrix(0.9971 -7.653760e-02 7.653760e-02 0.9971 -25.7884 67.546)" width="1.3" height="29.5"/>
						<polygon points="872.3,385.1 873.6,385 870.7,355.6 869.4,355.7 						"/>
						<rect x="873.9" y="355.7" transform="matrix(0.9928 -0.1194 0.1194 0.9928 -37.9911 107.1138)" width="1.4" height="29.5"/>
						<polygon points="878.9,385.2 880.3,385.1 876.1,355.8 874.7,356 						"/>
						<rect x="879.7" y="355.7" transform="matrix(0.9868 -0.162 0.162 0.9868 -48.3885 147.4969)" width="1.4" height="29.6"/>
						<rect x="882.5" y="355.6" transform="matrix(0.9835 -0.181 0.181 0.9835 -52.4705 166.0133)" width="1.4" height="29.6"/>
						<polygon points="888.2,385 889.7,384.7 883.7,355.7 882.2,355.9 						"/>
						<rect x="887.9" y="355.3" transform="matrix(0.9751 -0.2218 0.2218 0.9751 -59.9638 206.299)" width="1.5" height="29.7"/>
						<rect x="890.5" y="355" transform="matrix(0.9704 -0.2416 0.2416 0.9704 -62.9682 226.256)" width="1.5" height="29.8"/>
						<polygon points="897,384.3 898.5,383.9 890.6,355 889.1,355.4 						"/>
						<rect x="895.5" y="354.3" transform="matrix(0.9594 -0.282 0.282 0.9594 -67.7674 267.7324)" width="1.6" height="30"/>
						<polygon points="902.5,383.5 904.1,383 895,354.3 893.5,354.8 						"/>
						<rect x="900.4" y="353.4" transform="matrix(0.9472 -0.3205 0.3205 0.9472 -70.5588 308.2699)" width="1.6" height="30.3"/>
						<rect x="902.7" y="352.8" transform="matrix(0.9406 -0.3397 0.3397 0.9406 -71.2702 328.7733)" width="1.7" height="30.4"/>
						<rect x="905.1" y="352.2" transform="matrix(0.9337 -0.358 0.358 0.9337 -71.4992 348.7128)" width="1.7" height="30.5"/>
						<rect x="907.4" y="351.5" transform="matrix(0.9267 -0.3757 0.3757 0.9267 -71.2815 368.0895)" width="1.7" height="30.7"/>
						<polygon points="915.8,380.7 917.4,380 905.2,351.6 903.6,352.3 						"/>
						<rect x="911.9" y="349.9" transform="matrix(0.9118 -0.4106 0.4106 0.9118 -69.5621 407.035)" width="1.8" height="31.1"/>
						<polygon points="920.9,379.2 922.5,378.4 909.1,350.2 907.5,350.9 						"/>
						<polygon points="923.4,378.4 925.1,377.6 911.1,349.4 909.4,350.2 						"/>
						<rect x="918.6" y="347.1" transform="matrix(0.887 -0.4617 0.4617 0.887 -63.7269 465.5234)" width="1.9" height="31.7"/>
						<rect x="920.8" y="346.1" transform="matrix(0.8789 -0.4769 0.4769 0.8789 -61.0982 483.44)" width="1.9" height="31.9"/>
					</g>
				</g>
				<g>
					<path d="M811.5,408l0.9-0.4c0-0.1-2-5.2-0.5-13.1l0.9-4.7l-0.9-0.2l-0.9,4.7C809.3,402.6,811.4,407.8,811.5,408z"/>
					<path d="M817.7,409.6l0.3-0.2l-0.3-0.4l0.2-0.4c-0.5-0.4-3.1-5.7-2.3-13c0.2-2.1,0.6-4.9,0.6-4.9l-1-0.1c0,0-0.4,2.8-0.6,4.9
						c-0.9,7.8,2,13.6,2.8,14L817.7,409.6z"/>
					<path d="M823.6,410.7c0.2,0,0.3-0.1,0.4-0.1l-0.6-0.8c0.1-0.1,0.2-0.1,0.3-0.1c-0.7-0.3-4.4-5.8-4.1-13.2
						c0.1-2.1,0.3-5.1,0.3-5.1l-1-0.1c0,0-0.2,3-0.3,5.1c-0.3,7.5,3.4,13.5,4.6,14.1C823.4,410.6,823.5,410.7,823.6,410.7z"/>
					<path d="M829.7,411.9c0.3,0,0.4-0.1,0.5-0.2l-0.6-0.8c0.1,0,0.1-0.1,0.1,0c-0.9-0.1-5.7-6-5.9-13.4c-0.1-2.2,0-5.3,0-5.3l-1,0
						c0,0-0.1,3.1,0,5.4c0.2,7.1,4.6,13.4,6.4,14.3C829.3,411.8,829.5,411.9,829.7,411.9z"/>
					<path d="M835.9,413.1c0.3,0,0.5-0.1,0.7-0.2l-0.7-0.8c0,0-0.2,0-0.9-0.4c-2.5-1.8-6.4-7.5-6.9-13.3c-0.2-2.3-0.2-5.5-0.2-5.5
						l-1.1,0c0,0,0,3.2,0.2,5.6c0.6,6.7,5.7,13.4,8.2,14.5C835.5,413.1,835.7,413.1,835.9,413.1z"/>
					<path d="M842.3,414.3c0.4,0,0.6-0.1,0.8-0.3l-0.7-0.8c0,0-0.2,0.1-0.6-0.1c-2.6-1-8.3-7.5-9.2-13.8c-0.4-2.5-0.5-5.7-0.5-5.8
						l-1.1,0c0,0.1,0.1,3.4,0.5,5.9c1,6.8,7,13.6,9.9,14.7C841.8,414.3,842.1,414.3,842.3,414.3z"/>
					<path d="M848.8,415.6c0.4,0,0.7-0.1,1-0.3l-0.7-0.9c-0.1,0.1-0.5,0.1-1-0.1c-2.9-1.1-9.5-7.7-10.9-14c-0.5-2.6-0.8-5.9-0.8-6
						l-1.1,0.1c0,0.1,0.2,3.5,0.8,6.1c1.3,6.4,7.9,13.6,11.6,14.9C848.1,415.5,848.5,415.6,848.8,415.6z"/>
					<path d="M855.2,416.8c0.5,0,0.9-0.1,1.2-0.4l-0.7-0.9c-0.3,0.2-1,0.2-2.3-0.3c-4.3-1.9-11.1-8.4-11.5-13.9l-0.1-0.2
						c-1.1-2.4-1-6-1-6l-1.1,0c0,0.2-0.1,3.8,1.1,6.4c0.5,6,7.5,12.7,12.2,14.7C853.9,416.6,854.6,416.8,855.2,416.8z"/>
					<path d="M861.8,418c0.6,0,1.1-0.1,1.4-0.4l-0.7-0.9c-0.4,0.3-1.5,0.2-2.9-0.4c-4.8-2-12.4-8.7-13-14l-0.1-0.2
						c-1.4-2.5-1.3-6.2-1.3-6.2l-1.2,0c0,0.2-0.1,3.9,1.4,6.7c0.7,5.9,8.7,12.8,13.7,14.9C860.3,417.8,861.1,418,861.8,418z"/>
					<path d="M868.5,419.2c0.7,0,1.2-0.2,1.7-0.5l-0.8-0.9c-0.5,0.4-1.8,0.3-3.4-0.4c-5.2-2-13.6-8.9-14.4-14.2l-0.1-0.2
						c-1.6-2.6-1.5-6.4-1.5-6.4l-1.2,0c0,0.2,0,4.1,1.6,7c1,5.9,9.7,13,15.1,15.1C866.7,418.9,867.7,419.2,868.5,419.2z"/>
					<path d="M875.2,420.3c0.8,0,1.4-0.2,1.9-0.6l-0.8-1c-0.6,0.5-2,0.4-3.9-0.3c-6.2-2.3-14.9-9.5-15.9-14.5l-0.1-0.2
						c-1.8-2.6-1.8-6.6-1.8-6.6l-1.2,0c0,0.2,0,4.3,1.9,7.2c1.2,5.8,10.8,13.1,16.6,15.3C873.2,420.1,874.3,420.3,875.2,420.3z"/>
					<path d="M881.9,421.4c0.9,0,1.6-0.2,2.1-0.6l-0.8-1c-0.7,0.5-2.3,0.5-4.4-0.3c-6.7-2.3-16.3-9.7-17.4-14.7l-0.1-0.2
						c-2-2.7-2.1-6.8-2.1-6.8l-1.2,0c0,0.2,0.1,4.4,2.2,7.5c1.5,5.9,11.9,13.3,18.2,15.5C879.8,421.2,880.9,421.4,881.9,421.4z"/>
					<path d="M888.6,422.4c1,0,1.8-0.2,2.4-0.7l-0.8-1c-0.8,0.6-2.5,0.6-4.8-0.2c-7.1-2.3-17.6-10-19-15l-0.1-0.2
						c-2.2-2.8-2.3-7-2.3-7.1l-1.3,0c0,0.2,0.1,4.6,2.5,7.7c1.7,5.5,12.4,13.4,19.8,15.7C886.4,422.2,887.6,422.4,888.6,422.4z"/>
					<path d="M895.4,423.4c1.1,0,2-0.3,2.6-0.8l-0.8-1c-0.8,0.7-2.7,0.6-5.1-0.1c-7.4-2.2-19-10.2-20.7-15.3l-0.1-0.2
						c-2.4-2.9-2.6-7.2-2.6-7.3l-1.3,0c0,0.2,0.2,4.8,2.8,8c1.9,5.5,13.7,13.7,21.5,16C893.1,423.2,894.3,423.4,895.4,423.4z"/>
					<path d="M902.1,424.3c1.2,0,2.2-0.3,2.9-0.8l-0.8-1c-0.9,0.7-2.8,0.7-5.5,0c-8.5-2.3-20.6-10.8-22.4-15.6l-0.1-0.2
						c-2.6-3-2.8-7.4-2.8-7.5l-1.3,0.1c0,0.2,0.2,4.9,3.1,8.2c2.2,5.6,15.1,14,23.2,16.3C899.8,424.1,901.1,424.3,902.1,424.3z"/>
					<path d="M908.9,425.2c1.4,0,2.4-0.3,3.2-0.9l-0.9-1.1c-0.9,0.8-3,0.8-5.7,0.1c-8.8-2.2-22.1-11-24.2-15.9l-0.1-0.2
						c-2.8-3-3.1-7.7-3.1-7.7l-1.4,0.1c0,0.2,0.3,5.1,3.4,8.5c2.5,5.7,16.6,14.4,25,16.6C906.6,425,907.8,425.2,908.9,425.2z"/>
					<path d="M915.8,425.9c1.4,0,2.5-0.3,3.3-0.9l-0.9-1.1c-0.7,0.6-2.1,0.8-3.9,0.5c-8.7-1.3-24.7-11.8-28.1-16.6
						c-2.5-3.7-3.4-8.1-3.5-8.1l-1.4,0.3c0,0.2,1,4.7,3.7,8.6c3.9,5.6,20.4,16,29,17.2C914.7,425.9,915.3,425.9,915.8,425.9z"/>
					<path d="M922.5,426.6c1.5,0,2.7-0.3,3.6-1l-0.9-1.1c-0.8,0.6-2.2,0.8-4.1,0.6c-9.1-1.2-26.2-11.9-29.9-16.9
						c-2.8-3.8-3.7-8.3-3.7-8.3l-1.4,0.3c0,0.2,1,4.8,4,8.9c3.8,5.2,21.5,16.3,30.8,17.5C921.5,426.5,922,426.6,922.5,426.6z"/>
					<path d="M929.2,427.1c1.6,0,2.9-0.4,3.8-1.1l-0.9-1.1c-0.8,0.7-2.3,0.9-4.3,0.7c-9.2-1.1-27.7-12.1-31.7-17.2
						c-3-3.9-4-8.5-4-8.5l-1.4,0.3c0,0.2,1,5,4.3,9.1c4.2,5.3,22.9,16.6,32.6,17.7C928.2,427.1,928.7,427.1,929.2,427.1z"/>
					<path d="M935.7,427.6c1.7,0,3.2-0.4,4.2-1.2l-0.9-1.1c-5.8,4.7-33.3-11-38-16.7c-3.2-3.9-4.2-8.7-4.2-8.7l-1.4,0.3
						c0,0.2,1.1,5.2,4.6,9.4C904,414.5,925.3,427.6,935.7,427.6z"/>
					<path d="M942.4,427.9c1.8,0,3.3-0.4,4.3-1.2l-0.9-1.2c-6.1,5-34.9-11-40-16.9c-3.5-4-4.5-8.9-4.5-8.9l-1.5,0.3
						c0,0.2,1.1,5.3,4.8,9.6C909.1,414.6,931.5,427.9,942.4,427.9z"/>
					<path d="M948.8,428.1c2,0,3.6-0.4,4.7-1.3l-1-1.2c-2.7,2.2-10.7,0.6-21.3-4.3c-9.7-4.5-18.3-10.1-20.7-12.7
						c-3.7-4.1-4.8-9.1-4.8-9.2l-1.5,0.3c0,0.2,1.1,5.5,5.1,9.9C914.2,414.8,937.4,428.1,948.8,428.1z"/>
					<path d="M958.9,427.8c2.1,0,3.8-0.4,5-1.4l-1-1.2c-6.6,5.3-38.1-11.1-44-17.3c-4-4.1-5-9.3-5-9.4l-1.5,0.3
						c0,0.2,1.1,5.7,5.4,10.2c3.1,3.2,13,9.1,22.1,13.2C946.1,425.1,953.6,427.8,958.9,427.8z"/>
					<path d="M968.6,426.7c2.2,0,4-0.4,5.3-1.4l-1-1.2c-7.1,5.7-40.1-11.6-46-17.5c-4.2-4.2-5.3-9.5-5.3-9.6l-1.6,0.3
						c0,0.2,1.2,5.9,5.7,10.4C930.4,412.3,955.9,426.7,968.6,426.7z"/>
					<path d="M977.3,424.9c2.4,0,4.3-0.5,5.6-1.5l-1-1.3c-3.1,2.5-12,0.9-24.5-4.4c-10.5-4.5-20.7-10.5-23.6-13.3
						c-4.5-4.2-5.5-9.7-5.5-9.8l-1.6,0.3c0,0.2,1.2,6.1,6,10.7C937.7,410.4,964.1,424.9,977.3,424.9z"/>
					<path d="M985.1,422.6c2.4,0,4.5-0.5,5.9-1.6l-1-1.3c-7.5,6.1-43.3-11.7-50.1-17.8c-4.7-4.3-5.8-9.9-5.8-10l-1.6,0.3
						c0,0.3,1.2,6.3,6.3,10.9c3.2,2.9,14.1,9.1,25.1,13.8C970.7,419.7,979.1,422.6,985.1,422.6z"/>
					<path d="M992,419.8c2.6,0,4.7-0.5,6.2-1.7l-1-1.3c-8.1,6.6-45.9-12.6-52.1-18c-5-4.3-6.1-10.2-6.1-10.2l-1.6,0.3
						c0,0.3,1.2,6.5,6.6,11.2c3.4,3,14.7,9.3,26,13.9C977.1,416.9,985.7,419.8,992,419.8z"/>
					<path d="M998,416.7c2.7,0,5-0.5,6.5-1.8l-1.1-1.3c-8.5,6.8-47.4-12.6-54.1-18.2C944.1,391,943,385,943,385l-1.7,0.3
						c0,0.3,1.2,6.7,6.9,11.4C953.3,400.9,983,416.7,998,416.7z"/>
					<path d="M1003,413.4c2.9,0,5.3-0.6,6.9-1.8l-1.1-1.3c-8.7,7-48.9-12.6-56.1-18.4c-5.5-4.4-6.6-10.6-6.6-10.6l-1.7,0.3
						c0,0.3,1.2,6.9,7.2,11.7C957.1,397.6,987.5,413.4,1003,413.4z"/>
					<path d="M1007.3,410.1c3.1,0,5.6-0.6,7.2-1.9l-1.1-1.4c-9,7.3-50.3-12.5-58.2-18.6c-5.7-4.4-6.8-10.8-6.8-10.8l-1.7,0.3
						c0,0.3,1.2,7.1,7.5,11.9C960.2,394.1,991.3,410.1,1007.3,410.1z"/>
					<path d="M1010.9,406.7c3.1,0,5.7-0.6,7.5-2l-1.1-1.4c-4,3.2-14.9,1.6-30.7-4.4c-13.4-5.1-25.9-11.8-29.5-14.4
						c-6-4.5-7.1-11-7.1-11l-1.8,0.3c0,0.3,1.3,7.3,7.8,12.2c3.6,2.7,16.3,9.5,29.9,14.6C994,403.7,1003.8,406.7,1010.9,406.7z"/>
					<path d="M1013.6,403.6c3.3,0,6-0.6,7.8-2.1l-1.1-1.4c-9.3,7.5-53.3-12.6-62.2-19c-6.2-4.5-7.4-11.2-7.4-11.3l-1.8,0.3
						c0.1,0.3,1.3,7.5,8.1,12.4c3.8,2.8,17,9.6,30.9,14.8C996.2,400.6,1006.2,403.6,1013.6,403.6z"/>
					<path d="M1015.5,400.8c3.4,0,6.2-0.6,8.1-2.1l-1.1-1.4c-10,8.1-56.4-13.7-64.2-19.2c-6.5-4.5-7.6-11.4-7.6-11.5l-1.8,0.3
						c0,0.3,1.3,7.7,8.4,12.7C963.3,383.9,997.8,400.8,1015.5,400.8z"/>
					<path d="M1016.7,398.5c3.6,0,6.5-0.7,8.4-2.2l-1.2-1.4c-10.3,8.3-57.8-13.7-66.2-19.4c-6.7-4.5-7.9-11.6-7.9-11.7L948,364
						c0,0.3,1.3,8,8.7,12.9C963.3,381.4,998.5,398.5,1016.7,398.5z"/>
					<path d="M1017.1,396.7c3.7,0,6.8-0.7,8.8-2.3l-1.2-1.5c-10.3,8.3-58.4-13.1-68.2-19.6c-7-4.6-8.1-11.8-8.1-11.9l-1.9,0.3
						c0.1,0.3,1.3,8.2,9,13.2C962.5,379.6,998.5,396.7,1017.1,396.7z"/>
				</g>
				<g>
					<path d="M806.3,407.1c0.2-0.2,4-4.3,5.5-12.4l0.9-4.7l-0.9-0.2l-0.9,4.7c-1.5,7.8-5.2,11.9-5.3,12L806.3,407.1z"/>
					<path d="M799.9,406c0.9-0.1,5.7-4.4,7.8-12c0.5-2,1.2-4.8,1.2-4.8L808,389c0,0-0.7,2.7-1.2,4.8c-1.9,7.1-6.3,11.1-7,11.3
						c0.1,0,0.3,0,0.5,0.2l-0.8,0.5L799.9,406z"/>
					<path d="M793.8,404.9c0,0,0.1,0,0.1,0c1.5-0.1,7.2-4.4,9.6-11.4c0.7-2,1.6-4.9,1.6-4.9l-1-0.3c0,0-0.9,2.8-1.6,4.9
						c-2.4,6.9-8,10.8-8.8,10.8l0,0c0,0,0.2,0,0.2,0.2l-0.9,0.5C793.2,404.6,793.4,404.9,793.8,404.9z"/>
					<path d="M787.7,403.6c0,0,0.1,0,0.1,0c2.1-0.1,8.6-4.4,11.4-10.9c0.9-2.1,1.9-5,1.9-5l-1-0.3c0,0-1,2.9-1.9,5
						c-2.9,6.9-9.7,10.5-10.7,10.3c0,0,0.1,0,0.1,0.1l-0.9,0.5C786.9,403.4,787.1,403.6,787.7,403.6z"/>
					<path d="M781.6,402.4C781.6,402.4,781.6,402.4,781.6,402.4c2.9-0.1,10.2-4.4,13.2-10.4c1.1-2.1,2.3-5.1,2.3-5.2l-1-0.4
						c0,0-1.2,3-2.2,5.1c-2.5,5.1-8.4,9-11.5,9.7c-0.8,0.2-1.1,0.1-1.1,0.1l-0.9,0.5C780.5,402.1,780.9,402.4,781.6,402.4z"/>
					<path d="M775.5,401.1c3.2,0,11.5-4.1,14.9-9.9c1.3-2.2,2.6-5.2,2.6-5.3l-1-0.4c0,0-1.3,3-2.6,5.2c-3.1,5.4-11,9.4-13.9,9.4h0
						c-0.5,0-0.6-0.1-0.7-0.2l-0.9,0.5C774.2,400.8,774.7,401.1,775.5,401.1L775.5,401.1z"/>
					<path d="M769.4,399.7c4.1,0,12.9-4.2,16.4-9.5c1.5-2.3,2.9-5.3,3-5.4l-1-0.5c0,0-1.5,3.1-2.9,5.3c-3.5,5.3-12.1,9-15.5,9
						c0,0-0.1,0-0.1,0c-0.6,0-0.9-0.2-1-0.3l-1,0.5c0.3,0.5,1,0.8,1.9,0.9C769.3,399.7,769.4,399.7,769.4,399.7z"/>
					<path d="M763.8,398.4c0.1,0,0.3,0,0.4,0c5.3-0.2,14.5-3.8,17.1-9.1c2.1-2,3.3-5.5,3.4-5.6l-1.1-0.4c0,0-1.2,3.4-3.1,5.2
						l-0.1,0.2c-2.3,4.9-11.3,8.4-16.2,8.6c-1.5,0.1-2.3-0.2-2.4-0.5l-1,0.6C761.1,398,762.2,398.4,763.8,398.4z"/>
					<path d="M757.9,396.9c0.1,0,0.2,0,0.3,0c5.7-0.1,15.7-3.5,18.5-8.7c2.4-2,3.7-5.6,3.7-5.7l-1.1-0.4c0,0-1.3,3.5-3.5,5.3
						l-0.1,0.2c-2.5,4.8-12.3,8.1-17.6,8.2c-1.9,0-2.8-0.4-3-0.7l-1,0.6C754.6,396.5,755.8,396.9,757.9,396.9z"/>
					<path d="M752,395.5c6,0,17-3.3,20-8.3c2.6-2,4-5.7,4.1-5.9l-1.1-0.4c0,0-1.4,3.6-3.8,5.4l-0.2,0.2c-2.6,4.6-13.2,7.8-19,7.8h0
						c-1.9,0-3.2-0.4-3.6-0.9l-1,0.6C747.9,394.9,749.5,395.5,752,395.5L752,395.5z"/>
					<path d="M746.1,394c6.5,0,17.9-3.1,21.1-8c2.9-2,4.4-5.8,4.4-6l-1.1-0.4c0,0-1.5,3.7-4.1,5.5l-0.2,0.2
						c-2.9,4.6-14.3,7.6-20.6,7.5c-2.2-0.1-3.6-0.5-4-1.2l-1.1,0.6c0.6,1.1,2.3,1.7,5.1,1.8C745.8,394,746,394,746.1,394z"/>
					<path d="M740.3,392.4c7.1,0,18.9-3,22.2-7.6c3.1-2,4.7-6,4.8-6.1l-1.2-0.5c0,0-1.6,3.8-4.4,5.6l-0.2,0.2
						c-2.9,4.2-14.9,7.5-22.2,7.2c-2.4-0.1-4-0.6-4.5-1.4l-1.1,0.6c0.7,1.2,2.5,1.9,5.5,2C739.7,392.4,740,392.4,740.3,392.4z"/>
					<path d="M734.5,390.8c7.5,0,19.7-2.8,23.2-7.3c3.4-2,5.1-6.1,5.2-6.3l-1.2-0.5c0,0-1.7,3.9-4.7,5.7l-0.2,0.2
						c-3.1,4.1-16,7.3-23.8,6.8c-2.6-0.2-4.3-0.8-4.8-1.6l-1.1,0.6c0.7,1.3,2.7,2.1,5.9,2.3C733.4,390.8,734,390.8,734.5,390.8z"/>
					<path d="M729,389.1c8.6,0,20.6-3,24-6.9c3.6-2,5.4-6.2,5.5-6.4l-1.2-0.5c0,0-1.8,4-5.1,5.8l-0.2,0.2
						c-3.3,4.1-17.5,7.1-25.5,6.5c-2.8-0.2-4.6-0.9-5.1-1.8l-1.1,0.6c0.8,1.4,2.9,2.2,6.2,2.5C727.3,389.1,728.1,389.1,729,389.1z"
						/>
					<path d="M723.4,387.4c8.9,0,21.3-2.8,24.9-6.6c3.9-2,5.8-6.3,5.9-6.5l-1.2-0.5c0,0-1.9,4.1-5.4,5.9l-0.2,0.2
						c-3.6,4.1-19,7-27.3,6.1c-2.9-0.3-4.8-1-5.4-2l-1.2,0.7c0.8,1.4,3,2.4,6.4,2.7C721,387.4,722.1,387.4,723.4,387.4z"/>
					<path d="M717.8,385.7c9.3,0,22-2.6,25.7-6.3c4.1-2,6.2-6.5,6.2-6.7l-1.2-0.6c0,0-2,4.3-5.7,6l-0.2,0.1
						c-3.6,3.8-19.7,6.9-29.2,5.7c-3-0.4-4.9-1.2-5.6-2.2l-1.2,0.7c0.9,1.5,3.1,2.5,6.6,2.9C714.7,385.6,716.2,385.7,717.8,385.7z"
						/>
					<path d="M711.1,383.7c9.8,0,23.4-2.8,27.7-5.7c4-2.7,6.5-6.5,6.6-6.7l-1.2-0.8c0,0-2.5,3.8-6.2,6.3c-4.8,3.2-24.4,7-33.3,4.9
						c-1.8-0.4-3.1-1.1-3.5-1.9l-1.2,0.7c0.7,1.2,2.2,2.1,4.4,2.6C706.2,383.5,708.5,383.7,711.1,383.7z"/>
					<path d="M705.8,381.9c10.4,0,24.1-2.8,28.3-5.5c4.2-2.7,6.8-6.7,6.9-6.8l-1.2-0.8c0,0-2.5,3.9-6.5,6.4
						c-5.1,3.2-25.9,6.8-35.2,4.5c-1.9-0.5-3.2-1.2-3.7-2.1l-1.2,0.7c0.7,1.2,2.3,2.2,4.6,2.8C700,381.7,702.8,381.9,705.8,381.9z"
						/>
					<path d="M700.4,380c10.8,0,24.8-2.6,29.1-5.1c4.5-2.7,7.2-6.8,7.3-6.9l-1.2-0.8c0,0-2.6,4-6.8,6.5c-5.5,3.3-27.5,6.6-37.1,4.1
						c-2-0.5-3.3-1.3-3.8-2.2l-1.3,0.7c0.7,1.3,2.3,2.3,4.7,2.9C693.7,379.7,696.9,380,700.4,380z"/>
					<path d="M695.6,378c11.3,0,25.1-2.5,29.3-4.9c4.8-2.7,7.6-6.9,7.7-7.1l-1.2-0.8c0,0-2.7,4.1-7.1,6.6
						c-7.1,3.9-39.3,7.7-42.9,1.3l-1.3,0.7C681.7,376.9,688.1,378,695.6,378z"/>
					<path d="M690.4,376c2,0,4-0.1,5.6-0.2c9.9-0.6,20.6-2.5,24.3-4.4c5.1-2.6,7.9-7,8-7.2l-1.3-0.8c0,0-2.8,4.2-7.5,6.7
						c-7.4,3.9-41.2,7.2-45,0.7l-1.3,0.7C675.4,375.2,683.5,376,690.4,376z"/>
					<path d="M684.3,373.5c12.2,0,26.5-2.4,30.5-4.3c5.4-2.6,8.3-7.1,8.4-7.3l-1.3-0.8c0,0-2.8,4.4-7.8,6.8
						c-7.3,3.6-42.9,7.3-47,0.1l-1.3,0.8C667.8,372.3,675.6,373.5,684.3,373.5z"/>
					<path d="M676.6,369.7c12.2,0,26-2.2,30.4-4.2c5.6-2.6,8.6-7.3,8.8-7.5l-1.3-0.8c0,0-2.9,4.5-8.1,6.9
						c-3.3,1.5-14.1,3.5-25.7,3.9c-12.8,0.5-21.5-1.2-23.3-4.3l-1.3,0.8C658.2,368.4,666.9,369.7,676.6,369.7z"/>
					<path d="M669.1,365.5c1.2,0,2.5,0,3.6-0.1c10.9-0.3,23.2-2,27.3-3.8c5.9-2.5,9-7.4,9.1-7.6l-1.3-0.8c0,0-3,4.6-8.4,7
						c-8.2,3.5-46.7,6.6-51-1L647,360C649.5,364.4,659.7,365.5,669.1,365.5z"/>
					<path d="M662.9,361.2c13,0,27.1-2,31.1-3.6c6.2-2.5,9.4-7.5,9.5-7.7l-1.4-0.9c0,0-3,4.8-8.7,7.1c-3.7,1.5-15.7,3.3-27.8,3.5
						c-14.1,0.3-23.3-1.6-25.3-5.1l-1.4,0.8C641.5,359.7,651.8,361.2,662.9,361.2z"/>
					<path d="M657.7,356.8c13.1,0,27-1.9,31.1-3.5c6.5-2.5,9.7-7.6,9.9-7.9l-1.4-0.9c0,0-3.1,4.9-9.1,7.2
						c-3.9,1.5-16.4,3.1-28.8,3.3c-14.7,0.2-24.2-1.8-26.3-5.5l-1.4,0.8C634.5,355.3,645.8,356.8,657.7,356.8z"/>
					<path d="M653.7,352.3c13.1,0,26.7-1.7,30.8-3.2c6.8-2.4,10.1-7.8,10.2-8l-1.4-0.9c0,0-3.2,5.1-9.4,7.3
						c-9,3.2-52.2,5.9-57.1-2.8l-1.4,0.8C628.3,350.7,640.8,352.3,653.7,352.3z"/>
					<path d="M650.4,347.9c13.1,0,26.4-1.6,30.7-3c7-2.4,10.5-7.9,10.6-8.1l-1.4-0.9c0,0.1-3.3,5.2-9.7,7.4
						c-8.1,2.7-53.8,6.1-59.2-3.4l-1.5,0.8C623.1,346.2,636.7,347.9,650.4,347.9z"/>
					<path d="M647.2,343.7c13.8,0,27.5-1.6,31.3-2.8c7.3-2.3,10.8-8,11-8.2l-1.5-0.9c0,0.1-3.3,5.4-10,7.5
						c-8.7,2.7-55.6,5.9-61.2-3.9l-1.5,0.9C618.6,341.9,632.9,343.7,647.2,343.7z"/>
					<path d="M645.6,339.7c13.7,0,27.2-1.5,31.1-2.7c7.6-2.2,11.2-8.1,11.3-8.4l-1.5-0.9c0,0.1-3.4,5.6-10.3,7.6
						c-9.3,2.7-57.4,5.6-63.2-4.5l-1.5,0.9C615,337.9,630.5,339.7,645.6,339.7z"/>
					<path d="M645.4,335.9c13.5,0,26.5-1.3,30.4-2.4c7.9-2.2,11.6-8.2,11.7-8.5l-1.5-0.9c0,0.1-3.5,5.7-10.7,7.7
						c-9.6,2.6-59.4,5.1-65.2-5.1l-1.5,0.9C612.2,334,629.2,335.9,645.4,335.9z"/>
					<path d="M645.5,332.6c13.4,0,26-1.2,30-2.3c8.1-2.1,11.9-8.4,12.1-8.6l-1.6-0.9c0,0.1-3.6,5.9-11,7.8
						c-10.3,2.6-61.3,4.9-67.3-5.7l-1.6,0.9C610.1,330.6,628.5,332.6,645.5,332.6z"/>
					<path d="M646.5,329.8c13.2,0,25.4-1.1,29.6-2.1c8.4-2,12.3-8.5,12.4-8.7L687,318c0,0.1-3.7,6.1-11.3,7.9
						c-11,2.6-63.1,4.6-69.3-6.3l-1.6,0.9C608.9,327.7,628.6,329.8,646.5,329.8z"/>
					<path d="M647.6,327.4c13.8,0,26.4-1.1,29.9-1.9c8.7-2,12.6-8.6,12.8-8.9l-1.6-0.9c0,0.1-3.7,6.2-11.6,8
						c-9.6,2.2-64.7,4.8-71.3-6.8l-1.6,0.9C608.5,325.4,629.1,327.4,647.6,327.4z"/>
					<path d="M650.4,325.8c13.3,0,25.2-1,29.1-1.8c9-1.9,13-8.7,13.2-9l-1.6-0.9c0,0.1-3.8,6.4-11.9,8.1
						c-10.3,2.1-66.6,4.5-73.4-7.4l-1.6,0.9C608.7,323.7,631,325.8,650.4,325.8z"/>
				</g>
				<g>
					
						<ellipse transform="matrix(0.1862 -0.9825 0.9825 0.1862 313.6437 1035.8682)" class="st2" cx="782.1" cy="328.6" rx="13.6" ry="19.2"/>
					<path class="st2" d="M693.3,309.3c-6.7-5.6-16.9-8.7-21.8-6.5s-5.6,14.7-1.2,20.9c4.6,6.3,18.8,12.4,27.8,6.3
						C706.1,324.7,698.7,313.8,693.3,309.3z"/>
					<path class="st2" d="M629.3,312.5c-5.8-6.8-11.2-7.6-14.2-7.8s-12,10.3-3.8,19.9c10.3,12.2,23.7,2.6,24.3,1.4
						C636.2,324.7,633.5,317.3,629.3,312.5z"/>
					<path class="st2" d="M602.2,327.3c-5.6-5-8.4-7.4-12.3-8.3c-3.9-0.9-5.9,9.5,2.9,16.9c6.3,5.4,17.4,4.3,17.9,2.5
						C611.2,336.7,607.8,332.3,602.2,327.3z"/>
				</g>
				<g>
					
						<ellipse transform="matrix(0.1862 -0.9825 0.9825 0.1862 367.3807 1133.1881)" class="st3" cx="867.8" cy="344.8" rx="13.6" ry="18.2"/>
					<path class="st3" d="M953.1,358.5c7.9-2.8,18-2.1,21.6,1.7c3.6,3.8-0.3,15.8-6.4,19.9c-6.3,4.2-21,4.9-26.8-4
						C936.3,368.3,946.8,360.7,953.1,358.5z"/>
					<path class="st3" d="M1008.5,384.2c7.6-4.3,12.6-3.1,15.3-2.2c2.7,0.9,6.9,13.8-3.8,19.9c-13.4,7.7-21.8-6-21.9-7.4
						C998.1,393.2,1003.1,387.3,1008.5,384.2z"/>
					<path class="st3" d="M1027.1,407.7c6.7-2.6,10-3.9,13.8-3.4c3.8,0.5,1.8,10.9-8.6,14.7c-7.5,2.7-16.9-2.2-16.7-4
						C1015.8,413.2,1020.4,410.4,1027.1,407.7z"/>
				</g>
				<g>
					
						<ellipse transform="matrix(0.1862 -0.9825 0.9825 0.1862 313.6437 1035.8682)" class="st3" cx="782.1" cy="328.6" rx="13.6" ry="19.2"/>
					<path class="st3" d="M693.3,309.3c-6.7-5.6-16.9-8.7-21.8-6.5s-5.6,14.7-1.2,20.9c4.6,6.3,18.8,12.4,27.8,6.3
						C706.1,324.7,698.7,313.8,693.3,309.3z"/>
					<path class="st3" d="M629.3,312.5c-5.8-6.8-11.2-7.6-14.2-7.8s-12,10.3-3.8,19.9c10.3,12.2,23.7,2.6,24.3,1.4
						C636.2,324.7,633.5,317.3,629.3,312.5z"/>
					<path class="st3" d="M602.2,327.3c-5.6-5-8.4-7.4-12.3-8.3c-3.9-0.9-5.9,9.5,2.9,16.9c6.3,5.4,17.4,4.3,17.9,2.5
						C611.2,336.7,607.8,332.3,602.2,327.3z"/>
				</g>
				<g>
					<polygon class="st2" points="745.1,265 721.6,261.6 714.4,265.3 737.8,268.7 					"/>
					<polygon class="st2" points="778.1,274.3 751.9,269.4 758.2,265.2 783.8,270.1 					"/>
					<path class="st2" d="M824.9,276.4c-0.1,0.5-2,6.4-2,6.4l-28.4-5.4l2-6.4L824.9,276.4z"/>
					<polygon class="st2" points="912.7,299.6 935.5,305.8 940.8,312.2 918,305.9 					"/>
					<polygon class="st2" points="946.6,313.3 969.4,319.5 974.7,325.8 951.9,319.5 					"/>
					<polygon class="st2" points="879,295.1 904.8,300.9 900.5,294.6 875.2,288.9 					"/>
					<path class="st2" d="M835.1,278.3c-0.1,0.5-0.5,6.8-0.5,6.8l28.1,6.4l0.5-6.8L835.1,278.3z"/>
				</g>
				<g>
					<polygon points="745.3,263.7 721.8,260.3 714.5,264.4 738,267.6 					"/>
					<polygon points="778.3,273.2 752.1,268.2 758.5,263.8 784.1,268.6 					"/>
					<path d="M825.2,274.8c-0.1,0.6-2.1,6.8-2.1,6.8l-28.4-5.4l2.1-6.8L825.2,274.8z"/>
					<polygon points="912.9,298.5 935.7,304.8 940.9,311.4 918.2,305 					"/>
					<polygon points="946.7,312.5 969.5,318.9 974.7,325.5 951.9,319.1 					"/>
					<polygon points="879.2,294 905,299.9 900.7,293.3 875.5,287.5 					"/>
					<path d="M835.4,276.8c-0.1,0.6-0.6,7.1-0.6,7.1l28.1,6.4l0.6-7.1L835.4,276.8z"/>
				</g>
				<polygon class="st3" points="730,410.4 769.9,325.5 771.2,325.8 772.5,326.1 				"/>
				<polygon class="st2" points="746,386.8 772.5,326.1 773.8,326.4 775.1,326.7 				"/>
				<polygon class="st2" points="748.9,392.7 775.1,326.7 776.3,327 777.6,327.3 				"/>
				<polygon class="st2" points="752.7,393.5 777.6,327.3 778.9,327.6 780.2,328 				"/>
				<polygon class="st2" points="764.3,376.1 780.2,328 781.5,328.3 782.8,328.6 				"/>
				<polygon class="st2" points="768.3,377.2 782.8,328.6 784.1,328.9 785.4,329.2 				"/>
				<polygon class="st2" points="768.5,391.9 785.4,329.2 786.7,329.5 788,329.8 				"/>
				<polygon class="st3" points="766.6,415.1 788,329.8 789.3,330.1 790.6,330.4 				"/>
				<polygon class="st3" points="779.3,360.4 786.7,329.5 788,329.8 789.3,330.1 				"/>
				<polygon class="st3" points="773.1,368.6 784.1,328.9 785.4,329.2 786.7,329.5 				"/>
				<polygon class="st3" points="754.4,396.8 778.9,327.6 780.2,328 781.5,328.3 				"/>
				<polygon class="st3" points="761.7,394.2 781.5,328.3 782.8,328.6 784.1,328.9 				"/>
				<polygon class="st3" points="760.9,368.5 776.3,327 777.6,327.3 778.9,327.6 				"/>
				<polygon class="st3" points="759.9,361.4 773.8,326.4 775.1,326.7 776.3,327 				"/>
				<polygon class="st3" points="757.6,358 771.2,325.8 772.5,326.1 773.8,326.4 				"/>
				<polygon class="st2" points="856.8,406.1 861,348.7 862.3,348.7 863.5,348.6 				"/>
				<polygon class="st2" points="861.4,410.3 863.5,348.6 864.8,348.6 866.1,348.5 				"/>
				<polygon class="st2" points="865.2,410.1 866.1,348.5 867.4,348.5 868.7,348.4 				"/>
				<polygon class="st2" points="870.1,392.7 868.7,348.4 869.9,348.4 871.2,348.3 				"/>
				<polygon class="st2" points="874,392.6 871.2,348.3 872.5,348.3 873.8,348.2 				"/>
				<polygon class="st3" points="879.2,405 873.8,348.2 875.1,348.2 876.4,348.1 				"/>
				<polygon class="st3" points="885.1,424.9 876.4,348.1 877.7,348.1 879,348 				"/>
				<polygon class="st3" points="878.6,375.9 875.1,348.2 876.4,348.1 877.7,348.1 				"/>
				<polygon class="st2" points="948.5,420.7 952.3,368.3 953.5,368.3 954.6,368.3 				"/>
				<polygon class="st2" points="952.7,424.6 954.6,368.3 955.8,368.2 957,368.2 				"/>
				<polygon class="st2" points="956.1,424.3 957,368.2 958.1,368.1 959.3,368.1 				"/>
				<polygon class="st2" points="960.6,408.5 959.3,368.1 960.5,368 961.7,368 				"/>
				<polygon class="st2" points="964.2,408.4 961.7,368 962.8,367.9 964,367.9 				"/>
				<polygon class="st2" points="968.9,419.7 964,367.9 965.2,367.8 966.4,367.8 				"/>
				<g>
					<polygon class="st3" points="942.2,442.3 950,368.4 951.1,368.4 952.3,368.3 					"/>
					<polygon class="st3" points="974.3,437.9 966.4,367.8 967.5,367.7 968.7,367.7 					"/>
					<polygon class="st3" points="968.4,393.1 965.2,367.8 966.4,367.8 967.5,367.7 					"/>
					<polygon class="st3" points="965.6,400.8 962.8,367.9 964,367.9 965.2,367.8 					"/>
					<polygon class="st3" points="958.5,426.6 958.1,368.1 959.3,368.1 960.5,368 					"/>
					<polygon class="st3" points="963.9,422.9 960.5,368 961.7,368 962.8,367.9 					"/>
					<polygon class="st3" points="955.5,403.4 955.8,368.2 957,368.2 958.1,368.1 					"/>
					<polygon class="st3" points="952.5,398.2 953.5,368.3 954.6,368.3 955.8,368.2 					"/>
					<polygon class="st3" points="949.4,396 951.1,368.4 952.3,368.3 953.5,368.3 					"/>
				</g>
				<polygon class="st3" points="1021.3,446.8 1025.5,407.3 1026.1,407.3 1026.7,407.2 				"/>
				<polygon class="st2" points="1024.7,435.2 1026.7,407.2 1027.3,407.2 1028,407.2 				"/>
				<polygon class="st2" points="1026.9,437.3 1028,407.2 1028.6,407.2 1029.2,407.1 				"/>
				<polygon class="st2" points="1028.8,437.2 1029.2,407.1 1029.8,407.1 1030.5,407.1 				"/>
				<polygon class="st2" points="1031.2,428.7 1030.5,407.1 1031.1,407.1 1031.7,407 				"/>
				<polygon class="st2" points="1033.1,428.6 1031.7,407 1032.3,407 1033,407 				"/>
				<polygon class="st2" points="1035.6,434.7 1033,407 1033.6,407 1034.2,406.9 				"/>
				<polygon class="st3" points="1038.5,444.4 1034.2,406.9 1034.9,406.9 1035.5,406.9 				"/>
				<polygon class="st3" points="1035.3,420.5 1033.6,407 1034.2,406.9 1034.9,406.9 				"/>
				<polygon class="st3" points="1033.8,424.6 1032.3,407 1033,407 1033.6,407 				"/>
				<polygon class="st3" points="1030.1,438.3 1029.8,407.1 1030.5,407.1 1031.1,407.1 				"/>
				<polygon class="st3" points="1032.9,436.4 1031.1,407.1 1031.7,407 1032.3,407 				"/>
				<polygon class="st3" points="1028.4,426 1028.6,407.2 1029.2,407.1 1029.8,407.1 				"/>
				<polygon class="st3" points="1026.8,423.2 1027.3,407.2 1028,407.2 1028.6,407.2 				"/>
				<polygon class="st3" points="1025.2,422 1026.1,407.3 1026.7,407.2 1027.3,407.2 				"/>
				<polygon class="st3" points="642.6,377.5 674.7,309.2 675.8,309.4 676.8,309.7 				"/>
				<polygon class="st2" points="655.4,358.5 676.8,309.7 677.8,309.9 678.8,310.2 				"/>
				<polygon class="st2" points="657.8,363.2 678.8,310.2 679.9,310.4 680.9,310.7 				"/>
				<polygon class="st2" points="660.9,363.9 680.9,310.7 681.9,310.9 683,311.2 				"/>
				<polygon class="st2" points="670.2,349.9 683,311.2 684,311.4 685.1,311.6 				"/>
				<polygon class="st2" points="673.4,350.7 685.1,311.6 686.1,311.9 687.1,312.1 				"/>
				<polygon class="st2" points="673.6,362.6 687.1,312.1 688.2,312.4 689.2,312.6 				"/>
				<polygon class="st3" points="672,381.3 689.2,312.6 690.3,312.9 691.3,313.1 				"/>
				<polygon class="st3" points="682.3,337.2 688.2,312.4 689.2,312.6 690.3,312.9 				"/>
				<polygon class="st3" points="677.2,343.8 686.1,311.9 687.1,312.1 688.2,312.4 				"/>
				<polygon class="st3" points="662.2,366.6 681.9,310.9 683,311.2 684,311.4 				"/>
				<polygon class="st3" points="668.1,364.5 684,311.4 685.1,311.6 686.1,311.9 				"/>
				<polygon class="st3" points="667.5,343.8 679.9,310.4 680.9,310.7 681.9,310.9 				"/>
				<polygon class="st3" points="666.6,338.1 677.8,309.9 678.8,310.2 679.9,310.4 				"/>
				<polygon class="st3" points="664.8,335.3 675.8,309.4 676.8,309.7 677.8,309.9 				"/>
				<polygon class="st3" points="579.5,381.9 611.7,313.6 612.7,313.8 613.8,314.1 				"/>
				<polygon class="st2" points="592.4,363 613.8,314.1 614.8,314.3 615.8,314.6 				"/>
				<polygon class="st2" points="594.8,367.7 615.8,314.6 616.8,314.8 617.9,315.1 				"/>
				<polygon class="st2" points="597.8,368.3 617.9,315.1 618.9,315.3 619.9,315.6 				"/>
				<polygon class="st2" points="607.2,354.3 619.9,315.6 621,315.8 622,316.1 				"/>
				<polygon class="st3" points="610.3,355.2 622,316.1 623.1,316.3 624.1,316.6 				"/>
				<polygon class="st2" points="610.5,367.1 624.1,316.6 625.1,316.8 626.2,317.1 				"/>
				<polygon class="st3" points="609,385.7 626.2,317.1 627.2,317.3 628.3,317.6 				"/>
				<polygon class="st3" points="619.3,341.7 625.1,316.8 626.2,317.1 627.2,317.3 				"/>
				<polygon class="st3" points="614.2,348.3 623.1,316.3 624.1,316.6 625.1,316.8 				"/>
				<polygon class="st3" points="599.2,371 618.9,315.3 619.9,315.6 621,315.8 				"/>
				<polygon class="st3" points="605.1,368.9 621,315.8 622,316.1 623.1,316.3 				"/>
				<polygon class="st3" points="604.4,348.2 616.8,314.8 617.9,315.1 618.9,315.3 				"/>
				<polygon class="st3" points="603.6,342.5 614.8,314.3 615.8,314.6 616.8,314.8 				"/>
				<polygon class="st3" points="601.7,339.7 612.7,313.8 613.8,314.1 614.8,314.3 				"/>
				<polygon class="st3" points="567.8,372.1 588.5,328.2 589.1,328.4 589.8,328.6 				"/>
				<polygon class="st2" points="576.1,359.9 589.8,328.6 590.5,328.7 591.1,328.9 				"/>
				<polygon class="st2" points="577.6,362.9 591.1,328.9 591.8,329 592.4,329.2 				"/>
				<polygon class="st2" points="579.6,363.4 592.4,329.2 593.1,329.3 593.8,329.5 				"/>
				<polygon class="st2" points="585.6,354.4 593.8,329.5 594.4,329.7 595.1,329.8 				"/>
				<polygon class="st2" points="587.6,354.9 595.1,329.8 595.8,330 596.4,330.1 				"/>
				<polygon class="st2" points="587.7,362.6 596.4,330.1 597.1,330.3 597.8,330.5 				"/>
				<polygon class="st3" points="586.7,374.5 597.8,330.5 598.5,330.6 599.1,330.8 				"/>
				<polygon class="st3" points="593.3,346.3 597.1,330.3 597.8,330.5 598.5,330.6 				"/>
				<polygon class="st3" points="590.1,350.5 595.8,330 596.4,330.1 597.1,330.3 				"/>
				<polygon class="st3" points="580.4,365.1 593.1,329.3 593.8,329.5 594.4,329.7 				"/>
				<polygon class="st3" points="584.2,363.7 594.4,329.7 595.1,329.8 595.8,330 				"/>
				<polygon class="st3" points="583.8,350.5 591.8,329 592.4,329.2 593.1,329.3 				"/>
				<polygon class="st3" points="583.3,346.8 590.5,328.7 591.1,328.9 591.8,329 				"/>
				<polygon class="st3" points="582.1,345 589.1,328.4 589.8,328.6 590.5,328.7 				"/>
				<polygon class="st3" points="1007.5,427 1011.6,387.6 1012.2,387.5 1012.8,387.5 				"/>
				<polygon class="st2" points="1010.8,415.5 1012.8,387.5 1013.5,387.5 1014.1,387.5 				"/>
				<polygon class="st2" points="1013.1,417.5 1014.1,387.5 1014.7,387.4 1015.3,387.4 				"/>
				<polygon class="st2" points="1014.9,417.4 1015.3,387.4 1016,387.4 1016.6,387.4 				"/>
				<polygon class="st2" points="1017.3,409 1016.6,387.4 1017.2,387.3 1017.8,387.3 				"/>
				<polygon class="st2" points="1019.2,408.9 1017.8,387.3 1018.5,387.3 1019.1,387.3 				"/>
				<polygon class="st2" points="1021.7,414.9 1019.1,387.3 1019.7,387.2 1020.3,387.2 				"/>
				<polygon class="st3" points="1024.6,424.6 1020.3,387.2 1021,387.2 1021.6,387.2 				"/>
				<polygon class="st3" points="1021.4,400.7 1019.7,387.2 1020.3,387.2 1021,387.2 				"/>
				<polygon class="st3" points="1020,404.8 1018.5,387.3 1019.1,387.3 1019.7,387.2 				"/>
				<polygon class="st3" points="1016.2,418.6 1016,387.4 1016.6,387.4 1017.2,387.3 				"/>
				<polygon class="st3" points="1019,416.7 1017.2,387.3 1017.8,387.3 1018.5,387.3 				"/>
				<polygon class="st3" points="1014.5,406.2 1014.7,387.4 1015.3,387.4 1016,387.4 				"/>
				<polygon class="st3" points="1012.9,403.5 1013.5,387.5 1014.1,387.5 1014.7,387.4 				"/>
				<polygon class="st3" points="1011.3,402.3 1012.2,387.5 1012.8,387.5 1013.5,387.5 				"/>
				<g>
					<polygon class="st3" points="850.9,414.8 858.6,340.9 859.8,340.9 860.9,340.8 					"/>
					<polygon class="st3" points="883,410.4 875,340.3 876.2,340.2 877.4,340.2 					"/>
					<polygon class="st3" points="877,365.6 873.8,340.3 875,340.3 876.2,340.2 					"/>
					<polygon class="st3" points="874.3,373.3 871.5,340.4 872.6,340.4 873.8,340.3 					"/>
					<polygon class="st3" points="867.2,399.1 866.8,340.6 867.9,340.6 869.1,340.5 					"/>
					<polygon class="st3" points="872.5,395.4 869.1,340.5 870.3,340.5 871.5,340.4 					"/>
					<polygon class="st3" points="864.1,375.9 864.4,340.7 865.6,340.7 866.8,340.6 					"/>
					<polygon class="st3" points="861.1,370.7 862.1,340.8 863.3,340.7 864.4,340.7 					"/>
					<polygon class="st3" points="858.1,368.5 859.8,340.9 860.9,340.8 862.1,340.8 					"/>
				</g>
			</g>
			<g>
				<line class="st5" x1="960.8" y1="1037.7" x2="955.3" y2="951.2"/>
				<line class="st5" x1="930" y1="1023.9" x2="925.8" y2="848.8"/>
				<path class="st5" d="M904.3,1037.7c-0.4-0.3,0-82,0-82"/>
				<path class="st5" d="M892,889.8c0.4-1.7,0-61.1,0-61.1"/>
				<line class="st5" x1="822.4" y1="1056.4" x2="827" y2="990.5"/>
				<line class="st5" x1="827" y1="957.5" x2="829.1" y2="889.8"/>
				<line class="st5" x1="778.9" y1="1097.6" x2="795.8" y2="918.6"/>
				<path class="st5" d="M753.2,1125.3c0.4-1.7,7.6-81.1,7.6-81.1"/>
			</g>
			<g>
				<g>
					<path class="st6" d="M910,1038.9c0,0,15.4,21,19.5,30.9c4.1,9.9-144.4,63-144.4,63s-7.7,7.4-12.6-8.2c-4.9-15.6-3.5-26-3.5-26
						L910,1038.9z"/>
					<path class="st7" d="M740.7,1135.4c2,5.8,7.8,10.6,42,1.6c34.2-9.1,144-47.2,154.3-53.5c10.2-6.3,21.7-10.2,25.1-22.1
						c-11.1,8.1-19.3-1.1-19.3-1.1l-4.7-6.1c0,0,12.6,14.8-40.5,33.8c-53.1,19-115.9,49.6-122.6,40.8c-6.7-8.7-8.2-24.8-8.2-24.8
						S736.5,1123.3,740.7,1135.4z"/>
					<path class="st8" d="M833.8,1023.5c-23.5,12.1-66.3,38.8-65.9,54.2c0.4,15.4-2.1,26.9,15.1,27.2c16.4,0.3,38.1-4.4,65.1-17.5
						c27-13.2,52.8-26.3,59-32.9c6.3-6.6,7.4-19.2-12.3-28.8S859.1,1010.6,833.8,1023.5z"/>
					<path class="st9" d="M786.9,1053.3c15.7-9.4,68.7-22,92-18.1c23.4,3.9,35.4,6.9,31.8,13.1c-3.6,6.2-15.6,18-51.9,33.8
						s-59.7,23.8-75.9,22.8c-16.1-1-14.9-7.6-15-17.4C767.9,1077.7,776.2,1059.6,786.9,1053.3z"/>
					<path class="st10" d="M763.8,1111.9c0,0-15.5,11.3-16.9,20c-1.4,8.7,5,10.9,13.4,9.6c8.4-1.3,96.1-27.8,120.7-36.6
						c24.5-8.8,63.9-21.8,71.3-30c7.5-8.2,9.9-13.6,9.9-13.6s-10.5,10.2-24-7.2c-1.6,12.8-11.4,22.1-50.3,37.4
						c-38.9,15.3-82.8,33-92,35.4c-9.2,2.5-20.1,6.3-23.4-2.3C769.2,1115.9,763.8,1111.9,763.8,1111.9z"/>
					<path class="st11" d="M953.3,1040.9c0,0,0.4,8.3-2.3,12.3c-1.7,2.5-2.7,7-4.2,8.6c-1,0.9-2.2,0.8-3.9-1.5
						c-4.7-6.1-6.1-8.7-4.5-11c1.6-2.4,10.2-9.3,10.2-9.3s-6.1-1.3-7.8-1.7s-3.3-5.9-1.6-3c1.6,3,6.7-0.3,6.7-0.3s-7.8-0.7-9.1-4.1
						c-1.3-3.4-1.2-19.7,1.2-22.1c2.4-2.4,15.2-13.8,17.6-16.1s7.6,0.2,7.6,0.2s6.9-2.6,9.4-0.3c2.5,2.3,6.2-0.1,7.6,2.4
						s6.1,5.8,6.7,7.5c0.6,1.8,9.1-0.9,2.5,12.7c7.8-1,11.3-2.9,7.8,4.4c-3.4,7.3-13.6,18.8-20,21.6c-6.4,2.7-11.8,2-12.8,5.4
						s5.2,10.9-2.2,14.8c-7.4,3.9-12.8,3.1-12.8,3.1L953.3,1040.9z"/>
					<path class="st11" d="M921.3,1055.1c0,0,13.4-6.4,17.1-5.9"/>
					
						<ellipse transform="matrix(0.9258 -0.3779 0.3779 0.9258 -338.7707 389.6629)" class="st12" cx="823.5" cy="1058" rx="36.5" ry="14"/>
				</g>
			</g>
			<g>
				<line class="st13" x1="697.4" y1="1407.8" x2="697.4" y2="205.4"/>
				<line class="st13" x1="327.5" y1="806.6" x2="1067.3" y2="806.6"/>
			</g>
		</g>
		<g>
			<path class="st2" d="M-114.4,1855.1c6.2,0,11.3,5.9,13,21.1s11.9,43.8,20.5,41.6c8.6-2.2,14-9.8,7.6-31.4
				c-6.5-21.6-10.8-44.8-10.3-53.5c0.5-8.6-9.7-27.6-11.9-37.3s-3.8-19.5-14.6-31.9s-14-21.1-15.7-44.3
				c-1.6-23.2-52.9-15.1-53.5-12.4c-0.5,2.7-4.3,33.5-3.8,44.9c0.5,11.3,5.4,85.9,3.8,95.1c-1.6,9.2,0.5,13,8.6,32.4
				s10.8,36.8,11.9,43.2c1.1,6.5,5.4,11.3,12.4,16.2c7,4.9,15.2,16.8,19.5,18.4c4.3,1.6,36.1,19.5,42.6,17.8s9.2-18.4,0-27.6
				s-16.2-8.1-16.2-8.1s-2.7-18.4-13.5-21.6c-1.1-10.3-1.1-18.4-7.6-23.8C-127.9,1888.6-123.6,1855.1-114.4,1855.1z"/>
			<path class="st2" d="M-195.9,1749.2c0,0,80.5,0.5,94-4.9c9.2-91.3,28.4-207,31.5-220c3.1-13-2.9-30.3-5-34
				c-2.2-3.8,6.5-21.6,8.6-29.7s11.9-40,10.8-49.7c-1.1-9.7,4.3-41.6,4.9-49.2c0.5-7.6,3.2-374.5,0-379.4
				c-3.2-4.9-23.6,0.4-54.5,12.4c-50.2,19.5-54.8,28.2-63.7,128.1c-8.1,90.3-32.4,301.6-31.9,314.5s-3.2,44.9-2.7,50.8
				c0.5,5.9,1,183.8-0.1,194c-1,10.3,7.1,21.3,7.1,21.3L-195.9,1749.2z"/>
			<path class="st2" d="M508.2,1753.4c-6.2,0-10.5,5.9-10,21.1s-5.8,43.7-14.7,41.6c-8.9-2.2-15.4-9.8-12-31.4
				c3.5-21.5,4.5-44.8,2.8-53.4c-1.8-8.6,5.9-27.5,6.7-37.2c0.8-9.7,1.1-19.4,10.1-31.8c9.1-12.4,11.1-21.1,9.5-44.3
				c-1.6-23.2,50.8-15.1,51.7-12.4c0.9,2.7,9,33.5,10.1,44.8c1,11.3,6.6,85.8,9.5,95c2.9,9.2,1.3,13-4.1,32.4
				c-5.4,19.4-5.7,36.7-5.8,43.2c-0.2,6.5-3.8,11.3-10.2,16.2s-12.9,16.7-16.9,18.4s-33.4,19.4-40.1,17.8
				c-6.7-1.6-11.8-18.4-3.9-27.5s15.1-8.1,15.1-8.1s0.1-18.4,10.5-21.6c-0.4-10.3-1.5-18.4,4.2-23.8
				C526.4,1786.9,517.4,1753.4,508.2,1753.4z"/>
			<path class="st2" d="M574.9,1647.6c0,0-80.4,0.5-94.6-4.9c-22-91.2-57.4-206.7-62.3-219.7c-4.9-13-1.4-30.2,0.3-34
				c1.6-3.8-9.5-21.6-12.8-29.7s-17.5-39.9-17.8-49.7s-10.1-41.6-11.7-49.1s-75.9-362.7-53.1-378.9c4.5-3.2,23.6,0.4,56.3,12.4
				c52.9,19.4,58.7,28.1,81.6,127.9c20.7,90.1,74.6,301.2,75.9,314.2c1.3,13,9.5,44.8,9.8,50.7c0.3,5.9,24.7,183.5,27.2,193.8
				s-4.1,21.3-4.1,21.3L574.9,1647.6z"/>
			<path class="st2" d="M-49.6,1847.7c0,0,139.1-53.6,216.3-68.3c84.1-16,225,2.2,266.5-14.8c41.5-17-22.6-236.1-41.5-277.6
				s-22.5-360.7-33.1-404.3c-9.1-37.3,15.7-181.3-26.8-199.2c-17.7-7.5-134.4-10.3-166.5-23.5c-32.1-13.2-94.4-3.8-118.9,13.2
				s-20.6,52.9-56.6,71.8c-95.4,49.8-79.3,41.5-84.9,113.3c-5.7,71.8,47.2,383.4,56.6,436.3C-29.2,1547.4-79.5,1711.7-49.6,1847.7z"
				/>
			<path class="st2" d="M63.8,1577.7c9.7,29.1,48.5,172.4,60.7,179.7s-7.3,230.7,0,259.8c7.3,29.1,34,242.8,31.5,279.2
				c-2.4,36.4-4.5,301.1,0.2,352.1s19.3,165.1,19.3,187s4.9,65.6,0,89.8c-4.9,24.3,2.2,51,2.2,51s94.9,7.3,121.6,0
				c2.4-31.6,2.4-31.6,2.4-31.6s58.2,30.8,89.8,34.8s150.4-5.7,186.8-15.4s65.5-19.4,53.4-41.3s-70.4-31.6-106.7-34
				c-36.4-2.4-82.5-36.4-94.6-46.1s-31.5-60.7-36.4-70.4s-53-29.1-44.7-29.1c25.3-21.9,35-55.8,32.6-87.4
				c-2.4-31.6,14.6-553.6,14.6-631.3s29.1-194.2,29.1-220.9s-2.4-60.7-7.3-82.6s-12.1-65.6-29.1-77.7S63.8,1577.7,63.8,1577.7z"/>
			<path class="st2" d="M-67.2,2924c29.1,12.1,94.6,4.9,121.3,0s34-38.8,34-38.8s46.1,33.4,118.9,22.7
				c72.8-10.6,116.5-39.7,111.6-39.7c-4.9,0-19.6-6.6-82.5-34s-110.2-65.6-110.2-65.6s-3.8-68-20.8-75.3c2.4-89.8-2.4-187,0-213.7
				s70.4-250.1,75.2-303.5c4.9-53.4,29.1-456.5,29.1-456.5l-184.4-92.3c0,0-60.7,9.7-48.5,63.1c12.1,53.4,24.3,63.1,24.3,63.1
				s-26.7,259.8-24.3,286.5s12.1,55.8,12.1,55.8s-55.8,140.2-55.8,183s-7.3,339,0,387.6C-60,2715.2-67.2,2924-67.2,2924z"/>
			<path class="st2" d="M199.9,883.7c-0.5-3,10-21,12.5-23c2.5-2,41.3-3.2,46.8-5.7s10.8-21.8,7.8-27.3s-12.2-20.6-11.2-25.1
				c1-4.5,4-14.5-0.5-17.5c-4.5-3-0.5-9.5-0.5-14c0-4.5-6.5-13.9-7.5-15.9c-1-2,8.5-13.5,7.8-17.3c-0.9-5.3-7.3-9.3-14.8-14.1
				c-4.7-3-16.4-13.8-16.9-17.3c-0.5-3.5,2.5-17.5,3-22c0.5-4.5-13.4-23.6-24-33.6c-7.4-6.9-18.4-19-23.9-18.5
				c-5.5,0.5,0.4-13.9,1.4-17.9c1-4-2.3-16.5-4.4-17.5s-14.1-10-14.1-10s-24,8-32.5,8s-51.5,7.5-57,9c-5.5,1.5-49.5,24-55.5,31.5
				c-6,7.5-21,32-25.5,42.6c-4.5,10.5-4.5,48.1,0,57.3c4.5,9.3,25,64.8,35.5,73.9c10.5,9,37.5,33.1,40.5,38.1c3,5,2.5,23.9,6.5,32.7
				c4,8.9,35,39.4,35,39.4L199.9,883.7z"/>
		</g>
	</g>
</g>
</svg>
