<?xml version="1.0" encoding="utf-8"?>
<!-- Generator: Adobe Illustrator 24.0.0, SVG Export Plug-In . SVG Version: 6.00 Build 0)  -->
<svg version="1.1" id="Layer_1" xmlns="http://www.w3.org/2000/svg" xmlns:xlink="http://www.w3.org/1999/xlink" x="0px" y="0px"
	 viewBox="0 0 1920 1080" style="enable-background:new 0 0 1920 1080;" xml:space="preserve">
<style type="text/css">
	.st0{clip-path:url(#SVGID_2_);}
	.st1{fill:#FFFFFF;}
	.st2{stroke:#FFFFFF;stroke-width:1.9926;stroke-miterlimit:10;}
	.st3{fill:#ED1C24;}
	.st4{fill:#D1D3D4;}
	.st5{fill:#FFFFFF;stroke:#FFFFFF;stroke-width:0.9826;stroke-linecap:round;stroke-linejoin:round;stroke-miterlimit:10;}
	.st6{fill:#FFFFFF;stroke:#FFFFFF;stroke-width:0.6239;stroke-linecap:round;stroke-linejoin:round;stroke-miterlimit:10;}
	.st7{fill:none;stroke:#231F20;stroke-width:0.6239;stroke-miterlimit:10;}
	.st8{fill:#FFFFFF;stroke:#FFFFFF;stroke-width:0.6239;stroke-miterlimit:10;}
	.st9{stroke:#231F20;stroke-width:0.6239;stroke-miterlimit:10;}
	.st10{stroke:#FFFFFF;stroke-width:0.6239;stroke-miterlimit:10;}
	.st11{fill:#FFFFFF;stroke:#231F20;stroke-width:0.6239;stroke-linecap:round;stroke-linejoin:round;stroke-miterlimit:10;}
	.st12{fill:#FFFFFF;stroke:#231F20;stroke-width:0.7224;stroke-linecap:round;stroke-linejoin:round;stroke-miterlimit:10;}
	.st13{fill:none;stroke:#FFFFFF;stroke-width:1.9926;stroke-miterlimit:10;}
</style>
<g>
	<defs>
		<rect id="SVGID_1_" width="1920" height="1080"/>
	</defs>
	<use xlink:href="#SVGID_1_"  style="overflow:visible;"/>
	<clipPath id="SVGID_2_">
		<use xlink:href="#SVGID_1_"  style="overflow:visible;"/>
	</clipPath>
	<g class="st0">
		<g>
			<path class="st1" d="M140.2,1210.8c4.6,0,8.5,4.5,9.7,15.8s8.9,32.8,15.4,31.2c6.5-1.6,10.5-7.4,5.7-23.5
				c-4.9-16.2-8.1-33.6-7.7-40c0.4-6.5-7.3-20.6-8.9-27.9c-1.6-7.3-2.8-14.6-10.9-23.9c-8.1-9.3-10.5-15.8-11.7-33.2
				s-39.7-11.3-40.1-9.3c-0.4,2-3.2,25.1-2.8,33.6s4,64.4,2.8,71.2s0.4,9.7,6.5,24.3c6.1,14.6,8.1,27.5,8.9,32.4
				c0.8,4.9,4,8.5,9.3,12.1s11.4,12.5,14.6,13.8c3.2,1.2,27.1,14.6,31.9,13.4s6.9-13.8,0-20.6c-6.9-6.9-12.1-6.1-12.1-6.1
				s-2-13.8-10.1-16.2c-0.8-7.7-0.8-13.8-5.7-17.8C130.1,1235.9,133.3,1210.8,140.2,1210.8z"/>
			<path class="st1" d="M79.1,1131.4c0,0,60.3,0.4,70.4-3.6c6.9-68.4,21.3-155,23.6-164.7s-2.1-22.7-3.8-25.5
				c-1.6-2.8,4.9-16.2,6.5-22.3c1.6-6.1,8.9-30,8.1-37.2s3.2-31.2,3.6-36.8s2.4-280.5,0-284.1s-17.7,0.3-40.9,9.3
				c-37.6,14.6-41,21.1-47.8,95.9C92.8,729.9,74.6,888.2,75,897.9c0.4,9.7-2.4,33.6-2,38c0.4,4.5,0.7,137.6,0,145.3
				c-0.8,7.7,5.3,15.9,5.3,15.9L79.1,1131.4z"/>
			<path class="st1" d="M606.8,1134.6c-4.6,0-7.9,4.4-7.5,15.8s-4.3,32.7-11,31.1c-6.7-1.6-11.6-7.4-9-23.5s3.4-33.5,2.1-40
				c-1.3-6.5,4.4-20.6,5-27.9c0.6-7.3,0.8-14.6,7.6-23.9c6.8-9.3,8.3-15.8,7.1-33.1c-1.2-17.4,38.1-11.3,38.8-9.3
				c0.7,2,6.8,25.1,7.5,33.6s5,64.3,7.1,71.2c2.2,6.9,1,9.7-3.1,24.3s-4.2,27.5-4.4,32.3s-2.9,8.5-7.6,12.1
				c-4.8,3.6-9.7,12.5-12.7,13.7c-3,1.2-25,14.6-30.1,13.3s-8.8-13.7-2.9-20.6s11.3-6.1,11.3-6.1s0.1-13.7,7.9-16.2
				c-0.3-7.7-1.1-13.7,3.2-17.8C620.4,1159.6,613.7,1134.6,606.8,1134.6z"/>
			<path class="st1" d="M656.8,1055.3c0,0-60.2,0.4-70.9-3.6c-16.5-68.3-43-154.8-46.7-164.5c-3.7-9.7-1-22.6,0.2-25.5
				c1.2-2.8-7.1-16.2-9.6-22.2s-13.1-29.9-13.3-37.2c-0.2-7.3-7.6-31.1-8.8-36.8c-1.2-5.7-56.9-271.6-39.8-283.8
				c3.4-2.4,17.7,0.3,42.2,9.3c39.7,14.6,44,21.1,61.2,95.8c15.5,67.5,55.9,225.6,56.9,235.3c1,9.7,7.1,33.6,7.4,38
				c0.2,4.4,18.5,137.5,20.4,145.1c1.8,7.7-3.1,15.9-3.1,15.9L656.8,1055.3z"/>
			<path class="st1" d="M188.7,1205.2c0,0,104.2-40.2,162.1-51.1c63-12,168.6,1.6,199.7-11.1s-17-176.8-31.1-207.9
				c-14.1-31.1-16.9-270.1-24.8-302.8c-6.8-28,11.7-135.8-20.1-149.2c-13.3-5.6-100.7-7.7-124.8-17.6c-24-9.9-70.7-2.8-89.1,9.9
				c-18.4,12.7-15.4,39.6-42.4,53.7c-71.5,37.3-59.4,31.1-63.6,84.9s35.4,287.1,42.4,326.7C204,980.3,166.4,1103.3,188.7,1205.2z"/>
			<path class="st1" d="M273.7,1003c7.3,21.8,36.4,129.1,45.5,134.6c9.1,5.5-5.5,172.7,0,194.6c5.5,21.8,25.5,181.8,23.6,209.1
				c-1.8,27.3-3.4,225.5,0.1,263.7s14.4,123.6,14.4,140c0,16.4,3.6,49.1,0,67.3c-3.6,18.2,1.6,38.2,1.6,38.2s71.1,5.5,91.1,0
				c1.8-23.6,1.8-23.6,1.8-23.6s43.6,23,67.3,26.1c23.6,3,112.7-4.2,140-11.5c27.3-7.3,49.1-14.5,40-30.9s-52.7-23.6-80-25.5
				s-61.8-27.3-70.9-34.5c-9.1-7.3-23.6-45.5-27.3-52.7s-39.7-21.8-33.5-21.8c19-16.4,26.2-41.8,24.4-65.5s10.9-414.6,10.9-472.8
				c0-58.2,21.8-145.5,21.8-165.5c0-20-1.8-45.5-5.5-61.8c-3.6-16.4-9.1-49.1-21.8-58.2C504.6,1043,273.7,1003,273.7,1003z"/>
			<path class="st1" d="M175.5,2011.3c21.8,9.1,70.9,3.6,90.9,0c20-3.6,25.5-29.1,25.5-29.1s34.5,25,89.1,17s87.3-29.8,83.6-29.8
				s-14.7-4.9-61.8-25.5c-47.1-20.5-82.6-49.1-82.6-49.1s-2.9-50.9-15.6-56.4c1.8-67.3-1.8-140,0-160c1.8-20,52.7-187.3,56.4-227.3
				c3.6-40,21.8-341.8,21.8-341.8l-138.2-69.1c0,0-45.5,7.3-36.4,47.3c9.1,40,18.2,47.3,18.2,47.3s-20,194.6-18.2,214.6
				c1.8,20,9.1,41.8,9.1,41.8s-41.8,105-41.8,137s-5.5,253.9,0,290.3C181,1854.9,175.5,2011.3,175.5,2011.3z"/>
			<path class="st1" d="M375.8,483.2c-0.4-2.3,7.5-15.8,9.4-17.3s30.9-2.4,35.1-4.3c4.1-1.9,8.1-16.3,5.8-20.5
				c-2.3-4.1-9.2-15.4-8.4-18.8c0.8-3.4,3-10.9-0.4-13.1s-0.4-7.1-0.4-10.5s-4.9-10.4-5.6-11.9s6.4-10.1,5.9-12.9
				c-0.7-4-5.5-7-11.1-10.6c-3.5-2.3-12.3-10.3-12.7-12.9c-0.4-2.6,1.9-13.1,2.3-16.5c0.4-3.4-10-17.7-18-25.2
				c-5.5-5.2-13.8-14.3-17.9-13.9s0.3-10.4,1-13.4c0.8-3-1.7-12.4-3.3-13.1s-10.6-7.5-10.6-7.5s-18,6-24.4,6
				c-6.4,0-38.6,5.6-42.8,6.8c-4.1,1.1-37.1,18-41.6,23.6c-4.5,5.6-15.8,24-19.1,31.9c-3.4,7.9-3.4,36,0,42.9
				c3.4,6.9,18.8,48.6,26.6,55.3c7.9,6.8,28.1,24.8,30.4,28.5s1.9,17.9,4.9,24.5c3,6.6,26.3,29.5,26.3,29.5L375.8,483.2z"/>
		</g>
		<g>
			<rect x="1331" y="46.8" class="st2" width="531.5" height="865.2"/>
			<polygon class="st1" points="1400,104.7 1401.2,121.9 1410.8,123 1401.2,124.2 1400,141.3 1398.9,124.2 1389.3,123 1398.9,121.9 
							"/>
			<polygon class="st1" points="1720.7,397.6 1721.8,414.8 1731.4,415.9 1721.8,417.1 1720.7,434.2 1719.5,417.1 1709.9,415.9 
				1719.5,414.8 			"/>
			<polygon class="st1" points="1810.5,827.6 1811.6,844.7 1821.2,845.9 1811.6,847 1810.5,864.1 1809.3,847 1799.7,845.9 
				1809.3,844.7 			"/>
			<polygon class="st1" points="1520,821.5 1521.2,838.6 1530.8,839.8 1521.2,840.9 1520,858.1 1518.9,840.9 1509.2,839.8 
				1518.9,838.6 			"/>
			<polygon class="st1" points="1406.6,650.8 1407.8,668 1417.4,669.1 1407.8,670.3 1406.6,687.4 1405.5,670.3 1395.9,669.1 
				1405.5,668 			"/>
			<polygon class="st1" points="1693.8,687.4 1694.4,696.1 1699.3,696.7 1694.4,697.3 1693.8,706 1693.2,697.3 1688.3,696.7 
				1693.2,696.1 			"/>
			<polygon class="st1" points="1639.1,264.7 1639.7,273.4 1644.6,274 1639.7,274.6 1639.1,283.3 1638.5,274.6 1633.6,274 
				1638.5,273.4 			"/>
			<polygon class="st1" points="1410.8,460.7 1411.4,469.5 1416.3,470.1 1411.4,470.6 1410.8,479.4 1410.2,470.6 1405.3,470.1 
				1410.2,469.5 			"/>
			<polygon class="st1" points="1752.9,83.1 1753.5,91.9 1758.4,92.4 1753.5,93 1752.9,101.8 1752.3,93 1747.4,92.4 1752.3,91.9 			
				"/>
			<polygon class="st1" points="1394.7,291.4 1395.3,300.1 1400.2,300.7 1395.3,301.3 1394.7,310 1394.2,301.3 1389.3,300.7 
				1394.2,300.1 			"/>
			<polygon class="st1" points="1615.9,375.7 1616.2,380.4 1618.8,380.7 1616.2,381 1615.9,385.6 1615.6,381 1613,380.7 
				1615.6,380.4 			"/>
			<polygon class="st1" points="1727,274 1727.3,278.7 1729.9,279 1727.3,279.3 1727,283.9 1726.7,279.3 1724.1,279 1726.7,278.7 
							"/>
			<polygon class="st1" points="1506.3,314.7 1506.7,319.3 1509.2,319.7 1506.7,320 1506.3,324.6 1506,320 1503.4,319.7 1506,319.3 
							"/>
			<polygon class="st1" points="1498.6,564.9 1498.9,569.5 1501.5,569.8 1498.9,570.1 1498.6,574.7 1498.3,570.1 1495.7,569.8 
				1498.3,569.5 			"/>
			<polygon class="st1" points="1474.3,405.7 1474.6,410.4 1477.2,410.7 1474.6,411 1474.3,415.6 1474,411 1471.4,410.7 1474,410.4 
							"/>
			<polygon class="st1" points="1428.4,215.2 1428.7,219.9 1431.3,220.2 1428.7,220.5 1428.4,225.1 1428.1,220.5 1425.5,220.2 
				1428.1,219.9 			"/>
			<polygon class="st1" points="1649.9,550.1 1650.2,554.8 1652.8,555.1 1650.2,555.4 1649.9,560 1649.6,555.4 1647,555.1 
				1649.6,554.8 			"/>
			<polygon class="st1" points="1615.2,706 1615.5,710.7 1618.1,711 1615.5,711.3 1615.2,715.9 1614.9,711.3 1612.3,711 
				1614.9,710.7 			"/>
			<polygon class="st1" points="1459.1,727.7 1459.4,732.4 1462,732.7 1459.4,733 1459.1,737.6 1458.8,733 1456.2,732.7 
				1458.8,732.4 			"/>
			<polygon class="st3" points="1700.6,231.1 1703.5,202.8 1704,202.8 1704.4,202.8 			"/>
			<polygon class="st3" points="1703,222.8 1704.4,202.8 1704.9,202.7 1705.3,202.7 			"/>
			<polygon class="st3" points="1704.6,224.3 1705.3,202.7 1705.8,202.7 1706.2,202.7 			"/>
			<polygon class="st1" points="1705.9,224.2 1706.2,202.7 1706.7,202.7 1707.1,202.7 			"/>
			<polygon class="st1" points="1707.6,218.2 1707.1,202.7 1707.6,202.6 1708,202.6 			"/>
			<polygon class="st1" points="1709,218.1 1708,202.6 1708.5,202.6 1708.9,202.6 			"/>
			<polygon class="st1" points="1710.8,222.5 1708.9,202.6 1709.4,202.6 1709.8,202.6 			"/>
			<polygon class="st3" points="1712.9,229.4 1709.8,202.6 1710.3,202.5 1710.7,202.5 			"/>
			<polygon class="st1" points="1710.6,212.3 1709.4,202.6 1709.8,202.6 1710.3,202.5 			"/>
			<polygon class="st1" points="1709.5,215.2 1708.5,202.6 1708.9,202.6 1709.4,202.6 			"/>
			<polygon class="st3" points="1706.8,225.1 1706.7,202.7 1707.1,202.7 1707.6,202.6 			"/>
			<polygon class="st3" points="1708.9,223.7 1707.6,202.6 1708,202.6 1708.5,202.6 			"/>
			<polygon class="st3" points="1705.6,216.2 1705.8,202.7 1706.2,202.7 1706.7,202.7 			"/>
			<polygon class="st3" points="1704.5,214.2 1704.9,202.7 1705.3,202.7 1705.8,202.7 			"/>
			<polygon class="st3" points="1703.3,213.4 1704,202.8 1704.4,202.8 1704.9,202.7 			"/>
			<polygon class="st3" points="1744.4,237.6 1747.4,209.3 1747.8,209.2 1748.3,209.2 			"/>
			<polygon class="st3" points="1746.8,229.3 1748.3,209.2 1748.7,209.2 1749.2,209.2 			"/>
			<polygon class="st3" points="1748.4,230.8 1749.2,209.2 1749.6,209.2 1750.1,209.2 			"/>
			<polygon class="st3" points="1749.7,230.7 1750.1,209.2 1750.5,209.1 1751,209.1 			"/>
			<polygon class="st1" points="1751.5,224.6 1751,209.1 1751.4,209.1 1751.9,209.1 			"/>
			<polygon class="st1" points="1752.8,224.6 1751.9,209.1 1752.3,209.1 1752.8,209.1 			"/>
			<polygon class="st3" points="1754.6,228.9 1752.8,209.1 1753.2,209 1753.7,209 			"/>
			<polygon class="st3" points="1756.7,235.9 1753.7,209 1754.1,209 1754.6,209 			"/>
			<polygon class="st1" points="1754.5,218.7 1753.2,209 1753.7,209 1754.1,209 			"/>
			<polygon class="st1" points="1753.4,221.7 1752.3,209.1 1752.8,209.1 1753.2,209 			"/>
			<polygon class="st3" points="1752.7,230.1 1751.4,209.1 1751.9,209.1 1752.3,209.1 			"/>
			<polygon class="st1" points="1749.5,222.7 1749.6,209.2 1750.1,209.2 1750.5,209.1 			"/>
			<polygon class="st1" points="1748.3,220.7 1748.7,209.2 1749.2,209.2 1749.6,209.2 			"/>
			<polygon class="st1" points="1747.2,219.8 1747.8,209.2 1748.3,209.2 1748.7,209.2 			"/>
			<polygon class="st3" points="1784.8,238.4 1787.8,210.1 1788.2,210.1 1788.7,210.1 			"/>
			<polygon class="st3" points="1787.2,230.2 1788.7,210.1 1789.1,210.1 1789.5,210 			"/>
			<polygon class="st3" points="1788.8,231.6 1789.5,210 1790,210 1790.4,210 			"/>
			<polygon class="st1" points="1790.1,231.5 1790.4,210 1790.9,210 1791.3,210 			"/>
			<polygon class="st1" points="1791.8,225.5 1791.3,210 1791.8,210 1792.2,209.9 			"/>
			<polygon class="st1" points="1793.2,225.4 1792.2,209.9 1792.7,209.9 1793.1,209.9 			"/>
			<polygon class="st3" points="1795,229.8 1793.1,209.9 1793.6,209.9 1794,209.9 			"/>
			<polygon class="st3" points="1797.1,236.7 1794,209.9 1794.5,209.9 1794.9,209.8 			"/>
			<polygon class="st1" points="1794.8,219.6 1793.6,209.9 1794,209.9 1794.5,209.9 			"/>
			<polygon class="st1" points="1793.8,222.5 1792.7,209.9 1793.1,209.9 1793.6,209.9 			"/>
			<polygon class="st3" points="1791,232.4 1790.9,210 1791.3,210 1791.8,210 			"/>
			<polygon class="st3" points="1793.1,231 1791.8,210 1792.2,209.9 1792.7,209.9 			"/>
			<polygon class="st1" points="1788.7,221.5 1789.1,210.1 1789.5,210 1790,210 			"/>
			<polygon class="st1" points="1787.6,220.7 1788.2,210.1 1788.7,210.1 1789.1,210.1 			"/>
			<polygon class="st3" points="1811.3,235.8 1814.3,207.5 1814.7,207.5 1815.1,207.5 			"/>
			<polygon class="st3" points="1813.7,227.6 1815.1,207.5 1815.6,207.5 1816,207.4 			"/>
			<polygon class="st3" points="1815.3,229 1816,207.4 1816.5,207.4 1816.9,207.4 			"/>
			<polygon class="st3" points="1816.6,228.9 1816.9,207.4 1817.4,207.4 1817.8,207.4 			"/>
			<polygon class="st1" points="1818.3,222.9 1817.8,207.4 1818.3,207.4 1818.7,207.3 			"/>
			<polygon class="st1" points="1819.7,222.8 1818.7,207.3 1819.2,207.3 1819.6,207.3 			"/>
			<polygon class="st3" points="1821.5,227.2 1819.6,207.3 1820.1,207.3 1820.5,207.3 			"/>
			<polygon class="st3" points="1823.6,234.1 1820.5,207.3 1821,207.2 1821.4,207.2 			"/>
			<polygon class="st1" points="1821.3,217 1820.1,207.3 1820.5,207.3 1821,207.2 			"/>
			<polygon class="st1" points="1820.3,219.9 1819.2,207.3 1819.6,207.3 1820.1,207.3 			"/>
			<polygon class="st3" points="1817.5,229.8 1817.4,207.4 1817.8,207.4 1818.3,207.4 			"/>
			<polygon class="st1" points="1816.4,220.9 1816.5,207.4 1816.9,207.4 1817.4,207.4 			"/>
			<polygon class="st1" points="1815.2,218.9 1815.6,207.5 1816,207.4 1816.5,207.4 			"/>
			<polygon class="st1" points="1814,218.1 1814.7,207.5 1815.1,207.5 1815.6,207.5 			"/>
			<g>
				<polygon class="st3" points="1706.1,212 1712.2,153.9 1713.1,153.8 1714,153.8 				"/>
				<polygon class="st3" points="1724.5,179.3 1722.3,153.5 1723.2,153.4 1724.2,153.4 				"/>
				<polygon class="st3" points="1718.9,199.6 1718.6,153.6 1719.5,153.6 1720.5,153.5 				"/>
				<polygon class="st3" points="1723.2,196.7 1720.5,153.5 1721.4,153.5 1722.3,153.5 				"/>
				<polygon class="st3" points="1716.5,181.4 1716.8,153.7 1717.7,153.6 1718.6,153.6 				"/>
				<polygon class="st3" points="1714.1,177.3 1714.9,153.8 1715.9,153.7 1716.8,153.7 				"/>
				<polygon class="st3" points="1711.8,175.6 1713.1,153.8 1714,153.8 1714.9,153.8 				"/>
			</g>
			<g>
				<polygon class="st1" points="1660.5,97.5 1660.8,102.1 1663.4,102.4 1660.8,102.7 1660.5,107.4 1660.2,102.7 1657.6,102.4 
					1660.2,102.1 				"/>
				<polygon class="st3" points="1518.9,187.9 1533.7,156.4 1534.2,156.5 1534.7,156.6 				"/>
				<polygon class="st1" points="1524.9,179.1 1534.7,156.6 1535.2,156.7 1535.6,156.8 				"/>
				<polygon class="st1" points="1525.9,181.3 1535.6,156.8 1536.1,156.9 1536.6,157.1 				"/>
				<polygon class="st1" points="1527.3,181.6 1536.6,157.1 1537.1,157.2 1537.6,157.3 				"/>
				<polygon class="st1" points="1531.7,175.2 1537.6,157.3 1538,157.4 1538.5,157.5 				"/>
				<polygon class="st1" points="1533.1,175.5 1538.5,157.5 1539,157.6 1539.5,157.7 				"/>
				<polygon class="st1" points="1533.2,181 1539.5,157.7 1540,157.9 1540.4,158 				"/>
				<polygon class="st3" points="1532.5,189.6 1540.4,158 1540.9,158.1 1541.4,158.2 				"/>
				<polygon class="st3" points="1537.2,169.3 1540,157.9 1540.4,158 1540.9,158.1 				"/>
				<polygon class="st3" points="1534.9,172.3 1539,157.6 1539.5,157.7 1540,157.9 				"/>
				<polygon class="st3" points="1528,182.8 1537.1,157.2 1537.6,157.3 1538,157.4 				"/>
				<polygon class="st3" points="1530.7,181.9 1538,157.4 1538.5,157.5 1539,157.6 				"/>
				<polygon class="st3" points="1530.4,172.3 1536.1,156.9 1536.6,157.1 1537.1,157.2 				"/>
				<polygon class="st3" points="1530,169.7 1535.2,156.7 1535.6,156.8 1536.1,156.9 				"/>
				<polygon class="st1" points="1529.2,168.4 1534.2,156.5 1534.7,156.6 1535.2,156.7 				"/>
				<polygon class="st3" points="1545.9,199.7 1560.7,168.2 1561.2,168.3 1561.7,168.4 				"/>
				<polygon class="st1" points="1551.8,190.9 1561.7,168.4 1562.2,168.5 1562.6,168.6 				"/>
				<polygon class="st1" points="1552.9,193.1 1562.6,168.6 1563.1,168.8 1563.6,168.9 				"/>
				<polygon class="st1" points="1554.3,193.4 1563.6,168.9 1564.1,169 1564.5,169.1 				"/>
				<polygon class="st1" points="1558.7,187 1564.5,169.1 1565,169.2 1565.5,169.3 				"/>
				<polygon class="st1" points="1560.1,187.3 1565.5,169.3 1566,169.4 1566.5,169.6 				"/>
				<polygon class="st1" points="1560.2,192.8 1566.5,169.6 1566.9,169.7 1567.4,169.8 				"/>
				<polygon class="st3" points="1559.5,201.4 1567.4,169.8 1567.9,169.9 1568.4,170 				"/>
				<polygon class="st3" points="1564.2,181.1 1566.9,169.7 1567.4,169.8 1567.9,169.9 				"/>
				<polygon class="st3" points="1561.9,184.2 1566,169.4 1566.5,169.6 1566.9,169.7 				"/>
				<polygon class="st3" points="1555,194.6 1564.1,169 1564.5,169.1 1565,169.2 				"/>
				<polygon class="st3" points="1557.7,193.7 1565,169.2 1565.5,169.3 1566,169.4 				"/>
				<polygon class="st3" points="1557.4,184.1 1563.1,168.8 1563.6,168.9 1564.1,169 				"/>
				<polygon class="st3" points="1557,181.5 1562.2,168.5 1562.6,168.6 1563.1,168.8 				"/>
				<polygon class="st3" points="1556.1,180.2 1561.2,168.3 1561.7,168.4 1562.2,168.5 				"/>
				<polygon class="st3" points="1582.9,213 1597.8,181.5 1598.2,181.6 1598.7,181.8 				"/>
				<polygon class="st1" points="1588.9,204.3 1598.7,181.8 1599.2,181.9 1599.7,182 				"/>
				<polygon class="st1" points="1589.9,206.4 1599.7,182 1600.1,182.1 1600.6,182.2 				"/>
				<polygon class="st1" points="1591.4,206.7 1600.6,182.2 1601.1,182.3 1601.6,182.4 				"/>
				<polygon class="st1" points="1595.7,200.3 1601.6,182.4 1602,182.6 1602.5,182.7 				"/>
				<polygon class="st1" points="1597.1,200.7 1602.5,182.7 1603,182.8 1603.5,182.9 				"/>
				<polygon class="st1" points="1597.2,206.2 1603.5,182.9 1604,183 1604.4,183.1 				"/>
				<polygon class="st3" points="1596.5,214.8 1604.4,183.1 1604.9,183.2 1605.4,183.4 				"/>
				<polygon class="st1" points="1601.2,194.5 1604,183 1604.4,183.1 1604.9,183.2 				"/>
				<polygon class="st3" points="1598.9,197.5 1603,182.8 1603.5,182.9 1604,183 				"/>
				<polygon class="st1" points="1592,208 1601.1,182.3 1601.6,182.4 1602,182.6 				"/>
				<polygon class="st3" points="1594.7,207 1602,182.6 1602.5,182.7 1603,182.8 				"/>
				<polygon class="st1" points="1594.4,197.5 1600.1,182.1 1600.6,182.2 1601.1,182.3 				"/>
				<polygon class="st1" points="1594,194.9 1599.2,181.9 1599.7,182 1600.1,182.1 				"/>
				<polygon class="st1" points="1593.2,193.6 1598.2,181.6 1598.7,181.8 1599.2,181.9 				"/>
				<polygon class="st1" points="1628.5,226 1643.3,194.5 1643.8,194.6 1644.3,194.8 				"/>
				<polygon class="st1" points="1634.4,217.3 1644.3,194.8 1644.8,194.9 1645.2,195 				"/>
				<polygon class="st1" points="1635.5,219.4 1645.2,195 1645.7,195.1 1646.2,195.2 				"/>
				<polygon class="st1" points="1636.9,219.7 1646.2,195.2 1646.7,195.3 1647.1,195.4 				"/>
				<polygon class="st1" points="1641.3,213.3 1647.1,195.4 1647.6,195.6 1648.1,195.7 				"/>
				<polygon class="st1" points="1642.7,213.7 1648.1,195.7 1648.6,195.8 1649.1,195.9 				"/>
				<polygon class="st1" points="1642.8,219.2 1649.1,195.9 1649.5,196 1650,196.1 				"/>
				<polygon class="st3" points="1642.1,227.8 1650,196.1 1650.5,196.2 1651,196.4 				"/>
				<polygon class="st3" points="1646.8,207.5 1649.5,196 1650,196.1 1650.5,196.2 				"/>
				<polygon class="st3" points="1644.5,210.5 1648.6,195.8 1649.1,195.9 1649.5,196 				"/>
				<polygon class="st3" points="1637.6,221 1646.7,195.3 1647.1,195.4 1647.6,195.6 				"/>
				<polygon class="st3" points="1640.3,220 1647.6,195.6 1648.1,195.7 1648.6,195.8 				"/>
				<polygon class="st3" points="1640,210.5 1645.7,195.1 1646.2,195.2 1646.7,195.3 				"/>
				<polygon class="st3" points="1639.6,207.9 1644.8,194.9 1645.2,195 1645.7,195.1 				"/>
				<polygon class="st3" points="1638.7,206.6 1643.8,194.6 1644.3,194.8 1644.8,194.9 				"/>
				<polygon class="st3" points="1750.7,231.5 1750.5,209.1 1751,209.1 1751.4,209.1 				"/>
				<polygon class="st1" points="1789.9,223.5 1790,210 1790.4,210 1790.9,210 				"/>
				<polygon class="st3" points="1819.6,228.4 1818.3,207.4 1818.7,207.3 1819.2,207.3 				"/>
				<g>
					<path class="st1" d="M1548.2,158.4c-0.4,2-7.1,2.4-12.2-0.5c-3.5-2-5.2-6.8-2.1-9.4C1537.1,145.9,1548.6,156.3,1548.2,158.4z"
						/>
					<path class="st1" d="M1565,172.5c-9.2-1.7-10.9-9.5-10.3-10.6c0.6-1.1,18.7,5.9,20.2,8.1C1576.4,172.3,1572,173.8,1565,172.5z"
						/>
					<path class="st1" d="M1603.6,185.5c-7.2-2.1-9.7-4.6-10.5-7.7c-0.8-3.1,19,3.4,21.2,5.8S1608.3,186.8,1603.6,185.5z"/>
					<path class="st1" d="M1649.3,197.6c-9.6-1.7-13.9-6.7-12.1-8.4s17.8-1.1,21.9,4.1C1661.7,196.6,1655.4,198.7,1649.3,197.6z"/>
				</g>
				<g>
					<path class="st3" d="M1808.6,207.6c-0.4,2,5.4,4.8,11,3.8c3.8-0.7,7.1-4.5,5.2-8C1822.8,199.9,1809,205.5,1808.6,207.6z"/>
					<path class="st3" d="M1788.7,214.8c8.7,1.6,13-5,12.9-6.2s-18.6-1.2-20.7,0.4C1778.7,210.6,1782.1,213.5,1788.7,214.8z"/>
					<path class="st3" d="M1749.9,213.1c7.1,0.6,10.2-0.8,12-3.4c1.8-2.6-17.9-3.6-20.8-2.2C1738.3,209,1745.4,212.8,1749.9,213.1z"
						/>
					<path class="st3" d="M1705.3,208.2c9.1,1.9,14.7-1.3,13.6-3.5c-1.1-2.2-15.3-7.3-20.9-3.9
						C1694.7,202.8,1699.5,207,1705.3,208.2z"/>
				</g>
				<g>
					<path class="st3" d="M1548.2,158.4c-0.4,2-7.1,2.4-12.2-0.5c-3.5-2-5.2-6.8-2.1-9.4C1537.1,145.9,1548.6,156.3,1548.2,158.4z"
						/>
					<path class="st3" d="M1565,172.5c-9.2-1.7-10.9-9.5-10.3-10.6c0.6-1.1,18.7,5.9,20.2,8.1C1576.4,172.3,1572,173.8,1565,172.5z"
						/>
					<path class="st3" d="M1603.6,185.5c-7.2-2.1-9.7-4.6-10.5-7.7c-0.8-3.1,19,3.4,21.2,5.8S1608.3,186.8,1603.6,185.5z"/>
					<path class="st3" d="M1649.3,197.6c-9.6-1.7-13.9-6.7-12.1-8.4s17.8-1.1,21.9,4.1C1661.7,196.6,1655.4,198.7,1649.3,197.6z"/>
				</g>
				<path class="st4" d="M1692.7,95.6c42.4,9.3,76.7,21.2,111.9,44.9c35.2,23.7,52,37.6,50.9,45c-1.1,7.4-354.9-66.8-350.9-71.6
					C1508.5,109.1,1585.9,72.3,1692.7,95.6z"/>
				<path class="st1" d="M1856.8,184.9c0.2-3.1-5-23.7-89.8-48.4c-84.8-24.7-162.1-35.8-202.3-35.8s-58.6,3.3-61.3,12
					s28.7,40.1,37.5,45s54.4,27.1,135.9,41.4c81.4,14.3,120.1,16.8,141.9,9.2C1840.6,200.8,1856.4,192.4,1856.8,184.9z"/>
				<path d="M1855.4,185.5c0.1-3-5.1-23-89.3-47.4c-84.2-24.3-161-35.4-200.9-35.6c-39.9-0.2-58.1,2.9-60.8,11.4
					c-2.6,8.4,28.6,39,37.4,43.9c8.8,4.8,54.1,26.5,135,40.8s119.3,16.8,140.9,9.6C1839.4,200.9,1855.1,192.8,1855.4,185.5z"/>
				<path class="st4" d="M1691.8,158.2c-50.4-11.6-143-22.2-148.1-13.5c-5.1,8.7,36.5,31.3,138.4,50.9
					c101.9,19.5,133.9,11.9,127.9,2.4C1804,188.5,1737.9,168.8,1691.8,158.2z"/>
				<path d="M1757.9,174.6c-6.2,2.4-12.9,3.5-19.6,4.3c-6.7,0.7-13.5,0.8-20.2,0.6c-13.5-0.4-26.9-2.6-40.2-5.4
					c-13.2-3-26.3-6.3-39.1-10.8c-6.4-2.2-12.7-4.7-18.6-7.9c-5.8-3.2-11.7-7-15.2-12.7l-1.2,0.7c3.9,5.9,10,9.6,16,12.7
					c6,3.1,12.4,5.6,18.8,7.8c12.8,4.4,26,7.6,39.3,10.5c13.2,3,26.6,5.3,40.2,5.8c6.8,0.3,13.6,0.2,20.3-0.4
					c6.8-0.6,13.5-1.6,20.1-3.9L1757.9,174.6z"/>
				<path d="M1772.6,178.2c-0.7,1.7-2.2,3.2-3.8,4.5c-1.6,1.3-3.4,2.3-5.2,3.2c-3.7,1.7-7.8,2.8-11.9,3.5c-8.2,1.3-16.6,1.2-25,0.6
					c-8.3-0.6-16.6-1.6-24.9-2.8c-8.3-1.2-16.5-2.7-24.7-4.4c-8.2-1.7-16.3-3.7-24.4-5.8c-8.1-2.1-16.1-4.6-23.9-7.5
					c-3.9-1.4-7.8-3.1-11.5-5c-3.7-2-7.3-4.1-10.8-6.3c-3.5-2.3-6.9-4.7-9.9-7.5c-3.1-2.8-5.9-5.9-7.5-9.6l-1.2,0.6
					c1.9,3.9,4.9,7.1,8.1,9.8c3.2,2.8,6.7,5.1,10.2,7.4c3.6,2.2,7.2,4.3,10.9,6.3c3.8,1.9,7.6,3.5,11.6,4.9
					c15.8,5.6,32.1,9.5,48.5,12.9c8.2,1.7,16.4,3.3,24.7,4.6c8.3,1.3,16.6,2.4,24.9,3c8.3,0.6,16.8,0.8,25.1-0.4
					c4.2-0.6,8.3-1.6,12.2-3.3c2-0.8,3.8-1.9,5.5-3.2c1.7-1.3,3.3-2.8,4.3-5L1772.6,178.2z"/>
				<g>
					<g>
						<polygon points="1680.9,175.1 1685,153.3 1684.4,153.2 1680.2,174.9 						"/>
						<rect x="1668.2" y="163.1" transform="matrix(0.2048 -0.9788 0.9788 0.2048 1175.3497 1773.5533)" width="22" height="0.7"/>
						<polygon points="1673.8,173.4 1678.7,152.1 1678,151.9 1673.1,173.3 						"/>
						<polygon points="1670.4,172.7 1675.7,151.5 1675,151.3 1669.7,172.5 						"/>
						<rect x="1658.8" y="160.9" transform="matrix(0.2624 -0.965 0.965 0.2624 1075.8942 1730.1317)" width="21.7" height="0.8"/>
						
							<rect x="1655.9" y="160.2" transform="matrix(0.2817 -0.9595 0.9595 0.2817 1042.9723 1714.5269)" width="21.6" height="0.8"/>
						<rect x="1653" y="159.6" transform="matrix(0.3013 -0.9535 0.9535 0.3013 1010.0434 1698.2733)" width="21.5" height="0.8"/>
						<rect x="1650.3" y="158.9" transform="matrix(0.3206 -0.9472 0.9472 0.3206 977.5358 1681.5291)" width="21.5" height="0.8"/>
						<rect x="1647.6" y="158.2" transform="matrix(0.34 -0.9404 0.9404 0.34 945.2436 1664.1987)" width="21.4" height="0.8"/>
						<rect x="1645.1" y="157.5" transform="matrix(0.3594 -0.9332 0.9332 0.3594 913.2315 1646.2944)" width="21.3" height="0.9"/>
						<rect x="1642.6" y="156.9" transform="matrix(0.3788 -0.9255 0.9255 0.3788 881.3661 1627.7365)" width="21.3" height="0.9"/>
						<polygon points="1647,166.6 1655.4,147.1 1654.6,146.7 1646.2,166.2 						"/>
						<rect x="1637.8" y="155.5" transform="matrix(0.4171 -0.9089 0.9089 0.4171 819.0791 1589.1317)" width="21.2" height="0.9"/>
						<rect x="1635.6" y="154.9" transform="matrix(0.4362 -0.8999 0.8999 0.4362 788.397 1568.9302)" width="21.2" height="0.9"/>
						<polygon points="1639.6,164.3 1649.3,145.4 1648.4,145 1638.8,163.9 						"/>
						<polygon points="1637.3,163.5 1647.4,144.9 1646.5,144.4 1636.5,163.1 						"/>
						<rect x="1629.3" y="152.8" transform="matrix(0.4919 -0.8707 0.8707 0.4919 699.7717 1505.6328)" width="21.2" height="1"/>
						<rect x="1627.3" y="152.1" transform="matrix(0.51 -0.8602 0.8602 0.51 671.3292 1483.6293)" width="21.2" height="1"/>
						<polygon points="1630.8,161.1 1642,143.1 1641.2,142.5 1629.9,160.6 						"/>
						<polygon points="1628.8,160.3 1640.4,142.5 1639.5,141.9 1627.9,159.7 						"/>
						<rect x="1621.7" y="149.8" transform="matrix(0.5628 -0.8266 0.8266 0.5628 589.3553 1415.0056)" width="21.3" height="1.1"/>
						<polygon points="1624.9,158.6 1637.3,141.2 1636.4,140.5 1624,158 						"/>
						<rect x="1618.2" y="148.2" transform="matrix(0.5964 -0.8027 0.8027 0.5964 538.0432 1367.611)" width="21.5" height="1.1"/>
						<polygon points="1621.2,156.8 1634.4,139.8 1633.5,139.1 1620.3,156.1 						"/>
						<rect x="1615" y="146.5" transform="matrix(0.6286 -0.7777 0.7777 0.6286 489.4322 1319.0781)" width="21.6" height="1.2"/>
						<rect x="1613.4" y="145.6" transform="matrix(0.6441 -0.765 0.765 0.6441 466.2359 1294.528)" width="21.7" height="1.2"/>
						<rect x="1611.9" y="144.7" transform="matrix(0.6592 -0.752 0.752 0.6592 443.7669 1269.811)" width="21.8" height="1.2"/>
						<rect x="1610.4" y="143.8" transform="matrix(0.6739 -0.7388 0.7388 0.6739 422.0312 1244.9615)" width="21.9" height="1.2"/>
						<rect x="1608.9" y="142.8" transform="matrix(0.6883 -0.7255 0.7255 0.6883 400.939 1219.9058)" width="22" height="1.2"/>
						<rect x="1607.4" y="141.8" transform="matrix(0.7022 -0.712 0.712 0.7022 380.5943 1194.7861)" width="22.2" height="1.3"/>
						<polygon points="1609.7,149.6 1625.6,134.1 1624.7,133.2 1608.8,148.7 						"/>
						<rect x="1604.6" y="139.7" transform="matrix(0.7286 -0.6849 0.6849 0.7286 342.3817 1144.7915)" width="22.4" height="1.3"/>
						<polygon points="1606.6,147.3 1623.4,132.1 1622.5,131.1 1605.8,146.3 						"/>
						<rect x="1601.9" y="137.4" transform="matrix(0.7535 -0.6575 0.6575 0.7535 306.9622 1094.7585)" width="22.8" height="1.3"/>
						<rect x="1600.6" y="136.2" transform="matrix(0.7653 -0.6437 0.6437 0.7653 290.2745 1069.7805)" width="22.9" height="1.4"/>
					</g>
				</g>
				<g>
					<g>
						<polygon points="1680.9,175.1 1685,153.3 1684.4,153.2 1680.2,174.9 						"/>
						<rect x="1675" y="164.4" transform="matrix(0.1667 -0.986 0.986 0.1667 1242.4468 1799.7028)" width="22" height="0.7"/>
						<rect x="1678.3" y="165" transform="matrix(0.1473 -0.9891 0.9891 0.1473 1276.8475 1811.8477)" width="21.9" height="0.7"/>
						<polygon points="1691.5,176.8 1694.2,155.1 1693.5,155 1690.7,176.7 						"/>
						<rect x="1684.7" y="166" transform="matrix(0.108 -0.9941 0.9941 0.108 1346.9562 1834.0704)" width="21.7" height="0.8"/>
						
							<rect x="1687.7" y="166.5" transform="matrix(8.803496e-02 -0.9961 0.9961 8.803496e-02 1382.7823 1844.1371)" width="21.6" height="0.8"/>
						<polygon points="1701.1,178.1 1702.6,156.6 1701.8,156.5 1700.3,178 						"/>
						<polygon points="1704.1,178.4 1705.1,157 1704.3,157 1703.3,178.4 						"/>
						<polygon points="1707.1,178.7 1707.6,157.4 1706.8,157.3 1706.2,178.7 						"/>
						
							<rect x="1698.9" y="167.9" transform="matrix(6.076653e-03 -1 1 6.076653e-03 1530.8276 1876.8763)" width="21.3" height="0.9"/>
						
							<rect x="1711.7" y="158" transform="matrix(0.9999 -1.505853e-02 1.505853e-02 0.9999 -2.3452 25.8011)" width="0.9" height="21.3"/>
						
							<rect x="1714.1" y="158.2" transform="matrix(0.9994 -3.548060e-02 3.548060e-02 0.9994 -4.9117 60.941)" width="0.9" height="21.3"/>
						<polygon points="1717.1,179.7 1718,179.6 1716.8,158.4 1715.9,158.5 						"/>
						<polygon points="1719.7,179.8 1720.6,179.7 1719,158.6 1718,158.7 						"/>
						<polygon points="1722.1,179.9 1723.1,179.8 1721,158.7 1720.1,158.8 						"/>
						<rect x="1723.3" y="158.8" transform="matrix(0.9929 -0.1194 0.1194 0.9929 -7.8949 206.9579)" width="1" height="21.2"/>
						<rect x="1725.4" y="158.8" transform="matrix(0.99 -0.141 0.141 0.99 -6.642 245.1293)" width="1" height="21.2"/>
						<rect x="1727.5" y="158.8" transform="matrix(0.9868 -0.1619 0.1619 0.9868 -4.6359 281.9208)" width="1" height="21.2"/>
						<rect x="1729.5" y="158.7" transform="matrix(0.9835 -0.1809 0.1809 0.9835 -2.0958 315.7559)" width="1" height="21.3"/>
						<polygon points="1733.6,179.8 1734.6,179.6 1730.3,158.7 1729.3,159 						"/>
						<rect x="1733.4" y="158.5" transform="matrix(0.9751 -0.2216 0.2216 0.9751 5.6276 388.473)" width="1.1" height="21.3"/>
						<rect x="1735.2" y="158.3" transform="matrix(0.9704 -0.2414 0.2414 0.9704 10.5386 424.0116)" width="1.1" height="21.4"/>
						<polygon points="1739.9,179.3 1741,179 1735.3,158.3 1734.3,158.6 						"/>
						<rect x="1738.8" y="157.8" transform="matrix(0.9595 -0.2818 0.2818 0.9595 22.9902 496.9741)" width="1.1" height="21.5"/>
						<polygon points="1743.9,178.8 1745,178.4 1738.5,157.8 1737.4,158.1 						"/>
						<rect x="1742.3" y="157.1" transform="matrix(0.9473 -0.3203 0.3203 0.9473 38.0207 567.0744)" width="1.2" height="21.7"/>
						<rect x="1744" y="156.7" transform="matrix(0.9406 -0.3394 0.3394 0.9406 46.686 602.1174)" width="1.2" height="21.8"/>
						<rect x="1745.7" y="156.2" transform="matrix(0.9338 -0.3578 0.3578 0.9338 55.7875 635.9102)" width="1.2" height="21.9"/>
						<rect x="1747.3" y="155.7" transform="matrix(0.9268 -0.3755 0.3755 0.9268 65.2663 668.4818)" width="1.2" height="22"/>
						<rect x="1749" y="155.2" transform="matrix(0.919 -0.3942 0.3942 0.919 76.1057 703.1101)" width="1.3" height="22.2"/>
						<rect x="1750.6" y="154.6" transform="matrix(0.9119 -0.4104 0.4104 0.9119 86.2139 733.2442)" width="1.3" height="22.3"/>
						<rect x="1752.2" y="154" transform="matrix(0.9032 -0.4291 0.4291 0.9032 98.7006 768.2045)" width="1.3" height="22.4"/>
						<rect x="1753.8" y="153.3" transform="matrix(0.8952 -0.4456 0.4456 0.8952 110.4441 799.0338)" width="1.3" height="22.6"/>
						<rect x="1755.4" y="152.6" transform="matrix(0.8872 -0.4614 0.4614 0.8872 122.4297 828.7751)" width="1.3" height="22.8"/>
						<rect x="1757" y="151.9" transform="matrix(0.8791 -0.4767 0.4767 0.8791 134.6584 857.5593)" width="1.4" height="22.9"/>
					</g>
				</g>
				<g>
					<path d="M1678.5,196.4l0.6-0.3c0,0-1.5-3.8-0.4-9.4l0.6-3.3l-0.7-0.1l-0.6,3.3C1676.9,192.4,1678.4,196.2,1678.5,196.4z"/>
					<path d="M1683,197.4l0.2-0.1l-0.2-0.3l0.1-0.3c-0.4-0.3-2.2-4.1-1.7-9.4c0.2-1.5,0.4-3.5,0.4-3.5l-0.7-0.1c0,0-0.3,2-0.4,3.5
						c-0.6,5.6,1.4,9.7,2,10L1683,197.4z"/>
					<path d="M1687.2,198.2c0.1,0,0.2-0.1,0.3-0.1l-0.4-0.6c0.1-0.1,0.2-0.1,0.2,0c-0.5-0.2-3.2-4.2-2.9-9.5
						c0.1-1.5,0.2-3.6,0.2-3.7l-0.7-0.1c0,0-0.2,2.1-0.2,3.7c-0.2,5.4,2.4,9.7,3.3,10.2C1687,198.2,1687.1,198.2,1687.2,198.2z"/>
					<path d="M1691.5,199.1c0.2,0,0.3-0.1,0.4-0.1l-0.5-0.6c0,0,0.1,0,0.1,0c-0.6-0.1-4.1-4.3-4.3-9.6c0-1.6,0-3.8,0-3.8l-0.7,0
						c0,0-0.1,2.2,0,3.9c0.1,5.1,3.3,9.7,4.6,10.3C1691.3,199.1,1691.4,199.1,1691.5,199.1z"/>
					<path d="M1696,200c0.2,0,0.4-0.1,0.5-0.2l-0.5-0.6c0,0-0.2,0-0.6-0.3c-1.8-1.3-4.6-5.4-5-9.5c-0.2-1.7-0.2-3.9-0.2-4l-0.8,0
						c0,0,0,2.3,0.2,4c0.4,4.8,4.1,9.6,5.9,10.4C1695.7,200,1695.9,200,1696,200z"/>
					<path d="M1700.6,200.9c0.3,0,0.5-0.1,0.6-0.2l-0.5-0.6c0,0-0.2,0-0.4-0.1c-1.9-0.7-5.9-5.4-6.6-9.9c-0.3-1.8-0.4-4.1-0.4-4.1
						l-0.8,0c0,0.1,0.1,2.4,0.4,4.2c0.7,4.8,5,9.7,7.1,10.5C1700.2,200.8,1700.4,200.9,1700.6,200.9z"/>
					<path d="M1705.3,201.8c0.3,0,0.5-0.1,0.7-0.2l-0.5-0.6c-0.1,0.1-0.4,0.1-0.7,0c-2.1-0.8-6.9-5.5-7.8-10.1
						c-0.4-1.8-0.6-4.3-0.6-4.3l-0.8,0.1c0,0.1,0.2,2.5,0.6,4.4c0.9,4.6,5.7,9.7,8.3,10.7C1704.8,201.7,1705,201.8,1705.3,201.8z"/>
					<path d="M1709.9,202.6c0.4,0,0.7-0.1,0.9-0.3l-0.5-0.6c-0.2,0.1-0.7,0.2-1.6-0.2c-3.1-1.4-8-6-8.3-9.9l0-0.1
						c-0.8-1.7-0.7-4.3-0.7-4.3l-0.8,0c0,0.1-0.1,2.7,0.8,4.6c0.4,4.3,5.4,9.1,8.8,10.6C1708.9,202.5,1709.5,202.6,1709.9,202.6z"/>
					<path d="M1714.6,203.5c0.4,0,0.8-0.1,1-0.3l-0.5-0.7c-0.3,0.2-1.1,0.1-2.1-0.3c-3.5-1.4-8.9-6.3-9.3-10.1l0-0.2
						c-1-1.8-0.9-4.4-0.9-4.5l-0.8,0c0,0.1-0.1,2.8,1,4.8c0.5,4.2,6.2,9.2,9.8,10.7C1713.5,203.3,1714.1,203.5,1714.6,203.5z"/>
					<path d="M1719.4,204.3c0.5,0,0.9-0.1,1.2-0.4l-0.5-0.7c-0.4,0.3-1.3,0.2-2.4-0.3c-3.8-1.5-9.8-6.4-10.3-10.2l-0.1-0.2
						c-1.1-1.8-1.1-4.6-1.1-4.6l-0.9,0c0,0.1,0,2.9,1.2,5c0.7,4.2,7,9.3,10.9,10.8C1718.1,204.2,1718.8,204.3,1719.4,204.3z"/>
					<path d="M1724.2,205.1c0.6,0,1-0.1,1.4-0.4l-0.6-0.7c-0.4,0.4-1.5,0.3-2.8-0.2c-4.5-1.6-10.7-6.8-11.4-10.4l-0.1-0.2
						c-1.3-1.9-1.3-4.7-1.3-4.8l-0.9,0c0,0.1,0,3.1,1.4,5.2c0.9,4.1,7.7,9.4,12,11C1722.8,205,1723.6,205.1,1724.2,205.1z"/>
					<path d="M1729,205.9c0.6,0,1.2-0.2,1.5-0.5l-0.6-0.7c-0.5,0.4-1.6,0.3-3.1-0.2c-4.8-1.6-11.7-7-12.5-10.6l-0.1-0.2
						c-1.4-2-1.5-4.9-1.5-4.9l-0.9,0c0,0.1,0,3.2,1.6,5.4c1.1,4.2,8.5,9.6,13.1,11.1C1727.5,205.8,1728.4,205.9,1729,205.9z"/>
					<path d="M1733.9,206.7c0.7,0,1.3-0.2,1.7-0.5l-0.6-0.7c-0.6,0.4-1.8,0.4-3.4-0.1c-5.1-1.6-12.7-7.1-13.7-10.8l-0.1-0.2
						c-1.6-2-1.7-5-1.7-5.1l-0.9,0c0,0.1,0.1,3.3,1.8,5.5c1.2,4,8.9,9.6,14.2,11.3C1732.3,206.5,1733.2,206.7,1733.9,206.7z"/>
					<path d="M1738.7,207.4c0.8,0,1.4-0.2,1.9-0.6l-0.6-0.7c-0.6,0.5-1.9,0.5-3.7-0.1c-5.3-1.6-13.7-7.3-14.9-11l-0.1-0.2
						c-1.7-2.1-1.9-5.2-1.9-5.2l-0.9,0c0,0.1,0.1,3.4,2,5.7c1.4,4,9.8,9.8,15.5,11.5C1737.1,207.2,1738,207.4,1738.7,207.4z"/>
					<path d="M1743.6,208c0.9,0,1.6-0.2,2.1-0.6l-0.6-0.7c-0.6,0.5-2,0.5-3.9,0c-6.1-1.7-14.8-7.7-16.1-11.2l-0.1-0.2
						c-1.9-2.1-2-5.3-2-5.4l-1,0c0,0.1,0.2,3.5,2.2,5.9c1.6,4,10.8,10.1,16.7,11.7C1741.9,207.9,1742.8,208,1743.6,208z"/>
					<path d="M1748.4,208.6c1,0,1.7-0.2,2.3-0.6l-0.6-0.8c-0.7,0.5-2.1,0.6-4.1,0.1c-6.3-1.6-15.9-7.9-17.4-11.4l-0.1-0.1
						c-2-2.2-2.2-5.5-2.2-5.5l-1,0c0,0.1,0.2,3.6,2.4,6.1c1.8,4.1,11.9,10.4,18,11.9C1746.8,208.5,1747.7,208.6,1748.4,208.6z"/>
					<path d="M1753.4,209.2c1,0,1.8-0.2,2.4-0.7l-0.6-0.8c-0.5,0.4-1.5,0.6-2.8,0.4c-6.2-0.9-17.7-8.4-20.2-11.9
						c-1.8-2.6-2.5-5.8-2.5-5.8l-1,0.2c0,0.1,0.7,3.4,2.6,6.2c2.8,4,14.6,11.5,20.8,12.3C1752.6,209.1,1753,209.2,1753.4,209.2z"/>
					<path d="M1758.2,209.7c1.1,0,1.9-0.2,2.6-0.7l-0.6-0.8c-0.6,0.5-1.6,0.6-2.9,0.4c-6.5-0.8-18.8-8.5-21.4-12.1
						c-2-2.7-2.7-5.9-2.7-6l-1,0.2c0,0.1,0.7,3.5,2.8,6.4c2.7,3.7,15.4,11.7,22.1,12.5C1757.5,209.6,1757.9,209.7,1758.2,209.7z"/>
					<path d="M1763,210.1c1.2,0,2.1-0.3,2.7-0.8l-0.7-0.8c-0.6,0.5-1.6,0.7-3.1,0.5c-6.6-0.8-19.9-8.7-22.8-12.3
						c-2.2-2.8-2.9-6.1-2.9-6.1l-1,0.2c0,0.1,0.7,3.6,3.1,6.6c3,3.8,16.5,11.9,23.4,12.7C1762.3,210,1762.7,210.1,1763,210.1z"/>
					<path d="M1767.7,210.4c1.2,0,2.3-0.3,3-0.8l-0.7-0.8c-4.2,3.4-23.9-7.9-27.3-12c-2.3-2.8-3-6.2-3-6.3l-1,0.2
						c0,0.2,0.8,3.7,3.3,6.7C1744.9,201,1760.2,210.4,1767.7,210.4z"/>
					<path d="M1772.5,210.6c1.3,0,2.4-0.3,3.1-0.9l-0.7-0.8c-4.4,3.6-25-7.9-28.7-12.1c-2.5-2.9-3.2-6.4-3.2-6.4l-1.1,0.2
						c0,0.2,0.8,3.8,3.5,6.9C1748.6,201.1,1764.7,210.6,1772.5,210.6z"/>
					<path d="M1777.1,210.8c1.4,0,2.6-0.3,3.4-0.9l-0.7-0.9c-1.9,1.6-7.7,0.4-15.3-3.1c-6.9-3.2-13.1-7.2-14.9-9.1
						c-2.7-2.9-3.4-6.5-3.4-6.6l-1.1,0.2c0,0.2,0.8,4,3.7,7.1C1752.2,201.2,1768.9,210.8,1777.1,210.8z"/>
					<path d="M1784.4,210.6c1.5,0,2.7-0.3,3.6-1l-0.7-0.9c-4.7,3.8-27.3-8-31.6-12.4c-2.8-3-3.6-6.7-3.6-6.7l-1.1,0.2
						c0,0.2,0.8,4.1,3.9,7.3c2.2,2.3,9.4,6.6,15.9,9.5C1775.2,208.6,1780.5,210.6,1784.4,210.6z"/>
					<path d="M1791.3,209.8c1.6,0,2.9-0.3,3.8-1l-0.7-0.9c-5.1,4.1-28.8-8.3-33.1-12.5c-3-3-3.8-6.8-3.8-6.9l-1.1,0.2
						c0,0.2,0.8,4.2,4.1,7.5C1763.9,199.4,1782.2,209.8,1791.3,209.8z"/>
					<path d="M1797.6,208.5c1.7,0,3.1-0.3,4-1.1l-0.7-0.9c-2.3,1.8-8.7,0.7-17.6-3.1c-7.5-3.2-14.8-7.5-17-9.5c-3.2-3-4-7-4-7
						l-1.1,0.2c0,0.2,0.8,4.4,4.3,7.7C1769.2,198.1,1788.1,208.5,1797.6,208.5z"/>
					<path d="M1803.2,206.8c1.8,0,3.2-0.3,4.2-1.2l-0.7-0.9c-5.4,4.4-31.1-8.4-36-12.8c-3.4-3.1-4.2-7.1-4.2-7.2l-1.2,0.2
						c0,0.2,0.9,4.5,4.5,7.8c2.3,2.1,10.1,6.6,18,9.9C1792.9,204.7,1798.9,206.8,1803.2,206.8z"/>
					<path d="M1808.1,204.8c1.8,0,3.4-0.4,4.5-1.2l-0.8-0.9c-5.8,4.7-32.9-9.1-37.4-12.9c-3.6-3.1-4.4-7.3-4.4-7.3l-1.2,0.2
						c0,0.2,0.9,4.6,4.8,8c2.5,2.1,10.6,6.7,18.7,10C1797.4,202.7,1803.6,204.8,1808.1,204.8z"/>
					<path d="M1812.4,202.6c2,0,3.6-0.4,4.7-1.3l-0.8-0.9c-6.1,4.9-34-9-38.9-13.1c-3.7-3.1-4.5-7.4-4.5-7.5l-1.2,0.2
						c0,0.2,0.9,4.8,5,8.2C1780.3,191.2,1801.6,202.6,1812.4,202.6z"/>
					<path d="M1816.1,200.2c2.1,0,3.8-0.4,4.9-1.3l-0.8-1c-6.3,5.1-35.1-9-40.3-13.2c-3.9-3.2-4.7-7.6-4.7-7.6l-1.2,0.2
						c0,0.2,0.9,4.9,5.2,8.4C1783.1,188.8,1804.9,200.2,1816.1,200.2z"/>
					<path d="M1819.1,197.8c2.2,0,4-0.4,5.2-1.4l-0.8-1c-6.5,5.2-36.1-9-41.8-13.4c-4.1-3.2-4.9-7.7-4.9-7.8l-1.2,0.2
						c0,0.2,0.9,5.1,5.4,8.6C1785.3,186.4,1807.6,197.8,1819.1,197.8z"/>
					<path d="M1821.7,195.4c2.2,0,4.1-0.4,5.4-1.4l-0.8-1c-2.8,2.3-10.7,1.2-22-3.2c-9.6-3.7-18.6-8.4-21.2-10.3
						c-4.3-3.2-5.1-7.9-5.1-7.9l-1.3,0.2c0,0.2,0.9,5.2,5.6,8.7c2.6,1.9,11.7,6.8,21.5,10.5C1809.6,193.3,1816.6,195.4,1821.7,195.4
						z"/>
					<path d="M1823.6,193.2c2.3,0,4.3-0.4,5.6-1.5l-0.8-1c-6.7,5.4-38.3-9-44.7-13.6c-4.4-3.2-5.3-8-5.3-8.1l-1.3,0.2
						c0,0.2,0.9,5.4,5.8,8.9c2.7,2,12.2,6.9,22.2,10.6C1811.2,191,1818.4,193.2,1823.6,193.2z"/>
					<path d="M1825,191.2c2.5,0,4.5-0.5,5.8-1.5l-0.8-1c-7.2,5.8-40.5-9.8-46.1-13.8c-4.6-3.2-5.5-8.2-5.5-8.2l-1.3,0.2
						c0,0.2,0.9,5.6,6,9.1C1787.5,179,1812.3,191.2,1825,191.2z"/>
					<path d="M1825.9,189.5c2.6,0,4.7-0.5,6-1.6l-0.8-1c-7.4,5.9-41.5-9.8-47.6-13.9c-4.8-3.2-5.7-8.3-5.7-8.4l-1.3,0.2
						c0,0.2,0.9,5.7,6.2,9.3C1787.5,177.3,1812.8,189.5,1825.9,189.5z"/>
					<path d="M1826.2,188.2c2.7,0,4.9-0.5,6.3-1.6l-0.9-1.1c-7.4,6-41.9-9.4-49-14c-5-3.3-5.8-8.5-5.9-8.5l-1.3,0.2
						c0,0.2,0.9,5.9,6.5,9.5C1787,175.9,1812.8,188.2,1826.2,188.2z"/>
				</g>
				<g>
					<path d="M1674.7,195.6c0.1-0.1,2.9-3.1,4-8.9l0.6-3.3l-0.7-0.1l-0.6,3.3c-1.1,5.6-3.8,8.6-3.8,8.6L1674.7,195.6z"/>
					<path d="M1670.2,194.9c0.6-0.1,4.1-3.2,5.6-8.6c0.4-1.5,0.9-3.4,0.9-3.4l-0.7-0.2c0,0-0.5,2-0.9,3.4c-1.4,5.1-4.5,7.9-5,8.1
						c0.1,0,0.2,0,0.3,0.2l-0.6,0.3L1670.2,194.9z"/>
					<path d="M1665.8,194.1C1665.8,194.1,1665.8,194.1,1665.8,194.1c1.1-0.1,5.2-3.2,7-8.2c0.5-1.5,1.1-3.5,1.1-3.5l-0.7-0.2
						c0,0-0.6,2-1.1,3.5c-1.7,5-5.7,7.7-6.3,7.7l0,0c0,0,0.1,0,0.2,0.1l-0.6,0.4C1665.4,193.9,1665.5,194.1,1665.8,194.1z"/>
					<path d="M1661.4,193.2C1661.4,193.2,1661.4,193.2,1661.4,193.2c1.6-0.1,6.3-3.1,8.3-7.8c0.6-1.5,1.4-3.6,1.4-3.6l-0.7-0.2
						c0,0-0.7,2.1-1.4,3.6c-2.1,4.9-7,7.6-7.7,7.4c0,0,0,0,0.1,0.1l-0.6,0.4C1660.8,193,1661,193.2,1661.4,193.2z"/>
					<path d="M1657,192.3C1657,192.3,1657,192.3,1657,192.3c2.1-0.1,7.4-3.2,9.5-7.5c0.8-1.5,1.6-3.7,1.6-3.7l-0.7-0.3
						c0,0-0.8,2.1-1.6,3.6c-1.8,3.6-6,6.4-8.3,7c-0.6,0.1-0.8,0-0.8,0l-0.6,0.4C1656.3,192.1,1656.5,192.3,1657,192.3z"/>
					<path d="M1652.6,191.3c2.3,0,8.3-2.9,10.7-7.1c0.9-1.6,1.8-3.7,1.9-3.8l-0.7-0.3c0,0-1,2.2-1.8,3.7c-2.3,3.9-7.9,6.8-10,6.8h0
						c-0.3,0-0.5-0.1-0.5-0.1l-0.7,0.4C1651.7,191.2,1652.1,191.3,1652.6,191.3L1652.6,191.3z"/>
					<path d="M1648.3,190.4c3,0,9.3-3,11.8-6.8c1.1-1.6,2.1-3.8,2.1-3.9l-0.7-0.3c0,0-1.1,2.2-2.1,3.8c-2.5,3.8-8.7,6.5-11.1,6.5
						c0,0-0.1,0-0.1,0c-0.4,0-0.6-0.1-0.7-0.2l-0.7,0.4c0.2,0.4,0.7,0.6,1.4,0.6C1648.2,190.4,1648.2,190.4,1648.3,190.4z"/>
					<path d="M1644.2,189.4c0.1,0,0.2,0,0.3,0c3.8-0.1,10.4-2.8,12.3-6.5c1.5-1.5,2.4-3.9,2.4-4l-0.8-0.3c0,0-0.8,2.4-2.3,3.7
						l-0.1,0.1c-1.7,3.5-8.1,6-11.6,6.1c-1.1,0-1.6-0.2-1.7-0.4l-0.7,0.4C1642.3,189.1,1643.1,189.4,1644.2,189.4z"/>
					<path d="M1640,188.4c0.1,0,0.1,0,0.2,0c4.1-0.1,11.3-2.5,13.3-6.3c1.7-1.5,2.6-4,2.7-4.1l-0.8-0.3c0,0-0.9,2.5-2.5,3.8
						l-0.1,0.1c-1.8,3.4-8.8,5.8-12.6,5.9c-1.3,0-2-0.3-2.2-0.5l-0.7,0.4C1637.6,188.1,1638.5,188.4,1640,188.4z"/>
					<path d="M1635.7,187.3c4.3,0,12.2-2.4,14.4-6c1.9-1.5,2.9-4.1,2.9-4.2l-0.8-0.3c0,0-1,2.6-2.7,3.9l-0.1,0.1
						c-1.9,3.3-9.5,5.6-13.7,5.6h0c-1.4,0-2.3-0.3-2.6-0.7l-0.7,0.4C1632.8,186.9,1633.9,187.3,1635.7,187.3L1635.7,187.3z"/>
					<path d="M1631.5,186.2c4.7,0,12.8-2.2,15.2-5.7c2.1-1.5,3.1-4.2,3.2-4.3l-0.8-0.3c0,0-1.1,2.7-2.9,4l-0.1,0.1
						c-2.1,3.3-10.2,5.5-14.8,5.4c-1.6,0-2.6-0.3-2.9-0.8l-0.8,0.4c0.5,0.8,1.7,1.2,3.6,1.3C1631.3,186.2,1631.4,186.2,1631.5,186.2
						z"/>
					<path d="M1627.4,185.1c5.1,0,13.5-2.1,15.9-5.5c2.2-1.5,3.4-4.3,3.4-4.4l-0.8-0.3c0,0-1.1,2.7-3.2,4l-0.1,0.1
						c-2.1,3-10.7,5.4-15.9,5.1c-1.7-0.1-2.9-0.4-3.2-1l-0.8,0.4c0.5,0.9,1.8,1.4,4,1.5C1626.9,185.1,1627.1,185.1,1627.4,185.1z"/>
					<path d="M1623.2,184c5.4,0,14.2-2,16.7-5.2c2.4-1.5,3.6-4.4,3.7-4.5l-0.8-0.4c0,0-1.2,2.8-3.4,4.1l-0.1,0.1
						c-2.2,2.9-11.5,5.2-17.1,4.9c-1.9-0.1-3.1-0.5-3.5-1.2l-0.8,0.5c0.5,0.9,1.9,1.5,4.2,1.6C1622.4,184,1622.8,184,1623.2,184z"/>
					<path d="M1619.2,182.8c6.2,0,14.8-2.1,17.2-5c2.6-1.5,3.9-4.5,4-4.6l-0.9-0.4c0,0-1.3,2.9-3.6,4.2l-0.1,0.1
						c-2.4,2.9-12.5,5.1-18.3,4.6c-2-0.2-3.3-0.6-3.7-1.3l-0.8,0.5c0.6,1,2.1,1.6,4.4,1.8C1618,182.8,1618.6,182.8,1619.2,182.8z"/>
					<path d="M1615.2,181.6c6.4,0,15.3-2,17.9-4.7c2.8-1.5,4.2-4.6,4.2-4.7l-0.9-0.4c0,0-1.3,3-3.9,4.3l-0.1,0.1
						c-2.6,2.9-13.6,5-19.6,4.4c-2.1-0.2-3.5-0.7-3.9-1.5l-0.8,0.5c0.6,1,2.1,1.7,4.6,1.9C1613.5,181.5,1614.3,181.6,1615.2,181.6z"
						/>
					<path d="M1611.2,180.3c6.7,0,15.8-1.9,18.5-4.5c3-1.5,4.4-4.6,4.5-4.8l-0.9-0.4c0,0-1.4,3.1-4.1,4.3l-0.1,0.1
						c-2.6,2.7-14.2,5-21,4.1c-2.1-0.3-3.6-0.8-4-1.6l-0.8,0.5c0.6,1.1,2.2,1.8,4.7,2.1C1608.9,180.2,1610,180.3,1611.2,180.3z"/>
					<path d="M1606.3,178.9c7,0,16.8-2,19.9-4.1c2.8-1.9,4.6-4.7,4.7-4.8l-0.8-0.5c0,0-1.8,2.7-4.4,4.5c-3.4,2.3-17.6,5-23.9,3.5
						c-1.3-0.3-2.2-0.8-2.5-1.4l-0.9,0.5c0.5,0.9,1.6,1.5,3.2,1.9C1602.9,178.8,1604.5,178.9,1606.3,178.9z"/>
					<path d="M1602.6,177.6c7.5,0,17.3-2,20.3-3.9c3-1.9,4.9-4.8,5-4.9l-0.9-0.6c0,0-1.8,2.8-4.7,4.6c-3.7,2.3-18.6,4.9-25.3,3.2
						c-1.4-0.3-2.3-0.9-2.7-1.5l-0.9,0.5c0.5,0.9,1.6,1.6,3.3,2C1598.4,177.4,1600.4,177.6,1602.6,177.6z"/>
					<path d="M1598.7,176.2c7.8,0,17.8-1.9,20.9-3.7c3.2-1.9,5.2-4.9,5.2-5l-0.9-0.6c0,0-1.9,2.9-4.9,4.7c-4,2.3-19.7,4.7-26.6,2.9
						c-1.4-0.4-2.4-0.9-2.8-1.6l-0.9,0.5c0.5,0.9,1.7,1.6,3.4,2.1C1593.9,176,1596.2,176.2,1598.7,176.2z"/>
					<path d="M1595.2,174.8c8.1,0,18-1.8,21-3.5c3.4-1.9,5.4-5,5.5-5.1l-0.9-0.6c0,0-1.9,3-5.1,4.7c-5.1,2.8-28.2,5.5-30.8,0.9
						l-0.9,0.5C1585.2,174,1589.8,174.8,1595.2,174.8z"/>
					<path d="M1591.5,173.4c1.5,0,2.8-0.1,4-0.1c7.1-0.4,14.8-1.8,17.5-3.2c3.6-1.9,5.7-5,5.8-5.2l-0.9-0.6c0,0-2,3-5.4,4.8
						c-5.3,2.8-29.6,5.2-32.3,0.5l-0.9,0.5C1580.8,172.8,1586.5,173.4,1591.5,173.4z"/>
					<path d="M1587.1,171.6c8.8,0,19.1-1.7,21.9-3.1c3.8-1.9,5.9-5.1,6-5.3l-0.9-0.6c0,0-2,3.1-5.6,4.9c-5.3,2.6-30.8,5.2-33.8,0.1
						l-1,0.5C1575.3,170.7,1580.8,171.6,1587.1,171.6z"/>
					<path d="M1581.6,168.9c8.8,0,18.7-1.6,21.8-3c4-1.9,6.2-5.2,6.3-5.4l-0.9-0.6c0,0-2.1,3.2-5.8,4.9c-2.4,1.1-10.2,2.5-18.5,2.8
						c-9.2,0.3-15.4-0.8-16.7-3.1l-1,0.6C1568.4,167.9,1574.6,168.9,1581.6,168.9z"/>
					<path d="M1576.2,165.8c0.9,0,1.8,0,2.6,0c7.8-0.2,16.6-1.4,19.6-2.7c4.2-1.8,6.5-5.3,6.6-5.5l-1-0.6c0,0-2.1,3.3-6,5
						c-5.9,2.5-33.5,4.8-36.7-0.7l-1,0.6C1562.2,165.1,1569.5,165.8,1576.2,165.8z"/>
					<path d="M1571.7,162.7c9.4,0,19.5-1.5,22.4-2.6c4.4-1.8,6.7-5.4,6.8-5.5l-1-0.6c0,0-2.2,3.4-6.3,5.1
						c-2.7,1.1-11.3,2.3-19.9,2.5c-10.1,0.2-16.7-1.1-18.2-3.7l-1,0.6C1556.4,161.7,1563.8,162.7,1571.7,162.7z"/>
					<path d="M1568,159.6c9.4,0,19.4-1.4,22.4-2.5c4.7-1.8,7-5.5,7.1-5.6l-1-0.6c0,0-2.2,3.5-6.5,5.2c-2.8,1.1-11.8,2.3-20.7,2.4
						c-10.5,0.1-17.4-1.3-18.9-3.9l-1,0.6C1551.4,158.5,1559.5,159.6,1568,159.6z"/>
					<path d="M1565.2,156.3c9.4,0,19.2-1.2,22.2-2.3c4.9-1.7,7.2-5.6,7.3-5.7l-1-0.6c0,0-2.3,3.6-6.7,5.2c-6.5,2.3-37.5,4.3-41-2
						l-1,0.6C1546.9,155.2,1555.9,156.3,1565.2,156.3z"/>
					<path d="M1562.8,153.2c9.4,0,19-1.1,22.1-2.2c5.1-1.7,7.5-5.7,7.6-5.8l-1-0.6c0,0-2.3,3.8-7,5.3c-5.8,1.9-38.6,4.4-42.5-2.4
						l-1.1,0.6C1543.1,152,1552.9,153.2,1562.8,153.2z"/>
					<path d="M1560.5,150.2c9.9,0,19.8-1.2,22.5-2c5.3-1.6,7.8-5.7,7.9-5.9l-1.1-0.6c0,0-2.4,3.9-7.2,5.4c-6.2,2-39.9,4.2-43.9-2.8
						l-1.1,0.6C1540,148.9,1550.2,150.2,1560.5,150.2z"/>
					<path d="M1559.3,147.3c9.9,0,19.5-1.1,22.4-1.9c5.5-1.6,8-5.8,8.1-6l-1.1-0.6c0,0-2.5,4-7.4,5.4c-6.7,2-41.3,4-45.4-3.2
						l-1.1,0.6C1537.4,146,1548.5,147.3,1559.3,147.3z"/>
					<path d="M1559.2,144.6c9.7,0,19-0.9,21.8-1.7c5.7-1.6,8.3-5.9,8.4-6.1l-1.1-0.7c0,0-2.5,4.1-7.7,5.5
						c-6.9,1.9-42.7,3.7-46.9-3.7l-1.1,0.6C1535.3,143.2,1547.6,144.6,1559.2,144.6z"/>
					<path d="M1559.3,142.2c9.6,0,18.7-0.9,21.6-1.6c5.8-1.5,8.6-6,8.7-6.2l-1.1-0.7c0,0-2.6,4.2-7.9,5.6c-7.4,1.9-44,3.5-48.3-4.1
						l-1.1,0.6C1533.9,140.8,1547.1,142.2,1559.3,142.2z"/>
					<path d="M1560,140.2c9.5,0,18.3-0.8,21.3-1.5c6-1.5,8.8-6.1,8.9-6.3l-1.1-0.7c0,0-2.6,4.4-8.1,5.7c-7.9,1.9-45.3,3.3-49.8-4.5
						l-1.1,0.7C1533,138.7,1547.1,140.2,1560,140.2z"/>
					<path d="M1560.8,138.5c9.9,0,18.9-0.8,21.5-1.4c6.2-1.4,9.1-6.2,9.2-6.4l-1.2-0.7c0,0-2.7,4.5-8.3,5.7
						c-6.9,1.5-46.5,3.4-51.2-4.9l-1.2,0.7C1532.6,137,1547.5,138.5,1560.8,138.5z"/>
					<path d="M1562.8,137.3c9.6,0,18.1-0.7,20.9-1.3c6.4-1.3,9.3-6.3,9.5-6.5l-1.2-0.7c0,0-2.7,4.6-8.6,5.8
						c-7.4,1.5-47.8,3.2-52.7-5.3l-1.2,0.7C1532.8,135.8,1548.9,137.3,1562.8,137.3z"/>
				</g>
				<g>
					
						<ellipse transform="matrix(0.1858 -0.9826 0.9826 0.1858 1212.5909 1741.9885)" class="st1" cx="1657.4" cy="139.3" rx="9.8" ry="13.8"/>
					<path class="st1" d="M1593.6,125.5c-4.8-4-12.2-6.2-15.7-4.7c-3.5,1.6-4.1,10.6-0.8,15c3.3,4.5,13.5,8.9,20,4.5
						C1602.8,136.5,1597.4,128.7,1593.6,125.5z"/>
					<path class="st1" d="M1547.6,127.8c-4.2-4.9-8-5.5-10.2-5.6c-2.2-0.1-8.6,7.4-2.7,14.3c7.4,8.7,17,1.9,17.4,1
						C1552.5,136.5,1550.6,131.3,1547.6,127.8z"/>
					<path class="st1" d="M1528.2,138.4c-4-3.6-6-5.3-8.8-6c-2.8-0.7-4.2,6.8,2.1,12.1c4.6,3.9,12.5,3.1,12.9,1.8
						S1532.2,142,1528.2,138.4z"/>
				</g>
				<g>
					
						<ellipse transform="matrix(0.1858 -0.9826 0.9826 0.1858 1251.2607 1811.9183)" class="st3" cx="1718.9" cy="151" rx="9.8" ry="13.1"/>
					<path class="st3" d="M1780.2,160.8c5.7-2,12.9-1.5,15.5,1.2c2.6,2.7-0.2,11.3-4.6,14.3c-4.5,3-15.1,3.5-19.3-2.9
						C1768.1,167.8,1775.6,162.4,1780.2,160.8z"/>
					<path class="st3" d="M1820,179.3c5.4-3.1,9-2.2,11-1.6c2,0.6,5,9.9-2.7,14.3c-9.6,5.5-15.7-4.3-15.7-5.3
						C1812.5,185.7,1816.1,181.4,1820,179.3z"/>
					<path class="st3" d="M1833.4,196.1c4.8-1.9,7.2-2.8,9.9-2.4c2.7,0.4,1.3,7.8-6.2,10.6c-5.4,2-12.1-1.6-12-2.9
						C1825.2,200.1,1828.5,198,1833.4,196.1z"/>
				</g>
				<g>
					
						<ellipse transform="matrix(0.1858 -0.9826 0.9826 0.1858 1212.5909 1741.9885)" class="st3" cx="1657.4" cy="139.3" rx="9.8" ry="13.8"/>
					<path class="st3" d="M1593.6,125.5c-4.8-4-12.2-6.2-15.7-4.7c-3.5,1.6-4.1,10.6-0.8,15c3.3,4.5,13.5,8.9,20,4.5
						C1602.8,136.5,1597.4,128.7,1593.6,125.5z"/>
					<path class="st3" d="M1547.6,127.8c-4.2-4.9-8-5.5-10.2-5.6c-2.2-0.1-8.6,7.4-2.7,14.3c7.4,8.7,17,1.9,17.4,1
						C1552.5,136.5,1550.6,131.3,1547.6,127.8z"/>
					<path class="st3" d="M1528.2,138.4c-4-3.6-6-5.3-8.8-6c-2.8-0.7-4.2,6.8,2.1,12.1c4.6,3.9,12.5,3.1,12.9,1.8
						S1532.2,142,1528.2,138.4z"/>
				</g>
				<g>
					<polygon class="st1" points="1630.8,93.7 1613.9,91.2 1608.7,93.9 1625.6,96.3 					"/>
					<polygon class="st1" points="1654.5,100.4 1635.7,96.8 1640.2,93.9 1658.6,97.3 					"/>
					<path class="st1" d="M1688.1,101.8c-0.1,0.4-1.4,4.6-1.4,4.6l-20.4-3.9l1.4-4.6L1688.1,101.8z"/>
					<polygon class="st1" points="1751.2,118.5 1767.6,123 1771.4,127.5 1755,123 					"/>
					<polygon class="st1" points="1775.5,128.3 1791.9,132.8 1795.7,137.3 1779.3,132.8 					"/>
					<polygon class="st1" points="1726.9,115.3 1745.5,119.5 1742.4,114.9 1724.3,110.8 					"/>
					<path class="st1" d="M1695.5,103.2c-0.1,0.4-0.4,4.8-0.4,4.8l20.2,4.6l0.4-4.8L1695.5,103.2z"/>
				</g>
				<g>
					<polygon points="1630.9,92.7 1614.1,90.3 1608.8,93.2 1625.7,95.6 					"/>
					<polygon points="1654.6,99.6 1635.9,96 1640.4,92.8 1658.8,96.3 					"/>
					<path d="M1688.3,100.7c-0.1,0.4-1.5,4.9-1.5,4.9l-20.4-3.9l1.5-4.9L1688.3,100.7z"/>
					<polygon points="1751.3,117.7 1767.7,122.2 1771.5,127 1755.1,122.4 					"/>
					<polygon points="1775.6,127.8 1792,132.3 1795.7,137.1 1779.4,132.5 					"/>
					<polygon points="1727.1,114.5 1745.6,118.8 1742.6,114 1724.4,109.8 					"/>
					<path d="M1695.7,102.1c-0.1,0.4-0.4,5.1-0.4,5.1l20.2,4.6l0.4-5.1L1695.7,102.1z"/>
				</g>
				<polygon class="st3" points="1619.9,198.1 1648.6,137.1 1649.6,137.3 1650.5,137.5 				"/>
				<polygon class="st1" points="1631.4,181.1 1650.5,137.5 1651.4,137.8 1652.3,138 				"/>
				<polygon class="st1" points="1633.5,185.3 1652.3,138 1653.2,138.2 1654.2,138.4 				"/>
				<polygon class="st1" points="1636.3,185.9 1654.2,138.4 1655.1,138.6 1656,138.9 				"/>
				<polygon class="st1" points="1644.6,173.4 1656,138.9 1656.9,139.1 1657.9,139.3 				"/>
				<polygon class="st1" points="1647.4,174.2 1657.9,139.3 1658.8,139.5 1659.7,139.8 				"/>
				<polygon class="st1" points="1647.6,184.8 1659.7,139.8 1660.7,140 1661.6,140.2 				"/>
				<polygon class="st3" points="1646.2,201.4 1661.6,140.2 1662.5,140.4 1663.4,140.6 				"/>
				<polygon class="st3" points="1655.4,162.1 1660.7,140 1661.6,140.2 1662.5,140.4 				"/>
				<polygon class="st3" points="1650.9,168 1658.8,139.5 1659.7,139.8 1660.7,140 				"/>
				<polygon class="st3" points="1637.4,188.3 1655.1,138.6 1656,138.9 1656.9,139.1 				"/>
				<polygon class="st3" points="1642.7,186.4 1656.9,139.1 1657.9,139.3 1658.8,139.5 				"/>
				<polygon class="st3" points="1642.2,168 1653.2,138.2 1654.2,138.4 1655.1,138.6 				"/>
				<polygon class="st3" points="1641.4,162.9 1651.4,137.8 1652.3,138 1653.2,138.2 				"/>
				<polygon class="st3" points="1639.7,160.4 1649.6,137.3 1650.5,137.5 1651.4,137.8 				"/>
				<polygon class="st1" points="1711,195 1714,153.8 1714.9,153.8 1715.9,153.7 				"/>
				<polygon class="st1" points="1714.4,198 1715.9,153.7 1716.8,153.7 1717.7,153.6 				"/>
				<polygon class="st1" points="1717,197.8 1717.7,153.6 1718.6,153.6 1719.5,153.6 				"/>
				<polygon class="st1" points="1720.6,185.4 1719.5,153.6 1720.5,153.5 1721.4,153.5 				"/>
				<polygon class="st1" points="1723.4,185.3 1721.4,153.5 1722.3,153.5 1723.2,153.4 				"/>
				<polygon class="st3" points="1727.1,194.2 1723.2,153.4 1724.2,153.4 1725.1,153.3 				"/>
				<polygon class="st3" points="1731.4,208.5 1725.1,153.3 1726,153.3 1727,153.3 				"/>
				<polygon class="st3" points="1726.7,173.3 1724.2,153.4 1725.1,153.3 1726,153.3 				"/>
				<polygon class="st1" points="1776.9,205.5 1779.6,167.9 1780.5,167.8 1781.3,167.8 				"/>
				<polygon class="st1" points="1779.9,208.2 1781.3,167.8 1782.1,167.8 1783,167.7 				"/>
				<polygon class="st1" points="1782.4,208.1 1783,167.7 1783.8,167.7 1784.7,167.7 				"/>
				<polygon class="st1" points="1785.6,196.7 1784.7,167.7 1785.5,167.6 1786.3,167.6 				"/>
				<polygon class="st1" points="1788.2,196.6 1786.3,167.6 1787.2,167.6 1788,167.5 				"/>
				<polygon class="st1" points="1791.5,204.7 1788,167.5 1788.9,167.5 1789.7,167.5 				"/>
				<g>
					<polygon class="st3" points="1772.4,221 1778,167.9 1778.8,167.9 1779.6,167.9 					"/>
					<polygon class="st3" points="1795.4,217.8 1789.7,167.5 1790.6,167.4 1791.4,167.4 					"/>
					<polygon class="st3" points="1791.2,185.6 1788.9,167.5 1789.7,167.5 1790.6,167.4 					"/>
					<polygon class="st3" points="1789.2,191.1 1787.2,167.6 1788,167.5 1788.9,167.5 					"/>
					<polygon class="st3" points="1784.1,209.6 1783.8,167.7 1784.7,167.7 1785.5,167.6 					"/>
					<polygon class="st3" points="1788,207 1785.5,167.6 1786.3,167.6 1787.2,167.6 					"/>
					<polygon class="st3" points="1781.9,193 1782.1,167.8 1783,167.7 1783.8,167.7 					"/>
					<polygon class="st3" points="1779.7,189.3 1780.5,167.8 1781.3,167.8 1782.1,167.8 					"/>
					<polygon class="st3" points="1777.6,187.7 1778.8,167.9 1779.6,167.9 1780.5,167.8 					"/>
				</g>
				<polygon class="st3" points="1829.2,224.1 1832.2,195.8 1832.6,195.8 1833.1,195.8 				"/>
				<polygon class="st1" points="1831.6,215.9 1833.1,195.8 1833.5,195.8 1834,195.7 				"/>
				<polygon class="st1" points="1833.2,217.3 1834,195.7 1834.4,195.7 1834.9,195.7 				"/>
				<polygon class="st1" points="1834.5,217.2 1834.9,195.7 1835.3,195.7 1835.8,195.7 				"/>
				<polygon class="st1" points="1836.3,211.2 1835.8,195.7 1836.2,195.7 1836.7,195.6 				"/>
				<polygon class="st1" points="1837.6,211.1 1836.7,195.6 1837.1,195.6 1837.6,195.6 				"/>
				<polygon class="st1" points="1839.4,215.5 1837.6,195.6 1838,195.6 1838.5,195.6 				"/>
				<polygon class="st3" points="1841.5,222.4 1838.5,195.6 1838.9,195.5 1839.4,195.5 				"/>
				<polygon class="st3" points="1839.3,205.3 1838,195.6 1838.5,195.6 1838.9,195.5 				"/>
				<polygon class="st3" points="1838.2,208.2 1837.1,195.6 1837.6,195.6 1838,195.6 				"/>
				<polygon class="st3" points="1835.5,218.1 1835.3,195.7 1835.8,195.7 1836.2,195.7 				"/>
				<polygon class="st3" points="1837.5,216.7 1836.2,195.7 1836.7,195.6 1837.1,195.6 				"/>
				<polygon class="st3" points="1834.3,209.2 1834.4,195.7 1834.9,195.7 1835.3,195.7 				"/>
				<polygon class="st3" points="1833.1,207.2 1833.5,195.8 1834,195.7 1834.4,195.7 				"/>
				<polygon class="st3" points="1832,206.4 1832.6,195.8 1833.1,195.8 1833.5,195.8 				"/>
				<polygon class="st3" points="1557.1,174.4 1580.3,125.4 1581,125.6 1581.7,125.7 				"/>
				<polygon class="st1" points="1566.4,160.8 1581.7,125.7 1582.5,125.9 1583.2,126.1 				"/>
				<polygon class="st1" points="1568.1,164.2 1583.2,126.1 1583.9,126.3 1584.7,126.5 				"/>
				<polygon class="st1" points="1570.3,164.6 1584.7,126.5 1585.4,126.6 1586.2,126.8 				"/>
				<polygon class="st1" points="1577,154.6 1586.2,126.8 1586.9,127 1587.7,127.2 				"/>
				<polygon class="st1" points="1579.3,155.2 1587.7,127.2 1588.4,127.3 1589.2,127.5 				"/>
				<polygon class="st1" points="1579.4,163.8 1589.2,127.5 1589.9,127.7 1590.7,127.9 				"/>
				<polygon class="st3" points="1578.3,177.1 1590.7,127.9 1591.4,128.1 1592.2,128.2 				"/>
				<polygon class="st3" points="1585.7,145.5 1589.9,127.7 1590.7,127.9 1591.4,128.1 				"/>
				<polygon class="st3" points="1582.1,150.3 1588.4,127.3 1589.2,127.5 1589.9,127.7 				"/>
				<polygon class="st3" points="1571.2,166.6 1585.4,126.6 1586.2,126.8 1586.9,127 				"/>
				<polygon class="st3" points="1575.5,165.1 1586.9,127 1587.7,127.2 1588.4,127.3 				"/>
				<polygon class="st3" points="1575,150.2 1583.9,126.3 1584.7,126.5 1585.4,126.6 				"/>
				<polygon class="st3" points="1574.4,146.1 1582.5,125.9 1583.2,126.1 1583.9,126.3 				"/>
				<polygon class="st3" points="1573.1,144.1 1581,125.6 1581.7,125.7 1582.5,125.9 				"/>
				<polygon class="st3" points="1511.9,177.6 1535,128.6 1535.7,128.7 1536.5,128.9 				"/>
				<polygon class="st1" points="1521.1,164 1536.5,128.9 1537.2,129.1 1537.9,129.3 				"/>
				<polygon class="st1" points="1522.8,167.4 1537.9,129.3 1538.7,129.5 1539.4,129.6 				"/>
				<polygon class="st1" points="1525,167.8 1539.4,129.6 1540.2,129.8 1540.9,130 				"/>
				<polygon class="st1" points="1531.7,157.8 1540.9,130 1541.6,130.2 1542.4,130.3 				"/>
				<polygon class="st3" points="1534,158.4 1542.4,130.3 1543.1,130.5 1543.9,130.7 				"/>
				<polygon class="st1" points="1534.1,166.9 1543.9,130.7 1544.6,130.9 1545.4,131.1 				"/>
				<polygon class="st3" points="1533,180.3 1545.4,131.1 1546.1,131.2 1546.9,131.4 				"/>
				<polygon class="st3" points="1540.4,148.7 1544.6,130.9 1545.4,131.1 1546.1,131.2 				"/>
				<polygon class="st3" points="1536.8,153.4 1543.1,130.5 1543.9,130.7 1544.6,130.9 				"/>
				<polygon class="st3" points="1526,169.8 1540.2,129.8 1540.9,130 1541.6,130.2 				"/>
				<polygon class="st3" points="1530.2,168.2 1541.6,130.2 1542.4,130.3 1543.1,130.5 				"/>
				<polygon class="st3" points="1529.8,153.4 1538.7,129.5 1539.4,129.6 1540.2,129.8 				"/>
				<polygon class="st3" points="1529.2,149.3 1537.2,129.1 1537.9,129.3 1538.7,129.5 				"/>
				<polygon class="st3" points="1527.8,147.3 1535.7,128.7 1536.5,128.9 1537.2,129.1 				"/>
				<polygon class="st3" points="1503.5,170.6 1518.3,139.1 1518.8,139.2 1519.2,139.3 				"/>
				<polygon class="st1" points="1509.4,161.8 1519.2,139.3 1519.7,139.4 1520.2,139.5 				"/>
				<polygon class="st1" points="1510.5,164 1520.2,139.5 1520.7,139.6 1521.1,139.8 				"/>
				<polygon class="st1" points="1511.9,164.3 1521.1,139.8 1521.6,139.9 1522.1,140 				"/>
				<polygon class="st1" points="1516.2,157.8 1522.1,140 1522.6,140.1 1523.1,140.2 				"/>
				<polygon class="st1" points="1517.7,158.2 1523.1,140.2 1523.5,140.3 1524,140.4 				"/>
				<polygon class="st1" points="1517.8,163.7 1524,140.4 1524.5,140.6 1525,140.7 				"/>
				<polygon class="st3" points="1517.1,172.3 1525,140.7 1525.5,140.8 1525.9,140.9 				"/>
				<polygon class="st3" points="1521.8,152 1524.5,140.6 1525,140.7 1525.5,140.8 				"/>
				<polygon class="st3" points="1519.5,155 1523.5,140.3 1524,140.4 1524.5,140.6 				"/>
				<polygon class="st3" points="1512.5,165.5 1521.6,139.9 1522.1,140 1522.6,140.1 				"/>
				<polygon class="st3" points="1515.2,164.5 1522.6,140.1 1523.1,140.2 1523.5,140.3 				"/>
				<polygon class="st3" points="1515,155 1520.7,139.6 1521.1,139.8 1521.6,139.9 				"/>
				<polygon class="st3" points="1514.6,152.4 1519.7,139.4 1520.2,139.5 1520.7,139.6 				"/>
				<polygon class="st3" points="1513.7,151.1 1518.8,139.2 1519.2,139.3 1519.7,139.4 				"/>
				<polygon class="st3" points="1819.3,210 1822.2,181.7 1822.7,181.6 1823.1,181.6 				"/>
				<polygon class="st1" points="1821.7,201.7 1823.1,181.6 1823.6,181.6 1824,181.6 				"/>
				<polygon class="st1" points="1823.3,203.2 1824,181.6 1824.5,181.6 1824.9,181.6 				"/>
				<polygon class="st1" points="1824.6,203.1 1824.9,181.6 1825.3,181.5 1825.8,181.5 				"/>
				<polygon class="st1" points="1826.3,197 1825.8,181.5 1826.2,181.5 1826.7,181.5 				"/>
				<polygon class="st1" points="1827.7,197 1826.7,181.5 1827.1,181.5 1827.6,181.4 				"/>
				<polygon class="st1" points="1829.5,201.3 1827.6,181.4 1828.1,181.4 1828.5,181.4 				"/>
				<polygon class="st3" points="1831.6,208.3 1828.5,181.4 1829,181.4 1829.4,181.4 				"/>
				<polygon class="st3" points="1829.3,191.1 1828.1,181.4 1828.5,181.4 1829,181.4 				"/>
				<polygon class="st3" points="1828.2,194.1 1827.1,181.5 1827.6,181.4 1828.1,181.4 				"/>
				<polygon class="st3" points="1825.5,203.9 1825.3,181.5 1825.8,181.5 1826.2,181.5 				"/>
				<polygon class="st3" points="1827.6,202.5 1826.2,181.5 1826.7,181.5 1827.1,181.5 				"/>
				<polygon class="st3" points="1824.3,195.1 1824.5,181.6 1824.9,181.6 1825.3,181.5 				"/>
				<polygon class="st3" points="1823.2,193.1 1823.6,181.6 1824,181.6 1824.5,181.6 				"/>
				<polygon class="st3" points="1822,192.2 1822.7,181.6 1823.1,181.6 1823.6,181.6 				"/>
				<g>
					<polygon class="st3" points="1708.5,193.5 1712.8,152.2 1713.4,152.2 1714.1,152.2 					"/>
					<polygon class="st3" points="1726.4,191 1722,151.9 1722.6,151.8 1723.3,151.8 					"/>
					<polygon class="st3" points="1723.1,166 1721.3,151.9 1722,151.9 1722.6,151.8 					"/>
					<polygon class="st3" points="1721.5,170.3 1720,151.9 1720.6,151.9 1721.3,151.9 					"/>
					<polygon class="st3" points="1717.6,184.7 1717.4,152 1718,152 1718.7,152 					"/>
					<polygon class="st3" points="1720.6,182.7 1718.7,152 1719.3,152 1720,151.9 					"/>
					<polygon class="st3" points="1715.9,171.8 1716,152.1 1716.7,152.1 1717.4,152 					"/>
					<polygon class="st3" points="1714.2,168.9 1714.7,152.1 1715.4,152.1 1716,152.1 					"/>
					<polygon class="st3" points="1712.5,167.6 1713.4,152.2 1714.1,152.2 1714.7,152.1 					"/>
				</g>
			</g>
			<g>
				<line class="st5" x1="1785.7" y1="648.3" x2="1781.8" y2="586.2"/>
				<line class="st5" x1="1763.6" y1="638.4" x2="1760.6" y2="512.7"/>
				<path class="st5" d="M1745.1,648.3c-0.3-0.2,0-58.8,0-58.8"/>
				<path class="st5" d="M1736.3,542.1c0.3-1.2,0-43.9,0-43.9"/>
				<line class="st5" x1="1686.3" y1="661.7" x2="1689.6" y2="614.4"/>
				<line class="st5" x1="1689.6" y1="590.7" x2="1691.2" y2="542.1"/>
				<line class="st5" x1="1655.1" y1="691.3" x2="1667.2" y2="562.8"/>
				<path class="st5" d="M1636.6,711.2c0.3-1.2,5.5-58.2,5.5-58.2"/>
			</g>
			<g>
				<g>
					<path class="st6" d="M1749.2,649.1c0,0,11,15.1,14,22.2c2.9,7.1-103.7,45.2-103.7,45.2s-5.6,5.3-9.1-5.9s-2.5-18.7-2.5-18.7
						L1749.2,649.1z"/>
					<path class="st7" d="M1627.6,718.4c1.4,4.1,5.6,7.6,30.2,1.1c24.6-6.5,103.5-33.9,110.8-38.4c7.3-4.5,15.6-7.4,18-15.9
						c-8,5.8-13.9-0.8-13.9-0.8l-3.3-4.4c0,0,9.1,10.6-29.1,24.2c-38.1,13.6-83.2,35.6-88.1,29.3c-4.8-6.3-5.9-17.8-5.9-17.8
						S1624.6,709.7,1627.6,718.4z"/>
					<path class="st8" d="M1694.5,638.1c-16.9,8.7-47.7,27.9-47.3,38.9c0.3,11-1.5,19.3,10.9,19.5c11.7,0.2,27.4-3.1,46.8-12.6
						c19.4-9.4,37.9-18.9,42.4-23.6s5.3-13.8-8.8-20.7C1724.3,632.8,1712.7,628.8,1694.5,638.1z"/>
					<path class="st9" d="M1660.8,659.4c11.3-6.7,49.3-15.8,66.1-13c16.8,2.8,25.4,4.9,22.8,9.4c-2.6,4.5-11.2,12.9-37.3,24.3
						c-26,11.3-42.9,17.1-54.5,16.4s-10.7-5.5-10.8-12.5C1647.2,677,1653.1,664,1660.8,659.4z"/>
					<path class="st10" d="M1644.2,701.5c0,0-11.2,8.1-12.2,14.4c-1,6.3,3.6,7.9,9.6,6.9c6-0.9,69-20,86.7-26.3s45.9-15.7,51.2-21.5
						c5.4-5.9,7.1-9.8,7.1-9.8s-7.6,7.4-17.2-5.2c-1.2,9.2-8.2,15.9-36.1,26.8s-59.4,23.7-66.1,25.4c-6.6,1.8-14.5,4.5-16.8-1.7
						C1648.1,704.4,1644.2,701.5,1644.2,701.5z"/>
					<path class="st11" d="M1780.3,650.5c0,0,0.3,5.9-1.7,8.8c-1.2,1.8-1.9,5.1-3.1,6.2c-0.7,0.7-1.5,0.6-2.8-1.1
						c-3.3-4.4-4.4-6.2-3.2-7.9s7.3-6.7,7.3-6.7s-4.4-0.9-5.6-1.2s-2.4-4.2-1.2-2.1c1.2,2.1,4.8-0.2,4.8-0.2s-5.6-0.5-6.6-3
						c-0.9-2.5-0.9-14.1,0.9-15.9c1.7-1.7,10.9-9.9,12.7-11.6c1.8-1.7,5.5,0.1,5.5,0.1s4.9-1.9,6.8-0.2c1.8,1.7,4.4-0.1,5.5,1.7
						c1,1.8,4.4,4.1,4.8,5.4c0.4,1.3,6.5-0.6,1.8,9.1c5.6-0.7,8.1-2.1,5.6,3.1c-2.5,5.2-9.8,13.5-14.4,15.5s-8.5,1.4-9.2,3.9
						c-0.7,2.5,3.7,7.8-1.6,10.6c-5.3,2.8-9.2,2.3-9.2,2.3L1780.3,650.5z"/>
					<path class="st11" d="M1757.3,660.7c0,0,9.6-4.6,12.3-4.2"/>
					
						<ellipse transform="matrix(0.926 -0.3776 0.3776 0.926 -125.4007 686.0809)" class="st12" cx="1687.1" cy="662.9" rx="26.2" ry="10.1"/>
				</g>
			</g>
			<g>
				<line class="st13" x1="1596.5" y1="913.9" x2="1596.5" y2="50.9"/>
				<line class="st13" x1="1330.8" y1="482.4" x2="1862.3" y2="482.4"/>
			</g>
		</g>
	</g>
</g>
</svg>
