<?xml version="1.0" encoding="utf-8"?>
<!-- Generator: Adobe Illustrator 24.0.0, SVG Export Plug-In . SVG Version: 6.00 Build 0)  -->
<svg version="1.1" id="Layer_1" xmlns="http://www.w3.org/2000/svg" xmlns:xlink="http://www.w3.org/1999/xlink" x="0px" y="0px"
	 viewBox="0 0 1200 900" style="enable-background:new 0 0 1200 900;" xml:space="preserve">
<style type="text/css">
	.st0{clip-path:url(#SVGID_3_);}
	.st1{fill:none;stroke:#FFFFFF;stroke-width:1.1614;stroke-miterlimit:10;}
	.st2{fill:none;stroke:#FFFFFF;stroke-width:0.2903;stroke-miterlimit:10;}
	.st3{fill:#FFFFFF;}
	.st4{stroke:#FFFFFF;stroke-width:0.2694;stroke-miterlimit:10;}
	.st5{fill:none;stroke:#FFFFFF;stroke-width:0.5389;stroke-linecap:round;stroke-linejoin:round;stroke-miterlimit:10;}
</style>
<g>
	<g>
		<rect id="SVGID_1_" width="1200" height="900"/>
	</g>
	<g>
		<defs>
			<rect id="SVGID_2_" width="1200" height="900"/>
		</defs>
		<clipPath id="SVGID_3_">
			<use xlink:href="#SVGID_2_"  style="overflow:visible;"/>
		</clipPath>
		<g class="st0">
			<line class="st1" x1="390.8" y1="776.3" x2="805.3" y2="777.4"/>
			<line class="st1" x1="390.9" y1="732" x2="805.4" y2="733.1"/>
			<line class="st1" x1="391" y1="687.6" x2="805.5" y2="688.8"/>
			<line class="st1" x1="391.1" y1="643.3" x2="805.6" y2="644.4"/>
			<line class="st1" x1="391.2" y1="599" x2="805.7" y2="600.1"/>
			<line class="st1" x1="391.3" y1="554.7" x2="805.8" y2="555.8"/>
			<line class="st1" x1="391.4" y1="510.4" x2="805.9" y2="511.5"/>
			<line class="st1" x1="391.5" y1="466.1" x2="806" y2="467.2"/>
			<line class="st1" x1="391.6" y1="421.7" x2="806.2" y2="422.9"/>
			<line class="st1" x1="391.7" y1="377.4" x2="806.3" y2="378.5"/>
			<line class="st1" x1="391.9" y1="333.1" x2="806.4" y2="334.2"/>
			<line class="st1" x1="392" y1="288.8" x2="806.5" y2="289.9"/>
			<line class="st1" x1="392.1" y1="244.5" x2="806.6" y2="245.6"/>
			<line class="st1" x1="392.2" y1="200.2" x2="806.7" y2="201.3"/>
			<line class="st1" x1="392.3" y1="155.8" x2="806.8" y2="157"/>
			<line class="st1" x1="392.4" y1="111.5" x2="806.9" y2="112.6"/>
			<line class="st1" x1="392.5" y1="67.2" x2="807" y2="68.3"/>
			<line class="st2" x1="390.8" y1="754.8" x2="805.3" y2="755.9"/>
			<line class="st2" x1="390.9" y1="710.5" x2="805.4" y2="711.6"/>
			<line class="st2" x1="391" y1="666.2" x2="805.5" y2="667.3"/>
			<line class="st2" x1="391.1" y1="621.9" x2="805.7" y2="623"/>
			<line class="st2" x1="391.2" y1="577.6" x2="805.8" y2="578.7"/>
			<line class="st2" x1="391.3" y1="533.3" x2="805.9" y2="534.4"/>
			<line class="st2" x1="391.5" y1="488.9" x2="806" y2="490"/>
			<line class="st2" x1="391.6" y1="444.6" x2="806.1" y2="445.7"/>
			<line class="st2" x1="391.7" y1="400.3" x2="806.2" y2="401.4"/>
			<line class="st2" x1="391.8" y1="356" x2="806.3" y2="357.1"/>
			<line class="st2" x1="391.9" y1="311.7" x2="806.4" y2="312.8"/>
			<line class="st2" x1="392" y1="267.4" x2="806.5" y2="268.5"/>
			<line class="st2" x1="392.1" y1="223" x2="806.6" y2="224.1"/>
			<line class="st2" x1="392.2" y1="178.7" x2="806.7" y2="179.8"/>
			<line class="st2" x1="392.3" y1="134.4" x2="806.8" y2="135.5"/>
			<line class="st2" x1="392.4" y1="90.1" x2="806.9" y2="91.2"/>
			<path class="st3" d="M354.4,58.1L354.4,58.1l-2.3,1.2l-0.3-1.3l2.9-1.5h1.5v13h-1.7V58.1H354.4z"/>
			<path class="st3" d="M361.9,68.2c0.4,0,0.8,0,1.4-0.1c1-0.1,2-0.6,2.7-1.3c0.9-0.8,1.5-1.9,1.7-3.5h-0.1
				c-0.7,0.9-1.8,1.4-3.1,1.4c-2.4,0-3.9-1.8-3.9-4c0-2.5,1.8-4.6,4.5-4.6s4.3,2.2,4.3,5.5c0,2.9-1,4.9-2.3,6.1
				c-1,1-2.4,1.6-3.8,1.7c-0.6,0.1-1.2,0.1-1.6,0.1v-1.3H361.9z M362.6,60.7c0,1.6,1,2.8,2.5,2.8c1.2,0,2.1-0.6,2.6-1.4
				c0.1-0.2,0.2-0.4,0.2-0.6c0-2.2-0.8-3.9-2.7-3.9C363.7,57.6,362.6,58.9,362.6,60.7z"/>
			<path class="st3" d="M380,62.8c0,4.4-1.7,6.9-4.6,6.9c-2.6,0-4.3-2.4-4.3-6.7c0-4.4,1.9-6.8,4.6-6.8
				C378.4,56.2,380,58.7,380,62.8z M372.9,63c0,3.4,1,5.3,2.7,5.3c1.8,0,2.7-2.1,2.7-5.4c0-3.2-0.8-5.3-2.7-5.3
				C374,57.6,372.9,59.5,372.9,63z"/>
			<path class="st3" d="M354.4,102.5L354.4,102.5l-2.3,1.2l-0.3-1.3l2.9-1.5h1.5v13h-1.7v-11.4H354.4z"/>
			<path class="st3" d="M360.8,110.6c0-1.6,1-2.8,2.6-3.5V107c-1.5-0.7-2.1-1.8-2.1-2.9c0-2.1,1.8-3.5,4.1-3.5
				c2.5,0,3.8,1.6,3.8,3.2c0,1.1-0.5,2.3-2.2,3v0.1c1.6,0.6,2.6,1.8,2.6,3.4c0,2.3-2,3.8-4.5,3.8
				C362.4,114.1,360.8,112.5,360.8,110.6z M367.8,110.5c0-1.6-1.1-2.3-2.9-2.8c-1.5,0.4-2.4,1.4-2.4,2.7c-0.1,1.3,0.9,2.5,2.6,2.5
				C366.8,112.8,367.8,111.8,367.8,110.5z M362.9,104c0,1.3,1,2,2.5,2.4c1.1-0.4,2-1.2,2-2.4c0-1-0.6-2.1-2.2-2.1
				C363.7,101.9,362.9,102.9,362.9,104z"/>
			<path class="st3" d="M380,107.2c0,4.4-1.7,6.9-4.6,6.9c-2.6,0-4.3-2.4-4.3-6.7c0-4.4,1.9-6.8,4.6-6.8
				C378.4,100.7,380,103.1,380,107.2z M372.9,107.4c0,3.4,1,5.3,2.7,5.3c1.8,0,2.7-2.1,2.7-5.4c0-3.2-0.8-5.3-2.7-5.3
				C374,102,372.9,103.9,372.9,107.4z"/>
			<path class="st3" d="M354.4,146.9L354.4,146.9l-2.3,1.2l-0.3-1.3l2.9-1.5h1.5v13h-1.7v-11.4H354.4z"/>
			<path class="st3" d="M369.4,145.3v1.2l-5.7,11.8h-1.8l5.7-11.5l0,0h-6.4v-1.5L369.4,145.3L369.4,145.3z"/>
			<path class="st3" d="M380,151.6c0,4.4-1.7,6.9-4.6,6.9c-2.6,0-4.3-2.4-4.3-6.7c0-4.4,1.9-6.8,4.6-6.8
				C378.4,145.1,380,147.5,380,151.6z M372.9,151.8c0,3.4,1,5.3,2.7,5.3c1.8,0,2.7-2.1,2.7-5.4c0-3.2-0.8-5.3-2.7-5.3
				C374,146.4,372.9,148.3,372.9,151.8z"/>
			<path class="st3" d="M354.4,191.3L354.4,191.3l-2.3,1.2l-0.3-1.3l2.9-1.5h1.5v13h-1.7v-11.4H354.4z"/>
			<path class="st3" d="M368.4,190.9c-0.4,0-0.8,0-1.3,0.1c-2.8,0.5-4.3,2.5-4.6,4.6h0.1c0.6-0.8,1.7-1.5,3.2-1.5c2.3,0,4,1.7,4,4.2
				c0,2.4-1.6,4.6-4.4,4.6s-4.6-2.2-4.6-5.5c0-2.6,0.9-4.6,2.2-5.9c1.1-1.1,2.5-1.7,4.2-1.9c0.5-0.1,1-0.1,1.3-0.1v1.4H368.4z
				 M367.9,198.4c0-1.9-1.1-3-2.7-3c-1.1,0-2.1,0.7-2.5,1.6c-0.1,0.2-0.2,0.5-0.2,0.8c0,2.1,1,3.7,2.9,3.7
				C366.9,201.5,367.9,200.3,367.9,198.4z"/>
			<path class="st3" d="M380,196.1c0,4.4-1.7,6.9-4.6,6.9c-2.6,0-4.3-2.4-4.3-6.7c0-4.4,1.9-6.8,4.6-6.8
				C378.4,189.5,380,191.9,380,196.1z M372.9,196.3c0,3.4,1,5.3,2.7,5.3c1.8,0,2.7-2.1,2.7-5.4c0-3.2-0.8-5.3-2.7-5.3
				C374,190.8,372.9,192.7,372.9,196.3z"/>
			<path class="st3" d="M354.4,235.8L354.4,235.8l-2.3,1.2l-0.3-1.3l2.9-1.5h1.5v13h-1.7v-11.4H354.4z"/>
			<path class="st3" d="M368.7,235.6h-5l-0.5,3.3c0.3,0,0.6-0.1,1.1-0.1c1,0,2,0.2,2.8,0.7c1,0.6,1.9,1.7,1.9,3.3
				c0,2.5-2,4.4-4.9,4.4c-1.4,0-2.6-0.4-3.3-0.8l0.4-1.3c0.5,0.3,1.6,0.7,2.8,0.7c1.7,0,3.1-1.1,3.1-2.8c0-1.7-1.2-2.9-3.8-2.9
				c-0.7,0-1.3,0.1-1.8,0.1l0.8-6.2h6.3v1.6H368.7z"/>
			<path class="st3" d="M380,240.5c0,4.4-1.7,6.9-4.6,6.9c-2.6,0-4.3-2.4-4.3-6.7c0-4.4,1.9-6.8,4.6-6.8
				C378.4,233.9,380,236.3,380,240.5z M372.9,240.7c0,3.4,1,5.3,2.7,5.3c1.8,0,2.7-2.1,2.7-5.4c0-3.2-0.8-5.3-2.7-5.3
				C374,235.3,372.9,237.1,372.9,240.7z"/>
			<path class="st3" d="M354.4,280.2L354.4,280.2l-2.3,1.2l-0.3-1.3l2.9-1.5h1.5v13h-1.7v-11.4H354.4z"/>
			<path class="st3" d="M366.4,291.5V288h-6.1v-1.2l5.9-8.3h1.9v8.1h1.8v1.4h-1.8v3.5H366.4z M366.4,286.6v-4.3c0-0.7,0-1.4,0.1-2
				h-0.1c-0.4,0.8-0.7,1.3-1.1,1.9l-3.2,4.4l0,0H366.4z"/>
			<path class="st3" d="M380,284.9c0,4.4-1.7,6.9-4.6,6.9c-2.6,0-4.3-2.4-4.3-6.7c0-4.4,1.9-6.8,4.6-6.8
				C378.4,278.3,380,280.8,380,284.9z M372.9,285.1c0,3.4,1,5.3,2.7,5.3c1.8,0,2.7-2.1,2.7-5.4c0-3.2-0.8-5.3-2.7-5.3
				C374,279.7,372.9,281.6,372.9,285.1z"/>
			<path class="st3" d="M354.4,324.6L354.4,324.6l-2.3,1.2l-0.3-1.3l2.9-1.5h1.5v13h-1.7v-11.4H354.4z"/>
			<path class="st3" d="M361.3,333.9c0.5,0.3,1.7,0.8,2.9,0.8c2.3,0,3-1.4,3-2.5c0-1.8-1.7-2.6-3.4-2.6h-1v-1.3h1
				c1.3,0,2.9-0.7,2.9-2.2c0-1-0.7-2-2.3-2c-1,0-2.1,0.5-2.6,0.9l-0.5-1.3c0.7-0.5,2-1,3.4-1c2.6,0,3.8,1.5,3.8,3.1
				c0,1.3-0.8,2.5-2.4,3.1l0,0c1.6,0.3,2.9,1.5,2.9,3.3c0,2.1-1.6,3.9-4.8,3.9c-1.5,0-2.8-0.5-3.4-0.9L361.3,333.9z"/>
			<path class="st3" d="M380,329.3c0,4.4-1.7,6.9-4.6,6.9c-2.6,0-4.3-2.4-4.3-6.7c0-4.4,1.9-6.8,4.6-6.8
				C378.4,322.7,380,325.2,380,329.3z M372.9,329.5c0,3.4,1,5.3,2.7,5.3c1.8,0,2.7-2.1,2.7-5.4c0-3.2-0.8-5.3-2.7-5.3
				C374,324.1,372.9,326,372.9,329.5z"/>
			<path class="st3" d="M354.4,369L354.4,369l-2.3,1.2l-0.3-1.3l2.9-1.5h1.5v13h-1.7V369H354.4z"/>
			<path class="st3" d="M360.9,380.4v-1.1l1.4-1.3c3.4-3.2,4.9-4.8,4.9-6.8c0-1.3-0.6-2.5-2.6-2.5c-1.2,0-2.2,0.6-2.8,1.1l-0.6-1.2
				c0.9-0.8,2.2-1.3,3.7-1.3c2.8,0,4,1.9,4,3.8c0,2.4-1.8,4.3-4.5,7l-1,1l0,0h5.9v1.5h-8.4V380.4z"/>
			<path class="st3" d="M380,373.7c0,4.4-1.7,6.9-4.6,6.9c-2.6,0-4.3-2.4-4.3-6.7c0-4.4,1.9-6.8,4.6-6.8
				C378.4,367.2,380,369.6,380,373.7z M372.9,373.9c0,3.4,1,5.3,2.7,5.3c1.8,0,2.7-2.1,2.7-5.4c0-3.2-0.8-5.3-2.7-5.3
				C374,368.5,372.9,370.4,372.9,373.9z"/>
			<path class="st3" d="M354.4,413.4L354.4,413.4l-2.3,1.2l-0.3-1.3l2.9-1.5h1.5v13h-1.7v-11.4H354.4z"/>
			<path class="st3" d="M364.8,413.4L364.8,413.4l-2.3,1.2l-0.3-1.3l2.9-1.5h1.5v13h-1.7v-11.4H364.8z"/>
			<path class="st3" d="M380,418.1c0,4.4-1.7,6.9-4.6,6.9c-2.6,0-4.3-2.4-4.3-6.7c0-4.4,1.9-6.8,4.6-6.8
				C378.4,411.6,380,414,380,418.1z M372.9,418.3c0,3.4,1,5.3,2.7,5.3c1.8,0,2.7-2.1,2.7-5.4c0-3.2-0.8-5.3-2.7-5.3
				C374,412.9,372.9,414.8,372.9,418.3z"/>
			<path class="st3" d="M354.4,457.8L354.4,457.8l-2.3,1.2l-0.3-1.3l2.9-1.5h1.5v13h-1.7v-11.4H354.4z"/>
			<path class="st3" d="M369.6,462.6c0,4.4-1.7,6.9-4.6,6.9c-2.6,0-4.3-2.4-4.3-6.7c0-4.4,1.9-6.8,4.6-6.8
				C368.1,456,369.6,458.4,369.6,462.6z M362.5,462.8c0,3.4,1,5.3,2.7,5.3c1.8,0,2.7-2.1,2.7-5.4c0-3.2-0.8-5.3-2.7-5.3
				C363.6,457.3,362.5,459.2,362.5,462.8z"/>
			<path class="st3" d="M380,462.6c0,4.4-1.7,6.9-4.6,6.9c-2.6,0-4.3-2.4-4.3-6.7c0-4.4,1.9-6.8,4.6-6.8
				C378.4,456,380,458.4,380,462.6z M372.9,462.8c0,3.4,1,5.3,2.7,5.3c1.8,0,2.7-2.1,2.7-5.4c0-3.2-0.8-5.3-2.7-5.3
				C374,457.3,372.9,459.2,372.9,462.8z"/>
			<path class="st3" d="M361.9,512.4c0.4,0,0.8,0,1.4-0.1c1-0.1,2-0.6,2.7-1.3c0.9-0.8,1.5-1.9,1.7-3.5h-0.1
				c-0.7,0.9-1.8,1.4-3.1,1.4c-2.4,0-3.9-1.8-3.9-4c0-2.5,1.8-4.6,4.5-4.6s4.3,2.2,4.3,5.5c0,2.9-1,4.9-2.3,6.1
				c-1,1-2.4,1.6-3.8,1.7c-0.6,0.1-1.2,0.1-1.6,0.1v-1.3H361.9z M362.6,504.9c0,1.6,1,2.8,2.5,2.8c1.2,0,2.1-0.6,2.6-1.4
				c0.1-0.2,0.2-0.4,0.2-0.6c0-2.2-0.8-3.9-2.7-3.9C363.7,501.7,362.6,503.1,362.6,504.9z"/>
			<path class="st3" d="M380,507c0,4.4-1.7,6.9-4.6,6.9c-2.6,0-4.3-2.4-4.3-6.7c0-4.4,1.9-6.8,4.6-6.8
				C378.4,500.4,380,502.8,380,507z M372.9,507.2c0,3.4,1,5.3,2.7,5.3c1.8,0,2.7-2.1,2.7-5.4c0-3.2-0.8-5.3-2.7-5.3
				C374,501.8,372.9,503.6,372.9,507.2z"/>
			<path class="st3" d="M360.8,554.7c0-1.6,1-2.8,2.6-3.5v-0.1c-1.5-0.7-2.1-1.8-2.1-2.9c0-2.1,1.8-3.5,4.1-3.5
				c2.5,0,3.8,1.6,3.8,3.2c0,1.1-0.5,2.3-2.2,3v0.1c1.6,0.6,2.6,1.8,2.6,3.4c0,2.3-2,3.8-4.5,3.8
				C362.4,558.2,360.8,556.6,360.8,554.7z M367.8,554.6c0-1.6-1.1-2.3-2.9-2.8c-1.5,0.4-2.4,1.4-2.4,2.7c-0.1,1.3,0.9,2.5,2.6,2.5
				C366.8,557,367.8,556,367.8,554.6z M362.9,548.2c0,1.3,1,2,2.5,2.4c1.1-0.4,2-1.2,2-2.4c0-1-0.6-2.1-2.2-2.1
				C363.7,546.1,362.9,547,362.9,548.2z"/>
			<path class="st3" d="M380,551.4c0,4.4-1.7,6.9-4.6,6.9c-2.6,0-4.3-2.4-4.3-6.7c0-4.4,1.9-6.8,4.6-6.8
				C378.4,544.8,380,547.3,380,551.4z M372.9,551.6c0,3.4,1,5.3,2.7,5.3c1.8,0,2.7-2.1,2.7-5.4c0-3.2-0.8-5.3-2.7-5.3
				C374,546.2,372.9,548.1,372.9,551.6z"/>
			<path class="st3" d="M369.4,589.5v1.2l-5.7,11.8h-1.8l5.7-11.5l0,0h-6.4v-1.5H369.4z"/>
			<path class="st3" d="M380,595.8c0,4.4-1.7,6.9-4.6,6.9c-2.6,0-4.3-2.4-4.3-6.7c0-4.4,1.9-6.8,4.6-6.8
				C378.4,589.2,380,591.7,380,595.8z M372.9,596c0,3.4,1,5.3,2.7,5.3c1.8,0,2.7-2.1,2.7-5.4c0-3.2-0.8-5.3-2.7-5.3
				C374,590.6,372.9,592.5,372.9,596z"/>
			<path class="st3" d="M368.4,635.1c-0.4,0-0.8,0-1.3,0.1c-2.8,0.5-4.3,2.5-4.6,4.6h0.1c0.6-0.8,1.7-1.5,3.2-1.5c2.3,0,4,1.7,4,4.2
				c0,2.4-1.6,4.6-4.4,4.6s-4.6-2.2-4.6-5.5c0-2.6,0.9-4.6,2.2-5.9c1.1-1.1,2.5-1.7,4.2-1.9c0.5-0.1,1-0.1,1.3-0.1v1.4H368.4z
				 M367.9,642.6c0-1.9-1.1-3-2.7-3c-1.1,0-2.1,0.7-2.5,1.6c-0.1,0.2-0.2,0.5-0.2,0.8c0,2.1,1,3.7,2.9,3.7
				C366.9,645.7,367.9,644.5,367.9,642.6z"/>
			<path class="st3" d="M380,640.2c0,4.4-1.7,6.9-4.6,6.9c-2.6,0-4.3-2.4-4.3-6.7c0-4.4,1.9-6.8,4.6-6.8
				C378.4,633.6,380,636.1,380,640.2z M372.9,640.4c0,3.4,1,5.3,2.7,5.3c1.8,0,2.7-2.1,2.7-5.4c0-3.2-0.8-5.3-2.7-5.3
				C374,635,372.9,636.9,372.9,640.4z"/>
			<path class="st3" d="M368.7,679.8h-5l-0.5,3.3c0.3,0,0.6-0.1,1.1-0.1c1,0,2,0.2,2.8,0.7c1,0.6,1.9,1.7,1.9,3.3
				c0,2.5-2,4.4-4.9,4.4c-1.4,0-2.6-0.4-3.3-0.8l0.4-1.3c0.5,0.3,1.6,0.7,2.8,0.7c1.7,0,3.1-1.1,3.1-2.8s-1.2-2.9-3.8-2.9
				c-0.7,0-1.3,0.1-1.8,0.1l0.8-6.2h6.3v1.6H368.7z"/>
			<path class="st3" d="M380,684.6c0,4.4-1.7,6.9-4.6,6.9c-2.6,0-4.3-2.4-4.3-6.7c0-4.4,1.9-6.8,4.6-6.8
				C378.4,678.1,380,680.5,380,684.6z M372.9,684.8c0,3.4,1,5.3,2.7,5.3c1.8,0,2.7-2.1,2.7-5.4c0-3.2-0.8-5.3-2.7-5.3
				C374,679.4,372.9,681.3,372.9,684.8z"/>
			<path class="st3" d="M366.4,735.7v-3.5h-6.1V731l5.9-8.3h1.9v8.1h1.8v1.4h-1.8v3.5H366.4z M366.4,730.8v-4.3c0-0.7,0-1.4,0.1-2
				h-0.1c-0.4,0.8-0.7,1.3-1.1,1.9l-3.2,4.4l0,0L366.4,730.8L366.4,730.8z"/>
			<path class="st3" d="M380,729.1c0,4.4-1.7,6.9-4.6,6.9c-2.6,0-4.3-2.4-4.3-6.7c0-4.4,1.9-6.8,4.6-6.8
				C378.4,722.5,380,724.9,380,729.1z M372.9,729.3c0,3.4,1,5.3,2.7,5.3c1.8,0,2.7-2.1,2.7-5.4c0-3.2-0.8-5.3-2.7-5.3
				C374,723.8,372.9,725.7,372.9,729.3z"/>
			<path class="st3" d="M361.3,778.1c0.5,0.3,1.7,0.8,2.9,0.8c2.3,0,3-1.4,3-2.5c0-1.8-1.7-2.6-3.4-2.6h-1v-1.3h1
				c1.3,0,2.9-0.7,2.9-2.2c0-1-0.7-2-2.3-2c-1,0-2.1,0.5-2.6,0.9l-0.5-1.3c0.7-0.5,2-1,3.4-1c2.6,0,3.8,1.5,3.8,3.1
				c0,1.3-0.8,2.5-2.4,3.1l0,0c1.6,0.3,2.9,1.5,2.9,3.3c0,2.1-1.6,3.9-4.8,3.9c-1.5,0-2.8-0.5-3.4-0.9L361.3,778.1z"/>
			<path class="st3" d="M380,773.5c0,4.4-1.7,6.9-4.6,6.9c-2.6,0-4.3-2.4-4.3-6.7c0-4.4,1.9-6.8,4.6-6.8
				C378.4,766.9,380,769.3,380,773.5z M372.9,773.7c0,3.4,1,5.3,2.7,5.3c1.8,0,2.7-2.1,2.7-5.4c0-3.2-0.8-5.3-2.7-5.3
				C374,768.3,372.9,770.1,372.9,773.7z"/>
			<path class="st3" d="M824.6,55.3v14.1h-1.8V57.1c-1.3,0.2-2.8,0.6-4,1c0-0.5,0.1-1.1,0.2-1.6C820.4,55.9,822.7,55.4,824.6,55.3z"
				/>
			<path class="st3" d="M838.2,62.1c0,5.1-1.8,7.6-5.9,7.6c-0.9,0-1.8-0.1-2.4-0.4c0-0.4,0.1-1,0.2-1.6c0.6,0.3,1.5,0.4,2.2,0.4
				c2.9,0,4.1-1.6,4.2-5.4c-0.7,1.1-1.9,1.7-3.4,1.7c-2.4,0-4-1.6-4-4.4c0-2.9,1.6-4.8,4.4-4.8C836.5,55.3,838.2,57.5,838.2,62.1z
				 M836.5,61.4c-0.1-3.2-1.1-4.6-3-4.6c-1.7,0-2.6,1.1-2.6,3.1s1.1,2.9,2.6,2.9C834.6,62.9,835.6,62.4,836.5,61.4z"/>
			<path class="st3" d="M840.2,62.5c0-4.8,1.5-7.2,4.6-7.2c3.2,0,4.6,2.4,4.6,7.2s-1.5,7.2-4.6,7.2
				C841.6,69.7,840.2,67.3,840.2,62.5z M847.6,62.5c0-3.8-0.7-5.6-2.8-5.6s-2.8,1.8-2.8,5.6c0,3.9,0.7,5.6,2.8,5.6
				C846.9,68.1,847.6,66.4,847.6,62.5z"/>
			<path class="st3" d="M824.6,99.7v14.1h-1.8v-12.3c-1.3,0.2-2.8,0.6-4,1c0-0.5,0.1-1.1,0.2-1.6C820.4,100.3,822.7,99.8,824.6,99.7
				z"/>
			<path class="st3" d="M838.4,110.3c0,2.4-1.9,3.9-4.7,3.9c-2.9,0-4.6-1.4-4.6-3.7c0-1.8,1.1-2.9,2.8-3.5c-1.5-0.7-2.4-2-2.4-3.6
				c0-2.2,1.6-3.6,4.3-3.6s4.2,1.4,4.2,3.5c0,1.5-0.8,2.6-2.3,3.4C837.3,107.2,838.4,108.5,838.4,110.3z M836.6,110.4
				c0-1.2-0.8-2.2-2.5-2.7l-0.7-0.2c-1.9,0.7-2.6,1.6-2.6,2.9c0,1.6,1.3,2.4,2.9,2.4C835.6,112.7,836.6,111.8,836.6,110.4z
				 M831.2,103.3c0,1.4,1,2.2,2.5,2.6l0.2,0.1c1.7-0.7,2.3-1.6,2.3-2.7c0-1.2-0.8-2.1-2.5-2.1C832,101.2,831.2,102.1,831.2,103.3z"
				/>
			<path class="st3" d="M840.2,106.9c0-4.8,1.5-7.2,4.6-7.2c3.2,0,4.6,2.4,4.6,7.2s-1.5,7.2-4.6,7.2
				C841.6,114.2,840.2,111.7,840.2,106.9z M847.6,106.9c0-3.8-0.7-5.6-2.8-5.6s-2.8,1.8-2.8,5.6c0,3.9,0.7,5.6,2.8,5.6
				C846.9,112.6,847.6,110.8,847.6,106.9z"/>
			<path class="st3" d="M824.6,144.1v14.1h-1.8v-12.3c-1.3,0.2-2.8,0.6-4,1c0-0.5,0.1-1.1,0.2-1.6
				C820.4,144.7,822.7,144.2,824.6,144.1z"/>
			<path class="st3" d="M838.3,144.4c0,0.4-0.1,0.9-0.1,1.3c-2.5,4.2-4.2,8.4-5.2,12.6h-1.8c0.9-4,2.8-8.2,5-12.2h-7
				c0-0.5,0.1-1.1,0.2-1.6L838.3,144.4L838.3,144.4z"/>
			<path class="st3" d="M840.2,151.4c0-4.8,1.5-7.2,4.6-7.2c3.2,0,4.6,2.4,4.6,7.2c0,4.8-1.5,7.2-4.6,7.2
				C841.6,158.6,840.2,156.2,840.2,151.4z M847.6,151.4c0-3.8-0.7-5.6-2.8-5.6s-2.8,1.8-2.8,5.6c0,3.9,0.7,5.6,2.8,5.6
				C846.9,157,847.6,155.2,847.6,151.4z"/>
			<path class="st3" d="M824.6,188.6v14.1h-1.8v-12.3c-1.3,0.2-2.8,0.6-4,1c0-0.5,0.1-1.1,0.2-1.6
				C820.4,189.1,822.7,188.6,824.6,188.6z"/>
			<path class="st3" d="M838.3,198.2c0,2.9-1.6,4.8-4.4,4.8c-3,0-4.7-2.2-4.7-6.8c0-5.1,1.8-7.6,5.9-7.6c0.9,0,1.8,0.1,2.4,0.4
				c0,0.4-0.1,1-0.2,1.6c-0.6-0.3-1.5-0.4-2.2-0.4c-2.9,0-4.1,1.6-4.2,5.4c0.7-1.1,1.9-1.7,3.4-1.7
				C836.7,193.8,838.3,195.4,838.3,198.2z M836.5,198.3c0-2-1.1-2.9-2.6-2.9c-1.1,0-2.1,0.5-3,1.5c0.1,3.2,1.1,4.6,3,4.6
				C835.6,201.4,836.5,200.3,836.5,198.3z"/>
			<path class="st3" d="M840.2,195.8c0-4.8,1.5-7.2,4.6-7.2c3.2,0,4.6,2.4,4.6,7.2c0,4.8-1.5,7.2-4.6,7.2
				C841.6,203,840.2,200.6,840.2,195.8z M847.6,195.8c0-3.8-0.7-5.6-2.8-5.6s-2.8,1.8-2.8,5.6c0,3.9,0.7,5.6,2.8,5.6
				C846.9,201.4,847.6,199.6,847.6,195.8z"/>
			<path class="st3" d="M824.6,233v14.1h-1.8v-12.3c-1.3,0.2-2.8,0.6-4,1c0-0.5,0.1-1.1,0.2-1.6C820.4,233.5,822.7,233,824.6,233z"
				/>
			<path class="st3" d="M837.7,242.7c0,3-1.9,4.7-5.5,4.7c-1,0-2-0.1-2.8-0.3c0-0.5,0.1-1.1,0.2-1.6c0.6,0.2,1.5,0.3,2.4,0.3
				c2.4,0,3.8-0.9,3.8-3c0-2-1.3-2.9-3.5-2.9c-0.8,0-1.7,0.1-2.5,0.3l0.6-7h6.8c0,0.5-0.1,1.1-0.2,1.6h-5.1l-0.3,3.6
				c0.4-0.1,0.8-0.1,1.3-0.1C835.8,238.4,837.7,239.8,837.7,242.7z"/>
			<path class="st3" d="M840.2,240.2c0-4.8,1.5-7.2,4.6-7.2c3.2,0,4.6,2.4,4.6,7.2c0,4.8-1.5,7.2-4.6,7.2
				C841.6,247.4,840.2,245,840.2,240.2z M847.6,240.2c0-3.8-0.7-5.6-2.8-5.6s-2.8,1.8-2.8,5.6c0,3.9,0.7,5.6,2.8,5.6
				C846.9,245.8,847.6,244,847.6,240.2z"/>
			<path class="st3" d="M824.6,277.4v14.1h-1.8v-12.3c-1.3,0.2-2.8,0.6-4,1c0-0.5,0.1-1.1,0.2-1.6
				C820.4,278,822.7,277.5,824.6,277.4z"/>
			<path class="st3" d="M838.6,288h-1.7v3.5h-1.7V288h-6.3c0-0.7,0-1.1,0.1-1.5c1.4-2.9,3.8-6.3,6.2-8.8c0.5-0.1,1-0.1,1.8-0.1v8.9
				h1.9C838.7,286.9,838.7,287.6,838.6,288z M835.2,286.5v-6.6c-1.8,2.1-3.3,4.3-4.5,6.6H835.2z"/>
			<path class="st3" d="M840.2,284.6c0-4.8,1.5-7.2,4.6-7.2c3.2,0,4.6,2.4,4.6,7.2c0,4.8-1.5,7.2-4.6,7.2
				C841.6,291.8,840.2,289.4,840.2,284.6z M847.6,284.6c0-3.8-0.7-5.6-2.8-5.6s-2.8,1.8-2.8,5.6c0,3.9,0.7,5.6,2.8,5.6
				C846.9,290.2,847.6,288.5,847.6,284.6z"/>
			<path class="st3" d="M824.6,321.8v14.1h-1.8v-12.3c-1.3,0.2-2.8,0.6-4,1c0-0.5,0.1-1.1,0.2-1.6
				C820.4,322.4,822.7,321.9,824.6,321.8z"/>
			<path class="st3" d="M838,332.1c0,2.6-1.9,4.2-5.7,4.2c-1.1,0-2-0.1-2.9-0.3c0-0.5,0.1-1.1,0.2-1.5c0.8,0.2,1.7,0.3,2.5,0.3
				c2.7,0,4-0.9,4-2.6s-1.2-2.5-3.8-2.5h-1.7V328h1.5c2.3,0,3.5-0.9,3.5-2.4c0-1.3-0.9-2.2-3.1-2.2c-1,0-2.1,0.2-3,0.6
				c0-0.3,0.1-1,0.2-1.6c0.8-0.4,2-0.6,3-0.6c3,0,4.7,1.4,4.7,3.5c0,1.7-1,2.9-2.4,3.4C836.9,329.1,838,330.1,838,332.1z"/>
			<path class="st3" d="M840.2,329c0-4.8,1.5-7.2,4.6-7.2c3.2,0,4.6,2.4,4.6,7.2c0,4.8-1.5,7.2-4.6,7.2
				C841.6,336.2,840.2,333.8,840.2,329z M847.6,329c0-3.8-0.7-5.6-2.8-5.6s-2.8,1.8-2.8,5.6c0,3.9,0.7,5.6,2.8,5.6
				C846.9,334.6,847.6,332.9,847.6,329z"/>
			<path class="st3" d="M824.6,366.2v14.1h-1.8V368c-1.3,0.2-2.8,0.6-4,1c0-0.5,0.1-1.1,0.2-1.6
				C820.4,366.8,822.7,366.3,824.6,366.2z"/>
			<path class="st3" d="M837.7,378.8c0,0.4-0.1,1.1-0.2,1.6h-8.1v-0.6c0-2.6,1.9-4.2,4-5.8c1.5-1.1,2.3-2.1,2.3-3.7s-1-2.5-3.1-2.5
				c-1,0-2.1,0.2-3,0.7c0-0.5,0-1.1,0.1-1.6c0.9-0.4,2-0.6,3.1-0.6c3.2,0,4.6,1.7,4.6,4c0,2.1-1.1,3.6-3.2,5.1
				c-1.6,1.2-2.8,2.1-3.1,3.5h6.6V378.8z"/>
			<path class="st3" d="M840.2,373.4c0-4.8,1.5-7.2,4.6-7.2c3.2,0,4.6,2.4,4.6,7.2c0,4.8-1.5,7.2-4.6,7.2
				C841.6,380.7,840.2,378.2,840.2,373.4z M847.6,373.4c0-3.8-0.7-5.6-2.8-5.6s-2.8,1.8-2.8,5.6c0,3.9,0.7,5.6,2.8,5.6
				C846.9,379.1,847.6,377.3,847.6,373.4z"/>
			<path class="st3" d="M824.6,410.6v14.1h-1.8v-12.3c-1.3,0.2-2.8,0.6-4,1c0-0.5,0.1-1.1,0.2-1.6
				C820.4,411.2,822.7,410.7,824.6,410.6z"/>
			<path class="st3" d="M835.7,410.6v14.1h-1.8v-12.3c-1.3,0.2-2.8,0.6-4,1c0-0.5,0.1-1.1,0.2-1.6
				C831.5,411.2,833.8,410.7,835.7,410.6z"/>
			<path class="st3" d="M840.2,417.9c0-4.8,1.5-7.2,4.6-7.2c3.2,0,4.6,2.4,4.6,7.2s-1.5,7.2-4.6,7.2
				C841.6,425.1,840.2,422.7,840.2,417.9z M847.6,417.9c0-3.8-0.7-5.6-2.8-5.6s-2.8,1.8-2.8,5.6c0,3.9,0.7,5.6,2.8,5.6
				C846.9,423.5,847.6,421.7,847.6,417.9z"/>
			<path class="st3" d="M824.6,455.1v14.1h-1.8v-12.3c-1.3,0.2-2.8,0.6-4,1c0-0.5,0.1-1.1,0.2-1.6
				C820.4,455.6,822.7,455.1,824.6,455.1z"/>
			<path class="st3" d="M829.1,462.3c0-4.8,1.5-7.2,4.6-7.2c3.2,0,4.6,2.4,4.6,7.2s-1.5,7.2-4.6,7.2
				C830.5,469.5,829.1,467.1,829.1,462.3z M836.5,462.3c0-3.8-0.7-5.6-2.8-5.6s-2.8,1.8-2.8,5.6c0,3.9,0.7,5.6,2.8,5.6
				C835.8,467.9,836.5,466.1,836.5,462.3z"/>
			<path class="st3" d="M840.2,462.3c0-4.8,1.5-7.2,4.6-7.2c3.2,0,4.6,2.4,4.6,7.2s-1.5,7.2-4.6,7.2
				C841.6,469.5,840.2,467.1,840.2,462.3z M847.6,462.3c0-3.8-0.7-5.6-2.8-5.6s-2.8,1.8-2.8,5.6c0,3.9,0.7,5.6,2.8,5.6
				C846.9,467.9,847.6,466.1,847.6,462.3z"/>
			<path class="st3" d="M838.2,506.3c0,5.1-1.8,7.6-5.9,7.6c-0.9,0-1.8-0.1-2.4-0.4c0-0.4,0.1-1,0.2-1.6c0.6,0.3,1.5,0.4,2.2,0.4
				c2.9,0,4.1-1.6,4.2-5.4c-0.7,1.1-1.9,1.7-3.4,1.7c-2.4,0-4-1.6-4-4.4c0-2.9,1.6-4.8,4.4-4.8C836.5,499.5,838.2,501.7,838.2,506.3
				z M836.5,505.6c-0.1-3.2-1.1-4.6-3-4.6c-1.7,0-2.6,1.1-2.6,3.1s1.1,2.9,2.6,2.9C834.6,507.1,835.6,506.6,836.5,505.6z"/>
			<path class="st3" d="M840.2,506.7c0-4.8,1.5-7.2,4.6-7.2c3.2,0,4.6,2.4,4.6,7.2s-1.5,7.2-4.6,7.2
				C841.6,513.9,840.2,511.5,840.2,506.7z M847.6,506.7c0-3.8-0.7-5.6-2.8-5.6s-2.8,1.8-2.8,5.6c0,3.9,0.7,5.6,2.8,5.6
				C846.9,512.3,847.6,510.5,847.6,506.7z"/>
			<path class="st3" d="M838.4,554.4c0,2.4-1.9,3.9-4.7,3.9c-2.9,0-4.6-1.4-4.6-3.7c0-1.8,1.1-2.9,2.8-3.5c-1.5-0.7-2.4-2-2.4-3.6
				c0-2.2,1.6-3.6,4.3-3.6s4.2,1.4,4.2,3.5c0,1.5-0.8,2.6-2.3,3.4C837.3,551.4,838.4,552.6,838.4,554.4z M836.6,554.5
				c0-1.2-0.8-2.2-2.5-2.7l-0.7-0.2c-1.9,0.7-2.6,1.6-2.6,2.9c0,1.6,1.3,2.4,2.9,2.4C835.6,556.9,836.6,556,836.6,554.5z
				 M831.2,547.5c0,1.4,1,2.2,2.5,2.6l0.2,0.1c1.7-0.7,2.3-1.6,2.3-2.7c0-1.2-0.8-2.1-2.5-2.1C832,545.3,831.2,546.3,831.2,547.5z"
				/>
			<path class="st3" d="M840.2,551.1c0-4.8,1.5-7.2,4.6-7.2c3.2,0,4.6,2.4,4.6,7.2s-1.5,7.2-4.6,7.2
				C841.6,558.3,840.2,555.9,840.2,551.1z M847.6,551.1c0-3.8-0.7-5.6-2.8-5.6s-2.8,1.8-2.8,5.6c0,3.9,0.7,5.6,2.8,5.6
				C846.9,556.7,847.6,555,847.6,551.1z"/>
			<path class="st3" d="M838.3,588.6c0,0.4-0.1,0.9-0.1,1.3c-2.5,4.2-4.2,8.4-5.2,12.6h-1.8c0.9-4,2.8-8.2,5-12.2h-7
				c0-0.5,0.1-1.1,0.2-1.6L838.3,588.6L838.3,588.6z"/>
			<path class="st3" d="M840.2,595.5c0-4.8,1.5-7.2,4.6-7.2c3.2,0,4.6,2.4,4.6,7.2s-1.5,7.2-4.6,7.2
				C841.6,602.7,840.2,600.3,840.2,595.5z M847.6,595.5c0-3.8-0.7-5.6-2.8-5.6s-2.8,1.8-2.8,5.6c0,3.9,0.7,5.6,2.8,5.6
				C846.9,601.1,847.6,599.4,847.6,595.5z"/>
			<path class="st3" d="M838.3,642.4c0,2.9-1.6,4.8-4.4,4.8c-3,0-4.7-2.2-4.7-6.8c0-5.1,1.8-7.6,5.9-7.6c0.9,0,1.8,0.1,2.4,0.4
				c0,0.4-0.1,1-0.2,1.6c-0.6-0.3-1.5-0.4-2.2-0.4c-2.9,0-4.1,1.6-4.2,5.4c0.7-1.1,1.9-1.7,3.4-1.7
				C836.7,638,838.3,639.6,838.3,642.4z M836.5,642.5c0-2-1.1-2.9-2.6-2.9c-1.1,0-2.1,0.5-3,1.5c0.1,3.2,1.1,4.6,3,4.6
				C835.6,645.6,836.5,644.4,836.5,642.5z"/>
			<path class="st3" d="M840.2,639.9c0-4.8,1.5-7.2,4.6-7.2c3.2,0,4.6,2.4,4.6,7.2s-1.5,7.2-4.6,7.2
				C841.6,647.2,840.2,644.7,840.2,639.9z M847.6,639.9c0-3.8-0.7-5.6-2.8-5.6s-2.8,1.8-2.8,5.6c0,3.9,0.7,5.6,2.8,5.6
				C846.9,645.6,847.6,643.8,847.6,639.9z"/>
			<path class="st3" d="M837.7,686.9c0,3-1.9,4.7-5.5,4.7c-1,0-2-0.1-2.8-0.3c0-0.5,0.1-1.1,0.2-1.6c0.6,0.2,1.5,0.3,2.4,0.3
				c2.4,0,3.8-0.9,3.8-3c0-2-1.3-2.9-3.5-2.9c-0.8,0-1.7,0.1-2.5,0.3l0.6-7h6.8c0,0.5-0.1,1.1-0.2,1.6h-5.1l-0.3,3.6
				c0.4-0.1,0.8-0.1,1.3-0.1C835.8,682.5,837.7,684,837.7,686.9z"/>
			<path class="st3" d="M840.2,684.4c0-4.8,1.5-7.2,4.6-7.2c3.2,0,4.6,2.4,4.6,7.2s-1.5,7.2-4.6,7.2
				C841.6,691.6,840.2,689.2,840.2,684.4z M847.6,684.4c0-3.8-0.7-5.6-2.8-5.6s-2.8,1.8-2.8,5.6c0,3.9,0.7,5.6,2.8,5.6
				C846.9,690,847.6,688.2,847.6,684.4z"/>
			<path class="st3" d="M838.6,732.2h-1.7v3.5h-1.7v-3.5h-6.3c0-0.7,0-1.1,0.1-1.5c1.4-2.9,3.8-6.3,6.2-8.8c0.5-0.1,1-0.1,1.8-0.1
				v8.9h1.9C838.7,731,838.7,731.8,838.6,732.2z M835.2,730.6V724c-1.8,2.1-3.3,4.3-4.5,6.6H835.2z"/>
			<path class="st3" d="M840.2,728.8c0-4.8,1.5-7.2,4.6-7.2c3.2,0,4.6,2.4,4.6,7.2s-1.5,7.2-4.6,7.2
				C841.6,736,840.2,733.6,840.2,728.8z M847.6,728.8c0-3.8-0.7-5.6-2.8-5.6s-2.8,1.8-2.8,5.6c0,3.9,0.7,5.6,2.8,5.6
				C846.9,734.4,847.6,732.6,847.6,728.8z"/>
			<path class="st3" d="M838,776.2c0,2.6-1.9,4.2-5.7,4.2c-1.1,0-2-0.1-2.9-0.3c0-0.5,0.1-1.1,0.2-1.5c0.8,0.2,1.7,0.3,2.5,0.3
				c2.7,0,4-0.9,4-2.6c0-1.7-1.2-2.5-3.8-2.5h-1.7v-1.5h1.5c2.3,0,3.5-0.9,3.5-2.4c0-1.3-0.9-2.2-3.1-2.2c-1,0-2.1,0.2-3,0.6
				c0-0.3,0.1-1,0.2-1.6c0.8-0.4,2-0.6,3-0.6c3,0,4.7,1.4,4.7,3.5c0,1.7-1,2.9-2.4,3.4C836.9,773.3,838,774.3,838,776.2z"/>
			<path class="st3" d="M840.2,773.2c0-4.8,1.5-7.2,4.6-7.2c3.2,0,4.6,2.4,4.6,7.2s-1.5,7.2-4.6,7.2
				C841.6,780.4,840.2,778,840.2,773.2z M847.6,773.2c0-3.8-0.7-5.6-2.8-5.6s-2.8,1.8-2.8,5.6c0,3.9,0.7,5.6,2.8,5.6
				C846.9,778.8,847.6,777,847.6,773.2z"/>
			<g>
				<path d="M556.8,489.6l137.9-2l-31.9-241.7c0,0-15.3-25.3-19.9-26.8c-4.6-1.5-48.4-8.4-48.4-8.4l-7.4,5.7l-40.6,106.3
					L556.8,489.6z"/>
				<path class="st3" d="M640.5,107.6c0,0-14.8-13.8-18.3-16.7s-21.5,3.5-24.1,7s-14.2,24.4-14.2,24.4L640.5,107.6z"/>
				<path class="st4" d="M594,191c0,0-20.1-3.7-26.3-16.6s-1.7-37.7,2.9-42.7c4.6-5,18.7-19.3,38.9-23.2s48.2-0.2,56.3,6.6
					s10.4,21.9,10.2,26.4s-6.8,20.7-10.8,25.4s-11.4,10.4-11.4,10.4L594,191z"/>
				<path class="st4" d="M592.7,170.6c-1.8-0.8-5-7.2-7.6-8.6s-3.7,0.2-4.6-5.2c-0.8-5.4,3.6-18,9.6-27.3
					c5.9-9.3,18.2-16.2,28.7-16.9s22.3,0.2,27,5.6c4.7,5.4,12.9,13.4,13.9,16.9s-1.1,16.3-1.1,20c0,3.6-3.5,11.8-3.5,11.8
					L592.7,170.6z"/>
				<g>
					<path class="st3" d="M552.2,829.4c-1.3-7.7,1.3-18.2,0-26.1s-6.1-29.5-11.3-47.1s-8.2-58.8-6.1-67.8c2.1-9,6.7-25.9,7.1-30.1
						c0.4-4.2,0.4-18.8,0.4-19.7c0-0.8-1-7.1,3.8-6.5s44.3,0.6,44.3,2.3s-0.8,13.4-2.7,18.2s-5.4,12.8-7.5,18.8
						c-2.1,6.1-4,20.1-2.1,33.3s3.1,50.4,2.1,66.5s-0.2,25.9-0.2,25.9s1.9,6.9,2.1,8.4c0.2,1.5,3.6,1.9,3.6,3.8s5.2,1.5,5.6,3.8
						c0.4,2.3-2.3,5-2.3,5s1.3,10.9,2.3,14.6c1,3.8,2.7,12.1,5.6,15.5s9.4,12.1,10,16.9c0.6,4.8,0.6,11.9-4.6,13.4
						c-5.2,1.5-28.4,1.5-34.7-1s-8.8-4.4-12.8-11.9s-5.4-14.2-5.2-17.4s4.8-9.8,4.8-9.8L552.2,829.4z"/>
					<path d="M550.7,800.4c0,0,23.2,1.7,30.4-2.7c0.5,6.2,2.7,10,2.7,10s4.7,6.1,5.3,10.3s3.7,19.9,4.7,22.1
						c1.1,2.2,3.4,8.1,5.1,10.3c1.7,2.2,6,8.8,6.7,10.6c-6.3-6.5-19.1-5.1-22.4-4.5c-3.3,0.6-11.9,5.4-14.8,6
						c-2.9,0.6-12.3-3-14.3-4.6s-3.3-4.2-3.9-6c-0.6-1.8-0.8-5.4,0-7.4c1.1-2.6,2.9-4.9,3.9-6.4c-0.6-1.5-1.3-4.7-1.6-6.1
						s-1.1-15.1-0.7-17.8C552.2,811.8,550.7,800.4,550.7,800.4z"/>
					<path class="st5" d="M598.8,851.5c0,0-24.8-2.3-30.5,1.1c14.8-8.8,21.5-13,25.5-12.5c-21.4-0.5-28.2,1.8-28.2,1.8
						s17.2-12.8,25.4-11.4c-13-0.3-27,3.8-27,3.8s15.2-12.1,25.8-11.3c-19.2,0.8-27.7,0.2-27.7,0.2s9.2-5.6,19.7-5.4
						c-9.1-2.6-8.8-2-9.1-2.6s-11.9-1.6-14.3,0c-2.4,1.6-0.1,2.5,3.4,2.5s10.1-1.1,10.1-1.1s10.1-4.7,14.1-4.9s8.1,2.3,4.4,3.2
						c-3.7,0.9-12.4,1.1-12.4,1.1"/>
					<path class="st5" d="M569.8,858c0,0,16.1-12.7,25.7-14c-16.3-0.3-29.1,3.7-29.1,3.7s16.8-12.2,25.5-13.1
						c-11-0.1-26.9,3.5-26.9,3.5s13.7-9.7,25.3-11c-10.2,0-28,1.5-28.1,1.8c-0.1,0.4,16.3-10.3,27.2-8.7c-9.9-1.9-17.2-2.3-17.2-2.3
						"/>
					<path d="M562.2,859.9c0,0,2.9,3.2,6.2,2.8s17.2-1.8,22.4-2.2s13.6,0.4,14.8,0.7c1.1,0.3,0.9,1.6,0.9,1.6s-11.1-1.3-15.2-0.8
						c-4.1,0.5-22.7,3.6-24.1,3.2S562.2,859.9,562.2,859.9z"/>
					<path d="M588.2,643.3c0,0-17.7,2.2-22.4,5.2s-13.6,0.6-16.1-1.5c-2.5-2-7.3-7.5-7.3-7.5l1.6-1.9l47.4,2.7L588.2,643.3z"/>
					<path d="M590.1,639.8c0,0-4.8,19.9-9.2,27.2c-2.5,4.2-4,16-4.6,19.8s2.5,32.8,3.5,44.3c0.7,8.1-0.6,36.1-1.1,44.5
						c-0.4,6.9,0.1,28.7,0.1,28.7s-4.2-47.7-4.2-50.2s-2-47.3-2.6-52.7s0-15.1,0-15.1l-8.3,6c0,0,4.2-10.5,5.6-12
						c1.5-1.4,6.4-14,8.1-17.4c1.7-3.4,6.5-25.5,6.5-25.5L590.1,639.8z"/>
				</g>
				<g>
					<path class="st3" d="M605.1,855.3c0,0-1.5-8.6,0.5-10.5c-1.1-5.2,0.5-10.6,0.8-13.5c0.4-5.9,4.8-27.8,4.8-30.1s4-3.1,4-3.1
						l2.1-10.5l2.7-1c0,0,0.6-49.8,0-65c-0.6-15.3,3.1-34.1,5.6-41.6s5-18.8,5-18.8s-5.4-19.2-4-24.9c1.5-5.6,49.8-5.4,50.2,2.5
						s-1,29.7-4.8,34.5c-0.4,20.7-2.5,47.5-8.2,66.1C658.2,758,651,790,651,790l0.4,11.1c0,0,3.1-4.6,4.2-4.8c1-0.2,1.3,3.8-0.2,5.4
						s-2.1,3.6-2.1,3.6s3.8,7.5,1.3,9.8c7.5,7.3,13,14.2,16.3,16.9s16.5,7.3,20.7,9.8s17.2,4,19.7,5.2s2.7,7.3,2.5,10
						s-12.5,10.2-24.3,9.6c-11.7-0.6-39.7-4.8-45.6-6.3S605.1,855.3,605.1,855.3z"/>
					<path d="M615.2,798c0,0-0.7-13,4.8-11.5c4.3,3.6,31.2,3.3,31.2,3.3l0.4,11.1c0,0,4.4,9,3.7,14.6c3.8,2.6,22.2,22,25.7,23.2
						s10.3,4.1,13.6,5.5c-8.6,3.2-10.7,2.3-9.5,6.4c9,0.3,23.7-0.9,26.4-3.7c0,0,0.7,5.7-13.9,6.3c-14.5,0.6-52-1.2-57.9-1.7
						c-5.8-0.6-9-3.8-20.6-4.7s-13.4-2-13.4-2s-2.4-0.3-0.1-13.9c1.6-10,3.7-17.6,4.8-25.9C611.1,798.5,611.6,797.2,615.2,798z"/>
					<path class="st5" d="M680.4,849.2c0-0.8-1.4-7.4,4.4-9.1c-7.7-0.7-13.7,4.7-13.9,4.5c-0.8-6.2-0.4-8.9,2-11.9
						c-11.1,1.2-14.8,5.3-14.8,5.3s0.5-12.5,7-12.7c-7-3.7-16,1.8-16,1.8s-2-11,6.3-11.6c-10-2.6-17.1-1.2-17.1-1.2s8.6-8,11.9-8.6
						c-0.6-0.2-1.1-0.3-1.7-0.5c-15.1-4.1-22.2-2.8-19.4-1.1c2.9,1.8,24.4,1,24.4,1"/>
					<path class="st5" d="M689.7,844.3c0,0-10.9-1.4-15,2.7c2.3-9.4,3.2-10.4,3.2-10.4s-12,1-14,5.2c0.8-9.4,6.2-12.3,5.9-12.6
						s-14.3-3.3-15.9,2.8c1.4-9.6,5.9-12.5,6.2-12.1c0.3,0.3-14.8-3.7-17.5,1.4c9.8-10.5,12.1-11.1,12.1-11.1l-6.4-5l7.1-3.6"/>
					<path d="M626.7,636.1c0,0,23.3,6.6,29.9,5.5c6.6-1.1,20.3-3,20.3-3s2.9,5-9,6.6c-11.9,1.7-21.3,0.4-25.2,0s-16-5.9-16-5.9
						V636.1z"/>
					<path d="M622.3,791.7c0,0,3.1-37.5,4.1-41.1s4.7-13,3-16.1s-5.8-17.6-5.1-24.1s6.2-27.9,8.3-29.3c2.1-1.4,9.5,0,11.1-2.8
						s-7-13.4-8.7-17.6c-1.7-4.1-0.1-22.9-2.1-22.1c-2,0.8-5.2,1.9-5.2,1.9s3,18.9,4,21.6c0.9,2.8-4.9,18.3-7.3,25.5
						c-2.4,7.2-3.1,33.4-3.1,43.8c0,10.3,0,65.8,0,65.8L622.3,791.7z"/>
				</g>
				<g>
					<path d="M603.5,496.2c-0.4,19.6-0.2,77.3,4,88.7c4.1,11.3,5.9,16.6,8.2,24.4s3.5,23.8,6.4,29.1c4.8-2.3,23.8,3.3,31.4,3.4
						c7.6,0.1,23.6-3.1,23.6-3.1s5.2-28.5,5.8-37.2s3.5-44.6,4.1-52.1s2-24.4,3.8-32.8c1.7-8.4,5.2-18.3,3.5-24.7
						s-27.9-25.6-42.2-24.1C637.9,469.2,603.8,482.8,603.5,496.2z"/>
					<path class="st3" d="M626.7,636.1c0,0,17.7,5.1,20.9,5s29.5-2.5,29.5-2.5l1.9-11.9c0,0-15.6-1.3-17,0s13.6-2,15.1-6.7
						s1.8-14.3,1.8-14.3s-0.7,6.7-5.3,11c-4.7,4.3-12.2,2.3-14.4,0.7c7.4-1,13.1-6.3,14.1-8s5.7-13,5.7-13v-4c0,0-9,14.3-12,15.3
						s-9.9,2.7-7.8,1c2.1-1.7,13.1-13.6,14.1-15s5.7-8.7,5.7-8.7s-3.3-1.7-5.3-2.3s-4.7-3.3-2.7-5.3s6-7.3,8-8.7s6-8.7,6-8.7
						s-1-7.7-3-10s-4.8-9.7-4.8-9.7s4.5,0.7,5.5,0s-2.3-4-3.7-4.7s-2.3-5.3-6.3-6.7s-10-3-11.3-3.7s7-1.7,7-1.7H683
						c0,0-6.3-4.3-11-4.3s-17.6-1.7-21.6,0s-15.6,4.7-14,4.7c1.7,0,12.6,8.3,12.6,8.3l14,7.3l14.1,8l2.5,9c0,0-17.5,1.7-20.4,2
						s10.1-10,5.8-10s-15,1-19,0.7s-13.3,1.7-15.3,2.3s-5.6,4.3,1.9,5s22.4,6,25.1,7s8,8,8,8s-1.9,1-6.4,0.3s-10.4-3.3-15.3-3.7
						s-14.9,6-14.9,6s21,1,22.8,1.7s10.8,5.7,10.8,5.7s-10.3,5.3-13.7,6c-3.3,0.7-15.6-10-24-7.8c6.7,5.1,16.6,11.5,17.8,12.5
						s12.2,5,12.2,5l4.2,4c0,0-11.5-1-13.5-2.3s-21.6-10.3-22.3-10s11.6,10.7,14,11.6c2.3,1,11.6,5.3,11.6,5.7
						c0,0.3,5.2,5.7,5.2,5.7v6c0,0-6.5-9.7-11.3-11.3c-4.8-1.7-16.2-10-16.2-10s6.8,7.7,5.9,9.7s-0.5,12.6,0,14.3s6.5,7.7,7.5,7.7
						s6,9.2,6,7.8s-0.9-13.4-2.1-14.4c-1.2-1-7.2-9-7.2-9s11.3,6.3,12.3,7.3s10.2,10.3,10.2,10.3l-8.9,1.7L626.7,636.1z"/>
				</g>
				<g>
					<path d="M520.1,632.1c4.1,0.2,18.6,6.3,30.2,7.7s34,3.5,41.3,0c2.9-20.1,12.8-42.2,11.9-51.2c-0.9-9,7.3-15.4,9.6-23
						s12.8-16.9,14.5-24.1s8.7-18,9.3-24.4s2,6.1,5.8-25s-102-56.3-106.7-32.3s-7.9,74.4-6.1,84s-5.2,51.5-8.1,66.6
						C518.9,625.6,520.1,632.1,520.1,632.1z"/>
					<path class="st3" d="M523.8,627.5c0-1.2,3.1-6.6,3.1-6.6l36.9,6.6c0,0-14.6-15.6-17.3-21.5s-14.4-35.5-12.3-34.3
						c2.1,1.2,18.9,37.5,21.3,37.9s15.3,11.7,15.3,11.7s-13.7-25.4-15.3-28.9s-12.5-38.6-13.1-37.6s19.6,32,21.4,36.4
						c1.8,4.4,17.6,25.5,17.6,25.5l8.7,2.7c0,0-8.4-28.5-13.1-32.8c-4.7-4.3-22.3-35.1-22.3-35.1l-3.5-15.6c0,0,12,19.5,15.7,23
						c3.8,3.5,14.5,18.7,14.5,18.7l8.7,19.1c0,0,8.7-5.5,8.7-7.8s-2-26.2-4.3-27.3c-2.3-1.2-19.9-9-19.9-9s21.5,1.2,24.2,2.2
						s16.4,0,16.4,0s-2.5-9.6-5.6-10c-3-0.4-14.7,0-15.9-0.4s8.1-4.7,9.7-5.1c1.6-0.4,11.8,2.7,11.8,2.7s-4.7-7.4-1.2-8.2
						s9-6.6,9.8-8.2c0.8-1.6,8.9-20.3,8.9-20.3V517c0,0-13.1,39.5-16.3,44.1s-13.3,29.7-14.8,35.1s-11,38.2-11,38.2s5.9,7.5-2.3,8.8
						c-8.2,1.4-36.9-3.5-44.2-5.8S523.8,627.5,523.8,627.5z"/>
				</g>
				<path class="st3" d="M575.9,474.1c0,0,40.6,11.7,53.7,14.9c13.2,3.2,48.3-7.4,48.3-7.4s-3.2-20-3.6-24.5
					c-0.5-4.6-40.2-63.7-47.4-109.3c8.6,18.5,37.9,80.4,37.9,80.4s-8.1-40.2-8.1-48.3c0-8.1-8.1-33.4-7.7-40.6
					c0.4-7.2-0.9-46.1,0-49.7s3.1-46.1,3.1-46.1s-4.5,9.9-11.3,11.7c-6.8,1.8-33.4-8.6-33.4-8.6s-1.7,43.8,2.1,52.4s5.1,37,5.1,37
					s-9-30.7-9-29.3s-9.9,70-9.9,74.5C595.8,385.6,575.9,474.1,575.9,474.1z"/>
				<g>
					<g>
						<path d="M538.9,518.8c3.5-0.3,27.3-15.9,28.7-21.6c1.4-5.7,20.2-65.2,22.3-76.2s14.5-87.5,14.5-96s3.2-62.3,3.5-68.4
							c0.4-6-0.7-20.9-2.5-23s-12-9.6-14.5-12s-3.9-5.3-3.9-5.3l7.4-5.7h-13.2c0,0-6.3,13.1-7.9,14.2c-1.6,1.1-32.8,10.6-37.1,14.9
							c-2.1,2.1-7.9,6.2-13.7,11.3c-6.3,5.5-12.6,12-14.2,18.1c-3.2,11.7-11.3,38.3-12.8,44.6s-8.1,33.7-11,38.3
							s-10.3,14.2-7.8,20.2s6.4,10.3,6,15.2c-0.4,5-5.3,11.3-3.2,14.9s6,3.9,6.4,7.1s0.4,8.1,1.8,9.9c1.4,1.8,10.3,8.3,10.3,8.3
							s3.9-6.9,7-9.8s13-4.6,18.6-3.5c5.5,1.1,6.6-4.3,5.9-7.1c-0.7-2.8-4.7-9.6-5.9-11.3c-1.2-1.8,0-8.9,0-8.9s5.5,9.2,7.3,14.9
							c1.8,5.7-0.4,17.4-0.7,21.6c-0.4,4.3,0.7,11.7,1.1,15.9c0.4,4.3-0.4,23.8-0.7,28.2s-2.6,8.6-3.4,16
							c-0.8,7.4,2.1,17.7,5.5,21.6C536.3,509.2,538.9,518.8,538.9,518.8z"/>
						<path class="st3" d="M496.4,418.9c0.7-3.2,15.6-11,18.8-11s11.7-2.1,10.6-4.3c-1.1-2.1-6.4-7.4-7.8-7.4
							c-1.4,0-12.4,1.8-12.4,1.8s4-4.3,5.5-5.7c1.5-1.4,8.7-5.7,8.7-5.7h-11.1l-7.8,2.8l-6.4,1.1c0,0,11.7-8.9,14.2-9.2
							c2.5-0.4,4-3.9,1.5-4.6s-8.2-2.5-10.7-2.5s-9.6,2.1-9.6,2.1s5.3-5.3,7.1-6c1.8-0.7,12,0,13.5,0s9.3,2.8,9.3,2.8l-4-19.8
							c0,0,8.3-31.5,10-36.5s4.2-25.9,4.2-25.9s5.3,14.5,5,19.1s-7.8,27.3-7.8,27.3l11.3-26.9l-3.9-24.1c0,0,2.8-14.5,2.1-16.6
							s-7.1-15.9-8.5-17.7c-1.4-1.8-5.5-5-8.4-1.8S509.5,263,509.1,264c-0.4,1.1-1.8,12-1.8,12s3.2-10.3,6.9-13.5s12.2-7.1,11.5-6
							s-10.3,8.5-11.5,11s-6.2,10.3-8,14.9s-11,28-11,28l14.5-22.3c0,0,8.6-17,10-15.9c1.3,1.1-10.3,30.1-10.3,30.1l-17.7,24.1
							c0,0-0.4,8.5-2.5,13.5s-8.5,19.1-8.5,19.1s11.3-3.9,14.5-5.7s8.9,2.1,7.8,2.1s-11.7,2.5-13.1,3.9s-5.7,4.6-7.4,7.1
							s-2.5,7.5-1.8,8.9s5.3,6.7,6.7,6.7s8.9-1.1,8.9-1.1s-6.4,3.5-7.4,4.3c-1.1,0.7-7.1-2.8-6,2.1c1.1,5-7.8,16.3-3.2,14.9
							s7.4-0.4,7.4-0.4s3.9,2.1,3.2,5.3c-0.7,3.2-2.8,7.1-0.7,8.5C491.8,417.1,496.4,418.9,496.4,418.9z"/>
						<path class="st3" d="M523.6,414.3c0,0,12.8,41.4,12.3,45.6s-10.4,21.6-8.7,23.8s-7.3-11.7-9-14.2
							c-1.6-2.4-12.5-26.3-15.2-30.8c-1.9-3.1-4.1-7.6-4.9-11.2c-0.8-3.5-0.1-5.1,7-9.8C512.1,413.2,523.6,414.3,523.6,414.3z"/>
						<path d="M535,463.5c0.3-1-16.8-50.5-16.8-50.5l5.7,1.3l14.7,43.9L535,463.5z"/>
					</g>
					<path class="st3" d="M530,243.4c2.7-0.5,25.1-7.7,26.6-8.1s13.6-2.1,13.6-2.1s6.7,11.9,6.7,12.8s6.3-0.8,7.5-1.7
						s6.3-4.8,8.4-4.6c2.1,0.2,10.9,5,10.9,5s1.9,14,2.3,16.9s0,26.4,0,26.4s-9.2-15.7-10-18.6s-6.7-15.1-6.7-15.1l5,18.6
						c0,0,2.7,11.5,4.4,13.4s4.4,6.1,4.4,6.1s0.6,14.6,0.2,19.2c-0.4,4.6-2.7,31.6-3.1,33.3c-0.4,1.7-7.1,48.1-6.9,51.5
						c0.2,3.3-9,39.7-9.3,42s-6,31.2-8,35.8s-13.9,26.4-15.6,28.7c-1.7,2.3-15.7,11.3-15.7,11.3s-4.4-4.2-5-5.4
						c-0.6-1.3,2.7-7.7,4.4-9.4s22.4-21.8,24-25.3c1.7-3.6,6.7-46,7.9-52.7c1.1-6.7,6.2-24.7,6.6-28.2c0.4-3.6,7.5-61.3,8.2-67.8
						c0.6-6.5,4-27.6,4-32s-1.5-12.1-1.5-12.1s-1.7,12.6-1.7,16.9s-2.9-22.6-3.6-24.5c-0.6-1.9-3.3,4-2.9,5.9
						c0.4,1.9-0.2,21.1-0.2,21.1s-1,19.7-1.3,18.6c-0.2-1-3.3-23.2-3.3-25.7s-2.1-14.2-2.7-15.5c-0.6-1.3-9.4-17.2-9.4-15.7
						s4,27,4,27s1.9,10.2,2.5,12.8c0.6,2.5,6.7,39.5,6.7,40.6c0,1-4,15.9-4,15.9l-8.2-34.7c0,0-9-33.5-10-35.8s-6.5-17.8-7.1-19.7
						c-0.6-1.9-5.4-6.3-5.4-4.6c0,1.7,10.2,40.2,11.5,44.3c1.3,4.2,7.1,17.6,7.7,23.2c0.6,5.6-0.8,27.6-0.8,27.6s-4.6-14-4.8-18.2
						s-7.7-41.2-9.6-44.8c-1.9-3.6-8.2-18.8-8.2-18.8l-8.9-15.3c0,0-7.5-12.6-6.9-13.8S530,243.4,530,243.4z"/>
					<path class="st3" d="M545.8,476.2c12.8-60,3.6-113.7,2.9-125.4s-10.2-50.8-10.1-58.3s0-35.5,0-35.5s4.4,22,3.7,29.1
						s2.8,25.2,2.8,25.2l3.2-38.7l2.2,23.3c0,0-1.6,22.9,1,33.2c2.5,10.3,7.2,52.6,7.2,52.6S558.6,433.1,545.8,476.2z"/>
					<path class="st3" d="M596.7,229.3l-19.9,16.6l-3.3-21.1l7.5-10.5C581,214.3,587.9,224.9,596.7,229.3z"/>
				</g>
				<path d="M707.2,521.5c-2.7,0.7-21.2-18.8-22.2-21.1c-1-2.4-9.9-25.6-9.9-25.6s-3.4-33.5-4.4-36.5s-8-19.9-8.6-24.1
					c-0.6-4.2-4.7-20.3-5.1-27.4c-0.4-7.1-2-23.5-2.9-29s-5.3-61-5.3-61l2.7-35.5c0,0-0.6-12,0-15s-6.8-17.4-6.8-17.4
					s-3.5-9.9-1.9-9.9s9.5,10.6,11.3,11.6s25.7,10.8,28.4,12.7c2.7,2,18.1,20.7,18.4,22.4c0.3,1.7-1.7,70.2-2.4,77.7
					s1.7,44.3,1.7,44.3s0.7,33.1-0.3,38.9c-1,5.8-4.8,18.4-5.3,25.2s-0.2,15.3,0,24.2C694.9,485,707.2,521.5,707.2,521.5z"/>
				<path class="st3" d="M707.2,521.5c-3.8-6.1-18.8-53.6-20.8-58s-5.1-32-5.1-32s-4.3-68.1-3.4-66.8c1,1.3,11.2,44.6,11.2,44.6
					s-7.5-52.9-8.5-54.9s-9.2-40.9-9.5-47.4s-4.8-26.9-6.5-35.5c-1.7-8.5-4.8-16-4.8-13c0,3.1,0,35.8,0,35.8s10.6,46.7,11.3,51.5
					s4.5,32.7,3.8,41.9c-0.7,9.2-2.1,26.3-2.1,26.3l-6.8-43.9c0,0-7.5-28.5-9.2-38s-3-22.8-2.5-31s-2.2-30.3,0-34.4
					s8.3-11.3,9.4-14.3c1-3.1-13.3-21.3-14.5-22.4s-3.2-8.6-3.2-8.6s11.6,11.9,14.3,14.3s11.6,18.7,12.6,21.1s7.2,20.8,7.2,26.3
					s2.7,19.8,2.7,19.8l6.5-30.3l-2.4,35.5c0,0-0.4,24.2-1.7,33.1s8.9,68.4,8.2,73.1c-0.7,4.7-2,47.3-1,52.1
					C693.2,471.1,707.2,521.5,707.2,521.5z"/>
				<path class="st3" d="M691.2,370.3c1.4-1.9,3-9,3.5-13.1s1.6-17,1.6-17l-5.1,15.1l-7.5,7.4c0,0,6.1-14.3,6.3-17s8.4-29,8.4-29
					s-4.2-26.9-3.6-29s-4.2-23.5-6.3-26.3c-2-2.7-8.5-12.4-8.5-12.4s3.8-2.9,5.8,0s7.4,10.7,9,13.4c1.6,2.7,3.6,17,3.6,17
					s0.3,44,0,49.1s0.2,30,0.2,30l-3.8,20.8c0,0,3.6,10.9,3.8,14.3s2.1,19.4,2.1,19.4l-0.6,13.7c0,0-5.9-25.2-5.3-28.6
					S691.2,370.3,691.2,370.3z"/>
				<path class="st3" d="M587.1,216.3c0,0,7.5,0.9,7.4-5.7s-2-22.6-2-22.6l-1.7-3.8c0,0-6.3,2.2-10.4-8.6c-4.2-10.9,0-15.7,3.6-14.8
					c3.5,1,7,9,7,9s1-18.9,1-21.8c0-2.9,2.4-7.4,2.6-10.3c0.3-2.9,5-5.4,13.5-4.8c8.5,0.6,20.1,1.1,23.3-0.1
					c3.2-1.2,11.9-3.7,13.1-4.4c1.3-0.6,8.6,5.4,9.6,7.4c1,1.9,2.9,25.9,2.9,25.9s3.5-0.3,2.6,3.5c-1,3.8-2.6,7.1-2.6,7.1
					s-3.5,20.5-5.4,24s-7,8.3-7,8.3s-1.9,7.3-1.6,14.4c0.3,7.1,4.5,24.8,4.8,26.8c0.3,2.1-8.3,10.7-22.1,6.5s-14.6-11.9-15.9-13.8
					c-1.4-1.9-3.5-10.6-3.5-10.6L587.1,216.3z"/>
				<path d="M599.7,158.1c0.6-0.8,7.3-5.3,9.9-5.7c2.6-0.5,9.7,3.8,10.1,4.5s-0.6,1.6-1.4,1.2s-3.2-1.5-4.6-1.8
					c-1.4-0.3-3.5,0.5-4.9,1.1s-5.3,4.7-5.3,4.7s8.9-0.3,10,0s8.8,0,8.8,0s3.2-0.5,3.2-0.9s0-4.1-1.1-5.4c-1.1-1.4-3.6-4.1-6.2-5.3
					c-2.6-1.2-5.4-1.7-7.2-1.5s-8.8,3.8-10.4,5.6C598.9,156.3,599.7,158.1,599.7,158.1z"/>
				<path d="M632.9,157.8c0.5-1.5,0-3,0.8-4.1s11.5-5.6,12.2-5.7c0.7-0.2,5.6,3.6,6.4,4.9c0.8,1.3,0,1.6,0,1.6s-5.5-2.9-6.4-3.5
					c-0.5-0.3-4.6,3.4-7.3,4.5c-1,0.4-1.8,2.3-1.8,2.3s2.1-0.6,4.2-0.8s5.9,0.8,5.9,0.8l2.9,2.7c0,0-6.2,1.5-7.2,1.6
					c-1,0.2-8.8-1.3-8.8-1.3L632.9,157.8z"/>
				<path d="M604.8,164.6c-1.2-2.6-1.2-2.6-1.2-2.6s4.4,3.5,7.4,3.9c3,0.5,6.9,0,6.9,0s-7.5,2.7-9.9,1.8L604.8,164.6z"/>
				<path d="M635.9,162.9c0.5,0,5.1,1.5,6.6,1.4c1.4-0.2,6.1-0.7,6.1-0.7l-6.1,2.2L635.9,162.9z"/>
				<path d="M634.9,166.8c0.5,0.2,5.1,6.2,6.6,7.1s3.7,5.6,4.3,6.2c0.7,0.6,0,5.6,0,5.6s-2.9-6.6-3.1-7.2c-0.2-0.6-3.8-4.5-4.8-5.4
					C636.8,172.1,634.9,166.8,634.9,166.8z"/>
				<path d="M615.5,188.4c0.8-0.2,11.4-2.1,11.4-2.1s3.3,1.5,3.7,1.1c0.5-0.5,3.6-1.7,3.6-1.7s4.4,1.8,5,1.4
					c0.6-0.5,5.1-2.4,5.1-2.4s-5.6,4.8-6,5c-0.5,0.2-5,3.5-5.4,3.5s-7.6-0.3-8.5,0s-4.8-2.3-5.6-2.9
					C618.1,189.6,615.5,188.4,615.5,188.4z"/>
				<path d="M629.5,176.5c1.2,1.2,4.6,0.1,5.4-1.1c0.7-1,0.9-1.1,1.8-0.9c0.5,0.1,1.7,2.7,1.2,3.2s-1.7,0.2-2.6,0.1
					c-0.9-0.2-3.9,3.2-5.3,3.4c-1.4,0.2-4.6-1.4-5.7-1.4s-4.1,1.4-4.4,0.3c-0.3-1.1,0.9-4.5,0.9-4.5s3.5-6,3.2-4.8s-2,4.7-1.4,5.5
					s2.4,2.2,2.9,1s1.7-1.3,2.4-1.3S629.5,176.5,629.5,176.5z"/>
				<path d="M642.7,202.2c0,0-6.7,5.5-9,6.2c-2.3,0.8-9.6,0.2-12.1-1s-9-8-10.8-9.4s-0.1-17.6-1.2-19.1c-1.1-1.6-2.6-3.3-4.4-4.5
					s-5.7-7.7-5.7-7.7s2.2,6.9,3.2,9.1s3.1,7.8,3.4,8.8c0.3,1,2,8.5,2,8.5s-2.5,2-3,0c-0.6-2-3.1-10.6-3.7-13
					c-0.6-2.3-2-9.6-3.7-12.2s-3.9-7.6-3.5-3c0.4,4.7,2.3,24.6,3.7,28.2s5.3,9.1,10.3,11.2s12.8,6.3,12.8,6.3s-14.9-6.1-17.2-7
					c-2.3-1-6.8-5.5-6.9-4.5c-0.1,1,1.3,12,1.1,15.2s3.1,9.6,3.9,10.6c0.8,1,9.7,12.1,10.8,12.9s15.1-10.5,16.4-13.3
					c1.3-2.7,9.8-12.1,10.1-15.8C639.2,205,642.7,202.2,642.7,202.2z"/>
				<path d="M591.8,179.9c-0.4-1.3-2.4-4.5-3.2-5.8s-1.1-1.7-1.7-3.5c-0.6-1.9-0.5-2.7-1.8-3.8c-1.3-1.1-2.8-3.4-3.9-1.9
					c-1.1,1.5-0.6,6.6,0,7.2s2.8,5.5,2.6,4.9s-1.3-9.6-0.7-9.2s1.9,3,2.1,4.2s0.5,4.4,1.1,4.9c0.6,0.6,4.7,5.2,4.7,5.2L591.8,179.9z
					"/>
			</g>
		</g>
	</g>
</g>
</svg>
