<?xml version="1.0" encoding="utf-8"?>
<!-- Generator: Adobe Illustrator 24.0.0, SVG Export Plug-In . SVG Version: 6.00 Build 0)  -->
<svg version="1.1" id="Layer_1" xmlns="http://www.w3.org/2000/svg" xmlns:xlink="http://www.w3.org/1999/xlink" x="0px" y="0px"
	 viewBox="0 0 1920 1080" style="enable-background:new 0 0 1920 1080;" xml:space="preserve">
<style type="text/css">
	.st0{clip-path:url(#SVGID_3_);}
	.st1{clip-path:url(#SVGID_6_);}
	.st2{clip-path:url(#SVGID_8_);}
	.st3{fill:#FFFFFF;stroke:#231F20;stroke-width:4;stroke-miterlimit:10;}
	.st4{enable-background:new    ;}
	.st5{fill:none;stroke:#231F20;stroke-width:4;stroke-miterlimit:10;}
	.st6{stroke:#231F20;stroke-width:4;stroke-miterlimit:10;}
	.st7{stroke:#FFFFFF;stroke-width:1.7639;stroke-miterlimit:10;}
	.st8{fill:none;stroke:#FFFFFF;stroke-width:2.4111;stroke-miterlimit:10;}
	.st9{fill:none;stroke:#ED1C24;stroke-width:4;stroke-linecap:round;stroke-linejoin:round;stroke-miterlimit:10;}
</style>
<g>
	<defs>
		<rect id="SVGID_2_" y="0" width="1920" height="1080"/>
	</defs>
	<clipPath id="SVGID_3_">
		<use xlink:href="#SVGID_2_"  style="overflow:visible;"/>
	</clipPath>
	<g class="st0">
		<g>
			<g>
				<defs>
					<rect id="SVGID_4_" x="-17.7" y="-10" width="1955.3" height="1102.5"/>
				</defs>
				<clipPath id="SVGID_6_">
					<use xlink:href="#SVGID_4_"  style="overflow:visible;"/>
				</clipPath>
				<g class="st1">
					<g>
						<rect id="SVGID_5_" x="-71.9" y="-133.3" width="2063.9" height="1349.1"/>
					</g>
					<g>
						<defs>
							<rect id="SVGID_7_" x="-71.9" y="-133.3" width="2063.9" height="1349.1"/>
						</defs>
						<clipPath id="SVGID_8_">
							<use xlink:href="#SVGID_7_"  style="overflow:visible;"/>
						</clipPath>
						<g class="st2">
							<g>
								<g>
									
										<rect x="490.5" y="107.7" transform="matrix(0.2563 -0.9666 0.9666 0.2563 272.2321 1259.9036)" class="st3" width="928.8" height="690.6"/>
									<g class="st4">
										<path d="M848.5,46.9c-2.8-2.9-4.5-6.4-5.3-10.6c-0.7-4.1-0.4-8.7,0.9-13.6c1.3-4.9,3.3-9,6-12.2c2.7-3.2,5.9-5.3,9.7-6.5
											c3.8-1.1,7.9-1.1,12.3,0.1c4.3,1.1,7.6,2.7,9.8,4.5c-0.8,2.7-1.8,5-3.1,7.1c-2.3-1.8-4.9-3-8-3.9
											c-2.6-0.7-5.1-0.7-7.5,0.1c-2.3,0.8-4.4,2.3-6.1,4.5c-1.7,2.2-3.1,5.1-4,8.6c-0.9,3.6-1.2,6.8-0.7,9.6
											c0.5,2.8,1.6,5.2,3.4,7c1.8,1.9,4.1,3.2,7,3.9c3.2,0.8,6.3,1,9.4,0.5c-0.9,2.4-2,4.9-3.4,7.6c-2.9,0.3-5.9,0-9.1-0.8
											C855,51.9,851.3,49.8,848.5,46.9z"/>
										<path d="M882.8,56.1c-2.6-2.8-4.2-6.2-4.9-10.3c-0.6-4.1-0.3-8.6,1-13.6c1.3-5.1,3.3-9.2,5.9-12.4
											c2.6-3.2,5.7-5.4,9.4-6.5c3.6-1.1,7.7-1.1,12.1,0.1c4.5,1.2,8,3.2,10.6,6c2.6,2.8,4.2,6.2,4.9,10.3
											c0.6,4.1,0.3,8.6-1,13.6c-1.4,5.1-3.3,9.3-5.9,12.5c-2.6,3.2-5.7,5.4-9.4,6.5c-3.6,1.1-7.7,1.1-12-0.1
											C889,60.9,885.4,58.9,882.8,56.1z M911.8,40.9c1.5-5.5,1.6-10,0.3-13.4c-1.3-3.4-3.9-5.6-7.8-6.7c-3.9-1-7.3-0.4-10.1,1.9
											c-2.8,2.3-4.9,6.2-6.4,11.8c-1.5,5.5-1.6,10-0.3,13.4c1.3,3.4,3.9,5.6,7.8,6.7C903.4,56.7,908.9,52.1,911.8,40.9z"/>
										<path d="M964.8,29.7c1.6,0.2,3.1,0.5,4.6,0.9l-12.5,47.1l-7.8-2.1l-9.4-31.1c-0.7-2.6-1.2-4.7-1.5-6.2
											c-0.8,3.2-2.1,8.3-3.9,15.2l-4.5,16.9l-8.3-2.2l12.2-45.9c1.3,0,2.8,0.1,4.3,0.2c1.5,0.2,2.9,0.4,4.2,0.8l8.6,29
											c0.6,2.1,1.2,4.7,1.9,8c1.2-5.4,2.5-11.2,4.1-17.2l3.6-13.7C961.8,29.4,963.2,29.5,964.8,29.7z"/>
										<path d="M985.5,43.5l-3.2,12l16.3,4.3c-1.1,3.4-2.1,5.8-2.8,7.2L980.3,63l-5.2,19.5l-8.7-2.3l12.3-46.5l27.1,7.2
											c-0.4,1.2-0.8,2.5-1.3,3.8c-0.5,1.4-1,2.5-1.4,3.4L985.5,43.5z"/>
										<path d="M1011.6,43c1.2,0,2.7,0.1,4.3,0.3s3.3,0.5,4.7,0.9l-12.5,47.1l-8.7-2.3L1011.6,43z"/>
										<path d="M1059.6,60.8c2.6,5.2,2.9,11.6,0.9,19c-2,7.6-5.5,13-10.4,16s-11.1,3.6-18.7,1.6l-13.7-3.6l12.3-46.4
											c3.9,0.2,8.5,1,13.8,2.4C1051.7,51.9,1057,55.6,1059.6,60.8z M1044.9,88.8c2.8-2.1,5-5.9,6.5-11.4
											c1.4-5.4,1.4-9.8-0.1-13.2c-1.5-3.4-4.6-5.7-9.4-6.9c-1.8-0.5-3.4-0.8-4.9-1l-8.6,32.4l5.1,1.4
											C1038.3,91.2,1042.1,90.8,1044.9,88.8z"/>
										<path d="M1071.7,100.2l19.2,5.1c-0.3,1.1-0.7,2.3-1.2,3.7c-0.5,1.4-1,2.6-1.5,3.5l-27.2-7.2l12.3-46.5l28.1,7.4
											c-0.4,1.2-0.8,2.5-1.3,3.9c-0.5,1.4-1,2.5-1.4,3.4l-18.6-4.9l-3.1,11.8l17.3,4.6c-0.3,1.1-0.7,2.3-1.2,3.7
											c-0.5,1.4-1,2.6-1.5,3.5l-16.5-4.4L1071.7,100.2z"/>
										<path d="M1139.1,75.9c1.6,0.2,3.1,0.5,4.6,0.9l-12.5,47.1l-7.8-2.1l-9.4-31.1c-0.7-2.6-1.2-4.7-1.5-6.2
											c-0.8,3.2-2,8.3-3.9,15.2l-4.5,16.9l-8.3-2.2l12.2-45.9c1.3,0,2.8,0.1,4.3,0.2s2.9,0.4,4.2,0.8l8.6,29
											c0.6,2.1,1.2,4.7,1.9,8c1.2-5.4,2.5-11.2,4.1-17.2l3.6-13.7C1136.1,75.7,1137.5,75.7,1139.1,75.9z"/>
										<path d="M1148.6,126.5c-2.8-2.9-4.5-6.4-5.2-10.6c-0.7-4.1-0.4-8.7,0.9-13.6c1.3-4.9,3.3-9,6-12.2s5.9-5.3,9.7-6.5
											c3.8-1.1,7.9-1.1,12.3,0.1c4.3,1.1,7.6,2.7,9.8,4.5c-0.8,2.7-1.8,5-3.1,7.1c-2.3-1.8-4.9-3-8-3.9
											c-2.6-0.7-5.1-0.7-7.5,0.1c-2.3,0.8-4.4,2.3-6.1,4.5c-1.7,2.2-3.1,5.1-4,8.6c-1,3.6-1.2,6.8-0.7,9.6
											c0.5,2.8,1.6,5.2,3.4,7c1.8,1.9,4.1,3.2,7,3.9c3.2,0.8,6.3,1,9.4,0.5c-0.9,2.4-2,4.9-3.4,7.6c-2.9,0.3-5.9,0-9.1-0.8
											C1155.1,131.5,1151.4,129.4,1148.6,126.5z"/>
										<path d="M1188.8,90c1.2,0,2.7,0.1,4.3,0.3s3.3,0.5,4.7,0.9l-12.5,47.1l-8.7-2.3L1188.8,90z"/>
										<path d="M1221.1,138l-17.3-4.6l-5.2,8.4l-8.6-2.3l26.7-42c1.3,0,3,0.2,5.1,0.6c2.1,0.4,4.2,0.8,6.2,1.4l2.3,50.8l-9.2-2.4
											L1221.1,138z M1221,130.2l-0.4-24.1l-12.7,20.6L1221,130.2z"/>
										<path d="M1247.4,105.6c1.2,0,2.6,0.1,4.3,0.3c1.7,0.2,3.3,0.5,4.7,0.9l-10.5,39.5l16.7,4.4c-0.3,1.1-0.7,2.3-1.2,3.7
											c-0.5,1.4-1,2.6-1.5,3.7l-24.6-6.5L1247.4,105.6z"/>
									</g>
									<line class="st5" x1="851.7" y1="-16" x2="1275.5" y2="96.4"/>
									<line class="st5" x1="832" y1="58.2" x2="1255.8" y2="170.6"/>
								</g>
								<g>
									<line class="st5" x1="740.2" y1="61.1" x2="1335.4" y2="218.9"/>
									<line class="st5" x1="732.6" y1="90" x2="1327.8" y2="247.8"/>
									<line class="st5" x1="724.9" y1="118.9" x2="1320.1" y2="276.7"/>
									<line class="st5" x1="717.3" y1="147.8" x2="1312.5" y2="305.6"/>
									<line class="st5" x1="709.6" y1="176.7" x2="1304.8" y2="334.5"/>
									<line class="st5" x1="701.9" y1="205.6" x2="1297.1" y2="363.4"/>
									<line class="st5" x1="694.3" y1="234.5" x2="1289.5" y2="392.3"/>
									<line class="st5" x1="686.6" y1="263.4" x2="1281.8" y2="421.2"/>
									<line class="st5" x1="679" y1="292.3" x2="1274.2" y2="450.1"/>
									<line class="st5" x1="671.3" y1="321.2" x2="1266.5" y2="479"/>
									<line class="st5" x1="663.6" y1="350.1" x2="1258.8" y2="507.9"/>
									<line class="st5" x1="656" y1="379" x2="1251.2" y2="536.8"/>
									<line class="st5" x1="648.3" y1="407.9" x2="1243.5" y2="565.7"/>
									<line class="st5" x1="640.7" y1="436.8" x2="1235.8" y2="594.6"/>
									<line class="st5" x1="633" y1="465.7" x2="1228.2" y2="623.5"/>
									<line class="st5" x1="625.3" y1="494.6" x2="1220.5" y2="652.4"/>
									<line class="st5" x1="617.7" y1="523.5" x2="1212.9" y2="681.3"/>
									<line class="st5" x1="610" y1="552.4" x2="1205.2" y2="710.2"/>
									<line class="st5" x1="602.4" y1="581.3" x2="1197.5" y2="739.1"/>
									<line class="st5" x1="594.7" y1="610.2" x2="1189.9" y2="768"/>
									<line class="st5" x1="587" y1="639.1" x2="1182.2" y2="796.9"/>
									<line class="st5" x1="579.4" y1="668" x2="1174.6" y2="825.8"/>
									<line class="st5" x1="571.7" y1="696.9" x2="1166.9" y2="854.6"/>
									<line class="st5" x1="564.1" y1="725.7" x2="1159.2" y2="883.5"/>
									<line class="st5" x1="556.4" y1="754.6" x2="1151.6" y2="912.4"/>
								</g>
							</g>
							<g>
								<rect x="906.1" y="238.1" class="st3" width="690.6" height="928.8"/>
								<g>
									<line class="st5" x1="970.8" y1="378.8" x2="1261.4" y2="378.8"/>
									<line class="st5" x1="970.8" y1="408.7" x2="1261.4" y2="408.7"/>
									<line class="st5" x1="970.8" y1="438.5" x2="1261.4" y2="438.5"/>
									<line class="st5" x1="970.8" y1="468.4" x2="1261.4" y2="468.4"/>
									<line class="st5" x1="970.8" y1="528.2" x2="1456.6" y2="528.2"/>
									<line class="st5" x1="970.8" y1="558.1" x2="1456.6" y2="558.1"/>
									<line class="st5" x1="970.8" y1="588" x2="1456.6" y2="588"/>
									<line class="st5" x1="970.8" y1="617.9" x2="1456.6" y2="617.9"/>
									<line class="st5" x1="970.8" y1="647.8" x2="1456.6" y2="647.8"/>
									<line class="st5" x1="970.8" y1="677.7" x2="1456.6" y2="677.7"/>
									<line class="st5" x1="970.8" y1="707.6" x2="1456.6" y2="707.6"/>
									<line class="st5" x1="970.8" y1="737.5" x2="1456.6" y2="737.5"/>
									<line class="st5" x1="970.8" y1="767.4" x2="1456.6" y2="767.4"/>
									<line class="st5" x1="970.8" y1="797.3" x2="1456.6" y2="797.3"/>
									<line class="st5" x1="970.8" y1="827.2" x2="1456.6" y2="827.2"/>
									<line class="st5" x1="970.8" y1="857.1" x2="1456.6" y2="857.1"/>
									<line class="st5" x1="970.8" y1="887" x2="1456.6" y2="887"/>
									<line class="st5" x1="970.8" y1="916.9" x2="1456.6" y2="916.9"/>
									<line class="st5" x1="970.8" y1="946.7" x2="1456.6" y2="946.7"/>
									<line class="st5" x1="970.8" y1="976.6" x2="1456.6" y2="976.6"/>
									<line class="st5" x1="970.8" y1="1006.5" x2="1456.6" y2="1006.5"/>
									<line class="st5" x1="970.8" y1="1036.4" x2="1456.6" y2="1036.4"/>
									<line class="st5" x1="970.8" y1="1066.3" x2="1456.6" y2="1066.3"/>
									<line class="st5" x1="1475.9" y1="528.2" x2="1545.1" y2="528.2"/>
									<line class="st5" x1="1475.9" y1="558.1" x2="1545.1" y2="558.1"/>
									<line class="st5" x1="1475.9" y1="588" x2="1545.1" y2="588"/>
									<line class="st5" x1="1475.9" y1="617.9" x2="1545.1" y2="617.9"/>
									<line class="st5" x1="1475.9" y1="647.8" x2="1545.1" y2="647.8"/>
									<line class="st5" x1="1475.9" y1="677.7" x2="1545.1" y2="677.7"/>
									<line class="st5" x1="1475.9" y1="707.6" x2="1545.1" y2="707.6"/>
									<line class="st5" x1="1475.9" y1="737.5" x2="1545.1" y2="737.5"/>
									<line class="st5" x1="1475.9" y1="767.4" x2="1545.1" y2="767.4"/>
									<line class="st5" x1="1475.9" y1="797.3" x2="1545.1" y2="797.3"/>
									<line class="st5" x1="1475.9" y1="827.2" x2="1545.1" y2="827.2"/>
									<line class="st5" x1="1475.9" y1="857.1" x2="1545.1" y2="857.1"/>
									<line class="st5" x1="1475.9" y1="887" x2="1545.1" y2="887"/>
									<line class="st5" x1="1475.9" y1="916.9" x2="1545.1" y2="916.9"/>
									<line class="st5" x1="1475.9" y1="946.7" x2="1545.1" y2="946.7"/>
									<line class="st5" x1="1475.9" y1="976.6" x2="1545.1" y2="976.6"/>
									<line class="st5" x1="1475.9" y1="1006.5" x2="1545.1" y2="1006.5"/>
									<line class="st5" x1="1475.9" y1="1036.4" x2="1545.1" y2="1036.4"/>
									<line class="st5" x1="1475.9" y1="1066.3" x2="1545.1" y2="1066.3"/>
									<line class="st5" x1="1475.9" y1="1096.2" x2="1545.1" y2="1096.2"/>
								</g>
								<g class="st4">
									<path d="M974,331.4h19.9c0,1.1-0.1,2.4-0.2,3.9c-0.1,1.5-0.3,2.8-0.6,3.8H965V291h29c0,1.2-0.1,2.6-0.3,4.1
										c-0.1,1.5-0.3,2.7-0.5,3.6H974V311h17.9c0,1.1-0.1,2.4-0.2,3.9c-0.1,1.5-0.3,2.7-0.6,3.8H974V331.4z"/>
									<path d="M1004.3,339.5c-2.3-0.5-4.2-1.2-5.7-2.1c0.1-1.6,0.2-2.9,0.3-4.1c0.1-1.2,0.4-2.3,0.7-3.5c1.7,1,3.5,1.7,5.6,2.2
										c2.1,0.5,4.2,0.8,6.3,0.8c2.8,0,5-0.5,6.5-1.6s2.3-2.6,2.3-4.6c0-1.4-0.3-2.6-1-3.5c-0.7-0.9-1.6-1.7-2.6-2.3
										c-1-0.6-2.4-1.2-4-1.9l-4.1-1.6c-6.8-2.7-10.2-7.3-10.2-14c0-4.2,1.4-7.5,4.2-9.9c2.8-2.4,7.1-3.6,12.8-3.6
										c4.7,0,8.8,0.7,12.4,2.2c-0.1,1.3-0.2,2.5-0.4,3.6c-0.2,1.1-0.4,2.3-0.7,3.7c-1.8-0.6-3.7-1.1-5.6-1.5s-3.7-0.5-5.3-0.5
										c-2.9,0-5,0.5-6.3,1.6s-2,2.4-2,4.2c0,1.9,0.6,3.4,1.8,4.5c1.2,1.1,2.8,2,4.8,2.8l4.1,1.5c7.5,2.8,11.3,7.5,11.3,14.1
										c0,2.8-0.7,5.2-2,7.4c-1.4,2.2-3.4,3.8-6.1,5.1c-2.7,1.2-6,1.8-9.9,1.8C1009,340.3,1006.6,340,1004.3,339.5z"/>
									<path d="M1066.2,295c-0.1,1.5-0.3,2.8-0.5,3.8h-12.4v40.3h-9v-40.3h-13.2c0-1.2,0.1-2.6,0.3-4.1c0.2-1.5,0.3-2.7,0.5-3.7
										h34.6C1066.5,292.1,1066.4,293.4,1066.2,295z"/>
									<path d="M1091.9,329.6H1074l-2.8,9.4h-8.9l15.1-47.5c1.2-0.3,2.9-0.6,5-0.8c2.1-0.2,4.2-0.3,6.4-0.3l15.3,48.5h-9.5
										L1091.9,329.6z M1089.7,322.1l-6.5-23.2l-6.9,23.2H1089.7z"/>
									<path d="M1140.9,296.4c3.8,4.4,5.7,10.4,5.7,18.1c0,7.9-2,13.9-5.9,18.2c-4,4.2-9.8,6.4-17.6,6.4H1109v-48
										c3.8-0.8,8.5-1.3,14-1.3C1131.1,289.8,1137.1,292,1140.9,296.4z M1134,327.2c2.2-2.7,3.3-6.9,3.3-12.6
										c0-5.6-1.1-9.8-3.4-12.7c-2.3-2.9-5.9-4.3-10.9-4.3c-1.9,0-3.5,0.1-5,0.3v33.5h5.3C1128.2,331.3,1131.7,329.9,1134,327.2z"
										/>
									<path d="M1160.9,337.2c-3.2-2-5.7-4.9-7.4-8.7c-1.7-3.8-2.5-8.3-2.5-13.4c0-5.2,0.8-9.7,2.5-13.5c1.7-3.8,4.2-6.7,7.4-8.7
										c3.2-2,7.2-3,11.7-3c4.6,0,8.6,1,11.8,3.1c3.2,2,5.7,4.9,7.4,8.7c1.7,3.8,2.5,8.3,2.5,13.4c0,5.3-0.8,9.8-2.5,13.6
										c-1.7,3.8-4.2,6.7-7.4,8.6c-3.2,2-7.1,3-11.7,3C1168.1,340.3,1164.1,339.3,1160.9,337.2z M1185,315.1c0-5.7-1-10-3.1-13
										c-2.1-3-5.2-4.4-9.2-4.4c-4.1,0-7.2,1.5-9.2,4.4c-2.1,2.9-3.1,7.3-3.1,13c0,5.7,1.1,10,3.2,13c2.1,3,5.2,4.4,9.3,4.4
										C1180.9,332.5,1185,326.7,1185,315.1z"/>
									<path d="M1247.3,296.4c3.8,4.4,5.7,10.4,5.7,18.1c0,7.9-2,13.9-5.9,18.2c-4,4.2-9.8,6.4-17.6,6.4h-14.2v-48
										c3.8-0.8,8.5-1.3,14-1.3C1237.5,289.8,1243.5,292,1247.3,296.4z M1240.3,327.2c2.2-2.7,3.3-6.9,3.3-12.6
										c0-5.6-1.1-9.8-3.4-12.7c-2.3-2.9-5.9-4.3-10.9-4.3c-1.9,0-3.5,0.1-5,0.3v33.5h5.3C1234.5,331.3,1238.1,329.9,1240.3,327.2
										z"/>
									<path d="M1269.2,331.4h19.9c0,1.1-0.1,2.4-0.2,3.9c-0.1,1.5-0.3,2.8-0.6,3.8h-28.1V291h29c0,1.2-0.1,2.6-0.3,4.1
										s-0.3,2.7-0.5,3.6h-19.2V311h17.9c0,1.1-0.1,2.4-0.2,3.9c-0.1,1.5-0.3,2.7-0.6,3.8h-17.1V331.4z"/>
									<path d="M1317.7,337.1c-3.4-2.1-6-5-7.8-8.9c-1.8-3.8-2.6-8.3-2.6-13.4c0-5.1,0.9-9.5,2.7-13.3c1.8-3.8,4.4-6.7,7.7-8.7
										c3.4-2,7.3-3.1,11.9-3.1c4.4,0,8,0.6,10.6,1.9c0,2.8-0.4,5.3-1.2,7.6c-2.6-1.1-5.6-1.7-8.8-1.7c-2.7,0-5.1,0.7-7.2,2
										c-2.1,1.4-3.6,3.3-4.8,5.9s-1.7,5.7-1.7,9.4c0,3.7,0.6,6.9,1.8,9.5c1.2,2.6,2.9,4.6,5.1,5.9c2.2,1.3,4.8,2,7.7,2
										c3.3,0,6.3-0.6,9.2-1.9c-0.2,2.5-0.7,5.2-1.4,8.2c-2.7,1-5.7,1.5-9,1.5C1325.3,340.3,1321.2,339.2,1317.7,337.1z"/>
									<path d="M1354.8,338.2c-2.7-1.4-4.8-3.3-6.3-5.9c-1.5-2.5-2.2-5.5-2.2-9v-31.8c1.2-0.4,2.6-0.7,4.3-0.9
										c1.7-0.2,3.2-0.3,4.7-0.3v32.7c0,3.1,0.8,5.4,2.4,7c1.6,1.6,3.9,2.4,6.9,2.4c2.9,0,5.2-0.8,6.8-2.3
										c1.6-1.6,2.5-3.9,2.5-7.1v-31.5c1.2-0.3,2.6-0.6,4.3-0.8c1.7-0.2,3.3-0.3,4.8-0.3v33c0,3.4-0.8,6.4-2.3,9
										c-1.5,2.5-3.6,4.5-6.4,5.9c-2.8,1.4-6,2-9.7,2C1360.7,340.3,1357.5,339.6,1354.8,338.2z"/>
									<path d="M1400.8,331.4h19.9c0,1.1-0.1,2.4-0.2,3.9c-0.1,1.5-0.3,2.8-0.6,3.8h-28.1V291h29c0,1.2-0.1,2.6-0.3,4.1
										s-0.3,2.7-0.5,3.6h-19.2V311h17.9c0,1.1-0.1,2.4-0.2,3.9c-0.1,1.5-0.3,2.7-0.6,3.8h-17.1V331.4z"/>
									<path d="M1459.7,290.7c1.6-0.2,3.1-0.3,4.7-0.3v48.7h-8.1l-17.1-27.7c-1.4-2.4-2.4-4.2-3.1-5.6c0.1,3.3,0.1,8.5,0.1,15.7
										v17.5h-8.5v-47.5c1.3-0.4,2.7-0.7,4.2-0.9c1.5-0.2,2.9-0.3,4.3-0.3l15.8,25.8c1.1,1.9,2.4,4.3,3.9,7.2
										c-0.3-5.6-0.4-11.5-0.4-17.7v-14.2C1456.8,291.2,1458.2,290.9,1459.7,290.7z"/>
									<path d="M1504.9,295c-0.1,1.5-0.3,2.8-0.5,3.8H1492v40.3h-9v-40.3h-13.2c0-1.2,0.1-2.6,0.3-4.1c0.2-1.5,0.3-2.7,0.5-3.7
										h34.6C1505.1,292.1,1505,293.4,1504.9,295z"/>
									<path d="M1530.5,329.6h-17.9l-2.8,9.4h-8.9l15.1-47.5c1.2-0.3,2.9-0.6,5-0.8c2.1-0.2,4.2-0.3,6.4-0.3l15.3,48.5h-9.5
										L1530.5,329.6z M1528.4,322.1l-6.5-23.2l-6.9,23.2H1528.4z"/>
								</g>
							</g>
							<g>
								<path class="st3" d="M227.9-589.8l-1103.2,639c-6.5,3.8-8.7,12.1-5,18.6L-450,810.7c3.8,6.5,12.1,8.7,18.6,5l1103.2-639
									c6.5-3.8,8.7-12.1,5-18.6L246.5-584.8C242.8-591.3,234.4-593.5,227.9-589.8z"/>
								<g>
									<path d="M235.3-282.1l-46.7,27c-1,0.6-2.4,0.2-3-0.8l-27-46.7c-0.6-1-0.2-2.4,0.8-3l46.7-27c1-0.6,2.4-0.2,3,0.8l27,46.7
										C236.7-284,236.3-282.7,235.3-282.1z"/>
									<path d="M266.8-227l-29.3,17c-1.2,0.7-2.8,0.3-3.5-0.9l-58.4-100.9c-0.7-1.2-0.3-2.8,0.9-3.5l29.3-17
										c1.2-0.7,2.8-0.3,3.5,0.9l58.4,100.9C268.4-229.2,268-227.7,266.8-227z"/>
								</g>
								<path class="st6" d="M174.2,447.7L50.7,519.2c-6.5,3.8-8.7,12.1-5,18.6l0.6,1.1l147-85.1l-0.6-1.1
									C189,446.2,180.7,444,174.2,447.7z"/>
								<path class="st5" d="M249.1,348.8L-72.4,534.9c-1.8,1-4,0.4-5-1.3l-133.8-231c-1-1.8-0.4-4,1.3-5l321.4-186.2
									c1.8-1,4-0.4,5,1.3l133.8,231C251.4,345.5,250.8,347.7,249.1,348.8z"/>
								<g>
									<path d="M-634.9,67.7l-49.2,28.5c-0.8,0.5-1.8,0.2-2.2-0.6l-14.6-25.1c-0.5-0.8-0.2-1.8,0.6-2.2l49.2-28.5
										c0.8-0.5,1.8-0.2,2.2,0.6l14.6,25.1C-633.8,66.2-634.1,67.2-634.9,67.7z"/>
									<path d="M-573.1,31.9l-49.2,28.5c-0.8,0.5-1.8,0.2-2.2-0.6l-14.6-25.1c-0.5-0.8-0.2-1.8,0.6-2.2L-589.3,4
										c0.8-0.5,1.8-0.2,2.2,0.6l14.6,25.1C-572,30.4-572.3,31.4-573.1,31.9z"/>
									<path d="M-511.2-3.9l-49.2,28.5c-0.8,0.5-1.8,0.2-2.2-0.6l-14.6-25.1c-0.5-0.8-0.2-1.8,0.6-2.2l49.2-28.5
										c0.8-0.5,1.8-0.2,2.2,0.6l14.6,25.1C-510.2-5.4-510.4-4.4-511.2-3.9z"/>
									<path d="M-263.9-147.2l-49.2,28.5c-0.8,0.5-1.8,0.2-2.2-0.6l-14.6-25.1c-0.5-0.8-0.2-1.8,0.6-2.2l49.2-28.5
										c0.8-0.5,1.8-0.2,2.2,0.6l14.6,25.1C-262.9-148.6-263.1-147.6-263.9-147.2z"/>
									<path d="M-202.1-183l-49.2,28.5c-0.8,0.5-1.8,0.2-2.2-0.6l-14.6-25.1c-0.5-0.8-0.2-1.8,0.6-2.2l49.2-28.5
										c0.8-0.5,1.8-0.2,2.2,0.6l14.6,25.1C-201-184.4-201.3-183.4-202.1-183z"/>
									<path d="M-140.3-218.8l-49.2,28.5c-0.8,0.5-1.8,0.2-2.2-0.6l-14.6-25.1c-0.5-0.8-0.2-1.8,0.6-2.2l49.2-28.5
										c0.8-0.5,1.8-0.2,2.2,0.6l14.6,25.1C-139.2-220.3-139.5-219.3-140.3-218.8z"/>
									<path d="M-449.4-39.8l-49.2,28.5c-0.8,0.5-1.8,0.2-2.2-0.6L-515.4-37c-0.5-0.8-0.2-1.8,0.6-2.2l49.2-28.5
										c0.8-0.5,1.8-0.2,2.2,0.6l14.6,25.1C-448.3-41.2-448.6-40.2-449.4-39.8z"/>
									<path d="M-387.6-75.6L-436.8-47c-0.8,0.5-1.8,0.2-2.2-0.6l-14.6-25.1c-0.5-0.8-0.2-1.8,0.6-2.2l49.2-28.5
										c0.8-0.5,1.8-0.2,2.2,0.6l14.6,25.1C-386.5-77-386.8-76-387.6-75.6z"/>
									<path d="M-325.7-111.4L-375-82.9c-0.8,0.5-1.8,0.2-2.2-0.6l-14.6-25.1c-0.5-0.8-0.2-1.8,0.6-2.2l49.2-28.5
										c0.8-0.5,1.8-0.2,2.2,0.6l14.6,25.1C-324.7-112.8-325-111.8-325.7-111.4z"/>
									<path d="M-78.4-254.6l-49.2,28.5c-0.8,0.5-1.8,0.2-2.2-0.6l-14.6-25.1c-0.5-0.8-0.2-1.8,0.6-2.2l49.2-28.5
										c0.8-0.5,1.8-0.2,2.2,0.6l14.6,25.1C-77.4-256.1-77.7-255.1-78.4-254.6z"/>
									<path d="M-16.6-290.4l-49.2,28.5c-0.8,0.5-1.8,0.2-2.2-0.6l-14.6-25.1c-0.5-0.8-0.2-1.8,0.6-2.2l49.2-28.5
										c0.8-0.5,1.8-0.2,2.2,0.6l14.6,25.1C-15.6-291.9-15.8-290.9-16.6-290.4z"/>
									<path d="M45.2-326.2L-4-297.7c-0.8,0.5-1.8,0.2-2.2-0.6l-14.6-25.1c-0.5-0.8-0.2-1.8,0.6-2.2L29-354.2
										c0.8-0.5,1.8-0.2,2.2,0.6l14.6,25.1C46.3-327.7,46-326.7,45.2-326.2z"/>
									<path d="M107-362l-49.2,28.5c-0.8,0.5-1.8,0.2-2.2-0.6L41-359.2c-0.5-0.8-0.2-1.8,0.6-2.2L90.8-390
										c0.8-0.5,1.8-0.2,2.2,0.6l14.6,25.1C108.1-363.5,107.8-362.5,107-362z"/>
									<path d="M168.9-397.8l-49.2,28.5c-0.8,0.5-1.8,0.2-2.2-0.6L102.9-395c-0.5-0.8-0.2-1.8,0.6-2.2l49.2-28.5
										c0.8-0.5,1.8-0.2,2.2,0.6l14.6,25.1C169.9-399.3,169.6-398.3,168.9-397.8z"/>
								</g>
								<g>
									<path d="M-359.7,62.5l-46.7,27c-1,0.6-2.4,0.2-3-0.8l-27-46.7c-0.6-1-0.2-2.4,0.8-3l46.7-27c1-0.6,2.4-0.2,3,0.8l27,46.7
										C-358.3,60.6-358.6,61.9-359.7,62.5z"/>
									<path d="M-419.4,97.1l-46.7,27c-1,0.6-2.4,0.2-3-0.8l-27-46.7c-0.6-1-0.2-2.4,0.8-3l46.7-27c1-0.6,2.4-0.2,3,0.8l27,46.7
										C-418,95.2-418.4,96.5-419.4,97.1z"/>
									<path d="M-479.1,131.7l-46.7,27c-1,0.6-2.4,0.2-3-0.8l-27-46.7c-0.6-1-0.2-2.4,0.8-3l46.7-27c1-0.6,2.4-0.2,3,0.8l27,46.7
										C-477.7,129.8-478.1,131.1-479.1,131.7z"/>
									<path d="M-299.9,27.9l-46.7,27c-1,0.6-2.4,0.2-3-0.8l-27-46.7c-0.6-1-0.2-2.4,0.8-3l46.7-27c1-0.6,2.4-0.2,3,0.8l27,46.7
										C-298.5,26-298.9,27.3-299.9,27.9z"/>
									<path d="M-180.5-41.3l-46.7,27c-1,0.6-2.4,0.2-3-0.8l-27-46.7c-0.6-1-0.2-2.4,0.8-3l46.7-27c1-0.6,2.4-0.2,3,0.8l27,46.7
										C-179.1-43.2-179.4-41.9-180.5-41.3z"/>
									<path d="M-240.2-6.7l-46.7,27c-1,0.6-2.4,0.2-3-0.8l-27-46.7c-0.6-1-0.2-2.4,0.8-3l46.7-27c1-0.6,2.4-0.2,3,0.8l27,46.7
										C-238.8-8.6-239.2-7.3-240.2-6.7z"/>
									<path d="M-120.8-75.9l-46.7,27c-1,0.6-2.4,0.2-3-0.8l-27-46.7c-0.6-1-0.2-2.4,0.8-3l46.7-27c1-0.6,2.4-0.2,3,0.8l27,46.7
										C-119.4-77.8-119.7-76.5-120.8-75.9z"/>
									<path d="M-1.3-145.1L-48-118c-1,0.6-2.4,0.2-3-0.8l-27-46.7c-0.6-1-0.2-2.4,0.8-3l46.7-27c1-0.6,2.4-0.2,3,0.8l27,46.7
										C0.1-147-0.3-145.7-1.3-145.1z"/>
									<path d="M-61-110.5l-46.7,27c-1,0.6-2.4,0.2-3-0.8l-27-46.7c-0.6-1-0.2-2.4,0.8-3l46.7-27c1-0.6,2.4-0.2,3,0.8l27,46.7
										C-59.6-112.4-60-111.1-61-110.5z"/>
									<path d="M58.4-179.6l-46.7,27c-1,0.6-2.4,0.2-3-0.8l-27-46.7c-0.6-1-0.2-2.4,0.8-3l46.7-27c1-0.6,2.4-0.2,3,0.8l27,46.7
										C59.8-181.6,59.5-180.2,58.4-179.6z"/>
									<path d="M177.9-248.8l-46.7,27c-1,0.6-2.4,0.2-3-0.8l-27-46.7c-0.6-1-0.2-2.4,0.8-3l46.7-27c1-0.6,2.4-0.2,3,0.8l27,46.7
										C179.3-250.8,178.9-249.4,177.9-248.8z"/>
									<path d="M118.2-214.2l-46.7,27c-1,0.6-2.4,0.2-3-0.8l-27-46.7c-0.6-1-0.2-2.4,0.8-3l46.7-27c1-0.6,2.4-0.2,3,0.8l27,46.7
										C119.5-216.2,119.2-214.8,118.2-214.2z"/>
								</g>
								<g>
									<path d="M-312.7,108.6l-46.7,27c-1,0.6-2.4,0.2-3-0.8l-27-46.7c-0.6-1-0.2-2.4,0.8-3l46.7-27c1-0.6,2.4-0.2,3,0.8l27,46.7
										C-311.3,106.7-311.6,108-312.7,108.6z"/>
									<path d="M-372.4,143.2l-46.7,27c-1,0.6-2.4,0.2-3-0.8l-27-46.7c-0.6-1-0.2-2.4,0.8-3l46.7-27c1-0.6,2.4-0.2,3,0.8l27,46.7
										C-371,141.3-371.3,142.6-372.4,143.2z"/>
									<path d="M-432.1,177.8l-46.7,27c-1,0.6-2.4,0.2-3-0.8l-27-46.7c-0.6-1-0.2-2.4,0.8-3l46.7-27c1-0.6,2.4-0.2,3,0.8l27,46.7
										C-430.7,175.9-431.1,177.2-432.1,177.8z"/>
									<path d="M-252.9,74.1l-46.7,27c-1,0.6-2.4,0.2-3-0.8l-27-46.7c-0.6-1-0.2-2.4,0.8-3l46.7-27c1-0.6,2.4-0.2,3,0.8l27,46.7
										C-251.5,72.1-251.9,73.5-252.9,74.1z"/>
									<path d="M-133.5,4.9l-46.7,27c-1,0.6-2.4,0.2-3-0.8l-27-46.7c-0.6-1-0.2-2.4,0.8-3l46.7-27c1-0.6,2.4-0.2,3,0.8l27,46.7
										C-132.1,2.9-132.4,4.3-133.5,4.9z"/>
									<path d="M-193.2,39.5l-46.7,27c-1,0.6-2.4,0.2-3-0.8l-27-46.7c-0.6-1-0.2-2.4,0.8-3l46.7-27c1-0.6,2.4-0.2,3,0.8l27,46.7
										C-191.8,37.5-192.2,38.9-193.2,39.5z"/>
									<path d="M-73.7-29.7l-46.7,27c-1,0.6-2.4,0.2-3-0.8l-27-46.7c-0.6-1-0.2-2.4,0.8-3l46.7-27c1-0.6,2.4-0.2,3,0.8l27,46.7
										C-72.4-31.7-72.7-30.3-73.7-29.7z"/>
									<path d="M45.7-98.9L-1-71.9c-1,0.6-2.4,0.2-3-0.8l-27-46.7c-0.6-1-0.2-2.4,0.8-3l46.7-27c1-0.6,2.4-0.2,3,0.8l27,46.7
										C47.1-100.8,46.7-99.5,45.7-98.9z"/>
									<path d="M-14-64.3l-46.7,27c-1,0.6-2.4,0.2-3-0.8l-27-46.7c-0.6-1-0.2-2.4,0.8-3l46.7-27c1-0.6,2.4-0.2,3,0.8l27,46.7
										C-12.6-66.2-13-64.9-14-64.3z"/>
									<path d="M105.4-133.5l-46.7,27c-1,0.6-2.4,0.2-3-0.8l-27-46.7c-0.6-1-0.2-2.4,0.8-3l46.7-27c1-0.6,2.4-0.2,3,0.8l27,46.7
										C106.8-135.4,106.5-134.1,105.4-133.5z"/>
									<path d="M224.9-202.7l-46.7,27c-1,0.6-2.4,0.2-3-0.8l-27-46.7c-0.6-1-0.2-2.4,0.8-3l46.7-27c1-0.6,2.4-0.2,3,0.8l27,46.7
										C226.3-204.6,225.9-203.3,224.9-202.7z"/>
									<path d="M165.2-168.1l-46.7,27c-1,0.6-2.4,0.2-3-0.8l-27-46.7c-0.6-1-0.2-2.4,0.8-3l46.7-27c1-0.6,2.4-0.2,3,0.8l27,46.7
										C166.6-170,166.2-168.7,165.2-168.1z"/>
								</g>
								<g>
									<path d="M-308,185.1l-46.7,27c-1,0.6-2.4,0.2-3-0.8l-27-46.7c-0.6-1-0.2-2.4,0.8-3l46.7-27c1-0.6,2.4-0.2,3,0.8l27,46.7
										C-306.6,183.1-306.9,184.5-308,185.1z"/>
									<path d="M-367.7,219.7l-46.7,27c-1,0.6-2.4,0.2-3-0.8l-27-46.7c-0.6-1-0.2-2.4,0.8-3l46.7-27c1-0.6,2.4-0.2,3,0.8l27,46.7
										C-366.3,217.7-366.7,219.1-367.7,219.7z"/>
									<path d="M-427.4,254.2l-46.7,27c-1,0.6-2.4,0.2-3-0.8l-27-46.7c-0.6-1-0.2-2.4,0.8-3l46.7-27c1-0.6,2.4-0.2,3,0.8l27,46.7
										C-426,252.3-426.4,253.6-427.4,254.2z"/>
									<path d="M-248.3,150.5l-46.7,27c-1,0.6-2.4,0.2-3-0.8l-27-46.7c-0.6-1-0.2-2.4,0.8-3l46.7-27c1-0.6,2.4-0.2,3,0.8l27,46.7
										C-246.9,148.5-247.2,149.9-248.3,150.5z"/>
									<path d="M-128.8,81.3l-46.7,27c-1,0.6-2.4,0.2-3-0.8l-27-46.7c-0.6-1-0.2-2.4,0.8-3l46.7-27c1-0.6,2.4-0.2,3,0.8l27,46.7
										C-127.4,79.3-127.8,80.7-128.8,81.3z"/>
									<path d="M-188.5,115.9l-46.7,27c-1,0.6-2.4,0.2-3-0.8l-27-46.7c-0.6-1-0.2-2.4,0.8-3l46.7-27c1-0.6,2.4-0.2,3,0.8l27,46.7
										C-187.1,113.9-187.5,115.3-188.5,115.9z"/>
									<path d="M-69.1,46.7l-46.7,27c-1,0.6-2.4,0.2-3-0.8l-27-46.7c-0.6-1-0.2-2.4,0.8-3l46.7-27c1-0.6,2.4-0.2,3,0.8l27,46.7
										C-67.7,44.8-68,46.1-69.1,46.7z"/>
									<path d="M50.4-22.5L3.7,4.5c-1,0.6-2.4,0.2-3-0.8l-27-46.7c-0.6-1-0.2-2.4,0.8-3l46.7-27c1-0.6,2.4-0.2,3,0.8l27,46.7
										C51.8-24.4,51.4-23.1,50.4-22.5z"/>
									<path d="M-9.3,12.1l-46.7,27c-1,0.6-2.4,0.2-3-0.8L-86-8.3c-0.6-1-0.2-2.4,0.8-3l46.7-27c1-0.6,2.4-0.2,3,0.8l27,46.7
										C-7.9,10.2-8.3,11.5-9.3,12.1z"/>
									<path d="M110.1-57.1l-46.7,27c-1,0.6-2.4,0.2-3-0.8l-27-46.7c-0.6-1-0.2-2.4,0.8-3l46.7-27c1-0.6,2.4-0.2,3,0.8l27,46.7
										C111.5-59,111.2-57.7,110.1-57.1z"/>
									<path d="M300.4-167.3L184-99.9c-1.6,0.9-3.7,0.4-4.6-1.2l-25.8-44.6c-0.9-1.6-0.4-3.7,1.2-4.6l116.4-67.4
										c1.6-0.9,3.7-0.4,4.6,1.2l25.8,44.6C302.5-170.3,302-168.2,300.4-167.3z"/>
									<path d="M169.8-91.7l-46.7,27c-1,0.6-2.4,0.2-3-0.8l-27-46.7c-0.6-1-0.2-2.4,0.8-3l46.7-27c1-0.6,2.4-0.2,3,0.8l27,46.7
										C171.2-93.6,170.9-92.3,169.8-91.7z"/>
								</g>
								<g>
									<path d="M-347.5,293.3l-46.7,27c-1,0.6-2.4,0.2-3-0.8l-27-46.7c-0.6-1-0.2-2.4,0.8-3l46.7-27c1-0.6,2.4-0.2,3,0.8l27,46.7
										C-346.1,291.3-346.5,292.7-347.5,293.3z"/>
									<path d="M161.6-1.6l-46.7,27c-1,0.6-2.4,0.2-3-0.8L84.9-22c-0.6-1-0.2-2.4,0.8-3l46.7-27c1-0.6,2.4-0.2,3,0.8l27,46.7
										C162.9-3.5,162.6-2.2,161.6-1.6z"/>
									<path d="M220.3-35.6L173.8-8.7c-1.1,0.6-2.5,0.3-3.1-0.8L156.5-34c-0.6-1.1-0.3-2.5,0.8-3.1L203.8-64
										c1.1-0.6,2.5-0.3,3.1,0.8l14.2,24.5C221.8-37.7,221.4-36.3,220.3-35.6z"/>
									<path d="M338.3-104l-46.4,26.9c-1.1,0.6-2.5,0.3-3.1-0.8l-14.2-24.5c-0.6-1.1-0.3-2.5,0.8-3.1l46.4-26.9
										c1.1-0.6,2.5-0.3,3.1,0.8l14.2,24.5C339.8-106,339.4-104.6,338.3-104z"/>
									<path d="M279.6-69.9l-46.7,27.1c-1,0.6-2.3,0.2-2.9-0.8l-12-20.7c-0.6-1-0.2-2.3,0.8-2.9l46.7-27.1c1-0.6,2.3-0.2,2.9,0.8
										l12,20.7C280.9-71.8,280.6-70.5,279.6-69.9z"/>
									<path d="M263.3-98l-46.8,27c-1,0.6-2.3,0.2-2.9-0.8l-12-20.7c-0.6-1-0.2-2.3,0.8-2.9l46.7-27.1c1-0.6,2.3-0.2,2.9,0.8
										l12,20.7C264.6-99.9,264.3-98.6,263.3-98z"/>
									<path d="M-407.3,327.8l-46.7,27c-1,0.6-2.4,0.2-3-0.8l-27-46.7c-0.6-1-0.2-2.4,0.8-3l46.7-27c1-0.6,2.4-0.2,3,0.8l27,46.7
										C-405.9,325.9-406.2,327.2-407.3,327.8z"/>
									<path d="M-467,362.4l-46.7,27c-1,0.6-2.4,0.2-3-0.8l-27-46.7c-0.6-1-0.2-2.4,0.8-3l46.7-27c1-0.6,2.4-0.2,3,0.8l27,46.7
										C-465.6,360.5-465.9,361.8-467,362.4z"/>
									<path d="M-272.5,249.8l-61.6,35.7c-1.2,0.7-2.7,0.3-3.4-0.9l-26.7-46.1c-0.7-1.2-0.3-2.7,0.9-3.4l61.6-35.7
										c1.2-0.7,2.7-0.3,3.4,0.9l26.7,46.1C-270.9,247.6-271.4,249.1-272.5,249.8z"/>
									<path d="M100.3,33.9L38.7,69.6c-1.2,0.7-2.7,0.3-3.4-0.9L8.6,22.6c-0.7-1.2-0.3-2.7,0.9-3.4l61.6-35.7
										c1.2-0.7,2.7-0.3,3.4,0.9l26.7,46.1C101.9,31.7,101.5,33.2,100.3,33.9z"/>
									<path d="M27.5,76l-285.2,165.2c-1.1,0.7-2.6,0.3-3.2-0.9l-26.8-46.3c-0.7-1.1-0.3-2.6,0.9-3.2L-1.7,25.6
										c1.1-0.7,2.6-0.3,3.2,0.9l26.8,46.3C29,74,28.6,75.4,27.5,76z"/>
								</g>
								<path d="M-493.7,213.5l-90.5,52.4c-1.4,0.8-3.3,0.3-4.1-1.1l-26.2-45.2c-0.8-1.4-0.3-3.3,1.1-4.1l90.5-52.4
									c1.4-0.8,3.3-0.3,4.1,1.1l26.2,45.2C-491.8,210.9-492.3,212.7-493.7,213.5z"/>
								<g>
									<path d="M-603.6,126.7l-46.7,27c-1,0.6-2.4,0.2-3-0.8l-27-46.7c-0.6-1-0.2-2.4,0.8-3l46.7-27c1-0.6,2.4-0.2,3,0.8l27,46.7
										C-602.2,124.7-602.5,126.1-603.6,126.7z"/>
									<path d="M-484.1,57.5l-46.7,27c-1,0.6-2.4,0.2-3-0.8l-27-46.7c-0.6-1-0.2-2.4,0.8-3l46.7-27c1-0.6,2.4-0.2,3,0.8l27,46.7
										C-482.7,55.5-483.1,56.9-484.1,57.5z"/>
									<path d="M-543.8,92.1l-46.7,27c-1,0.6-2.4,0.2-3-0.8l-27-46.7c-0.6-1-0.2-2.4,0.8-3l46.7-27c1-0.6,2.4-0.2,3,0.8l27,46.7
										C-542.4,90.1-542.8,91.5-543.8,92.1z"/>
									<path d="M-424.4,22.9l-46.7,27c-1,0.6-2.4,0.2-3-0.8l-27-46.7c-0.6-1-0.2-2.4,0.8-3l46.7-27c1-0.6,2.4-0.2,3,0.8l27,46.7
										C-423,20.9-423.3,22.3-424.4,22.9z"/>
									<path d="M-304.9-46.3l-46.7,27c-1,0.6-2.4,0.2-3-0.8l-27-46.7c-0.6-1-0.2-2.4,0.8-3l46.7-27c1-0.6,2.4-0.2,3,0.8l27,46.7
										C-303.5-48.2-303.9-46.9-304.9-46.3z"/>
									<path d="M-364.7-11.7l-46.7,27c-1,0.6-2.4,0.2-3-0.8l-27-46.7c-0.6-1-0.2-2.4,0.8-3l46.7-27c1-0.6,2.4-0.2,3,0.8l27,46.7
										C-363.3-13.6-363.6-12.3-364.7-11.7z"/>
									<path d="M-245.2-80.9l-46.7,27c-1,0.6-2.4,0.2-3-0.8l-27-46.7c-0.6-1-0.2-2.4,0.8-3l46.7-27c1-0.6,2.4-0.2,3,0.8l27,46.7
										C-243.8-82.8-244.2-81.5-245.2-80.9z"/>
									<path d="M-125.8-150.1l-46.7,27c-1,0.6-2.4,0.2-3-0.8l-27-46.7c-0.6-1-0.2-2.4,0.8-3l46.7-27c1-0.6,2.4-0.2,3,0.8l27,46.7
										C-124.4-152-124.7-150.7-125.8-150.1z"/>
									<path d="M-185.5-115.5l-46.7,27c-1,0.6-2.4,0.2-3-0.8l-27-46.7c-0.6-1-0.2-2.4,0.8-3l46.7-27c1-0.6,2.4-0.2,3,0.8l27,46.7
										C-184.1-117.4-184.4-116.1-185.5-115.5z"/>
									<path d="M-66-184.7l-46.7,27c-1,0.6-2.4,0.2-3-0.8l-27-46.7c-0.6-1-0.2-2.4,0.8-3l46.7-27c1-0.6,2.4-0.2,3,0.8l27,46.7
										C-64.6-186.6-65-185.3-66-184.7z"/>
									<path d="M53.4-253.9l-46.7,27c-1,0.6-2.4,0.2-3-0.8l-27-46.7c-0.6-1-0.2-2.4,0.8-3l46.7-27c1-0.6,2.4-0.2,3,0.8l27,46.7
										C54.8-255.8,54.5-254.5,53.4-253.9z"/>
									<path d="M113.2-288.5l-46.7,27c-1,0.6-2.4,0.2-3-0.8l-27-46.7c-0.6-1-0.2-2.4,0.8-3L84-339c1-0.6,2.4-0.2,3,0.8l27,46.7
										C114.5-290.4,114.2-289.1,113.2-288.5z"/>
									<path d="M201.4-339.6L128-297c-1.3,0.7-2.9,0.3-3.7-1l-26.5-45.7c-0.7-1.3-0.3-2.9,1-3.7l73.4-42.5c1.3-0.7,2.9-0.3,3.7,1
										l26.5,45.7C203.1-342,202.7-340.3,201.4-339.6z"/>
									<path d="M-6.3-219.3l-46.7,27c-1,0.6-2.4,0.2-3-0.8l-27-46.7c-0.6-1-0.2-2.4,0.8-3l46.7-27c1-0.6,2.4-0.2,3,0.8l27,46.7
										C-4.9-221.2-5.3-219.9-6.3-219.3z"/>
								</g>
								<path d="M-539.9,166.9l-76.4,44.2c-1.3,0.8-3,0.3-3.8-1l-26.4-45.6c-0.8-1.3-0.3-3,1-3.8l76.4-44.2c1.3-0.8,3-0.3,3.8,1
									l26.4,45.6C-538.1,164.4-538.6,166.1-539.9,166.9z"/>
								<path d="M-489.6,290.2l-60.8,35.2c-1.2,0.7-2.7,0.3-3.4-0.9l-26.7-46.1c-0.7-1.2-0.3-2.7,0.9-3.4l60.8-35.2
									c1.2-0.7,2.7-0.3,3.4,0.9l26.7,46.1C-488,288-488.4,289.5-489.6,290.2z"/>
								
									<rect x="-824.4" y="-282.2" transform="matrix(0.8653 -0.5012 0.5012 0.8653 86.6903 -193.3755)" width="1015.8" height="48.4"/>
								<path class="st7" d="M179.6-912.3c-14.2,8.2-438.7,254.1-617.1,357.4c0,0-30.1,17.4-77.7,45
									c-178.4,103.3-602.9,349.2-617.1,357.4c-18,10.5-33.9,27.4-16.5,39.9c17.3,12.5,220.9,137.1,242.2,149.7s25.6,3.9,35.5-1.9
									l503-291.3l77.7-45l503-291.3c9.9-5.7,19.6-5.1,19.3-29.8s-7.1-263.3-9.3-284.6C220.3-928.1,197.7-922.8,179.6-912.3z"/>
							</g>
							<g>
								<path class="st3" d="M1758.5,66.7c0,0-80.8,43.4-88.7,48.3s-30.1,3-35-3.9S1623,90.4,1619.5,82s-3.5-21.2,6.4-26.6
									s90.7-61.1,90.7-61.1L1758.5,66.7z"/>
								
									<ellipse transform="matrix(0.7071 -0.7071 0.7071 0.7071 599.5568 1310.2583)" class="st3" cx="1881.4" cy="-68.6" rx="179.7" ry="179.7"/>
								<circle class="st6" cx="1881.4" cy="-68.6" r="153"/>
								<path class="st3" d="M1738.4,40.2c0,0-81.8,55.9-89.8,61.5c-8,5.6-6.6,14.9,0,15.5"/>
							</g>
							<g>
								<path class="st3" d="M1969.5,714L1676,463.5l-25.2-35L1636,408l59.5,29.1l292.4,252.4c0,0,1.6,5.6-6.2,16.1
									C1973.7,716.1,1969.5,714,1969.5,714z"/>
								<polygon class="st6" points="1660.2,429.1 1650.7,428.5 1635.9,408 1663.2,421.3 								"/>
								<path class="st6" d="M1676,463.5c0,0,15.9,0.6,13.9-9.9c10.5-0.8,9.8-16.2,7.7-16.4"/>
							</g>
						</g>
					</g>
					<g>
						<rect id="SVGID_1_" x="-71.9" y="-133.3" class="st8" width="2063.9" height="1349.1"/>
					</g>
				</g>
			</g>
		</g>
		<g>
			<g>
				<polyline class="st9" points="471.2,321.1 471.2,113.4 678.9,113.4 				"/>
				<polyline class="st9" points="1817.1,321.1 1817.1,113.4 1609.4,113.4 				"/>
				<polyline class="st9" points="471.2,838.9 471.2,1046.6 678.9,1046.6 				"/>
				<polyline class="st9" points="1817.1,838.9 1817.1,1046.6 1609.4,1046.6 				"/>
				<rect x="888.6" y="402.8" class="st9" width="511.1" height="354.4"/>
			</g>
			<g>
				<path class="st9" d="M566,23.3h-10.4c-3.8,0-7-2.8-7.5-6.6l-0.5-3.7c-0.4-3.2-3.2-5.7-6.2-5.7h-30.9c-3,0-5.8,2.5-6.2,5.7
					l-0.5,3.7c-0.5,3.8-3.7,6.6-7.5,6.6H486c-5.4,0-9.9,4.4-9.9,9.9v38.6c0,5.4,4.4,9.9,9.9,9.9h80c5.4,0,9.9-4.4,9.9-9.9V33.2
					C575.9,27.8,571.5,23.3,566,23.3z"/>
				<circle class="st9" cx="526.9" cy="50.8" r="19.3"/>
			</g>
		</g>
	</g>
</g>
</svg>
