<?xml version="1.0" encoding="utf-8"?>
<!-- Generator: Adobe Illustrator 24.0.0, SVG Export Plug-In . SVG Version: 6.00 Build 0)  -->
<svg version="1.1" id="Layer_1" xmlns="http://www.w3.org/2000/svg" xmlns:xlink="http://www.w3.org/1999/xlink" x="0px" y="0px"
	 viewBox="0 0 1125 2436" style="enable-background:new 0 0 1125 2436;" xml:space="preserve">
<style type="text/css">
	.st0{clip-path:url(#SVGID_2_);}
	.st1{stroke:#FFFFFF;stroke-width:4;stroke-miterlimit:10;}
	.st2{fill:none;stroke:#FFFFFF;stroke-width:4;stroke-miterlimit:10;}
	.st3{fill:#FFFFFF;}
	.st4{fill:#BCBEC0;}
	.st5{fill:none;stroke:#FFFFFF;stroke-width:4;stroke-linecap:round;stroke-linejoin:round;stroke-miterlimit:10;}
	.st6{fill:#6D6E71;}
	.st7{fill:#FFFFFF;stroke:#231F20;stroke-width:1.0198;stroke-miterlimit:10;}
	.st8{clip-path:url(#SVGID_4_);}
	.st9{clip-path:url(#SVGID_6_);}
	.st10{fill:#FFFFFF;stroke:#231F20;stroke-width:0.6116;stroke-miterlimit:10;}
	.st11{fill:none;stroke:#231F20;stroke-width:0.6116;stroke-miterlimit:10;}
	.st12{fill:#FFFFFF;stroke:#231F20;stroke-width:0.3635;stroke-miterlimit:10;}
	.st13{stroke:#231F20;stroke-width:0.3635;stroke-miterlimit:10;}
	.st14{fill:none;stroke:#231F20;stroke-width:0.3635;stroke-miterlimit:10;}
	.st15{fill:#FFFFFF;stroke:#231F20;stroke-width:1.1945;stroke-miterlimit:10;}
	.st16{stroke:#231F20;stroke-width:1.1945;stroke-miterlimit:10;}
	.st17{fill:#FFFFFF;stroke:#231F20;stroke-width:1.4626;stroke-miterlimit:10;}
	.st18{fill:#FFFFFF;stroke:#231F20;stroke-width:1.2493;stroke-miterlimit:10;}
</style>
<g>
	<defs>
		<rect id="SVGID_1_" width="1125" height="2427.9"/>
	</defs>
	<use xlink:href="#SVGID_1_"  style="overflow:visible;"/>
	<clipPath id="SVGID_2_">
		<use xlink:href="#SVGID_1_"  style="overflow:visible;"/>
	</clipPath>
	<g class="st0">
		<rect x="-741.6" y="596.3" class="st1" width="2608.2" height="1286.4"/>
		<g>
			<g>
				<polygon class="st2" points="1029.6,596.2 1029.6,569.2 1002,569.2 1002,583.1 1015.2,583.1 1015.2,596.2 				"/>
				<rect x="989.6" y="556.2" class="st2" width="40" height="40"/>
			</g>
			<rect x="-741.6" y="524.8" class="st1" width="2608.2" height="105.2"/>
			<circle class="st2" cx="787.5" cy="577" r="23.4"/>
			<path class="st2" d="M-179.2,615.6h-432.9c-3.9,0-7.1-3.2-7.1-7.1v-61.2c0-3.9,3.2-7.1,7.1-7.1h432.9c3.9,0,7.1,3.2,7.1,7.1v61.2
				C-172.1,612.4-175.3,615.6-179.2,615.6z"/>
			<g>
				<circle class="st2" cx="-583.8" cy="572.9" r="17"/>
				<g>
					<path class="st3" d="M-561.8,597.7c-1-0.9-1.9-1.9-2.8-2.9l-2.7-3c-0.9-1-1.8-2-2.6-3.1c-0.9-1-1.7-2.1-2.6-3.1
						c-0.4-0.4-0.3-1.1,0.1-1.4c0.4-0.3,0.9-0.3,1.3,0c1,0.9,2.1,1.7,3.1,2.6c1,0.9,2.1,1.7,3.1,2.6l3,2.7c1,0.9,2,1.8,2.9,2.8
						c0.7,0.9,0.6,2.1-0.3,2.8C-560,598.4-561.1,598.3-561.8,597.7z"/>
				</g>
			</g>
			
				<text transform="matrix(1 0 0 1 -541.2266 588.707)" class="st3" style="font-family:'SantanderHeadline-Bold'; font-size:42.4557px;">Buscar en feisbu</text>
			<path class="st4" d="M140.9,573.7l-20.6-18.6c-0.8-0.7-1.8-1.1-2.8-1.1c-1,0-2,0.4-2.8,1.1l-20.6,18.6c-0.4,0.4-0.7,0.9-0.7,1.6
				c0,1.2,0.9,2.1,2.1,2.1c0.1,0,0.4,0,0.4,0h4.6V595c0,1.8,1.5,3.3,3.3,3.3h6.2c1.8,0,3.3-1.5,3.3-3.3v-8.4c0-1,0.8-1.8,1.8-1.8
				h2.3h2.3c1,0,1.8,0.8,1.8,1.8v8.4c0,1.8,1.5,3.3,3.3,3.3h6.2c1.8,0,3.3-1.5,3.3-3.3v-17.6h4.6c0,0,0.3,0,0.4,0
				c1.2,0,2.1-0.9,2.1-2.1C141.7,574.6,141.4,574.1,140.9,573.7z"/>
			<g>
				<path class="st2" d="M359.5,591.6H319c-0.8,0-1.5-0.7-1.5-1.5v-32.5c0-0.8,0.7-1.5,1.5-1.5h40.5c0.8,0,1.5,0.7,1.5,1.5v32.5
					C360.9,591,360.3,591.6,359.5,591.6z"/>
				<line class="st5" x1="328" y1="598.3" x2="350.4" y2="598.3"/>
			</g>
			<path class="st3" d="M347.9,573.4l-13.1-7.6c-0.3-0.2-0.7,0-0.7,0.4v15.2c0,0.4,0.4,0.6,0.7,0.4l13.1-7.6
				C348.2,574.1,348.2,573.6,347.9,573.4z"/>
			<g>
				<path class="st2" d="M549,556.2c-2.1,0-3.9,1.4-4.5,3.4l-4.1,14.8c0,1.4,1.1,2.5,2.5,2.5c1.4,0,2.5-1.1,2.5-2.5s1.1-2.5,2.5-2.5
					c1.4,0,2.5,1.1,2.5,2.5s1.1,2.5,2.5,2.5c1.4,0,2.5-1.1,2.5-2.5s1.1-2.5,2.5-2.5c1.4,0,2.5,1.1,2.5,2.5s1.1,2.5,2.5,2.5
					c1.4,0,2.5-1.1,2.5-2.5s1.1-2.5,2.5-2.5c1.4,0,2.5,1.1,2.5,2.5s1.1,2.5,2.5,2.5c1.4,0,2.5-1.1,2.5-2.5s1.1-2.5,2.5-2.5
					s2.5,1.1,2.5,2.5s1.1,2.5,2.5,2.5c1.4,0,2.5-1.1,2.5-2.5l-4.1-14.8c-0.6-2-2.4-3.4-4.5-3.4H549z"/>
				<line class="st2" x1="542.6" y1="566.6" x2="582.6" y2="566.6"/>
				<path class="st2" d="M577.6,572c-1.4,0-2.5,1.1-2.5,2.5c0,1.4-1.1,2.5-2.5,2.5c-1.4,0-2.5-1.1-2.5-2.5c0-1.4-1.1-2.5-2.5-2.5
					s-2.5,1.1-2.5,2.5c0,1.4-1.1,2.5-2.5,2.5c-1.4,0-2.5-1.1-2.5-2.5c0-1.4-1.1-2.5-2.5-2.5s-2.5,1.1-2.5,2.5c0,1.4-1.1,2.5-2.5,2.5
					s-2.5-1.1-2.5-2.5c0-1.4-1.1-2.5-2.5-2.5c-0.8,0-1.6,0.5-2,1.1v19.9c0,1.8,1.5,3.3,3.3,3.3h6.2c1.8,0,3.3-1.5,3.3-3.3v-8.4
					c0-1,0.8-1.8,1.8-1.8h2.3h2.3c1,0,1.8,0.8,1.8,1.8v8.4c0,1.8,1.5,3.3,3.3,3.3h6.2c1.8,0,3.3-1.5,3.3-3.3V573
					C579.2,572.4,578.5,572,577.6,572z"/>
			</g>
			<g>
				<circle class="st3" cx="786.8" cy="567.7" r="5.1"/>
				<path class="st3" d="M786.8,575.6L786.8,575.6C786.8,575.6,786.7,575.6,786.8,575.6C786.7,575.6,786.7,575.6,786.8,575.6
					L786.8,575.6c-5.7,0-10.2,5.5-10.2,8.7c0,3.2,2.1,3.6,5.1,3.6c2.8,0,4.9,0,5.1,0c0,0,0.1,0,0.1,0c0.2,0,2.3,0,5.1,0
					c2.9,0,5.1-0.3,5.1-3.6C796.9,581.1,792.4,575.6,786.8,575.6z"/>
			</g>
			<g>
				<circle class="st3" cx="797.8" cy="570.2" r="3.9"/>
				<path class="st3" d="M799.2,584.3c0-2.3-1.6-5.3-4.1-7.6c0.8-0.3,1.7-0.6,2.6-0.6v0c0,0,0,0,0,0c0,0,0,0,0,0v0
					c4.3,0,7.6,4.1,7.6,6.6c0,2.4-1.6,2.7-3.8,2.7c-1,0-1.9,0-2.5,0C799.1,585,799.2,584.7,799.2,584.3z"/>
			</g>
			<g>
				<circle class="st3" cx="775.9" cy="570.2" r="3.9"/>
				<path class="st3" d="M774.5,584.3c0-2.3,1.6-5.3,4.1-7.6c-0.8-0.3-1.7-0.6-2.6-0.6v0c0,0,0,0,0,0s0,0,0,0v0
					c-4.3,0-7.6,4.1-7.6,6.6c0,2.4,1.6,2.7,3.8,2.7c1,0,1.9,0,2.5,0C774.6,585,774.5,584.7,774.5,584.3z"/>
			</g>
			<circle class="st6" cx="1533.4" cy="577.1" r="36.8"/>
			<g>
				<line class="st5" x1="1533" y1="565" x2="1533" y2="589.3"/>
				<line class="st5" x1="1521.3" y1="577.1" x2="1545.5" y2="577.1"/>
			</g>
			<g>
				<circle class="st6" cx="1621.9" cy="577.1" r="36.8"/>
				<path class="st3" d="M1621.9,560c-9.1,0-16.4,7.4-16.4,16.4c0,5.2,2.4,9.7,6.1,12.7l-0.4,1.2c-0.7,2.1,1.7,3.8,3.5,2.5l1.5-1.1
					c1.8,0.7,3.7,1.1,5.8,1.1c9.1,0,16.4-7.4,16.4-16.4C1638.3,567.3,1630.9,560,1621.9,560z M1624.7,581.6l-5.7-5l-6.7,5l7-9.2
					l6.7,4.6l5.1-6.5L1624.7,581.6z"/>
			</g>
			<g>
				<circle class="st6" cx="1710.4" cy="577.1" r="36.8"/>
				<g>
					<path class="st3" d="M1719.6,575.6c0.2-2.9,2.7-13-8.9-14.4c-0.5-0.1-3,0.1-3.5,0.2c-11.3,2.8-7.7,12.5-7.1,15.3
						c0.5,2.8-3.1,5.7-2.6,7.9c0.4,1.8,3.6,2.3,12.9,1.2c9.4,0,12.5-0.9,12.7-2.8C1723.3,580.9,1719.4,578.4,1719.6,575.6z"/>
					<path class="st3" d="M1710.2,588.1c-1.3,0-4.3,0-8.2,0c0.7,4.7,3.1,5,5.9,4.9C1711.2,592.7,1710.2,588.1,1710.2,588.1z"/>
				</g>
			</g>
			<g>
				<circle class="st6" cx="1798.9" cy="577.1" r="36.8"/>
				<path class="st3" d="M1799.4,588.8l12.1-17.3c0.3-0.4,0-1-0.5-1h-24.2c-0.5,0-0.8,0.6-0.5,1l12.1,17.3
					C1798.6,589.1,1799.1,589.1,1799.4,588.8z"/>
			</g>
			<rect x="18.4" y="621.9" class="st4" width="198.5" height="8.1"/>
			<g>
				<circle class="st6" cx="-675.1" cy="576.9" r="38.6"/>
				<g>
					<path class="st3" d="M-648.3,557.6c0.4,0.5,0.6,1.1,0.6,2c0,2.6-1.4,3.9-4.2,3.7l-2-0.2c-2.3-0.2-4.5-0.3-6.7-0.5
						c-2.2-0.1-4.6-0.2-7-0.2h-2.6c-0.5,5.7-0.9,10.8-1.4,15.5l9.9-0.2c1.4,0,2.4,0.2,2.8,0.7c0.5,0.5,0.7,1.2,0.7,2
						c0,1.3-0.4,2.3-1.1,3.1c-0.8,0.7-1.9,1.1-3.3,1.1h-9.8l-0.3,2.5c-0.8,6.3-2.5,10.8-5.1,13.5c-2.6,2.7-6.2,4-10.8,4
						c-2.6,0-5-0.6-7.2-1.7c-2.2-1.1-3.8-2.5-4.8-4.1c-0.4-0.7-0.6-1.4-0.6-2.4c0-0.9,0.2-1.7,0.7-2.4s1-1,1.6-1
						c0.5,0,0.9,0.2,1.3,0.5c0.4,0.3,1,0.9,1.7,1.8c1.8,2.4,4.1,3.6,6.8,3.6c2.2,0,4-0.9,5.5-2.7c1.5-1.8,2.4-4.6,2.8-8.4l0.3-3.2
						h-2.8c-0.9,0-1.6-0.2-2.3-0.7c-0.6-0.5-0.9-1.2-0.9-2.1c0-1.2,0.3-2.1,0.9-2.7c0.6-0.6,1.5-0.9,2.7-0.9c1.1,0,2.1,0,3.2-0.1
						c0.5-4.2,1-9.3,1.5-15.3c-4.1,0.4-7,1.1-8.7,2c-1.7,1-2.5,2.4-2.5,4.3c0,1.3,0.4,2.5,1.1,3.7c0.2,0.3,0.3,0.7,0.3,1
						c0,0.7-0.4,1.3-1.1,1.8c-0.8,0.5-1.6,0.8-2.6,0.8c-1,0-1.9-0.3-2.6-0.9c-0.5-0.4-0.9-1.2-1.3-2.4c-0.4-1.2-0.6-2.5-0.6-4
						c0-4.7,2.4-8.2,7.3-10.3c4.9-2.1,12-3.2,21.4-3.2c6.5,0,12.2,0.3,17.2,1C-649.4,556.8-648.7,557.1-648.3,557.6z"/>
				</g>
			</g>
			<g>
				
					<text transform="matrix(1 0 0 1 1331.8867 590.0586)" class="st3" style="font-family:'SantanderHeadline-Regular'; font-size:33.3166px;">Agente J</text>
				<g>
					<circle class="st7" cx="1293" cy="579.6" r="26.6"/>
					<g>
						<g>
							<path d="M1287.4,567.1c0.1-0.8,0.7-1.4,1.5-1.4h2.2c0.8,0,1.5,0.7,1.5,1.5h1.6c0.1-0.8,0.7-1.5,1.5-1.5h2.2
								c0.7,0,1.3,0.6,1.4,1.3l1.3-0.2c-0.8-3.5-3.9-6.1-7.6-6.1c-3.7,0-6.8,2.6-7.6,6.1L1287.4,567.1z"/>
							<path d="M1299.4,568.2v0.1c0,0.9-0.7,1.6-1.6,1.6h-2.2c-0.8,0-1.5-0.7-1.5-1.5h-1.6c-0.1,0.8-0.7,1.5-1.5,1.5h-2.2
								c-0.9,0-1.6-0.7-1.6-1.6v0l-2-0.3c0,0.2-0.1,0.3-0.1,0.5c0,4.3,3.5,7.8,7.8,7.8c4.3,0,7.8-3.5,7.8-7.8c0-0.2,0-0.3-0.1-0.5
								L1299.4,568.2z"/>
						</g>
						<path d="M1293.1,578.1L1293.1,578.1C1293.1,578.1,1293,578.1,1293.1,578.1C1293,578.1,1293,578.1,1293.1,578.1L1293.1,578.1
							c-7.9,0.1-14.1,7.6-14.1,12c0,4.5,3,4.9,7,4.9c3.9,0,6.8,0,7,0c0,0,0.1,0,0.1,0c0.2,0,3.1,0,7,0c4,0,7-0.5,7-4.9
							C1307,585.7,1300.9,578.2,1293.1,578.1z"/>
					</g>
				</g>
			</g>
		</g>
		<g>
			<g>
				<defs>
					<path id="SVGID_3_" d="M1108.9,1688.6H9.5c-3,0-5.4-2.4-5.4-5.4v-849c0-3,2.4-5.4,5.4-5.4h1099.5c3,0,5.4,2.4,5.4,5.4v849
						C1114.3,1686.2,1111.9,1688.6,1108.9,1688.6z"/>
				</defs>
				<use xlink:href="#SVGID_3_"  style="overflow:visible;"/>
				<clipPath id="SVGID_4_">
					<use xlink:href="#SVGID_3_"  style="overflow:visible;"/>
				</clipPath>
				<g class="st8">
					<defs>
						<rect id="SVGID_5_" x="4.1" y="961.3" width="1110.2" height="725.7"/>
					</defs>
					<use xlink:href="#SVGID_5_"  style="overflow:visible;"/>
					<clipPath id="SVGID_6_">
						<use xlink:href="#SVGID_5_"  style="overflow:visible;"/>
					</clipPath>
					<g class="st9">
						<g>
							<g>
								
									<rect x="370.7" y="1026.9" transform="matrix(0.9666 0.2563 -0.2563 0.9666 345.742 -99.9602)" class="st10" width="371.5" height="499.6"/>
								<g>
									<path d="M499.2,1058.2c-1.5-1.6-2.4-3.4-2.8-5.7c-0.4-2.2-0.2-4.7,0.5-7.3c0.7-2.6,1.8-4.8,3.2-6.5
										c1.5-1.7,3.2-2.9,5.2-3.5c2-0.6,4.2-0.6,6.6,0c2.3,0.6,4.1,1.4,5.3,2.4c-0.4,1.4-1,2.7-1.7,3.8c-1.2-0.9-2.7-1.6-4.3-2.1
										c-1.4-0.4-2.8-0.4-4,0.1c-1.3,0.4-2.4,1.2-3.3,2.4c-0.9,1.2-1.7,2.7-2.2,4.6c-0.5,1.9-0.6,3.7-0.4,5.2
										c0.3,1.5,0.9,2.8,1.8,3.8c1,1,2.2,1.7,3.8,2.1c1.7,0.5,3.4,0.5,5,0.2c-0.5,1.3-1.1,2.6-1.9,4.1c-1.6,0.2-3.2,0-4.9-0.4
										C502.7,1060.9,500.7,1059.8,499.2,1058.2z"/>
									<path d="M517.6,1063.2c-1.4-1.5-2.3-3.4-2.6-5.6c-0.3-2.2-0.2-4.6,0.6-7.3c0.7-2.7,1.8-4.9,3.2-6.7c1.4-1.7,3.1-2.9,5-3.5
										c2-0.6,4.1-0.6,6.5,0.1c2.4,0.6,4.3,1.7,5.7,3.2c1.4,1.5,2.3,3.4,2.6,5.5c0.3,2.2,0.2,4.6-0.5,7.3c-0.7,2.7-1.8,5-3.2,6.7
										s-3.1,2.9-5,3.5c-2,0.6-4.1,0.6-6.5-0.1C521,1065.7,519.1,1064.7,517.6,1063.2z M533.3,1055c0.8-3,0.8-5.4,0.2-7.2
										c-0.7-1.8-2.1-3-4.2-3.6c-2.1-0.6-3.9-0.2-5.4,1c-1.5,1.2-2.6,3.4-3.4,6.3c-0.8,3-0.8,5.4-0.1,7.2c0.7,1.8,2.1,3,4.2,3.6
										C528.7,1063.5,531.7,1061,533.3,1055z"/>
									<path d="M561.7,1049c0.9,0.1,1.7,0.3,2.5,0.5l-6.7,25.3l-4.2-1.1l-5.1-16.7c-0.4-1.4-0.7-2.5-0.8-3.3
										c-0.4,1.7-1.1,4.4-2.1,8.2l-2.4,9.1l-4.4-1.2l6.6-24.7c0.7,0,1.5,0,2.3,0.1c0.8,0.1,1.6,0.2,2.3,0.4l4.6,15.6
										c0.3,1.1,0.7,2.5,1,4.3c0.6-2.9,1.4-6,2.2-9.3l2-7.4C560.1,1048.8,560.9,1048.9,561.7,1049z"/>
									<path d="M572.9,1056.4l-1.7,6.5l8.8,2.3c-0.6,1.8-1.1,3.1-1.5,3.9l-8.3-2.2l-2.8,10.5l-4.7-1.2l6.6-25l14.6,3.9
										c-0.2,0.6-0.4,1.3-0.7,2.1c-0.3,0.7-0.5,1.3-0.8,1.8L572.9,1056.4z"/>
									<path d="M586.9,1056.1c0.7,0,1.4,0,2.3,0.2c0.9,0.1,1.8,0.3,2.5,0.5l-6.7,25.3l-4.7-1.2L586.9,1056.1z"/>
									<path d="M612.7,1065.7c1.4,2.8,1.5,6.2,0.5,10.2c-1.1,4.1-2.9,7-5.6,8.6c-2.6,1.7-6,2-10,0.9l-7.4-2l6.6-25
										c2.1,0.1,4.6,0.5,7.4,1.3C608.5,1060.9,611.3,1062.9,612.7,1065.7z M604.9,1080.7c1.5-1.1,2.7-3.1,3.5-6.1
										c0.8-2.9,0.8-5.3,0-7.1s-2.5-3.1-5.1-3.7c-1-0.3-1.8-0.4-2.6-0.5l-4.6,17.4l2.7,0.7
										C601.3,1082.1,603.3,1081.8,604.9,1080.7z"/>
									<path d="M619.3,1086.9l10.3,2.7c-0.2,0.6-0.4,1.2-0.6,2c-0.3,0.8-0.6,1.4-0.8,1.9l-14.6-3.9l6.6-25l15.1,4
										c-0.2,0.6-0.4,1.3-0.7,2.1c-0.3,0.7-0.5,1.3-0.8,1.8l-10-2.7l-1.7,6.4l9.3,2.5c-0.2,0.6-0.4,1.2-0.6,2
										c-0.3,0.7-0.5,1.4-0.8,1.9l-8.9-2.4L619.3,1086.9z"/>
									<path d="M655.5,1073.8c0.9,0.1,1.7,0.3,2.5,0.5l-6.7,25.3l-4.2-1.1l-5.1-16.7c-0.4-1.4-0.7-2.5-0.8-3.3
										c-0.4,1.7-1.1,4.5-2.1,8.2l-2.4,9.1l-4.4-1.2l6.6-24.7c0.7,0,1.5,0,2.3,0.1c0.8,0.1,1.6,0.2,2.3,0.4l4.6,15.6
										c0.3,1.1,0.7,2.5,1,4.3c0.6-2.9,1.4-6,2.2-9.3l2-7.4C653.9,1073.7,654.7,1073.7,655.5,1073.8z"/>
									<path d="M660.6,1101c-1.5-1.6-2.4-3.4-2.8-5.7c-0.4-2.2-0.2-4.7,0.5-7.3c0.7-2.6,1.8-4.8,3.2-6.5c1.4-1.7,3.2-2.9,5.2-3.5
										c2-0.6,4.2-0.6,6.6,0.1c2.3,0.6,4.1,1.4,5.3,2.4c-0.4,1.4-1,2.7-1.7,3.8c-1.2-0.9-2.7-1.6-4.3-2.1c-1.4-0.4-2.8-0.4-4,0.1
										c-1.3,0.4-2.4,1.2-3.3,2.4c-0.9,1.2-1.7,2.7-2.2,4.6c-0.5,1.9-0.6,3.7-0.4,5.2c0.3,1.5,0.9,2.8,1.8,3.8
										c1,1,2.2,1.7,3.7,2.1c1.7,0.5,3.4,0.5,5,0.2c-0.5,1.3-1.1,2.6-1.9,4.1c-1.6,0.2-3.2,0-4.9-0.4
										C664.1,1103.7,662.1,1102.6,660.6,1101z"/>
									<path d="M682.2,1081.4c0.7,0,1.4,0,2.3,0.2c0.9,0.1,1.8,0.3,2.5,0.5l-6.7,25.3l-4.7-1.2L682.2,1081.4z"/>
									<path d="M699.6,1107.2l-9.3-2.5l-2.8,4.5l-4.6-1.2l14.4-22.6c0.7,0,1.6,0.1,2.7,0.3c1.1,0.2,2.2,0.4,3.3,0.7l1.3,27.3
										l-4.9-1.3L699.6,1107.2z M699.5,1103l-0.2-13l-6.8,11.1L699.5,1103z"/>
									<path d="M713.8,1089.8c0.7,0,1.4,0,2.3,0.2c0.9,0.1,1.8,0.3,2.5,0.5l-5.6,21.2l9,2.4c-0.2,0.6-0.4,1.3-0.6,2
										c-0.3,0.8-0.6,1.4-0.8,2l-13.3-3.5L713.8,1089.8z"/>
								</g>
								<line class="st11" x1="500.9" y1="1024.4" x2="728.9" y2="1084.8"/>
								<line class="st11" x1="490.3" y1="1064.3" x2="718.3" y2="1124.8"/>
							</g>
							<g>
								<line class="st10" x1="441" y1="1065.9" x2="761.1" y2="1150.8"/>
								<line class="st10" x1="436.9" y1="1081.4" x2="757" y2="1166.3"/>
								<line class="st10" x1="432.7" y1="1097" x2="752.9" y2="1181.9"/>
								<line class="st10" x1="428.6" y1="1112.5" x2="748.8" y2="1197.4"/>
								<line class="st10" x1="424.5" y1="1128.1" x2="744.7" y2="1212.9"/>
								<line class="st10" x1="420.4" y1="1143.6" x2="740.5" y2="1228.5"/>
								<line class="st10" x1="416.3" y1="1159.1" x2="736.4" y2="1244"/>
								<line class="st10" x1="412.1" y1="1174.7" x2="732.3" y2="1259.6"/>
								<line class="st10" x1="408" y1="1190.2" x2="728.2" y2="1275.1"/>
								<line class="st10" x1="403.9" y1="1205.8" x2="724.1" y2="1290.7"/>
								<line class="st10" x1="399.8" y1="1221.3" x2="719.9" y2="1306.2"/>
								<line class="st10" x1="395.6" y1="1236.9" x2="715.8" y2="1321.7"/>
								<line class="st10" x1="391.5" y1="1252.4" x2="711.7" y2="1337.3"/>
								<line class="st10" x1="387.4" y1="1268" x2="707.6" y2="1352.8"/>
								<line class="st10" x1="383.3" y1="1283.5" x2="703.4" y2="1368.4"/>
								<line class="st10" x1="379.2" y1="1299" x2="699.3" y2="1383.9"/>
								<line class="st10" x1="375" y1="1314.6" x2="695.2" y2="1399.5"/>
								<line class="st10" x1="370.9" y1="1330.1" x2="691.1" y2="1415"/>
								<line class="st10" x1="366.8" y1="1345.7" x2="687" y2="1430.6"/>
								<line class="st10" x1="362.7" y1="1361.2" x2="682.8" y2="1446.1"/>
								<line class="st10" x1="358.6" y1="1376.8" x2="678.7" y2="1461.6"/>
								<line class="st10" x1="354.4" y1="1392.3" x2="674.6" y2="1477.2"/>
								<line class="st10" x1="350.3" y1="1407.8" x2="670.5" y2="1492.7"/>
								<line class="st10" x1="346.2" y1="1423.4" x2="666.4" y2="1508.3"/>
								<line class="st10" x1="342.1" y1="1438.9" x2="662.2" y2="1523.8"/>
							</g>
						</g>
						<g>
							<rect x="530.2" y="1161.1" class="st10" width="371.5" height="499.6"/>
							<g>
								<line class="st10" x1="565" y1="1236.7" x2="721.3" y2="1236.7"/>
								<line class="st10" x1="565" y1="1252.8" x2="721.3" y2="1252.8"/>
								<line class="st10" x1="565" y1="1268.9" x2="721.3" y2="1268.9"/>
								<line class="st10" x1="565" y1="1285" x2="721.3" y2="1285"/>
								<line class="st10" x1="565" y1="1317.1" x2="826.3" y2="1317.1"/>
								<line class="st10" x1="565" y1="1333.2" x2="826.3" y2="1333.2"/>
								<line class="st10" x1="565" y1="1349.3" x2="826.3" y2="1349.3"/>
								<line class="st10" x1="565" y1="1365.4" x2="826.3" y2="1365.4"/>
								<line class="st10" x1="565" y1="1381.5" x2="826.3" y2="1381.5"/>
								<line class="st10" x1="565" y1="1397.5" x2="826.3" y2="1397.5"/>
								<line class="st10" x1="565" y1="1413.6" x2="826.3" y2="1413.6"/>
								<line class="st10" x1="565" y1="1429.7" x2="826.3" y2="1429.7"/>
								<line class="st10" x1="565" y1="1445.8" x2="826.3" y2="1445.8"/>
								<line class="st10" x1="565" y1="1461.9" x2="826.3" y2="1461.9"/>
								<line class="st10" x1="565" y1="1477.9" x2="826.3" y2="1477.9"/>
								<line class="st10" x1="565" y1="1494" x2="826.3" y2="1494"/>
								<line class="st10" x1="565" y1="1510.1" x2="826.3" y2="1510.1"/>
								<line class="st10" x1="565" y1="1526.2" x2="826.3" y2="1526.2"/>
								<line class="st10" x1="565" y1="1542.3" x2="826.3" y2="1542.3"/>
								<line class="st10" x1="565" y1="1558.3" x2="826.3" y2="1558.3"/>
								<line class="st10" x1="565" y1="1574.4" x2="826.3" y2="1574.4"/>
								<line class="st10" x1="565" y1="1590.5" x2="826.3" y2="1590.5"/>
								<line class="st10" x1="565" y1="1606.6" x2="826.3" y2="1606.6"/>
								<line class="st10" x1="836.7" y1="1317.1" x2="873.9" y2="1317.1"/>
								<line class="st10" x1="836.7" y1="1333.2" x2="873.9" y2="1333.2"/>
								<line class="st10" x1="836.7" y1="1349.3" x2="873.9" y2="1349.3"/>
								<line class="st10" x1="836.7" y1="1365.4" x2="873.9" y2="1365.4"/>
								<line class="st10" x1="836.7" y1="1381.5" x2="873.9" y2="1381.5"/>
								<line class="st10" x1="836.7" y1="1397.5" x2="873.9" y2="1397.5"/>
								<line class="st10" x1="836.7" y1="1413.6" x2="873.9" y2="1413.6"/>
								<line class="st10" x1="836.7" y1="1429.7" x2="873.9" y2="1429.7"/>
								<line class="st10" x1="836.7" y1="1445.8" x2="873.9" y2="1445.8"/>
								<line class="st10" x1="836.7" y1="1461.9" x2="873.9" y2="1461.9"/>
								<line class="st10" x1="836.7" y1="1477.9" x2="873.9" y2="1477.9"/>
								<line class="st10" x1="836.7" y1="1494" x2="873.9" y2="1494"/>
								<line class="st10" x1="836.7" y1="1510.1" x2="873.9" y2="1510.1"/>
								<line class="st10" x1="836.7" y1="1526.2" x2="873.9" y2="1526.2"/>
								<line class="st10" x1="836.7" y1="1542.3" x2="873.9" y2="1542.3"/>
								<line class="st10" x1="836.7" y1="1558.3" x2="873.9" y2="1558.3"/>
								<line class="st10" x1="836.7" y1="1574.4" x2="873.9" y2="1574.4"/>
								<line class="st10" x1="836.7" y1="1590.5" x2="873.9" y2="1590.5"/>
								<line class="st10" x1="836.7" y1="1606.6" x2="873.9" y2="1606.6"/>
								<line class="st10" x1="836.7" y1="1622.7" x2="873.9" y2="1622.7"/>
							</g>
							<g>
								<path d="M566.7,1211.3h10.7c0,0.6,0,1.3-0.1,2.1c-0.1,0.8-0.2,1.5-0.3,2h-15.1v-25.9h15.6c0,0.7-0.1,1.4-0.2,2.2
									c-0.1,0.8-0.2,1.4-0.3,2h-10.3v6.6h9.6c0,0.6,0,1.3-0.1,2.1c-0.1,0.8-0.2,1.5-0.3,2h-9.2V1211.3z"/>
								<path d="M583,1215.6c-1.2-0.3-2.3-0.6-3.1-1.1c0.1-0.8,0.1-1.6,0.2-2.2c0.1-0.6,0.2-1.3,0.4-1.9c0.9,0.5,1.9,0.9,3,1.2
									c1.1,0.3,2.2,0.4,3.4,0.4c1.5,0,2.7-0.3,3.5-0.9c0.8-0.6,1.2-1.4,1.2-2.5c0-0.7-0.2-1.4-0.6-1.9c-0.4-0.5-0.8-0.9-1.4-1.2
									c-0.6-0.3-1.3-0.7-2.1-1l-2.2-0.9c-3.7-1.4-5.5-3.9-5.5-7.5c0-2.2,0.7-4,2.3-5.3c1.5-1.3,3.8-1.9,6.9-1.9
									c2.5,0,4.7,0.4,6.7,1.2c-0.1,0.7-0.1,1.4-0.2,1.9c-0.1,0.6-0.2,1.2-0.4,2c-1-0.3-2-0.6-3-0.8c-1-0.2-2-0.3-2.8-0.3
									c-1.5,0-2.7,0.3-3.4,0.8c-0.7,0.6-1.1,1.3-1.1,2.3c0,1,0.3,1.8,1,2.4c0.6,0.6,1.5,1.1,2.6,1.5l2.2,0.8
									c4.1,1.5,6.1,4.1,6.1,7.6c0,1.5-0.4,2.8-1.1,4c-0.7,1.2-1.8,2.1-3.3,2.7c-1.4,0.7-3.2,1-5.3,1
									C585.5,1216,584.2,1215.9,583,1215.6z"/>
								<path d="M616.3,1191.7c-0.1,0.8-0.2,1.5-0.3,2.1h-6.7v21.7h-4.9v-21.7h-7.1c0-0.7,0.1-1.4,0.2-2.2c0.1-0.8,0.2-1.5,0.3-2
									h18.6C616.4,1190.1,616.4,1190.9,616.3,1191.7z"/>
								<path d="M630.1,1210.3h-9.6l-1.5,5.1h-4.8l8.1-25.5c0.7-0.2,1.6-0.3,2.7-0.4s2.3-0.2,3.4-0.2l8.2,26.1h-5.1L630.1,1210.3z
									 M629,1206.3l-3.5-12.5l-3.7,12.5H629z"/>
								<path d="M656.5,1192.5c2.1,2.4,3.1,5.6,3.1,9.8c0,4.2-1.1,7.5-3.2,9.8c-2.1,2.3-5.3,3.4-9.5,3.4h-7.6v-25.8
									c2.1-0.5,4.6-0.7,7.5-0.7C651.2,1188.9,654.5,1190.1,656.5,1192.5z M652.8,1209c1.2-1.5,1.8-3.7,1.8-6.8
									c0-3-0.6-5.3-1.8-6.8c-1.2-1.5-3.2-2.3-5.8-2.3c-1,0-1.9,0-2.7,0.1v18h2.8C649.6,1211.2,651.6,1210.5,652.8,1209z"/>
								<path d="M667.2,1214.4c-1.7-1.1-3.1-2.7-4-4.7c-0.9-2-1.3-4.4-1.3-7.2c0-2.8,0.5-5.2,1.4-7.3c0.9-2,2.2-3.6,4-4.7
									c1.7-1.1,3.8-1.6,6.3-1.6c2.5,0,4.6,0.6,6.4,1.6c1.7,1.1,3.1,2.7,4,4.7c0.9,2,1.3,4.4,1.3,7.2c0,2.8-0.5,5.3-1.4,7.3
									c-0.9,2-2.2,3.6-4,4.7c-1.7,1.1-3.8,1.6-6.3,1.6C671.1,1216,669,1215.5,667.2,1214.4z M680.2,1202.5c0-3.1-0.6-5.4-1.7-7
									c-1.1-1.6-2.8-2.4-5-2.4c-2.2,0-3.9,0.8-5,2.4c-1.1,1.6-1.7,3.9-1.7,7c0,3.1,0.6,5.4,1.7,7c1.1,1.6,2.8,2.4,5,2.4
									C678,1211.9,680.2,1208.7,680.2,1202.5z"/>
								<path d="M713.7,1192.5c2.1,2.4,3.1,5.6,3.1,9.8c0,4.2-1.1,7.5-3.2,9.8c-2.1,2.3-5.3,3.4-9.5,3.4h-7.6v-25.8
									c2.1-0.5,4.6-0.7,7.5-0.7C708.4,1188.9,711.7,1190.1,713.7,1192.5z M710,1209c1.2-1.5,1.8-3.7,1.8-6.8c0-3-0.6-5.3-1.8-6.8
									c-1.2-1.5-3.2-2.3-5.8-2.3c-1,0-1.9,0-2.7,0.1v18h2.8C706.9,1211.2,708.8,1210.5,710,1209z"/>
								<path d="M725.5,1211.3h10.7c0,0.6,0,1.3-0.1,2.1c-0.1,0.8-0.2,1.5-0.3,2h-15.1v-25.9h15.6c0,0.7-0.1,1.4-0.2,2.2
									c-0.1,0.8-0.2,1.4-0.3,2h-10.3v6.6h9.6c0,0.6,0,1.3-0.1,2.1c-0.1,0.8-0.2,1.5-0.3,2h-9.2V1211.3z"/>
								<path d="M751.6,1214.4c-1.8-1.1-3.2-2.7-4.2-4.8c-0.9-2.1-1.4-4.5-1.4-7.2c0-2.7,0.5-5.1,1.4-7.2c1-2,2.3-3.6,4.2-4.7
									c1.8-1.1,3.9-1.6,6.4-1.6c2.4,0,4.3,0.3,5.7,1c0,1.5-0.2,2.9-0.6,4.1c-1.4-0.6-3-0.9-4.7-0.9c-1.5,0-2.8,0.4-3.9,1.1
									c-1.1,0.7-2,1.8-2.6,3.2c-0.6,1.4-0.9,3.1-0.9,5c0,2,0.3,3.7,1,5.1c0.7,1.4,1.6,2.5,2.7,3.2c1.2,0.7,2.6,1.1,4.2,1.1
									c1.8,0,3.4-0.3,4.9-1.1c-0.1,1.3-0.4,2.8-0.7,4.4c-1.5,0.5-3.1,0.8-4.8,0.8C755.7,1216,753.5,1215.5,751.6,1214.4z"/>
								<path d="M771.5,1214.9c-1.5-0.7-2.6-1.8-3.4-3.2c-0.8-1.4-1.2-3-1.2-4.8v-17.1c0.7-0.2,1.4-0.4,2.3-0.5
									c0.9-0.1,1.7-0.2,2.5-0.2v17.6c0,1.7,0.4,2.9,1.3,3.8c0.9,0.8,2.1,1.3,3.7,1.3c1.6,0,2.8-0.4,3.7-1.3
									c0.9-0.8,1.3-2.1,1.3-3.8v-16.9c0.6-0.2,1.4-0.3,2.3-0.4c0.9-0.1,1.8-0.2,2.6-0.2v17.8c0,1.8-0.4,3.4-1.2,4.8
									c-0.8,1.4-2,2.4-3.5,3.2s-3.2,1.1-5.2,1.1C774.7,1216,773,1215.7,771.5,1214.9z"/>
								<path d="M796.3,1211.3H807c0,0.6,0,1.3-0.1,2.1c-0.1,0.8-0.2,1.5-0.3,2h-15.1v-25.9h15.6c0,0.7-0.1,1.4-0.2,2.2
									c-0.1,0.8-0.2,1.4-0.3,2h-10.4v6.6h9.6c0,0.6,0,1.3-0.1,2.1c-0.1,0.8-0.2,1.5-0.3,2h-9.2V1211.3z"/>
								<path d="M828,1189.4c0.8-0.1,1.7-0.2,2.5-0.2v26.2h-4.3l-9.2-14.9c-0.7-1.3-1.3-2.3-1.6-3c0.1,1.8,0.1,4.6,0.1,8.4v9.4h-4.6
									v-25.6c0.7-0.2,1.5-0.4,2.3-0.5c0.8-0.1,1.6-0.2,2.3-0.2l8.5,13.9c0.6,1,1.3,2.3,2.1,3.9c-0.1-3-0.2-6.2-0.2-9.5v-7.6
									C826.4,1189.6,827.1,1189.5,828,1189.4z"/>
								<path d="M852.3,1191.7c-0.1,0.8-0.2,1.5-0.3,2.1h-6.7v21.7h-4.9v-21.7h-7.1c0-0.7,0.1-1.4,0.2-2.2c0.1-0.8,0.2-1.5,0.3-2
									h18.6C852.4,1190.1,852.4,1190.9,852.3,1191.7z"/>
								<path d="M866.1,1210.3h-9.6l-1.5,5.1h-4.8l8.1-25.5c0.7-0.2,1.6-0.3,2.7-0.4s2.3-0.2,3.4-0.2l8.2,26.1h-5.1L866.1,1210.3z
									 M864.9,1206.3l-3.5-12.5l-3.7,12.5H864.9z"/>
							</g>
						</g>
						<g>
							<path class="st12" d="M167.1,714.7l-596.9,345.7c-2.5,1.5-3.4,4.7-1.9,7.3l233.5,403.1c1.5,2.5,4.7,3.4,7.3,1.9L405.9,1127
								c2.5-1.5,3.4-4.7,1.9-7.3L174.4,716.7C172.9,714.1,169.7,713.3,167.1,714.7z"/>
							<g>
								<path d="M169.6,881.1L144,896c-0.4,0.2-0.9,0.1-1.2-0.3L128,870c-0.2-0.4-0.1-0.9,0.3-1.2l25.7-14.9
									c0.4-0.2,0.9-0.1,1.2,0.3l14.9,25.7C170.2,880.3,170,880.9,169.6,881.1z"/>
								<path d="M186.6,910.7l-16.4,9.5c-0.5,0.3-1.1,0.1-1.4-0.4L137,865c-0.3-0.5-0.1-1.1,0.4-1.4l16.4-9.5
									c0.5-0.3,1.1-0.1,1.4,0.4l31.8,54.9C187.3,909.8,187.1,910.4,186.6,910.7z"/>
							</g>
							<path class="st13" d="M136.5,1273.8l-66.4,38.5c-3.5,2-4.7,6.5-2.7,10l0.3,0.6l79.1-45.8l-0.3-0.6
								C144.5,1273,140,1271.8,136.5,1273.8z"/>
							<path class="st14" d="M177.2,1220.3L3.4,1321c-0.7,0.4-1.6,0.2-2-0.5l-72.5-125.2c-0.4-0.7-0.2-1.6,0.5-2l173.8-100.7
								c0.7-0.4,1.6-0.2,2,0.5l72.5,125.2C178.2,1219,177.9,1219.9,177.2,1220.3z"/>
							<g>
								<path d="M-298.5,1069.3l-26.9,15.6c-0.3,0.2-0.7,0.1-0.9-0.2l-8.1-13.9c-0.2-0.3-0.1-0.7,0.2-0.9l26.9-15.6
									c0.3-0.2,0.7-0.1,0.9,0.2l8.1,13.9C-298.1,1068.7-298.2,1069.1-298.5,1069.3z"/>
								<path d="M-265.3,1050l-26.9,15.6c-0.3,0.2-0.7,0.1-0.9-0.2l-8.1-13.9c-0.2-0.3-0.1-0.7,0.2-0.9l26.9-15.6
									c0.3-0.2,0.7-0.1,0.9,0.2l8.1,13.9C-264.8,1049.4-264.9,1049.8-265.3,1050z"/>
								<path d="M-232,1030.8l-26.9,15.6c-0.3,0.2-0.7,0.1-0.9-0.2l-8.1-13.9c-0.2-0.3-0.1-0.7,0.2-0.9l26.9-15.6
									c0.3-0.2,0.7-0.1,0.9,0.2l8.1,13.9C-231.6,1030.2-231.7,1030.6-232,1030.8z"/>
								<path d="M-99,953.7l-26.9,15.6c-0.3,0.2-0.7,0.1-0.9-0.2l-8.1-13.9c-0.2-0.3-0.1-0.7,0.2-0.9l26.9-15.6
									c0.3-0.2,0.7-0.1,0.9,0.2l8.1,13.9C-98.6,953.1-98.7,953.5-99,953.7z"/>
								<path d="M-65.7,934.4L-92.6,950c-0.3,0.2-0.7,0.1-0.9-0.2l-8.1-13.9c-0.2-0.3-0.1-0.7,0.2-0.9l26.9-15.6
									c0.3-0.2,0.7-0.1,0.9,0.2l8.1,13.9C-65.3,933.9-65.4,934.3-65.7,934.4z"/>
								<path d="M-32.5,915.2l-26.9,15.6c-0.3,0.2-0.7,0.1-0.9-0.2l-8.1-13.9c-0.2-0.3-0.1-0.7,0.2-0.9l26.9-15.6
									c0.3-0.2,0.7-0.1,0.9,0.2l8.1,13.9C-32,914.6-32.1,915-32.5,915.2z"/>
								<path d="M-198.7,1011.5l-26.9,15.6c-0.3,0.2-0.7,0.1-0.9-0.2l-8.1-13.9c-0.2-0.3-0.1-0.7,0.2-0.9l26.9-15.6
									c0.3-0.2,0.7-0.1,0.9,0.2l8.1,13.9C-198.3,1010.9-198.4,1011.3-198.7,1011.5z"/>
								<path d="M-165.5,992.2l-26.9,15.6c-0.3,0.2-0.7,0.1-0.9-0.2l-8.1-13.9c-0.2-0.3-0.1-0.7,0.2-0.9l26.9-15.6
									c0.3-0.2,0.7-0.1,0.9,0.2l8.1,13.9C-165.1,991.7-165.2,992.1-165.5,992.2z"/>
								<path d="M-132.2,973l-26.9,15.6c-0.3,0.2-0.7,0.1-0.9-0.2l-8.1-13.9c-0.2-0.3-0.1-0.7,0.2-0.9l26.9-15.6
									c0.3-0.2,0.7-0.1,0.9,0.2l8.1,13.9C-131.8,972.4-131.9,972.8-132.2,973z"/>
								<path d="M0.8,895.9l-26.9,15.6c-0.3,0.2-0.7,0.1-0.9-0.2l-8.1-13.9c-0.2-0.3-0.1-0.7,0.2-0.9l26.9-15.6
									c0.3-0.2,0.7-0.1,0.9,0.2L1,895C1.2,895.4,1.1,895.7,0.8,895.9z"/>
								<path d="M34.1,876.7L7.2,892.2c-0.3,0.2-0.7,0.1-0.9-0.2l-8.1-13.9c-0.2-0.3-0.1-0.7,0.2-0.9l26.9-15.6
									c0.3-0.2,0.7-0.1,0.9,0.2l8.1,13.9C34.5,876.1,34.4,876.5,34.1,876.7z"/>
								<path d="M67.3,857.4L40.4,873c-0.3,0.2-0.7,0.1-0.9-0.2l-8.1-13.9c-0.2-0.3-0.1-0.7,0.2-0.9l26.9-15.6
									c0.3-0.2,0.7-0.1,0.9,0.2l8.1,13.9C67.7,856.8,67.6,857.2,67.3,857.4z"/>
								<path d="M100.6,838.1l-26.9,15.6c-0.3,0.2-0.7,0.1-0.9-0.2l-8.1-13.9c-0.2-0.3-0.1-0.7,0.2-0.9l26.9-15.6
									c0.3-0.2,0.7-0.1,0.9,0.2l8.1,13.9C101,837.6,100.9,838,100.6,838.1z"/>
								<path d="M133.8,818.9l-26.9,15.6c-0.3,0.2-0.7,0.1-0.9-0.2L98,820.3c-0.2-0.3-0.1-0.7,0.2-0.9l26.9-15.6
									c0.3-0.2,0.7-0.1,0.9,0.2l8.1,13.9C134.2,818.3,134.1,818.7,133.8,818.9z"/>
							</g>
							<g>
								<path d="M-150.4,1066.5l-25.7,14.9c-0.4,0.2-0.9,0.1-1.2-0.3l-14.9-25.7c-0.2-0.4-0.1-0.9,0.3-1.2l25.7-14.9
									c0.4-0.2,0.9-0.1,1.2,0.3l14.9,25.7C-149.9,1065.7-150,1066.2-150.4,1066.5z"/>
								<path d="M-182.5,1085.1l-25.7,14.9c-0.4,0.2-0.9,0.1-1.2-0.3l-14.9-25.7c-0.2-0.4-0.1-0.9,0.3-1.2l25.7-14.9
									c0.4-0.2,0.9-0.1,1.2,0.3l14.9,25.7C-182,1084.3-182.1,1084.8-182.5,1085.1z"/>
								<path d="M-214.7,1103.7l-25.7,14.9c-0.4,0.2-0.9,0.1-1.2-0.3l-14.9-25.7c-0.2-0.4-0.1-0.9,0.3-1.2l25.7-14.9
									c0.4-0.2,0.9-0.1,1.2,0.3l14.9,25.7C-214.1,1102.9-214.3,1103.4-214.7,1103.7z"/>
								<path d="M-118.3,1047.9l-25.7,14.9c-0.4,0.2-0.9,0.1-1.2-0.3l-14.9-25.7c-0.2-0.4-0.1-0.9,0.3-1.2l25.7-14.9
									c0.4-0.2,0.9-0.1,1.2,0.3l14.9,25.7C-117.7,1047.1-117.9,1047.6-118.3,1047.9z"/>
								<path d="M-54,1010.6l-25.7,14.9c-0.4,0.2-0.9,0.1-1.2-0.3l-14.9-25.7c-0.2-0.4-0.1-0.9,0.3-1.2l25.7-14.9
									c0.4-0.2,0.9-0.1,1.2,0.3l14.9,25.7C-53.5,1009.9-53.6,1010.4-54,1010.6z"/>
								<path d="M-86.1,1029.2l-25.7,14.9c-0.4,0.2-0.9,0.1-1.2-0.3l-14.9-25.7c-0.2-0.4-0.1-0.9,0.3-1.2l25.7-14.9
									c0.4-0.2,0.9-0.1,1.2,0.3l14.9,25.7C-85.6,1028.5-85.7,1029-86.1,1029.2z"/>
								<path d="M-21.9,992l-25.7,14.9c-0.4,0.2-0.9,0.1-1.2-0.3l-14.9-25.7c-0.2-0.4-0.1-0.9,0.3-1.2l25.7-14.9
									c0.4-0.2,0.9-0.1,1.2,0.3l14.9,25.7C-21.3,991.3-21.5,991.8-21.9,992z"/>
								<path d="M42.4,954.8l-25.7,14.9c-0.4,0.2-0.9,0.1-1.2-0.3L0.7,943.7c-0.2-0.4-0.1-0.9,0.3-1.2l25.7-14.9
									c0.4-0.2,0.9-0.1,1.2,0.3l14.9,25.7C42.9,954.1,42.8,954.6,42.4,954.8z"/>
								<path d="M10.2,973.4l-25.7,14.9c-0.4,0.2-0.9,0.1-1.2-0.3l-14.9-25.7c-0.2-0.4-0.1-0.9,0.3-1.2l25.7-14.9
									c0.4-0.2,0.9-0.1,1.2,0.3l14.9,25.7C10.8,972.7,10.6,973.2,10.2,973.4z"/>
								<path d="M74.5,936.2l-25.7,14.9c-0.4,0.2-0.9,0.1-1.2-0.3l-14.9-25.7c-0.2-0.4-0.1-0.9,0.3-1.2l25.7-14.9
									c0.4-0.2,0.9-0.1,1.2,0.3L74.8,935C75,935.5,74.9,936,74.5,936.2z"/>
								<path d="M138.8,899l-25.7,14.9c-0.4,0.2-0.9,0.1-1.2-0.3l-14.9-25.7c-0.2-0.4-0.1-0.9,0.3-1.2l25.7-14.9
									c0.4-0.2,0.9-0.1,1.2,0.3l14.9,25.7C139.3,898.2,139.2,898.8,138.8,899z"/>
								<path d="M106.6,917.6L81,932.5c-0.4,0.2-0.9,0.1-1.2-0.3L65,906.5c-0.2-0.4-0.1-0.9,0.3-1.2l25.7-14.9
									c0.4-0.2,0.9-0.1,1.2,0.3l14.9,25.7C107.2,916.8,107,917.4,106.6,917.6z"/>
							</g>
							<g>
								<path d="M-125.1,1091.3l-25.7,14.9c-0.4,0.2-0.9,0.1-1.2-0.3l-14.9-25.7c-0.2-0.4-0.1-0.9,0.3-1.2l25.7-14.9
									c0.4-0.2,0.9-0.1,1.2,0.3l14.9,25.7C-124.6,1090.5-124.7,1091-125.1,1091.3z"/>
								<path d="M-157.2,1109.9l-25.7,14.9c-0.4,0.2-0.9,0.1-1.2-0.3l-14.9-25.7c-0.2-0.4-0.1-0.9,0.3-1.2l25.7-14.9
									c0.4-0.2,0.9-0.1,1.2,0.3l14.9,25.7C-156.7,1109.1-156.8,1109.7-157.2,1109.9z"/>
								<path d="M-189.4,1128.5l-25.7,14.9c-0.4,0.2-0.9,0.1-1.2-0.3l-14.9-25.7c-0.2-0.4-0.1-0.9,0.3-1.2l25.7-14.9
									c0.4-0.2,0.9-0.1,1.2,0.3l14.9,25.7C-188.8,1127.7-189,1128.3-189.4,1128.5z"/>
								<path d="M-93,1072.7l-25.7,14.9c-0.4,0.2-0.9,0.1-1.2-0.3l-14.9-25.7c-0.2-0.4-0.1-0.9,0.3-1.2l25.7-14.9
									c0.4-0.2,0.9-0.1,1.2,0.3l14.9,25.7C-92.4,1071.9-92.6,1072.4-93,1072.7z"/>
								<path d="M-28.7,1035.5l-25.7,14.9c-0.4,0.2-0.9,0.1-1.2-0.3l-14.9-25.7c-0.2-0.4-0.1-0.9,0.3-1.2l25.7-14.9
									c0.4-0.2,0.9-0.1,1.2,0.3l14.9,25.7C-28.2,1034.7-28.3,1035.2-28.7,1035.5z"/>
								<path d="M-60.9,1054.1l-25.7,14.9c-0.4,0.2-0.9,0.1-1.2-0.3l-14.9-25.7c-0.2-0.4-0.1-0.9,0.3-1.2l25.7-14.9
									c0.4-0.2,0.9-0.1,1.2,0.3l14.9,25.7C-60.3,1053.3-60.5,1053.8-60.9,1054.1z"/>
								<path d="M3.4,1016.8l-25.7,14.9c-0.4,0.2-0.9,0.1-1.2-0.3l-14.9-25.7c-0.2-0.4-0.1-0.9,0.3-1.2l25.7-14.9
									c0.4-0.2,0.9-0.1,1.2,0.3l14.9,25.7C3.9,1016.1,3.8,1016.6,3.4,1016.8z"/>
								<path d="M67.7,979.6L42,994.5c-0.4,0.2-0.9,0.1-1.2-0.3L26,968.5c-0.2-0.4-0.1-0.9,0.3-1.2l25.7-14.9
									c0.4-0.2,0.9-0.1,1.2,0.3L68,978.5C68.2,978.9,68.1,979.4,67.7,979.6z"/>
								<path d="M35.5,998.2l-25.7,14.9c-0.4,0.2-0.9,0.1-1.2-0.3l-14.9-25.7c-0.2-0.4-0.1-0.9,0.3-1.2l25.7-14.9
									c0.4-0.2,0.9-0.1,1.2,0.3l14.9,25.7C36.1,997.5,35.9,998,35.5,998.2z"/>
								<path d="M99.8,961l-25.7,14.9c-0.4,0.2-0.9,0.1-1.2-0.3l-14.9-25.7c-0.2-0.4-0.1-0.9,0.3-1.2l25.7-14.9
									c0.4-0.2,0.9-0.1,1.2,0.3l14.9,25.7C100.3,960.3,100.2,960.8,99.8,961z"/>
								<path d="M164,923.8l-25.7,14.9c-0.4,0.2-0.9,0.1-1.2-0.3l-14.9-25.7c-0.2-0.4-0.1-0.9,0.3-1.2l25.7-14.9
									c0.4-0.2,0.9-0.1,1.2,0.3l14.9,25.7C164.6,923.1,164.4,923.6,164,923.8z"/>
								<path d="M131.9,942.4l-25.7,14.9c-0.4,0.2-0.9,0.1-1.2-0.3l-14.9-25.7c-0.2-0.4-0.1-0.9,0.3-1.2l25.7-14.9
									c0.4-0.2,0.9-0.1,1.2,0.3l14.9,25.7C132.5,941.7,132.3,942.2,131.9,942.4z"/>
							</g>
							<g>
								<path d="M-122.6,1132.4l-25.7,14.9c-0.4,0.2-0.9,0.1-1.2-0.3l-14.9-25.7c-0.2-0.4-0.1-0.9,0.3-1.2l25.7-14.9
									c0.4-0.2,0.9-0.1,1.2,0.3l14.9,25.7C-122.1,1131.6-122.2,1132.1-122.6,1132.4z"/>
								<path d="M-154.7,1151l-25.7,14.9c-0.4,0.2-0.9,0.1-1.2-0.3l-14.9-25.7c-0.2-0.4-0.1-0.9,0.3-1.2l25.7-14.9
									c0.4-0.2,0.9-0.1,1.2,0.3l14.9,25.7C-154.2,1150.2-154.3,1150.8-154.7,1151z"/>
								<path d="M-186.9,1169.6l-25.7,14.9c-0.4,0.2-0.9,0.1-1.2-0.3l-14.9-25.7c-0.2-0.4-0.1-0.9,0.3-1.2l25.7-14.9
									c0.4-0.2,0.9-0.1,1.2,0.3l14.9,25.7C-186.3,1168.8-186.5,1169.4-186.9,1169.6z"/>
								<path d="M-90.5,1113.8l-25.7,14.9c-0.4,0.2-0.9,0.1-1.2-0.3l-14.9-25.7c-0.2-0.4-0.1-0.9,0.3-1.2l25.7-14.9
									c0.4-0.2,0.9-0.1,1.2,0.3l14.9,25.7C-89.9,1113-90.1,1113.5-90.5,1113.8z"/>
								<path d="M-26.2,1076.6l-25.7,14.9c-0.4,0.2-0.9,0.1-1.2-0.3l-14.9-25.7c-0.2-0.4-0.1-0.9,0.3-1.2l25.7-14.9
									c0.4-0.2,0.9-0.1,1.2,0.3l14.9,25.7C-25.7,1075.8-25.8,1076.3-26.2,1076.6z"/>
								<path d="M-58.3,1095.2L-84,1110c-0.4,0.2-0.9,0.1-1.2-0.3l-14.9-25.7c-0.2-0.4-0.1-0.9,0.3-1.2L-74,1068
									c0.4-0.2,0.9-0.1,1.2,0.3L-58,1094C-57.8,1094.4-57.9,1094.9-58.3,1095.2z"/>
								<path d="M5.9,1057.9l-25.7,14.9c-0.4,0.2-0.9,0.1-1.2-0.3l-14.9-25.7c-0.2-0.4-0.1-0.9,0.3-1.2l25.7-14.9
									c0.4-0.2,0.9-0.1,1.2,0.3l14.9,25.7C6.5,1057.2,6.3,1057.7,5.9,1057.9z"/>
								<path d="M70.2,1020.7l-25.7,14.9c-0.4,0.2-0.9,0.1-1.2-0.3l-14.9-25.7c-0.2-0.4-0.1-0.9,0.3-1.2l25.7-14.9
									c0.4-0.2,0.9-0.1,1.2,0.3l14.9,25.7C70.7,1020,70.6,1020.5,70.2,1020.7z"/>
								<path d="M38,1039.3l-25.7,14.9c-0.4,0.2-0.9,0.1-1.2-0.3l-14.9-25.7c-0.2-0.4-0.1-0.9,0.3-1.2l25.7-14.9
									c0.4-0.2,0.9-0.1,1.2,0.3l14.9,25.7C38.6,1038.6,38.4,1039.1,38,1039.3z"/>
								<path d="M102.3,1002.1L76.6,1017c-0.4,0.2-0.9,0.1-1.2-0.3L60.6,991c-0.2-0.4-0.1-0.9,0.3-1.2L86.6,975
									c0.4-0.2,0.9-0.1,1.2,0.3l14.9,25.7C102.8,1001.4,102.7,1001.9,102.3,1002.1z"/>
								<path d="M204.8,942.8l-63.5,36.8c-0.6,0.4-1.4,0.1-1.8-0.5l-14.4-24.8c-0.4-0.6-0.1-1.4,0.5-1.8l63.5-36.8
									c0.6-0.4,1.4-0.1,1.8,0.5l14.4,24.8C205.6,941.6,205.4,942.4,204.8,942.8z"/>
								<path d="M134.4,983.5l-25.7,14.9c-0.4,0.2-0.9,0.1-1.2-0.3l-14.9-25.7c-0.2-0.4-0.1-0.9,0.3-1.2l25.7-14.9
									c0.4-0.2,0.9-0.1,1.2,0.3l14.9,25.7C135,982.8,134.8,983.3,134.4,983.5z"/>
							</g>
							<g>
								<path d="M-143.9,1190.6l-25.7,14.9c-0.4,0.2-0.9,0.1-1.2-0.3l-14.9-25.7c-0.2-0.4-0.1-0.9,0.3-1.2l25.7-14.9
									c0.4-0.2,0.9-0.1,1.2,0.3l14.9,25.7C-143.3,1189.8-143.5,1190.3-143.9,1190.6z"/>
								<path d="M130,1032l-25.7,14.9c-0.4,0.2-0.9,0.1-1.2-0.3l-14.9-25.7c-0.2-0.4-0.1-0.9,0.3-1.2l25.7-14.9
									c0.4-0.2,0.9-0.1,1.2,0.3l14.9,25.7C130.5,1031.2,130.4,1031.7,130,1032z"/>
								<path d="M161.6,1013.7l-25.6,14.8c-0.4,0.2-1,0.1-1.2-0.3l-8-13.7c-0.2-0.4-0.1-1,0.3-1.2l25.6-14.8c0.4-0.2,1-0.1,1.2,0.3
									l8,13.7C162.1,1012.9,162,1013.4,161.6,1013.7z"/>
								<path d="M225.1,976.9l-25.6,14.8c-0.4,0.2-1,0.1-1.2-0.3l-8-13.7c-0.2-0.4-0.1-1,0.3-1.2l25.6-14.8c0.4-0.2,1-0.1,1.2,0.3
									l8,13.7C225.6,976.1,225.5,976.6,225.1,976.9z"/>
								<path d="M193.4,995.2l-25.7,14.9c-0.4,0.2-0.9,0.1-1.1-0.3l-6.8-11.7c-0.2-0.4-0.1-0.9,0.3-1.1l25.7-14.9
									c0.4-0.2,0.9-0.1,1.1,0.3l6.8,11.7C194,994.5,193.8,995,193.4,995.2z"/>
								<path d="M184.7,980.1L159,995c-0.4,0.2-0.9,0.1-1.1-0.3l-6.8-11.7c-0.2-0.4-0.1-0.9,0.3-1.1l25.7-14.9
									c0.4-0.2,0.9-0.1,1.1,0.3L185,979C185.2,979.4,185.1,979.9,184.7,980.1z"/>
								<path d="M-176,1209.2l-25.7,14.9c-0.4,0.2-0.9,0.1-1.2-0.3l-14.9-25.7c-0.2-0.4-0.1-0.9,0.3-1.2l25.7-14.9
									c0.4-0.2,0.9-0.1,1.2,0.3l14.9,25.7C-175.5,1208.4-175.6,1209-176,1209.2z"/>
								<path d="M-208.1,1227.8l-25.7,14.9c-0.4,0.2-0.9,0.1-1.2-0.3l-14.9-25.7c-0.2-0.4-0.1-0.9,0.3-1.2l25.7-14.9
									c0.4-0.2,0.9-0.1,1.2,0.3l14.9,25.7C-207.6,1227.1-207.7,1227.6-208.1,1227.8z"/>
								<path d="M-103.5,1167.2l-33.8,19.6c-0.5,0.3-1.1,0.1-1.3-0.4l-14.7-25.4c-0.3-0.5-0.1-1.1,0.4-1.3l33.8-19.6
									c0.5-0.3,1.1-0.1,1.3,0.4l14.7,25.4C-102.9,1166.3-103,1166.9-103.5,1167.2z"/>
								<path d="M97.1,1051l-33.8,19.6c-0.5,0.3-1.1,0.1-1.3-0.4l-14.7-25.4c-0.3-0.5-0.1-1.1,0.4-1.3l33.8-19.6
									c0.5-0.3,1.1-0.1,1.3,0.4l14.7,25.4C97.7,1050.2,97.5,1050.8,97.1,1051z"/>
								<path d="M57.9,1073.7l-154,89.2c-0.4,0.3-1,0.1-1.3-0.3l-14.8-25.5c-0.3-0.4-0.1-1,0.3-1.3l154-89.2c0.4-0.3,1-0.1,1.3,0.3
									l14.8,25.5C58.5,1072.9,58.3,1073.5,57.9,1073.7z"/>
							</g>
							<path d="M-222.4,1147.6l-49.5,28.6c-0.6,0.3-1.3,0.1-1.6-0.4l-14.5-25.1c-0.3-0.6-0.1-1.3,0.4-1.6l49.5-28.6
								c0.6-0.3,1.3-0.1,1.6,0.4l14.5,25.1C-221.7,1146.6-221.9,1147.3-222.4,1147.6z"/>
							<g>
								<path d="M-281.6,1101l-25.7,14.9c-0.4,0.2-0.9,0.1-1.2-0.3l-14.9-25.7c-0.2-0.4-0.1-0.9,0.3-1.2l25.7-14.9
									c0.4-0.2,0.9-0.1,1.2,0.3l14.9,25.7C-281.1,1100.2-281.2,1100.7-281.6,1101z"/>
								<path d="M-217.3,1063.8l-25.7,14.9c-0.4,0.2-0.9,0.1-1.2-0.3l-14.9-25.7c-0.2-0.4-0.1-0.9,0.3-1.2l25.7-14.9
									c0.4-0.2,0.9-0.1,1.2,0.3l14.9,25.7C-216.8,1063-216.9,1063.5-217.3,1063.8z"/>
								<path d="M-249.5,1082.4l-25.7,14.9c-0.4,0.2-0.9,0.1-1.2-0.3l-14.9-25.7c-0.2-0.4-0.1-0.9,0.3-1.2l25.7-14.9
									c0.4-0.2,0.9-0.1,1.2,0.3l14.9,25.7C-248.9,1081.6-249.1,1082.1-249.5,1082.4z"/>
								<path d="M-185.2,1045.1l-25.7,14.9c-0.4,0.2-0.9,0.1-1.2-0.3l-14.9-25.7c-0.2-0.4-0.1-0.9,0.3-1.2l25.7-14.9
									c0.4-0.2,0.9-0.1,1.2,0.3l14.9,25.7C-184.7,1044.4-184.8,1044.9-185.2,1045.1z"/>
								<path d="M-121,1007.9l-25.7,14.9c-0.4,0.2-0.9,0.1-1.2-0.3l-14.9-25.7c-0.2-0.4-0.1-0.9,0.3-1.2l25.7-14.9
									c0.4-0.2,0.9-0.1,1.2,0.3l14.9,25.7C-120.4,1007.2-120.6,1007.7-121,1007.9z"/>
								<path d="M-153.1,1026.5l-25.7,14.9c-0.4,0.2-0.9,0.1-1.2-0.3l-14.9-25.7c-0.2-0.4-0.1-0.9,0.3-1.2l25.7-14.9
									c0.4-0.2,0.9-0.1,1.2,0.3l14.9,25.7C-152.5,1025.8-152.7,1026.3-153.1,1026.5z"/>
								<path d="M-88.8,989.3l-25.7,14.9c-0.4,0.2-0.9,0.1-1.2-0.3l-14.9-25.7c-0.2-0.4-0.1-0.9,0.3-1.2l25.7-14.9
									c0.4-0.2,0.9-0.1,1.2,0.3l14.9,25.7C-88.3,988.6-88.4,989.1-88.8,989.3z"/>
								<path d="M-24.6,952.1L-50.2,967c-0.4,0.2-0.9,0.1-1.2-0.3L-66.2,941c-0.2-0.4-0.1-0.9,0.3-1.2l25.7-14.9
									c0.4-0.2,0.9-0.1,1.2,0.3l14.9,25.7C-24,951.4-24.2,951.9-24.6,952.1z"/>
								<path d="M-56.7,970.7l-25.7,14.9c-0.4,0.2-0.9,0.1-1.2-0.3l-14.9-25.7c-0.2-0.4-0.1-0.9,0.3-1.2l25.7-14.9
									c0.4-0.2,0.9-0.1,1.2,0.3l14.9,25.7C-56.2,970-56.3,970.5-56.7,970.7z"/>
								<path d="M7.5,933.5l-25.7,14.9c-0.4,0.2-0.9,0.1-1.2-0.3l-14.9-25.7c-0.2-0.4-0.1-0.9,0.3-1.2l25.7-14.9
									c0.4-0.2,0.9-0.1,1.2,0.3l14.9,25.7C8.1,932.7,8,933.3,7.5,933.5z"/>
								<path d="M71.8,896.3l-25.7,14.9c-0.4,0.2-0.9,0.1-1.2-0.3l-14.9-25.7c-0.2-0.4-0.1-0.9,0.3-1.2l25.7-14.9
									c0.4-0.2,0.9-0.1,1.2,0.3l14.9,25.7C72.3,895.5,72.2,896,71.8,896.3z"/>
								<path d="M103.9,877.7l-25.7,14.9c-0.4,0.2-0.9,0.1-1.2-0.3l-14.9-25.7c-0.2-0.4-0.1-0.9,0.3-1.2l25.7-14.9
									c0.4-0.2,0.9-0.1,1.2,0.3l14.9,25.7C104.5,876.9,104.3,877.4,103.9,877.7z"/>
								<path d="M151.5,850.1l-40.2,23.3c-0.5,0.3-1.1,0.1-1.4-0.4l-14.6-25.3c-0.3-0.5-0.1-1.1,0.4-1.4l40.2-23.3
									c0.5-0.3,1.1-0.1,1.4,0.4l14.6,25.3C152.1,849.2,152,849.8,151.5,850.1z"/>
								<path d="M39.7,914.9L14,929.7c-0.4,0.2-0.9,0.1-1.2-0.3L-2,903.8c-0.2-0.4-0.1-0.9,0.3-1.2L24,887.8
									c0.4-0.2,0.9-0.1,1.2,0.3L40,913.7C40.2,914.1,40.1,914.7,39.7,914.9z"/>
							</g>
							<path d="M-247.3,1122.6l-41.8,24.2c-0.5,0.3-1.2,0.1-1.5-0.4l-14.6-25.3c-0.3-0.5-0.1-1.2,0.4-1.5l41.8-24.2
								c0.5-0.3,1.2-0.1,1.5,0.4l14.6,25.3C-246.6,1121.6-246.8,1122.3-247.3,1122.6z"/>
							<path d="M-220.2,1188.9l-33.3,19.3c-0.5,0.3-1,0.1-1.3-0.3l-14.7-25.5c-0.3-0.5-0.1-1,0.3-1.3l33.3-19.3
								c0.5-0.3,1-0.1,1.3,0.3l14.7,25.5C-219.6,1188.1-219.8,1188.7-220.2,1188.9z"/>
							
								<rect x="-400.7" y="881.2" transform="matrix(0.8653 -0.5012 0.5012 0.8653 -465.3441 56.5323)" width="546.4" height="26.1"/>
							<path class="st1" d="M139.4,542.2c-7.7,4.4-236,136.7-332,192.3c0,0-16.2,9.4-41.8,24.2c-95.9,55.6-324.3,187.8-332,192.3
								c-9.7,5.6-18.2,14.7-8.9,21.5c9.3,6.7,118.8,73.8,130.3,80.5c11.4,6.8,13.7,2.1,19.1-1l270.6-156.7l41.8-24.2l270.6-156.7
								c5.3-3.1,10.5-2.8,10.4-16c-0.2-13.3-3.8-141.6-5-153.1C161.3,533.8,149.1,536.6,139.4,542.2z"/>
						</g>
						<g>
							<path class="st15" d="M988.7,1068.9c0,0-43.5,23.3-47.7,26c-4.2,2.7-16.2,1.6-18.8-2.1c-2.7-3.7-6.4-11.1-8.2-15.6
								s-1.9-11.4,3.4-14.3c5.3-2.9,48.8-32.9,48.8-32.9L988.7,1068.9z"/>
							<circle class="st15" cx="1054.8" cy="996.1" r="96.6"/>
							<circle class="st16" cx="1054.8" cy="996.1" r="82.3"/>
							<path class="st15" d="M977.9,1054.6c0,0-44,30-48.3,33.1c-4.3,3-3.6,8,0,8.3"/>
						</g>
						<g>
							<path class="st15" d="M1102.2,1417.1l-157.9-134.7l-13.6-18.8l-8-11l32,15.6l157.3,135.8c0,0,0.9,3-3.4,8.7
								S1102.2,1417.1,1102.2,1417.1z"/>
							<polygon class="st16" points="935.8,1263.8 930.7,1263.5 922.8,1252.5 937.4,1259.6 							"/>
							<path class="st16" d="M944.3,1282.3c0,0,8.5,0.3,7.5-5.3c5.7-0.4,5.3-8.7,4.1-8.8"/>
						</g>
					</g>
					<use xlink:href="#SVGID_5_"  style="overflow:visible;fill:none;stroke:#FFFFFF;stroke-width:4;stroke-miterlimit:10;"/>
				</g>
				<use xlink:href="#SVGID_3_"  style="overflow:visible;fill:none;stroke:#FFFFFF;stroke-width:4;stroke-miterlimit:10;"/>
			</g>
			<g>
				<circle class="st17" cx="80.9" cy="908.5" r="38.2"/>
				<g>
					<path class="st3" d="M156.6,915.5h-13.4l-2.5,7.9h-4.1l10.7-32.7c1.2-0.3,3.5-0.6,5.2-0.6l10.9,33.3h-4.3L156.6,915.5z
						 M155.4,911.8l-5.5-17.6l-5.6,17.6H155.4z"/>
					<path class="st3" d="M184.7,900.5v22.6c0,6.9-3.4,11.1-11,11.1c-2.4,0-4.7-0.5-6.8-1.5c0-1.1,0.1-2.5,0.3-3.6
						c2.1,1,4.5,1.5,6.4,1.5c4.6,0,7-2.5,7-7.1v-3.1c-1.2,2.2-3.2,3.6-6.2,3.6c-5.6,0-9.4-4-9.4-12.2c0-7.7,3.4-12.6,11.5-12.6
						C179.8,899.2,182.4,899.6,184.7,900.5z M180.6,918.3v-15.2c-1.2-0.3-2.5-0.5-4.1-0.5c-5.5,0-7.4,3.7-7.4,9.1
						c0,6,2.2,8.9,6.4,8.9C177.6,920.6,179.3,919.8,180.6,918.3z"/>
					<path class="st3" d="M209,912.9h-15.5c0.4,5.6,3.1,7.7,7.8,7.7c2.4,0,4.8-0.6,7.1-2c-0.1,1.1-0.3,2.7-0.6,3.7
						c-1.9,1.1-4.4,1.6-7,1.6c-7.8,0-11.6-4.7-11.6-12.6c0-6.8,3.2-12.2,10.4-12.2c6.6,0,9.6,4.3,9.6,10.6
						C209.3,910.8,209.2,912.2,209,912.9z M193.6,909.5h11.5c0-4.2-1.6-7-5.5-7C196,902.6,194,905.1,193.6,909.5z"/>
					<path class="st3" d="M233,907.6v15.9h-4.1v-15.3c0-3.8-1.5-5.6-5.7-5.6c-1.6,0-3.2,0.2-4.7,0.6v20.3h-4.1v-22.9
						c3.1-0.9,5.9-1.4,8.9-1.4C230.5,899.2,233,902.5,233,907.6z"/>
					<path class="st3" d="M246.4,920.5c1.1,0,2.4-0.3,3.5-0.9c-0.1,1.3-0.3,2.4-0.5,3.5c-1.3,0.7-2.6,0.9-3.9,0.9
						c-4.2,0-6.9-2.1-6.9-7.3v-23.5c1.3-0.5,2.7-0.6,4.1-0.6v7.1h7.3c-0.1,1.2-0.2,2.3-0.4,3.4h-6.9v13.1
						C242.7,919.3,244,920.5,246.4,920.5z"/>
					<path class="st3" d="M271.7,912.9h-15.5c0.4,5.6,3.1,7.7,7.8,7.7c2.4,0,4.8-0.6,7.1-2c-0.1,1.1-0.3,2.7-0.6,3.7
						c-1.9,1.1-4.4,1.6-7,1.6c-7.8,0-11.6-4.7-11.6-12.6c0-6.8,3.2-12.2,10.4-12.2c6.6,0,9.6,4.3,9.6,10.6
						C271.9,910.8,271.8,912.2,271.7,912.9z M256.2,909.5h11.5c0-4.2-1.6-7-5.5-7C258.7,902.6,256.6,905.1,256.2,909.5z"/>
					<path class="st3" d="M284.3,923.4c0-1.2,0.1-2.5,0.3-3.6c0.9,0.1,1.8,0.2,2.5,0.2c3.7,0,5.4-1.9,5.4-6.7v-22.7
						c1.1-0.3,2.9-0.7,4.2-0.7v23.8c0,6.6-3.1,9.9-9,9.9C286.6,923.8,285.3,923.7,284.3,923.4z"/>
				</g>
				<g>
					<path class="st3" d="M387,915.5h-13.4l-2.5,7.9H367l10.7-32.7c1.2-0.3,3.5-0.6,5.2-0.6l10.9,33.3h-4.3L387,915.5z M385.8,911.8
						l-5.5-17.6l-5.6,17.6H385.8z"/>
					<path class="st3" d="M430,907.4v16.1h-4.1v-15.3c0-3.8-1.6-5.5-5.6-5.5c-1.8,0-3.7,0.5-5.4,1.4c0.4,1.1,0.6,2.3,0.6,3.6v15.9
						h-4.1v-15.3c0-3.8-1.5-5.6-5.7-5.6c-1.6,0-3.2,0.2-4.7,0.6v20.3h-4.1v-22.9c3.1-0.9,5.9-1.4,8.9-1.4c3.6,0,6.1,0.8,7.6,2.3
						c2.3-1.7,5-2.3,7.9-2.3C427.1,899.2,430,902.3,430,907.4z"/>
					<path class="st3" d="M435.3,892.1c0-1.6,1.1-2.7,2.6-2.7c1.5,0,2.6,1.1,2.6,2.7c0,1.6-1.1,2.7-2.6,2.7
						C436.4,894.8,435.3,893.7,435.3,892.1z M435.8,899.7h4.1v23.7h-4.1V899.7z"/>
					<path class="st3" d="M464.4,900.5v22.6c0,6.9-3.4,11.1-11,11.1c-2.4,0-4.7-0.5-6.8-1.5c0-1.1,0.1-2.5,0.3-3.6
						c2.1,1,4.5,1.5,6.4,1.5c4.6,0,7-2.5,7-7.1v-3.1c-1.2,2.2-3.2,3.6-6.2,3.6c-5.6,0-9.4-4-9.4-12.2c0-7.7,3.4-12.6,11.5-12.6
						C459.5,899.2,462.1,899.6,464.4,900.5z M460.3,918.3v-15.2c-1.2-0.3-2.5-0.5-4.1-0.5c-5.5,0-7.4,3.7-7.4,9.1
						c0,6,2.2,8.9,6.4,8.9C457.3,920.6,459,919.8,460.3,918.3z"/>
					<path class="st3" d="M469,911.6c0-7.7,3.7-12.4,10.7-12.4c6.9,0,10.7,4.7,10.7,12.4c0,7.7-3.8,12.4-10.7,12.4
						C472.8,924,469,919.3,469,911.6z M486.2,911.6c0-5.7-2.1-9-6.5-9c-4.4,0-6.5,3.3-6.5,9c0,5.7,2.1,9,6.5,9
						C484.1,920.6,486.2,917.3,486.2,911.6z"/>
					<path class="st3" d="M493.5,922.4c0.1-1.4,0.2-2.3,0.6-3.4c2,1.1,4.4,1.7,6.4,1.7c3.4,0,5.1-1.1,5.1-3.3c0-2-1.2-2.8-3.8-3.8
						l-2-0.8c-3.5-1.4-6.2-3.2-6.2-7.1c0-4.1,3-6.5,8.5-6.5c2.4,0,4.8,0.3,6.8,1.1c-0.1,1.1-0.2,2.2-0.5,3.4c-2-0.7-3.7-1.1-6-1.1
						c-3.2,0-4.8,1.1-4.8,3.1c0,1.8,1.3,2.9,4,3.9l2,0.8c4,1.5,6.1,3.3,6.1,6.7c0,4.1-3.1,7-9.1,7
						C497.9,924,495.3,923.4,493.5,922.4z"/>
					<path class="st3" d="M523.7,912.7v-22c1.1-0.3,2.8-0.7,4.2-0.7v22.5c0,5.2,3,7.9,7.7,7.9c4.9,0,7.8-2.6,7.8-7.9v-21.8
						c1-0.3,2.9-0.7,4.2-0.7v22.7c0,6.8-4.6,11.5-12,11.5S523.7,919.5,523.7,912.7z"/>
					<path class="st3" d="M572.2,907.6v15.9h-4.1v-15.3c0-3.8-1.5-5.6-5.7-5.6c-1.6,0-3.2,0.2-4.7,0.6v20.3h-4.1v-22.9
						c3.1-0.9,5.9-1.4,8.9-1.4C569.8,899.2,572.2,902.5,572.2,907.6z"/>
					<path class="st3" d="M577.5,892.1c0-1.6,1.1-2.7,2.6-2.7c1.5,0,2.6,1.1,2.6,2.7c0,1.6-1.1,2.7-2.6,2.7
						C578.6,894.8,577.5,893.7,577.5,892.1z M578.1,899.7h4.1v23.7h-4.1V899.7z"/>
					<path class="st3" d="M606.3,899.7l-8.6,23.7h-4l-8.5-23.7h4.3l6.3,19.2l6.3-19.2H606.3z"/>
					<path class="st3" d="M627,912.9h-15.5c0.4,5.6,3.1,7.7,7.8,7.7c2.4,0,4.8-0.6,7.1-2c-0.1,1.1-0.3,2.7-0.6,3.7
						c-1.9,1.1-4.4,1.6-7,1.6c-7.8,0-11.6-4.7-11.6-12.6c0-6.8,3.2-12.2,10.4-12.2c6.6,0,9.6,4.3,9.6,10.6
						C627.3,910.8,627.2,912.2,627,912.9z M611.6,909.5h11.5c0-4.2-1.6-7-5.5-7C614,902.6,612,905.1,611.6,909.5z"/>
					<path class="st3" d="M644.9,899.7c0,1.2-0.1,2.7-0.4,3.5c-1.3-0.3-2.9-0.4-4.4-0.4c-1.2,0-2.5,0.1-3.7,0.4v20.3h-4.1v-22.9
						c2-0.7,5.2-1.3,7.8-1.3C642,899.3,643.6,899.4,644.9,899.7z"/>
					<path class="st3" d="M647.3,922.4c0.1-1.4,0.2-2.3,0.6-3.4c2,1.1,4.4,1.7,6.4,1.7c3.4,0,5.1-1.1,5.1-3.3c0-2-1.2-2.8-3.8-3.8
						l-2-0.8c-3.5-1.4-6.2-3.2-6.2-7.1c0-4.1,3-6.5,8.5-6.5c2.4,0,4.8,0.3,6.8,1.1c-0.1,1.1-0.2,2.2-0.5,3.4c-2-0.7-3.7-1.1-6-1.1
						c-3.2,0-4.8,1.1-4.8,3.1c0,1.8,1.3,2.9,4,3.9l2,0.8c4,1.5,6.1,3.3,6.1,6.7c0,4.1-3.1,7-9.1,7
						C651.7,924,649.1,923.4,647.3,922.4z"/>
					<path class="st3" d="M667.6,892.1c0-1.6,1.1-2.7,2.6-2.7c1.5,0,2.6,1.1,2.6,2.7c0,1.6-1.1,2.7-2.6,2.7
						C668.7,894.8,667.6,893.7,667.6,892.1z M668.2,899.7h4.1v23.7h-4.1V899.7z"/>
					<path class="st3" d="M696.8,889.8v33.7H693l-0.2-3.2c-1.2,2.3-3.1,3.8-6.3,3.8c-5.6,0-9.4-4-9.4-12.2c0-7.7,3.4-12.6,11.5-12.6
						c1.5,0,2.9,0.1,4.1,0.3v-9.1C694,889.9,695.5,889.8,696.8,889.8z M692.7,918.3v-15.2c-1.2-0.3-2.5-0.5-4.1-0.5
						c-5.5,0-7.4,3.7-7.4,9.1c0,6,2.2,8.9,6.4,8.9C689.7,920.6,691.4,919.8,692.7,918.3z"/>
					<path class="st3" d="M721,900.5v23h-3.8l-0.2-3.2c-1.3,2.3-3.3,3.7-6.2,3.7c-5.5,0-9.2-3.8-9.2-12.3c0-7.7,3.4-12.5,11.4-12.5
						C716.3,899.2,718.7,899.6,721,900.5z M716.9,918.4V903c-1.1-0.3-2.4-0.5-4.1-0.5c-5.3,0-7.1,3.7-7.1,9c0,6.3,2.2,9,6.1,9
						C714,920.6,715.6,919.8,716.9,918.4z"/>
					<path class="st3" d="M745.5,889.8v33.7h-3.8l-0.2-3.2c-1.2,2.3-3.1,3.8-6.3,3.8c-5.6,0-9.4-4-9.4-12.2
						c0-7.7,3.4-12.6,11.5-12.6c1.5,0,2.9,0.1,4.1,0.3v-9.1C742.7,889.9,744.2,889.8,745.5,889.8z M741.4,918.3v-15.2
						c-1.2-0.3-2.5-0.5-4.1-0.5c-5.5,0-7.4,3.7-7.4,9.1c0,6,2.2,8.9,6.4,8.9C738.4,920.6,740.1,919.8,741.4,918.3z"/>
				</g>
				<g>
					<g>
						<path d="M72.8,890.5c0.2-1.1,1-2,2.1-2H78c1.2,0,2.1,1,2.2,2.1h2.2c0.1-1.2,1-2.1,2.2-2.1h3.1c1.1,0,1.8,0.8,2.1,1.8l1.9-0.3
							c-1.1-5-5.6-8.7-10.9-8.7c-5.3,0-9.7,3.7-10.9,8.7L72.8,890.5z"/>
						<path d="M90,892.1v0.2c0,1.2-1,2.3-2.3,2.3h-3.1c-1.2,0-2.1-1-2.2-2.1h-2.2c-0.1,1.2-1,2.1-2.2,2.1h-3.1c-1.2,0-2.3-1-2.3-2.3
							v0l-2.9-0.5c0,0.2-0.1,0.5-0.1,0.7c0,6.2,5,11.2,11.2,11.2c6.2,0,11.2-5,11.2-11.2c0-0.3-0.1-0.5-0.1-0.7L90,892.1z"/>
					</g>
					<path d="M80.9,906.4L80.9,906.4C80.9,906.3,80.9,906.4,80.9,906.4c-0.1,0-0.1,0-0.1,0v0c-11.2,0.1-20,10.9-20,17.2
						c0,6.4,4.3,7.1,10,7.1c5.6,0,9.7,0,10,0c0,0,0.1,0,0.1,0c0.3,0,4.5,0,10,0c5.8,0,10-0.7,10-7.1
						C100.9,917.2,92.1,906.4,80.9,906.4z"/>
				</g>
				<path class="st3" d="M345.8,907.9l-23-20.7c-0.5-0.4-1.2-0.1-1.2,0.5v41.4c0,0.6,0.7,0.9,1.2,0.5l23-20.7
					C346.1,908.7,346.1,908.2,345.8,907.9z"/>
			</g>
		</g>
		<g>
			<g>
				
					<text transform="matrix(1 0 0 1 -627.6367 723.8242)" class="st3" style="font-family:'SantanderHeadline-Regular'; font-size:40.8158px;">Agente J</text>
				<g>
					<circle class="st18" cx="-675.2" cy="711" r="32.6"/>
					<g>
						<g>
							<path d="M-682.1,695.7c0.1-0.9,0.9-1.7,1.8-1.7h2.6c1,0,1.8,0.8,1.9,1.8h1.9c0.1-1,0.9-1.8,1.9-1.8h2.6
								c0.9,0,1.6,0.7,1.8,1.6l1.6-0.3c-1-4.2-4.8-7.4-9.3-7.4c-4.5,0-8.3,3.2-9.3,7.4L-682.1,695.7z"/>
							<path d="M-667.4,697.1v0.2c0,1.1-0.9,1.9-1.9,1.9h-2.6c-1,0-1.8-0.8-1.9-1.8h-1.9c-0.1,1-0.9,1.8-1.9,1.8h-2.6
								c-1.1,0-1.9-0.9-1.9-1.9v0l-2.5-0.4c0,0.2-0.1,0.4-0.1,0.6c0,5.3,4.3,9.6,9.6,9.6c5.3,0,9.6-4.3,9.6-9.6c0-0.2,0-0.4-0.1-0.6
								L-667.4,697.1z"/>
						</g>
						<path d="M-675.2,709.2L-675.2,709.2C-675.2,709.2-675.2,709.2-675.2,709.2C-675.3,709.2-675.3,709.2-675.2,709.2L-675.2,709.2
							c-9.7,0.1-17.2,9.3-17.2,14.7c0,5.5,3.6,6,8.6,6c4.7,0,8.3,0,8.6,0c0,0,0.1,0,0.1,0c0.3,0,3.8,0,8.6,0c4.9,0,8.6-0.6,8.6-6
							C-658.1,718.5-665.6,709.3-675.2,709.2z"/>
					</g>
				</g>
			</g>
			<g>
				<g>
					<polygon class="st3" points="-702,886.5 -686.5,886.5 -702.3,870.7 					"/>
					<path class="st2" d="M-696,881c4.3-5.2,10.8-8.5,18-8.5c12.9,0,23.3,10.5,23.3,23.3s-10.5,23.3-23.3,23.3
						c-12.3,0-22.4-9.5-23.3-21.6c0-0.6-0.1-1.2-0.1-1.8"/>
					<polyline class="st2" points="-678,885 -678,895.8 -668.1,905.7 					"/>
				</g>
				
					<text transform="matrix(1 0 0 1 -627.6367 908.3242)" class="st3" style="font-family:'SantanderHeadline-Regular'; font-size:40.8158px;">Recuerdos</text>
			</g>
			<g>
				<g>
					<g>
						<circle class="st3" cx="-686.3" cy="782.9" r="9.7"/>
						<path class="st3" d="M-686.3,797.8L-686.3,797.8C-686.3,797.8-686.3,797.8-686.3,797.8c-0.1,0-0.1,0-0.1,0v0
							c-10.7,0.1-19.2,10.4-19.2,16.5c0,6.1,4.1,6.8,9.6,6.8c5.3,0,9.3,0,9.6,0c0,0,0.1,0,0.1,0c0.3,0,4.3,0,9.6,0
							c5.5,0,9.6-0.6,9.6-6.8C-667.1,808.2-675.6,797.9-686.3,797.8z"/>
					</g>
					<g>
						<circle class="st3" cx="-665.5" cy="787.6" r="7.3"/>
						<path class="st3" d="M-662.7,814.3c0-4.4-3-10-7.7-14.4c1.6-0.6,3.2-1.1,5-1.1v0c0,0,0,0,0,0c0,0,0,0,0,0v0
							c8.1,0.1,14.4,7.8,14.4,12.4c0,4.6-3.1,5.1-7.2,5.1c-1.9,0-3.5,0-4.8,0C-662.9,815.7-662.7,815.1-662.7,814.3z"/>
					</g>
				</g>
				
					<text transform="matrix(1 0 0 1 -627.6367 816.3164)" class="st3" style="font-family:'SantanderHeadline-Regular'; font-size:40.8158px;">Amigos</text>
			</g>
			<g>
				<path class="st3" d="M-675.7,1012.5l11.8,6.4c1.5,0.8,3.2-0.3,3.2-1.9v-47.8c0-1.6-1.3-3-3-3h-27.7c-1.6,0-3,1.3-3,3v47.8
					c0,1.7,1.8,2.7,3.2,1.9l11.8-6.4C-678.2,1011.9-676.9,1011.9-675.7,1012.5z"/>
				
					<text transform="matrix(1 0 0 1 -627.6367 1003.7148)" class="st3" style="font-family:'SantanderHeadline-Regular'; font-size:40.8158px;">Guardado</text>
			</g>
			<g>
				
					<text transform="matrix(1 0 0 1 -627.6367 1103.0469)" class="st3" style="font-family:'SantanderHeadline-Regular'; font-size:40.8158px;">Ver ms</text>
				<g>
					<circle class="st6" cx="-677.1" cy="1091.5" r="33"/>
					<polyline class="st5" points="-700,1085.7 -677.1,1103.1 -654.3,1085.7 					"/>
				</g>
			</g>
		</g>
		<line class="st1" x1="-707.8" y1="1191.5" x2="-160.4" y2="1191.5"/>
		<g>
			
				<text transform="matrix(1 0 0 1 -710.1133 1262.1797)" class="st3" style="font-family:'SantanderHeadline-Regular'; font-size:40.8158px;">Tus accesos directos</text>
			<g>
				<path class="st3" d="M-646.5,1378.4h-61.2c-1.3,0-2.4-1.1-2.4-2.4v-61.2c0-1.3,1.1-2.4,2.4-2.4h61.2c1.3,0,2.4,1.1,2.4,2.4v61.2
					C-644.1,1377.3-645.2,1378.4-646.5,1378.4z"/>
				
					<text transform="matrix(1 0 0 1 -620.0859 1358.2422)" class="st3" style="font-family:'SantanderHeadline-Regular'; font-size:40.8158px;">Amigos Universidad</text>
			</g>
			<g>
				<path class="st3" d="M-646.5,1472.8h-61.2c-1.3,0-2.4-1.1-2.4-2.4v-61.2c0-1.3,1.1-2.4,2.4-2.4h61.2c1.3,0,2.4,1.1,2.4,2.4v61.2
					C-644.1,1471.7-645.2,1472.8-646.5,1472.8z"/>
				
					<text transform="matrix(1 0 0 1 -620.0859 1452.5977)" class="st3" style="font-family:'SantanderHeadline-Regular'; font-size:40.8158px;">Familia</text>
			</g>
			<g>
				<path class="st3" d="M-646.5,1567.1h-61.2c-1.3,0-2.4-1.1-2.4-2.4v-61.2c0-1.3,1.1-2.4,2.4-2.4h61.2c1.3,0,2.4,1.1,2.4,2.4v61.2
					C-644.1,1566-645.2,1567.1-646.5,1567.1z"/>
				
					<text transform="matrix(1 0 0 1 -620.0859 1546.9492)" class="st3" style="font-family:'SantanderHeadline-Regular'; font-size:40.8158px;">Club</text>
			</g>
			<g>
				<path class="st3" d="M-646.5,1661.5h-61.2c-1.3,0-2.4-1.1-2.4-2.4v-61.2c0-1.3,1.1-2.4,2.4-2.4h61.2c1.3,0,2.4,1.1,2.4,2.4v61.2
					C-644.1,1660.4-645.2,1661.5-646.5,1661.5z"/>
				
					<text transform="matrix(1 0 0 1 -620.0859 1641.2969)" class="st3" style="font-family:'SantanderHeadline-Regular'; font-size:40.8158px;">Galactic Bowl</text>
			</g>
			<g>
				<path class="st3" d="M-646.5,1755.8h-61.2c-1.3,0-2.4-1.1-2.4-2.4v-61.2c0-1.3,1.1-2.4,2.4-2.4h61.2c1.3,0,2.4,1.1,2.4,2.4v61.2
					C-644.1,1754.7-645.2,1755.8-646.5,1755.8z"/>
				
					<text transform="matrix(1 0 0 1 -620.0859 1735.6484)" class="st3" style="font-family:'SantanderHeadline-Regular'; font-size:40.8158px;">Vacaciones Intergalcticas</text>
			</g>
			<g>
				<path class="st3" d="M-646.5,1850.2h-61.2c-1.3,0-2.4-1.1-2.4-2.4v-61.2c0-1.3,1.1-2.4,2.4-2.4h61.2c1.3,0,2.4,1.1,2.4,2.4v61.2
					C-644.1,1849.1-645.2,1850.2-646.5,1850.2z"/>
				
					<text transform="matrix(1 0 0 1 -620.0859 1830.0039)" class="st3" style="font-family:'SantanderHeadline-Regular'; font-size:40.8158px;">Renta Casas en Saturno</text>
			</g>
		</g>
		
			<text transform="matrix(1 0 0 1 1285.2148 700.7891)" class="st3" style="font-family:'SantanderHeadline-Regular'; font-size:40.8158px;">Publicidad</text>
		
			<text transform="matrix(1 0 0 1 1285.2148 1311.1367)" class="st3" style="font-family:'SantanderHeadline-Regular'; font-size:40.8158px;">Contactos</text>
		<g>
			<path class="st3" d="M1499.3,959.1h-209.3c-2.6,0-4.7-2.1-4.7-4.7V745c0-2.6,2.1-4.7,4.7-4.7h209.3c2.6,0,4.7,2.1,4.7,4.7v209.3
				C1504,957,1501.9,959.1,1499.3,959.1z"/>
			
				<text transform="matrix(1 0 0 1 1532.2031 869.5117)" class="st3" style="font-family:'SantanderHeadline-Regular'; font-size:40.8158px;">Mercado</text>
		</g>
		<g>
			<path class="st3" d="M1499.3,1207.1h-209.3c-2.6,0-4.7-2.1-4.7-4.7V993c0-2.6,2.1-4.7,4.7-4.7h209.3c2.6,0,4.7,2.1,4.7,4.7v209.3
				C1504,1204.9,1501.9,1207.1,1499.3,1207.1z"/>
			
				<text transform="matrix(1 0 0 1 1532.2031 1117.5078)" class="st3" style="font-family:'SantanderHeadline-Regular'; font-size:40.8158px;">Super Mercado</text>
		</g>
		<g>
			<circle class="st2" cx="1744" cy="1293.3" r="17"/>
			<g>
				<path class="st3" d="M1766,1318.2c-1-0.9-1.9-1.9-2.8-2.9l-2.7-3c-0.9-1-1.8-2-2.6-3.1c-0.9-1-1.7-2.1-2.6-3.1
					c-0.4-0.4-0.3-1.1,0.1-1.4c0.4-0.3,0.9-0.3,1.3,0c1,0.9,2.1,1.7,3.1,2.6c1,0.9,2.1,1.7,3.1,2.6l3,2.7c1,0.9,2,1.8,2.9,2.8
					c0.7,0.9,0.6,2.1-0.3,2.8C1767.8,1318.8,1766.8,1318.8,1766,1318.2z"/>
			</g>
		</g>
		
			<text transform="matrix(1 0 0 1 1801.2148 1293.3438)" class="st3" style="font-family:'MyriadPro-Regular'; font-size:60.1012px;">...</text>
		<g>
			
				<text transform="matrix(1 0 0 1 1359.7344 1387.1133)" class="st3" style="font-family:'SantanderHeadline-Regular'; font-size:40.8158px;">Agente A</text>
			<g>
				<circle class="st18" cx="1312.1" cy="1374.3" r="32.6"/>
				<g>
					<g>
						<path d="M1305.2,1359c0.1-0.9,0.9-1.7,1.8-1.7h2.6c1,0,1.8,0.8,1.9,1.8h1.9c0.1-1,0.9-1.8,1.9-1.8h2.6c0.9,0,1.6,0.7,1.8,1.6
							l1.6-0.3c-1-4.2-4.8-7.4-9.3-7.4c-4.5,0-8.3,3.2-9.3,7.4L1305.2,1359z"/>
						<path d="M1319.9,1360.4v0.2c0,1.1-0.9,1.9-1.9,1.9h-2.6c-1,0-1.8-0.8-1.9-1.8h-1.9c-0.1,1-0.9,1.8-1.9,1.8h-2.6
							c-1.1,0-1.9-0.9-1.9-1.9v0l-2.5-0.4c0,0.2-0.1,0.4-0.1,0.6c0,5.3,4.3,9.6,9.6,9.6c5.3,0,9.6-4.3,9.6-9.6c0-0.2,0-0.4-0.1-0.6
							L1319.9,1360.4z"/>
					</g>
					<path d="M1312.2,1372.5L1312.2,1372.5C1312.2,1372.5,1312.1,1372.5,1312.2,1372.5C1312.1,1372.5,1312.1,1372.5,1312.2,1372.5
						L1312.2,1372.5c-9.7,0.1-17.2,9.3-17.2,14.7c0,5.5,3.6,6,8.6,6c4.7,0,8.3,0,8.6,0c0,0,0.1,0,0.1,0c0.3,0,3.8,0,8.6,0
						c4.9,0,8.6-0.6,8.6-6C1329.3,1381.8,1321.8,1372.6,1312.2,1372.5z"/>
				</g>
			</g>
		</g>
		<g>
			
				<text transform="matrix(1 0 0 1 1359.7344 1482.2734)" class="st3" style="font-family:'SantanderHeadline-Regular'; font-size:40.8158px;">Agente B</text>
			<g>
				<circle class="st18" cx="1312.1" cy="1469.5" r="32.6"/>
				<g>
					<g>
						<path d="M1305.2,1454.1c0.1-0.9,0.9-1.7,1.8-1.7h2.6c1,0,1.8,0.8,1.9,1.8h1.9c0.1-1,0.9-1.8,1.9-1.8h2.6
							c0.9,0,1.6,0.7,1.8,1.6l1.6-0.3c-1-4.2-4.8-7.4-9.3-7.4c-4.5,0-8.3,3.2-9.3,7.4L1305.2,1454.1z"/>
						<path d="M1319.9,1455.5v0.2c0,1.1-0.9,1.9-1.9,1.9h-2.6c-1,0-1.8-0.8-1.9-1.8h-1.9c-0.1,1-0.9,1.8-1.9,1.8h-2.6
							c-1.1,0-1.9-0.9-1.9-1.9v0l-2.5-0.4c0,0.2-0.1,0.4-0.1,0.6c0,5.3,4.3,9.6,9.6,9.6c5.3,0,9.6-4.3,9.6-9.6c0-0.2,0-0.4-0.1-0.6
							L1319.9,1455.5z"/>
					</g>
					<path d="M1312.2,1467.7L1312.2,1467.7C1312.2,1467.7,1312.1,1467.7,1312.2,1467.7C1312.1,1467.7,1312.1,1467.7,1312.2,1467.7
						L1312.2,1467.7c-9.7,0.1-17.2,9.3-17.2,14.7c0,5.5,3.6,6,8.6,6c4.7,0,8.3,0,8.6,0c0,0,0.1,0,0.1,0c0.3,0,3.8,0,8.6,0
						c4.9,0,8.6-0.6,8.6-6C1329.3,1476.9,1321.8,1467.7,1312.2,1467.7z"/>
				</g>
			</g>
		</g>
		<g>
			
				<text transform="matrix(1 0 0 1 1359.7344 1577.4336)" class="st3" style="font-family:'SantanderHeadline-Regular'; font-size:40.8158px;">Agente C</text>
			<g>
				<circle class="st18" cx="1312.1" cy="1564.6" r="32.6"/>
				<g>
					<g>
						<path d="M1305.2,1549.3c0.1-0.9,0.9-1.7,1.8-1.7h2.6c1,0,1.8,0.8,1.9,1.8h1.9c0.1-1,0.9-1.8,1.9-1.8h2.6
							c0.9,0,1.6,0.7,1.8,1.6l1.6-0.3c-1-4.2-4.8-7.4-9.3-7.4c-4.5,0-8.3,3.2-9.3,7.4L1305.2,1549.3z"/>
						<path d="M1319.9,1550.7v0.2c0,1.1-0.9,1.9-1.9,1.9h-2.6c-1,0-1.8-0.8-1.9-1.8h-1.9c-0.1,1-0.9,1.8-1.9,1.8h-2.6
							c-1.1,0-1.9-0.9-1.9-1.9v0l-2.5-0.4c0,0.2-0.1,0.4-0.1,0.6c0,5.3,4.3,9.6,9.6,9.6c5.3,0,9.6-4.3,9.6-9.6c0-0.2,0-0.4-0.1-0.6
							L1319.9,1550.7z"/>
					</g>
					<path d="M1312.2,1562.8L1312.2,1562.8C1312.2,1562.8,1312.1,1562.8,1312.2,1562.8C1312.1,1562.8,1312.1,1562.8,1312.2,1562.8
						L1312.2,1562.8c-9.7,0.1-17.2,9.3-17.2,14.7c0,5.5,3.6,6,8.6,6c4.7,0,8.3,0,8.6,0c0,0,0.1,0,0.1,0c0.3,0,3.8,0,8.6,0
						c4.9,0,8.6-0.6,8.6-6C1329.3,1572.1,1321.8,1562.9,1312.2,1562.8z"/>
				</g>
			</g>
		</g>
		<g>
			
				<text transform="matrix(1 0 0 1 1359.7344 1672.5859)" class="st3" style="font-family:'SantanderHeadline-Regular'; font-size:40.8158px;">Agente D</text>
			<g>
				<circle class="st18" cx="1312.1" cy="1659.8" r="32.6"/>
				<g>
					<g>
						<path d="M1305.2,1644.4c0.1-0.9,0.9-1.7,1.8-1.7h2.6c1,0,1.8,0.8,1.9,1.8h1.9c0.1-1,0.9-1.8,1.9-1.8h2.6
							c0.9,0,1.6,0.7,1.8,1.6l1.6-0.3c-1-4.2-4.8-7.4-9.3-7.4c-4.5,0-8.3,3.2-9.3,7.4L1305.2,1644.4z"/>
						<path d="M1319.9,1645.8v0.2c0,1.1-0.9,1.9-1.9,1.9h-2.6c-1,0-1.8-0.8-1.9-1.8h-1.9c-0.1,1-0.9,1.8-1.9,1.8h-2.6
							c-1.1,0-1.9-0.9-1.9-1.9v0l-2.5-0.4c0,0.2-0.1,0.4-0.1,0.6c0,5.3,4.3,9.6,9.6,9.6c5.3,0,9.6-4.3,9.6-9.6c0-0.2,0-0.4-0.1-0.6
							L1319.9,1645.8z"/>
					</g>
					<path d="M1312.2,1658L1312.2,1658C1312.2,1658,1312.1,1658,1312.2,1658C1312.1,1658,1312.1,1658,1312.2,1658L1312.2,1658
						c-9.7,0.1-17.2,9.3-17.2,14.7c0,5.5,3.6,6,8.6,6c4.7,0,8.3,0,8.6,0c0,0,0.1,0,0.1,0c0.3,0,3.8,0,8.6,0c4.9,0,8.6-0.6,8.6-6
						C1329.3,1667.3,1321.8,1658.1,1312.2,1658z"/>
				</g>
			</g>
		</g>
		<g>
			
				<text transform="matrix(1 0 0 1 1359.7344 1767.7461)" class="st3" style="font-family:'SantanderHeadline-Regular'; font-size:40.8158px;">Agente E</text>
			<g>
				<circle class="st18" cx="1312.1" cy="1754.9" r="32.6"/>
				<g>
					<g>
						<path d="M1305.2,1739.6c0.1-0.9,0.9-1.7,1.8-1.7h2.6c1,0,1.8,0.8,1.9,1.8h1.9c0.1-1,0.9-1.8,1.9-1.8h2.6
							c0.9,0,1.6,0.7,1.8,1.6l1.6-0.3c-1-4.2-4.8-7.4-9.3-7.4c-4.5,0-8.3,3.2-9.3,7.4L1305.2,1739.6z"/>
						<path d="M1319.9,1741v0.2c0,1.1-0.9,1.9-1.9,1.9h-2.6c-1,0-1.8-0.8-1.9-1.8h-1.9c-0.1,1-0.9,1.8-1.9,1.8h-2.6
							c-1.1,0-1.9-0.9-1.9-1.9v0l-2.5-0.4c0,0.2-0.1,0.4-0.1,0.6c0,5.3,4.3,9.6,9.6,9.6c5.3,0,9.6-4.3,9.6-9.6c0-0.2,0-0.4-0.1-0.6
							L1319.9,1741z"/>
					</g>
					<path d="M1312.2,1753.2L1312.2,1753.2C1312.2,1753.1,1312.1,1753.1,1312.2,1753.2C1312.1,1753.1,1312.1,1753.1,1312.2,1753.2
						L1312.2,1753.2c-9.7,0.1-17.2,9.3-17.2,14.7c0,5.5,3.6,6,8.6,6c4.7,0,8.3,0,8.6,0c0,0,0.1,0,0.1,0c0.3,0,3.8,0,8.6,0
						c4.9,0,8.6-0.6,8.6-6C1329.3,1762.4,1321.8,1753.2,1312.2,1753.2z"/>
				</g>
			</g>
		</g>
		<g>
			
				<text transform="matrix(1 0 0 1 1359.7344 1862.918)" class="st3" style="font-family:'SantanderHeadline-Regular'; font-size:40.8158px;">Agente F</text>
			<g>
				<circle class="st18" cx="1312.1" cy="1850.1" r="32.6"/>
				<g>
					<g>
						<path d="M1305.2,1834.8c0.1-0.9,0.9-1.7,1.8-1.7h2.6c1,0,1.8,0.8,1.9,1.8h1.9c0.1-1,0.9-1.8,1.9-1.8h2.6
							c0.9,0,1.6,0.7,1.8,1.6l1.6-0.3c-1-4.2-4.8-7.4-9.3-7.4c-4.5,0-8.3,3.2-9.3,7.4L1305.2,1834.8z"/>
						<path d="M1319.9,1836.2v0.2c0,1.1-0.9,1.9-1.9,1.9h-2.6c-1,0-1.8-0.8-1.9-1.8h-1.9c-0.1,1-0.9,1.8-1.9,1.8h-2.6
							c-1.1,0-1.9-0.9-1.9-1.9v0l-2.5-0.4c0,0.2-0.1,0.4-0.1,0.6c0,5.3,4.3,9.6,9.6,9.6c5.3,0,9.6-4.3,9.6-9.6c0-0.2,0-0.4-0.1-0.6
							L1319.9,1836.2z"/>
					</g>
					<path d="M1312.2,1848.3L1312.2,1848.3C1312.2,1848.3,1312.1,1848.3,1312.2,1848.3C1312.1,1848.3,1312.1,1848.3,1312.2,1848.3
						L1312.2,1848.3c-9.7,0.1-17.2,9.3-17.2,14.7c0,5.5,3.6,6,8.6,6c4.7,0,8.3,0,8.6,0c0,0,0.1,0,0.1,0c0.3,0,3.8,0,8.6,0
						c4.9,0,8.6-0.6,8.6-6C1329.3,1857.6,1321.8,1848.4,1312.2,1848.3z"/>
				</g>
			</g>
		</g>
		<line class="st1" x1="1285.2" y1="1248.1" x2="1832.7" y2="1248.1"/>
	</g>
	<use xlink:href="#SVGID_1_"  style="overflow:visible;fill:none;stroke:#231F20;stroke-width:1.7177;stroke-miterlimit:10;"/>
</g>
</svg>
