<?xml version="1.0" encoding="utf-8"?>
<!-- Generator: Adobe Illustrator 24.0.0, SVG Export Plug-In . SVG Version: 6.00 Build 0)  -->
<svg version="1.1" id="Layer_1" xmlns="http://www.w3.org/2000/svg" xmlns:xlink="http://www.w3.org/1999/xlink" x="0px" y="0px"
	 viewBox="0 0 1125 2436" style="enable-background:new 0 0 1125 2436;" xml:space="preserve">
<style type="text/css">
	.st0{clip-path:url(#SVGID_2_);}
	.st1{clip-path:url(#SVGID_5_);}
	.st2{fill:#FFFFFF;stroke:#231F20;stroke-width:4;stroke-miterlimit:10;}
	.st3{enable-background:new    ;}
	.st4{fill:none;stroke:#231F20;stroke-width:4;stroke-miterlimit:10;}
	.st5{stroke:#231F20;stroke-width:4;stroke-miterlimit:10;}
	.st6{stroke:#FFFFFF;stroke-width:1.2414;stroke-miterlimit:10;}
	.st7{fill:none;stroke:#ED1C24;stroke-width:4;stroke-linecap:round;stroke-linejoin:round;stroke-miterlimit:10;}
</style>
<g>
	<defs>
		<rect id="SVGID_1_" y="0" width="1125" height="2436"/>
	</defs>
	<clipPath id="SVGID_2_">
		<use xlink:href="#SVGID_1_"  style="overflow:visible;"/>
	</clipPath>
	<g class="st0">
		<g>
			<g>
				<rect id="SVGID_3_" y="0" width="1138.1" height="2456.2"/>
			</g>
			<g>
				<defs>
					<rect id="SVGID_4_" y="0" width="1138.1" height="2456.2"/>
				</defs>
				<clipPath id="SVGID_5_">
					<use xlink:href="#SVGID_4_"  style="overflow:visible;"/>
				</clipPath>
				<g class="st1">
					<g>
						<g>
							
								<rect x="-83.5" y="816.8" transform="matrix(0.2563 -0.9666 0.9666 0.2563 -840.2955 1210.2515)" class="st2" width="899.6" height="668.8"/>
							<g class="st3">
								<path d="M263.4,757.9c-2.7-2.8-4.4-6.2-5.1-10.2c-0.7-4-0.4-8.4,0.8-13.2c1.3-4.8,3.2-8.7,5.8-11.8c2.6-3.1,5.7-5.2,9.4-6.2
									c3.6-1.1,7.6-1,11.9,0.1c4.2,1.1,7.3,2.6,9.5,4.4c-0.7,2.6-1.7,4.9-3,6.9c-2.2-1.7-4.8-2.9-7.8-3.7c-2.6-0.7-5-0.6-7.2,0.1
									c-2.3,0.8-4.2,2.2-5.9,4.4c-1.7,2.2-3,4.9-3.9,8.4c-0.9,3.5-1.1,6.6-0.7,9.3c0.5,2.7,1.6,5,3.3,6.8c1.7,1.8,4,3.1,6.8,3.8
									c3.1,0.8,6.1,1,9.1,0.5c-0.8,2.3-1.9,4.7-3.3,7.3c-2.8,0.3-5.7,0-8.8-0.8C269.7,762.7,266.1,760.7,263.4,757.9z"/>
								<path d="M296.6,766.8c-2.5-2.7-4.1-6-4.7-10c-0.6-3.9-0.3-8.4,1-13.2c1.3-4.9,3.2-8.9,5.7-12c2.5-3.1,5.5-5.2,9.1-6.3
									c3.5-1.1,7.4-1.1,11.7,0.1c4.3,1.1,7.8,3.1,10.3,5.8c2.5,2.7,4.1,6,4.7,10c0.6,3.9,0.3,8.4-1,13.2c-1.3,4.9-3.2,9-5.7,12.1
									c-2.5,3.1-5.5,5.2-9.1,6.3c-3.5,1.1-7.4,1-11.7-0.1C302.6,771.4,299.2,769.5,296.6,766.8z M324.8,752
									c1.4-5.3,1.5-9.6,0.3-12.9c-1.2-3.3-3.7-5.4-7.5-6.5c-3.8-1-7.1-0.4-9.7,1.8c-2.7,2.2-4.7,6-6.2,11.4
									c-1.4,5.3-1.5,9.7-0.3,12.9c1.2,3.3,3.8,5.5,7.6,6.5C316.6,767.3,321.9,762.9,324.8,752z"/>
								<path d="M376,741.2c1.5,0.2,3,0.5,4.5,0.9l-12.1,45.6l-7.5-2l-9.1-30.1c-0.7-2.6-1.2-4.5-1.5-6c-0.7,3.1-2,8-3.8,14.7
									l-4.3,16.4l-8-2.1l11.8-44.5c1.3,0,2.7,0.1,4.2,0.2c1.5,0.2,2.8,0.4,4.1,0.8l8.3,28.1c0.6,2,1.2,4.6,1.8,7.7
									c1.1-5.3,2.5-10.8,4-16.7l3.5-13.3C373.1,741,374.5,741,376,741.2z"/>
								<path d="M396.1,754.6l-3.1,11.6l15.8,4.2c-1.1,3.3-2,5.6-2.7,7l-15-4l-5,18.9l-8.5-2.2l11.9-45l26.2,7
									c-0.4,1.2-0.8,2.4-1.3,3.7s-0.9,2.4-1.4,3.3L396.1,754.6z"/>
								<path d="M421.4,754.1c1.2,0,2.6,0.1,4.2,0.3c1.6,0.2,3.2,0.5,4.5,0.9l-12.1,45.6l-8.5-2.2L421.4,754.1z"/>
								<path d="M467.8,771.3c2.5,5.1,2.8,11.2,0.9,18.4c-2,7.4-5.3,12.5-10.1,15.5c-4.8,3-10.8,3.5-18.1,1.6l-13.3-3.5l11.9-44.9
									c3.8,0.2,8.3,0.9,13.4,2.3C460.3,762.7,465.4,766.2,467.8,771.3z M453.7,798.4c2.8-2,4.8-5.7,6.3-11
									c1.4-5.2,1.4-9.5-0.1-12.8c-1.4-3.3-4.5-5.5-9.1-6.7c-1.7-0.5-3.3-0.8-4.8-1l-8.3,31.4l4.9,1.3
									C447.2,800.8,450.9,800.4,453.7,798.4z"/>
								<path d="M479.6,809.5l18.6,4.9c-0.3,1-0.7,2.2-1.2,3.6c-0.5,1.4-1,2.5-1.5,3.4l-26.3-7l11.9-45l27.2,7.2
									c-0.4,1.2-0.8,2.4-1.3,3.7c-0.5,1.3-0.9,2.4-1.4,3.3l-18-4.8l-3,11.4l16.7,4.4c-0.3,1-0.7,2.2-1.2,3.6
									c-0.5,1.4-1,2.5-1.5,3.4l-16-4.2L479.6,809.5z"/>
								<path d="M544.9,786c1.5,0.2,3,0.5,4.5,0.9l-12.1,45.6l-7.5-2l-9.1-30.1c-0.7-2.6-1.2-4.5-1.5-6c-0.7,3.1-2,8-3.8,14.7
									l-4.3,16.4l-8-2.1l11.8-44.5c1.3,0,2.7,0.1,4.2,0.2c1.5,0.2,2.8,0.4,4.1,0.8l8.3,28.1c0.6,2,1.2,4.6,1.8,7.7
									c1.1-5.3,2.5-10.8,4-16.7l3.5-13.3C542,785.7,543.3,785.8,544.9,786z"/>
								<path d="M554.1,835c-2.7-2.8-4.4-6.2-5.1-10.2c-0.7-4-0.4-8.4,0.8-13.2c1.3-4.8,3.2-8.7,5.8-11.8c2.6-3.1,5.7-5.2,9.4-6.2
									c3.6-1.1,7.6-1,11.9,0.1c4.2,1.1,7.3,2.6,9.5,4.4c-0.7,2.6-1.7,4.9-3,6.9c-2.2-1.7-4.8-2.9-7.8-3.7c-2.6-0.7-5-0.6-7.2,0.1
									c-2.3,0.8-4.2,2.2-5.9,4.4c-1.7,2.2-3,4.9-3.9,8.4c-0.9,3.5-1.1,6.6-0.7,9.3c0.5,2.7,1.6,5,3.3,6.8c1.7,1.8,4,3.1,6.8,3.8
									c3.1,0.8,6.1,1,9.1,0.5c-0.8,2.3-2,4.7-3.3,7.3c-2.8,0.3-5.7,0-8.8-0.8C560.4,839.8,556.8,837.8,554.1,835z"/>
								<path d="M593,799.6c1.2,0,2.6,0.1,4.2,0.3c1.6,0.2,3.2,0.5,4.5,0.9l-12.1,45.6l-8.5-2.2L593,799.6z"/>
								<path d="M624.3,846.1l-16.7-4.4l-5,8.1l-8.3-2.2l25.9-40.7c1.2,0,2.9,0.2,4.9,0.5c2,0.4,4,0.8,6,1.3l2.3,49.2l-8.9-2.4
									L624.3,846.1z M624.2,838.5l-0.4-23.3l-12.3,20L624.2,838.5z"/>
								<path d="M649.8,814.7c1.2,0,2.6,0.1,4.2,0.3c1.6,0.2,3.2,0.5,4.5,0.9l-10.1,38.2l16.1,4.3c-0.3,1-0.7,2.2-1.2,3.6
									c-0.5,1.4-1,2.6-1.5,3.5l-23.9-6.3L649.8,814.7z"/>
							</g>
							<line class="st4" x1="266.5" y1="696.9" x2="677" y2="805.7"/>
							<line class="st4" x1="247.4" y1="768.8" x2="657.9" y2="877.6"/>
						</g>
						<g>
							<line class="st4" x1="158.6" y1="771.6" x2="735" y2="924.5"/>
							<line class="st4" x1="151.1" y1="799.6" x2="727.6" y2="952.4"/>
							<line class="st4" x1="143.7" y1="827.6" x2="720.2" y2="980.4"/>
							<line class="st4" x1="136.3" y1="855.6" x2="712.8" y2="1008.4"/>
							<line class="st4" x1="128.9" y1="883.6" x2="705.3" y2="1036.4"/>
							<line class="st4" x1="121.5" y1="911.6" x2="697.9" y2="1064.4"/>
							<line class="st4" x1="114" y1="939.6" x2="690.5" y2="1092.4"/>
							<line class="st4" x1="106.6" y1="967.5" x2="683.1" y2="1120.4"/>
							<line class="st4" x1="99.2" y1="995.5" x2="675.7" y2="1148.4"/>
							<line class="st4" x1="91.8" y1="1023.5" x2="668.2" y2="1176.3"/>
							<line class="st4" x1="84.4" y1="1051.5" x2="660.8" y2="1204.3"/>
							<line class="st4" x1="76.9" y1="1079.5" x2="653.4" y2="1232.3"/>
							<line class="st4" x1="69.5" y1="1107.5" x2="646" y2="1260.3"/>
							<line class="st4" x1="62.1" y1="1135.5" x2="638.6" y2="1288.3"/>
							<line class="st4" x1="54.7" y1="1163.4" x2="631.1" y2="1316.3"/>
							<line class="st4" x1="47.3" y1="1191.4" x2="623.7" y2="1344.3"/>
							<line class="st4" x1="39.8" y1="1219.4" x2="616.3" y2="1372.2"/>
							<line class="st4" x1="32.4" y1="1247.4" x2="608.9" y2="1400.2"/>
							<line class="st4" x1="25" y1="1275.4" x2="601.5" y2="1428.2"/>
							<line class="st4" x1="17.6" y1="1303.4" x2="594" y2="1456.2"/>
							<line class="st4" x1="10.2" y1="1331.4" x2="586.6" y2="1484.2"/>
							<line class="st4" x1="2.7" y1="1359.4" x2="579.2" y2="1512.2"/>
							<line class="st4" x1="-4.7" y1="1387.3" x2="571.8" y2="1540.2"/>
							<line class="st4" x1="-12.1" y1="1415.3" x2="564.4" y2="1568.2"/>
							<line class="st4" x1="-19.5" y1="1443.3" x2="556.9" y2="1596.1"/>
						</g>
					</g>
					<g>
						<rect x="319.2" y="943" class="st2" width="668.8" height="899.6"/>
						<g>
							<line class="st4" x1="381.8" y1="1079.3" x2="663.3" y2="1079.3"/>
							<line class="st4" x1="381.8" y1="1108.2" x2="663.3" y2="1108.2"/>
							<line class="st4" x1="381.8" y1="1137.2" x2="663.3" y2="1137.2"/>
							<line class="st4" x1="381.8" y1="1166.1" x2="663.3" y2="1166.1"/>
							<line class="st4" x1="381.8" y1="1224" x2="852.4" y2="1224"/>
							<line class="st4" x1="381.8" y1="1253" x2="852.4" y2="1253"/>
							<line class="st4" x1="381.8" y1="1281.9" x2="852.4" y2="1281.9"/>
							<line class="st4" x1="381.8" y1="1310.9" x2="852.4" y2="1310.9"/>
							<line class="st4" x1="381.8" y1="1339.8" x2="852.4" y2="1339.8"/>
							<line class="st4" x1="381.8" y1="1368.8" x2="852.4" y2="1368.8"/>
							<line class="st4" x1="381.8" y1="1397.7" x2="852.4" y2="1397.7"/>
							<line class="st4" x1="381.8" y1="1426.7" x2="852.4" y2="1426.7"/>
							<line class="st4" x1="381.8" y1="1455.6" x2="852.4" y2="1455.6"/>
							<line class="st4" x1="381.8" y1="1484.6" x2="852.4" y2="1484.6"/>
							<line class="st4" x1="381.8" y1="1513.6" x2="852.4" y2="1513.6"/>
							<line class="st4" x1="381.8" y1="1542.5" x2="852.4" y2="1542.5"/>
							<line class="st4" x1="381.8" y1="1571.5" x2="852.4" y2="1571.5"/>
							<line class="st4" x1="381.8" y1="1600.4" x2="852.4" y2="1600.4"/>
							<line class="st4" x1="381.8" y1="1629.4" x2="852.4" y2="1629.4"/>
							<line class="st4" x1="381.8" y1="1658.3" x2="852.4" y2="1658.3"/>
							<line class="st4" x1="381.8" y1="1687.3" x2="852.4" y2="1687.3"/>
							<line class="st4" x1="381.8" y1="1716.2" x2="852.4" y2="1716.2"/>
							<line class="st4" x1="381.8" y1="1745.2" x2="852.4" y2="1745.2"/>
							<line class="st4" x1="871" y1="1224" x2="938.1" y2="1224"/>
							<line class="st4" x1="871" y1="1253" x2="938.1" y2="1253"/>
							<line class="st4" x1="871" y1="1281.9" x2="938.1" y2="1281.9"/>
							<line class="st4" x1="871" y1="1310.9" x2="938.1" y2="1310.9"/>
							<line class="st4" x1="871" y1="1339.8" x2="938.1" y2="1339.8"/>
							<line class="st4" x1="871" y1="1368.8" x2="938.1" y2="1368.8"/>
							<line class="st4" x1="871" y1="1397.7" x2="938.1" y2="1397.7"/>
							<line class="st4" x1="871" y1="1426.7" x2="938.1" y2="1426.7"/>
							<line class="st4" x1="871" y1="1455.6" x2="938.1" y2="1455.6"/>
							<line class="st4" x1="871" y1="1484.6" x2="938.1" y2="1484.6"/>
							<line class="st4" x1="871" y1="1513.6" x2="938.1" y2="1513.6"/>
							<line class="st4" x1="871" y1="1542.5" x2="938.1" y2="1542.5"/>
							<line class="st4" x1="871" y1="1571.5" x2="938.1" y2="1571.5"/>
							<line class="st4" x1="871" y1="1600.4" x2="938.1" y2="1600.4"/>
							<line class="st4" x1="871" y1="1629.4" x2="938.1" y2="1629.4"/>
							<line class="st4" x1="871" y1="1658.3" x2="938.1" y2="1658.3"/>
							<line class="st4" x1="871" y1="1687.3" x2="938.1" y2="1687.3"/>
							<line class="st4" x1="871" y1="1716.2" x2="938.1" y2="1716.2"/>
							<line class="st4" x1="871" y1="1745.2" x2="938.1" y2="1745.2"/>
							<line class="st4" x1="871" y1="1774.1" x2="938.1" y2="1774.1"/>
						</g>
						<g class="st3">
							<path d="M385,1033.4h19.2c0,1.1-0.1,2.3-0.2,3.8c-0.1,1.5-0.3,2.7-0.5,3.7h-27.3v-46.6h28.1c0,1.2-0.1,2.5-0.3,3.9
								c-0.1,1.4-0.3,2.6-0.5,3.5H385v11.8h17.3c0,1.1-0.1,2.3-0.2,3.8c-0.1,1.4-0.3,2.6-0.5,3.6H385V1033.4z"/>
							<path d="M414.3,1041.3c-2.2-0.5-4.1-1.2-5.6-2.1c0.1-1.5,0.2-2.8,0.3-4c0.1-1.1,0.4-2.3,0.7-3.4c1.6,0.9,3.4,1.7,5.5,2.2
								c2,0.5,4,0.7,6.1,0.7c2.7,0,4.8-0.5,6.3-1.5c1.5-1,2.2-2.5,2.2-4.4c0-1.3-0.3-2.5-1-3.4c-0.7-0.9-1.5-1.7-2.5-2.3
								c-1-0.6-2.3-1.2-3.9-1.8l-4-1.5c-6.6-2.6-9.9-7.1-9.9-13.5c0-4,1.4-7.2,4.1-9.6c2.7-2.3,6.9-3.5,12.4-3.5
								c4.5,0,8.5,0.7,12,2.1c-0.1,1.3-0.2,2.5-0.4,3.5c-0.2,1-0.4,2.2-0.7,3.6c-1.7-0.6-3.5-1.1-5.4-1.4c-1.8-0.3-3.5-0.5-5.1-0.5
								c-2.8,0-4.8,0.5-6.1,1.5c-1.3,1-1.9,2.4-1.9,4.1c0,1.8,0.6,3.3,1.7,4.4c1.2,1.1,2.7,2,4.6,2.7l4,1.5c7.3,2.7,11,7.3,11,13.7
								c0,2.7-0.7,5.1-2,7.2c-1.3,2.1-3.3,3.7-5.9,4.9c-2.6,1.2-5.8,1.8-9.6,1.8C418.8,1042,416.5,1041.7,414.3,1041.3z"/>
							<path d="M474.3,998.1c-0.1,1.5-0.3,2.7-0.5,3.7h-12v39H453v-39h-12.8c0-1.2,0.1-2.5,0.3-3.9c0.2-1.5,0.3-2.7,0.5-3.6h33.5
								C474.5,995.3,474.4,996.6,474.3,998.1z"/>
							<path d="M499.1,1031.7h-17.3l-2.8,9.2h-8.6l14.6-46c1.2-0.3,2.8-0.6,4.9-0.7c2-0.2,4.1-0.3,6.2-0.3l14.8,47h-9.2
								L499.1,1031.7z M497,1024.4l-6.3-22.5l-6.7,22.5H497z"/>
							<path d="M546.6,999.5c3.7,4.3,5.6,10.1,5.6,17.6c0,7.6-1.9,13.5-5.8,17.6s-9.5,6.2-17.1,6.2h-13.7v-46.5
								c3.7-0.8,8.2-1.2,13.5-1.2C537.1,993.1,542.9,995.3,546.6,999.5z M539.9,1029.3c2.2-2.6,3.2-6.7,3.2-12.2
								c0-5.4-1.1-9.5-3.3-12.3s-5.7-4.2-10.5-4.2c-1.8,0-3.4,0.1-4.8,0.3v32.4h5.1C534.3,1033.3,537.7,1032,539.9,1029.3z"/>
							<path d="M565.9,1039c-3.1-2-5.5-4.8-7.1-8.4c-1.6-3.7-2.4-8-2.4-13c0-5.1,0.8-9.4,2.5-13.1c1.6-3.7,4-6.5,7.2-8.4
								c3.1-2,6.9-2.9,11.4-2.9c4.5,0,8.3,1,11.4,3c3.1,2,5.5,4.8,7.1,8.4s2.4,8,2.4,13c0,5.1-0.8,9.5-2.5,13.2
								c-1.6,3.7-4,6.4-7.2,8.4c-3.1,1.9-6.9,2.9-11.3,2.9C572.9,1042,569.1,1041,565.9,1039z M589.3,1017.6c0-5.5-1-9.7-3-12.6
								c-2-2.9-5-4.3-8.9-4.3c-3.9,0-6.9,1.4-9,4.3c-2,2.8-3,7.1-3,12.6c0,5.5,1,9.7,3.1,12.6c2,2.9,5,4.3,9,4.3
								C585.4,1034.4,589.3,1028.8,589.3,1017.6z"/>
							<path d="M649.7,999.5c3.7,4.3,5.6,10.1,5.6,17.6c0,7.6-1.9,13.5-5.8,17.6c-3.8,4.1-9.5,6.2-17.1,6.2h-13.7v-46.5
								c3.7-0.8,8.2-1.2,13.5-1.2C640.1,993.1,646,995.3,649.7,999.5z M642.9,1029.3c2.2-2.6,3.2-6.7,3.2-12.2
								c0-5.4-1.1-9.5-3.3-12.3s-5.7-4.2-10.5-4.2c-1.8,0-3.4,0.1-4.8,0.3v32.4h5.1C637.3,1033.3,640.7,1032,642.9,1029.3z"/>
							<path d="M670.8,1033.4h19.2c0,1.1-0.1,2.3-0.2,3.8c-0.1,1.5-0.3,2.7-0.5,3.7h-27.3v-46.6h28.1c0,1.2-0.1,2.5-0.3,3.9
								s-0.3,2.6-0.5,3.5h-18.6v11.8h17.3c0,1.1-0.1,2.3-0.2,3.8s-0.3,2.6-0.5,3.6h-16.6V1033.4z"/>
							<path d="M717.9,1039c-3.3-2-5.8-4.9-7.5-8.6c-1.7-3.7-2.6-8-2.6-13s0.9-9.2,2.6-12.9c1.7-3.7,4.2-6.5,7.5-8.4
								c3.3-2,7.1-3,11.5-3c4.3,0,7.7,0.6,10.3,1.8c0,2.7-0.4,5.2-1.1,7.4c-2.6-1.1-5.4-1.6-8.5-1.6c-2.6,0-5,0.7-7,2
								c-2,1.3-3.5,3.2-4.6,5.8c-1.1,2.5-1.6,5.5-1.6,9.1c0,3.6,0.6,6.7,1.7,9.2c1.2,2.5,2.8,4.5,4.9,5.8c2.1,1.3,4.6,2,7.5,2
								c3.2,0,6.1-0.6,8.9-1.9c-0.2,2.4-0.7,5.1-1.3,7.9c-2.6,1-5.5,1.5-8.7,1.5C725.2,1042,721.2,1041,717.9,1039z"/>
							<path d="M753.7,1040c-2.6-1.3-4.7-3.2-6.1-5.7c-1.4-2.5-2.2-5.4-2.2-8.7v-30.8c1.2-0.4,2.6-0.6,4.2-0.8
								c1.6-0.2,3.1-0.3,4.6-0.3v31.7c0,3,0.8,5.3,2.4,6.8c1.6,1.5,3.8,2.3,6.7,2.3c2.8,0,5-0.8,6.6-2.3c1.6-1.5,2.4-3.8,2.4-6.9
								v-30.5c1.1-0.3,2.5-0.6,4.1-0.8c1.6-0.2,3.2-0.3,4.6-0.3v32c0,3.3-0.7,6.2-2.2,8.7c-1.5,2.5-3.5,4.4-6.2,5.7
								c-2.7,1.3-5.8,2-9.4,2C759.5,1042,756.4,1041.3,753.7,1040z"/>
							<path d="M798.3,1033.4h19.2c0,1.1-0.1,2.3-0.2,3.8c-0.1,1.5-0.3,2.7-0.5,3.7h-27.3v-46.6h28.1c0,1.2-0.1,2.5-0.3,3.9
								s-0.3,2.6-0.5,3.5h-18.6v11.8h17.3c0,1.1-0.1,2.3-0.2,3.8s-0.3,2.6-0.5,3.6h-16.6V1033.4z"/>
							<path d="M855.4,994c1.5-0.2,3-0.3,4.6-0.3v47.2h-7.8l-16.6-26.8c-1.3-2.3-2.3-4.1-3-5.4c0.1,3.2,0.1,8.3,0.1,15.2v17h-8.3
								v-46c1.3-0.4,2.6-0.6,4.1-0.8c1.5-0.2,2.8-0.3,4.1-0.3l15.3,25c1.1,1.8,2.3,4.1,3.8,7c-0.3-5.4-0.4-11.1-0.4-17.2v-13.7
								C852.5,994.5,853.9,994.2,855.4,994z"/>
							<path d="M899.1,998.1c-0.1,1.5-0.3,2.7-0.5,3.7h-12v39h-8.7v-39h-12.8c0-1.2,0.1-2.5,0.3-3.9c0.2-1.5,0.3-2.7,0.5-3.6h33.5
								C899.4,995.3,899.3,996.6,899.1,998.1z"/>
							<path d="M924,1031.7h-17.3l-2.8,9.2h-8.6l14.6-46c1.2-0.3,2.8-0.6,4.9-0.7c2-0.2,4.1-0.3,6.2-0.3l14.8,47h-9.2L924,1031.7z
								 M921.9,1024.4l-6.3-22.5l-6.7,22.5H921.9z"/>
						</g>
					</g>
					<g>
						<path class="st2" d="M400.8-562.3L-673.9,60.2c-4.6,2.7-6.1,8.5-3.5,13.1L-257.1,799c2.7,4.6,8.5,6.1,13.1,3.5L830.7,180
							c4.6-2.7,6.1-8.5,3.5-13.1L413.9-558.8C411.2-563.4,405.4-564.9,400.8-562.3z"/>
						<g>
							<path d="M405.3-262.8L359.1-236c-0.7,0.4-1.7,0.2-2.1-0.6l-26.7-46.2c-0.4-0.7-0.2-1.7,0.6-2.1l46.2-26.7
								c0.7-0.4,1.7-0.2,2.1,0.6l26.7,46.2C406.3-264.1,406-263.2,405.3-262.8z"/>
							<path d="M435.9-209.4l-29.6,17.1c-0.9,0.5-2,0.2-2.5-0.7l-57.3-98.9c-0.5-0.9-0.2-2,0.7-2.5l29.6-17.1c0.9-0.5,2-0.2,2.5,0.7
								l57.3,98.9C437-211,436.7-209.9,435.9-209.4z"/>
						</g>
						<path class="st5" d="M345.6,444.3L226,513.6c-6.3,3.6-8.4,11.7-4.8,18l0.6,1l142.4-82.5l-0.6-1
							C360,442.8,351.9,440.7,345.6,444.3z"/>
						<path class="st4" d="M419,348L106,529.3c-1.2,0.7-2.8,0.3-3.5-0.9L-28.1,302.9c-0.7-1.2-0.3-2.8,0.9-3.5l313-181.3
							c1.2-0.7,2.8-0.3,3.5,0.9l130.6,225.4C420.7,345.7,420.2,347.3,419,348z"/>
						<g>
							<path d="M-437.6,76l-48.4,28.1c-0.6,0.3-1.3,0.1-1.6-0.4l-14.5-25.1c-0.3-0.6-0.1-1.3,0.4-1.6l48.4-28.1
								c0.6-0.3,1.3-0.1,1.6,0.4l14.5,25.1C-436.9,75-437,75.7-437.6,76z"/>
							<path d="M-377.7,41.4l-48.4,28.1c-0.6,0.3-1.3,0.1-1.6-0.4L-442.2,44c-0.3-0.6-0.1-1.3,0.4-1.6l48.4-28.1
								c0.6-0.3,1.3-0.1,1.6,0.4l14.5,25.1C-377,40.3-377.2,41-377.7,41.4z"/>
							<path d="M-317.8,6.7l-48.4,28.1c-0.6,0.3-1.3,0.1-1.6-0.4l-14.5-25.1c-0.3-0.6-0.1-1.3,0.4-1.6l48.4-28.1
								c0.6-0.3,1.3-0.1,1.6,0.4l14.5,25.1C-317.1,5.7-317.3,6.4-317.8,6.7z"/>
							<path d="M-78.3-132l-48.4,28.1c-0.6,0.3-1.3,0.1-1.6-0.4l-14.5-25.1c-0.3-0.6-0.1-1.3,0.4-1.6l48.4-28.1
								c0.6-0.3,1.3-0.1,1.6,0.4l14.5,25.1C-77.6-133.1-77.8-132.4-78.3-132z"/>
							<path d="M-18.4-166.7l-48.4,28.1c-0.6,0.3-1.3,0.1-1.6-0.4L-83-164.2c-0.3-0.6-0.1-1.3,0.4-1.6l48.4-28.1
								c0.6-0.3,1.3-0.1,1.6,0.4l14.5,25.1C-17.7-167.8-17.9-167.1-18.4-166.7z"/>
							<path d="M41.4-201.4l-48.4,28c-0.6,0.3-1.3,0.1-1.6-0.4l-14.5-25.1c-0.3-0.6-0.1-1.3,0.4-1.6l48.4-28.1
								c0.6-0.3,1.3-0.1,1.6,0.4L41.9-203C42.2-202.4,42-201.7,41.4-201.4z"/>
							<path d="M-258-28l-48.4,28.1c-0.6,0.3-1.3,0.1-1.6-0.4l-14.5-25.1c-0.3-0.6-0.1-1.3,0.4-1.6l48.4-28.1
								c0.6-0.3,1.3-0.1,1.6,0.4l14.5,25.1C-257.2-29-257.4-28.3-258-28z"/>
							<path d="M-198.1-62.7l-48.4,28.1c-0.6,0.3-1.3,0.1-1.6-0.4l-14.5-25.1c-0.3-0.6-0.1-1.3,0.4-1.6l48.4-28.1
								c0.6-0.3,1.3-0.1,1.6,0.4l14.5,25.1C-197.3-63.7-197.5-63-198.1-62.7z"/>
							<path d="M-138.2-97.4l-48.4,28.1c-0.6,0.3-1.3,0.1-1.6-0.4l-14.5-25.1c-0.3-0.6-0.1-1.3,0.4-1.6l48.4-28.1
								c0.6-0.3,1.3-0.1,1.6,0.4l14.5,25.1C-137.5-98.4-137.6-97.7-138.2-97.4z"/>
							<path d="M101.3-236.1L52.9-208c-0.6,0.3-1.3,0.1-1.6-0.4l-14.5-25.1c-0.3-0.6-0.1-1.3,0.4-1.6l48.4-28.1
								c0.6-0.3,1.3-0.1,1.6,0.4l14.5,25.1C102.1-237.1,101.9-236.4,101.3-236.1z"/>
							<path d="M161.2-270.8l-48.4,28.1c-0.6,0.3-1.3,0.1-1.6-0.4l-14.5-25.1c-0.3-0.6-0.1-1.3,0.4-1.6l48.4-28.1
								c0.6-0.3,1.3-0.1,1.6,0.4l14.5,25.1C161.9-271.8,161.8-271.1,161.2-270.8z"/>
							<path d="M221.1-305.5l-48.4,28.1c-0.6,0.3-1.3,0.1-1.6-0.4l-14.5-25.1c-0.3-0.6-0.1-1.3,0.4-1.6l48.4-28.1
								c0.6-0.3,1.3-0.1,1.6,0.4l14.5,25.1C221.8-306.5,221.6-305.8,221.1-305.5z"/>
							<path d="M281-340.1L232.6-312c-0.6,0.3-1.3,0.1-1.6-0.4l-14.5-25.1c-0.3-0.6-0.1-1.3,0.4-1.6l48.4-28.1
								c0.6-0.3,1.3-0.1,1.6,0.4l14.5,25.1C281.7-341.2,281.5-340.5,281-340.1z"/>
							<path d="M340.8-374.8l-48.4,28.1c-0.6,0.3-1.3,0.1-1.6-0.4l-14.5-25.1c-0.3-0.6-0.1-1.3,0.4-1.6l48.4-28.1
								c0.6-0.3,1.3-0.1,1.6,0.4l14.5,25.1C341.6-375.9,341.4-375.1,340.8-374.8z"/>
						</g>
						<g>
							<path d="M-170.9,71l-46.2,26.7c-0.7,0.4-1.7,0.2-2.1-0.6L-245.9,51c-0.4-0.7-0.2-1.7,0.6-2.1l46.2-26.7
								c0.7-0.4,1.7-0.2,2.1,0.6l26.7,46.2C-170,69.6-170.2,70.6-170.9,71z"/>
							<path d="M-228.8,104.5l-46.2,26.7c-0.7,0.4-1.7,0.2-2.1-0.6l-26.7-46.2c-0.4-0.7-0.2-1.7,0.6-2.1l46.2-26.7
								c0.7-0.4,1.7-0.2,2.1,0.6l26.7,46.2C-227.8,103.1-228,104.1-228.8,104.5z"/>
							<path d="M-286.6,138l-46.2,26.7c-0.7,0.4-1.7,0.2-2.1-0.6l-26.7-46.2c-0.4-0.7-0.2-1.7,0.6-2.1l46.2-26.7
								c0.7-0.4,1.7-0.2,2.1,0.6l26.7,46.2C-285.6,136.6-285.9,137.6-286.6,138z"/>
							<path d="M-113.1,37.5l-46.2,26.7c-0.7,0.4-1.7,0.2-2.1-0.6l-26.7-46.2c-0.4-0.7-0.2-1.7,0.6-2.1l46.2-26.7
								c0.7-0.4,1.7-0.2,2.1,0.6l26.7,46.2C-112.1,36.1-112.4,37-113.1,37.5z"/>
							<path d="M2.6-29.5L-43.6-2.8c-0.7,0.4-1.7,0.2-2.1-0.6l-26.7-46.2c-0.4-0.7-0.2-1.7,0.6-2.1l46.2-26.7
								c0.7-0.4,1.7-0.2,2.1,0.6L3.2-31.6C3.6-30.9,3.3-30,2.6-29.5z"/>
							<path d="M-55.2,4l-46.2,26.7c-0.7,0.4-1.7,0.2-2.1-0.6L-130.2-16c-0.4-0.7-0.2-1.7,0.6-2.1l46.2-26.7
								c0.7-0.4,1.7-0.2,2.1,0.6L-54.6,2C-54.3,2.6-54.5,3.5-55.2,4z"/>
							<path d="M60.5-63L14.3-36.3c-0.7,0.4-1.7,0.2-2.1-0.6L-14.5-83c-0.4-0.7-0.2-1.7,0.6-2.1l46.2-26.7c0.7-0.4,1.7-0.2,2.1,0.6
								L61-65.1C61.4-64.4,61.2-63.5,60.5-63z"/>
							<path d="M176.2-130.1L130-103.3c-0.7,0.4-1.7,0.2-2.1-0.6L101.1-150c-0.4-0.7-0.2-1.7,0.6-2.1l46.2-26.7
								c0.7-0.4,1.7-0.2,2.1,0.6l26.7,46.2C177.1-131.4,176.9-130.5,176.2-130.1z"/>
							<path d="M118.3-96.6L72.1-69.8c-0.7,0.4-1.7,0.2-2.1-0.6l-26.7-46.2c-0.4-0.7-0.2-1.7,0.6-2.1L90-145.4
								c0.7-0.4,1.7-0.2,2.1,0.6l26.7,46.2C119.3-97.9,119-97,118.3-96.6z"/>
							<path d="M234-163.6l-46.2,26.7c-0.7,0.4-1.7,0.2-2.1-0.6L159-183.6c-0.4-0.7-0.2-1.7,0.6-2.1l46.2-26.7
								c0.7-0.4,1.7-0.2,2.1,0.6l26.7,46.2C235-164.9,234.7-164,234-163.6z"/>
							<path d="M349.7-230.6l-46.2,26.7c-0.7,0.4-1.7,0.2-2.1-0.6l-26.7-46.2c-0.4-0.7-0.2-1.7,0.6-2.1l46.2-26.7
								c0.7-0.4,1.7-0.2,2.1,0.6l26.7,46.2C350.7-231.9,350.4-231,349.7-230.6z"/>
							<path d="M291.9-197.1l-46.2,26.7c-0.7,0.4-1.7,0.2-2.1-0.6l-26.7-46.2c-0.4-0.7-0.2-1.7,0.6-2.1l46.2-26.7
								c0.7-0.4,1.7-0.2,2.1,0.6l26.7,46.2C292.8-198.4,292.6-197.5,291.9-197.1z"/>
						</g>
						<g>
							<path d="M-125.4,115.7l-46.2,26.7c-0.7,0.4-1.7,0.2-2.1-0.6l-26.7-46.2c-0.4-0.7-0.2-1.7,0.6-2.1l46.2-26.7
								c0.7-0.4,1.7-0.2,2.1,0.6l26.7,46.2C-124.4,114.3-124.7,115.2-125.4,115.7z"/>
							<path d="M-183.2,149.2l-46.2,26.7c-0.7,0.4-1.7,0.2-2.1-0.6l-26.7-46.2c-0.4-0.7-0.2-1.7,0.6-2.1l46.2-26.7
								c0.7-0.4,1.7-0.2,2.1,0.6l26.7,46.2C-182.3,147.8-182.5,148.7-183.2,149.2z"/>
							<path d="M-241.1,182.7l-46.2,26.7c-0.7,0.4-1.7,0.2-2.1-0.6l-26.7-46.2c-0.4-0.7-0.2-1.7,0.6-2.1l46.2-26.7
								c0.7-0.4,1.7-0.2,2.1,0.6l26.7,46.2C-240.1,181.3-240.4,182.2-241.1,182.7z"/>
							<path d="M-67.6,82.2l-46.2,26.7c-0.7,0.4-1.7,0.2-2.1-0.6l-26.7-46.2c-0.4-0.7-0.2-1.7,0.6-2.1l46.2-26.7
								c0.7-0.4,1.7-0.2,2.1,0.6L-67,80.1C-66.6,80.8-66.8,81.7-67.6,82.2z"/>
							<path d="M48.1,15.1L2,41.9c-0.7,0.4-1.7,0.2-2.1-0.6L-26.9-4.8c-0.4-0.7-0.2-1.7,0.6-2.1l46.2-26.7c0.7-0.4,1.7-0.2,2.1,0.6
								l26.7,46.2C49.1,13.8,48.9,14.7,48.1,15.1z"/>
							<path d="M-9.7,48.6l-46.2,26.7c-0.7,0.4-1.7,0.2-2.1-0.6l-26.7-46.2c-0.4-0.7-0.2-1.7,0.6-2.1L-38-0.2
								c0.7-0.4,1.7-0.2,2.1,0.6l26.7,46.2C-8.7,47.3-9,48.2-9.7,48.6z"/>
							<path d="M106-18.4L59.8,8.4c-0.7,0.4-1.7,0.2-2.1-0.6L31-38.4c-0.4-0.7-0.2-1.7,0.6-2.1l46.2-26.7c0.7-0.4,1.7-0.2,2.1,0.6
								l26.7,46.2C107-19.7,106.7-18.8,106-18.4z"/>
							<path d="M221.7-85.4l-46.2,26.7c-0.7,0.4-1.7,0.2-2.1-0.6l-26.7-46.2c-0.4-0.7-0.2-1.7,0.6-2.1l46.2-26.7
								c0.7-0.4,1.7-0.2,2.1,0.6l26.7,46.2C222.7-86.7,222.4-85.8,221.7-85.4z"/>
							<path d="M163.8-51.9l-46.2,26.7c-0.7,0.4-1.7,0.2-2.1-0.6L88.8-71.9c-0.4-0.7-0.2-1.7,0.6-2.1l46.2-26.7
								c0.7-0.4,1.7-0.2,2.1,0.6L164.4-54C164.8-53.2,164.6-52.3,163.8-51.9z"/>
							<path d="M279.5-118.9l-46.2,26.7c-0.7,0.4-1.7,0.2-2.1-0.6L204.5-139c-0.4-0.7-0.2-1.7,0.6-2.1l46.2-26.7
								c0.7-0.4,1.7-0.2,2.1,0.6l26.7,46.2C280.5-120.2,280.3-119.3,279.5-118.9z"/>
							<path d="M395.2-185.9L349-159.2c-0.7,0.4-1.7,0.2-2.1-0.6L320.2-206c-0.4-0.7-0.2-1.7,0.6-2.1l46.2-26.7
								c0.7-0.4,1.7-0.2,2.1,0.6l26.7,46.2C396.2-187.2,396-186.3,395.2-185.9z"/>
							<path d="M337.4-152.4l-46.2,26.7c-0.7,0.4-1.7,0.2-2.1-0.6l-26.7-46.2c-0.4-0.7-0.2-1.7,0.6-2.1l46.2-26.7
								c0.7-0.4,1.7-0.2,2.1,0.6l26.7,46.2C338.4-153.7,338.1-152.8,337.4-152.4z"/>
						</g>
						<g>
							<path d="M-120.9,189.7l-46.2,26.7c-0.7,0.4-1.7,0.2-2.1-0.6l-26.7-46.2c-0.4-0.7-0.2-1.7,0.6-2.1l46.2-26.7
								c0.7-0.4,1.7-0.2,2.1,0.6l26.7,46.2C-119.9,188.3-120.1,189.2-120.9,189.7z"/>
							<path d="M-178.7,223.2l-46.2,26.7c-0.7,0.4-1.7,0.2-2.1-0.6l-26.7-46.2c-0.4-0.7-0.2-1.7,0.6-2.1l46.2-26.7
								c0.7-0.4,1.7-0.2,2.1,0.6l26.7,46.2C-177.7,221.8-178,222.7-178.7,223.2z"/>
							<path d="M-236.6,256.7l-46.2,26.7c-0.7,0.4-1.7,0.2-2.1-0.6l-26.7-46.2c-0.4-0.7-0.2-1.7,0.6-2.1l46.2-26.7
								c0.7-0.4,1.7-0.2,2.1,0.6l26.7,46.2C-235.6,255.3-235.8,256.3-236.6,256.7z"/>
							<path d="M-63,156.2l-46.2,26.7c-0.7,0.4-1.7,0.2-2.1-0.6l-26.7-46.2c-0.4-0.7-0.2-1.7,0.6-2.1l46.2-26.7
								c0.7-0.4,1.7-0.2,2.1,0.6l26.7,46.2C-62,154.8-62.3,155.7-63,156.2z"/>
							<path d="M52.7,89.1L6.5,115.9c-0.7,0.4-1.7,0.2-2.1-0.6l-26.7-46.2c-0.4-0.7-0.2-1.7,0.6-2.1l46.2-26.7
								c0.7-0.4,1.7-0.2,2.1,0.6l26.7,46.2C53.7,87.8,53.4,88.7,52.7,89.1z"/>
							<path d="M-5.2,122.6l-46.2,26.7c-0.7,0.4-1.7,0.2-2.1-0.6l-26.7-46.2c-0.4-0.7-0.2-1.7,0.6-2.1l46.2-26.7
								c0.7-0.4,1.7-0.2,2.1,0.6l26.7,46.2C-4.2,121.3-4.4,122.2-5.2,122.6z"/>
							<path d="M110.5,55.6L64.3,82.4c-0.7,0.4-1.7,0.2-2.1-0.6L35.5,35.6c-0.4-0.7-0.2-1.7,0.6-2.1L82.2,6.8
								c0.7-0.4,1.7-0.2,2.1,0.6L111,53.6C111.5,54.3,111.3,55.2,110.5,55.6z"/>
							<path d="M226.2-11.4L180,15.4c-0.7,0.4-1.7,0.2-2.1-0.6l-26.7-46.2c-0.4-0.7-0.2-1.7,0.6-2.1L198-60.2
								c0.7-0.4,1.7-0.2,2.1,0.6l26.7,46.2C227.2-12.7,227-11.8,226.2-11.4z"/>
							<path d="M168.4,22.1l-46.2,26.7c-0.7,0.4-1.7,0.2-2.1-0.6L93.4,2.1C93,1.4,93.2,0.4,94,0l46.2-26.7c0.7-0.4,1.7-0.2,2.1,0.6
								L168.9,20C169.4,20.8,169.1,21.7,168.4,22.1z"/>
							<path d="M284.1-44.9l-46.2,26.7c-0.7,0.4-1.7,0.2-2.1-0.6L209.1-65c-0.4-0.7-0.2-1.7,0.6-2.1l46.2-26.7
								c0.7-0.4,1.7-0.2,2.1,0.6L284.6-47C285-46.2,284.8-45.3,284.1-44.9z"/>
							<path d="M468.6-151.8L354.3-85.6c-1.1,0.7-2.6,0.3-3.2-0.9l-25.9-44.7c-0.7-1.1-0.3-2.6,0.9-3.2l114.3-66.2
								c1.1-0.7,2.6-0.3,3.2,0.9l25.9,44.7C470.1-153.9,469.8-152.4,468.6-151.8z"/>
							<path d="M341.9-78.4l-46.2,26.7c-0.7,0.4-1.7,0.2-2.1-0.6l-26.7-46.2c-0.4-0.7-0.2-1.7,0.6-2.1l46.2-26.7
								c0.7-0.4,1.7-0.2,2.1,0.6l26.7,46.2C342.9-79.7,342.6-78.8,341.9-78.4z"/>
						</g>
						<g>
							<path d="M-159.2,294.5l-46.2,26.7c-0.7,0.4-1.7,0.2-2.1-0.6l-26.7-46.2c-0.4-0.7-0.2-1.7,0.6-2.1l46.2-26.7
								c0.7-0.4,1.7-0.2,2.1,0.6l26.7,46.2C-158.2,293.1-158.4,294-159.2,294.5z"/>
							<path d="M333.9,8.9l-46.2,26.7c-0.7,0.4-1.7,0.2-2.1-0.6l-26.7-46.2c-0.4-0.7-0.2-1.7,0.6-2.1L305.7-40
								c0.7-0.4,1.7-0.2,2.1,0.6l26.7,46.2C334.9,7.5,334.6,8.5,333.9,8.9z"/>
							<path d="M390.8-24.1l-46,26.7C344,3,343,2.8,342.6,2l-14.3-24.7c-0.4-0.8-0.2-1.8,0.6-2.2l46-26.7c0.8-0.4,1.8-0.2,2.2,0.6
								l14.3,24.7C391.8-25.5,391.6-24.5,390.8-24.1z"/>
							<path d="M505.1-90.3l-46,26.7c-0.8,0.4-1.8,0.2-2.2-0.6L442.5-89c-0.4-0.8-0.2-1.8,0.6-2.2l46-26.7c0.8-0.4,1.8-0.2,2.2,0.6
								l14.3,24.7C506.1-91.7,505.9-90.7,505.1-90.3z"/>
							<path d="M448.2-57.3L402-30.5c-0.7,0.4-1.6,0.2-2-0.5l-12.2-21c-0.4-0.7-0.2-1.6,0.5-2l46.2-26.8c0.7-0.4,1.6-0.2,2,0.5
								l12.2,21C449.1-58.6,448.9-57.7,448.2-57.3z"/>
							<path d="M432.4-84.5l-46.2,26.8c-0.7,0.4-1.6,0.2-2-0.5l-12.2-21c-0.4-0.7-0.2-1.6,0.5-2l46.2-26.8c0.7-0.4,1.6-0.2,2,0.5
								l12.2,21C433.4-85.8,433.1-84.9,432.4-84.5z"/>
							<path d="M-217,328l-46.2,26.7c-0.7,0.4-1.7,0.2-2.1-0.6L-292,308c-0.4-0.7-0.2-1.7,0.6-2.1l46.2-26.7
								c0.7-0.4,1.7-0.2,2.1,0.6l26.7,46.2C-216,326.6-216.3,327.5-217,328z"/>
							<path d="M-274.9,361.5l-46.2,26.7c-0.7,0.4-1.7,0.2-2.1-0.6l-26.7-46.2c-0.4-0.7-0.2-1.7,0.6-2.1l46.2-26.7
								c0.7-0.4,1.7-0.2,2.1,0.6l26.7,46.2C-273.9,360.1-274.1,361-274.9,361.5z"/>
							<path d="M-86.5,252.3l-60.8,35.2c-0.8,0.5-1.9,0.2-2.4-0.6l-26.5-45.8c-0.5-0.8-0.2-1.9,0.6-2.4l60.8-35.2
								c0.8-0.5,1.9-0.2,2.4,0.6l26.5,45.8C-85.4,250.8-85.6,251.9-86.5,252.3z"/>
							<path d="M274.6,43.2l-60.8,35.2c-0.8,0.5-1.9,0.2-2.4-0.6L184.9,32c-0.5-0.8-0.2-1.9,0.6-2.4l60.8-35.2
								c0.8-0.5,1.9-0.2,2.4,0.6l26.5,45.8C275.8,41.6,275.5,42.7,274.6,43.2z"/>
							<path d="M204.1,84.1L-73.3,244.7c-0.8,0.5-1.8,0.2-2.3-0.6l-26.6-45.9c-0.5-0.8-0.2-1.8,0.6-2.3L175.8,35.2
								c0.8-0.5,1.8-0.2,2.3,0.6l26.6,45.9C205.1,82.6,204.9,83.6,204.1,84.1z"/>
						</g>
						<path d="M-300.6,217.1l-89,51.6c-1,0.6-2.3,0.2-2.9-0.8l-26.2-45.2c-0.6-1-0.2-2.3,0.8-2.9l89-51.6c1-0.6,2.3-0.2,2.9,0.8
							l26.2,45.2C-299.2,215.3-299.6,216.5-300.6,217.1z"/>
						<g>
							<path d="M-407.1,133.1l-46.2,26.7c-0.7,0.4-1.7,0.2-2.1-0.6l-26.7-46.2c-0.4-0.7-0.2-1.7,0.6-2.1l46.2-26.7
								c0.7-0.4,1.7-0.2,2.1,0.6l26.7,46.2C-406.2,131.7-406.4,132.7-407.1,133.1z"/>
							<path d="M-291.5,66.1l-46.2,26.7c-0.7,0.4-1.7,0.2-2.1-0.6L-366.5,46c-0.4-0.7-0.2-1.7,0.6-2.1l46.2-26.7
								c0.7-0.4,1.7-0.2,2.1,0.6l26.7,46.2C-290.5,64.7-290.7,65.7-291.5,66.1z"/>
							<path d="M-349.3,99.6l-46.2,26.7c-0.7,0.4-1.7,0.2-2.1-0.6l-26.7-46.2c-0.4-0.7-0.2-1.7,0.6-2.1l46.2-26.7
								c0.7-0.4,1.7-0.2,2.1,0.6l26.7,46.2C-348.3,98.2-348.6,99.2-349.3,99.6z"/>
							<path d="M-233.6,32.6l-46.2,26.7c-0.7,0.4-1.7,0.2-2.1-0.6l-26.7-46.2c-0.4-0.7-0.2-1.7,0.6-2.1l46.2-26.7
								c0.7-0.4,1.7-0.2,2.1,0.6l26.7,46.2C-232.6,31.2-232.9,32.2-233.6,32.6z"/>
							<path d="M-117.9-34.4l-46.2,26.7c-0.7,0.4-1.7,0.2-2.1-0.6l-26.7-46.2c-0.4-0.7-0.2-1.7,0.6-2.1l46.2-26.7
								c0.7-0.4,1.7-0.2,2.1,0.6l26.7,46.2C-116.9-35.8-117.2-34.8-117.9-34.4z"/>
							<path d="M-175.8-0.9L-222,25.8c-0.7,0.4-1.7,0.2-2.1-0.6L-250.8-21c-0.4-0.7-0.2-1.7,0.6-2.1l46.2-26.7
								c0.7-0.4,1.7-0.2,2.1,0.6L-175.2-3C-174.8-2.3-175-1.3-175.8-0.9z"/>
							<path d="M-60.1-67.9l-46.2,26.7c-0.7,0.4-1.7,0.2-2.1-0.6L-135.1-88c-0.4-0.7-0.2-1.7,0.6-2.1l46.2-26.7
								c0.7-0.4,1.7-0.2,2.1,0.6L-59.5-70C-59.1-69.3-59.3-68.4-60.1-67.9z"/>
							<path d="M55.6-134.9L9.4-108.2c-0.7,0.4-1.7,0.2-2.1-0.6L-19.4-155c-0.4-0.7-0.2-1.7,0.6-2.1l46.2-26.7
								c0.7-0.4,1.7-0.2,2.1,0.6L56.2-137C56.6-136.3,56.4-135.4,55.6-134.9z"/>
							<path d="M-2.2-101.4l-46.2,26.7c-0.7,0.4-1.7,0.2-2.1-0.6l-26.7-46.2c-0.4-0.7-0.2-1.7,0.6-2.1l46.2-26.7
								c0.7-0.4,1.7-0.2,2.1,0.6l26.7,46.2C-1.2-102.8-1.5-101.9-2.2-101.4z"/>
							<path d="M113.5-168.4l-46.2,26.7c-0.7,0.4-1.7,0.2-2.1-0.6l-26.7-46.2c-0.4-0.7-0.2-1.7,0.6-2.1l46.2-26.7
								c0.7-0.4,1.7-0.2,2.1,0.6l26.7,46.2C114.4-169.8,114.2-168.9,113.5-168.4z"/>
							<path d="M229.2-235.4L183-208.7c-0.7,0.4-1.7,0.2-2.1-0.6l-26.7-46.2c-0.4-0.7-0.2-1.7,0.6-2.1l46.2-26.7
								c0.7-0.4,1.7-0.2,2.1,0.6l26.7,46.2C230.1-236.8,229.9-235.9,229.2-235.4z"/>
							<path d="M287-269l-46.2,26.7c-0.7,0.4-1.7,0.2-2.1-0.6l-26.7-46c-0.4-0.7-0.2-1.7,0.6-2.1l46.2-26.7c0.7-0.4,1.7-0.2,2.1,0.6
								l26.7,46.2C288-270.3,287.7-269.4,287-269z"/>
							<path d="M372.6-318.5l-72.4,41.9c-0.9,0.5-2.1,0.2-2.6-0.7l-26.4-45.5c-0.5-0.9-0.2-2.1,0.7-2.6l72.4-41.9
								c0.9-0.5,2.1-0.2,2.6,0.7l26.4,45.5C373.8-320.2,373.5-319,372.6-318.5z"/>
							<path d="M171.3-201.9l-46.2,26.7c-0.7,0.4-1.7,0.2-2.1-0.6L96.3-222c-0.4-0.7-0.2-1.7,0.6-2.1l46.2-26.7
								c0.7-0.4,1.7-0.2,2.1,0.6l26.7,46.2C172.3-203.3,172-202.4,171.3-201.9z"/>
						</g>
						<path d="M-345.3,172l-75.2,43.6c-0.9,0.5-2.1,0.2-2.6-0.7l-26.3-45.5c-0.5-0.9-0.2-2.1,0.7-2.6l75.2-43.6
							c0.9-0.5,2.1-0.2,2.6,0.7l26.3,45.5C-344.1,170.3-344.4,171.5-345.3,172z"/>
						<path d="M-296.7,291.5l-60,34.8c-0.8,0.5-1.9,0.2-2.4-0.6l-26.5-45.8c-0.5-0.8-0.2-1.9,0.6-2.4l60-34.8
							c0.8-0.5,1.9-0.2,2.4,0.6l26.5,45.8C-295.6,289.9-295.8,291-296.7,291.5z"/>
						
							<rect x="-621.6" y="-262.6" transform="matrix(0.8653 -0.5012 0.5012 0.8653 102.4011 -97.1806)" width="983.9" height="46.9"/>
						<path class="st6" d="M350.9-872.9c-13.8,8-424.9,246.1-597.7,346.2c0,0-29.1,16.9-75.3,43.6
							c-172.7,100-583.9,338.2-597.7,346.2c-17.5,10.1-32.8,26.5-16,38.6s214,132.8,234.6,145c20.6,12.2,24.8,3.7,34.3-1.8
							l487.2-282.2l75.3-43.6l487.2-282.2c9.6-5.6,19-5,18.7-28.9s-6.9-255-9-275.6C390.3-888.2,368.4-883,350.9-872.9z"/>
					</g>
					<g>
						<path class="st2" d="M986.6,245.5c0,0-78.3,42-85.9,46.8c-7.6,4.8-29.1,2.9-33.9-3.8c-4.8-6.7-11.5-20.1-14.8-28.2
							s-3.3-20.5,6.2-25.8s87.8-59.2,87.8-59.2L986.6,245.5z"/>
						<circle class="st2" cx="1105.7" cy="114.4" r="174"/>
						<circle class="st5" cx="1105.7" cy="114.4" r="148.1"/>
						<path class="st2" d="M967.2,219.8c0,0-79.3,54.1-87,59.5s-6.4,14.4,0,15"/>
					</g>
					<g>
						<path class="st2" d="M1140.7,2209.6L856.3,1967l-24.4-33.9l-14.3-19.9l57.6,28.2l283.2,244.4c0,0,1.5,5.4-6.1,15.6
							C1144.7,2211.7,1140.7,2209.6,1140.7,2209.6z"/>
						<polygon class="st5" points="841,1933.7 831.9,1933.1 817.6,1913.3 843.9,1926.2 						"/>
						<path class="st5" d="M856.3,1967c0,0,15.4,0.5,13.5-9.5c10.2-0.7,9.5-15.6,7.4-15.8"/>
					</g>
				</g>
			</g>
		</g>
		<g>
			<g>
				<polyline class="st7" points="826,648.9 1037,648.9 1037,860 				"/>
				<polyline class="st7" points="826,2016.6 1037,2016.6 1037,1805.6 				"/>
				<polyline class="st7" points="299.7,648.9 88.7,648.9 88.7,860 				"/>
				<polyline class="st7" points="299.7,2016.6 88.7,2016.6 88.7,1805.6 				"/>
				<rect x="382.8" y="1073.2" class="st7" width="360.1" height="519.3"/>
			</g>
			<g>
				<path class="st7" d="M186.4,560.5h-10.5c-3.9,0-7.1-2.9-7.6-6.7l-0.5-3.8c-0.4-3.2-3.2-5.8-6.3-5.8h-31.4
					c-3.1,0-5.9,2.5-6.3,5.8l-0.5,3.8c-0.5,3.8-3.7,6.7-7.6,6.7h-10.5c-5.5,0-10,4.5-10,10v39.3c0,5.5,4.5,10,10,10h81.3
					c5.5,0,10-4.5,10-10v-39.3C196.4,565,192,560.5,186.4,560.5z"/>
				
					<ellipse transform="matrix(3.327791e-02 -0.9994 0.9994 3.327791e-02 -446.256 715.438)" class="st7" cx="146.7" cy="588.4" rx="19.6" ry="19.6"/>
			</g>
		</g>
	</g>
</g>
</svg>
