<?xml version="1.0" encoding="utf-8"?>
<!-- Generator: Adobe Illustrator 24.0.0, SVG Export Plug-In . SVG Version: 6.00 Build 0)  -->
<svg version="1.1" id="Layer_1" xmlns="http://www.w3.org/2000/svg" xmlns:xlink="http://www.w3.org/1999/xlink" x="0px" y="0px"
	 viewBox="0 0 1200 900" style="enable-background:new 0 0 1200 900;" xml:space="preserve">
<style type="text/css">
	.st0{clip-path:url(#SVGID_6_);}
	.st1{stroke:#FFFFFF;stroke-width:1.1908;stroke-miterlimit:10;}
	.st2{fill:none;stroke:#FFFFFF;stroke-width:1.1056;stroke-miterlimit:10;}
	.st3{stroke:#FFFFFF;stroke-width:1.1056;stroke-miterlimit:10;}
	.st4{fill:none;stroke:#FFFFFF;stroke-width:0.5528;stroke-miterlimit:10;}
	.st5{fill:none;stroke:#FFFFFF;stroke-width:0.5861;stroke-miterlimit:10;}
	.st6{fill:none;stroke:#FFFFFF;stroke-width:0.8287;stroke-miterlimit:10;}
	.st7{fill:#FFFFFF;}
	.st8{fill:#BCBEC0;}
	.st9{fill:none;stroke:#FFFFFF;stroke-width:1.1056;stroke-linecap:round;stroke-linejoin:round;stroke-miterlimit:10;}
	.st10{fill:#6D6E71;}
	.st11{fill:#FFFFFF;stroke:#000000;stroke-width:1.1994;stroke-miterlimit:10;}
	.st12{clip-path:url(#SVGID_8_);}
	.st13{clip-path:url(#SVGID_10_);}
	.st14{fill:#FFFFFF;stroke:#000000;stroke-width:0.7193;stroke-miterlimit:10;}
	.st15{font-family:'SantanderHeadline-Bold';}
	.st16{font-size:26.4897px;}
	.st17{fill:none;stroke:#000000;stroke-width:0.7193;stroke-miterlimit:10;}
	.st18{font-size:26.4894px;}
	.st19{fill:#FFFFFF;stroke:#000000;stroke-width:0.4275;stroke-miterlimit:10;}
	.st20{stroke:#000000;stroke-width:0.4275;stroke-miterlimit:10;}
	.st21{fill:none;stroke:#000000;stroke-width:0.4275;stroke-miterlimit:10;}
	.st22{stroke:#FFFFFF;stroke-width:0.8089;stroke-miterlimit:10;}
	.st23{fill:#FFFFFF;stroke:#000000;stroke-width:1.4049;stroke-miterlimit:10;}
	.st24{stroke:#000000;stroke-width:1.4049;stroke-miterlimit:10;}
	.st25{fill:none;stroke:#000000;stroke-width:1.4049;stroke-miterlimit:10;}
	.st26{fill:#FFFFFF;stroke:#000000;stroke-width:1.7201;stroke-miterlimit:10;}
	.st27{font-family:'SantanderHeadline-Regular';}
	.st28{font-size:33.8695px;}
	.st29{fill:#FFFFFF;stroke:#231F20;stroke-width:1.4693;stroke-miterlimit:10;}
	.st30{fill:#231F20;}
	.st31{fill:none;stroke:#FFFFFF;stroke-width:1.2149;stroke-miterlimit:10;}
	.st32{fill:#FFFFFF;stroke:#000000;stroke-width:1.4693;stroke-miterlimit:10;}
	.st33{opacity:0.7;enable-background:new    ;}
	.st34{fill:#F1F2F2;}
	.st35{fill:#ED1C24;}
</style>
<g>
	<defs>
		<rect id="SVGID_4_" width="1200" height="900"/>
	</defs>
	<clipPath id="SVGID_6_">
		<use xlink:href="#SVGID_4_"  style="overflow:visible;"/>
	</clipPath>
	<g class="st0">
		<g>
			<g>
				<polygon class="st1" points="1566,996 -282.7,996 -390.6,-61.8 1458.1,-61.8 				"/>
				<g>
					<g>
						<polygon class="st2" points="972.8,-67.1 972.8,-86.3 953.2,-86.3 953.2,-76.4 962.5,-76.4 962.5,-67.1 						"/>
						<rect x="944.4" y="-95.5" class="st2" width="28.4" height="28.4"/>
					</g>
					<rect x="-390.6" y="-117.8" class="st3" width="1848.8" height="74.6"/>
					<circle class="st4" cx="801.2" cy="-80.8" r="16.6"/>
					<path class="st5" d="M-93.3-53.5h-95.3c-4.1,0-7.4-3.3-7.4-7.4v-38.7c0-4.1,3.3-7.4,7.4-7.4h95.3c4.1,0,7.4,3.3,7.4,7.4v38.7
						C-85.8-56.7-89.2-53.5-93.3-53.5z"/>
					<g>
						<circle class="st6" cx="-170.9" cy="-83.7" r="12.1"/>
						<g>
							<path class="st7" d="M-154.7-66.6c-1.4-1.3-2.7-2.7-4-4.1c-1.3-1.4-2.6-2.7-3.9-4.3c-0.2-0.2-0.1-0.4,0-0.5
								c0.2-0.1,0.4-0.1,0.5,0c1.4,1.2,2.8,2.6,4.3,3.9c1.4,1.3,2.8,2.6,4.1,4c0.3,0.3,0.3,0.7,0,1.1
								C-154-66.3-154.5-66.3-154.7-66.6z"/>
						</g>
					</g>
					<text transform="matrix(1 0 0 1 -140.6699 -72.4638)" class="st7 st15" style="font-size:30.0931px;">Buscar en feisbu</text>
					<path class="st8" d="M342.9-83.1l-14.5-13.2c-0.5-0.5-1.2-0.8-2-0.8c-0.7,0-1.4,0.3-2,0.8l-14.5,13.2c-0.3,0.3-0.5,0.6-0.5,1.1
						c0,0.8,0.7,1.5,1.5,1.5c0.1,0,0.3,0,0.3,0h3.3V-68c0,1.3,1.1,2.4,2.4,2.4h4.3c1.3,0,2.4-1.1,2.4-2.4v-5.9
						c0-0.7,0.5-1.2,1.2-1.2h1.6h1.6c0.7,0,1.2,0.5,1.2,1.2v5.9c0,1.3,1.1,2.4,2.4,2.4h4.3c1.3,0,2.4-1.1,2.4-2.4v-12.5h3.3
						c0,0,0.2,0,0.3,0c0.8,0,1.5-0.7,1.5-1.5C343.4-82.5,343.1-82.8,342.9-83.1z"/>
					<g>
						<path class="st2" d="M497.3-70.4h-27.8c-0.9,0-1.5-0.7-1.5-1.5V-94c0-0.9,0.7-1.5,1.5-1.5h27.7c0.9,0,1.5,0.7,1.5,1.5v22.1
							C498.8-71.1,498.1-70.4,497.3-70.4z"/>
						<line class="st9" x1="475.5" y1="-65.7" x2="491.3" y2="-65.7"/>
					</g>
					<path class="st7" d="M489.3-83.4l-8.8-5.1c-0.4-0.2-0.8,0.1-0.8,0.4v10.2c0,0.4,0.4,0.6,0.8,0.4l8.8-5.1
						C489.7-82.7,489.7-83.3,489.3-83.4z"/>
					<g>
						<path class="st4" d="M632.1-95.5c-1.5,0-2.8,1-3.2,2.4l-2.8,10.5c0,1,0.8,1.8,1.8,1.8c1,0,1.8-0.8,1.8-1.8s0.8-1.8,1.8-1.8
							c1,0,1.8,0.8,1.8,1.8s0.8,1.8,1.8,1.8c1,0,1.8-0.8,1.8-1.8s0.8-1.8,1.8-1.8c1,0,1.8,0.8,1.8,1.8s0.8,1.8,1.8,1.8
							c1,0,1.8-0.8,1.8-1.8s0.8-1.8,1.8-1.8c1,0,1.8,0.8,1.8,1.8s0.8,1.8,1.8,1.8c1,0,1.8-0.8,1.8-1.8s0.8-1.8,1.8-1.8
							c1,0,1.8,0.8,1.8,1.8s0.8,1.8,1.8,1.8c1,0,1.8-0.8,1.8-1.8l-2.8-10.5c-0.4-1.4-1.7-2.4-3.2-2.4H632.1z"/>
						<line class="st4" x1="627.5" y1="-88.1" x2="656" y2="-88.1"/>
						<path class="st4" d="M652.4-84.3c-1,0-1.8,0.8-1.8,1.8s-0.8,1.8-1.8,1.8c-1,0-1.8-0.8-1.8-1.8s-0.8-1.8-1.8-1.8
							s-1.8,0.8-1.8,1.8s-0.8,1.8-1.8,1.8s-1.8-0.8-1.8-1.8s-0.8-1.8-1.8-1.8c-1,0-1.8,0.8-1.8,1.8s-0.8,1.8-1.8,1.8
							c-1,0-1.8-0.8-1.8-1.8s-0.8-1.8-1.8-1.8c-0.6,0-1.1,0.4-1.4,0.8v14.1c0,1.3,1.1,2.4,2.4,2.4h4.3c1.3,0,2.4-1.1,2.4-2.4v-5.9
							c0-0.7,0.5-1.2,1.2-1.2h1.6h1.6c0.7,0,1.2,0.5,1.2,1.2v5.9c0,1.3,1.1,2.4,2.4,2.4h4.3c1.3,0,2.4-1.1,2.4-2.4v-14.1
							C653.5-84.1,653-84.3,652.4-84.3z"/>
					</g>
					<g>
						<circle class="st7" cx="800.6" cy="-87.3" r="3.6"/>
						<path class="st7" d="M800.6-81.7L800.6-81.7L800.6-81.7L800.6-81.7L800.6-81.7c-4.1,0-7.2,3.9-7.2,6.2c0,2.3,1.5,2.6,3.5,2.6
							c2,0,3.5,0,3.5,0l0,0c0.1,0,1.6,0,3.5,0c2,0,3.5-0.3,3.5-2.6C807.8-77.8,804.6-81.7,800.6-81.7z"/>
					</g>
					<g>
						<circle class="st7" cx="808.4" cy="-85.6" r="2.7"/>
						<path class="st7" d="M809.4-75.5c0-1.7-1.1-3.7-2.9-5.4c0.6-0.3,1.2-0.4,1.9-0.4l0,0l0,0l0,0l0,0c3,0,5.4,2.9,5.4,4.6
							s-1.2,1.9-2.7,1.9c-0.7,0-1.3,0-1.8,0C809.3-75.1,809.4-75.3,809.4-75.5z"/>
					</g>
					<g>
						<circle class="st7" cx="792.9" cy="-85.6" r="2.7"/>
						<path class="st7" d="M792-75.5c0-1.7,1.1-3.7,2.9-5.4c-0.6-0.3-1.2-0.4-1.9-0.4l0,0l0,0l0,0l0,0c-3,0-5.4,2.9-5.4,4.6
							s1.2,1.9,2.7,1.9c0.7,0,1.3,0,1.8,0C792-75.1,792-75.3,792-75.5z"/>
					</g>
					<circle class="st10" cx="1329.8" cy="-80.7" r="26.1"/>
					<g>
						<line class="st9" x1="1329.6" y1="-89.3" x2="1329.6" y2="-72.1"/>
						<line class="st9" x1="1321.2" y1="-80.7" x2="1338.4" y2="-80.7"/>
					</g>
					<g>
						<circle class="st10" cx="1392.5" cy="-80.7" r="26.1"/>
						<path class="st7" d="M1392.5-92.8c-6.5,0-11.6,5.2-11.6,11.6c0,3.6,1.7,6.9,4.3,9l-0.3,0.8c-0.4,1.5,1.2,2.7,2.5,1.8l1.1-0.7
							c1.2,0.4,2.7,0.8,4.1,0.8c6.5,0,11.6-5.2,11.6-11.6C1404.2-87.6,1399-92.8,1392.5-92.8z M1394.5-77.5l-4.1-3.5l-4.7,3.5l5-6.6
							l4.7,3.3l3.6-4.6L1394.5-77.5z"/>
					</g>
					<g>
						<circle class="st10" cx="1455.2" cy="-80.7" r="26.1"/>
						<g>
							<path class="st7" d="M1461.8-81.7c0.2-2,2-9.2-6.3-10.2c-0.4-0.1-2.1,0.1-2.5,0.2c-8.1,2-5.4,8.9-5.1,10.9
								c0.4,2-2.2,4.1-1.9,5.6c0.3,1.3,2.6,1.7,9.1,0.9c6.7,0,8.9-0.6,9-2C1464.5-78,1461.6-79.7,1461.8-81.7z"/>
							<path class="st7" d="M1455.2-72.9c-0.9,0-3,0-5.9,0c0.5,3.4,2.2,3.5,4.2,3.5C1455.9-69.7,1455.2-72.9,1455.2-72.9z"/>
						</g>
					</g>
					<g>
						<circle class="st10" cx="1518" cy="-80.7" r="26.1"/>
						<path class="st7" d="M1518.6-72.7l8.2-11.6c0.4-0.4,0-1.1-0.5-1.1h-16.3c-0.5,0-0.9,0.6-0.5,1.1l8.2,11.6
							C1517.7-72.3,1518.3-72.3,1518.6-72.7z"/>
					</g>
					<rect x="255.9" y="-48.9" class="st8" width="140.7" height="5.8"/>
					<g>
						<circle class="st10" cx="-235.5" cy="-80.8" r="27.4"/>
						<g>
							<path class="st7" d="M-216.6-94.5c0.3,0.4,0.4,0.8,0.4,1.4c0,1.9-1,2.7-3,2.6l-1.4-0.1c-1.6-0.2-3.2-0.3-4.8-0.4
								c-1.6-0.1-3.3-0.1-5-0.1h-1.9c-0.4,4-0.7,7.7-1,11l7-0.1c1,0,1.7,0.2,2,0.5c0.4,0.4,0.5,0.8,0.5,1.4c0,0.9-0.3,1.7-0.8,2.2
								s-1.3,0.8-2.3,0.8h-6.9l-0.3,1.8c-0.5,4.4-1.8,7.6-3.6,9.6c-1.9,1.9-4.4,2.8-7.6,2.8c-1.9,0-3.5-0.4-5.1-1.2
								c-1.5-0.8-2.7-1.8-3.5-2.9c-0.3-0.4-0.4-1-0.4-1.7c0-0.6,0.2-1.2,0.4-1.7c0.4-0.5,0.7-0.7,1.2-0.7c0.4,0,0.6,0.1,1,0.4
								c0.3,0.2,0.7,0.6,1.2,1.2c1.3,1.7,2.9,2.6,4.9,2.6c1.5,0,2.8-0.6,3.9-1.9c1.1-1.2,1.7-3.3,2-5.9l0.3-2.2h-2
								c-0.6,0-1.2-0.2-1.6-0.5c-0.4-0.4-0.7-0.9-0.7-1.5c0-0.8,0.2-1.5,0.6-2s1.1-0.7,2-0.7c0.8,0,1.5,0,2.2,0
								c0.4-3,0.7-6.6,1.1-10.8c-2.9,0.3-5,0.7-6.2,1.4c-1.2,0.7-1.8,1.7-1.8,3c0,0.9,0.3,1.8,0.8,2.7c0.2,0.3,0.3,0.5,0.3,0.7
								c0,0.4-0.3,0.9-0.8,1.2c-0.5,0.4-1.2,0.5-1.9,0.5c-0.7,0-1.3-0.2-1.9-0.6c-0.4-0.3-0.6-0.8-1-1.7c-0.3-0.8-0.4-1.8-0.4-2.8
								c0-3.4,1.7-5.8,5.1-7.4c3.5-1.5,8.5-2.3,15.2-2.3c4.6,0,8.7,0.3,12.2,0.7C-217.4-95.1-216.8-94.9-216.6-94.5z"/>
						</g>
					</g>
					<g>
						<text transform="matrix(1 0 0 1 1285.9258 -71.5087)" class="st7 st27" style="font-size:23.6152px;">Agente J</text>
						<g>
							<circle class="st11" cx="1258.4" cy="-78.9" r="18.9"/>
							<g>
								<g>
									<path d="M1254.3-87.8c0.1-0.5,0.5-1,1.1-1h1.5c0.6,0,1.1,0.4,1.1,1.1h1.1c0-0.6,0.5-1.1,1.1-1.1h1.5c0.5,0,0.9,0.4,1.1,0.9
										l1-0.2c-0.5-2.5-2.7-4.3-5.4-4.3c-2.7,0-4.8,1.9-5.4,4.3L1254.3-87.8z"/>
									<path d="M1262.9-87L1262.9-87c0,0.7-0.5,1.2-1.2,1.2h-1.5c-0.6,0-1.1-0.4-1.1-1.1h-1.1c0,0.6-0.5,1.1-1.1,1.1h-1.5
										c-0.6,0-1.2-0.5-1.2-1.2l0,0l-1.4-0.3c0,0.1,0,0.3,0,0.4c0,3,2.5,5.5,5.5,5.5s5.5-2.5,5.5-5.5c0-0.1,0-0.3,0-0.4L1262.9-87
										z"/>
								</g>
								<path d="M1258.4-80L1258.4-80L1258.4-80C1258.3-80,1258.3-80,1258.4-80L1258.4-80c-5.6,0-9.9,5.3-9.9,8.5s2.1,3.5,5,3.5
									c2.7,0,4.8,0,5,0h0.1c0.2,0,2.2,0,5,0c2.8,0,5-0.4,5-3.5C1268.3-74.6,1263.9-79.9,1258.4-80z"/>
							</g>
						</g>
					</g>
				</g>
				<g>
					<g>
						<g>
							<path id="SVGID_3_" d="M1027.2,707.1H251.4c-3.1,0-5.6-2.5-5.6-5.6V103.3c0-3.1,2.5-5.6,5.6-5.6h775.7c3.1,0,5.6,2.5,5.6,5.6
								v598.2C1032.8,704.6,1030.3,707.1,1027.2,707.1z"/>
						</g>
						<g>
							<defs>
								<path id="SVGID_7_" d="M1027.2,707.1H251.4c-3.1,0-5.6-2.5-5.6-5.6V103.3c0-3.1,2.5-5.6,5.6-5.6h775.7
									c3.1,0,5.6,2.5,5.6,5.6v598.2C1032.8,704.6,1030.3,707.1,1027.2,707.1z"/>
							</defs>
							<clipPath id="SVGID_8_">
								<use xlink:href="#SVGID_7_"  style="overflow:visible;"/>
							</clipPath>
							<g class="st12">
								<g>
									<rect id="SVGID_5_" x="245.8" y="191.6" width="786.9" height="514.4"/>
								</g>
								<g>
									<defs>
										<rect id="SVGID_9_" x="245.8" y="191.6" width="786.9" height="514.4"/>
									</defs>
									<clipPath id="SVGID_10_">
										<use xlink:href="#SVGID_9_"  style="overflow:visible;"/>
									</clipPath>
									<g class="st13">
										<g>
											<g>
												
													<rect x="460.2" y="283.6" transform="matrix(0.2563 -0.9666 0.9666 0.2563 72.6362 924.8248)" class="st14" width="354.2" height="263.3"/>
												<text transform="matrix(0.9666 0.2563 -0.2563 0.9666 592.061 259.9337)" class="st15 st16">CONFIDENCIAL</text>
												<line class="st17" x1="598" y1="236.3" x2="759.6" y2="279.2"/>
												<line class="st17" x1="590.5" y1="264.6" x2="752.1" y2="307.5"/>
											</g>
											<g>
												<line class="st17" x1="555.6" y1="265.8" x2="782.5" y2="325.9"/>
												<line class="st17" x1="552.6" y1="276.8" x2="779.5" y2="336.9"/>
												<line class="st17" x1="549.7" y1="287.8" x2="776.6" y2="348"/>
												<line class="st17" x1="546.8" y1="298.8" x2="773.7" y2="359"/>
												<line class="st17" x1="543.9" y1="309.9" x2="770.8" y2="370"/>
												<line class="st17" x1="540.9" y1="320.9" x2="767.8" y2="381"/>
												<line class="st17" x1="538" y1="331.9" x2="764.9" y2="392"/>
												<line class="st17" x1="535.1" y1="342.9" x2="762" y2="403.1"/>
												<line class="st17" x1="532.1" y1="353.9" x2="759.1" y2="414.1"/>
												<line class="st17" x1="529.2" y1="364.9" x2="756.2" y2="425.1"/>
												<line class="st17" x1="526.3" y1="375.9" x2="753.3" y2="436.1"/>
												<line class="st17" x1="523.4" y1="386.9" x2="750.4" y2="447.1"/>
												<line class="st17" x1="520.4" y1="397.9" x2="747.4" y2="458.2"/>
												<line class="st17" x1="517.5" y1="409" x2="744.5" y2="469.2"/>
												<line class="st17" x1="514.7" y1="420" x2="741.6" y2="480.2"/>
												<line class="st17" x1="511.7" y1="431" x2="738.6" y2="491.2"/>
												<line class="st17" x1="508.8" y1="442" x2="735.7" y2="502.3"/>
												<line class="st17" x1="505.9" y1="453" x2="732.8" y2="513.3"/>
												<line class="st17" x1="503" y1="464.1" x2="729.9" y2="524.2"/>
												<line class="st17" x1="500" y1="475.1" x2="726.9" y2="535.2"/>
												<line class="st17" x1="497.1" y1="486.1" x2="724" y2="546.2"/>
												<line class="st17" x1="494.2" y1="497.1" x2="721.1" y2="557.3"/>
												<line class="st17" x1="491.3" y1="508.2" x2="718.2" y2="568.3"/>
												<line class="st17" x1="488.3" y1="519.2" x2="715.3" y2="579.3"/>
												<line class="st17" x1="485.4" y1="530.2" x2="712.4" y2="590.3"/>
											</g>
										</g>
										<g>
											<rect x="618.7" y="333.3" class="st14" width="263.3" height="354.2"/>
											<g>
												<line class="st17" x1="643.4" y1="386.9" x2="754.3" y2="386.9"/>
												<line class="st17" x1="643.4" y1="398.3" x2="754.3" y2="398.3"/>
												<line class="st17" x1="643.4" y1="409.6" x2="754.3" y2="409.6"/>
												<line class="st17" x1="643.4" y1="421.1" x2="754.3" y2="421.1"/>
												<line class="st17" x1="643.4" y1="443.9" x2="828.7" y2="443.9"/>
												<line class="st17" x1="643.4" y1="455.2" x2="828.7" y2="455.2"/>
												<line class="st17" x1="643.4" y1="466.7" x2="828.7" y2="466.7"/>
												<line class="st17" x1="643.4" y1="478" x2="828.7" y2="478"/>
												<line class="st17" x1="643.4" y1="489.5" x2="828.7" y2="489.5"/>
												<line class="st17" x1="643.4" y1="500.8" x2="828.7" y2="500.8"/>
												<line class="st17" x1="643.4" y1="512.3" x2="828.7" y2="512.3"/>
												<line class="st17" x1="643.4" y1="523.6" x2="828.7" y2="523.6"/>
												<line class="st17" x1="643.4" y1="535.1" x2="828.7" y2="535.1"/>
												<line class="st17" x1="643.4" y1="546.4" x2="828.7" y2="546.4"/>
												<line class="st17" x1="643.4" y1="557.9" x2="828.7" y2="557.9"/>
												<line class="st17" x1="643.4" y1="569.2" x2="828.7" y2="569.2"/>
												<line class="st17" x1="643.4" y1="580.7" x2="828.7" y2="580.7"/>
												<line class="st17" x1="643.4" y1="592" x2="828.7" y2="592"/>
												<line class="st17" x1="643.4" y1="603.5" x2="828.7" y2="603.5"/>
												<line class="st17" x1="643.4" y1="614.8" x2="828.7" y2="614.8"/>
												<line class="st17" x1="643.4" y1="626.3" x2="828.7" y2="626.3"/>
												<line class="st17" x1="643.4" y1="637.6" x2="828.7" y2="637.6"/>
												<line class="st17" x1="643.4" y1="649" x2="828.7" y2="649"/>
												<line class="st17" x1="836" y1="443.9" x2="862.4" y2="443.9"/>
												<line class="st17" x1="836" y1="455.2" x2="862.4" y2="455.2"/>
												<line class="st17" x1="836" y1="466.7" x2="862.4" y2="466.7"/>
												<line class="st17" x1="836" y1="478" x2="862.4" y2="478"/>
												<line class="st17" x1="836" y1="489.5" x2="862.4" y2="489.5"/>
												<line class="st17" x1="836" y1="500.8" x2="862.4" y2="500.8"/>
												<line class="st17" x1="836" y1="512.3" x2="862.4" y2="512.3"/>
												<line class="st17" x1="836" y1="523.6" x2="862.4" y2="523.6"/>
												<line class="st17" x1="836" y1="535.1" x2="862.4" y2="535.1"/>
												<line class="st17" x1="836" y1="546.4" x2="862.4" y2="546.4"/>
												<line class="st17" x1="836" y1="557.9" x2="862.4" y2="557.9"/>
												<line class="st17" x1="836" y1="569.2" x2="862.4" y2="569.2"/>
												<line class="st17" x1="836" y1="580.7" x2="862.4" y2="580.7"/>
												<line class="st17" x1="836" y1="592" x2="862.4" y2="592"/>
												<line class="st17" x1="836" y1="603.5" x2="862.4" y2="603.5"/>
												<line class="st17" x1="836" y1="614.8" x2="862.4" y2="614.8"/>
												<line class="st17" x1="836" y1="626.3" x2="862.4" y2="626.3"/>
												<line class="st17" x1="836" y1="637.6" x2="862.4" y2="637.6"/>
												<line class="st17" x1="836" y1="649" x2="862.4" y2="649"/>
												<line class="st17" x1="836" y1="660.4" x2="862.4" y2="660.4"/>
											</g>
											<text transform="matrix(1 0 0 1 639.3408 371.7457)" class="st15 st18">ESTADO DE CUENTA</text>
										</g>
										<g>
											<path class="st19" d="M359.9,17.8l-420,243.3c-2.7,1.5-3.5,4.9-2,7.5l163.7,282.6c1.5,2.7,4.9,3.5,7.5,2L529,310
												c2.7-1.5,3.5-4.9,2-7.5L367.4,19.8C365.9,17.2,362.6,16.3,359.9,17.8z"/>
											<g>
												<path d="M362.9,134.9l-17.7,10.3c-0.4,0.3-1,0.1-1.2-0.4l-10.2-17.7c-0.3-0.4-0.1-1,0.4-1.2l17.7-10.3
													c0.4-0.3,1-0.1,1.2,0.4l10.3,17.7C363.5,134.1,363.4,134.7,362.9,134.9z"/>
												<path d="M375,156l-11.1,6.4c-0.5,0.3-1.2,0.1-1.4-0.4l-22.2-38.3c-0.3-0.5-0.1-1.2,0.4-1.4l11.1-6.4
													c0.5-0.3,1.2-0.1,1.4,0.4l22.2,38.3C375.6,155,375.4,155.7,375,156z"/>
											</g>
											<path class="st20" d="M339.7,413.2l-47.1,27.2c-2.5,1.4-3.3,4.6-1.9,7.1l0.3,0.4l56.1-32.5l-0.3-0.4
												C345.3,412.6,342.2,411.7,339.7,413.2z"/>
											<path class="st21" d="M368.1,375.5l-122.4,70.9c-0.7,0.4-1.6,0.2-2-0.5l-50.9-87.9c-0.4-0.7-0.2-1.6,0.5-2L315.7,285
												c0.7-0.4,1.6-0.2,2,0.5l50.9,87.9C369.1,374.2,368.9,375.1,368.1,375.5z"/>
											<g>
												<path d="M31.2,268.3l-18.7,10.8c-0.4,0.2-0.7,0.1-0.9-0.3l-5.5-9.5c-0.2-0.4-0.1-0.7,0.3-0.9l18.7-10.8
													c0.4-0.2,0.7-0.1,0.9,0.3l5.5,9.5C31.6,267.6,31.5,268.1,31.2,268.3z"/>
												<path d="M54.8,254.6l-18.7,10.8c-0.4,0.2-0.7,0.1-0.9-0.3l-5.5-9.5c-0.2-0.4-0.1-0.7,0.3-0.9L48.6,244
													c0.4-0.2,0.7-0.1,0.9,0.3l5.5,9.5C55.2,254.1,55,254.4,54.8,254.6z"/>
												<path d="M78.4,240.9l-18.7,10.8c-0.4,0.2-0.7,0.1-0.9-0.3l-5.5-9.5c-0.2-0.4-0.1-0.7,0.3-0.9l18.6-10.8
													c0.4-0.2,0.7-0.1,0.9,0.3l5.5,9.5C78.7,240.4,78.6,240.8,78.4,240.9z"/>
												<path d="M172.7,186.4l-18.7,10.8c-0.4,0.2-0.7,0.1-0.9-0.3l-5.5-9.5c-0.2-0.4-0.1-0.7,0.3-0.9l18.7-10.8
													c0.4-0.2,0.7-0.1,0.9,0.3l5.5,9.5C173,185.8,172.9,186.2,172.7,186.4z"/>
												<path d="M196.2,172.7l-18.7,10.8c-0.4,0.2-0.7,0.1-0.9-0.3l-5.5-9.5c-0.2-0.4-0.1-0.7,0.3-0.9l18.7-10.8
													c0.4-0.2,0.7-0.1,0.9,0.3l5.5,9.5C196.6,172.1,196.5,172.6,196.2,172.7z"/>
												<path d="M219.8,159.1L201,169.9c-0.4,0.2-0.7,0.1-0.9-0.3l-5.5-9.5c-0.2-0.4-0.1-0.7,0.3-0.9l18.7-10.8
													c0.4-0.2,0.7-0.1,0.9,0.3l5.5,9.5C220.2,158.5,220.1,158.9,219.8,159.1z"/>
												<path d="M101.9,227.3l-18.7,10.8c-0.4,0.2-0.7,0.1-0.9-0.3l-5.5-9.5c-0.2-0.4-0.1-0.7,0.3-0.9l18.7-10.8
													c0.4-0.2,0.7-0.1,0.9,0.3l5.5,9.5C102.3,226.8,102.2,227.1,101.9,227.3z"/>
												<path d="M125.5,213.6l-18.7,10.9c-0.4,0.2-0.7,0.1-0.9-0.3l-5.5-9.5c-0.2-0.4-0.1-0.7,0.3-0.9l18.7-10.8
													c0.4-0.2,0.7-0.1,0.9,0.3l5.5,9.5C125.9,213.1,125.8,213.4,125.5,213.6z"/>
												<path d="M149.1,200.1l-18.7,10.8c-0.4,0.2-0.7,0.1-0.9-0.3l-5.5-9.5c-0.2-0.4-0.1-0.7,0.3-0.9l18.7-10.8
													c0.4-0.2,0.7-0.1,0.9,0.3l5.5,9.5C149.5,199.4,149.3,199.8,149.1,200.1z"/>
												<path d="M243.3,145.4l-18.7,10.8c-0.4,0.2-0.7,0.1-0.9-0.3l-5.5-9.5c-0.2-0.4-0.1-0.7,0.3-0.9l18.7-10.8
													c0.4-0.2,0.7-0.1,0.9,0.3l5.5,9.5C243.8,144.8,243.7,145.2,243.3,145.4z"/>
												<path d="M266.9,131.8l-18.7,10.8c-0.4,0.2-0.7,0.1-0.9-0.3l-5.5-9.5c-0.2-0.4-0.1-0.7,0.3-0.9l18.7-10.8
													c0.4-0.2,0.7-0.1,0.9,0.3l5.5,9.5C267.4,131.1,267.2,131.6,266.9,131.8z"/>
												<path d="M290.4,118.1l-18.7,10.8c-0.4,0.2-0.7,0.1-0.9-0.3l-5.5-9.5c-0.2-0.4-0.1-0.7,0.3-0.9l18.7-10.8
													c0.4-0.2,0.7-0.1,0.9,0.3l5.5,9.5C290.9,117.5,290.8,117.9,290.4,118.1z"/>
												<path d="M314,104.4l-18.7,10.8c-0.4,0.2-0.7,0.1-0.9-0.3l-5.5-9.5c-0.2-0.4-0.1-0.7,0.3-0.9l18.7-10.8
													c0.4-0.2,0.7-0.1,0.9,0.3l5.5,9.5C314.5,103.8,314.4,104.3,314,104.4z"/>
												<path d="M337.6,90.8l-18.7,10.8c-0.4,0.2-0.7,0.1-0.9-0.3l-5.5-9.5c-0.2-0.4-0.1-0.7,0.3-0.9l18.7-10.8
													c0.4-0.2,0.7-0.1,0.9,0.3l5.5,9.5C338.1,90.2,338,90.6,337.6,90.8z"/>
											</g>
											<g>
												<path d="M136.1,266.3l-17.7,10.3c-0.4,0.3-1,0.1-1.2-0.4l-10.3-17.7c-0.3-0.4-0.1-1,0.4-1.2l17.7-10.3
													c0.4-0.3,1-0.1,1.2,0.4l10.3,17.7C136.6,265.5,136.5,266,136.1,266.3z"/>
												<path d="M113.3,279.5l-17.7,10.3c-0.4,0.3-1,0.1-1.2-0.4l-10.3-17.7c-0.3-0.4-0.1-1,0.4-1.2l17.7-10.3
													c0.4-0.3,1-0.1,1.2,0.4l10.3,17.7C113.9,278.7,113.8,279.3,113.3,279.5z"/>
												<path d="M90.5,292.7l-17.7,10.3c-0.4,0.3-1,0.1-1.2-0.4l-10.2-17.7c-0.3-0.4-0.1-1,0.4-1.2l17.7-10.3
													c0.4-0.3,1-0.1,1.2,0.4L91,291.4C91.1,291.9,91,292.5,90.5,292.7z"/>
												<path d="M158.9,253.1l-17.7,10.3c-0.4,0.3-1,0.1-1.2-0.4l-10.3-17.7c-0.3-0.4-0.1-1,0.4-1.2l17.7-10.3
													c0.4-0.3,1-0.1,1.2,0.4l10.3,17.7C159.4,252.4,159.3,252.9,158.9,253.1z"/>
												<path d="M204.4,226.8L186.8,237c-0.4,0.3-1,0.1-1.2-0.4L175.2,219c-0.3-0.4-0.1-1,0.4-1.2l17.7-10.3
													c0.4-0.3,1-0.1,1.2,0.4l10.3,17.7C205,226,204.8,226.5,204.4,226.8z"/>
												<path d="M181.6,240L164,250.3c-0.4,0.3-1,0.1-1.2-0.4l-10.3-17.7c-0.3-0.4-0.1-1,0.4-1.2l17.7-10.3
													c0.4-0.3,1-0.1,1.2,0.4l10.3,17.7C182.2,239.2,182.1,239.7,181.6,240z"/>
												<path d="M227.2,213.5l-17.7,10.3c-0.4,0.3-1,0.1-1.2-0.4L198,205.8c-0.3-0.4-0.1-1,0.4-1.2l17.7-10.3
													c0.4-0.3,1-0.1,1.2,0.4l10.3,17.7C227.7,212.7,227.6,213.3,227.2,213.5z"/>
												<path d="M272.7,187.2l-17.7,10.3c-0.4,0.3-1,0.1-1.2-0.4l-10.2-17.7c-0.3-0.4-0.1-1,0.4-1.2l17.7-10.3
													c0.4-0.3,1-0.1,1.2,0.4l10.3,17.7C273.3,186.4,273.1,186.9,272.7,187.2z"/>
												<path d="M250,200.4l-17.7,10.3c-0.4,0.3-1,0.1-1.2-0.4l-10.3-17.7c-0.3-0.4-0.1-1,0.4-1.2l17.7-10.3
													c0.4-0.3,1-0.1,1.2,0.4l10.3,17.7C250.5,199.6,250.4,200.1,250,200.4z"/>
												<path d="M295.5,174l-17.7,10.3c-0.4,0.3-1,0.1-1.2-0.4l-10.2-17.7c-0.3-0.4-0.1-1,0.4-1.2l17.7-10.3
													c0.4-0.3,1-0.1,1.2,0.4l10.3,17.7C296.1,173.2,295.9,173.7,295.5,174z"/>
												<path d="M341.1,147.6l-17.7,10.3c-0.4,0.3-1,0.1-1.2-0.4l-10.3-17.7c-0.3-0.4-0.1-1,0.4-1.2l17.7-10.3
													c0.4-0.3,1-0.1,1.2,0.4l10.3,17.7C341.6,146.8,341.4,147.4,341.1,147.6z"/>
												<path d="M318.3,160.8L300.6,171c-0.4,0.3-1,0.1-1.2-0.4L289.1,153c-0.3-0.4-0.1-1,0.4-1.2l17.7-10.3
													c0.4-0.3,1-0.1,1.2,0.4l10.3,17.7C318.8,160,318.7,160.6,318.3,160.8z"/>
											</g>
											<g>
												<path d="M154,283.9l-17.7,10.3c-0.4,0.3-1,0.1-1.2-0.4l-10.3-17.7c-0.3-0.4-0.1-1,0.4-1.2l17.7-10.3
													c0.4-0.3,1-0.1,1.2,0.4l10.3,17.7C154.6,283.2,154.5,283.7,154,283.9z"/>
												<path d="M131.2,297.1l-17.7,10.3c-0.4,0.3-1,0.1-1.2-0.4l-10.2-17.7c-0.3-0.4-0.1-1,0.4-1.2l17.7-10.3
													c0.4-0.3,1-0.1,1.2,0.4l10.2,17.7C131.8,296.3,131.7,296.8,131.2,297.1z"/>
												<path d="M108.5,310.3l-17.7,10.2c-0.4,0.3-1,0.1-1.2-0.4l-10.3-17.7c-0.3-0.4-0.1-1,0.4-1.2L97.3,291
													c0.4-0.3,1-0.1,1.2,0.4l10.3,17.7C109.1,309.5,108.9,310,108.5,310.3z"/>
												<path d="M176.8,270.7l-17.7,10.2c-0.4,0.3-1,0.1-1.2-0.4l-10.3-17.7c-0.3-0.4-0.1-1,0.4-1.2l17.7-10.3
													c0.4-0.3,1-0.1,1.2,0.4l10.3,17.7C177.4,269.9,177.3,270.5,176.8,270.7z"/>
												<path d="M222.3,244.3l-17.7,10.3c-0.4,0.3-1,0.1-1.2-0.4l-10.3-17.7c-0.3-0.4-0.1-1,0.4-1.2l17.7-10.3
													c0.4-0.3,1-0.1,1.2,0.4l10.3,17.7C222.9,243.5,222.8,244.1,222.3,244.3z"/>
												<path d="M199.6,257.5L182,267.8c-0.4,0.3-1,0.1-1.2-0.4l-10.3-17.7c-0.3-0.4-0.1-1,0.4-1.2l17.7-10.3
													c0.4-0.3,1-0.1,1.2,0.4l10.3,17.7C200.1,256.7,200,257.3,199.6,257.5z"/>
												<path d="M245.1,231.2l-17.7,10.3c-0.4,0.3-1,0.1-1.2-0.4l-10.3-17.7c-0.3-0.4-0.1-1,0.4-1.2l17.7-10.3
													c0.4-0.3,1-0.1,1.2,0.4l10.3,17.7C245.7,230.4,245.6,230.9,245.1,231.2z"/>
												<path d="M290.6,204.8L273,215c-0.4,0.3-1,0.1-1.2-0.4L261.4,197c-0.3-0.4-0.1-1,0.4-1.2l17.7-10.3
													c0.4-0.3,1-0.1,1.2,0.4l10.3,17.7C291.2,204,291.1,204.5,290.6,204.8z"/>
												<path d="M267.9,218l-17.7,10.2c-0.4,0.3-1,0.1-1.2-0.4l-10.3-17.7c-0.3-0.4-0.1-1,0.4-1.2l17.7-10.3
													c0.4-0.3,1-0.1,1.2,0.4l10.3,17.7C268.4,217.2,268.3,217.7,267.9,218z"/>
												<path d="M313.4,191.5l-17.7,10.3c-0.4,0.3-1,0.1-1.2-0.4l-10.2-17.7c-0.3-0.4-0.1-1,0.4-1.2l17.7-10.3
													c0.4-0.3,1-0.1,1.2,0.4l10.3,17.7C314,190.8,313.9,191.4,313.4,191.5z"/>
												<path d="M359,165.2l-17.7,10.3c-0.4,0.3-1,0.1-1.2-0.4l-10.3-17.7c-0.3-0.4-0.1-1,0.4-1.2l17.7-10.3
													c0.4-0.3,1-0.1,1.2,0.4l10.3,17.7C359.5,164.4,359.4,164.9,359,165.2z"/>
												<path d="M336.2,178.4l-17.7,10.3c-0.4,0.3-1,0.1-1.2-0.4L307,170.7c-0.3-0.4-0.1-1,0.4-1.2l17.7-10.3
													c0.4-0.3,1-0.1,1.2,0.4l10.3,17.7C336.7,177.6,336.7,178.1,336.2,178.4z"/>
											</g>
											<g>
												<path d="M155.8,313.1l-17.7,10.3c-0.4,0.3-1,0.1-1.2-0.4l-10.3-17.7c-0.3-0.4-0.1-1,0.4-1.2l17.7-10.3
													c0.4-0.3,1-0.1,1.2,0.4l10.3,17.7C156.4,312.3,156.2,312.8,155.8,313.1z"/>
												<path d="M133,326.3l-17.7,10.3c-0.4,0.3-1,0.1-1.2-0.4l-10.3-17.7c-0.3-0.4-0.1-1,0.4-1.2l17.7-10.3
													c0.4-0.3,1-0.1,1.2,0.4l10.3,17.7C133.6,325.5,133.4,326,133,326.3z"/>
												<path d="M110.3,339.4l-17.7,10.3c-0.4,0.3-1,0.1-1.2-0.4L81,331.7c-0.3-0.4-0.1-1,0.4-1.2L99,320.2
													c0.4-0.3,1-0.1,1.2,0.4l10.3,17.7C110.8,338.6,110.6,339.1,110.3,339.4z"/>
												<path d="M178.6,299.8l-17.7,10.3c-0.4,0.3-1,0.1-1.2-0.4l-10.3-17.7c-0.3-0.4-0.1-1,0.4-1.2l17.7-10.3
													c0.4-0.3,1-0.1,1.2,0.4l10.3,17.7C179.1,299,179,299.6,178.6,299.8z"/>
												<path d="M224.1,273.5l-17.7,10.3c-0.4,0.3-1,0.1-1.2-0.4l-10.3-17.7c-0.3-0.4-0.1-1,0.4-1.2l17.7-10.3
													c0.4-0.3,1-0.1,1.2,0.4l10.3,17.7C224.7,272.7,224.5,273.2,224.1,273.5z"/>
												<path d="M201.4,286.6l-17.7,10.3c-0.4,0.3-1,0.1-1.2-0.4l-10.3-17.7c-0.3-0.4-0.1-1,0.4-1.2l17.7-10.3
													c0.4-0.3,1-0.1,1.2,0.4l10.3,17.7C201.9,285.9,201.7,286.4,201.4,286.6z"/>
												<path d="M246.9,260.3l-17.7,10.3c-0.4,0.3-1,0.1-1.2-0.4l-10.3-17.7c-0.3-0.4-0.1-1,0.4-1.2l17.7-10.3
													c0.4-0.3,1-0.1,1.2,0.4l10.3,17.7C247.4,259.5,247.3,260,246.9,260.3z"/>
												<path d="M292.5,233.9l-17.7,10.2c-0.4,0.3-1,0.1-1.2-0.4l-10.3-17.7c-0.3-0.4-0.1-1,0.4-1.2l17.7-10.3
													c0.4-0.3,1-0.1,1.2,0.4l10.3,17.7C293,233.1,292.8,233.7,292.5,233.9z"/>
												<path d="M269.7,247.1L252,257.4c-0.4,0.3-1,0.1-1.2-0.4l-10.3-17.7c-0.3-0.4-0.1-1,0.4-1.2l17.7-10.3
													c0.4-0.3,1-0.1,1.2,0.4l10.2,17.7C270.2,246.3,270.1,246.9,269.7,247.1z"/>
												<path d="M315.2,220.7L297.5,231c-0.4,0.3-1,0.1-1.2-0.4L286,213c-0.3-0.4-0.1-1,0.4-1.2l17.7-10.3
													c0.4-0.3,1-0.1,1.2,0.4l10.3,17.7C315.8,219.9,315.6,220.5,315.2,220.7z"/>
												<path d="M387.7,178.7l-44.3,25.6c-0.6,0.4-1.5,0.2-1.9-0.5l-9.8-16.9c-0.4-0.6-0.2-1.5,0.5-1.9l44.3-25.6
													c0.6-0.4,1.5-0.2,1.9,0.5l9.8,16.9C388.6,177.5,388.4,178.3,387.7,178.7z"/>
												<path d="M338,207.5l-17.7,10.3c-0.4,0.3-1,0.1-1.2-0.4l-10.2-17.7c-0.3-0.4-0.1-1,0.4-1.2l17.7-10.3
													c0.4-0.3,1-0.1,1.2,0.4l10.3,17.7C338.5,206.7,338.4,207.2,338,207.5z"/>
											</g>
											<g>
												<path d="M140.7,354.3l-17.7,10.3c-0.4,0.3-1,0.1-1.2-0.4l-10.3-17.7c-0.3-0.4-0.1-1,0.4-1.2l17.7-10.3
													c0.4-0.3,1-0.1,1.2,0.4l10.3,17.7C141.3,353.5,141.2,354,140.7,354.3z"/>
												<path d="M334.8,241.8l-17.7,10.3c-0.4,0.3-1,0.1-1.2-0.4l-10.3-17.7c-0.3-0.4-0.1-1,0.4-1.2l17.7-10.3
													c0.4-0.3,1-0.1,1.2,0.4l10.3,17.7C335.4,241.1,335.2,241.7,334.8,241.8z"/>
												<path d="M357.2,228.9l-17.7,10.2c-0.4,0.3-1,0.1-1.2-0.4l-5.3-9.2c-0.3-0.4-0.1-1,0.4-1.2l17.7-10.2
													c0.4-0.3,1-0.1,1.2,0.4l5.3,9.2C357.9,228.1,357.7,228.6,357.2,228.9z"/>
												<path d="M402.2,202.8L384.6,213c-0.4,0.3-1,0.1-1.2-0.4l-5.3-9.2c-0.3-0.4-0.1-1,0.4-1.2L396,192c0.4-0.3,1-0.1,1.2,0.4
													l5.3,9.2C402.8,202,402.6,202.5,402.2,202.8z"/>
												<path d="M379.9,215.8l-17.7,10.3c-0.4,0.3-1,0.1-1.2-0.4l-4.5-7.8c-0.3-0.4-0.1-1,0.4-1.2l17.7-10.3
													c0.4-0.3,1-0.1,1.2,0.4l4.5,7.8C380.4,215,380.2,215.6,379.9,215.8z"/>
												<path d="M373.6,205.1l-17.7,10.3c-0.4,0.3-1,0.1-1.2-0.4l-4.5-7.8c-0.3-0.4-0.1-1,0.4-1.2l17.7-10.3
													c0.4-0.3,1-0.1,1.2,0.4l4.5,7.8C374.2,204.3,374,204.8,373.6,205.1z"/>
												<path d="M117.9,367.5l-17.7,10.3c-0.4,0.3-1,0.1-1.2-0.4l-10.3-17.7c-0.3-0.4-0.1-1,0.4-1.2l17.7-10.3
													c0.4-0.3,1-0.1,1.2,0.4l10.3,17.7C118.5,366.7,118.4,367.3,117.9,367.5z"/>
												<path d="M95.2,380.6l-17.7,10.3c-0.4,0.3-1,0.1-1.2-0.4l-10.3-17.7c-0.3-0.4-0.1-1,0.4-1.2L84,361.4
													c0.4-0.3,1-0.1,1.2,0.4l10.3,17.7C95.7,379.9,95.6,380.5,95.2,380.6z"/>
												<path d="M169.3,337.7l-23.4,13.6c-0.4,0.3-1.1,0.1-1.4-0.4l-10.1-17.5c-0.3-0.4-0.1-1.1,0.4-1.4l23.4-13.6
													c0.4-0.3,1.1-0.1,1.4,0.4l10.2,17.6C170,336.8,169.8,337.4,169.3,337.7z"/>
												<path d="M311.5,255.4L288,269c-0.4,0.3-1.1,0.1-1.4-0.4l-10.1-17.5c-0.3-0.4-0.1-1.1,0.4-1.4l23.4-13.6
													c0.4-0.3,1.1-0.1,1.4,0.4l10.1,17.5C312.1,254.5,312,255.1,311.5,255.4z"/>
												<path d="M283.7,271.5l-108.7,63c-0.4,0.3-1.1,0.1-1.3-0.4l-10.2-17.6c-0.3-0.4-0.1-1.1,0.4-1.3l108.7-62.9
													c0.4-0.3,1.1-0.1,1.3,0.4l10.2,17.6C284.3,270.7,284.1,271.2,283.7,271.5z"/>
											</g>
											<path d="M84.9,323.9l-34.3,20c-0.6,0.4-1.3,0.2-1.7-0.4L39,326.3c-0.4-0.6-0.2-1.3,0.4-1.7l34.4-19.9
												c0.6-0.4,1.3-0.2,1.7,0.4l9.9,17.1C85.7,322.8,85.5,323.6,84.9,323.9z"/>
											<g>
												<path d="M43.1,290.8l-17.7,10.3c-0.4,0.3-1,0.1-1.2-0.4L14,283.1c-0.3-0.4-0.1-1,0.4-1.2L32,271.5
													c0.4-0.3,1-0.1,1.2,0.4l10.3,17.7C43.7,290,43.5,290.5,43.1,290.8z"/>
												<path d="M88.7,264.4L71,274.6c-0.4,0.3-1,0.1-1.2-0.4l-10.3-17.7c-0.3-0.4-0.1-1,0.4-1.2l17.7-10.3
													c0.4-0.3,1-0.1,1.2,0.4L89,263.2C89.2,263.7,89.1,264.2,88.7,264.4z"/>
												<path d="M65.9,277.6l-17.7,10.3c-0.4,0.3-1,0.1-1.2-0.4l-10.2-17.7c-0.3-0.4-0.1-1,0.4-1.2l17.7-10.3
													c0.4-0.3,1-0.1,1.2,0.4l10.3,17.7C66.5,276.8,66.3,277.3,65.9,277.6z"/>
												<path d="M111.4,251.2l-17.7,10.3c-0.4,0.3-1,0.1-1.2-0.4l-10.3-17.7c-0.3-0.4-0.1-1,0.4-1.2l17.7-10.3
													c0.4-0.3,1-0.1,1.2,0.4l10.3,17.7C112,250.4,111.9,251,111.4,251.2z"/>
												<path d="M157,224.8l-17.7,10.3c-0.4,0.3-1,0.1-1.2-0.4l-10.3-17.7c-0.3-0.4-0.1-1,0.4-1.2l17.7-10.3
													c0.4-0.3,1-0.1,1.2,0.4l10.3,17.7C157.6,224,157.4,224.6,157,224.8z"/>
												<path d="M134.2,238l-17.7,10.3c-0.4,0.3-1,0.1-1.2-0.4L105,230.3c-0.3-0.4-0.1-1,0.4-1.2l17.7-10.3
													c0.4-0.3,1-0.1,1.2,0.4l10.3,17.7C134.8,237.2,134.6,237.7,134.2,238z"/>
												<path d="M179.7,211.7L162.1,222c-0.4,0.3-1,0.1-1.2-0.4L150.6,204c-0.3-0.4-0.1-1,0.4-1.2l17.7-10.3
													c0.4-0.3,1-0.1,1.2,0.4l10.3,17.7C180.3,210.9,180.2,211.4,179.7,211.7z"/>
												<path d="M225.2,185.2l-17.7,10.3c-0.4,0.3-1,0.1-1.2-0.4l-10.3-17.7c-0.3-0.4-0.1-1,0.4-1.2l17.7-10.3
													c0.4-0.3,1-0.1,1.2,0.4l10.3,17.7C225.9,184.4,225.7,185,225.2,185.2z"/>
												<path d="M202.5,198.5l-17.7,10.2c-0.4,0.3-1,0.1-1.2-0.4l-10.3-17.7c-0.3-0.4-0.1-1,0.4-1.2l17.7-10.3
													c0.4-0.3,1-0.1,1.2,0.4l10.3,17.7C203.1,197.7,202.9,198.2,202.5,198.5z"/>
												<path d="M248,172l-17.7,10.3c-0.4,0.3-1,0.1-1.2-0.4L219,164.3c-0.3-0.4-0.1-1,0.4-1.2l17.7-10.3c0.4-0.3,1-0.1,1.2,0.4
													l10.3,17.7C248.7,171.3,248.5,171.8,248,172z"/>
												<path d="M293.6,145.7L276,156c-0.4,0.3-1,0.1-1.2-0.4L264.5,138c-0.3-0.4-0.1-1,0.4-1.2l17.7-10.3
													c0.4-0.3,1-0.1,1.2,0.4l10.3,17.7C294.2,144.9,294,145.4,293.6,145.7z"/>
												<path d="M316.3,132.5l-17.7,10.3c-0.4,0.3-1,0.1-1.2-0.4l-10.3-17.7c-0.3-0.4-0.1-1,0.4-1.2l17.7-10.3
													c0.4-0.3,1-0.1,1.2,0.4l10.3,17.7C317,131.8,316.8,132.3,316.3,132.5z"/>
												<path d="M350,113l-27.9,16.1c-0.5,0.3-1.2,0.1-1.5-0.4l-10-17.3c-0.3-0.5-0.1-1.2,0.4-1.5L339,93.8
													c0.5-0.3,1.2-0.1,1.5,0.4l10,17.3C350.7,112.1,350.5,112.7,350,113z"/>
												<path d="M270.8,158.9l-17.7,10.2c-0.4,0.3-1,0.1-1.2-0.4l-10.3-17.7c-0.3-0.4-0.1-1,0.4-1.2l17.7-10.3
													c0.4-0.3,1-0.1,1.2,0.4l10.3,17.7C271.4,158.1,271.3,158.6,270.8,158.9z"/>
											</g>
											<path d="M67.4,306.1l-29,16.8c-0.5,0.3-1.2,0.1-1.5-0.4l-10-17.3c-0.3-0.5-0.1-1.2,0.4-1.5l29-16.8
												c0.5-0.3,1.2-0.1,1.5,0.4l10,17.3C68.1,305.2,67.9,305.8,67.4,306.1z"/>
											<path d="M86.6,353.1l-23.1,13.4c-0.4,0.3-1.1,0.1-1.3-0.4L52,348.6c-0.3-0.4-0.1-1.1,0.4-1.3l23.1-13.4
												c0.4-0.3,1.1-0.1,1.3,0.4l10.1,17.5C87.2,352.3,87.1,352.9,86.6,353.1z"/>
											<rect x="-41" y="134.8" transform="matrix(0.8653 -0.5012 0.5012 0.8653 -51.645 95.906)" width="387.3" height="18.4"/>
											<path class="st22" d="M341.8-105.4c-5.4,3.1-167.3,96.9-235.3,136.2c0,0-11.4,6.7-29.6,17.2
												c-68,39.4-229.9,133.1-235.3,136.3c-6.9,4-13,10.5-6.3,15.3c6.7,4.8,84.3,52.3,92.3,57.1c8.1,4.8,9.8,1.5,13.5-0.7
												l191.9-111.2l29.6-17.2L354.3,16.5c3.8-2.2,7.5-2,7.4-11.4c-0.1-9.4-2.7-100.4-3.5-108.5
												C357.2-111.4,348.6-109.4,341.8-105.4z"/>
										</g>
										<g>
											<path class="st23" d="M943.7,267.9c0,0-30.9,16.5-33.8,18.4c-3,1.9-11.4,1.2-13.3-1.5c-1.9-2.7-4.5-7.9-5.9-11.1
												c-1.3-3.2-1.3-8.1,2.5-10.1c3.7-2,34.6-23.3,34.6-23.3L943.7,267.9z"/>
											
												<ellipse transform="matrix(0.7071 -0.7071 0.7071 0.7071 137.2146 763.8344)" class="st23" cx="990.6" cy="216.3" rx="68.5" ry="68.5"/>
											
												<ellipse transform="matrix(0.7071 -0.7071 0.7071 0.7071 137.2146 763.8344)" class="st24" cx="990.6" cy="216.3" rx="58.4" ry="58.4"/>
											<path class="st25" d="M936.1,257.8c0,0-31.2,21.3-34.2,23.4c-3,2.1-2.6,5.7,0,5.9"/>
										</g>
										<g>
											<path class="st23" d="M1024.3,514.7l-111.9-95.5l-9.6-13.3l-5.7-7.8l22.7,11.1l111.5,96.2c0,0,0.6,2.1-2.4,6.1
												C1025.9,515.5,1024.3,514.7,1024.3,514.7z"/>
											<polygon class="st24" points="906.3,406 902.6,405.8 897.1,398 907.4,403.1 											"/>
											<path class="st25" d="M912.3,419.1c0,0,6,0.2,5.3-3.7c4-0.3,3.7-6.1,2.9-6.2"/>
										</g>
									</g>
								</g>
								<g>
									<rect id="SVGID_1_" x="245.8" y="191.6" class="st2" width="786.9" height="514.4"/>
								</g>
							</g>
						</g>
						<g>
							<path id="SVGID_2_" class="st2" d="M1027.2,707.1H251.4c-3.1,0-5.6-2.5-5.6-5.6V103.3c0-3.1,2.5-5.6,5.6-5.6h775.7
								c3.1,0,5.6,2.5,5.6,5.6v598.2C1032.8,704.6,1030.3,707.1,1027.2,707.1z"/>
						</g>
					</g>
					<g>
						<circle class="st26" cx="300.3" cy="154.2" r="27.1"/>
						<text transform="matrix(1 0 0 1 339.7773 164.8038)" class="st7 st27 st28">Agente J</text>
						<text transform="matrix(1 0 0 1 503.082 164.8038)" class="st7 st27 st28">Amigos Universidad</text>
						<g>
							<g>
								<path d="M294.5,141.4c0.1-0.8,0.7-1.4,1.5-1.4h2.2c0.9,0,1.5,0.7,1.6,1.5h1.6c0.1-0.8,0.7-1.5,1.6-1.5h2.2
									c0.8,0,1.3,0.6,1.5,1.3l1.3-0.3c-0.8-3.5-4-6.1-7.7-6.1c-3.7,0-6.9,2.7-7.7,6.1L294.5,141.4z"/>
								<path d="M306.8,142.6v0.2c0,0.9-0.7,1.6-1.6,1.6H303c-0.9,0-1.5-0.7-1.6-1.5h-1.6c-0.1,0.8-0.7,1.5-1.6,1.5h-2.2
									c-0.9,0-1.6-0.7-1.6-1.6l0,0l-2-0.4c0,0.2-0.1,0.4-0.1,0.5c0,4.3,3.5,7.9,7.9,7.9c4.3,0,7.9-3.5,7.9-7.9
									c0-0.2,0-0.4-0.1-0.5L306.8,142.6z"/>
							</g>
							<path d="M300.3,152.7L300.3,152.7L300.3,152.7C300.3,152.7,300.2,152.7,300.3,152.7L300.3,152.7c-8.1,0.1-14.3,7.7-14.3,12.2
								s3,5,7.1,5c3.9,0,6.9,0,7.1,0h0.1c0.2,0,3.2,0,7.1,0c4.1,0,7.1-0.4,7.1-5C314.5,160.4,308.3,152.8,300.3,152.7z"/>
						</g>
						<path class="st7" d="M487.8,153.7l-15.6-14.2c-0.4-0.4-1.2-0.1-1.2,0.5v28.3c0,0.6,0.7,1,1.2,0.5l15.7-14.1
							C488.2,154.5,488.2,153.9,487.8,153.7z"/>
					</g>
				</g>
				<g>
					<g>
						<text transform="matrix(1 0 0 1 -201.9131 23.3146)" class="st7 st27" style="font-size:28.9307px;">Agente J</text>
						<g>
							<circle class="st29" cx="-235.6" cy="14.2" r="23.1"/>
							<g>
								<g>
									<path class="st30" d="M-240.6,3.3c0.1-0.6,0.6-1.2,1.3-1.2h1.9c0.7,0,1.3,0.6,1.3,1.3h1.3c0.1-0.7,0.6-1.3,1.3-1.3h1.9
										c0.6,0,1.2,0.5,1.2,1.1l1.2-0.2c-0.7-3-3.4-5.2-6.6-5.2c-3.2,0-5.9,2.2-6.6,5.2L-240.6,3.3z"/>
									<path class="st30" d="M-230.1,4.4L-230.1,4.4c0,0.8-0.6,1.4-1.3,1.4h-1.9c-0.7,0-1.3-0.6-1.3-1.3h-1.3
										c-0.1,0.7-0.6,1.3-1.3,1.3h-1.9c-0.7,0-1.3-0.6-1.3-1.3l0,0l-1.8-0.3c0,0.2,0,0.3,0,0.4c0,3.7,3,6.7,6.7,6.7s6.7-3,6.7-6.7
										c0-0.2,0-0.3-0.1-0.4L-230.1,4.4z"/>
								</g>
								<path class="st30" d="M-235.6,13L-235.6,13L-235.6,13C-235.7,13-235.7,13-235.6,13L-235.6,13c-6.8,0-12.2,6.6-12.2,10.5
									s2.6,4.3,6,4.3c3.4,0,5.9,0,6,0h0.1c0.2,0,2.7,0,6,0c3.5,0,6-0.4,6-4.3C-223.5,19.5-228.8,13-235.6,13z"/>
							</g>
						</g>
					</g>
					<g>
						<g>
							<polygon class="st7" points="-254.6,138.6 -243.6,138.6 -254.8,127.4 							"/>
							<path class="st31" d="M-250.4,134.7c3-3.6,7.6-6,12.8-6c9.1,0,16.6,7.5,16.6,16.6c0,9.1-7.5,16.6-16.6,16.6
								c-8.7,0-15.9-6.7-16.5-15.3c0-0.4-0.1-0.8-0.1-1.2"/>
							<polyline class="st31" points="-237.7,137.5 -237.7,145.2 -230.6,152.2 							"/>
						</g>
						<text transform="matrix(1 0 0 1 -201.9131 154.0885)" class="st7 st27" style="font-size:28.9307px;">Recuerdos</text>
					</g>
					<g>
						<g>
							<g>
								<circle class="st7" cx="-243.5" cy="65.1" r="6.8"/>
								<path class="st7" d="M-243.5,75.7L-243.5,75.7L-243.5,75.7L-243.5,75.7L-243.5,75.7c-7.7,0.1-13.7,7.4-13.7,11.7
									c0,4.3,2.9,4.8,6.8,4.8c3.7,0,6.6,0,6.8,0h0.1c0.2,0,3,0,6.8,0c3.9,0,6.8-0.4,6.8-4.8C-229.9,83.1-235.9,75.8-243.5,75.7z"
									/>
							</g>
							<g>
								<circle class="st7" cx="-228.7" cy="68.5" r="5.1"/>
								<path class="st7" d="M-226.8,87.4c0-3.1-2.1-7.1-5.5-10.2c1.1-0.4,2.3-0.8,3.5-0.8l0,0l0,0l0,0l0,0c5.8,0,10.2,5.5,10.2,8.8
									c0,3.3-2.1,3.6-5.1,3.6c-1.3,0-2.5,0-3.4,0C-226.9,88.4-226.8,87.9-226.8,87.4z"/>
							</g>
						</g>
						<text transform="matrix(1 0 0 1 -201.9131 88.8678)" class="st7 st27" style="font-size:28.9307px;">Amigos</text>
					</g>
					<g>
						<path class="st7" d="M-236,227.9l8.3,4.5c1.1,0.5,2.3-0.2,2.3-1.3v-33.9c0-1.2-1-2.1-2.1-2.1h-19.7c-1.2,0-2.1,1-2.1,2.1v33.9
							c0,1.2,1.2,2,2.3,1.3l8.3-4.5C-237.8,227.5-236.8,227.5-236,227.9z"/>
						<text transform="matrix(1 0 0 1 -201.9131 221.6949)" class="st7 st27" style="font-size:28.9307px;">Guardado</text>
					</g>
					<g>
						<text transform="matrix(1 0 0 1 -201.9131 292.11)" class="st7 st27" style="font-size:28.9307px;">Ver más</text>
						<g>
							<circle class="st10" cx="-237" cy="283.9" r="23.4"/>
							<polyline class="st9" points="-253.2,279.8 -237,292.1 -220.8,279.8 							"/>
						</g>
					</g>
				</g>
				<line class="st2" x1="-258.8" y1="354.8" x2="-77.5" y2="354.8"/>
				<g>
					<text transform="matrix(1 0 0 1 -260.3735 404.9069)" class="st7 st27" style="font-size:28.9307px;">Tus accesos directos</text>
					<g>
						<path class="st7" d="M-216.1,487.3h-41.8c-1.4,0-2.5-1.2-2.5-2.5V443c0-1.4,1.2-2.5,2.5-2.5h41.8c1.4,0,2.5,1.2,2.5,2.5v41.8
							C-213.6,486.2-214.7,487.3-216.1,487.3z"/>
					</g>
					<g>
						<path class="st7" d="M-216.1,554.1h-41.8c-1.4,0-2.5-1.2-2.5-2.5v-41.8c0-1.4,1.2-2.5,2.5-2.5h41.8c1.4,0,2.5,1.2,2.5,2.5
							v41.8C-213.6,553.1-214.7,554.1-216.1,554.1z"/>
						<text transform="matrix(1 0 0 1 -196.5654 539.8741)" class="st7 st27" style="font-size:28.9307px;">Familia</text>
					</g>
					<g>
						<path class="st7" d="M-216.1,621h-41.8c-1.4,0-2.5-1.2-2.5-2.5v-41.8c0-1.4,1.2-2.5,2.5-2.5h41.8c1.4,0,2.5,1.2,2.5,2.5v41.8
							C-213.6,620-214.7,621-216.1,621z"/>
						<text transform="matrix(1 0 0 1 -196.5654 606.7491)" class="st7 st27" style="font-size:28.9307px;">Club</text>
					</g>
					<g>
						<path class="st7" d="M-216.1,687.9h-41.8c-1.4,0-2.5-1.2-2.5-2.5v-41.8c0-1.4,1.2-2.5,2.5-2.5h41.8c1.4,0,2.5,1.2,2.5,2.5
							v41.8C-213.6,686.8-214.7,687.9-216.1,687.9z"/>
						<text transform="matrix(1 0 0 1 -196.5654 673.6271)" class="st7 st27" style="font-size:28.9307px;">Galactic Bowl</text>
					</g>
					<g>
						<path class="st7" d="M-216.1,754.8h-41.8c-1.4,0-2.5-1.2-2.5-2.5v-41.8c0-1.4,1.2-2.5,2.5-2.5h41.8c1.4,0,2.5,1.2,2.5,2.5
							v41.8C-213.6,753.7-214.7,754.8-216.1,754.8z"/>
						<text transform="matrix(1 0 0 1 -403.3804 740.5089)" class="st7 st27" style="font-size:28.9307px;">Vacaciones Intergalácticas</text>
					</g>
					<g>
						<path class="st7" d="M-216.1,821.7h-41.8c-1.4,0-2.5-1.2-2.5-2.5v-41.8c0-1.4,1.2-2.5,2.5-2.5h41.8c1.4,0,2.5,1.2,2.5,2.5
							v41.8C-213.6,820.6-214.7,821.7-216.1,821.7z"/>
						<text transform="matrix(1 0 0 1 -403.3804 807.381)" class="st7 st27" style="font-size:28.9307px;">Renta Casas en Saturno</text>
					</g>
				</g>
				<text transform="matrix(1 0 0 1 1252.8447 6.9864)" class="st7 st27" style="font-size:28.9307px;">Publicidad</text>
				<text transform="matrix(1 0 0 1 1252.8447 439.6129)" class="st7 st27" style="font-size:28.9307px;">Contactos</text>
				<g>
					<path class="st7" d="M1304.1,190h-46.3c-2.7,0-5-2.2-5-5V40c0-2.7,2.2-5,5-5h46.3c2.7,0,5,2.2,5,5v145.2
						C1309,187.8,1306.8,190,1304.1,190z"/>
					<text transform="matrix(1 0 0 1 1328.998 126.5812)" class="st7 st27" style="font-size:28.9307px;">Mercado</text>
				</g>
				<g>
					<path class="st7" d="M1304.1,365.8h-46.3c-2.7,0-5-2.2-5-5V215.7c0-2.7,2.2-5,5-5h46.3c2.7,0,5,2.2,5,5v145.2
						C1309,363.6,1306.8,365.8,1304.1,365.8z"/>
					<text transform="matrix(1 0 0 1 1328.998 302.3561)" class="st7 st27" style="font-size:28.9307px;">Super Mercado</text>
				</g>
				<g>
					<circle class="st6" cx="1479.1" cy="427" r="12.1"/>
					<g>
						<path class="st7" d="M1495.2,444.2c-1.4-1.3-2.7-2.7-4-4.1c-1.3-1.4-2.6-2.7-3.9-4.3c-0.2-0.2-0.1-0.4,0-0.5
							c0.2-0.1,0.4-0.1,0.5,0c1.4,1.2,2.8,2.6,4.3,3.9c1.4,1.3,2.8,2.6,4.1,4c0.3,0.3,0.3,0.7,0,1.1
							C1496,444.3,1495.5,444.3,1495.2,444.2z"/>
					</g>
				</g>
				<text transform="matrix(1 0 0 1 1519.6816 426.9948)" class="st7" style="font-family:'ArialMT'; font-size:42.6003px;">...</text>
				<g>
					<text transform="matrix(1 0 0 1 1206.7578 493.4601)" class="st7 st27" style="font-size:28.9307px;">Agente A</text>
					<g>
						<circle class="st32" cx="1271.9" cy="484.3" r="23.1"/>
						<g>
							<g>
								<path d="M1267,473.5c0.1-0.6,0.6-1.2,1.3-1.2h1.9c0.7,0,1.3,0.6,1.3,1.3h1.3c0.1-0.7,0.6-1.3,1.3-1.3h1.9
									c0.6,0,1.2,0.5,1.2,1.1l1.2-0.2c-0.7-3-3.4-5.2-6.6-5.2s-5.9,2.2-6.6,5.2L1267,473.5z"/>
								<path d="M1277.5,474.5L1277.5,474.5c0,0.8-0.6,1.4-1.3,1.4h-1.9c-0.7,0-1.3-0.6-1.3-1.3h-1.3c-0.1,0.7-0.6,1.3-1.3,1.3h-1.9
									c-0.7,0-1.3-0.6-1.3-1.3l0,0l-1.8-0.3c0,0.2-0.1,0.3-0.1,0.4c0,3.7,3,6.7,6.7,6.7s6.7-3,6.7-6.7c0-0.2,0-0.3-0.1-0.4
									L1277.5,474.5z"/>
							</g>
							<path d="M1271.9,483.1L1271.9,483.1L1271.9,483.1L1271.9,483.1L1271.9,483.1c-6.8,0-12.2,6.6-12.2,10.5c0,3.9,2.6,4.3,6,4.3
								c3.4,0,5.9,0,6,0h0.1c0.2,0,2.7,0,6,0c3.5,0,6-0.4,6-4.3C1284.1,489.7,1278.7,483.2,1271.9,483.1z"/>
						</g>
					</g>
				</g>
				<g>
					<text transform="matrix(1 0 0 1 1206.7578 560.9054)" class="st7 st27" style="font-size:28.9307px;">Agente B</text>
					<g>
						<circle class="st32" cx="1271.9" cy="551.8" r="23.1"/>
						<g>
							<g>
								<path d="M1267,540.9c0.1-0.6,0.6-1.2,1.3-1.2h1.9c0.7,0,1.3,0.6,1.3,1.3h1.3c0.1-0.7,0.6-1.3,1.3-1.3h1.9
									c0.6,0,1.2,0.5,1.2,1.1l1.2-0.2c-0.7-3-3.4-5.2-6.6-5.2s-5.9,2.2-6.6,5.2L1267,540.9z"/>
								<path d="M1277.5,541.9L1277.5,541.9c0,0.8-0.6,1.4-1.3,1.4h-1.9c-0.7,0-1.3-0.6-1.3-1.3h-1.3c-0.1,0.7-0.6,1.3-1.3,1.3h-1.9
									c-0.7,0-1.3-0.6-1.3-1.3l0,0l-1.8-0.3c0,0.2-0.1,0.3-0.1,0.4c0,3.7,3,6.7,6.7,6.7s6.7-3,6.7-6.7c0-0.2,0-0.3-0.1-0.4
									L1277.5,541.9z"/>
							</g>
							<path d="M1271.9,550.6L1271.9,550.6C1271.9,550.5,1271.9,550.6,1271.9,550.6L1271.9,550.6L1271.9,550.6
								c-6.8,0-12.2,6.6-12.2,10.5s2.6,4.3,6,4.3c3.4,0,5.9,0,6,0h0.1c0.2,0,2.7,0,6,0c3.5,0,6-0.4,6-4.3
								C1284.1,557.2,1278.7,550.6,1271.9,550.6z"/>
						</g>
					</g>
				</g>
				<g>
					<text transform="matrix(1 0 0 1 1206.7578 628.3624)" class="st7 st27" style="font-size:28.9307px;">Agente C</text>
					<g>
						<circle class="st32" cx="1271.9" cy="619.2" r="23.1"/>
						<g>
							<g>
								<path d="M1267,608.4c0.1-0.6,0.6-1.2,1.3-1.2h1.9c0.7,0,1.3,0.6,1.3,1.3h1.3c0.1-0.7,0.6-1.3,1.3-1.3h1.9
									c0.6,0,1.2,0.5,1.2,1.1l1.2-0.2c-0.7-3-3.4-5.2-6.6-5.2s-5.9,2.2-6.6,5.2L1267,608.4z"/>
								<path d="M1277.5,609.4L1277.5,609.4c0,0.8-0.6,1.4-1.3,1.4h-1.9c-0.7,0-1.3-0.6-1.3-1.3h-1.3c-0.1,0.7-0.6,1.3-1.3,1.3h-1.9
									c-0.7,0-1.3-0.6-1.3-1.3l0,0l-1.8-0.3c0,0.2-0.1,0.3-0.1,0.4c0,3.7,3,6.7,6.7,6.7s6.7-3,6.7-6.7c0-0.2,0-0.3-0.1-0.4
									L1277.5,609.4z"/>
							</g>
							<path d="M1271.9,618L1271.9,618L1271.9,618L1271.9,618L1271.9,618c-6.8,0-12.2,6.6-12.2,10.5s2.6,4.3,6,4.3c3.4,0,5.9,0,6,0
								h0.1c0.2,0,2.7,0,6,0c3.5,0,6-0.4,6-4.3C1284.1,624.6,1278.7,618.1,1271.9,618z"/>
						</g>
					</g>
				</g>
				<g>
					<text transform="matrix(1 0 0 1 1206.7578 695.8068)" class="st7 st27" style="font-size:28.9307px;">Agente D</text>
					<g>
						<circle class="st32" cx="1271.9" cy="686.7" r="23.1"/>
						<g>
							<g>
								<path d="M1267,675.8c0.1-0.6,0.6-1.2,1.3-1.2h1.9c0.7,0,1.3,0.6,1.3,1.3h1.3c0.1-0.7,0.6-1.3,1.3-1.3h1.9
									c0.6,0,1.2,0.5,1.2,1.1l1.2-0.2c-0.7-3-3.4-5.2-6.6-5.2s-5.9,2.2-6.6,5.2L1267,675.8z"/>
								<path d="M1277.5,676.8L1277.5,676.8c0,0.8-0.6,1.4-1.3,1.4h-1.9c-0.7,0-1.3-0.6-1.3-1.3h-1.3c-0.1,0.7-0.6,1.3-1.3,1.3h-1.9
									c-0.7,0-1.3-0.6-1.3-1.3l0,0l-1.8-0.3c0,0.2-0.1,0.3-0.1,0.4c0,3.7,3,6.7,6.7,6.7s6.7-3,6.7-6.7c0-0.2,0-0.3-0.1-0.4
									L1277.5,676.8z"/>
							</g>
							<path d="M1271.9,685.4L1271.9,685.4L1271.9,685.4L1271.9,685.4L1271.9,685.4c-6.8,0-12.2,6.6-12.2,10.5c0,3.9,2.6,4.3,6,4.3
								c3.4,0,5.9,0,6,0h0.1c0.2,0,2.7,0,6,0c3.5,0,6-0.4,6-4.3C1284.1,692.1,1278.7,685.5,1271.9,685.4z"/>
						</g>
					</g>
				</g>
				<g>
					<text transform="matrix(1 0 0 1 1206.7578 763.2579)" class="st7 st27" style="font-size:28.9307px;">Agente E</text>
					<g>
						<circle class="st32" cx="1271.9" cy="754.2" r="23.1"/>
						<g>
							<g>
								<path d="M1267,743.3c0.1-0.6,0.6-1.2,1.3-1.2h1.9c0.7,0,1.3,0.6,1.3,1.3h1.3c0.1-0.7,0.6-1.3,1.3-1.3h1.9
									c0.6,0,1.2,0.5,1.2,1.1l1.2-0.2c-0.7-3-3.4-5.2-6.6-5.2s-5.9,2.2-6.6,5.2L1267,743.3z"/>
								<path d="M1277.5,744.3L1277.5,744.3c0,0.8-0.6,1.4-1.3,1.4h-1.9c-0.7,0-1.3-0.6-1.3-1.3h-1.3c-0.1,0.7-0.6,1.3-1.3,1.3h-1.9
									c-0.7,0-1.3-0.6-1.3-1.3l0,0l-1.8-0.3c0,0.2-0.1,0.3-0.1,0.4c0,3.7,3,6.7,6.7,6.7s6.7-3,6.7-6.7c0-0.2,0-0.3-0.1-0.4
									L1277.5,744.3z"/>
							</g>
							<path d="M1271.9,752.9L1271.9,752.9L1271.9,752.9L1271.9,752.9L1271.9,752.9c-6.8,0-12.2,6.6-12.2,10.5s2.6,4.3,6,4.3
								c3.4,0,5.9,0,6,0h0.1c0.2,0,2.7,0,6,0c3.5,0,6-0.4,6-4.3C1284.1,759.5,1278.7,752.9,1271.9,752.9z"/>
						</g>
					</g>
				</g>
				<g>
					<text transform="matrix(1 0 0 1 1206.7578 830.7159)" class="st7 st27" style="font-size:28.9307px;">Agente F</text>
					<g>
						<circle class="st32" cx="1271.9" cy="821.7" r="23.1"/>
						<g>
							<g>
								<path d="M1267,810.7c0.1-0.6,0.6-1.2,1.3-1.2h1.9c0.7,0,1.3,0.6,1.3,1.3h1.3c0.1-0.7,0.6-1.3,1.3-1.3h1.9
									c0.6,0,1.2,0.5,1.2,1.1l1.2-0.2c-0.7-3-3.4-5.2-6.6-5.2s-5.9,2.2-6.6,5.2L1267,810.7z"/>
								<path d="M1277.5,811.7L1277.5,811.7c0,0.8-0.6,1.4-1.3,1.4h-1.9c-0.7,0-1.3-0.6-1.3-1.3h-1.3c-0.1,0.7-0.6,1.3-1.3,1.3h-1.9
									c-0.7,0-1.3-0.6-1.3-1.3l0,0l-1.8-0.3c0,0.2-0.1,0.3-0.1,0.4c0,3.7,3,6.7,6.7,6.7s6.7-3,6.7-6.7c0-0.2,0-0.3-0.1-0.4
									L1277.5,811.7z"/>
							</g>
							<path d="M1271.9,820.3L1271.9,820.3L1271.9,820.3L1271.9,820.3L1271.9,820.3c-6.8,0-12.2,6.6-12.2,10.5c0,3.9,2.6,4.3,6,4.3
								c3.4,0,5.9,0,6,0h0.1c0.2,0,2.7,0,6,0c3.5,0,6-0.4,6-4.3C1284.1,826.9,1278.7,820.4,1271.9,820.3z"/>
						</g>
					</g>
				</g>
				<line class="st2" x1="1252.8" y1="394.9" x2="1542" y2="394.9"/>
			</g>
		</g>
		<rect x="23" y="-117.8" class="st33" width="1292.8" height="1020.7"/>
		<g>
			<path class="st7" d="M725.4,98.3h-40.8c-2.6-7.9-7.2-15.2-13.5-20.9c-9.1-8.3-20.9-13-33.3-13c-12.3,0-24.2,4.6-33.3,13
				c-6.3,5.8-10.9,13-13.5,20.9h-40.8c-12.2,0-22.2,9.9-22.2,22.2v0.7c0,9.2,5.6,17.1,13.7,20.4c-0.4,1.8-0.5,3.6-0.4,5.5
				l11.5,173.4c0.8,12.4,11.2,22.1,23.5,22.1h122.5c12.3,0,22.7-9.8,23.5-22.1l11.5-173.4c0.1-1.9,0-3.6-0.4-5.4
				c8.2-3.3,14-11.3,14-20.6v-0.7C747.5,108.2,737.6,98.3,725.4,98.3z"/>
			<g>
				<g>
					<path d="M725.4,110.3H675c-1.7-19-17.7-33.9-37.1-33.9c-19.4,0-35.4,14.9-37.1,33.9h-50.6c-5.7,0-10.2,4.6-10.2,10.2v0.7
						c0,5.7,4.6,10.2,10.2,10.2h175.1c5.7,0,10.2-4.6,10.2-10.2v-0.7C735.6,114.8,731,110.3,725.4,110.3z M637.9,94.1
						c9.7,0,17.7,7,19.2,16.1h-38.5C620.2,101.1,628.2,94.1,637.9,94.1z"/>
				</g>
				<g>
					<path d="M698.9,330.8H576.4c-6,0-11.2-4.9-11.5-10.9l-11.5-173.4c-0.3-4.1,2.3-7.4,5.8-7.4h157.1c3.5,0,6,3.3,5.8,7.4
						l-11.5,173.4C710.1,325.9,704.8,330.8,698.9,330.8z"/>
				</g>
				<g>
					<path class="st7" d="M596.8,310.5h-0.9c-2.7,0-5.1-2.3-5.2-5.1l-5.9-139.8c-0.2-3.6,2.3-6.6,5.5-6.6h1c3.2,0,5.9,2.9,5.9,6.6
						l4.5,139.8C601.8,308.2,599.6,310.5,596.8,310.5z"/>
					<path class="st7" d="M679.3,310.5h-0.9c-2.7,0-5-2.3-4.9-5.1l4.5-139.8c0.1-3.6,2.7-6.6,5.9-6.6h1c3.2,0,5.6,2.9,5.5,6.6
						l-5.9,139.8C684.4,308.2,682.1,310.5,679.3,310.5z"/>
				</g>
				<path class="st7" d="M642.4,310.8h-9.5c-0.9,0-1.6-0.7-1.6-1.6V160.6c0-0.9,0.7-1.6,1.6-1.6h9.5c0.9,0,1.6,0.7,1.6,1.6v148.7
					C644,310.1,643.3,310.8,642.4,310.8z"/>
			</g>
		</g>
		<g>
			<g>
				<g>
					<path d="M456,584.7c0,0-41.9,3.6-44.3,3c-2.5-0.6-17.4,22.3-20.5,23.2c-3,0.9-77.4,17.1-85.2,19.2c-7.6,2.1-12.6,41.9-13,62.9
						c-0.3,21.1-1.9,77.3,0.9,88.9c2.7,11.6,9.5,33.6,15,39.1c5.5,5.5,20.8,14.6,24.7,14.6c4,0,6.7,0.6,6.7,0.6s8.2,46.6,8.6,90
						c0.4,31.1-7.9,64.8-7.9,64.8s88.3,34.3,237.4-6.9c-1.1-21.7-6.3-34.5-6.9-49.4c-1.5-37.6,2.8-60,2.8-60s21.7-3.8,28.8-20
						c7-16.2,14.4-68.1,12.5-83.4c-1.9-15.3-4.3-124.6-6.8-137.8c-2.5-13.1-32.9-17.7-51.1-23.3c-14.3-4.4-42.4-10.9-46.1-12.1
						c-3.6-1.2-9-11.1-12.3-16.2C496.1,576.8,473.7,584,456,584.7z"/>
					<g>
						<path class="st34" d="M410.8,589.1c0,0-8.3-2.9-6.5,22.5c0.4,5,31.2,131.2,58.4,195.1c-17.2-36-35.3-88.2-43.1-119.5
							c-5.9-24-19.8-20.3-24.6-38.7c-4.3-16.9-6.6-30.2-6.8-31.3c-6.8,3-5.4,13.2-5.9,12.5c-0.4-0.7-3.1-15.4-12.5-13.8
							c-9.4,1.6-60.1,13.8-60.1,13.8s20.1,18.2,23.6,26.7c4.1,10.1,8.9,35.1,8.9,35.1s-8.4-27.6-11.6-34.1
							c-1.6-3.2-22.4-23.7-25.5-22.8c-3.1,0.9-4.2,31.7-4.6,40.7c-0.1,2.7,10.3,34.3,17.7,45.6c7.4,11.2,9.4,11.9,9.4,11.9
							s-11.2-9.2-15.7-15.7s-10.3-11.9-10.3-10.7s-0.3,27-0.4,33c-0.2,6,2.5,22,5.9,28c3.4,6,9,15.3,9,15.3S303.7,768.3,302,767
							c-1.8-1.3-5-9.7-5-9.7l-2.1,16.8l11.6,41.1l9.2,6.7l5.9,9.7c0,0-15-9.4-16.9-13c-1.8-3.5-4.7-13.5-7.2-21.1
							c-2.5-7.6-6.5-19.5-7.4-37c-0.9-17.5,2.7-66.4,2.5-77.9c-0.3-11.4,5.1-25.5,7.2-34.6c2-9-0.1-19.7,8.9-23.3
							c9-3.5,84.6-18.6,85.1-19.2c9.3-13,10.8-14.4,13.5-16.8c0.9-0.8,2-1.2,3.2-1.2l4.6,0.1L410.8,589.1z"/>
						<path class="st34" d="M315.9,824.9l-3-13c0,0-7.3-13.5-10.5-25.5c0.4,7.9,5.9,23.2,5.9,23.2l2,10L315.9,824.9z"/>
						<path class="st34" d="M313.2,817c-0.4-0.6-5.4-20.8-7-25.2c-1.6-4.3-2.7-9.4-2.7-9.4s10.8,25.1,11.4,26.8
							C315.4,811,313.2,817,313.2,817z"/>
					</g>
					<g>
						<path class="st34" d="M491.8,580.9c0,0,11.3,1.6,10.5,27.1c-1.2,40.1-8,82.9-32.6,147.5c20.1-24.2,51.9-143.2,52.5-146.1
							c6.6,3,5.2,13.2,5.7,12.5c0.4-0.7,3-15.4,12.1-13.8s57.9,13.8,57.9,13.8s-13.8,18.1-17.2,26.6c-3.9,10.1-14.3,35.1-14.3,35.1
							s13.7-27.6,16.9-34.1c1.5-3.2,16.1-23.7,19.1-22.8c3,0.9,3.2,67.1,3.6,76.2c0.1,2.7-9.9,34.3-17,45.6c-7.1,11.2-9,11.9-9,11.9
							s10.7-9.2,15.1-15.7c4.3-6.5,9.9-11.9,9.9-10.7s0.2,27,0.4,33c0.2,6-1.1,35-4.3,41.1s-8.6,15.3-8.6,15.3s11.6-14.4,13.4-15.7
							c1.7-1.3,4.7-9.7,4.7-9.7l2,16.8l-11.2,41.1l-8.9,6.7l-5.8,9.7c0,0,14.5-9.4,16.1-13c1.7-3.5,4.5-13.5,6.9-21.1
							c2.4-7.6,6.2-19.5,7.1-37c0.9-17.5-3.4-115-3.1-126.4c0.3-11.4,0.7-25.5-1.2-34.6c-2-9-5.4-19.7-14-23.3
							c-8.6-3.5-87-20-87.4-20.6c-10.6-15.6-7.6-12.1-10.3-14.5c-0.8-0.8-3.5-2.1-4.6-2.1l-5.2,0.3L491.8,580.9z"/>
						<path class="st34" d="M592.4,865.6l2.9-13c0,0,7-13.5,10-25.5c-0.4,7.9-5.7,23.2-5.7,23.2l-1.9,10L592.4,865.6z"/>
						<path class="st34" d="M594.9,857.8c0.4-0.6,5.2-20.8,6.7-25.2c1.5-4.3,2.7-9.4,2.7-9.4s-10.4,25.1-10.9,26.8
							C592.8,851.7,594.9,857.8,594.9,857.8z"/>
					</g>
					<g>
						<path class="st34" d="M414.1,575.6c0.1,0.4,0.2,1.8,0.2,14.5c-2.6-0.3-6.6,1.3-6.6,5.9c0,23,22,92,22.4,90.7
							c5.7-15.3,11.2-30.3,25.5-37.3c29.4,14.3,30.8,37.1,30.8,37.1s12.2-52.2,8.2-100c-0.2-1.7,0.1-5.1-2.5-5.7
							c-1.7-6.5-4.3-13.4-4.8-21.9C486.4,541,414.1,575.6,414.1,575.6z"/>
						<path d="M427.3,575.8c0.1,1.1,5.8,33.8,3.8,42.6c-0.7,3.1-14.5-16.1-14.5-15.3c-0.2,2.6,13.3,29.3,39.4,45.7
							c20.1-20.7,36.8-49.1,36.8-49.1s-11.3,15.4-11.9,9.9c-1.4-13.3-3.9-38.1-4.3-50.6C475.9,541.3,427.3,575.8,427.3,575.8z"/>
					</g>
					<g>
						<path class="st34" d="M393.4,536.6c0.1-1.2-3.3-20-5.3-23.9c-2-4-4-13.8-5.9-17.2c-2-3.4,0.7-21.1,1.2-22.4
							c0.5-1.2,4.5-4.6,6.5-4.6c2,0,3.5-10.8,3.5-13.1c0.1-2.3,19.2-8.5,21.7-11.7c2.6-3.1,14.7-5.1,15.3-4.5s7.7-2.3,10-1.2
							c2.3,1.2,10.9,3.5,12.4,5.1c1.5,1.7,9,3.5,9,5.7c0,2.2,5.1,9.9,5.1,9.9s8.9,1.1,11.1,2.2c2.3,1.2,6.6,14,8,17.1
							c1.4,3.1-0.3,29.4,2,29.9c2.3,0.5,1.1,16.8,1.1,16.8l-93,13.1"/>
						<path d="M398.6,534.4c-0.6-0.6-3.3-5.7-3.8-6.7c-0.5-0.9-0.9-4.3-1.3-5.7c-0.4-1.4-1.3-3.8-1.4-5.6c-0.1-1.7,0.9-4.6-0.1-4.9
							c-1.1-0.3-2.2-2.4-2.4-2.9c-0.1-0.5,0.5-4.3,0.1-4.6c-0.4-0.3-1.3-3.3-1.7-4.1c-0.4-0.8-1.4-4.5-1.2-5.3
							c0.3-0.8,0.5-3.5,0.1-4.3c-0.4-0.8,0-3.5,0-4.8c0-1.2,0.1-5.1,0.4-5.9c0.3-0.7,0.6-4.6,0.6-4.6l2.7-1.2c0,0,3.7-2.7,4.3-2.5
							c0.6,0.3,3.8,2.1,4.3,2.1s-4.4-5.6-3.9-5.9c0.5-0.4-2.5-1.1-2.5-1.1L396,456l3.4-2.9c0,0,9.6-4.2,10.6-4.3
							c1.1-0.1,9.7-6.9,9.7-6.9s6.3-1.5,10.6-1.4c1.4,0.1,6.3-0.6,6.9-1.9c0.6-1.2,9.8,6.6,10.6,6.3c0.8-0.3,5.7,3.5,5.7,3.5
							s6.5,0.2,6.9,1.4c0.7,1.9,3.9,9.8,2.4,7.7c0,0,4,4.8,4.9,6.2c0.4,0.5,5.9-0.8,7.2-0.3c1.3,0.5,4.3,2.4,4.6,3.8
							c0.4,1.4,1.3,3.7,1.3,3.7s0,5.1,1.3,5.9c1.3,0.8,2.2,7.3,2.2,7.3l0.3,7.2c0,0,0.1,5.9,0.1,6.5c0,0.6,1.3,9.6,1.3,9.6l0.3,3
							l-5.4,4.3L398.6,534.4"/>
						<path d="M443.3,584.4c4.5,0,17.8-2.6,26.5-9.5c8.7-6.9,17.1-22.5,17.5-27.7c0.4-5.1,1-7.4,1-7.4s8.2,0.6,9.6-9.6
							s1-27.6-4.3-27.4c-7.3,0.3-5.7,10.3-5.7,10.3l-5.4,1.3c0,0-2.1-16.8-3.2-22.2c-1.1-5.4-6.2-12-10.9-14.2
							c-4.7-2.2,3.3-7.3-5.9-12.3c-9.1-5.1-21.8-6.6-32-1.9c-8,1.1-16,2.2-22.2,5.9c-6.2,3.6-10.6,10.6-10.6,19.2s3.3,11.2,0,12.6
							c-3.3,1.4,0.2,26.1,0.5,30.1l-4.2-0.4c0,0-2-7.5-6.6-7.5c-7.2,0,0.4,21.3,2.2,26.4c1.9,5.1,4.3,9.1,12.8,7.6
							c2.2,10.6,4.5,18.9,20,22.9C432.4,583.3,438.7,584.4,443.3,584.4z"/>
						<path class="st34" d="M416,577.6c0,0,7.3,2.6,14.5,2.7c-2.8-6.9-6.5-9.6-8.4-11.7c-1.9-2.1-1.7-6.1-1.2-10.9
							c-2.4-4.5-2.3-10.1,2.1-17.2c-1.2-1.2-0.7-2-1-4.8c-0.3-2.8-2.8,0.4-2.6,4s-3.8,7.1-7.5,7.8c-3.7,0.7-4.7-9-2.4-13
							c2.4-3.9,2.7-8.6-1.3-10.7c-3.9-2.1-3.7-6.2-2.5-9.5c2.5-6.7,3.3-5.1,9.7-9.8c1.7-1.2-0.3-5.4-6.6-3.1c-2.9,1.1-10,7.6-9,5.9
							c12-20.1,31.8-8.3,31.2-11.4c-0.2-1,0.1-5.1,0.4-9.7c0.7-10.6-7.2-24.8-20.6-17.7c-4.7,2.5-14.6,13.7-13.2,20.7
							c1.4,6.8,2.8,9.9-0.3,11.9c-3.1,1.9,0.4,25.4,0,31.3c-0.4,5.9,1,13.3,4,20.4C404.6,559.7,399.6,569.8,416,577.6z"/>
						<path class="st34" d="M474.3,570.6c0,0-4.7,6.3-15.4,10.4c6.7-5.3,7.1-4.8,7.8-9.3c1.9-11.6,1.2-13.2,2-14.7
							c1.2-2.6,0-6.4-1.7-10.8c1.2-5-0.8-9.3-7-15.1c0.8-1.4,0.6-3.1,0.1-5.9c-0.5-2.8,2.8-0.3,3.5,3.2c0.7,3.5,5.5,5.9,9.3,5.6
							s2.2-9.9-1.1-13.1s-4.8-7.6-1.5-10.7c3.2-3.1,2-6.9-0.1-9.8c-2-2.8-6.7-9.7-3.6-9.2c3,0.4,2.2,0.3,3.8-0.9
							c1.7-1.2-11.2-12.5-11.5-15.6s0.8-7.3-2.5-11.5c-3.4-4.2,11.4,3,11.9,10c0.4,7,1,5.5,5.9,9c5,3.5,8.3,22.8,8.9,33.4
							c0.3,5.9,2.5,7.6,3.7,15.3C489.1,545.4,489.1,550.9,474.3,570.6z"/>
						<path class="st34" d="M488.2,539.9c0,0,7.7,0,8.2-10.9c0.3-5.9-0.5-20.1-1.6-22.4c-1.6-3.4-5.3-0.4-6.8,1.5
							c-0.8,0.9,1.4-8.2,6.7-5.9c5.2,2.3,3.7,15.6,4,22.6C499.1,537.4,492.1,540.8,488.2,539.9z"/>
						<path class="st34" d="M402.5,555.3c-7.8,3.4-9.2-0.2-11.2-5.3c-0.5-1.2,0.6-2.5,1.6-3.3v0.1l3.3-2.6c0,0,0-3.5-3.3-1.4
							c0,0-1.3-2.6-2.4-7.2c-1.1-4.6,0-7.9,0-7.9c0.6,1,1.2,2.1,1.4,2.9c0.6,1.7,4.3,6.4,4.3,4.5c-0.1-1.1-2.1-3.8-3.2-7.6
							c0.3,0.2,0.1-0.4-0.4-1.1c-0.4-0.9-1.1-1.5-1.6-1.8c-1.6-1.5-3.9-2.6-6.1-0.7c-4.3,3.8,1.2,16.1,3.1,22.7
							c3.4,12.1,11.1,13.2,14.5,11.2C402.5,557.9,404.7,554.3,402.5,555.3z M386.1,528.2c0.2-1.3,0.9-2,1.9-2.1c0.1,0,0.2,0,0.4,0
							l0,0c0.2,0,0.4,0,0.5,0c-0.4,2-0.9,5.1-1,7.5c-0.2,3,2.7,8.4,3.8,10.4c-0.3,0.7-0.9,1.7-1.5,2.5
							C388.1,539.9,385.8,530.2,386.1,528.2z"/>
						<path class="st34" d="M425.1,572.2c-0.7,2.5,0.8,5.6,3,7c5.4,3.4,16.1,4.3,16.1,4.3s-10.5-3.1-10.1-12.2
							c0.3-5.8,11.1-6.1,11.1-6.1c3.4-0.6,12.2,1,14.2,3.3c-10.6-9.6-15.1-5.9-17.4-9.2c-2.3-3.3-1.3-6.3-1.3-6.3s3.2,0.9,6.3-4.4
							c0.3-2.8-0.2-1.7-5.4-2.5c-3.2-0.4-5.9-0.4-8.7,1.8c-4.3,3.3-4.5,4.6-6.1,4.9c-1.5,0.3-2.9-0.6-3.6-2.7
							c-0.6-2,0.5,2.8,4.5,0.2c4-2.7,7.4-9.1,9-8.8c1.7,0.4-1-7.5-1-7.5s-3.6-0.6-4.8-2.5c-3.6,7.9-4.8,7.4-5.9,10
							c-1.1,2.7-6.2,9.3-0.9,14.1C422.6,563.1,423,569.3,425.1,572.2z"/>
						<path class="st34" d="M420.8,548.1c5.4-16.6,8.9-12.4,8.9-15.7c0-3.4,1.7-8.3,5.3-11c-2.3,4.7-4.3,7.4-2.7,8
							c2-2,3-2.7,5.7-1.3c2.7,1.3,2.9-3.3,3.1-5.1s-1.8-5.9-2.6-6.4c-0.8-0.5-0.8-0.6-1.8-5.8c-1-5.1-2.7-10.1-2.5-11
							c0.4-0.8-2-1.5-2,0.6c0,2.1,1.5,14.1-4.9,17.3c-6.4,3.3-9.5,2-9.5,2s2.7-3.7,2.5-5.1c-5.6,1.6-11.3,0.6-12.6-0.6
							c-5.1,5.6-9.8,6.7-9.7,14.2c0.2,7.5,5.4,32.9,11,38.1c5.6,5.2,9.5,7.5,12.4,7.7c1.4,0.1-0.6-3.2-1.5-8.2
							C419.1,560.5,419.1,553.3,420.8,548.1z"/>
						<path class="st34" d="M470.1,503.9l-4.2-2.7c0,0-0.5,2-6.2,4.3C459.7,505.5,468.4,506.4,470.1,503.9z"/>
						<path class="st34" d="M469.3,499.9c0,0-3.2-7.2-9.6-6c-6.4,1.2-13.4,2.1-13.4,2.1s17.7-4.9,20.4-4.9c0,0,4.6,4.3,5.4,5.6
							C472.9,498,469.3,499.9,469.3,499.9z"/>
						<path class="st34" d="M433.2,495.7c-1.2-0.3-1.3-3.5-1.3-5s-0.4-7.8-0.4-7.3c0.1,2,2.3,2.7,2.7,2.9c0.4,0.3,3.3,9.1,2.5,9.5
							S433.2,495.7,433.2,495.7z"/>
					</g>
					<g>
						<g>
							<g>
								<g>
									<g>
										<path d="M483.5,488.9c-0.2-0.9-0.5-1.7-0.7-2c-0.5-1.2-1.8-1.2-6.8-0.9c-3,0.2-7.1,0.5-10.9,0.9h-0.3
											c-8.3,0.7-15.2,3-17.9,4.2c-2.5,1.1-5.4,3.6-5.7,4.8c0,0.1,0,0.3,0,0.4c-1.2,0.6-2.8,1-4.9,1.1c-0.3,0-0.9,0-1.4-0.1
											c0-0.2-0.1-0.4-0.2-0.5c-0.5-1.1-4.1-2.8-6.7-3.3c-2.9-0.5-10.2-1-18.4,0.4l-0.3,0.1c-3.8,0.6-7.8,1.3-10.8,1.9
											c-5,1-6.1,1.2-6.4,2.6c-0.1,0.4-0.2,1.2-0.2,2.1c0,0.6,0.1,2.7,2,2.9c0.1,0,0.3,0,0.4,0.1c1,0.1,1.2,0.3,1.2,0.5
											c0.1,0.3,0.3,0.9,0.5,1.5c1.4,4.1,2.8,8.2,4.2,9.8c0.3,0.4,0.5,0.7,0.8,1.1c1.2,1.5,2.4,3.3,5.9,4.2
											c2.7,0.7,6.7,1,10.6,0.5c1.6-0.2,3.2-0.5,4.6-1.1c5.1-1.8,9-5.5,9.8-9.4c0.3-1.2,0.6-3,1.1-4.9c0.4-1.7,0.8-3.8,1.2-5.4
											c0.7,0.2,1.5,0.2,2.1,0.2c0.7,0,1.3-0.1,2-0.2c1.6-0.2,3-0.6,4.3-1.2c0.8,1.5,1.8,3.5,2.5,5.1c0.8,1.8,1.6,3.4,2.2,4.5
											c1.9,3.6,6.6,6.2,11.9,6.7c1.5,0.1,3.1,0.1,4.7-0.1c3.9-0.5,7.7-1.8,10.2-3.2c3.2-1.8,4-3.7,4.7-5.5
											c0.2-0.4,0.4-0.8,0.5-1.2c0.9-1.9,1.2-6.2,1.6-10.5c0.1-0.7,0.1-1.3,0.2-1.6c0-0.3,0.2-0.4,1.1-0.8
											c0.1-0.1,0.3-0.1,0.4-0.2C484.1,491.5,483.6,489.6,483.5,488.9z"/>
									</g>
								</g>
							</g>
						</g>
						<path class="st7" d="M393,500.6c-0.2-1.7,0.3-3,4.3-3.8c4-0.8,17.7-3.6,25.7-3.1c8.1,0.5,10.7,3.5,10.7,3.5s-7.4-2.7-18.2-1.5
							c-10.8,1.2-18.2,2.3-17.6,5s3.3,11.9,5.4,15.4c1.9,3.1,12.5,4.3,18.3,1.7c0,0-3.8,2.8-13.6,2.1c-6.8-0.4-8.3-7.8-9.8-12.1
							c-2-5.8-2-5.9-3.5-5.8S393.2,502.3,393,500.6z"/>
						<path class="st7" d="M462.9,487.8c0,0,17.1-1.8,18.4-1.3c1.3,0.4,2,4.1,1.8,4.3c-0.3,0.3-2.2,1.2-2.5,1.3s-0.7,12.1-4.1,16.5
							c1.6-5.6,2.6-16.1,2.3-17.7c-0.3-1.6-0.4-3-3.1-3.1C473.1,487.7,462.9,487.8,462.9,487.8z"/>
						<path class="st7" d="M444.2,494c0,0-2.2,1.5-0.3,5.9c2,4.3,3.5,13.4,14.6,14.5c0,0-7.1-0.9-10.7-8.3
							C444.2,498.6,444.2,494,444.2,494z"/>
					</g>
					<path class="st35" d="M456.8,652.3c0,0,6.8,7.3,9.5,13.6c2.7,6.3-2.1,16.1-3.1,18.8s-11,1.4-13.1,0.6
						c-2.1-0.8-5.6-15.5-5.8-16.9C444.2,666.9,452.9,653.8,456.8,652.3z"/>
					<path class="st35" d="M449,689.2c0,0,4.6,3,13.6-0.4c5.7,31.9,6.7,38.1,6.7,38.1s-14.5,37.5-14.4,36.8s-11.8-36.5-11.8-36.5
						L449,689.2z"/>
					<g>
						<path class="st34" d="M397.1,857c0,0-13.6-1.3-15.1-2.2c-1.5-0.9-13.3-12.9-15.9-18.5c-2.6-5.7-3.9-11.8-5.1-14.1
							c-1.2-2.2-1.8-1.8-2.1,0.4c-0.4,2.2-5.4,14.4-5.9,16.5c-0.6,2.1-3,6.5-8.5,5c-5.1,5.1-9.3,2.8-9.8,0.2
							c-0.4-2.7,1.3-27,2.2-31.6s22.2-17.8,24.8-19.4c2.7-1.7,29.2,1.7,31.6,3.1c2.4,1.5,2.6,7.2,3.5,10.2c1,3,8.8,14.8,9,15.3
							C406.1,822.3,397.1,857,397.1,857z"/>
						<path d="M336.1,844c0,0,2.2-29.4,3.5-31.6c1.2-2.2,20.2-16.3,21.2-17c1.1-0.7,2.8-2.7,8.1-2.6c5.2,0.1,22.6,4.2,23.2,5.2
							s1.8,5.4,2.2,6.6c-2.4-2.2-3.9-3.7-3.9-3.7s5.2,7.9,6.3,9.4c1.1,1.5,3,6.6,5.4,7.6c2.4,1.1,6.6,6.1,6.9,7.9
							c0.4,1.8-8.1,25.9-11.8,27c-3.7,1.1-2.2,2.6-9.6,1.5c-6.7-1-5.4-1.3-9.4-5.3c-4.3-4.3-9.2-8.5-10.8-12.3
							c-1.7-3.9-5.7-12.3-7-12.5c-1.3-0.2-5.5,10.7-7.4,15c-1.8,4.2-3.7,6.8-8.5,5C341.5,847.1,336.6,848,336.1,844z"/>
					</g>
					<g>
						<path class="st34" d="M441.6,666.6c0,0-10.9-20.1-13.3-21.7c-2.4-1.6-2.8-5.7-3.6-10.5s-1.7-14.1-1.2-18.2
							c0.4-4-2.7-8.1-1.2-9.7c1.6-1.6,8.2,0.1,9.5,3.7c1.2,3.6,1.7,10.8,1.7,12s2.9,4,2.9,4s0.8-16.1,0-21.4
							c-1.2-7.5-2.1-22.3-2.1-22.3l0.1-19.6l1.2-8.4c0,0,1.8-3.8,6-4c3.6-0.2,4.6,4.4,4.9,10.5c0.1,3.7,2,22.2,2,22.2
							s3.3,14.6,4.5,16.7c1.2,2,7.1,6.7,9.1,3.5c2-3.2,8.4-7.6,11.3-7.6c2.8,0,6,2.7,7.2,6c1.2,3.2,1.2,12.2,1.2,12.2s6-0.9,8.9,1.9
							c1.4,1.4,1.6,8.4,1.6,8.4s6.7,0.4,7.6,2.8c2,5.1-0.4,12.1-3.6,14.9c0.8,9.7-8.1,32.6-10.9,35.5s-15.7,7.6-18.5,9.7
							C464.1,689.2,441.6,666.6,441.6,666.6z"/>
						<path d="M471.1,681.6c3.5-3.4,12.9-14.5,15-18.5c2.1-4,4-18.9,4.2-20.6c-2.5,1.2,1.1-1.4,2-4.3s-1.9-8.3-0.6-9
							s7.3-1.4,7.3-1.4s2.5-2.9-7.7-2.9c-10.2,0-13.7-1.7-15.3-0.2c-1.7,1.4-4.2,2.5-4.2,2.5s-0.2-7.9,5.9-8.3s14.5,0.6,14.5,0.6
							s-1.1-6-6.8-5.2c-5.9,0.8-15.2,0.8-15.2,0.8s7.5-8.1,8.4-10.5c0.4-1.1,3.9,2.6,4.9,4.6c-3.4-9.6-2-11-8.2-12.8
							c-6-1.8-7.9,3.9-13.1,8c-2.1,1.7-4.1,2.5-5.9,3c-2.2,0.6-8.5-18.4-8.8-21.4c-0.4-4.4-1.2-18.6-1.7-21.4
							c-0.5-3.5-0.2-11.8-1.4-12.8c-1.2-1.1-2.7-1.7-4.3,0c-1.5,1.5-2.3,3.4-2.7,9c-1,12.4-2,12.4-1.7,17.1
							c0.4,4.1,0.9,20.7,1.8,23.9c1.9,6.4-0.1,10.5,1.1,14.8c1.9,7.2,0,5.1,0.1,7.2c0.1,3.5-0.1,1.4-0.1,1.6c0,0.6,0.4,1.8-1.4,2
							c-1.9,0.2-4-3.6-4.2-5.9c-0.2-2.3-0.4-10.4-2-11.4c-1.7-1.1-1.2,0-1.2,1.2c0,2.1,1.2,9.6,1.5,13.5c0.2,4,5.4,26,6,28.5
							c0.6,2.5,2.9,4.9,5.2,7c2.3,2,3.9,7.9,5.9,10.1S471.1,681.6,471.1,681.6z"/>
						<path d="M431.7,649.3c0,0-4.1-7.2-5-8.2s-2.4-12.5-2.7-15c-0.3-2.5-0.2-12.6-0.5-13.8c-0.4-1.2-3.3-6.6,2.5-5.9
							c-3-1.7-5.2,0.6-4.5,2.8c0.7,2.2,1.8,9.8,2,13.6c0.2,3.7,1.1,15.7,2,18.1C426.3,643.2,431.7,649.3,431.7,649.3z"/>
						<path d="M425.6,608.2c0,0,1.9,1.2,2.1,1.5c0.3,0.3,0.9,4.6,0.8,5.1c-0.1,0.4-0.4,0.8-0.4,0.8l-2.3-1.1c0,0,1.4,0.5,1.5-0.4
							C427.3,612.9,426.9,608.7,425.6,608.2z"/>
						<path d="M430.4,616.7c-0.7,0.6-1.8,0.9-1.7,1.8c0.1,0.9,1.3,5.8,1.3,6.7c0,1,0.2,4.2,0.2,5c0,0.8,0.1,3.9-0.2,5.7
							c-0.3,1.8,0.6,4.4,1.2,5.4c0.6,1.1,3.1,6.1,3.1,6.1l2.4,5l2.2,2l0.7-6.9l-6.8-21.5L430.4,616.7z"/>
						<path class="st34" d="M441,558.9c0,0-2.1,0.3-2.5,0.5c0-3.8,0.7-7.3,1-7.6c0.3-0.4,2.3-1.2,2.9-1l-0.3,8L441,558.9L441,558.9z
							"/>
						<path class="st34" d="M436.8,564.1c0-0.2,1-4.1,3.3-4.2c2.3-0.1,0.1,1.1-0.6,2.5c-0.8,1.4-1.5,8.7-0.6,9.1
							c0.8,0.4,2,1.4,2,1.4s-3.8,1.9-4,3.3c-0.1,1.4,2,25,2.7,25c5-0.5,1.1,2.6-0.8,6.2s-1.5,1.5-1.5,1.5s-1.2-18.4-1.5-20.4
							c-0.3-2-0.7-13.3-0.5-15.2C435.5,571.5,436.8,564.1,436.8,564.1z"/>
					</g>
					<g>
						<path class="st34" d="M463.7,661.8c7.5,4.6,21.3,21,23.1,23.1c1.8,2-36.5,59.9-43.3,70.5c-6.7,10.6-45.9,42.6-56.8,50.8
							c-10.9,8.3-44.9,28-53.1,29.5c-8.3,1.6-16.1-6.5-18.7-12.2c-2.6-5.7-10.6-38.7-8.8-46.9c1.8-8.3,23.1-32.6,34-42.3
							c10.9-9.6,89.8-72.6,89.8-72.6s2.3-1.3,4.7,1.1C438.6,655.1,451.5,654.3,463.7,661.8z"/>
						<path d="M480.8,693.1c0,0-7.5-15.3-44.8-28.9c-2.9-1.1-5.7-1.1-8.1,2S411.5,682,411.5,682s-1.4,0.6,2.3-0.4
							c5.3-1.3,10.6-5.3,10.6-5.3s-16.1,12.5-18.2,13.7c-2,1.1-13.6,6.8-16.4,8.8c-2.8,2-35.7,28.4-37.9,31.5
							c-2.2,3.1-7.5,12-7.5,12s29.5-23.2,39.7-25.2c-13.1,7.8-30.9,20.8-45.5,32.2c-3.8,3-7.3-0.4-10.6,2.2
							c-6.8,5.5-12.2,15.2-14.7,18.7c-6.9,9.5-3.3,20.4-2.2,26.1c1.1,5.8,3.1,9.9,6.7,8.6c3.5-1.3,15.3,3.7,15.3,3.7
							s-17.9,9.3-16.4,15.3s5.8,9.3,8.6,10.8c2.8,1.5,7.1,4,12.6,0.6c5.5-3.4,49.1-32.1,50.2-34.8c1.1-2.7,25-27.7,25-27.7
							s-8.6,15.5-7.7,15.1c0.9-0.4,32.7-30.3,34.8-33.4c1-1.5,9.5-15.2,17.9-28.6c0.4-0.7-32.1,20.8-31.7,20
							c0.6-0.9,35.8-27.2,36.5-28C471.5,708.4,480.8,693.1,480.8,693.1z"/>
						<g>
							<path class="st34" d="M462.3,688.2c0-2.1,1.7-3.8,3.8-3.9c-0.4-0.2-0.9-0.3-1.3-0.3c-2.1,0-3.9,1.8-3.9,3.9
								c0,2.1,1.8,3.9,3.9,3.9c0.1,0,0.1,0,0.1,0C463.3,691.3,462.3,689.9,462.3,688.2z"/>
							<path class="st34" d="M456.1,696.4c0-2.1,1.7-3.8,3.8-3.9c-0.4-0.2-0.9-0.3-1.3-0.3c-2.1,0-3.9,1.8-3.9,3.9
								c0,2.1,1.8,3.9,3.9,3.9c0.1,0,0.1,0,0.1,0C457.2,699.5,456.1,698.1,456.1,696.4z"/>
							<path class="st34" d="M443.9,712.7c0-2.1,1.7-3.8,3.8-3.9c-0.4-0.2-0.9-0.3-1.3-0.3c-2.1,0-3.9,1.8-3.9,3.9
								c0,2.1,1.8,3.9,3.9,3.9c0.1,0,0.1,0,0.1,0C445,715.9,443.9,714.5,443.9,712.7z"/>
							<path class="st34" d="M450,704.6c0-2.1,1.7-3.8,3.8-3.9c-0.4-0.2-0.9-0.3-1.3-0.3c-2.1,0-3.9,1.8-3.9,3.9
								c0,2.1,1.8,3.9,3.9,3.9c0.1,0,0.1,0,0.1,0C451.1,707.7,450,706.3,450,704.6z"/>
						</g>
					</g>
					<path class="st34" d="M547.2,662.7c0,0-4.1,62.7-3.7,68.1c0.4,5.4-2,70.9-0.7,69.5c1.3-1.4,18.6-9.8,36.9-9.8
						c-13.9-3-31.5,1.3-31.5,1.3s-3-45.1-0.7-51.9c2.3-6.8,13.9-23.1,25.7-26.8c-10.8,1.3-26.4,13.2-25.5,12.9s5.4-30.2,8.2-37.3
						s4.4-10.2,4.4-10.2s-13.6,26.8-13.2,30.9C547.6,713.5,547.2,662.7,547.2,662.7z"/>
					<path class="st34" d="M605.5,676.3c1,1.3,2.7,27.1,3,32.6c0.4,5.4-15.3,27.5-15.3,27.5s16.2-16.2,16.6-14.9
						c0.4,1.3,5.8,25.1,6.1,24c0.4-1.1-2.4-33.9-3.7-40S605.5,676.3,605.5,676.3z"/>
					<g>
						<path class="st34" d="M590.2,810.8c-3-3-22.7-13.2-27.5-12.2c-4.8,1-20,1.7-20,1.7l-59,14.9c0,0-13.6-1-15.6-1s-49.5-3-49.5-3
							l-2.4,4.7l-16.4-0.3c0,0-11.4,23.6-3.9,45.9c7.1,0,16.4,1.8,16.4,1.8s0.4,9,2.6,19.2c-2.4-14.9,4.1-62,5.8-65.1
							c1.7-3,5.4-2.7,5.4-2.7s24-0.4,26.8,2.4c2.7,2.7,3.7,18,10.2,18c6.5,0,23.4,5.4,23.4,5.4l-21-10.2c0,0-6.7-10.2-5.4-10.5
							c1.3-0.4,25.5-0.4,27.1-0.4s41.7,12.9,41.7,12.9l-33.5-15.6c0,0,51.2-13.2,52.2-13.9c1-0.7,24,1,24,1L590.2,810.8z"/>
						<path class="st7" d="M588.7,871.6c0,0-32.7,6.7-41.5,5.3c-8.8-1.3-50.8-16-50.8-16s45.1,12.2,50.2,12.5
							C551.7,873.9,588.7,871.6,588.7,871.6z"/>
						<path class="st7" d="M416.8,882c2.2,0.3,87.5-5,93.6-6c6.1-1,28.7-2.1,28.7-2.1l10.8,3L416.8,882z"/>
						<g>
							<path class="st34" d="M453.6,869.3c1.8-1.2,4.2-0.5,5.3,1.2c-0.1-0.4-0.3-0.9-0.5-1.2c-1.2-1.9-3.5-2.4-5.4-1.2
								c-1.9,1.2-2.4,3.5-1.2,5.4l0.1,0.1C451.5,871.9,452.1,870.2,453.6,869.3z"/>
							<path class="st34" d="M443.4,868.3c1.8-1.2,4.2-0.5,5.3,1.2c-0.1-0.4-0.3-0.9-0.5-1.2c-1.2-1.9-3.5-2.4-5.4-1.2
								c-1.9,1.2-2.4,3.5-1.2,5.4l0.1,0.1C441.3,870.9,441.9,869.2,443.4,868.3z"/>
							<path class="st34" d="M423,866.5c1.8-1.2,4.2-0.5,5.3,1.2c-0.1-0.4-0.3-0.9-0.5-1.2c-1.2-1.9-3.5-2.4-5.4-1.2
								s-2.4,3.5-1.2,5.4l0.1,0.1C420.9,869,421.5,867.3,423,866.5z"/>
							<path class="st34" d="M433.2,867.4c1.8-1.2,4.2-0.5,5.3,1.2c-0.1-0.4-0.3-0.9-0.5-1.2c-1.2-1.9-3.5-2.4-5.4-1.2
								s-2.4,3.5-1.2,5.4l0.1,0.1C431.1,870,431.7,868.3,433.2,867.4z"/>
						</g>
					</g>
					<path d="M349.3,914.3c-0.4,19.5-13.6,84.4-15.7,91.8c-2.1,7.5-5.3,17,6.4,20.2c4.3,128.5,8.5,212.5,7.5,226.3
						c-1.1,13.7-10.6,94.6-11.7,112.6s-4.3,68,1.1,76.5c5.3,8.4,5.3,27.6,0,45.7c-5.3,18.1-11.7,37.2-4.3,48.9
						c-27.6,34-34,52.1-32.9,61.6c1.1,9.6,43.6,6.4,51,3.2c7.5-3.2,13.8-14.9,12.8-20.2c11.7,1.1,26.5-6.4,26.5-6.4l-1.1-37.2
						c0,0,9.6-6.6,18.1-18.3c8.5-11.7,12.9-91.3,11.8-109.4c-1.1-18.1,14.6-156.6,15.7-174.6c1.1-18.1,21.3-164.1,24.5-171.5
						c3.2-7.5,8.8-19.6,14,19.7c5.2,39.3,20.9,162.7,22,178.6c1.1,16,4.3,84.3,5.3,91.7c1.1,7.5,9.6,44.8,9.6,55.4
						s-6.4,66.8-4.3,81.7c2.1,14.9,14.9,51,14.9,51s-3.4,25.5-1.2,35.1c1,4.3,5.1,2.3,7.2,7.5c2.6,6.1,7.4,15.3,9.7,18.2
						c4.3,5.3,21.8,13.4,32.4,15.5c10.6,2.1,29.2-16,27.1-26.6c-2.1-10.6-11.8-33.3-15-34.3c-3.2-1.1-7.1-11.1-0.7-25.9
						c6.4-14.8,9.6-92.4,6.4-112.6c-3.2-20.2-4.3-140.2-5.3-154.1c-1.1-13.8,1.1-222,1.1-225.2s11.7-4.3,12.8-9.6
						c1.1-5.3-21.5-114.9-24-122.1C566.3,895.1,349.7,894.7,349.3,914.3z"/>
				</g>
				<path class="st7" d="M332.6,1536.2c-4.7-2.3-7.6-18.6-5.5-24.5c2.1-5.9,8.9-37.8,11.4-43.6c2.4-5.9,2.6-14,1.5-18.1
					s-4.7-13-6.5-20.5c-1.8-7.5,3-74.4,5.5-97.6c2.5-23.1,7.8-71.8,8.2-75.7c0.4-3.8,1.4-44.9-0.9-61.6
					c-2.4-16.8-8.2-159.7-5.9-160.2c2.3-0.4,15.7-1.7,19.4-1.7c3.8,0,17.4-5.9,16.7-1.7s-30.9,16.8-25,16c5.9-0.8,31.8-10,31.8-10
					s-24.1,18-28.5,19.2c-4.3,1.2,5,5.9,9.1,7.1c4.2,1.2,16-0.4,16-0.4s-18.4,10.5-22.6,12.6s-5.3,18.9-2.5,31.8
					c2.8,13-0.8,31.8,0,36.5c0.8,4.6,17.9,59.5,19.6,69.6c1.7,10.1,0.4,30.2,0.4,30.2s-0.4-36.9-9.2-47.4c-8.8-10.5-13-29.8-13-28.1
					c0,1.7-1.1,35.2,2.1,40.7c3.3,5.4,13.3,31.5,12.1,29.8s-8.7-18-12.1-21.4c-3.5-3.4-0.8,14.6,0,22.3c0.8,7.5-3.8,35.7-3.8,35.7
					s14.3-21.8,14.6-23.1c0.4-1.2,0.4-1.2,0.4-1.2s-12.4,27.2-11.3,35.7c9.6-9.2,15-23.5,15.9-26.4c0.8-2.9,1.2,7.5,0,16
					c-1.2,8.4-13.3,20.9-15.9,31.5c-2.6,10.5-10.1,58.7-11,70c-0.8,11.4-6.7,43.2-4.6,47.8s8.8,17.2,9.7,16
					c0.8-1.2,3.5-19.2,5.9-34.4c2.5-15.1,13.7-107.8,13.7-107.8s0.8,44,3.4,58.7c2.6,14.7-6.7,63.8-7.1,71.3s-20.6,57.8-21.4,67.9
					c-0.8,10-0.4,18.4,1.7,22.6s12.6-1.2,12.6-3.8c0-2.5-8-20.6-6.3-19.7c1.7,0.8,5.1,3.4,12.6,13s16,15.5,5.1,19.2
					c-10.9,3.8-28.5,3.4-29.4,7.7c-0.8,4.4-7.1,17.4-7.1,17.4s-2.2-4.6-6.1,0s-9.8,12.6-5.1,14.3c4.6,1.7,18.9,4.2,20.6,6.3
					s5.4,8.8,1.7,12.2c-3.8,3.4-5.9,10.5-12.6,9.2c-6.7-1.2-15.1,1.2-25.2-3.4c-5.8-2.7-7.4-0.6-3-9.9c4.3-9.3,11.8-21.9,19-30.3
					C328.8,1543.6,332.6,1536.2,332.6,1536.2z"/>
				<path class="st7" d="M347.7,930.7c-1.4,4.3-15.4,74-15.6,81.2s-3.9,10.7,4,12.8c7.9,2,32.9-2.1,47.1-4.7
					c14.2-2.6,43-17.5,47.5-21.6c0,0-42.4,17.1-49.8,16.9c-7.5-0.3-18.4,5.9-18.7-5.1s-2.3-58.5-2.3-64.3c0-5.9-7.7-77.6-9.7-83.1
					c-2-5.5-7.8-14.4-7.5-12.5s5.9,48.1,6.3,56.1C349.3,914.3,347.7,930.7,347.7,930.7z"/>
				<path class="st7" d="M528.5,1547.1c0,0-6.7-2.8-7.9-5.6c-5.1-11.2-12.3-39.1-13-41.9c-0.8-3.5-3.2-11.4-2-30.8s4.3-60,4.3-60
					s-7.2-42-8.3-48.8c-1.2-6.7-6.4-72.1-6.3-93.8c0.1-21.7-14.5-123-16.6-139.5c-2.1-16.6-8.5-64.7-11-67.9s-3.7-5.3-3.7-5.3
					s15.1,0.4,19.3,4.2s14.9,36.1,14.9,36.1s-10.8-20.8-14.9-26.8c-4.1-6-10.6-7.4-9.6-6c0.9,1.4,4.6,25.5,15.7,37.4
					c-5.1,1.4-8.7-5.1-8.7-5.1s9.3,32.4,11.1,34.7c1.8,2.3,12,23.6,12.4,31c0.4,7.4,9.2,54.1,9.2,54.1s-7.4-25.9-9.7-31.9
					c-2.3-6-14.4-41.2-17.1-43.5s5.2,37.9,5.7,44.3c0.4,6.5,19.3,46.2,23.1,50.8l2.7,9.7c0,0-27.6-38.4-25.8-37
					c1.8,1.4,11.4,38.1,23.5,52.6c-12.1-9.1-18.4-22.5-18.4-22.5s6.9,37,8.8,42.6c1.9,5.6-2.7,34.1-2.3,34.3
					c0.4,0.4,13-30.7,13-36.2c0-5.5,5.4-1.4,3.9,5.1c-1.6,6.5-5.2,24.9-6.7,28.6c-1.4,3.7-4.6,27.3-4.2,30.5c0.4,3.2,5.1,42,5.1,42
					s0.9,13.8,1.9,11.5c0.9-2.3,11.1-42,11.5-49.1c0.4-6.9,6-21.7,6-7.9c0,13.8-12.5,104.5-15.3,121.2c-2.7,16.7-3.7,33.8,0.4,49.1
					c4.2,15.3,6.9,34.7,12.1,31.9c5.1-2.7,18-14.4,18-14.4s14.8,13.7,12.5,16.3c-2.3,2.7-18,8.2-23.6,8.2s-6,9.2-3.7,13.4
					c2.3,4.2,7.9,13.4,11.5,19c3.7,5.6,15.3,1.9,24.5,3.7c9.2,1.9,19.4,2.3,18,6.5c-1.4,4.2-4.2,12.5-10.2,16.1
					c-6,3.7-8.2,3.8-22.5-1.5c-10.5-3.9-17.5-5.5-19.1-11.3c-1.5-5.4-6.2-15.5-9-18.2c-1-0.9-1,3-1.5,5.5c-3.2-2.3-5.6-2.9-7-4.2
					c-2.7-2.2-2.7-23.2,0.4-30.6C520.6,1546.4,528.5,1547.1,528.5,1547.1z"/>
			</g>
		</g>
	</g>
</g>
</svg>
