<?xml version="1.0" encoding="utf-8"?>
<!-- Generator: Adobe Illustrator 24.0.0, SVG Export Plug-In . SVG Version: 6.00 Build 0)  -->
<svg version="1.1" id="Layer_1" xmlns="http://www.w3.org/2000/svg" xmlns:xlink="http://www.w3.org/1999/xlink" x="0px" y="0px"
	 viewBox="0 0 1200 900" style="enable-background:new 0 0 1200 900;" xml:space="preserve">
<style type="text/css">
	.st0{clip-path:url(#SVGID_4_);}
	.st1{stroke:#FFFFFF;stroke-width:1.1908;stroke-miterlimit:10;}
	.st2{clip-path:url(#SVGID_8_);}
	.st3{clip-path:url(#SVGID_10_);}
	.st4{fill:#FFFFFF;stroke:#000000;stroke-width:0.7193;stroke-miterlimit:10;}
	.st5{font-family:'SantanderHeadline-Bold';}
	.st6{font-size:25.9768px;}
	.st7{fill:none;stroke:#000000;stroke-width:0.7193;stroke-miterlimit:10;}
	.st8{font-size:25.9765px;}
	.st9{fill:#FFFFFF;stroke:#000000;stroke-width:0.4275;stroke-miterlimit:10;}
	.st10{stroke:#000000;stroke-width:0.4275;stroke-miterlimit:10;}
	.st11{fill:none;stroke:#000000;stroke-width:0.4275;stroke-miterlimit:10;}
	.st12{stroke:#FFFFFF;stroke-width:0.8089;stroke-miterlimit:10;}
	.st13{fill:#FFFFFF;stroke:#000000;stroke-width:1.4049;stroke-miterlimit:10;}
	.st14{stroke:#000000;stroke-width:1.4049;stroke-miterlimit:10;}
	.st15{fill:none;stroke:#000000;stroke-width:1.4049;stroke-miterlimit:10;}
	.st16{fill:none;stroke:#FFFFFF;stroke-width:1.1056;stroke-miterlimit:10;}
	.st17{fill:#FFFFFF;stroke:#000000;stroke-width:1.7201;stroke-miterlimit:10;}
	.st18{fill:#FFFFFF;}
	.st19{font-family:'SantanderHeadline-Regular';}
	.st20{font-size:33.2138px;}
	.st21{opacity:0.7;enable-background:new    ;}
	.st22{fill:#FFFFFF;stroke:#FFFFFF;stroke-width:1.7987;stroke-miterlimit:10;}
	.st23{fill:#FFFFFF;stroke:#FFFFFF;stroke-width:2.9978;stroke-miterlimit:10;}
	.st24{clip-path:url(#SVGID_12_);}
	.st25{fill:#F1F2F2;}
	.st26{fill:#ED1C24;}
</style>
<defs>
	<rect id="SVGID_3_" width="1200" height="900"/>
</defs>
<clipPath id="SVGID_4_">
	<use xlink:href="#SVGID_3_"  style="overflow:visible;"/>
</clipPath>
<g id="Layer_1_1_" class="st0">
	<g>
		<g>
			<g>
				<g>
					<g>
						<g>
							<g>
								<polygon class="st1" points="1516.1,991.3 -296.8,991.3 -294.1,-46 1528.6,-51.3 								"/>
								<g>
									<g>
										<g>
											<path id="SVGID_5_" d="M987.5,707.9H227.1c-3.1,0-5.6-2.5-5.6-5.6V116c0-3.1,2.5-5.6,5.6-5.6h760.4
												c3.1,0,5.6,2.5,5.6,5.6v586.3C993.2,705.4,990.7,707.9,987.5,707.9z"/>
										</g>
										<g>
											<g>
												<defs>
													<path id="SVGID_6_" d="M987.5,707.9H227.1c-3.1,0-5.6-2.5-5.6-5.6V116c0-3.1,2.5-5.6,5.6-5.6h760.4
														c3.1,0,5.6,2.5,5.6,5.6v586.3C993.2,705.4,990.7,707.9,987.5,707.9z"/>
												</defs>
												<clipPath id="SVGID_8_">
													<use xlink:href="#SVGID_6_"  style="overflow:visible;"/>
												</clipPath>
												<g class="st2">
													<g>
														<rect id="SVGID_7_" x="221.5" y="202.5" width="771.7" height="504.4"/>
													</g>
													<g>
														<g>
															<defs>
																<rect id="SVGID_9_" x="221.5" y="202.5" width="771.7" height="504.4"/>
															</defs>
															<clipPath id="SVGID_10_">
																<use xlink:href="#SVGID_9_"  style="overflow:visible;"/>
															</clipPath>
															<g class="st3">
																<g>
																	<g>
																		
																			<rect x="431.7" y="292.7" transform="matrix(0.2563 -0.9666 0.9666 0.2563 42.5354 898.8303)" class="st4" width="347.3" height="258.2"/>
																		<text transform="matrix(0.9666 0.2563 -0.2563 0.9666 560.9808 269.4526)" class="st5 st6">CONFIDENCIAL</text>
																		<line class="st7" x1="566.8" y1="246.3" x2="725.3" y2="288.3"/>
																		<line class="st7" x1="559.5" y1="274.1" x2="717.9" y2="316.1"/>
																	</g>
																	<g>
																		<line class="st7" x1="525.1" y1="275.1" x2="747.7" y2="334.2"/>
																		<line class="st7" x1="522.2" y1="286" x2="744.8" y2="345"/>
																		<line class="st7" x1="519.4" y1="296.8" x2="742" y2="355.8"/>
																		<line class="st7" x1="516.5" y1="307.5" x2="739.1" y2="366.6"/>
																		<line class="st7" x1="513.7" y1="318.4" x2="736.2" y2="377.3"/>
																		<line class="st7" x1="510.8" y1="329.2" x2="733.4" y2="388.2"/>
																		<line class="st7" x1="507.9" y1="340" x2="730.5" y2="399"/>
																		<line class="st7" x1="505.1" y1="350.8" x2="727.6" y2="409.8"/>
																		<line class="st7" x1="502.2" y1="361.6" x2="724.8" y2="420.6"/>
																		<line class="st7" x1="499.3" y1="372.4" x2="721.9" y2="431.4"/>
																		<line class="st7" x1="496.5" y1="383.3" x2="719" y2="442.2"/>
																		<line class="st7" x1="493.6" y1="394" x2="716.2" y2="453"/>
																		<line class="st7" x1="490.7" y1="404.8" x2="713.3" y2="463.8"/>
																		<line class="st7" x1="487.9" y1="415.7" x2="710.5" y2="474.6"/>
																		<line class="st7" x1="485" y1="426.4" x2="707.6" y2="485.5"/>
																		<line class="st7" x1="482.2" y1="437.2" x2="704.7" y2="496.2"/>
																		<line class="st7" x1="479.3" y1="448" x2="701.9" y2="507"/>
																		<line class="st7" x1="476.4" y1="458.9" x2="699" y2="517.9"/>
																		<line class="st7" x1="473.6" y1="469.6" x2="696.1" y2="528.7"/>
																		<line class="st7" x1="470.7" y1="480.4" x2="693.3" y2="539.4"/>
																		<line class="st7" x1="467.8" y1="491.3" x2="690.4" y2="550.3"/>
																		<line class="st7" x1="465" y1="502" x2="687.5" y2="561.1"/>
																		<line class="st7" x1="462.1" y1="512.8" x2="684.7" y2="571.8"/>
																		<line class="st7" x1="459.2" y1="523.7" x2="681.8" y2="582.7"/>
																		<line class="st7" x1="456.4" y1="534.5" x2="679" y2="593.5"/>
																	</g>
																</g>
																<g>
																	<rect x="587.1" y="341.4" class="st4" width="258.2" height="347.3"/>
																	<g>
																		<line class="st7" x1="611.4" y1="393.9" x2="720" y2="393.9"/>
																		<line class="st7" x1="611.4" y1="405.1" x2="720" y2="405.1"/>
																		<line class="st7" x1="611.4" y1="416.3" x2="720" y2="416.3"/>
																		<line class="st7" x1="611.4" y1="427.5" x2="720" y2="427.5"/>
																		<line class="st7" x1="611.4" y1="449.8" x2="793" y2="449.8"/>
																		<line class="st7" x1="611.4" y1="461" x2="793" y2="461"/>
																		<line class="st7" x1="611.4" y1="472.2" x2="793" y2="472.2"/>
																		<line class="st7" x1="611.4" y1="483.3" x2="793" y2="483.3"/>
																		<line class="st7" x1="611.4" y1="494.5" x2="793" y2="494.5"/>
																		<line class="st7" x1="611.4" y1="505.7" x2="793" y2="505.7"/>
																		<line class="st7" x1="611.4" y1="516.9" x2="793" y2="516.9"/>
																		<line class="st7" x1="611.4" y1="528.1" x2="793" y2="528.1"/>
																		<line class="st7" x1="611.4" y1="539.2" x2="793" y2="539.2"/>
																		<line class="st7" x1="611.4" y1="550.4" x2="793" y2="550.4"/>
																		<line class="st7" x1="611.4" y1="561.6" x2="793" y2="561.6"/>
																		<line class="st7" x1="611.4" y1="572.8" x2="793" y2="572.8"/>
																		<line class="st7" x1="611.4" y1="583.9" x2="793" y2="583.9"/>
																		<line class="st7" x1="611.4" y1="595.1" x2="793" y2="595.1"/>
																		<line class="st7" x1="611.4" y1="606.3" x2="793" y2="606.3"/>
																		<line class="st7" x1="611.4" y1="617.5" x2="793" y2="617.5"/>
																		<line class="st7" x1="611.4" y1="628.7" x2="793" y2="628.7"/>
																		<line class="st7" x1="611.4" y1="639.8" x2="793" y2="639.8"/>
																		<line class="st7" x1="611.4" y1="651" x2="793" y2="651"/>
																		<line class="st7" x1="800.2" y1="449.8" x2="826.1" y2="449.8"/>
																		<line class="st7" x1="800.2" y1="461" x2="826.1" y2="461"/>
																		<line class="st7" x1="800.2" y1="472.2" x2="826.1" y2="472.2"/>
																		<line class="st7" x1="800.2" y1="483.3" x2="826.1" y2="483.3"/>
																		<line class="st7" x1="800.2" y1="494.5" x2="826.1" y2="494.5"/>
																		<line class="st7" x1="800.2" y1="505.7" x2="826.1" y2="505.7"/>
																		<line class="st7" x1="800.2" y1="516.9" x2="826.1" y2="516.9"/>
																		<line class="st7" x1="800.2" y1="528.1" x2="826.1" y2="528.1"/>
																		<line class="st7" x1="800.2" y1="539.2" x2="826.1" y2="539.2"/>
																		<line class="st7" x1="800.2" y1="550.4" x2="826.1" y2="550.4"/>
																		<line class="st7" x1="800.2" y1="561.6" x2="826.1" y2="561.6"/>
																		<line class="st7" x1="800.2" y1="572.8" x2="826.1" y2="572.8"/>
																		<line class="st7" x1="800.2" y1="583.9" x2="826.1" y2="583.9"/>
																		<line class="st7" x1="800.2" y1="595.1" x2="826.1" y2="595.1"/>
																		<line class="st7" x1="800.2" y1="606.3" x2="826.1" y2="606.3"/>
																		<line class="st7" x1="800.2" y1="617.5" x2="826.1" y2="617.5"/>
																		<line class="st7" x1="800.2" y1="628.7" x2="826.1" y2="628.7"/>
																		<line class="st7" x1="800.2" y1="639.8" x2="826.1" y2="639.8"/>
																		<line class="st7" x1="800.2" y1="651" x2="826.1" y2="651"/>
																		<line class="st7" x1="800.2" y1="662.2" x2="826.1" y2="662.2"/>
																	</g>
																	<text transform="matrix(1 0 0 1 607.3431 379.0983)" class="st5 st8">ESTADO DE CUENTA</text>
																</g>
																<g>
																	<path class="st9" d="M333.1,32.1L-78.4,270.5c-2.7,1.5-3.6,4.9-2.1,7.6L79.9,555c1.5,2.7,4.9,3.6,7.6,2.1
																		l411.6-238.4c2.7-1.5,3.6-4.9,2.1-7.6L340.8,34C339.2,31.4,335.8,30.5,333.1,32.1z"/>
																	<g>
																		<path d="M336.3,146.9l-17.3,10c-0.4,0.3-1,0.1-1.3-0.4l-10-17.3c-0.3-0.4-0.1-1,0.4-1.3l17.3-10
																			c0.4-0.3,1-0.1,1.3,0.4l10,17.3C336.8,146.1,336.7,146.6,336.3,146.9z"/>
																		<path d="M348,167.5l-10.8,6.3c-0.5,0.3-1.2,0.1-1.4-0.4L314,135.8c-0.3-0.5-0.1-1.2,0.4-1.4l10.8-6.3
																			c0.5-0.3,1.2-0.1,1.4,0.4l21.7,37.6C348.7,166.6,348.5,167.2,348,167.5z"/>
																	</g>
																	<path class="st10" d="M313.5,419.7l-46.2,26.8c-2.4,1.4-3.2,4.5-1.9,7l0.3,0.4l55-31.9l-0.3-0.4
																		C319,419.1,316,418.3,313.5,419.7z"/>
																	<path class="st11" d="M341.4,382.8l-119.9,69.4c-0.7,0.4-1.6,0.2-2.1-0.5l-49.9-86.2c-0.4-0.7-0.2-1.6,0.5-2.1
																		L289.9,294c0.7-0.4,1.6-0.2,2.1,0.5l49.9,86.2C342.4,381.5,342.1,382.4,341.4,382.8z"/>
																	<g>
																		<path d="M11,277.7l-18.3,10.6c-0.4,0.2-0.7,0.1-0.9-0.3l-5.4-9.3c-0.2-0.4-0.1-0.7,0.3-0.9L5,267.2
																			c0.4-0.2,0.7-0.1,0.9,0.3l5.4,9.3C11.4,277,11.2,277.5,11,277.7z"/>
																		<path d="M34.1,264.2l-18.3,10.6c-0.4,0.2-0.7,0.1-0.9-0.3l-5.4-9.3c-0.2-0.4-0.1-0.7,0.3-0.9l18.3-10.6
																			c0.4-0.2,0.7-0.1,0.9,0.3l5.4,9.3C34.5,263.7,34.4,264,34.1,264.2z"/>
																		<path d="M57.1,250.9l-18.3,10.6c-0.4,0.2-0.7,0.1-0.9-0.3l-5.4-9.3c-0.2-0.4-0.1-0.7,0.3-0.9l18.3-10.6
																			c0.4-0.2,0.7-0.1,0.9,0.3l5.4,9.3C57.6,250.3,57.5,250.7,57.1,250.9z"/>
																		<path d="M149.7,197.3l-18.3,10.6c-0.4,0.2-0.7,0.1-0.9-0.3l-5.4-9.3c-0.2-0.4-0.1-0.7,0.3-0.9l18.3-10.6
																			c0.4-0.2,0.7-0.1,0.9,0.3l5.4,9.3C150,196.7,150,197.1,149.7,197.3z"/>
																		<path d="M172.8,183.9l-18.3,10.6c-0.4,0.2-0.7,0.1-0.9-0.3l-5.4-9.3c-0.2-0.4-0.1-0.7,0.3-0.9l18.3-10.6
																			c0.4-0.2,0.7-0.1,0.9,0.3l5.4,9.3C173.2,183.3,173,183.8,172.8,183.9z"/>
																		<path d="M195.9,170.5l-18.3,10.6c-0.4,0.2-0.7,0.1-0.9-0.3l-5.4-9.3c-0.2-0.4-0.1-0.7,0.3-0.9l18.3-10.6
																			c0.4-0.2,0.7-0.1,0.9,0.3l5.4,9.3C196.3,169.9,196.2,170.3,195.9,170.5z"/>
																		<path d="M80.3,237.5L62,248c-0.4,0.2-0.7,0.1-0.9-0.3l-5.4-9.3c-0.2-0.4-0.1-0.7,0.3-0.9L74.2,227
																			c0.4-0.2,0.7-0.1,0.9,0.3l5.4,9.3C80.7,236.8,80.6,237.3,80.3,237.5z"/>
																		<path d="M103.4,224.1l-18.3,10.6c-0.4,0.2-0.7,0.1-0.9-0.3l-5.4-9.3c-0.2-0.4-0.1-0.7,0.3-0.9l18.3-10.6
																			c0.4-0.2,0.7-0.1,0.9,0.3l5.4,9.3C103.9,223.5,103.8,223.9,103.4,224.1z"/>
																		<path d="M126.5,210.7l-18.3,10.6c-0.4,0.2-0.7,0.1-0.9-0.3l-5.4-9.3c-0.2-0.4-0.1-0.7,0.3-0.9l18.3-10.6
																			c0.4-0.2,0.7-0.1,0.9,0.3l5.4,9.3C126.9,210.1,126.9,210.5,126.5,210.7z"/>
																		<path d="M219,157.1l-18.3,10.6c-0.4,0.2-0.7,0.1-0.9-0.3l-5.4-9.3c-0.2-0.4-0.1-0.7,0.3-0.9l18.3-10.6
																			c0.4-0.2,0.7-0.1,0.9,0.3l5.4,9.3C219.4,156.6,219.3,156.9,219,157.1z"/>
																		<path d="M242.1,143.8l-18.3,10.6c-0.4,0.2-0.7,0.1-0.9-0.3l-5.4-9.3c-0.2-0.4-0.1-0.7,0.3-0.9l18.3-10.6
																			c0.4-0.2,0.7-0.1,0.9,0.3l5.4,9.3C242.6,143.1,242.4,143.6,242.1,143.8z"/>
																		<path d="M265.2,130.3l-18.3,10.6c-0.4,0.2-0.7,0.1-0.9-0.3l-5.4-9.3c-0.2-0.4-0.1-0.7,0.3-0.9l18.3-10.6
																			c0.4-0.2,0.7-0.1,0.9,0.3l5.4,9.3C265.7,129.8,265.6,130.2,265.2,130.3z"/>
																		<path d="M288.3,117L270,127.6c-0.4,0.2-0.7,0.1-0.9-0.3l-5.4-9.3c-0.2-0.4-0.1-0.7,0.3-0.9l18.3-10.6
																			c0.4-0.2,0.7-0.1,0.9,0.3l5.4,9.3C288.8,116.4,288.7,116.8,288.3,117z"/>
																		<path d="M311.5,103.6l-18.3,10.6c-0.4,0.2-0.7,0.1-0.9-0.3l-5.4-9.3c-0.2-0.4-0.1-0.7,0.3-0.9l18.3-10.6
																			c0.4-0.2,0.7-0.1,0.9,0.3l5.4,9.3C311.8,103,311.8,103.4,311.5,103.6z"/>
																	</g>
																	<g>
																		<path d="M113.8,275.7l-17.3,10c-0.4,0.3-1,0.1-1.3-0.4l-10-17.3c-0.3-0.4-0.1-1,0.4-1.3l17.3-10
																			c0.4-0.3,1-0.1,1.3,0.4l10,17.3C114.4,275,114.2,275.5,113.8,275.7z"/>
																		<path d="M91.5,288.7l-17.4,10c-0.4,0.3-1,0.1-1.3-0.4l-10-17.3c-0.3-0.4-0.1-1,0.4-1.3l17.3-10
																			c0.4-0.3,1-0.1,1.3,0.4l10,17.3C92,287.9,92,288.4,91.5,288.7z"/>
																		<path d="M69.1,301.6l-17.3,10c-0.4,0.3-1,0.1-1.3-0.4l-10-17.3c-0.3-0.4-0.1-1,0.4-1.3l17.3-10
																			c0.4-0.3,1-0.1,1.3,0.4l10,17.3C69.8,300.8,69.6,301.4,69.1,301.6z"/>
																		<path d="M136.2,262.8l-17.3,10c-0.4,0.3-1,0.1-1.3-0.4l-10-17.3c-0.3-0.4-0.1-1,0.4-1.3l17.3-10
																			c0.4-0.3,1-0.1,1.3,0.4l10,17.3C136.7,262,136.6,262.5,136.2,262.8z"/>
																		<path d="M180.8,236.9l-17.3,10c-0.4,0.3-1,0.1-1.3-0.4l-10-17.3c-0.3-0.4-0.1-1,0.4-1.3l17.3-10
																			c0.4-0.3,1-0.1,1.3,0.4l10,17.3C181.4,236.1,181.3,236.7,180.8,236.9z"/>
																		<path d="M158.5,249.8l-17.3,10c-0.4,0.3-1,0.1-1.3-0.4l-10-17.3c-0.3-0.4-0.1-1,0.4-1.3l17.3-10
																			c0.4-0.3,1-0.1,1.3,0.4l10,17.3C159.1,249.1,158.9,249.6,158.5,249.8z"/>
																		<path d="M203.2,224l-17.3,10c-0.4,0.3-1,0.1-1.3-0.4l-10-17.3c-0.3-0.4-0.1-1,0.4-1.3l17.3-10
																			c0.4-0.3,1-0.1,1.3,0.4l10,17.3C203.7,223.2,203.6,223.8,203.2,224z"/>
																		<path d="M247.9,198.1l-17.3,10c-0.4,0.3-1,0.1-1.3-0.4l-10-17.3c-0.3-0.4-0.1-1,0.4-1.3l17.3-10
																			c0.4-0.3,1-0.1,1.3,0.4l10,17.3C248.4,197.3,248.2,197.9,247.9,198.1z"/>
																		<path d="M225.5,211.1l-17.3,10c-0.4,0.3-1,0.1-1.3-0.4l-10-17.3c-0.3-0.4-0.1-1,0.4-1.3l17.3-10
																			c0.4-0.3,1-0.1,1.3,0.4l10,17.3C226,210.3,225.9,210.8,225.5,211.1z"/>
																		<path d="M270.1,185.2l-17.3,10c-0.4,0.3-1,0.1-1.3-0.4l-10-17.3c-0.3-0.4-0.1-1,0.4-1.3l17.3-10
																			c0.4-0.3,1-0.1,1.3,0.4l10,17.3C270.7,184.4,270.6,184.9,270.1,185.2z"/>
																		<path d="M314.8,159.3l-17.3,10c-0.4,0.3-1,0.1-1.3-0.4l-10-17.3c-0.3-0.4-0.1-1,0.4-1.3l17.3-10
																			c0.4-0.3,1-0.1,1.3,0.4l10,17.3C315.4,158.5,315.2,159.1,314.8,159.3z"/>
																		<path d="M292.5,172.2l-17.4,10c-0.4,0.3-1,0.1-1.3-0.4l-10-17.3c-0.3-0.4-0.1-1,0.4-1.3l17.3-10
																			c0.4-0.3,1-0.1,1.3,0.4l10,17.3C293.1,171.4,292.9,172,292.5,172.2z"/>
																	</g>
																	<g>
																		<path d="M131.4,293l-17.3,10c-0.4,0.3-1,0.1-1.3-0.4l-10-17.3c-0.3-0.4-0.1-1,0.4-1.3l17.3-10
																			c0.4-0.3,1-0.1,1.3,0.4l9.9,17.4C132,292.1,131.9,292.7,131.4,293z"/>
																		<path d="M109.1,305.9l-17.3,10c-0.4,0.3-1,0.1-1.3-0.4l-10-17.3c-0.3-0.4-0.1-1,0.4-1.3l17.3-10
																			c0.4-0.3,1-0.1,1.3,0.4l10,17.3C109.7,305.1,109.5,305.7,109.1,305.9z"/>
																		<path d="M86.8,318.8l-17.4,10c-0.4,0.3-1,0.1-1.3-0.4l-10-17.3c-0.3-0.4-0.1-1,0.4-1.3l17.3-10
																			c0.4-0.3,1-0.1,1.3,0.4l10,17.3C87.3,318,87.1,318.6,86.8,318.8z"/>
																		<path d="M153.7,280.1l-17.3,10c-0.4,0.3-1,0.1-1.3-0.4l-10-17.3c-0.3-0.4-0.1-1,0.4-1.3l17.3-10
																			c0.4-0.3,1-0.1,1.3,0.4l10,17.3C154.3,279.3,154.2,279.8,153.7,280.1z"/>
																		<path d="M198.4,254.2l-17.3,10c-0.4,0.3-1,0.1-1.3-0.4l-10-17.3c-0.3-0.4-0.1-1,0.4-1.3l17.3-10
																			c0.4-0.3,1-0.1,1.3,0.4l10,17.3C199,253.4,198.8,253.9,198.4,254.2z"/>
																		<path d="M176.1,267.1l-17.4,10c-0.4,0.3-1,0.1-1.3-0.4l-10-17.3c-0.3-0.4-0.1-1,0.4-1.3l17.3-10
																			c0.4-0.3,1-0.1,1.3,0.4l10,17.3C176.6,266.3,176.5,266.8,176.1,267.1z"/>
																		<path d="M220.7,241.2l-17.3,10c-0.4,0.3-1,0.1-1.3-0.4l-10-17.3c-0.3-0.4-0.1-1,0.4-1.3l17.3-10
																			c0.4-0.3,1-0.1,1.3,0.4l10,17.3C221.3,240.4,221.2,241,220.7,241.2z"/>
																		<path d="M265.4,215.4l-17.3,10c-0.4,0.3-1,0.1-1.3-0.4l-10-17.3c-0.3-0.4-0.1-1,0.4-1.3l17.3-10
																			c0.4-0.3,1-0.1,1.3,0.4l10,17.3C265.9,214.6,265.8,215.1,265.4,215.4z"/>
																		<path d="M243,228.3l-17.3,10c-0.4,0.3-1,0.1-1.3-0.4l-10-17.3c-0.3-0.4-0.1-1,0.4-1.3l17.3-10
																			c0.4-0.3,1-0.1,1.3,0.4l10,17.3C243.7,227.5,243.5,228.1,243,228.3z"/>
																		<path d="M287.8,202.5l-17.4,10c-0.4,0.3-1,0.1-1.3-0.4l-10-17.3c-0.3-0.4-0.1-1,0.4-1.3l17.3-10
																			c0.4-0.3,1-0.1,1.3,0.4l10,17.3C288.3,201.7,288.1,202.2,287.8,202.5z"/>
																		<path d="M332.4,176.5l-17.3,10c-0.4,0.3-1,0.1-1.3-0.4l-10-17.3c-0.3-0.4-0.1-1,0.4-1.3l17.3-10
																			c0.4-0.3,1-0.1,1.3,0.4l10,17.3C333,175.8,332.8,176.3,332.4,176.5z"/>
																		<path d="M310.1,189.5l-17.3,10c-0.4,0.3-1,0.1-1.3-0.4l-10-17.3c-0.3-0.4-0.1-1,0.4-1.3l17.3-10
																			c0.4-0.3,1-0.1,1.3,0.4l10,17.3C310.6,188.7,310.5,189.2,310.1,189.5z"/>
																	</g>
																	<g>
																		<path d="M133.1,321.5l-17.3,10c-0.4,0.3-1,0.1-1.3-0.4l-10-17.3c-0.3-0.4-0.1-1,0.4-1.3l17.3-10
																			c0.4-0.3,1-0.1,1.3,0.4l10,17.4C133.8,320.8,133.6,321.3,133.1,321.5z"/>
																		<path d="M110.8,334.5l-17.3,10c-0.4,0.3-1,0.1-1.3-0.4l-10-17.3c-0.3-0.4-0.1-1,0.4-1.3l17.3-10
																			c0.4-0.3,1-0.1,1.3,0.4l9.9,17.3C111.4,333.7,111.3,334.2,110.8,334.5z"/>
																		<path d="M88.5,347.4l-17.3,10.1c-0.4,0.3-1,0.1-1.3-0.4l-10-17.3c-0.3-0.4-0.1-1,0.4-1.3l17.3-10
																			c0.4-0.3,1-0.1,1.3,0.4l10,17.3C89.1,346.7,88.9,347.2,88.5,347.4z"/>
																		<path d="M155.5,308.6l-17.3,10c-0.4,0.3-1,0.1-1.3-0.4l-10-17.3c-0.3-0.4-0.1-1,0.4-1.3l17.3-10
																			c0.4-0.3,1-0.1,1.3,0.4l10,17.3C156,307.8,155.9,308.3,155.5,308.6z"/>
																		<path d="M200.2,282.8l-17.3,10c-0.4,0.3-1,0.1-1.3-0.4l-10-17.3c-0.3-0.4-0.1-1,0.4-1.3l17.3-10
																			c0.4-0.3,1-0.1,1.3,0.4l10,17.3C200.7,281.9,200.6,282.5,200.2,282.8z"/>
																		<path d="M177.8,295.6l-17.3,10c-0.4,0.3-1,0.1-1.3-0.4l-10-17.3c-0.3-0.4-0.1-1,0.4-1.3l17.3-10
																			c0.4-0.3,1-0.1,1.3,0.4l10,17.3C178.4,294.9,178.2,295.5,177.8,295.6z"/>
																		<path d="M222.4,269.8l-17.3,10c-0.4,0.3-1,0.1-1.3-0.4l-10-17.3c-0.3-0.4-0.1-1,0.4-1.3l17.3-10
																			c0.4-0.3,1-0.1,1.3,0.4l10,17.3C223.1,269,222.9,269.6,222.4,269.8z"/>
																		<path d="M267.2,243.9l-17.4,10c-0.4,0.3-1,0.1-1.3-0.4l-10-17.3c-0.3-0.4-0.1-1,0.4-1.3l17.3-10
																			c0.4-0.3,1-0.1,1.3,0.4l10,17.3C267.7,243.1,267.5,243.7,267.2,243.9z"/>
																		<path d="M244.8,256.9l-17.3,10c-0.4,0.3-1,0.1-1.3-0.4l-10-17.3c-0.3-0.4-0.1-1,0.4-1.3l17.3-10
																			c0.4-0.3,1-0.1,1.3,0.4l10,17.3C245.4,256.1,245.3,256.6,244.8,256.9z"/>
																		<path d="M289.5,231l-17.3,10c-0.4,0.3-1,0.1-1.3-0.4l-10-17.3c-0.3-0.4-0.1-1,0.4-1.3l17.3-10
																			c0.4-0.3,1-0.1,1.3,0.4l10,17.3C290,230.2,289.9,230.8,289.5,231z"/>
																		<path d="M360.6,189.9L317.3,215c-0.6,0.4-1.5,0.2-1.9-0.5l-9.5-16.5c-0.4-0.6-0.2-1.5,0.5-1.9l43.3-25.1
																			c0.6-0.4,1.5-0.2,1.9,0.5l9.5,16.5C361.4,188.6,361.2,189.4,360.6,189.9z"/>
																		<path d="M311.8,218l-17.3,10c-0.4,0.3-1,0.1-1.3-0.4l-10-17.3c-0.3-0.4-0.1-1,0.4-1.3l17.3-10
																			c0.4-0.3,1-0.1,1.3,0.4l10,17.3C312.4,217.2,312.2,217.8,311.8,218z"/>
																	</g>
																	<g>
																		<path d="M118.4,362l-17.3,10c-0.4,0.3-1,0.1-1.3-0.4l-10-17.3c-0.3-0.4-0.1-1,0.4-1.3l17.3-10
																			c0.4-0.3,1-0.1,1.3,0.4l10,17.3C118.9,361.2,118.8,361.8,118.4,362z"/>
																		<path d="M308.7,251.8l-17.3,10c-0.4,0.3-1,0.1-1.3-0.4l-10-17.3c-0.3-0.4-0.1-1,0.4-1.3l17.3-10
																			c0.4-0.3,1-0.1,1.3,0.4l10,17.3C309.3,251,309.2,251.5,308.7,251.8z"/>
																		<path d="M330.6,239.1l-17.2,9.9c-0.4,0.3-1,0.1-1.3-0.4l-5.2-9c-0.3-0.4-0.1-1,0.4-1.3l17.2-9.9
																			c0.4-0.3,1-0.1,1.3,0.4l5.2,9C331.3,238.2,331.1,238.8,330.6,239.1z"/>
																		<path d="M374.8,213.5l-17.2,9.9c-0.4,0.3-1,0.1-1.3-0.4l-5.2-9c-0.3-0.4-0.1-1,0.4-1.3l17.2-9.9
																			c0.4-0.3,1-0.1,1.3,0.4l5.2,9C375.4,212.7,375.2,213.2,374.8,213.5z"/>
																		<path d="M352.8,226.2l-17.4,10c-0.4,0.3-1,0.1-1.2-0.4l-4.4-7.6c-0.3-0.4-0.1-1,0.4-1.2l17.4-10
																			c0.4-0.3,1-0.1,1.2,0.4l4.4,7.6C353.4,225.4,353.3,225.9,352.8,226.2z"/>
																		<path d="M346.7,215.7l-17.4,10c-0.4,0.3-1,0.1-1.2-0.4l-4.4-7.6c-0.3-0.4-0.1-1,0.4-1.2l17.4-10
																			c0.4-0.3,1-0.1,1.2,0.4l4.4,7.6C347.3,214.9,347.2,215.5,346.7,215.7z"/>
																		<path d="M96.1,374.9l-17.3,10c-0.4,0.3-1,0.1-1.3-0.4l-10-17.3c-0.3-0.4-0.1-1,0.4-1.3l17.3-10
																			c0.4-0.3,1-0.1,1.3,0.4l10,17.3C96.6,374.1,96.4,374.7,96.1,374.9z"/>
																		<path d="M73.7,387.9l-17.3,10c-0.4,0.3-1,0.1-1.3-0.4l-10-17.3c-0.3-0.4-0.1-1,0.4-1.3l17.3-10
																			c0.4-0.3,1-0.1,1.3,0.4l10,17.3C74.2,387.1,74.1,387.6,73.7,387.9z"/>
																		<path d="M146.4,345.8L123.5,359c-0.4,0.3-1.1,0.1-1.4-0.4l-9.8-17.1c-0.3-0.4-0.1-1.1,0.4-1.4l22.9-13.2
																			c0.4-0.3,1.1-0.1,1.4,0.4l9.9,17.1C147.1,344.9,146.9,345.5,146.4,345.8z"/>
																		<path d="M285.8,265l-22.9,13.2c-0.4,0.3-1.1,0.1-1.4-0.4l-9.8-17.1c-0.3-0.4-0.1-1.1,0.4-1.4l22.9-13.2
																			c0.4-0.3,1.1-0.1,1.4,0.4l9.9,17.1C286.4,264.1,286.3,264.8,285.8,265z"/>
																		<path d="M258.6,280.8l-106.5,61.7c-0.4,0.3-1.1,0.1-1.3-0.4l-9.9-17.2c-0.3-0.4-0.1-1.1,0.4-1.3l106.5-61.7
																			c0.4-0.3,1.1-0.1,1.3,0.4l9.9,17.2C259.2,279.9,259,280.5,258.6,280.8z"/>
																	</g>
																	<path d="M63.7,332.2L30,351.8c-0.6,0.4-1.3,0.2-1.7-0.4l-9.7-16.7c-0.4-0.6-0.2-1.3,0.4-1.7l33.7-19.5
																		c0.6-0.4,1.3-0.2,1.7,0.4l9.7,16.7C64.5,331.1,64.3,331.9,63.7,332.2z"/>
																	<g>
																		<path d="M22.6,299.7l-17.3,10c-0.4,0.3-1,0.1-1.3-0.4L-6,292c-0.3-0.4-0.1-1,0.4-1.3l17.3-10
																			c0.4-0.3,1-0.1,1.3,0.4l10,17.3C23.2,299,23,299.5,22.6,299.7z"/>
																		<path d="M67.3,273.8l-17.3,10c-0.4,0.3-1,0.1-1.3-0.4l-10-17.3c-0.3-0.4-0.1-1,0.4-1.3l17.3-10
																			c0.4-0.3,1-0.1,1.3,0.4l10,17.4C67.9,273.1,67.7,273.6,67.3,273.8z"/>
																		<path d="M45,286.8l-17.3,10c-0.4,0.3-1,0.1-1.3-0.4l-10-17.3c-0.3-0.4-0.1-1,0.4-1.3l17.3-10
																			c0.4-0.3,1-0.1,1.3,0.4l10,17.3C45.5,286,45.4,286.5,45,286.8z"/>
																		<path d="M89.6,260.9l-17.3,10c-0.4,0.3-1,0.1-1.3-0.4l-10-17.3c-0.3-0.4-0.1-1,0.4-1.3l17.3-10
																			c0.4-0.3,1-0.1,1.3,0.4l10,17.3C90.2,260.1,90.1,260.6,89.6,260.9z"/>
																		<path d="M134.3,235.1l-17.3,10c-0.4,0.3-1,0.1-1.3-0.4l-10-17.3c-0.3-0.4-0.1-1,0.4-1.3l17.3-10
																			c0.4-0.3,1-0.1,1.3,0.4l10,17.3C134.8,234.2,134.7,234.8,134.3,235.1z"/>
																		<path d="M112,247.9l-17.3,10c-0.4,0.3-1,0.1-1.3-0.4l-10-17.3c-0.3-0.4-0.1-1,0.4-1.3l17.3-10
																			c0.4-0.3,1-0.1,1.3,0.4l10,17.3C112.5,247.2,112.4,247.8,112,247.9z"/>
																		<path d="M156.7,222.1l-17.3,10c-0.4,0.3-1,0.1-1.3-0.4l-10-17.3c-0.3-0.4-0.1-1,0.4-1.3l17.3-10
																			c0.4-0.3,1-0.1,1.3,0.4l10,17.3C157.2,221.3,157,221.9,156.7,222.1z"/>
																		<path d="M201.3,196.2l-17.3,10c-0.4,0.3-1,0.1-1.3-0.4l-10-17.3c-0.3-0.4-0.1-1,0.4-1.3l17.3-10
																			c0.4-0.3,1-0.1,1.3,0.4l10,17.3C201.9,195.4,201.7,195.9,201.3,196.2z"/>
																		<path d="M178.9,209.2l-17.3,10c-0.4,0.3-1,0.1-1.3-0.4l-10-17.3c-0.3-0.4-0.1-1,0.4-1.3l17.3-10
																			c0.4-0.3,1-0.1,1.3,0.4l10,17.3C179.5,208.4,179.4,208.9,178.9,209.2z"/>
																		<path d="M223.6,183.3l-17.3,10c-0.4,0.3-1,0.1-1.3-0.4l-10-17.3c-0.3-0.4-0.1-1,0.4-1.3l17.3-10
																			c0.4-0.3,1-0.1,1.3,0.4l10,17.3C224.2,182.5,224.1,183.1,223.6,183.3z"/>
																		<path d="M268.3,157.5l-17.3,10c-0.4,0.3-1,0.1-1.3-0.4l-10-17.3c-0.3-0.4-0.1-1,0.4-1.3l17.3-10
																			c0.4-0.3,1-0.1,1.3,0.4l10,17.3C268.9,156.7,268.7,157.2,268.3,157.5z"/>
																		<path d="M290.6,144.5l-17.4,10c-0.4,0.3-1,0.1-1.3-0.4l-10-17.3c-0.3-0.4-0.1-1,0.4-1.3l17.3-10
																			c0.4-0.3,1-0.1,1.3,0.4l10,17.3C291.2,143.7,291,144.2,290.6,144.5z"/>
																		<path d="M323.6,125.4l-27.3,15.8c-0.5,0.3-1.2,0.1-1.5-0.4l-9.8-16.9c-0.3-0.5-0.1-1.2,0.4-1.5l27.3-15.8
																			c0.5-0.3,1.2-0.1,1.5,0.4l9.8,16.9C324.3,124.4,324.1,125.1,323.6,125.4z"/>
																		<path d="M246,170.3l-17.3,10c-0.4,0.3-1,0.1-1.3-0.4l-10-17.3c-0.3-0.4-0.1-1,0.4-1.3l17.3-10
																			c0.4-0.3,1-0.1,1.3,0.4l10,17.3C246.5,169.5,246.3,170.1,246,170.3z"/>
																	</g>
																	<path d="M46.4,314.8L18,331.2c-0.5,0.3-1.3,0.1-1.5-0.4l-9.8-16.9c-0.3-0.5-0.1-1.3,0.4-1.5l28.4-16.5
																		c0.5-0.3,1.3-0.1,1.5,0.4l9.8,16.9C47.1,313.7,46.9,314.4,46.4,314.8z"/>
																	<path d="M65.3,360.9L42.7,374c-0.4,0.3-1.1,0.1-1.3-0.4l-9.9-17.1c-0.3-0.4-0.1-1.1,0.4-1.3l22.6-13.1
																		c0.4-0.3,1.1-0.1,1.3,0.4l9.9,17C65.9,360,65.7,360.6,65.3,360.9z"/>
																	
																		<rect x="-59.9" y="146.8" transform="matrix(0.8653 -0.5012 0.5012 0.8653 -60.6069 86.1418)" width="379.8" height="18.1"/>
																	<path class="st12" d="M315.5-88.8c-5.3,3.1-164,95-230.7,133.7c0,0-11.3,6.5-29.1,16.8
																		C-11,100.4-169.7,192.3-175,195.3c-6.7,3.9-12.7,10.2-6.2,14.9c6.4,4.7,82.6,51.3,90.6,55.9
																		c8,4.7,9.6,1.4,13.2-0.7l188-108.9l29.1-16.8L327.9,30.8c3.7-2.1,7.3-1.9,7.2-11.2s-2.7-98.4-3.5-106.4
																		C330.7-94.7,322.3-92.7,315.5-88.8z"/>
																</g>
																<g>
																	<path class="st13" d="M905.8,277.2c0,0-30.2,16.2-33.2,18.1s-11.3,1.1-13.1-1.4c-1.9-2.6-4.4-7.8-5.7-10.9
																		s-1.3-8,2.4-9.9c3.7-2,33.9-22.8,33.9-22.8L905.8,277.2z"/>
																	<circle class="st13" cx="951.8" cy="226.6" r="67.2"/>
																	<circle class="st14" cx="951.8" cy="226.6" r="57.2"/>
																	<path class="st15" d="M898.4,267.4c0,0-30.6,20.9-33.6,23s-2.5,5.5,0,5.8"/>
																</g>
																<g>
																	<path class="st13" d="M984.8,519.3L875,425.6l-9.5-13.1l-5.5-7.7l22.2,10.8L991.6,510c0,0,0.6,2.1-2.3,6
																		C986.4,520.1,984.8,519.3,984.8,519.3z"/>
																	<polygon class="st14" points="869.1,412.7 865.6,412.5 860,404.8 870.2,409.8 																	"/>
																	<path class="st15" d="M875,425.6c0,0,5.9,0.2,5.2-3.7c3.9-0.3,3.7-6,2.9-6.1"/>
																</g>
															</g>
														</g>
													</g>
													<g>
														<rect id="SVGID_1_" x="221.5" y="202.5" class="st16" width="771.7" height="504.4"/>
													</g>
												</g>
											</g>
										</g>
										<g>
											<path id="SVGID_2_" class="st16" d="M987.5,707.9H227.1c-3.1,0-5.6-2.5-5.6-5.6V116c0-3.1,2.5-5.6,5.6-5.6h760.4
												c3.1,0,5.6,2.5,5.6,5.6v586.3C993.2,705.4,990.7,707.9,987.5,707.9z"/>
										</g>
									</g>
									<g>
										<circle class="st17" cx="274.8" cy="165.8" r="26.5"/>
										<text transform="matrix(1 0 0 1 313.5785 176.1627)" class="st18 st19 st20">Agente J</text>
										<text transform="matrix(1 0 0 1 473.7225 176.1627)" class="st18 st19 st20">Amigos Universidad</text>
										<g>
											<g>
												<path d="M269.2,153.3c0.1-0.7,0.7-1.3,1.5-1.3h2.1c0.8,0,1.5,0.6,1.5,1.5h1.5c0.1-0.8,0.7-1.5,1.5-1.5h2.1
													c0.7,0,1.3,0.5,1.4,1.3l1.3-0.3c-0.8-3.5-3.8-6-7.6-6c-3.7,0-6.8,2.6-7.6,6L269.2,153.3z"/>
												<path d="M281.2,154.4v0.2c0,0.9-0.7,1.6-1.6,1.6h-2.1c-0.8,0-1.5-0.6-1.5-1.5h-1.5c-0.1,0.8-0.7,1.5-1.5,1.5h-2.1
													c-0.9,0-1.6-0.7-1.6-1.6l0,0l-2.1-0.4c0,0.2-0.1,0.4-0.1,0.5c0,4.3,3.5,7.8,7.8,7.8s7.8-3.5,7.8-7.8
													c0-0.2,0-0.4-0.1-0.5L281.2,154.4z"/>
											</g>
											<path d="M274.9,164.3L274.9,164.3L274.9,164.3C274.8,164.3,274.8,164.3,274.9,164.3L274.9,164.3
												c-7.9,0.1-14.1,7.5-14.1,12s3,4.9,7,4.9c3.8,0,6.7,0,7,0h0.1c0.2,0,3.1,0,7,0c4,0,7-0.4,7-4.9
												C288.8,171.9,282.7,164.3,274.9,164.3z"/>
										</g>
										<path class="st18" d="M458.8,165.2l-15.3-13.8c-0.4-0.4-1.3-0.1-1.3,0.5v27.7c0,0.6,0.7,1,1.3,0.5l15.3-13.8
											C459.1,166,459.1,165.5,458.8,165.2z"/>
									</g>
								</g>
							</g>
						</g>
					</g>
					<rect x="65.3" y="-0.3" class="st21" width="1134.7" height="900.3"/>
					<g>
						<g>
							<path class="st22" d="M891.5,184.5H734.8c-18.3,0-33.1,14.9-33.1,33.1v54.6c0,8.1,6.6,14.8,14.8,14.8h32.1v-43h129.1v43h32.1
								c8.1,0,14.8-6.6,14.8-14.8v-54.6C924.6,199.3,909.8,184.5,891.5,184.5z"/>
							<path class="st23" d="M839.5,129.6h-85.9c-1,0-1.8,0.8-1.8,1.8v163.2c0,2.3,1.9,4.1,4.1,4.1h114.5c2.3,0,4.1-1.9,4.1-4.1
								v-130L839.5,129.6z"/>
							<g>
								<path d="M779.6,264.7h67.1c1.6,0,2.9-1.3,2.9-2.9s-1.3-2.9-2.9-2.9h-67.1c-1.6,0-2.9,1.3-2.9,2.9
									C776.7,263.4,778,264.7,779.6,264.7z"/>
								<path d="M779.6,282.2h67.1c1.6,0,2.9-1.3,2.9-2.9s-1.3-2.9-2.9-2.9h-67.1c-1.6,0-2.9,1.3-2.9,2.9
									C776.7,281,778,282.2,779.6,282.2z"/>
								<path d="M757.5,135.4C757.5,135.4,757.6,135.4,757.5,135.4l74-0.1v32.1c0,2.9,2.3,5.2,5.2,5.2h31.9v9.6h5.8v-17.6l-35-35
									h-81.9c-3.2,0-5.9,2.6-5.9,5.9v46.7h5.7L757.5,135.4L757.5,135.4z M837.4,135.6l31.3,31.3h-31.3V135.6z"/>
								<path d="M868.8,293C868.8,293,868.7,293,868.8,293H757.7c-0.1,0-0.1-0.1-0.1-0.1v-44.7h-5.7V293c0,3.2,2.6,5.9,5.9,5.9h111
									c3.2,0,5.9-2.6,5.9-5.9v-44.7h-5.8L868.8,293L868.8,293z"/>
								<path d="M891.5,187.4H734.8c-16.7,0-30.2,13.5-30.2,30.2v54.6c0,6.5,5.4,11.9,11.9,11.9h29.2v-42.9h135v42.9h29.2
									c6.5,0,11.9-5.4,11.9-11.9v-54.6C921.8,200.9,908.2,187.4,891.5,187.4z"/>
							</g>
						</g>
						<g>
							<g>
								<path d="M346.8,298.9c-4.9,0-14.3-2.3-21-5.8c-2.3,3.1-5.9,5-9.8,5h-20.7c-6.7,0-12.2-5.5-12.2-12.2v-85.4
									c0-6.7,5.5-12.2,12.2-12.2H316c3.8,0,7.3,1.8,9.7,4.8c4.7-2.4,14.7-8,21.5-15.7c3.8-4.3,12.5-15.3,12.4-24.8
									c-0.1-6.9,2.2-13.3,6.4-17.6c3.5-3.6,8.1-5.5,13.1-5.5c5.5,0,10.8,2.4,14.9,6.7c5.4,5.6,8,14,7.3,23.4
									c-0.5,8.9-3.5,19.2-8.1,28.2h40.6c8.1,0,12.3,4,14.4,7.4s3.1,7.8,3.1,13.6c0,4.9-1,9-3,12.4c2.3,2.5,4.8,6.7,4.8,13.3
									c0,7.1-3,13.3-8.1,17c1.2,2.7,1.7,5.7,1.7,9.2c0,6.6-2.3,12.4-6.4,15.9v4.7c0,8.1-6.6,17.3-16.2,17.3L346.8,298.9
									L346.8,298.9z"/>
								<path class="st18" d="M379,130.6c5.2,0,10.2,2.2,14.1,6.4c5.1,5.5,7.6,13.4,7.1,22.6c-0.5,9.6-4,20.4-8.9,29.4h42.4
									c7.6,0,11.5,3.8,13.5,7c2.1,3.2,3,7.4,3,13c0,5.4-1.3,9.6-3.3,12.6c3,2.9,5.1,7.3,5.1,13.2c0,7.2-3.3,13.3-8.5,16.6
									c1.3,2.7,2,5.9,2,9.6c0,6.6-2.5,12.3-6.4,15.5v5.3c0,7.7-6.2,16.2-15.1,16.2h-77.1c-4.8,0-14.7-2.4-21.4-6.2
									c-2,3.2-5.5,5.4-9.5,5.4h-20.7c-6.2,0-11.1-5-11.1-11.1v-85.4c0-6.2,5-11.1,11.1-11.1H316c3.9,0,7.3,2.1,9.3,5.1
									c4.7-2.3,15.4-8.1,22.6-16.3c3.8-4.4,12.8-15.7,12.6-25.5c-0.1-6.6,2.1-12.8,6.1-16.8C369.9,132.4,374.3,130.6,379,130.6
									 M379,128.5c-5.3,0-10.2,2.1-13.9,5.8c-4.4,4.5-6.9,11.2-6.7,18.3c0.1,3-1,11.5-12.1,24.1c-6.3,7.2-15.5,12.4-20.4,15
									c-2.5-2.9-6.1-4.6-9.9-4.6h-20.7c-7.3,0-13.2,6-13.2,13.2v85.4c0,7.3,6,13.2,13.2,13.2H316c3.9,0,7.6-1.7,10.1-4.7
									c7,3.5,15.9,5.5,20.8,5.5H424c10.2,0,17.3-9.7,17.3-18.3v-4.3c4.1-3.8,6.4-9.7,6.4-16.5c0-3.3-0.5-6.3-1.4-8.9
									c5-3.9,8-10.3,8-17.4c0-6.5-2.2-10.8-4.6-13.5c1.9-3.4,2.8-7.5,2.8-12.3c0-6-1.1-10.6-3.3-14.1c-2.2-3.7-6.8-8-15.3-8H395
									c4.3-8.8,7-18.5,7.5-27.1c0.6-9.7-2.1-18.3-7.7-24.2C390.3,131,384.8,128.5,379,128.5L379,128.5z"/>
							</g>
							<g>
								<g>
									<path class="st18" d="M376.5,196.5c0,0,50.2,0,57.2,0c7.1,0,8.9,4.9,8.9,12.4c0,7.4-3.1,11.3-7.1,11.3c-3.8,0-8.9,0-11.9,0
										s-3,4.8,0,4.8c2.8,0,8.9,0,13.1,0c4.1,0,7.6,3.5,7.6,9.7s-3.7,11.5-9.8,11.5c-3.3,0-10.7,0-13.7,0s-3,4.6,0,4.6
										c4,0,4.1,0,9.7,0s7.3,4.9,7.3,10c0,5.1-2.5,10.7-6.9,10.7s-14.6-0.2-17.6-0.2s-3.3,4.3,0,4.3s16,0.2,18.1,0.2
										c0,2.1,0,1.8,0,5.6c0,3.8-3.3,8.7-7.6,8.7c-4.3,0-71.1,0-77.1,0c-6.1,0-18.9-4.6-21.1-7.7c0-16,0-80,0-80
										s17.1-7.2,27.8-19.4c10.7-12.3,14.6-22.9,14.5-30.6c-0.2-7.7,4-14.3,10.9-14.3s14.5,7.3,13.7,20.9
										C391.8,172.8,384.5,188.9,376.5,196.5z"/>
									<path d="M379,138.1c6.9,0,14.5,7.3,13.7,20.9c-0.8,13.7-8.1,29.8-16.1,37.4c0,0,50.2,0,57.2,0c7.1,0,8.9,4.9,8.9,12.4
										c0,7.4-3.1,11.3-7.1,11.3c-3.8,0-8.9,0-11.9,0s-3,4.8,0,4.8c2.8,0,8.9,0,13.1,0c4.1,0,7.6,3.5,7.6,9.7s-3.7,11.5-9.8,11.5
										c-3.3,0-10.7,0-13.7,0s-3,4.6,0,4.6c4,0,4.1,0,9.7,0c5.5,0,7.3,4.9,7.3,10c0,5.1-2.5,10.7-6.9,10.7s-14.6-0.2-17.6-0.2
										s-3.3,4.3,0,4.3s16,0.2,18.1,0.2c0,2.1,0,1.8,0,5.6c0,3.8-3.3,8.7-7.6,8.7c-4.3,0-71.1,0-77.1,0s-18.9-4.6-21.1-7.7
										c0-16,0-80,0-80s17.1-7.2,27.8-19.4c10.7-12.3,14.6-22.9,14.5-30.6C368,144.8,372.1,138.1,379,138.1 M379,130.6
										c-4.7,0-9,1.9-12.4,5.2c-4,4.1-6.3,10.2-6.1,16.8c0.2,9.8-8.8,21.1-12.6,25.5c-9.5,10.8-25,17.4-25.1,17.5l-4.7,2v5v79.9
										v2.3l1.3,2c4.4,6.4,20.6,10.9,27.3,10.9h77.1c8.9,0,15.1-8.6,15.1-16.2v-5.3c3.9-3.2,6.4-8.8,6.4-15.5c0-3.7-0.6-6.9-2-9.6
										c5.2-3.2,8.5-9.3,8.5-16.6c0-5.9-2.1-10.3-5.1-13.2c2.1-3,3.3-7.2,3.3-12.6c0-5.6-1-9.8-3-13c-2-3.1-5.9-7-13.5-7h-42.4
										c4.9-8.9,8.3-19.8,8.9-29.4c0.5-9.1-2-17.1-7.1-22.6C389.2,132.8,384.2,130.6,379,130.6L379,130.6z"/>
								</g>
								<g>
									<path class="st18" d="M318.6,289.4h-25.9c-0.5,0-1-0.4-1-1v-90.5c0-0.5,0.4-1,1-1h25.9c0.5,0,1,0.4,1,1v90.5
										C319.5,288.9,319.1,289.4,318.6,289.4z"/>
									<path d="M316,196.9c2,0,3.6,1.6,3.6,3.6v85.4c0,2-1.6,3.6-3.6,3.6h-20.7c-2,0-3.6-1.6-3.6-3.6v-85.4c0-2,1.6-3.6,3.6-3.6
										H316 M316,189.3h-20.7c-6.2,0-11.1,5-11.1,11.1v85.4c0,6.2,5,11.1,11.1,11.1H316c6.2,0,11.1-5,11.1-11.1v-85.4
										C327.1,194.3,322.1,189.3,316,189.3L316,189.3z"/>
								</g>
								<circle cx="304.3" cy="279.7" r="5.7"/>
							</g>
						</g>
						<g>
							<path d="M627.3,315.4c-21.1,0-38.3-17.2-38.3-38.3c0-3.6,0.5-7.2,1.5-10.6l-38.2-24.1c-7.1,6.5-16.3,10.1-25.9,10.1
								c-21.1,0-38.3-17.2-38.3-38.3s17.2-38.3,38.3-38.3c10,0,19.5,3.8,26.7,10.8l37.9-23.4c-1.3-3.9-2-8-2-12.1
								c0-21.1,17.2-38.3,38.3-38.3s38.3,17.2,38.3,38.3s-17.2,38.3-38.3,38.3c-9.6,0-18.6-3.5-25.7-9.9l-38.4,23.7
								c1.1,3.6,1.6,7.2,1.6,10.9c0,4-0.6,8.1-1.9,11.9l37.6,23.8c7.2-7.1,16.7-11,26.8-11c21.1,0,38.3,17.2,38.3,38.3
								C665.6,298.2,648.4,315.4,627.3,315.4z"/>
							<path class="st18" d="M627.3,114.1c20.5,0,37.1,16.6,37.1,37.1s-16.6,37.1-37.1,37.1c-9.9,0-18.9-3.9-25.6-10.2l-40,24.7
								c1.2,3.6,1.8,7.4,1.8,11.5c0,4.4-0.7,8.5-2.1,12.4l39.3,24.8c6.7-7,16.2-11.3,26.7-11.3c20.5,0,37.1,16.6,37.1,37.1
								s-16.6,37.1-37.1,37.1c-20.4,0-37.1-16.6-37.1-37.1c0-3.9,0.6-7.7,1.7-11.2L552.3,241c-6.7,6.4-15.8,10.4-25.8,10.4
								c-20.5,0-37.1-16.6-37.1-37.1s16.6-37.1,37.1-37.1c10.4,0,19.8,4.3,26.5,11.1l39.5-24.3c-1.4-3.9-2.2-8.2-2.2-12.6
								C590.2,130.8,606.8,114.1,627.3,114.1 M627.3,111.7c-21.7,0-39.5,17.7-39.5,39.5c0,3.9,0.5,7.9,1.7,11.5l-36.2,22.4
								c-7.3-6.8-16.7-10.5-26.8-10.5c-21.7,0-39.5,17.7-39.5,39.5s17.7,39.5,39.5,39.5c9.7,0,18.8-3.5,26-9.8l36.6,23.2
								c-0.9,3.3-1.3,6.7-1.3,10.1c0,21.7,17.7,39.5,39.5,39.5c21.7,0,39.5-17.7,39.5-39.5c0-21.7-17.7-39.5-39.5-39.5
								c-10.1,0-19.6,3.8-26.9,10.6l-36.1-22.7c1.1-3.7,1.7-7.5,1.7-11.4c0-3.5-0.4-7-1.3-10.4l36.9-22.7c7.2,6.3,16.3,9.7,25.9,9.7
								c21.7,0,39.5-17.7,39.5-39.5C666.8,129.4,649.1,111.7,627.3,111.7L627.3,111.7z"/>
						</g>
					</g>
					<g>
						<g>
							<g>
								<defs>
									<rect id="SVGID_11_" x="65.3" y="-0.3" width="1134.7" height="900.3"/>
								</defs>
								<clipPath id="SVGID_12_">
									<use xlink:href="#SVGID_11_"  style="overflow:visible;"/>
								</clipPath>
								<g class="st24">
									<g>
										<path d="M430.2,587.9c0,0-41.1,3.6-43.4,3c-2.4-0.6-17.1,21.8-20,22.7c-3,0.9-76,16.7-83.5,18.9
											c-7.5,2.1-12.4,41.1-12.7,61.7c-0.3,20.7-1.8,75.8,0.9,87.2s9.3,32.9,14.7,38.3c5.4,5.4,20.4,14.4,24.3,14.4
											s6.6,0.6,6.6,0.6s8,45.6,8.5,88.3c0.4,30.6-7.8,63.5-7.8,63.5s86.5,33.7,232.8-6.8c-1-21.3-6.2-33.8-6.8-48.5
											c-1.4-36.9,2.8-58.8,2.8-58.8s21.3-3.8,28.2-19.6s14.1-66.8,12.3-81.8s-4.3-122.3-6.7-135.1s-32.3-17.4-50-22.9
											c-14.1-4.4-41.6-10.6-45.2-11.9c-3.6-1.2-8.9-10.8-12.1-15.9S447.6,587.3,430.2,587.9z"/>
										<g>
											<path class="st25" d="M385.9,592.2c0,0-8.2-2.9-6.4,22.1c0.4,4.8,30.6,128.6,57.3,191.3c-16.8-35.4-34.6-86.5-42.2-117.1
												c-5.8-23.6-19.4-19.9-24.1-37.9c-4.3-16.5-6.4-29.5-6.7-30.7c-6.7,3-5.3,13-5.7,12.3c-0.4-0.7-3-15.1-12.3-13.5
												c-9.2,1.5-59,13.5-59,13.5s19.7,17.8,23.1,26.1c4,9.9,8.8,34.5,8.8,34.5s-8.2-27-11.5-33.4c-1.5-3.1-22-23.2-25.1-22.4
												c-3,0.8-4.1,31.1-4.5,40c-0.1,2.7,10.1,33.7,17.4,44.7c7.2,11,9.2,11.6,9.2,11.6s-11-9-15.4-15.4s-10.1-11.6-10.1-10.6
												c0,1.1-0.2,26.4-0.4,32.3c-0.2,5.9,2.4,21.6,5.7,27.5c3.3,5.9,8.8,14.9,8.8,14.9s-11.9-14.1-13.6-15.4
												c-1.7-1.3-4.8-9.5-4.8-9.5l-2.1,16.5l11.4,40.3l9,6.6l5.8,9.5c0,0-14.8-9.2-16.5-12.8c-1.8-3.5-4.7-13.2-7.1-20.7
												s-6.4-19.2-7.2-36.3c-0.9-17.2,2.7-65.2,2.4-76.3s5.1-25.1,7.1-33.9c2-8.9-0.1-19.3,8.7-22.9c8.8-3.5,83-18.3,83.4-18.8
												c9.1-12.8,10.6-14.1,13.2-16.5c0.8-0.8,2-1.2,3.1-1.2l4.5,0.1L385.9,592.2z"/>
											<path class="st25" d="M292.8,823.4l-3-12.8c0,0-7.2-13.2-10.2-25c0.4,7.8,5.8,22.6,5.8,22.6l2,9.8L292.8,823.4z"/>
											<path class="st25" d="M290.2,815.8c-0.4-0.6-5.3-20.5-6.9-24.7c-1.5-4.3-2.7-9.2-2.7-9.2s10.6,24.6,11.1,26.3
												C292.3,809.8,290.2,815.8,290.2,815.8z"/>
										</g>
										<g>
											<path class="st25" d="M465.3,584.2c0,0,11,1.6,10.3,26.6c-1.2,39.3-7.9,81.4-32,144.6c19.8-23.7,50.8-140.4,51.5-143.3
												c6.4,3,5.1,13,5.5,12.3s3-15.1,11.8-13.5c8.9,1.5,56.8,13.5,56.8,13.5s-13.6,17.8-16.8,26.1c-3.8,9.9-14,34.5-14,34.5
												s13.5-27,16.6-33.4c1.5-3.1,15.8-23.2,18.7-22.4s3.1,65.9,3.5,74.7c0.1,2.7-9.7,33.7-16.6,44.7c-7,11-8.9,11.6-8.9,11.6
												s10.6-9,14.8-15.4s9.8-11.6,9.8-10.6c0,1.1,0.2,26.4,0.4,32.3c0.2,5.9-1,34.4-4.2,40.3c-3.2,5.9-8.4,14.9-8.4,14.9
												s11.4-14.1,13.1-15.4c1.7-1.3,4.7-9.5,4.7-9.5l2.1,16.5l-11,40.3l-8.7,6.6l-5.6,9.5c0,0,14.1-9.2,15.8-12.8
												c1.7-3.5,4.5-13.2,6.8-20.7s6.1-19.2,7-36.3c0.9-17.2-3.3-112.7-3-124c0.2-11.2,0.7-25.1-1.2-33.9
												c-1.9-8.9-5.3-19.3-13.7-22.9c-8.4-3.5-85.4-19.6-85.7-20.1c-10.5-15.3-7.5-11.8-10-14.3c-0.8-0.8-3.4-2.1-4.5-2.1
												l-5.2,0.3L465.3,584.2z"/>
											<path class="st25" d="M564,863.4l2.9-12.8c0,0,6.8-13.2,9.8-25c-0.4,7.8-5.5,22.6-5.5,22.6l-1.9,9.8L564,863.4z"/>
											<path class="st25" d="M566.5,855.7c0.4-0.6,5.1-20.5,6.6-24.7c1.5-4.3,2.6-9.2,2.6-9.2s-10.2,24.6-10.6,26.3
												C564.4,849.8,566.5,855.7,566.5,855.7z"/>
										</g>
										<g>
											<path class="st25" d="M389.2,579c0.1,0.4,0.2,1.8,0.2,14.1c-2.5-0.3-6.4,1.3-6.4,5.8c0,22.6,21.6,90.2,22,88.9
												c5.5-15,10.9-29.8,25-36.6c28.8,14,30.2,36.4,30.2,36.4s11.9-51.2,8.1-98c-0.2-1.7,0.1-5-2.4-5.5
												c-1.6-6.4-4.3-13.1-4.7-21.6C460.1,545.2,389.2,579,389.2,579z"/>
											<path d="M402.1,579.2c0.1,1,5.6,33.2,3.8,41.8c-0.7,3-14.2-15.8-14.2-15c-0.2,2.5,13.1,28.7,38.7,44.8
												c19.7-20.2,36.1-48.1,36.1-48.1s-11,15.1-11.6,9.8c-1.3-13.1-3.8-37.3-4.3-49.7C449.8,545.3,402.1,579.2,402.1,579.2z"/>
										</g>
										<g>
											<path class="st25" d="M368.9,540.8c0.1-1.2-3.2-19.6-5.2-23.5s-3.9-13.6-5.9-16.8s0.6-20.7,1.2-21.9
												c0.5-1.2,4.4-4.6,6.4-4.6s3.4-10.6,3.5-12.9c0.1-2.2,18.8-8.4,21.4-11.5c2.5-3,14.5-5,15-4.5s7.5-2.2,9.8-1.1
												c2.2,1.1,10.6,3.3,12.2,5c1.5,1.7,8.8,3.3,8.8,5.5s5,9.8,5,9.8s8.7,1.1,10.9,2.2c2.2,1.2,6.4,13.7,7.8,16.8
												c1.4,3-0.3,28.7,2,29.4c2.2,0.6,1.1,16.5,1.1,16.5l-91.1,12.9"/>
											<path d="M374,538.6c-0.6-0.6-3.2-5.6-3.8-6.5c-0.5-0.9-0.9-4.2-1.3-5.6c-0.4-1.4-1.3-3.8-1.4-5.5s0.9-4.6-0.1-4.8
												c-1.1-0.3-2.2-2.3-2.3-2.9c-0.1-0.5,0.5-4.3,0.1-4.6c-0.4-0.3-1.3-3.2-1.7-4c-0.4-0.8-1.4-4.4-1.2-5.2s0.5-3.4,0.1-4.2
												c-0.4-0.8,0-3.5,0-4.7s0.1-5.1,0.4-5.7s0.6-4.6,0.6-4.6l2.8-1.2c0,0,3.7-2.8,4.3-2.5c0.6,0.3,3.8,2.1,4.3,2.1
												s-4.4-5.5-3.8-5.8s-2.5-1.1-2.5-1.1l3-10.4l3.3-2.9c0,0,9.4-4.1,10.5-4.2s9.5-6.8,9.5-6.8s6.2-1.5,10.5-1.3
												c1.3,0.1,6.2-0.6,6.8-1.8c0.6-1.2,9.6,6.4,10.4,6.2c0.8-0.3,5.6,3.5,5.6,3.5s6.3,0.2,6.8,1.4c0.7,1.9,3.8,9.7,2.3,7.5
												c0,0,3.9,4.7,4.8,6.1c0.3,0.4,5.7-0.8,7.1-0.3c1.3,0.5,4.2,2.3,4.6,3.8c0.4,1.4,1.3,3.7,1.3,3.7s0,5.1,1.3,5.8
												c1.3,0.8,2.2,7.2,2.2,7.2l0.3,7.1c0,0,0.1,5.7,0.1,6.4c0,0.6,1.3,9.4,1.3,9.4l0.3,3l-5.4,4.2L374,538.6"/>
											<path d="M417.7,587.7c4.5,0,17.5-2.5,26-9.3c8.6-6.8,16.7-22.1,17.1-27.1s0.9-7.2,0.9-7.2s8,0.6,9.4-9.4s1-27.1-4.2-26.9
												c-7.2,0.3-5.5,10.1-5.5,10.1l-5.3,1.3c0,0-2.1-16.4-3.1-21.7c-1.1-5.4-6.1-11.8-10.7-13.9c-4.7-2.1,3.2-7.2-5.7-12.2
												c-8.9-5-21.4-6.4-31.4-1.8c-7.9,1.1-15.7,2.1-21.7,5.7S373,485.6,373,494.1c0,8.6,3.2,10.9,0,12.4
												c-3.2,1.4,0.2,25.6,0.5,29.4l-4-0.4c0,0-2-7.3-6.4-7.3c-7.1,0,0.4,20.9,2.2,26c1.8,5,4.3,8.9,12.5,7.5
												c2.1,10.4,4.5,18.5,19.6,22.5C407.1,586.6,413.3,587.7,417.7,587.7z"/>
											<path class="st25" d="M391,580.9c0,0,7.2,2.5,14.2,2.6c-2.8-6.8-6.4-9.4-8.2-11.5c-1.9-2.1-1.6-6-1.2-10.6
												c-2.3-4.4-2.3-9.9,2.1-16.9c-1.2-1.2-0.7-1.9-1-4.7s-2.8,0.4-2.6,3.9c0.3,3.5-3.8,7-7.4,7.7c-3.8,0.7-4.7-8.9-2.3-12.7
												c2.3-3.8,2.6-8.5-1.3-10.6c-3.8-2.1-3.7-6.1-2.4-9.3c2.5-6.5,3.2-5,9.5-9.6c1.6-1.2-0.3-5.3-6.4-3
												c-2.9,1.1-9.8,7.4-8.8,5.7c11.7-19.8,31.1-8.1,30.7-11.2c-0.2-0.9,0.1-5.1,0.4-9.5c0.7-10.5-7.1-24.3-20.2-17.5
												c-4.7,2.4-14.3,13.5-13,20.2c1.4,6.7,2.8,9.8-0.3,11.6c-3,1.9,0.4,24.9,0,30.7s0.9,13,3.9,20S374.9,573.4,391,580.9z"/>
											<path class="st25" d="M448.2,574.1c0,0-4.6,6.2-15.2,10.1c6.4-5.2,6.9-4.7,7.6-9.1c1.8-11.4,1.2-13,1.9-14.4
												c1.3-2.5,0-6.3-1.6-10.6c1.1-4.8-0.8-9.1-6.9-14.8c0.8-1.4,0.6-3,0.1-5.8s2.8-0.3,3.5,3.1c0.7,3.4,5.4,5.7,9.1,5.5
												c3.8-0.3,2.1-9.8-1.1-12.8c-3.2-3.1-4.7-7.5-1.5-10.6c3.1-3,1.9-6.8-0.1-9.6c-2-2.9-6.5-9.5-3.6-9c3,0.4,2.1,0.3,3.8-0.9
												s-11-12.3-11.4-15.3s0.8-7.2-2.4-11.3c-3.3-4.1,11.2,3,11.6,9.8c0.4,6.9,1,5.4,5.7,8.8c4.9,3.5,8.2,22.3,8.7,32.8
												c0.3,5.8,2.4,7.4,3.7,14.9C462.7,549.4,462.7,554.7,448.2,574.1z"/>
											<path class="st25" d="M461.8,544c0,0,7.5,0,8.1-10.6c0.3-5.7-0.5-19.7-1.6-22c-1.5-3.3-5.2-0.4-6.7,1.4
												c-0.7,0.9,1.3-8,6.4-5.7c5.1,2.2,3.7,15.3,3.8,22.2C472.5,541.6,465.7,545,461.8,544z"/>
											<path class="st25" d="M377.8,559.1c-7.6,3.3-9-0.2-10.9-5.2c-0.4-1.3,0.6-2.5,1.5-3.2v0.1l3.2-2.5c0,0,0-3.4-3.2-1.4
												c0,0-1.3-2.6-2.3-7.1c-1.1-4.5,0-7.8,0-7.8c0.6,1,1.2,2.1,1.4,2.9c0.6,1.7,4.2,6.3,4.1,4.4c-0.1-1.1-2.1-3.8-3.1-7.4
												c0.3,0.2,0.1-0.4-0.4-1.1c-0.4-0.9-1-1.4-1.5-1.8c-1.6-1.4-3.8-2.5-6-0.6c-4.2,3.8,1.2,15.8,3,22.3
												c3.3,11.8,10.8,13,14.2,10.9C377.8,561.6,380,558.1,377.8,559.1z M361.7,532.4c0.2-1.3,0.9-2,1.8-2.1c0.1,0,0.2,0,0.4,0
												l0,0c0.2,0,0.4,0,0.5,0c-0.4,1.9-0.8,5-1,7.3c-0.2,3,2.7,8.2,3.7,10.2c-0.3,0.7-0.9,1.6-1.5,2.4
												C363.7,543.9,361.4,534.5,361.7,532.4z"/>
											<path class="st25" d="M399.9,575.7c-0.7,2.4,0.8,5.5,3,6.9c5.4,3.3,15.8,4.3,15.8,4.3s-10.3-3-9.8-12
												c0.3-5.6,10.9-6,10.9-6c3.3-0.6,11.9,1,13.9,3.2c-10.3-9.4-14.8-5.8-17-9.1c-2.2-3.2-1.3-6.2-1.3-6.2s3.1,0.9,6.2-4.3
												c0.3-2.8-0.2-1.7-5.3-2.4c-3.1-0.4-5.9-0.4-8.6,1.7c-4.2,3.2-4.5,4.5-6,4.7s-2.9-0.6-3.6-2.6c-0.6-2,0.5,2.8,4.4,0.2
												c3.8-2.6,7.2-8.9,8.9-8.6c1.6,0.4-1-7.4-1-7.4s-3.6-0.6-4.7-2.4c-3.6,7.8-4.7,7.2-5.7,9.8c-1.1,2.6-6.1,9.1-0.9,13.9
												C397.5,566.7,397.9,572.8,399.9,575.7z"/>
											<path class="st25" d="M395.8,552c5.3-16.3,8.7-12.2,8.7-15.4s1.6-8.1,5.3-10.8c-2.3,4.6-4.3,7.2-2.6,7.9
												c2-2,3-2.6,5.5-1.3c2.6,1.3,2.9-3.2,3-4.9c0.2-1.8-1.8-5.8-2.6-6.3c-0.8-0.4-0.8-0.6-1.8-5.6s-2.7-9.9-2.4-10.7
												c0.4-0.8-2-1.4-2,0.6s1.4,13.8-4.8,17c-6.3,3.2-9.3,2-9.3,2s2.7-3.7,2.4-5c-5.5,1.6-11.1,0.6-12.4-0.6
												c-5,5.5-9.7,6.5-9.5,14c0.2,7.3,5.3,32.2,10.7,37.3c5.5,5.1,9.3,7.3,12.2,7.5c1.4,0.1-0.6-3.1-1.5-8.1
												C394,564.2,394.1,557.1,395.8,552z"/>
											<path class="st25" d="M444,508.7l-4.1-2.6c0,0-0.4,2.1-6.1,4.3C433.8,510.3,442.4,511.1,444,508.7z"/>
											<path class="st25" d="M443.2,504.7c0,0-3.1-7.1-9.4-5.9s-13.2,2.1-13.2,2.1s17.4-4.8,20-4.8c0,0,4.5,4.2,5.3,5.5
												C446.8,502.9,443.2,504.7,443.2,504.7z"/>
											<path class="st25" d="M407.9,500.6c-1.1-0.3-1.3-3.4-1.3-4.8s-0.4-7.7-0.4-7.2c0.1,2.1,2.3,2.7,2.7,2.9
												c0.4,0.3,3.2,8.9,2.4,9.3C410.6,501.1,407.9,500.6,407.9,500.6z"/>
										</g>
										<g>
											<g>
												<g>
													<g>
														<g>
															<path d="M457.2,494c-0.2-0.8-0.5-1.7-0.7-2.1c-0.5-1.2-1.8-1.2-6.7-0.9c-3,0.2-6.9,0.5-10.7,0.9h-0.3
																c-8.1,0.7-14.9,3-17.5,4.1c-2.4,1.1-5.4,3.6-5.6,4.7c0,0.1,0,0.3,0,0.4c-1.3,0.6-2.8,1-4.7,1c-0.3,0-0.9,0-1.3-0.1
																c0-0.2-0.1-0.4-0.2-0.4c-0.5-1.1-4-2.8-6.6-3.2c-2.9-0.4-10-1-18.1,0.4l-0.3,0.1c-3.8,0.6-7.7,1.3-10.6,1.8
																c-4.8,0.9-6,1.3-6.3,2.5c-0.1,0.4-0.2,1.3-0.2,2.1c0,0.6,0.1,2.6,1.9,2.9c0.1,0,0.2,0,0.4,0.1
																c0.9,0.1,1.1,0.3,1.3,0.5c0.1,0.3,0.3,0.8,0.5,1.5c1.3,4,2.9,8.1,4.1,9.6c0.3,0.4,0.5,0.7,0.8,1.1
																c1.1,1.5,2.3,3.2,5.7,4c2.7,0.7,6.6,1,10.4,0.5c1.5-0.2,3.1-0.5,4.6-1c5-1.7,8.8-5.4,9.7-9.3c0.3-1.2,0.6-3,1-4.8
																c0.4-1.6,0.8-3.8,1.2-5.4c0.7,0.2,1.4,0.2,2.1,0.2s1.3-0.1,2-0.2c1.6-0.2,3-0.6,4.2-1.2c0.7,1.4,1.7,3.5,2.5,5
																c0.8,1.7,1.6,3.3,2.1,4.4c1.9,3.6,6.4,6.1,11.7,6.5c1.5,0.1,3,0.1,4.7-0.1c3.8-0.4,7.5-1.8,9.9-3.1
																c3.1-1.7,3.8-3.7,4.6-5.4c0.2-0.4,0.4-0.8,0.5-1.3c0.8-1.8,1.3-6.1,1.6-10.3c0.1-0.7,0.1-1.3,0.2-1.6
																c0-0.3,0.2-0.4,1.1-0.8c0.1,0,0.2-0.1,0.4-0.1C457.7,496.6,457.3,494.6,457.2,494z"/>
														</g>
													</g>
												</g>
											</g>
											<path class="st18" d="M368.4,505.5c-0.2-1.7,0.3-3,4.2-3.8c3.8-0.8,17.4-3.6,25.2-3c8,0.5,10.5,3.4,10.5,3.4
												s-7.2-2.7-17.8-1.4c-10.6,1.3-17.8,2.2-17.2,4.8c0.5,2.6,3.2,11.6,5.4,15.1c1.9,3,12.3,4.3,17.9,1.7
												c0,0-3.8,2.8-13.2,2.1c-6.6-0.4-8.1-7.7-9.6-11.8c-2.1-5.6-2-5.8-3.4-5.6C368.8,506.9,368.6,507.1,368.4,505.5z"/>
											<path class="st18" d="M437,492.9c0,0,16.7-1.8,18.1-1.3c1.3,0.4,2.1,4,1.8,4.3c-0.3,0.3-2.2,1.2-2.4,1.3
												c-0.3,0.2-0.7,11.8-4,16.2c1.6-5.5,2.5-15.8,2.3-17.4c-0.2-1.5-0.4-3-3-3C447,492.8,437,492.9,437,492.9z"/>
											<path class="st18" d="M418.6,499c0,0-2.1,1.4-0.3,5.7c1.9,4.3,3.5,13.2,14.4,14.3c0,0-7-0.8-10.5-8.2
												C418.7,503.4,418.6,499,418.6,499z"/>
										</g>
										<path class="st26" d="M431.1,654.2c0,0,6.7,7.2,9.3,13.2c2.6,6.1-2.1,15.8-3,18.4c-0.9,2.6-10.7,1.4-12.9,0.6
											c-2.1-0.8-5.5-15.3-5.6-16.6C418.7,668.5,427.3,655.6,431.1,654.2z"/>
										<path class="st26" d="M423.4,690.4c0,0,4.5,3,13.3-0.4c5.5,31.3,6.6,37.4,6.6,37.4s-14.2,36.8-14.1,36.2
											c0.2-0.7-11.5-35.8-11.5-35.8L423.4,690.4z"/>
										<g>
											<path class="st25" d="M372.5,855c0,0-13.3-1.3-14.9-2.2s-13.1-12.6-15.6-18.2c-2.5-5.5-3.8-11.5-5-13.8
												c-1.2-2.2-1.8-1.8-2.1,0.4c-0.3,2.2-5.3,14.1-5.9,16.1c-0.6,2.1-3,6.3-8.3,4.8c-5,5-9.1,2.8-9.6,0.2
												c-0.4-2.7,1.3-26.4,2.2-31c0.9-4.6,21.7-17.5,24.3-19.1c2.7-1.6,28.6,1.6,31,3s2.5,7.1,3.5,9.9c1,2.9,8.7,14.5,8.8,14.9
												C381.4,820.8,372.5,855,372.5,855z"/>
											<path d="M312.7,842.2c0,0,2.2-28.7,3.4-31c1.2-2.2,19.8-16,20.9-16.7c1-0.7,2.8-2.7,8-2.5c5.1,0.2,22.1,4.1,22.7,5.1
												s1.8,5.3,2.2,6.4c-2.3-2.2-3.8-3.7-3.8-3.7s5.1,7.8,6.2,9.2c1,1.4,3,6.4,5.3,7.5c2.3,1,6.4,6,6.7,7.8
												c0.3,1.8-8,25.4-11.5,26.4c-3.7,1-2.2,2.5-9.4,1.4c-6.4-0.9-5.3-1.3-9.2-5.3c-4.2-4.2-9-8.3-10.6-12.1
												s-5.5-12.1-6.9-12.3c-1.3-0.2-5.5,10.6-7.2,14.7c-1.8,4.1-3.7,6.7-8.3,4.8C318,845.3,313.2,846.2,312.7,842.2z"/>
										</g>
										<g>
											<path class="st25" d="M416.1,668.3c0,0-10.6-19.8-13.1-21.3c-2.3-1.6-2.8-5.5-3.6-10.3c-0.8-4.7-1.6-13.9-1.3-17.8
												s-2.7-7.9-1.1-9.5s8.1,0.1,9.3,3.7c1.2,3.6,1.7,10.6,1.7,11.7c0,1.2,2.9,3.9,2.9,3.9s0.8-15.8,0-20.9
												c-1.1-7.3-2.1-21.8-2.1-21.8l0.1-19.2l1.2-8.3c0,0,1.8-3.8,5.9-3.9c3.6-0.2,4.6,4.4,4.7,10.3c0.1,3.7,2.1,21.7,2.1,21.7
												s3.2,14.3,4.4,16.3c1.2,2,7,6.5,8.9,3.4s8.3-7.5,11.1-7.5s5.9,2.8,7.1,5.9c1.2,3.1,1.3,12,1.3,12s5.9-0.8,8.7,1.8
												c1.4,1.3,1.6,8.3,1.6,8.3s6.5,0.4,7.5,2.8c2,4.9-0.4,11.8-3.6,14.6c0.8,9.5-7.9,32-10.6,34.8c-2.8,2.8-15.4,7.5-18.2,9.5
												C438.2,690.4,416.1,668.3,416.1,668.3z"/>
											<path d="M445.1,683c3.5-3.2,12.6-14.2,14.7-18.2c2.1-3.8,3.8-18.5,4.1-20.2c-2.4,1.3,1-1.4,2.1-4.3
												c1.1-2.9-1.9-8.1-0.6-8.8s7.2-1.4,7.2-1.4s2.4-2.9-7.5-2.9c-10,0-13.4-1.6-15.1-0.2c-1.6,1.4-4.1,2.4-4.1,2.4
												s-0.2-7.8,5.7-8.1c5.9-0.4,14.2,0.6,14.2,0.6s-1-5.9-6.7-5.1s-14.9,0.8-14.9,0.8s7.3-8,8.2-10.3c0.4-1,3.8,2.5,4.8,4.6
												c-3.2-9.4-1.9-10.7-8.1-12.5c-5.9-1.7-7.7,3.8-12.9,7.9c-2.1,1.6-4,2.4-5.7,3c-2.1,0.6-8.3-18-8.6-20.9
												c-0.4-4.4-1.3-18.3-1.6-20.9c-0.5-3.5-0.2-11.5-1.4-12.5c-1.3-1-2.6-1.7-4.2,0c-1.4,1.5-2.2,3.3-2.7,8.8
												c-1,12.2-2,12.3-1.6,16.7c0.4,4,0.8,20.3,1.8,23.5c1.8,6.3-0.1,10.2,1.1,14.6c1.9,7.1,0,4.9,0.1,7.1
												c0.1,3.4-0.1,1.3-0.1,1.6c0,0.6,0.4,1.8-1.3,2c-1.9,0.2-3.9-3.6-4.1-5.8s-0.4-10.1-2-11.2c-1.6-1-1.3,0-1.3,1.2
												c0,2.1,1.3,9.4,1.4,13.2c0.2,3.8,5.4,25.4,5.9,27.9s2.9,4.8,5.1,6.8c2.2,2.1,3.8,7.7,5.8,9.9
												C424.7,674.4,445.1,683,445.1,683z"/>
											<path d="M406.4,651.3c0,0-3.9-7-4.8-8.1s-2.3-12.3-2.6-14.7s-0.2-12.4-0.5-13.6c-0.4-1.3-3.2-6.4,2.4-5.8
												c-3-1.6-5.1,0.6-4.4,2.8c0.7,2.1,1.7,9.7,1.9,13.3c0.2,3.7,1.1,15.4,2,17.7C401.2,645.3,406.4,651.3,406.4,651.3z"/>
											<path d="M400.4,610.9c0,0,1.9,1.3,2.1,1.4c0.3,0.3,0.8,4.6,0.8,4.9c-0.1,0.4-0.4,0.8-0.4,0.8l-2.2-1.1
												c0,0,1.4,0.5,1.4-0.4S401.6,611.5,400.4,610.9z"/>
											<path d="M405.1,619.3c-0.7,0.6-1.8,0.8-1.6,1.8c0.2,0.9,1.3,5.6,1.3,6.6s0.2,4.1,0.2,4.8c0,0.8,0.1,3.8-0.2,5.5
												c-0.3,1.7,0.6,4.3,1.3,5.4c0.6,1.1,3,6,3,6l2.3,4.8l2.1,2l0.7-6.8l-6.7-21L405.1,619.3z"/>
											<path class="st25" d="M415.6,562.7c0,0-2.1,0.3-2.5,0.5c0-3.8,0.7-7.2,1-7.4c0.3-0.3,2.2-1.2,2.9-1l-0.3,7.9H415.6z"/>
											<path class="st25" d="M411.4,567.7c0-0.2,1-4,3.2-4.1s0.1,1.1-0.6,2.4c-0.7,1.3-1.4,8.6-0.6,8.9c0.8,0.4,2,1.3,2,1.3
												s-3.8,1.8-3.9,3.2c-0.1,1.3,2.1,24.6,2.7,24.5c4.8-0.5,1.1,2.5-0.7,6.1c-1.8,3.6-1.4,1.5-1.4,1.5s-1.2-18-1.4-20
												c-0.3-2.1-0.7-13.1-0.5-14.9C410.1,575,411.4,567.7,411.4,567.7z"/>
										</g>
										<g>
											<path class="st25" d="M437.8,663.6c7.2,4.5,20.9,20.6,22.6,22.6c1.8,2.1-35.9,58.8-42.5,69.2
												c-6.6,10.5-45,41.7-55.7,49.8c-10.6,8.1-44,27.5-52.2,29s-15.8-6.4-18.3-12s-10.5-37.9-8.7-46s22.6-32,33.3-41.4
												c10.6-9.4,88-71.2,88-71.2s2.3-1.3,4.6,1C413.2,656.9,425.9,656.2,437.8,663.6z"/>
											<path d="M454.6,694.3c0,0-7.3-15-43.9-28.4c-2.9-1.1-5.5-1-8,2.1c-2.4,3-16,15.4-16,15.4s-1.4,0.6,2.2-0.3
												c5.2-1.3,10.4-5.2,10.4-5.2s-15.8,12.3-17.8,13.3c-2,1.1-13.2,6.7-16.1,8.6c-2.9,2-35,27.8-37.1,30.9
												c-2.1,3-7.2,11.8-7.2,11.8s29-22.7,39-24.7c-12.9,7.7-30.2,20.4-44.6,31.6c-3.8,3-7.2-0.4-10.4,2.2
												c-6.6,5.4-11.9,14.9-14.5,18.3c-6.8,9.3-3.2,20-2.1,25.6s3,9.8,6.5,8.5s14.9,3.7,14.9,3.7s-17.5,9.1-16,14.9
												c1.5,5.8,5.6,9.1,8.5,10.6s7,3.9,12.4,0.6c5.5-3.2,48.1-31.5,49.2-34.1s24.5-27.1,24.5-27.1s-8.5,15.2-7.6,14.8
												s32.1-29.7,34.1-32.8c1-1.5,9.3-14.9,17.5-28.1c0.4-0.7-31.5,20.4-31.1,19.7c0.5-0.9,35.2-26.7,35.8-27.5
												C445.4,709.2,454.6,694.3,454.6,694.3z"/>
											<g>
												<path class="st25" d="M436.4,689.4c0-2.1,1.6-3.8,3.8-3.8c-0.4-0.2-0.9-0.3-1.3-0.3c-2.1,0-3.8,1.7-3.8,3.8
													s1.7,3.8,3.8,3.8h0.1C437.5,692.5,436.4,691,436.4,689.4z"/>
												<path class="st25" d="M430.4,697.5c0-2.1,1.6-3.8,3.8-3.8c-0.4-0.2-0.9-0.3-1.3-0.3c-2.1,0-3.8,1.7-3.8,3.8
													s1.7,3.8,3.8,3.8h0.1C431.4,700.5,430.4,699.1,430.4,697.5z"/>
												<path class="st25" d="M418.3,713.5c0-2.1,1.6-3.8,3.8-3.8c-0.4-0.2-0.9-0.3-1.3-0.3c-2.1,0-3.8,1.7-3.8,3.8
													s1.7,3.8,3.8,3.8h0.1C419.4,716.6,418.3,715.2,418.3,713.5z"/>
												<path class="st25" d="M424.3,705.5c0-2.1,1.6-3.8,3.8-3.8c-0.4-0.2-0.9-0.3-1.3-0.3c-2.1,0-3.8,1.7-3.8,3.8
													s1.7,3.8,3.8,3.8h0.1C425.4,708.6,424.3,707.1,424.3,705.5z"/>
											</g>
										</g>
										<path class="st25" d="M519.7,664.4c0,0-4,61.5-3.7,66.8s-2,69.4-0.6,68.1c1.3-1.3,18.3-9.7,36.2-9.7
											c-13.6-3-30.9,1.3-30.9,1.3s-3-44.2-0.6-50.8c2.3-6.6,13.6-22.6,25.2-26.2c-10.6,1.3-26,13-25,12.6s5.3-29.6,8-36.6
											s4.3-9.9,4.3-9.9s-13.3,26.2-13,30.2S519.7,664.4,519.7,664.4z"/>
										<path class="st25" d="M576.8,677.7c1,1.3,2.7,26.6,3,31.9c0.4,5.3-14.9,26.9-14.9,26.9s15.9-15.9,16.3-14.6
											c0.4,1.3,5.6,24.6,6,23.6s-2.3-33.2-3.7-39.2C582.2,700.3,576.8,677.7,576.8,677.7z"/>
										<g>
											<path class="st25" d="M561.9,809.7c-3-3-22.3-13-26.9-12c-4.7,1-19.6,1.7-19.6,1.7L457.5,814c0,0-13.3-1-15.3-1
												s-48.5-3-48.5-3l-2.3,4.7l-16.1-0.3c0,0-11.1,23.2-3.8,45.1c7,0,16.1,1.7,16.1,1.7s0.4,8.8,2.5,18.9
												c-2.3-14.6,4-60.9,5.6-63.8c1.7-3,5.3-2.7,5.3-2.7s23.6-0.4,26.2,2.3c2.7,2.7,3.7,17.6,9.9,17.6c6.3,0,22.9,5.3,22.9,5.3
												l-20.6-9.9c0,0-6.6-9.9-5.3-10.3c1.3-0.4,25-0.4,26.6-0.4c1.7,0,40.9,12.6,40.9,12.6l-32.9-15.3c0,0,50.2-13,51.2-13.6
												s23.6,1,23.6,1L561.9,809.7z"/>
											<path class="st18" d="M560.5,869.3c0,0-32.1,6.5-40.7,5.2c-8.6-1.3-49.9-15.7-49.9-15.7s44.2,12,49.2,12.3
												C524,871.5,560.5,869.3,560.5,869.3z"/>
											<path class="st18" d="M391.9,879.4c2.1,0.3,85.7-4.9,91.7-5.9s28.1-2.1,28.1-2.1l10.6,3L391.9,879.4z"/>
											<g>
												<path class="st25" d="M427.9,867c1.8-1.1,4-0.5,5.2,1.2c-0.1-0.4-0.3-0.9-0.4-1.3c-1.1-1.8-3.5-2.4-5.3-1.3
													c-1.8,1.1-2.4,3.5-1.3,5.3l0.1,0.1C425.9,869.5,426.5,867.9,427.9,867z"/>
												<path class="st25" d="M417.9,866.1c1.8-1.1,4-0.5,5.2,1.2c-0.1-0.4-0.3-0.9-0.4-1.3c-1.1-1.8-3.5-2.4-5.3-1.3
													c-1.8,1.1-2.4,3.5-1.3,5.3l0.1,0.1C415.8,868.6,416.5,867,417.9,866.1z"/>
												<path class="st25" d="M397.9,864.3c1.8-1.1,4-0.5,5.2,1.2c-0.1-0.4-0.3-0.9-0.4-1.3c-1.1-1.8-3.5-2.4-5.3-1.3
													c-1.8,1.1-2.4,3.5-1.3,5.3l0.1,0.1C395.8,866.8,396.4,865.1,397.9,864.3z"/>
												<path class="st25" d="M407.9,865.2c1.8-1.1,4-0.5,5.2,1.2c-0.1-0.4-0.3-0.9-0.4-1.3c-1.1-1.8-3.5-2.4-5.3-1.3
													c-1.8,1.1-2.4,3.5-1.3,5.3l0.1,0.1C405.8,867.7,406.4,866.1,407.9,865.2z"/>
											</g>
										</g>
										<path d="M325.6,911.1c-0.4,19.2-13.2,82.8-15.4,90c-2.1,7.2-5.2,16.6,6.3,19.8c4.2,126.1,8.3,208.3,7.2,221.9
											c-1.1,13.5-10.4,92.7-11.5,110.4c-1.1,17.7-4.2,66.7,1.1,75c5.2,8.3,5.2,27.1,0,44.8c-5.2,17.7-11.5,36.4-4.2,48
											c-27.1,33.4-33.4,51-32.3,60.4s42.7,6.3,50,3.1c7.3-3.1,13.5-14.6,12.5-19.8c11.5,1.1,26-6.3,26-6.3l-1.1-36.4
											c0,0,9.4-6.4,17.7-17.9s12.6-89.6,11.5-107.2c-1.1-17.7,14.4-153.6,15.4-171.3c1-17.7,20.9-160.9,24.1-168.3
											c3.1-7.3,8.6-19.2,13.8,19.3s20.6,159.6,21.6,175.1c1,15.6,4.2,82.7,5.3,89.9c1.1,7.2,9.4,43.9,9.4,54.3
											s-6.3,65.5-4.2,80.1s14.6,50,14.6,50s-3.3,25.1-1.2,34.5c1,4.3,5,2.2,7.1,7.3c2.5,6.1,7.2,14.9,9.5,17.8
											c4.2,5.2,21.4,13.1,31.8,15.2c10.4,2.1,28.6-15.7,26.6-26.1c-2.1-10.4-11.5-32.7-14.7-33.7c-3.1-1.1-7-10.8-0.7-25.4
											s9.4-90.7,6.3-110.4c-3.1-19.8-4.2-137.6-5.2-151.1c-1.1-13.5,1.1-217.7,1.1-220.9s11.5-4.2,12.5-9.4
											c1.1-5.2-21.3-112.6-23.8-119.7C538.4,892.3,326,891.9,325.6,911.1z"/>
									</g>
									<path class="st18" d="M309.3,1521c-4.6-2.2-7.5-18.3-5.5-24.1c2.1-5.7,8.8-37.1,11.1-42.8c2.4-5.7,2.5-13.8,1.4-17.7
										c-1.1-3.9-4.6-12.7-6.3-20.1c-1.7-7.4,3-73,5.4-95.7c2.4-22.6,7.7-70.4,8.1-74.2c0.4-3.8,1.4-43.9-0.9-60.4
										s-8-156.6-5.8-157.1c2.1-0.4,15.4-1.6,19.1-1.6s17-5.7,16.3-1.6c-0.7,4.1-30.2,16.5-24.5,15.7s31.2-9.8,31.2-9.8
										s-23.7,17.7-27.9,18.9c-4.2,1.3,4.8,5.7,8.9,7s15.7-0.4,15.7-0.4s-18.1,10.3-22.2,12.4s-5.2,18.5-2.4,31.2
										s-0.7,31.2,0,35.8c0.7,4.6,17.6,58.4,19.2,68.3c1.6,9.8,0.4,29.6,0.4,29.6s-0.4-36.2-9-46.4c-8.6-10.3-12.7-29.2-12.7-27.6
										s-1.1,34.5,2.1,39.9s13.1,30.9,11.8,29.2c-1.3-1.6-8.5-17.7-11.8-20.9c-3.4-3.3-0.7,14.4,0,21.8s-3.8,35-3.8,35
										s14-21.4,14.4-22.6c0.4-1.3,0.4-1.3,0.4-1.3s-12.2,26.8-11,35c9.4-9,14.8-23,15.6-25.9s1.3,7.4,0,15.7
										c-1.3,8.2-13,20.6-15.6,30.9c-2.5,10.3-9.9,57.5-10.7,68.6c-0.8,11.1-6.6,42.3-4.6,46.9c2.1,4.6,8.6,16.8,9.5,15.7
										c0.8-1.3,3.4-18.9,5.8-33.7c2.4-14.8,13.5-105.7,13.5-105.7s0.8,43.1,3.3,57.5s-6.6,62.5-7,69.9s-20.1,56.7-20.9,66.6
										c-0.8,9.8-0.4,18.1,1.6,22.2c2.1,4.1,12.4-1.3,12.4-3.7c0-2.4-7.8-20.1-6.2-19.3c1.6,0.8,4.9,3.3,12.4,12.7
										c7.4,9.5,15.7,15.2,4.9,18.9c-10.6,3.7-27.9,3.3-28.8,7.6c-0.8,4.3-7,17.1-7,17.1s-2.1-4.6-6,0s-9.6,12.4-5.1,14
										c4.6,1.6,18.5,4.1,20.1,6.2s5.4,8.6,1.6,11.9c-3.7,3.3-5.7,10.3-12.4,9c-6.6-1.3-14.8,1.3-24.7-3.3c-5.6-2.6-7.2-0.6-3-9.8
										c4.3-9.1,11.6-21.5,18.6-29.7C305.4,1528.3,309.3,1521,309.3,1521z"/>
									<path class="st18" d="M324.1,927.2c-1.4,4.2-15.1,72.6-15.3,79.7c-0.2,7.1-3.8,10.5,3.9,12.5c7.8,2.1,32.3-2.1,46.2-4.7
										c13.9-2.6,42.2-17.1,46.6-21.2c0,0-41.6,16.8-48.9,16.5c-7.2-0.4-18.1,5.7-18.3-5.1c-0.4-10.7-2.2-57.4-2.2-63.1
										c0-5.7-7.6-76.1-9.5-81.4c-1.9-5.4-7.7-14.1-7.4-12.3c0.3,1.9,5.7,47.2,6.2,55C325.6,911.1,324.1,927.2,324.1,927.2z"/>
									<path class="st18" d="M501.4,1531.7c0,0-6.5-2.8-7.7-5.5c-5-11-12.1-38.4-12.7-41.1c-0.8-3.4-3.1-11.3-1.9-30.2
										s4.2-58.8,4.2-58.8s-7-41.3-8.2-47.8s-6.3-70.7-6.2-92c0.1-21.3-14.1-120.6-16.3-136.8c-2.1-16.2-8.3-63.5-10.8-66.5
										c-2.4-3.1-3.7-5.2-3.7-5.2s14.8,0.4,19,4.1s14.6,35.4,14.6,35.4s-10.6-20.4-14.6-26.3c-3.9-5.9-10.3-7.2-9.4-5.9
										c0.9,1.3,4.6,25,15.4,36.7c-5,1.3-8.5-5-8.5-5s9.1,31.8,10.9,34c1.7,2.2,11.7,23.1,12.2,30.3c0.4,7.2,9,53.1,9,53.1
										s-7.2-25.4-9.5-31.3c-2.2-5.9-14.1-40.4-16.7-42.6c-2.7-2.2,5.2,37.1,5.5,43.5c0.4,6.4,19,45.4,22.6,49.8l2.7,9.5
										c0,0-27-37.6-25.3-36.2s11.3,37.4,23,51.5c-11.8-8.9-18.2-22.1-18.2-22.1s6.8,36.2,8.6,41.7c1.8,5.5-2.7,33.4-2.2,33.7
										c0.4,0.4,12.7-30.1,12.7-35.5c0-5.5,5.4-1.3,3.8,5c-1.6,6.4-5.2,24.5-6.5,28.1c-1.3,3.7-4.6,26.8-4.1,29.9s5,41.3,5,41.3
										s0.9,13.6,1.8,11.4s10.9-41.3,11.4-48.1c0.4-6.8,5.9-21.3,5.9-7.7s-12.3,102.5-14.9,118.8s-3.7,33.1,0.4,48.1
										s6.8,34,11.8,31.3s17.7-14.1,17.7-14.1s14.5,13.4,12.3,16s-17.7,8.1-23.1,8.1c-5.5,0-5.9,9-3.7,13.2
										c2.2,4.1,7.7,13.2,11.4,18.6c3.7,5.5,14.9,1.8,24,3.7c9,1.8,19.1,2.2,17.7,6.4c-1.3,4.1-4.1,12.3-9.9,15.8
										c-5.9,3.7-8.1,3.8-22.1-1.4c-10.3-3.8-17.1-5.4-18.7-11c-1.5-5.4-6.1-15.2-8.9-17.8c-1-0.9-1,3-1.5,5.4
										c-3.1-2.2-5.5-2.9-6.9-4.1c-2.6-2.1-2.6-22.6,0.4-30C493.6,1531,501.4,1531.7,501.4,1531.7z"/>
								</g>
							</g>
						</g>
					</g>
				</g>
			</g>
		</g>
	</g>
</g>
</svg>
