<?xml version="1.0" encoding="utf-8"?>
<!-- Generator: Adobe Illustrator 24.0.0, SVG Export Plug-In . SVG Version: 6.00 Build 0)  -->
<svg version="1.1" id="Layer_1" xmlns="http://www.w3.org/2000/svg" xmlns:xlink="http://www.w3.org/1999/xlink" x="0px" y="0px"
	 viewBox="0 0 1125 2436" style="enable-background:new 0 0 1125 2436;" xml:space="preserve">
<style type="text/css">
	.st0{clip-path:url(#SVGID_8_);}
	.st1{clip-path:url(#SVGID_10_);}
	.st2{stroke:#FFFFFF;stroke-width:0.9534;stroke-miterlimit:10;}
	.st3{fill:none;stroke:#FFFFFF;stroke-width:0.9534;stroke-miterlimit:10;}
	.st4{fill:none;stroke:#FFFFFF;stroke-width:0.4767;stroke-miterlimit:10;}
	.st5{fill:none;stroke:#FFFFFF;stroke-width:0.5054;stroke-miterlimit:10;}
	.st6{fill:none;stroke:#FFFFFF;stroke-width:0.7146;stroke-miterlimit:10;}
	.st7{fill:#FFFFFF;}
	.st8{fill:#BCBEC0;}
	.st9{fill:none;stroke:#FFFFFF;stroke-width:0.9534;stroke-linecap:round;stroke-linejoin:round;stroke-miterlimit:10;}
	.st10{fill:#6D6E71;}
	.st11{fill:#FFFFFF;stroke:#231F20;stroke-width:1.0342;stroke-miterlimit:10;}
	.st12{clip-path:url(#SVGID_12_);}
	.st13{clip-path:url(#SVGID_14_);}
	.st14{fill:#FFFFFF;stroke:#231F20;stroke-width:0.6203;stroke-miterlimit:10;}
	.st15{enable-background:new    ;}
	.st16{fill:none;stroke:#231F20;stroke-width:0.6203;stroke-miterlimit:10;}
	.st17{fill:#FFFFFF;stroke:#231F20;stroke-width:0.3687;stroke-miterlimit:10;}
	.st18{stroke:#231F20;stroke-width:0.3687;stroke-miterlimit:10;}
	.st19{fill:none;stroke:#231F20;stroke-width:0.3687;stroke-miterlimit:10;}
	.st20{stroke:#FFFFFF;stroke-width:0.6975;stroke-miterlimit:10;}
	.st21{fill:#FFFFFF;stroke:#231F20;stroke-width:1.2115;stroke-miterlimit:10;}
	.st22{stroke:#231F20;stroke-width:1.2115;stroke-miterlimit:10;}
	.st23{fill:#FFFFFF;stroke:#231F20;stroke-width:1.4833;stroke-miterlimit:10;}
	.st24{fill:#FFFFFF;stroke:#231F20;stroke-width:1.267;stroke-miterlimit:10;}
	.st25{fill:none;stroke:#FFFFFF;stroke-width:1.0476;stroke-miterlimit:10;}
	.st26{fill:none;stroke:#231F20;stroke-width:1.742;stroke-miterlimit:10;}
	.st27{fill:none;stroke:#231F20;stroke-width:1.4377;stroke-linecap:round;stroke-linejoin:round;stroke-miterlimit:10;}
	.st28{fill:#FFFFFF;stroke:#231F20;stroke-width:1.4377;stroke-linecap:round;stroke-linejoin:round;stroke-miterlimit:10;}
	.st29{fill:#ED1C24;stroke:#231F20;stroke-width:1.4377;stroke-linecap:round;stroke-linejoin:round;stroke-miterlimit:10;}
	.st30{fill-rule:evenodd;clip-rule:evenodd;fill:#FFFFFF;}
</style>
<g>
	<g>
		<g>
			<defs>
				<polygon id="SVGID_6_" points="0,-250 1125,-250 1125,2435.6 0,2436 				"/>
			</defs>
			<clipPath id="SVGID_8_">
				<use xlink:href="#SVGID_6_"  style="overflow:visible;"/>
			</clipPath>
			<g class="st0">
				<g>
					<g>
						<rect id="SVGID_3_" x="-17" y="0" width="1147.9" height="2436"/>
					</g>
					<g>
						<g>
							<g>
								<defs>
									<rect id="SVGID_9_" x="-17" y="-273.6" width="1147.9" height="2718.4"/>
								</defs>
								<clipPath id="SVGID_10_">
									<use xlink:href="#SVGID_9_"  style="overflow:visible;"/>
								</clipPath>
								<g class="st1">
									<rect x="-773.7" y="334.9" class="st2" width="2661.4" height="1312.6"/>
									<g>
										<g>
											<polygon class="st3" points="1033.6,334.8 1033.6,307.3 1005.4,307.3 1005.4,321.5 1018.9,321.5 1018.9,334.8 
																							"/>
											<rect x="992.8" y="294" class="st3" width="40.8" height="40.8"/>
										</g>
										<rect x="-773.7" y="261.9" class="st2" width="2661.4" height="107.4"/>
										<circle class="st4" cx="786.6" cy="315.2" r="23.9"/>
										<path class="st5" d="M-199.8,354.6h-441.8c-4,0-7.2-3.2-7.2-7.2v-62.5c0-4,3.2-7.2,7.2-7.2h441.8c4,0,7.2,3.2,7.2,7.2
											v62.5C-192.6,351.3-195.8,354.6-199.8,354.6z"/>
										<g>
											<circle class="st6" cx="-612.7" cy="311" r="17.4"/>
											<g>
												<path class="st7" d="M-589.3,335.4c-1-0.9-1.9-1.9-2.9-2.9l-2.8-3c-1.9-2-3.8-4-5.6-6c-0.1-0.1-0.1-0.4,0-0.5
													s0.4-0.1,0.5,0c2,1.9,4,3.8,6,5.6l3,2.8c1,1,2,1.9,2.9,2.9c0.3,0.3,0.3,0.7,0,1C-588.6,335.7-589,335.6-589.3,335.4z"/>
											</g>
										</g>
										<text transform="matrix(1 0 0 1 -569.2778 327.1444)" class="st7" style="font-family:'ArialMT'; font-size:43.3211px;">Buscar en feisbu</text>
										<path class="st8" d="M126.8,311.8l-21-19c-0.8-0.7-1.8-1.1-2.8-1.1s-2,0.4-2.8,1.1l-21,19c-0.4,0.4-0.7,1-0.7,1.6
											c0,1.2,1,2.2,2.2,2.2c0.1,0,0.4,0,0.4,0h4.7v18c0,1.9,1.5,3.4,3.4,3.4h6.3c1.9,0,3.4-1.5,3.4-3.4V325c0-1,0.8-1.8,1.8-1.8
											h2.4h2.4c1,0,1.8,0.8,1.8,1.8v8.6c0,1.9,1.5,3.4,3.4,3.4h6.3c1.9,0,3.4-1.5,3.4-3.4v-18h4.7c0,0,0.3,0,0.4,0
											c1.2,0,2.2-1,2.2-2.2C127.5,312.8,127.2,312.2,126.8,311.8z"/>
										<g>
											<path class="st3" d="M349.8,330.1h-41.3c-0.8,0-1.5-0.7-1.5-1.5v-33.2c0-0.8,0.7-1.5,1.5-1.5h41.3c0.8,0,1.5,0.7,1.5,1.5
												v33.2C351.3,329.4,350.6,330.1,349.8,330.1z"/>
											<line class="st9" x1="317.7" y1="336.9" x2="340.6" y2="336.9"/>
										</g>
										<path class="st7" d="M338,311.6l-13.4-7.7c-0.3-0.2-0.7,0-0.7,0.4v15.5c0,0.4,0.4,0.6,0.7,0.4l13.4-7.7
											C338.3,312.2,338.3,311.8,338,311.6z"/>
										<g>
											<path class="st4" d="M543.2,294c-2.1,0-4,1.4-4.6,3.5l-4.1,15.1c0,1.4,1.1,2.5,2.5,2.5s2.5-1.1,2.5-2.5s1.1-2.5,2.5-2.5
												s2.5,1.1,2.5,2.5s1.1,2.5,2.5,2.5s2.5-1.1,2.5-2.5s1.1-2.5,2.5-2.5s2.5,1.1,2.5,2.5s1.1,2.5,2.5,2.5s2.5-1.1,2.5-2.5
												s1.1-2.5,2.5-2.5s2.5,1.1,2.5,2.5s1.1,2.5,2.5,2.5s2.5-1.1,2.5-2.5s1.1-2.5,2.5-2.5s2.5,1.1,2.5,2.5s1.1,2.5,2.5,2.5
												s2.5-1.1,2.5-2.5l-4.1-15.1c-0.6-2.1-2.4-3.5-4.6-3.5H543.2z"/>
											<line class="st4" x1="536.6" y1="304.6" x2="577.5" y2="304.6"/>
											<path class="st4" d="M572.4,310c-1.4,0-2.5,1.1-2.5,2.5s-1.1,2.5-2.5,2.5s-2.5-1.1-2.5-2.5s-1.1-2.5-2.5-2.5
												s-2.5,1.1-2.5,2.5s-1.1,2.5-2.5,2.5s-2.5-1.1-2.5-2.5s-1.1-2.5-2.5-2.5s-2.5,1.1-2.5,2.5s-1.1,2.5-2.5,2.5
												s-2.5-1.1-2.5-2.5s-1.1-2.5-2.5-2.5c-0.9,0-1.6,0.5-2,1.1v20.3c0,1.9,1.5,3.4,3.4,3.4h6.3c1.9,0,3.4-1.5,3.4-3.4v-8.6
												c0-1,0.8-1.8,1.8-1.8h2.4h2.4c1,0,1.8,0.8,1.8,1.8v8.6c0,1.9,1.5,3.4,3.4,3.4h6.3c1.9,0,3.4-1.5,3.4-3.4v-20.3
												C574,310.5,573.3,310,572.4,310z"/>
										</g>
										<g>
											<circle class="st7" cx="785.8" cy="305.7" r="5.2"/>
											<path class="st7" d="M785.8,313.8L785.8,313.8L785.8,313.8L785.8,313.8L785.8,313.8c-5.8,0-10.4,5.6-10.4,8.9
												s2.2,3.6,5.2,3.6c2.9,0,5,0,5.2,0h0.1c0.2,0,2.3,0,5.2,0c3,0,5.2-0.3,5.2-3.6C796.1,319.4,791.6,313.8,785.8,313.8z"/>
										</g>
										<g>
											<circle class="st7" cx="797" cy="308.3" r="3.9"/>
											<path class="st7" d="M798.5,322.7c0-2.4-1.6-5.4-4.2-7.7c0.8-0.3,1.7-0.6,2.7-0.6l0,0l0,0l0,0l0,0c4.4,0,7.8,4.2,7.8,6.7
												s-1.7,2.7-3.9,2.7c-1,0-1.9,0-2.6,0C798.4,323.4,798.5,323.1,798.5,322.7z"/>
										</g>
										<g>
											<circle class="st7" cx="774.7" cy="308.3" r="3.9"/>
											<path class="st7" d="M773.3,322.7c0-2.4,1.6-5.4,4.2-7.7c-0.8-0.3-1.7-0.6-2.7-0.6l0,0l0,0l0,0l0,0
												c-4.4,0-7.8,4.2-7.8,6.7s1.7,2.7,3.9,2.7c1,0,1.9,0,2.6,0C773.4,323.4,773.3,323.1,773.3,322.7z"/>
										</g>
										<circle class="st10" cx="1547.6" cy="315.3" r="37.6"/>
										<g>
											<line class="st9" x1="1547.3" y1="302.9" x2="1547.3" y2="327.7"/>
											<line class="st9" x1="1535.3" y1="315.3" x2="1560" y2="315.3"/>
										</g>
										<g>
											<circle class="st10" cx="1637.9" cy="315.3" r="37.6"/>
											<path class="st7" d="M1637.9,297.8c-9.3,0-16.8,7.5-16.8,16.8c0,5.3,2.5,9.9,6.3,13l-0.4,1.2c-0.7,2.1,1.7,3.9,3.5,2.6
												l1.5-1.1c1.8,0.7,3.8,1.1,5.9,1.1c9.3,0,16.8-7.5,16.8-16.8C1654.7,305.4,1647.2,297.8,1637.9,297.8z M1640.8,319.9
												l-5.8-5.2l-6.8,5.2l7.1-9.4l6.8,4.7l5.2-6.7L1640.8,319.9z"/>
										</g>
										<g>
											<circle class="st10" cx="1728.2" cy="315.3" r="37.6"/>
											<g>
												<path class="st7" d="M1737.6,313.8c0.2-2.9,2.8-13.2-9-14.7c-0.5-0.1-3,0.1-3.6,0.2c-11.6,2.8-7.8,12.8-7.3,15.7
													s-3.2,5.8-2.7,8.1c0.4,1.9,3.7,2.4,13.2,1.2c9.6,0,12.8-0.9,13-2.8C1741.4,319.2,1737.4,316.7,1737.6,313.8z"/>
												<path class="st7" d="M1728.1,326.5c-1.3,0-4.4,0-8.4,0c0.7,4.8,3.2,5.2,6,5C1729.1,331.2,1728.1,326.5,1728.1,326.5z"/>
											</g>
										</g>
										<g>
											<circle class="st10" cx="1818.5" cy="315.3" r="37.6"/>
											<path class="st7" d="M1819.1,327.2l12.3-17.6c0.3-0.4,0-1.1-0.5-1.1h-24.7c-0.5,0-0.9,0.6-0.5,1.1l12.3,17.6
												C1818.2,327.6,1818.8,327.6,1819.1,327.2z"/>
										</g>
										<rect x="1.7" y="361" class="st8" width="202.5" height="8.3"/>
										<g>
											<circle class="st10" cx="-705.9" cy="315.1" r="39.4"/>
											<g>
												<path class="st7" d="M-678.5,295.4c0.4,0.5,0.6,1.2,0.6,2c0,2.7-1.4,3.9-4.3,3.7l-2.1-0.2c-2.3-0.2-4.6-0.3-6.9-0.5
													c-2.3-0.1-4.7-0.2-7.2-0.2h-2.6c-0.5,5.8-1,11-1.5,15.8l10.1-0.2c1.4,0,2.4,0.3,2.9,0.8s0.7,1.2,0.7,2
													c0,1.3-0.4,2.4-1.2,3.1c-0.8,0.8-1.9,1.1-3.3,1.1h-10l-0.3,2.5c-0.8,6.4-2.6,11-5.2,13.8c-2.7,2.7-6.4,4.1-11,4.1
													c-2.7,0-5.1-0.6-7.3-1.7c-2.2-1.2-3.9-2.6-4.9-4.2c-0.4-0.7-0.6-1.5-0.6-2.4s0.2-1.8,0.7-2.5c0.4-0.7,1-1.1,1.7-1.1
													c0.5,0,0.9,0.2,1.4,0.5c0.4,0.3,1,0.9,1.7,1.8c1.9,2.5,4.2,3.7,7,3.7c2.2,0,4.1-0.9,5.6-2.7s2.5-4.7,2.9-8.6l0.4-3.2
													h-2.8c-0.9,0-1.7-0.3-2.3-0.8s-1-1.2-1-2.2c0-1.2,0.3-2.1,0.9-2.8c0.6-0.6,1.5-1,2.8-1c1.1,0,2.2,0,3.2-0.1
													c0.5-4.3,1-9.5,1.5-15.6c-4.2,0.4-7.2,1.1-8.9,2c-1.7,1-2.6,2.4-2.6,4.3c0,1.3,0.4,2.6,1.2,3.8c0.2,0.4,0.4,0.7,0.4,1.1
													c0,0.7-0.4,1.3-1.2,1.8s-1.7,0.8-2.6,0.8c-1.1,0-2-0.3-2.7-0.9c-0.5-0.4-0.9-1.2-1.3-2.4c-0.4-1.2-0.6-2.6-0.6-4
													c0-4.8,2.5-8.4,7.5-10.5c5-2.2,12.2-3.3,21.8-3.3c6.6,0,12.5,0.4,17.6,1.1C-679.7,294.6-678.9,294.9-678.5,295.4z"/>
											</g>
										</g>
										<g>
											<text transform="matrix(1 0 0 1 1342.0254 328.5215)" class="st7" style="font-family:'ArialMT'; font-size:33.9957px;">Agente J</text>
											<g>
												<circle class="st11" cx="1302.4" cy="317.9" r="27.1"/>
												<g>
													<g>
														<path d="M1296.6,305.1c0.1-0.8,0.7-1.4,1.5-1.4h2.2c0.9,0,1.5,0.7,1.6,1.5h1.6c0.1-0.8,0.7-1.5,1.6-1.5h2.2
															c0.8,0,1.3,0.6,1.5,1.3l1.4-0.2c-0.8-3.5-4-6.2-7.7-6.2c-3.8,0-6.9,2.6-7.7,6.2L1296.6,305.1z"/>
														<path d="M1308.9,306.2L1308.9,306.2c0,1-0.7,1.7-1.6,1.7h-2.2c-0.8,0-1.5-0.7-1.6-1.5h-1.6c-0.1,0.8-0.7,1.5-1.6,1.5
															h-2.2c-0.9,0-1.6-0.7-1.6-1.6l0,0l-2.1-0.4c0,0.2-0.1,0.3-0.1,0.5c0,4.4,3.6,8,8,8s8-3.6,8-8c0-0.2,0-0.3-0.1-0.5
															L1308.9,306.2z"/>
													</g>
													<path d="M1302.4,316.4L1302.4,316.4L1302.4,316.4C1302.4,316.4,1302.3,316.4,1302.4,316.4L1302.4,316.4
														c-8.1,0.1-14.3,7.7-14.3,12.3s3,5,7.1,5c3.9,0,6.9,0,7.1,0h0.1c0.2,0,3.2,0,7.1,0c4.1,0,7.1-0.5,7.1-5
														C1316.7,324.1,1310.4,316.4,1302.4,316.4z"/>
												</g>
											</g>
										</g>
									</g>
									<g>
										<g>
											<g>
												<path id="SVGID_5_" d="M1114.5,1449.4H-7.4c-3,0-5.4-2.4-5.4-5.4V577.5c0-3,2.4-5.4,5.4-5.4h1121.9c3,0,5.4,2.4,5.4,5.4
													V1444C1120,1447,1117.6,1449.4,1114.5,1449.4z"/>
											</g>
											<g>
												<g>
													<g>
														<defs>
															<path id="SVGID_11_" d="M1114.5,1449.4H-7.4c-3,0-5.4-2.4-5.4-5.4V577.5c0-3,2.4-5.4,5.4-5.4h1121.9
																c3,0,5.4,2.4,5.4,5.4V1444C1120,1447,1117.6,1449.4,1114.5,1449.4z"/>
														</defs>
														<clipPath id="SVGID_12_">
															<use xlink:href="#SVGID_11_"  style="overflow:visible;"/>
														</clipPath>
														<g class="st12">
															<g>
																<rect id="SVGID_7_" x="-12.8" y="707.3" width="1132.8" height="740.5"/>
															</g>
															<g>
																<g>
																	<g>
																		<defs>
																			<rect id="SVGID_13_" x="-12.8" y="707.3" width="1132.8" height="740.5"/>
																		</defs>
																		<clipPath id="SVGID_14_">
																			<use xlink:href="#SVGID_13_"  style="overflow:visible;"/>
																		</clipPath>
																		<g class="st13">
																			<g>
																				<g>
																					
																						<rect x="295.8" y="839.5" transform="matrix(0.2563 -0.9666 0.9666 0.2563 -585.0925 1297.6284)" class="st14" width="509.8" height="379"/>
																					<g class="st15">
																						<path d="M492.4,806.3c-1.5-1.6-2.5-3.5-2.9-5.8s-0.2-4.8,0.5-7.5s1.8-4.9,3.3-6.7s3.2-2.9,5.3-3.5
																							c2.1-0.6,4.3-0.6,6.8,0.1c2.4,0.6,4.2,1.5,5.4,2.5c-0.4,1.5-1,2.8-1.7,3.9c-1.2-1-2.7-1.7-4.4-2.1
																							c-1.4-0.4-2.8-0.4-4.1,0.1c-1.3,0.4-2.4,1.3-3.4,2.5s-1.7,2.8-2.2,4.7c-0.5,2-0.6,3.7-0.4,5.3
																							c0.3,1.6,0.9,2.8,1.9,3.9c1,1,2.3,1.7,3.8,2.2c1.7,0.5,3.5,0.5,5.1,0.3c-0.5,1.3-1.1,2.7-1.9,4.2
																							c-1.6,0.2-3.2,0-5-0.4C496,809,493.9,807.9,492.4,806.3z"/>
																						<path d="M511.2,811.3c-1.4-1.5-2.3-3.4-2.7-5.7c-0.4-2.2-0.2-4.7,0.6-7.5c0.7-2.8,1.8-5,3.2-6.8
																							c1.4-1.8,3.1-3,5.1-3.6s4.2-0.6,6.7,0c2.5,0.7,4.4,1.7,5.8,3.3c1.4,1.5,2.3,3.4,2.7,5.7
																							c0.4,2.2,0.2,4.7-0.6,7.5c-0.7,2.8-1.8,5.1-3.3,6.8c-1.4,1.8-3.1,2.9-5.1,3.5s-4.2,0.6-6.6-0.1
																							C514.6,814,512.7,812.9,511.2,811.3z M527.2,803c0.8-3,0.9-5.5,0.2-7.3c-0.7-1.9-2.1-3.1-4.3-3.7
																							s-4-0.2-5.5,1c-1.5,1.3-2.7,3.4-3.5,6.5c-0.8,3-0.9,5.5-0.2,7.3c0.7,1.9,2.1,3.1,4.3,3.7
																							C522.6,811.7,525.6,809.2,527.2,803z"/>
																						<path d="M556.2,796.9c0.9,0.1,1.7,0.3,2.6,0.5l-6.9,25.8l-4.3-1.1l-5.2-17.1c-0.4-1.5-0.7-2.6-0.8-3.4
																							c-0.4,1.8-1.1,4.5-2.1,8.3l-2.5,9.3l-4.5-1.2l6.7-25.2c0.7,0,1.5,0,2.4,0.1c0.8,0.1,1.6,0.2,2.3,0.4l4.7,15.9
																							c0.3,1.1,0.7,2.6,1,4.4c0.6-3,1.4-6.1,2.3-9.5l2-7.5C554.6,796.7,555.4,796.7,556.2,796.9z"/>
																						<path d="M567.6,804.4l-1.8,6.6l9,2.4c-0.6,1.9-1.1,3.2-1.5,4l-8.5-2.3l-2.8,10.7l-4.8-1.3L564,799l14.9,3.9
																							c-0.2,0.7-0.4,1.4-0.7,2.1s-0.5,1.4-0.8,1.9L567.6,804.4z"/>
																						<path d="M582,804.2c0.7,0,1.5,0,2.4,0.2c0.9,0.1,1.8,0.3,2.6,0.5l-6.9,25.8l-4.8-1.3L582,804.2z"/>
																						<path d="M608.3,813.9c1.4,2.9,1.6,6.3,0.5,10.4c-1.1,4.2-3,7.1-5.7,8.8s-6.1,2-10.2,0.9l-7.5-2l6.8-25.5
																							c2.2,0.1,4.7,0.5,7.6,1.3C604,809,606.9,811,608.3,813.9z M600.2,829.3c1.6-1.1,2.7-3.2,3.5-6.2
																							s0.8-5.4,0-7.2s-2.5-3.1-5.2-3.8c-1-0.3-1.9-0.4-2.7-0.6l-4.7,17.8l2.8,0.7
																							C596.6,830.6,598.7,830.4,600.2,829.3z"/>
																						<path d="M614.9,835.5l10.5,2.8c-0.2,0.6-0.4,1.3-0.7,2.1s-0.6,1.4-0.8,1.9l-14.9-4l6.8-25.5l15.4,4.1
																							c-0.2,0.7-0.4,1.4-0.7,2.1c-0.3,0.8-0.5,1.4-0.8,1.9l-10.2-2.7l-1.7,6.5l9.5,2.5c-0.2,0.6-0.4,1.3-0.7,2
																							s-0.6,1.4-0.8,1.9l-9.1-2.4L614.9,835.5z"/>
																						<path d="M651.9,822.2c0.9,0.1,1.7,0.3,2.6,0.5l-6.9,25.8l-4.3-1.1l-5.2-17.1c-0.4-1.4-0.7-2.6-0.8-3.4
																							c-0.4,1.8-1.1,4.5-2.1,8.3l-2.5,9.3l-4.5-1.2l6.7-25.2c0.7,0,1.5,0,2.4,0.1c0.8,0.1,1.6,0.2,2.3,0.4l4.7,15.9
																							c0.3,1.1,0.7,2.6,1,4.4c0.6-3,1.4-6.1,2.3-9.5l2-7.5C650.3,822.1,651.1,822.1,651.9,822.2z"/>
																						<path d="M657.1,850c-1.5-1.6-2.5-3.5-2.9-5.8s-0.2-4.8,0.5-7.5s1.8-4.9,3.3-6.7s3.2-2.9,5.3-3.5
																							s4.3-0.6,6.8,0.1c2.4,0.6,4.2,1.5,5.4,2.5c-0.4,1.5-1,2.8-1.7,3.9c-1.2-1-2.7-1.7-4.4-2.1
																							c-1.5-0.4-2.8-0.4-4.1,0.1c-1.3,0.4-2.4,1.3-3.4,2.5s-1.7,2.8-2.2,4.7c-0.5,2-0.6,3.7-0.4,5.3
																							c0.3,1.6,0.9,2.8,1.9,3.9c1,1,2.3,1.7,3.8,2.2c1.7,0.5,3.5,0.5,5.1,0.3c-0.5,1.3-1.1,2.7-1.9,4.2
																							c-1.6,0.2-3.2,0-5-0.4C660.7,852.7,658.7,851.6,657.1,850z"/>
																						<path d="M679.2,830c0.7,0,1.5,0,2.4,0.2c0.9,0.1,1.8,0.3,2.6,0.5l-6.9,25.8l-4.8-1.3L679.2,830z"/>
																						<path d="M696.9,856.3l-9.5-2.5l-2.8,4.6l-4.7-1.3l14.7-23.1c0.7,0,1.6,0.1,2.8,0.3c1.1,0.2,2.3,0.4,3.4,0.7
																							l1.3,27.9l-5-1.3L696.9,856.3z M696.9,852l-0.2-13.2l-7,11.3L696.9,852z"/>
																						<path d="M711.4,838.5c0.7,0,1.5,0,2.4,0.2c0.9,0.1,1.8,0.3,2.6,0.5l-5.7,21.7l9.1,2.4
																							c-0.2,0.6-0.4,1.3-0.7,2.1s-0.6,1.4-0.8,2l-13.5-3.6L711.4,838.5z"/>
																					</g>
																					<line class="st16" x1="494.1" y1="771.7" x2="726.7" y2="833.4"/>
																					<line class="st16" x1="483.3" y1="812.4" x2="715.9" y2="874.1"/>
																				</g>
																				<g>
																					<line class="st16" x1="433" y1="814.1" x2="759.6" y2="900.7"/>
																					<line class="st16" x1="428.7" y1="829.9" x2="755.4" y2="916.5"/>
																					<line class="st16" x1="424.5" y1="845.8" x2="751.2" y2="932.4"/>
																					<line class="st16" x1="420.3" y1="861.6" x2="747" y2="948.2"/>
																					<line class="st16" x1="416.1" y1="877.5" x2="742.8" y2="964.1"/>
																					<line class="st16" x1="411.9" y1="893.4" x2="738.6" y2="980"/>
																					<line class="st16" x1="407.7" y1="909.2" x2="734.4" y2="995.8"/>
																					<line class="st16" x1="403.5" y1="925.1" x2="730.2" y2="1011.7"/>
																					<line class="st16" x1="399.3" y1="940.9" x2="726" y2="1027.5"/>
																					<line class="st16" x1="395.1" y1="956.8" x2="721.8" y2="1043.4"/>
																					<line class="st16" x1="390.9" y1="972.7" x2="717.6" y2="1059.3"/>
																					<line class="st16" x1="386.7" y1="988.5" x2="713.4" y2="1075.1"/>
																					<line class="st16" x1="382.5" y1="1004.4" x2="709.2" y2="1091"/>
																					<line class="st16" x1="378.3" y1="1020.2" x2="705" y2="1106.8"/>
																					<line class="st16" x1="374.1" y1="1036.1" x2="700.8" y2="1122.7"/>
																					<line class="st16" x1="369.9" y1="1052" x2="696.6" y2="1138.6"/>
																					<line class="st16" x1="365.7" y1="1067.8" x2="692.4" y2="1154.4"/>
																					<line class="st16" x1="361.5" y1="1083.7" x2="688.2" y2="1170.3"/>
																					<line class="st16" x1="357.3" y1="1099.5" x2="684" y2="1186.1"/>
																					<line class="st16" x1="353.1" y1="1115.4" x2="679.8" y2="1202"/>
																					<line class="st16" x1="348.9" y1="1131.3" x2="675.5" y2="1217.9"/>
																					<line class="st16" x1="344.7" y1="1147.1" x2="671.3" y2="1233.7"/>
																					<line class="st16" x1="340.4" y1="1163" x2="667.1" y2="1249.6"/>
																					<line class="st16" x1="336.2" y1="1178.8" x2="662.9" y2="1265.5"/>
																					<line class="st16" x1="332" y1="1194.7" x2="658.7" y2="1281.3"/>
																				</g>
																			</g>
																			<g>
																				<rect x="524" y="911.2" class="st14" width="379" height="509.8"/>
																				<g>
																					<line class="st16" x1="559.5" y1="988.4" x2="719" y2="988.4"/>
																					<line class="st16" x1="559.5" y1="1004.8" x2="719" y2="1004.8"/>
																					<line class="st16" x1="559.5" y1="1021.2" x2="719" y2="1021.2"/>
																					<line class="st16" x1="559.5" y1="1037.6" x2="719" y2="1037.6"/>
																					<line class="st16" x1="559.5" y1="1070.4" x2="826.1" y2="1070.4"/>
																					<line class="st16" x1="559.5" y1="1086.8" x2="826.1" y2="1086.8"/>
																					<line class="st16" x1="559.5" y1="1103.2" x2="826.1" y2="1103.2"/>
																					<line class="st16" x1="559.5" y1="1119.6" x2="826.1" y2="1119.6"/>
																					<line class="st16" x1="559.5" y1="1136.1" x2="826.1" y2="1136.1"/>
																					<line class="st16" x1="559.5" y1="1152.5" x2="826.1" y2="1152.5"/>
																					<line class="st16" x1="559.5" y1="1168.9" x2="826.1" y2="1168.9"/>
																					<line class="st16" x1="559.5" y1="1185.3" x2="826.1" y2="1185.3"/>
																					<line class="st16" x1="559.5" y1="1201.7" x2="826.1" y2="1201.7"/>
																					<line class="st16" x1="559.5" y1="1218.1" x2="826.1" y2="1218.1"/>
																					<line class="st16" x1="559.5" y1="1234.5" x2="826.1" y2="1234.5"/>
																					<line class="st16" x1="559.5" y1="1250.9" x2="826.1" y2="1250.9"/>
																					<line class="st16" x1="559.5" y1="1267.3" x2="826.1" y2="1267.3"/>
																					<line class="st16" x1="559.5" y1="1283.7" x2="826.1" y2="1283.7"/>
																					<line class="st16" x1="559.5" y1="1300.1" x2="826.1" y2="1300.1"/>
																					<line class="st16" x1="559.5" y1="1316.5" x2="826.1" y2="1316.5"/>
																					<line class="st16" x1="559.5" y1="1333" x2="826.1" y2="1333"/>
																					<line class="st16" x1="559.5" y1="1349.4" x2="826.1" y2="1349.4"/>
																					<line class="st16" x1="559.5" y1="1365.8" x2="826.1" y2="1365.8"/>
																					<line class="st16" x1="836.7" y1="1070.4" x2="874.7" y2="1070.4"/>
																					<line class="st16" x1="836.7" y1="1086.8" x2="874.7" y2="1086.8"/>
																					<line class="st16" x1="836.7" y1="1103.2" x2="874.7" y2="1103.2"/>
																					<line class="st16" x1="836.7" y1="1119.6" x2="874.7" y2="1119.6"/>
																					<line class="st16" x1="836.7" y1="1136.1" x2="874.7" y2="1136.1"/>
																					<line class="st16" x1="836.7" y1="1152.5" x2="874.7" y2="1152.5"/>
																					<line class="st16" x1="836.7" y1="1168.9" x2="874.7" y2="1168.9"/>
																					<line class="st16" x1="836.7" y1="1185.3" x2="874.7" y2="1185.3"/>
																					<line class="st16" x1="836.7" y1="1201.7" x2="874.7" y2="1201.7"/>
																					<line class="st16" x1="836.7" y1="1218.1" x2="874.7" y2="1218.1"/>
																					<line class="st16" x1="836.7" y1="1234.5" x2="874.7" y2="1234.5"/>
																					<line class="st16" x1="836.7" y1="1250.9" x2="874.7" y2="1250.9"/>
																					<line class="st16" x1="836.7" y1="1267.3" x2="874.7" y2="1267.3"/>
																					<line class="st16" x1="836.7" y1="1283.7" x2="874.7" y2="1283.7"/>
																					<line class="st16" x1="836.7" y1="1300.1" x2="874.7" y2="1300.1"/>
																					<line class="st16" x1="836.7" y1="1316.5" x2="874.7" y2="1316.5"/>
																					<line class="st16" x1="836.7" y1="1333" x2="874.7" y2="1333"/>
																					<line class="st16" x1="836.7" y1="1349.4" x2="874.7" y2="1349.4"/>
																					<line class="st16" x1="836.7" y1="1365.8" x2="874.7" y2="1365.8"/>
																					<line class="st16" x1="836.7" y1="1382.2" x2="874.7" y2="1382.2"/>
																				</g>
																				<g class="st15">
																					<path d="M561.3,962.4h10.9c0,0.6,0,1.3-0.1,2.2s-0.2,1.5-0.3,2.1h-15.4v-26.4h15.9c0,0.7-0.1,1.4-0.2,2.2
																						s-0.2,1.5-0.3,2h-10.6v6.7h9.8c0,0.6,0,1.3-0.1,2.1s-0.2,1.5-0.3,2.1h-9.4L561.3,962.4L561.3,962.4z"/>
																					<path d="M577.9,966.9c-1.3-0.3-2.3-0.7-3.1-1.2c0.1-0.9,0.1-1.6,0.2-2.2c0.1-0.6,0.2-1.3,0.4-1.9
																						c0.9,0.5,1.9,0.9,3.1,1.2c1.1,0.3,2.3,0.4,3.4,0.4c1.6,0,2.7-0.3,3.6-0.9c0.8-0.6,1.3-1.4,1.3-2.5
																						c0-0.8-0.2-1.4-0.6-1.9c-0.4-0.5-0.9-0.9-1.4-1.3c-0.6-0.3-1.3-0.7-2.2-1l-2.2-0.9c-3.7-1.5-5.6-4-5.6-7.7
																						c0-2.3,0.8-4.1,2.3-5.4s3.9-2,7-2c2.6,0,4.8,0.4,6.8,1.2c-0.1,0.7-0.1,1.4-0.2,2c-0.1,0.6-0.2,1.3-0.4,2
																						c-1-0.4-2-0.6-3.1-0.8c-1-0.2-2-0.3-2.9-0.3c-1.6,0-2.7,0.3-3.5,0.9c-0.7,0.6-1.1,1.3-1.1,2.3s0.3,1.9,1,2.5
																						s1.5,1.1,2.6,1.5l2.2,0.8c4.1,1.6,6.2,4.1,6.2,7.7c0,1.5-0.4,2.9-1.1,4.1c-0.8,1.2-1.9,2.1-3.3,2.8
																						c-1.5,0.7-3.3,1-5.4,1C580.5,967.3,579.1,967.1,577.9,966.9z"/>
																					<path d="M611.9,942.4c-0.1,0.8-0.2,1.5-0.3,2.1h-6.8v22.1h-5v-22.1h-7.2c0-0.7,0.1-1.4,0.2-2.2
																						c0.1-0.8,0.2-1.5,0.3-2h19C612,940.8,611.9,941.6,611.9,942.4z"/>
																					<path d="M625.9,961.4h-9.8l-1.6,5.2h-4.9l8.3-26c0.7-0.2,1.6-0.3,2.8-0.4s2.3-0.2,3.5-0.2l8.4,26.6h-5.2
																						L625.9,961.4z M624.8,957.3l-3.6-12.7l-3.8,12.7H624.8z"/>
																					<path d="M652.9,943.2c2.1,2.4,3.1,5.7,3.1,10s-1.1,7.6-3.3,10s-5.4,3.5-9.7,3.5h-7.8v-26.4
																						c2.1-0.5,4.7-0.7,7.7-0.7C647.5,939.6,650.8,940.8,652.9,943.2z M649.1,960.1c1.2-1.5,1.8-3.8,1.8-6.9
																						s-0.6-5.4-1.9-7c-1.3-1.6-3.2-2.4-6-2.4c-1,0-1.9,0.1-2.7,0.2v18.4h2.9C645.9,962.3,647.8,961.6,649.1,960.1z"
																						/>
																					<path d="M663.8,965.6c-1.8-1.1-3.1-2.7-4-4.8s-1.4-4.5-1.4-7.4s0.5-5.3,1.4-7.4s2.3-3.7,4.1-4.8
																						s3.9-1.7,6.4-1.7s4.7,0.6,6.5,1.7s3.1,2.7,4,4.8s1.4,4.5,1.4,7.4s-0.5,5.4-1.4,7.5s-2.3,3.7-4.1,4.7
																						s-3.9,1.6-6.4,1.6C667.8,967.3,665.6,966.7,663.8,965.6z M677.1,953.4c0-3.1-0.6-5.5-1.7-7.1s-2.8-2.4-5.1-2.4
																						c-2.2,0-3.9,0.8-5.1,2.4s-1.7,4-1.7,7.1s0.6,5.5,1.7,7.1c1.2,1.6,2.9,2.4,5.1,2.4
																						C674.8,963,677.1,959.8,677.1,953.4z"/>
																					<path d="M711.3,943.2c2.1,2.4,3.1,5.7,3.1,10s-1.1,7.6-3.3,10c-2.2,2.3-5.4,3.5-9.7,3.5h-7.8v-26.4
																						c2.1-0.5,4.7-0.7,7.7-0.7C705.9,939.6,709.2,940.8,711.3,943.2z M707.4,960.1c1.2-1.5,1.8-3.8,1.8-6.9
																						s-0.6-5.4-1.9-7s-3.2-2.4-6-2.4c-1,0-1.9,0.1-2.7,0.2v18.4h2.9C704.3,962.3,706.2,961.6,707.4,960.1z"/>
																					<path d="M723.3,962.4h10.9c0,0.6,0,1.3-0.1,2.2s-0.2,1.5-0.3,2.1h-15.4v-26.4h15.9c0,0.7-0.1,1.4-0.2,2.2
																						s-0.2,1.5-0.3,2h-10.6v6.7h9.8c0,0.6,0,1.3-0.1,2.1s-0.2,1.5-0.3,2.1h-9.4L723.3,962.4L723.3,962.4z"/>
																					<path d="M749.9,965.5c-1.9-1.1-3.3-2.8-4.3-4.9s-1.4-4.5-1.4-7.3s0.5-5.2,1.5-7.3s2.4-3.7,4.2-4.8
																						s4-1.7,6.5-1.7c2.4,0,4.4,0.3,5.8,1c0,1.5-0.2,2.9-0.6,4.2c-1.4-0.6-3-0.9-4.8-0.9c-1.5,0-2.8,0.4-3.9,1.1
																						c-1.1,0.8-2,1.8-2.6,3.3c-0.6,1.4-0.9,3.1-0.9,5.1s0.3,3.8,1,5.2s1.6,2.5,2.8,3.3s2.6,1.1,4.3,1.1
																						c1.8,0,3.5-0.4,5-1.1c-0.1,1.4-0.4,2.9-0.8,4.5c-1.5,0.6-3.1,0.8-4.9,0.8C754.1,967.3,751.8,966.7,749.9,965.5
																						z"/>
																					<path d="M770.2,966.1c-1.5-0.8-2.7-1.8-3.5-3.2s-1.2-3-1.2-4.9v-17.5c0.7-0.2,1.4-0.4,2.4-0.5
																						c0.9-0.1,1.8-0.2,2.6-0.2v18c0,1.7,0.4,3,1.3,3.9c0.9,0.9,2.1,1.3,3.8,1.3c1.6,0,2.9-0.4,3.8-1.3
																						c0.9-0.9,1.4-2.2,1.4-3.9v-17.3c0.6-0.2,1.4-0.3,2.3-0.5c0.9-0.1,1.8-0.2,2.6-0.2v18.1c0,1.9-0.4,3.5-1.2,4.9
																						s-2,2.5-3.5,3.2s-3.3,1.1-5.3,1.1C773.5,967.3,771.7,966.9,770.2,966.1z"/>
																					<path d="M795.5,962.4h10.9c0,0.6,0,1.3-0.1,2.2s-0.2,1.5-0.3,2.1h-15.4v-26.4h15.9c0,0.7-0.1,1.4-0.2,2.2
																						s-0.2,1.5-0.3,2h-10.6v6.7h9.8c0,0.6,0,1.3-0.1,2.1s-0.2,1.5-0.3,2.1h-9.4L795.5,962.4L795.5,962.4z"/>
																					<path d="M827.9,940.1c0.9-0.1,1.7-0.2,2.6-0.2v26.7H826l-9.4-15.2c-0.8-1.3-1.3-2.3-1.7-3.1
																						c0,1.8,0.1,4.7,0.1,8.6v9.6h-4.7v-26.1c0.7-0.2,1.5-0.4,2.3-0.5s1.6-0.2,2.3-0.2l8.7,14.2c0.6,1,1.3,2.3,2.1,4
																						c-0.2-3.1-0.2-6.3-0.2-9.7v-7.8C826.2,940.3,827,940.2,827.9,940.1z"/>
																					<path d="M852.6,942.4c-0.1,0.8-0.2,1.5-0.3,2.1h-6.8v22.1h-5v-22.1h-7.2c0-0.7,0.1-1.4,0.2-2.2
																						c0.1-0.8,0.2-1.5,0.3-2h19C852.8,940.8,852.7,941.6,852.6,942.4z"/>
																					<path d="M866.7,961.4h-9.8l-1.6,5.2h-4.9l8.3-26c0.7-0.2,1.6-0.3,2.8-0.4s2.3-0.2,3.5-0.2l8.4,26.6h-5.2
																						L866.7,961.4z M865.5,957.3l-3.6-12.7l-3.8,12.7H865.5z"/>
																				</g>
																			</g>
																			<g>
																				<path class="st17" d="M153.6,455.7l-609.1,352.8c-2.6,1.5-3.4,4.8-2,7.4l238.3,411.3c1.5,2.6,4.8,3.4,7.4,2
																					l609.1-352.8c2.6-1.5,3.4-4.8,2-7.4L160.9,457.7C159.4,455.1,156.1,454.2,153.6,455.7z"/>
																				<g>
																					<path d="M156.1,625.5l-26.2,15.2c-0.4,0.2-0.9,0.1-1.2-0.3l-15.2-26.2c-0.2-0.4-0.1-0.9,0.3-1.2l26.2-15.2
																						c0.4-0.2,0.9-0.1,1.2,0.3l15.2,26.2C156.6,624.7,156.5,625.3,156.1,625.5z"/>
																					<path d="M173.4,655.7l-16.8,9.7c-0.5,0.3-1.1,0.1-1.4-0.4l-32.4-56c-0.3-0.5-0.1-1.1,0.4-1.4l16.8-9.7
																						c0.5-0.3,1.1-0.1,1.4,0.4l32.5,56.1C174.1,654.8,173.9,655.4,173.4,655.7z"/>
																				</g>
																				<path class="st18" d="M122.3,1026.2l-67.8,39.3c-3.6,2.1-4.8,6.6-2.7,10.2l0.3,0.6l80.7-46.7l-0.3-0.6
																					C130.4,1025.4,125.8,1024.2,122.3,1026.2z"/>
																				<path class="st19" d="M163.9,971.6l-177.4,102.8c-0.7,0.4-1.6,0.2-2-0.5l-74-127.8c-0.4-0.7-0.2-1.6,0.5-2
																					L88.4,841.3c0.7-0.4,1.6-0.2,2,0.5l74,127.8C164.8,970.3,164.5,971.2,163.9,971.6z"/>
																				<g>
																					<path d="M-321.6,817.5l-27.5,15.9c-0.3,0.2-0.7,0.1-0.9-0.2l-8.2-14.2c-0.2-0.3-0.1-0.7,0.2-0.9l27.5-15.9
																						c0.3-0.2,0.7-0.1,0.9,0.2l8.2,14.2C-321.2,816.9-321.3,817.3-321.6,817.5z"/>
																					<path d="M-287.7,797.9l-27.5,15.9c-0.3,0.2-0.7,0.1-0.9-0.2l-8.2-14.2c-0.2-0.3-0.1-0.7,0.2-0.9l27.5-15.9
																						c0.3-0.2,0.7-0.1,0.9,0.2l8.2,14.2C-287.3,797.3-287.4,797.7-287.7,797.9z"/>
																					<path d="M-253.7,778.2l-27.5,15.9c-0.3,0.2-0.7,0.1-0.9-0.2l-8.2-14.2c-0.2-0.3-0.1-0.7,0.2-0.9l27.5-15.9
																						c0.3-0.2,0.7-0.1,0.9,0.2l8.2,14.2C-253.3,777.6-253.4,778-253.7,778.2z"/>
																					<path d="M-118,699.6l-27.5,15.9c-0.3,0.2-0.7,0.1-0.9-0.2l-8.2-14.2c-0.2-0.3-0.1-0.7,0.2-0.9l27.5-15.9
																						c0.3-0.2,0.7-0.1,0.9,0.2l8.2,14.2C-117.6,699-117.7,699.4-118,699.6z"/>
																					<path d="M-84.1,679.9l-27.5,15.9c-0.3,0.2-0.7,0.1-0.9-0.2l-8.2-14.2c-0.2-0.3-0.1-0.7,0.2-0.9l27.5-15.9
																						c0.3-0.2,0.7-0.1,0.9,0.2l8.2,14.2C-83.6,679.3-83.8,679.7-84.1,679.9z"/>
																					<path d="M-50.1,660.3l-27.5,15.9c-0.3,0.2-0.7,0.1-0.9-0.2l-8.2-14.2c-0.2-0.3-0.1-0.7,0.2-0.9L-59,645
																						c0.3-0.2,0.7-0.1,0.9,0.2l8.2,14.2C-49.7,659.7-49.8,660.1-50.1,660.3z"/>
																					<path d="M-219.8,758.5l-27.5,15.9c-0.3,0.2-0.7,0.1-0.9-0.2l-8.2-14.2c-0.2-0.3-0.1-0.7,0.2-0.9l27.5-15.9
																						c0.3-0.2,0.7-0.1,0.9,0.2l8.2,14.2C-219.4,758-219.5,758.4-219.8,758.5z"/>
																					<path d="M-185.9,738.9l-27.5,15.9c-0.3,0.2-0.7,0.1-0.9-0.2l-8.2-14.2c-0.2-0.3-0.1-0.7,0.2-0.9l27.5-15.9
																						c0.3-0.2,0.7-0.1,0.9,0.2l8.2,14.2C-185.5,738.3-185.6,738.7-185.9,738.9z"/>
																					<path d="M-151.9,719.2l-27.5,15.9c-0.3,0.2-0.7,0.1-0.9-0.2l-8.2-14.2c-0.2-0.3-0.1-0.7,0.2-0.9l27.5-15.9
																						c0.3-0.2,0.7-0.1,0.9,0.2l8.2,14.2C-151.5,718.7-151.6,719.1-151.9,719.2z"/>
																					<path d="M-16.2,640.6l-27.5,15.9c-0.3,0.2-0.7,0.1-0.9-0.2l-8.2-14.2c-0.2-0.3-0.1-0.7,0.2-0.9l27.5-15.9
																						c0.3-0.2,0.7-0.1,0.9,0.2l8.2,14.2C-15.8,640-15.9,640.4-16.2,640.6z"/>
																					<path d="M17.7,621l-27.5,15.9c-0.3,0.2-0.7,0.1-0.9-0.2l-8.2-14.2c-0.2-0.3-0.1-0.7,0.2-0.9l27.5-15.9
																						c0.3-0.2,0.7-0.1,0.9,0.2l8.2,14.2C18.2,620.4,18.1,620.8,17.7,621z"/>
																					<path d="M51.7,601.3l-27.5,15.9c-0.3,0.2-0.7,0.1-0.9-0.2l-8.2-14.2c-0.2-0.3-0.1-0.7,0.2-0.9L42.8,586
																						c0.3-0.2,0.7-0.1,0.9,0.2l8.2,14.2C52.1,600.7,52,601.1,51.7,601.3z"/>
																					<path d="M85.6,581.7l-27.5,15.9c-0.3,0.2-0.7,0.1-0.9-0.2L49,583.1c-0.2-0.3-0.1-0.7,0.2-0.9l27.5-15.9
																						c0.3-0.2,0.7-0.1,0.9,0.2l8.2,14.2C86,581.1,85.9,581.5,85.6,581.7z"/>
																					<path d="M119.5,562L92,577.9c-0.3,0.2-0.7,0.1-0.9-0.2L83,563.4c-0.2-0.3-0.1-0.7,0.2-0.9l27.5-15.9
																						c0.3-0.2,0.7-0.1,0.9,0.2l8.2,14.2C120,561.4,119.9,561.8,119.5,562z"/>
																				</g>
																				<g>
																					<path d="M-170.5,814.6l-26.2,15.2c-0.4,0.2-0.9,0.1-1.2-0.3l-15.2-26.2c-0.2-0.4-0.1-0.9,0.3-1.2l26.2-15.2
																						c0.4-0.2,0.9-0.1,1.2,0.3l15.2,26.2C-169.9,813.9-170.1,814.4-170.5,814.6z"/>
																					<path d="M-203.3,833.6l-26.2,15.2c-0.4,0.2-0.9,0.1-1.2-0.3l-15.2-26.2c-0.2-0.4-0.1-0.9,0.3-1.2l26.2-15.2
																						c0.4-0.2,0.9-0.1,1.2,0.3l15.2,26.2C-202.7,832.9-202.9,833.4-203.3,833.6z"/>
																					<path d="M-236,852.6l-26.2,15.2c-0.4,0.2-0.9,0.1-1.2-0.3l-15.2-26.2c-0.2-0.4-0.1-0.9,0.3-1.2l26.2-15.2
																						c0.4-0.2,0.9-0.1,1.2,0.3l15.2,26.2C-235.5,851.9-235.6,852.4-236,852.6z"/>
																					<path d="M-137.7,795.6l-26.2,15.2c-0.4,0.2-0.9,0.1-1.2-0.3l-15.2-26.2c-0.2-0.4-0.1-0.9,0.3-1.2l26.2-15.2
																						c0.4-0.2,0.9-0.1,1.2,0.3l15.2,26.2C-137.1,794.9-137.3,795.4-137.7,795.6z"/>
																					<path d="M-72.1,757.7l-26.2,15.2c-0.4,0.2-0.9,0.1-1.2-0.3l-15.2-26.2c-0.2-0.4-0.1-0.9,0.3-1.2l26.2-15.2
																						c0.4-0.2,0.9-0.1,1.2,0.3l15.2,26.2C-71.6,756.9-71.7,757.4-72.1,757.7z"/>
																					<path d="M-104.9,776.7l-26.2,15.2c-0.4,0.2-0.9,0.1-1.2-0.3l-15.2-26.2c-0.2-0.4-0.1-0.9,0.3-1.2L-121,749
																						c0.4-0.2,0.9-0.1,1.2,0.3l15.2,26.2C-104.4,775.9-104.5,776.4-104.9,776.7z"/>
																					<path d="M-39.3,738.7l-26.2,15.2c-0.4,0.2-0.9,0.1-1.2-0.3l-15.2-26.2c-0.2-0.4-0.1-0.9,0.3-1.2l26.2-15.2
																						c0.4-0.2,0.9-0.1,1.2,0.3l15.2,26.2C-38.8,737.9-38.9,738.4-39.3,738.7z"/>
																					<path d="M26.2,700.7L0,715.9c-0.4,0.2-0.9,0.1-1.2-0.3l-15.2-26.2c-0.2-0.4-0.1-0.9,0.3-1.2L10.2,673
																						c0.4-0.2,0.9-0.1,1.2,0.3l15.2,26.2C26.8,699.9,26.6,700.5,26.2,700.7z"/>
																					<path d="M-6.6,719.7l-26.2,15.2c-0.4,0.2-0.9,0.1-1.2-0.3l-15.2-26.2c-0.2-0.4-0.1-0.9,0.3-1.2l26.2-15.2
																						c0.4-0.2,0.9-0.1,1.2,0.3l15.2,26.2C-6,718.9-6.2,719.5-6.6,719.7z"/>
																					<path d="M59,681.7l-26.2,15.2c-0.4,0.2-0.9,0.1-1.2-0.3l-15.2-26.2c-0.2-0.4-0.1-0.9,0.3-1.2L43,654.1
																						c0.4-0.2,0.9-0.1,1.2,0.3l15.2,26.2C59.6,681,59.4,681.5,59,681.7z"/>
																					<path d="M124.6,643.7l-26.2,15.2c-0.4,0.2-0.9,0.1-1.2-0.3L82,632.4c-0.2-0.4-0.1-0.9,0.3-1.2l26.2-15.2
																						c0.4-0.2,0.9-0.1,1.2,0.3l15.2,26.2C125.1,643,125,643.5,124.6,643.7z"/>
																					<path d="M91.8,662.7l-26.2,15.2c-0.4,0.2-0.9,0.1-1.2-0.3l-15.2-26.2c-0.2-0.4-0.1-0.9,0.3-1.2L75.7,635
																						c0.4-0.2,0.9-0.1,1.2,0.3l15.2,26.2C92.3,662,92.2,662.5,91.8,662.7z"/>
																				</g>
																				<g>
																					<path d="M-144.7,840l-26.2,15.2c-0.4,0.2-0.9,0.1-1.2-0.3l-15.2-26.2c-0.2-0.4-0.1-0.9,0.3-1.2l26.2-15.2
																						c0.4-0.2,0.9-0.1,1.2,0.3l15.2,26.2C-144.1,839.2-144.3,839.7-144.7,840z"/>
																					<path d="M-177.5,858.9l-26.2,15.2c-0.4,0.2-0.9,0.1-1.2-0.3l-15.2-26.2c-0.2-0.4-0.1-0.9,0.3-1.2l26.2-15.2
																						c0.4-0.2,0.9-0.1,1.2,0.3l15.2,26.2C-176.9,858.2-177.1,858.7-177.5,858.9z"/>
																					<path d="M-210.2,877.9l-26.2,15.2c-0.4,0.2-0.9,0.1-1.2-0.3l-15.2-26.2c-0.2-0.4-0.1-0.9,0.3-1.2l26.2-15.2
																						c0.4-0.2,0.9-0.1,1.2,0.3l15.2,26.2C-209.7,877.2-209.8,877.7-210.2,877.9z"/>
																					<path d="M-111.9,821l-26.2,15.2c-0.4,0.2-0.9,0.1-1.2-0.3l-15.2-26.2c-0.2-0.4-0.1-0.9,0.3-1.2l26.2-15.2
																						c0.4-0.2,0.9-0.1,1.2,0.3l15.2,26.2C-111.3,820.2-111.5,820.7-111.9,821z"/>
																					<path d="M-46.3,783l-26.2,15.2c-0.4,0.2-0.9,0.1-1.2-0.3l-15.2-26.2c-0.2-0.4-0.1-0.9,0.3-1.2l26.2-15.2
																						c0.4-0.2,0.9-0.1,1.2,0.3l15.2,26.2C-45.8,782.2-45.9,782.8-46.3,783z"/>
																					<path d="M-79.1,802l-26.2,15.2c-0.4,0.2-0.9,0.1-1.2-0.3l-15.2-26.2c-0.2-0.4-0.1-0.9,0.3-1.2l26.2-15.2
																						c0.4-0.2,0.9-0.1,1.2,0.3l15.2,26.2C-78.6,801.2-78.7,801.7-79.1,802z"/>
																					<path d="M-13.5,764l-26.2,15.2c-0.4,0.2-0.9,0.1-1.2-0.3l-15.2-26.2c-0.2-0.4-0.1-0.9,0.3-1.2l26.2-15.2
																						c0.4-0.2,0.9-0.1,1.2,0.3l15.2,26.2C-13,763.2-13.1,763.8-13.5,764z"/>
																					<path d="M52,726l-26.2,15.2c-0.4,0.2-0.9,0.1-1.2-0.3L9.5,714.7c-0.2-0.4-0.1-0.9,0.3-1.2L36,698.4
																						c0.4-0.2,0.9-0.1,1.2,0.3l15.2,26.2C52.6,725.3,52.4,725.8,52,726z"/>
																					<path d="M19.2,745L-7,760.2c-0.4,0.2-0.9,0.1-1.2-0.3l-15.2-26.2c-0.2-0.4-0.1-0.9,0.3-1.2l26.2-15.2
																						c0.4-0.2,0.9-0.1,1.2,0.3l15.2,26.2C19.8,744.3,19.7,744.8,19.2,745z"/>
																					<path d="M84.8,707l-26.2,15.2c-0.4,0.2-0.9,0.1-1.2-0.3l-15.2-26.2c-0.2-0.4-0.1-0.9,0.3-1.2l26.2-15.2
																						c0.4-0.2,0.9-0.1,1.2,0.3l15.2,26.2C85.4,706.3,85.2,706.8,84.8,707z"/>
																					<path d="M150.4,669.1l-26.2,15.2c-0.4,0.2-0.9,0.1-1.2-0.3l-15.2-26.2c-0.2-0.4-0.1-0.9,0.3-1.2l26.2-15.2
																						c0.4-0.2,0.9-0.1,1.2,0.3l15.2,26.2C150.9,668.3,150.8,668.8,150.4,669.1z"/>
																					<path d="M117.6,688.1l-26.2,15.2c-0.4,0.2-0.9,0.1-1.2-0.3L75,676.8c-0.2-0.4-0.1-0.9,0.3-1.2l26.2-15.2
																						c0.4-0.2,0.9-0.1,1.2,0.3l15.2,26.2C118.1,687.3,118,687.8,117.6,688.1z"/>
																				</g>
																				<g>
																					<path d="M-142.1,881.9l-26.2,15.2c-0.4,0.2-0.9,0.1-1.2-0.3l-15.2-26.2c-0.2-0.4-0.1-0.9,0.3-1.2l26.2-15.2
																						c0.4-0.2,0.9-0.1,1.2,0.3l15.2,26.2C-141.6,881.1-141.7,881.7-142.1,881.9z"/>
																					<path d="M-174.9,900.9l-26.2,15.2c-0.4,0.2-0.9,0.1-1.2-0.3l-15.2-26.2c-0.2-0.4-0.1-0.9,0.3-1.2l26.2-15.2
																						c0.4-0.2,0.9-0.1,1.2,0.3l15.2,26.2C-174.3,900.1-174.5,900.6-174.9,900.9z"/>
																					<path d="M-207.7,919.9l-26.2,15.2c-0.4,0.2-0.9,0.1-1.2-0.3l-15.2-26.2c-0.2-0.4-0.1-0.9,0.3-1.2l26.2-15.2
																						c0.4-0.2,0.9-0.1,1.2,0.3l15.2,26.2C-207.1,919.1-207.3,919.6-207.7,919.9z"/>
																					<path d="M-109.3,862.9l-26.2,15.2c-0.4,0.2-0.9,0.1-1.2-0.3l-15.2-26.2c-0.2-0.4-0.1-0.9,0.3-1.2l26.2-15.2
																						c0.4-0.2,0.9-0.1,1.2,0.3l15.2,26.2C-108.8,862.1-108.9,862.7-109.3,862.9z"/>
																					<path d="M-43.8,824.9L-70,840.1c-0.4,0.2-0.9,0.1-1.2-0.3l-15.2-26.2c-0.2-0.4-0.1-0.9,0.3-1.2l26.2-15.2
																						c0.4-0.2,0.9-0.1,1.2,0.3l15.2,26.2C-43.2,824.2-43.3,824.7-43.8,824.9z"/>
																					<path d="M-76.5,843.9l-26.2,15.2c-0.4,0.2-0.9,0.1-1.2-0.3l-15.2-26.2c-0.2-0.4-0.1-0.9,0.3-1.2l26.2-15.2
																						c0.4-0.2,0.9-0.1,1.2,0.3l15.2,26.2C-76,843.2-76.1,843.7-76.5,843.9z"/>
																					<path d="M-11,805.9l-26.2,15.2c-0.4,0.2-0.9,0.1-1.2-0.3l-15.2-26.2c-0.2-0.4-0.1-0.9,0.3-1.2l26.2-15.2
																						c0.4-0.2,0.9-0.1,1.2,0.3l15.2,26.2C-10.4,805.2-10.6,805.7-11,805.9z"/>
																					<path d="M54.6,768l-26.2,15.2c-0.4,0.2-0.9,0.1-1.2-0.3L12,756.7c-0.2-0.4-0.1-0.9,0.3-1.2l26.2-15.2
																						c0.4-0.2,0.9-0.1,1.2,0.3l15.2,26.2C55.1,767.2,55,767.7,54.6,768z"/>
																					<path d="M21.8,787l-26.2,15.2c-0.4,0.2-0.9,0.1-1.2-0.3l-15.2-26.2c-0.2-0.4-0.1-0.9,0.3-1.2l26.2-15.2
																						c0.4-0.2,0.9-0.1,1.2,0.3l15.2,26.2C22.4,786.2,22.2,786.7,21.8,787z"/>
																					<path d="M87.4,749l-26.2,15.2c-0.4,0.2-0.9,0.1-1.2-0.3l-15.2-26.2c-0.2-0.4-0.1-0.9,0.3-1.2l26.2-15.2
																						c0.4-0.2,0.9-0.1,1.2,0.3l15.2,26.2C87.9,748.2,87.8,748.7,87.4,749z"/>
																					<path d="M192,688.4l-64.8,37.5c-0.6,0.4-1.5,0.2-1.8-0.5L110.7,700c-0.4-0.6-0.2-1.5,0.5-1.8l64.8-37.5
																						c0.6-0.4,1.5-0.2,1.8,0.5l14.7,25.4C192.8,687.2,192.6,688,192,688.4z"/>
																					<path d="M120.2,730L94,745.2c-0.4,0.2-0.9,0.1-1.2-0.3l-15.2-26.2c-0.2-0.4-0.1-0.9,0.3-1.2l26.2-15.2
																						c0.4-0.2,0.9-0.1,1.2,0.3l15.2,26.2C120.7,729.2,120.6,729.8,120.2,730z"/>
																				</g>
																				<g>
																					<path d="M-163.8,941.3l-26.2,15.2c-0.4,0.2-0.9,0.1-1.2-0.3l-15.2-26.2c-0.2-0.4-0.1-0.9,0.3-1.2l26.2-15.2
																						c0.4-0.2,0.9-0.1,1.2,0.3l15.2,26.2C-163.3,940.5-163.4,941-163.8,941.3z"/>
																					<path d="M115.6,779.4l-26.2,15.2c-0.4,0.2-0.9,0.1-1.2-0.3L73,768.1c-0.2-0.4-0.1-0.9,0.3-1.2l26.2-15.2
																						c0.4-0.2,0.9-0.1,1.2,0.3l15.2,26.2C116.2,778.7,116,779.2,115.6,779.4z"/>
																					<path d="M147.9,760.8l-26.1,15.1c-0.4,0.3-1,0.1-1.2-0.3l-8.1-14c-0.3-0.4-0.1-1,0.3-1.2l26.1-15.1
																						c0.4-0.3,1-0.1,1.2,0.3l8.1,14C148.4,760,148.3,760.5,147.9,760.8z"/>
																					<path d="M212.6,723.2l-26.1,15.1c-0.4,0.3-1,0.1-1.2-0.3l-8.1-14c-0.3-0.4-0.1-1,0.3-1.2l26.1-15.1
																						c0.4-0.3,1-0.1,1.2,0.3l8.1,14C213.2,722.4,213.1,723,212.6,723.2z"/>
																					<path d="M180.4,741.9l-26.2,15.2c-0.4,0.2-0.9,0.1-1.1-0.3l-6.9-11.9c-0.2-0.4-0.1-0.9,0.3-1.1l26.2-15.2
																						c0.4-0.2,0.9-0.1,1.1,0.3l6.9,11.9C180.9,741.2,180.8,741.7,180.4,741.9z"/>
																					<path d="M171.4,726.5l-26.2,15.2c-0.4,0.2-0.9,0.1-1.1-0.3l-6.9-11.9c-0.2-0.4-0.1-0.9,0.3-1.1l26.2-15.2
																						c0.4-0.2,0.9-0.1,1.1,0.3l6.9,11.9C172,725.8,171.8,726.3,171.4,726.5z"/>
																					<path d="M-196.6,960.3l-26.2,15.2c-0.4,0.2-0.9,0.1-1.2-0.3l-15.2-26.2c-0.2-0.4-0.1-0.9,0.3-1.2l26.2-15.2
																						c0.4-0.2,0.9-0.1,1.2,0.3l15.2,26.2C-196.1,959.5-196.2,960-196.6,960.3z"/>
																					<path d="M-229.4,979.3l-26.2,15.2c-0.4,0.2-0.9,0.1-1.2-0.3L-272,968c-0.2-0.4-0.1-0.9,0.3-1.2l26.2-15.2
																						c0.4-0.2,0.9-0.1,1.2,0.3l15.2,26.2C-228.8,978.5-229,979-229.4,979.3z"/>
																					<path d="M-122.6,917.4l-34.5,20c-0.5,0.3-1.1,0.1-1.3-0.4l-15-26c-0.3-0.5-0.1-1.1,0.4-1.3l34.5-20
																						c0.5-0.3,1.1-0.1,1.3,0.4l15,26C-122,916.6-122.1,917.2-122.6,917.4z"/>
																					<path d="M82,798.9l-34.5,20c-0.5,0.3-1.1,0.1-1.3-0.4l-15-26c-0.3-0.5-0.1-1.1,0.4-1.3l34.5-20
																						c0.5-0.3,1.1-0.1,1.3,0.4l15,26C82.7,798,82.5,798.6,82,798.9z"/>
																					<path d="M42,822.1l-157.2,91c-0.4,0.3-1,0.1-1.3-0.3l-15.1-26.1c-0.3-0.4-0.1-1,0.3-1.3l157.2-91
																						c0.4-0.3,1-0.1,1.3,0.3l15.1,26.1C42.6,821.2,42.5,821.8,42,822.1z"/>
																				</g>
																				<path d="M-244,897.5l-50.5,29.2c-0.6,0.3-1.3,0.1-1.6-0.4l-14.8-25.6c-0.3-0.6-0.1-1.3,0.4-1.6l50.5-29.2
																					c0.6-0.3,1.3-0.1,1.6,0.4l14.8,25.6C-243.2,896.4-243.4,897.1-244,897.5z"/>
																				<g>
																					<path d="M-304.3,849.8l-26.2,15.2c-0.4,0.2-0.9,0.1-1.2-0.3l-15.2-26.2c-0.2-0.4-0.1-0.9,0.3-1.2l26.2-15.2
																						c0.4-0.2,0.9-0.1,1.2,0.3l15.2,26.2C-303.8,849.1-303.9,849.6-304.3,849.8z"/>
																					<path d="M-238.8,811.9L-265,827c-0.4,0.2-0.9,0.1-1.2-0.3l-15.2-26.2c-0.2-0.4-0.1-0.9,0.3-1.2l26.2-15.2
																						c0.4-0.2,0.9-0.1,1.2,0.3l15.2,26.2C-238.2,811.1-238.4,811.6-238.8,811.9z"/>
																					<path d="M-271.6,830.9l-26.2,15.2c-0.4,0.2-0.9,0.1-1.2-0.3l-15.2-26.2c-0.2-0.4-0.1-0.9,0.3-1.2l26.2-15.2
																						c0.4-0.2,0.9-0.1,1.2,0.3l15.2,26.2C-271,830.1-271.2,830.6-271.6,830.9z"/>
																					<path d="M-206,792.9l-26.2,15.2c-0.4,0.2-0.9,0.1-1.2-0.3l-15.2-26.2c-0.2-0.4-0.1-0.9,0.3-1.2l26.2-15.2
																						c0.4-0.2,0.9-0.1,1.2,0.3l15.2,26.2C-205.4,792.1-205.6,792.6-206,792.9z"/>
																					<path d="M-140.4,754.9l-26.2,15.2c-0.4,0.2-0.9,0.1-1.2-0.3l-15.2-26.2c-0.2-0.4-0.1-0.9,0.3-1.2l26.2-15.2
																						c0.4-0.2,0.9-0.1,1.2,0.3l15.2,26.2C-139.9,754.1-140,754.7-140.4,754.9z"/>
																					<path d="M-173.2,773.9l-26.2,15.2c-0.4,0.2-0.9,0.1-1.2-0.3l-15.2-26.2c-0.2-0.4-0.1-0.9,0.3-1.2l26.2-15.2
																						c0.4-0.2,0.9-0.1,1.2,0.3l15.2,26.2C-172.7,773.1-172.8,773.7-173.2,773.9z"/>
																					<path d="M-107.7,735.9l-26.2,15.2c-0.4,0.2-0.9,0.1-1.2-0.3l-15.2-26.2c-0.2-0.4-0.1-0.9,0.3-1.2l26.2-15.2
																						c0.4-0.2,0.9-0.1,1.2,0.3l15.2,26.2C-107.1,735.2-107.2,735.7-107.7,735.9z"/>
																					<path d="M-42.1,697.9l-26.2,15.2c-0.4,0.2-0.9,0.1-1.2-0.3l-15.2-26.2c-0.2-0.4-0.1-0.9,0.3-1.2l26.2-15.2
																						c0.4-0.2,0.9-0.1,1.2,0.3l15.2,26.2C-41.5,697.2-41.7,697.7-42.1,697.9z"/>
																					<path d="M-74.9,716.9l-26.2,15.2c-0.4,0.2-0.9,0.1-1.2-0.3l-15.2-26.2c-0.2-0.4-0.1-0.9,0.3-1.2l26.2-15.2
																						c0.4-0.2,0.9-0.1,1.2,0.3l15.2,26.2C-74.3,716.2-74.5,716.7-74.9,716.9z"/>
																					<path d="M-9.3,679l-26.2,15.2c-0.4,0.2-0.9,0.1-1.2-0.3l-15.2-26.2c-0.2-0.4-0.1-0.9,0.3-1.2l26.2-15.2
																						c0.4-0.2,0.9-0.1,1.2,0.3L-9,677.8C-8.8,678.2-8.9,678.7-9.3,679z"/>
																					<path d="M56.3,641l-26.2,15.2c-0.4,0.2-0.9,0.1-1.2-0.3l-15.2-26.2c-0.2-0.4-0.1-0.9,0.3-1.2l26.2-15.2
																						c0.4-0.2,0.9-0.1,1.2,0.3l15.2,26.2C56.8,640.2,56.7,640.7,56.3,641z"/>
																					<path d="M89,622l-26.2,15.2c-0.4,0.2-0.9,0.1-1.2-0.3l-15.2-26.2c-0.2-0.4-0.1-0.9,0.3-1.2L73,594.3
																						c0.4-0.2,0.9-0.1,1.2,0.3l15.2,26.2C89.6,621.2,89.5,621.8,89,622z"/>
																					<path d="M137.5,593.9l-41,23.8c-0.5,0.3-1.2,0.1-1.5-0.4l-15-25.8c-0.3-0.5-0.1-1.2,0.4-1.5l41-23.8
																						c0.5-0.3,1.2-0.1,1.5,0.4l15,25.8C138.2,593,138.1,593.6,137.5,593.9z"/>
																					<path d="M23.5,660l-26.2,15.2c-0.4,0.2-0.9,0.1-1.2-0.3L-19,648.6c-0.2-0.4-0.1-0.9,0.3-1.2l26.2-15.2
																						c0.4-0.2,0.9-0.1,1.2,0.3l15.2,26.2C24,659.2,23.9,659.7,23.5,660z"/>
																				</g>
																				<path d="M-269.3,871.9l-42.7,24.7c-0.5,0.3-1.2,0.1-1.5-0.4l-14.9-25.8c-0.3-0.5-0.1-1.2,0.4-1.5l42.7-24.7
																					c0.5-0.3,1.2-0.1,1.5,0.4l14.9,25.8C-268.6,870.9-268.8,871.6-269.3,871.9z"/>
																				<path d="M-241.7,939.6l-34,19.7c-0.5,0.3-1.1,0.1-1.3-0.4l-15-26c-0.3-0.5-0.1-1.1,0.4-1.3l34-19.7
																					c0.5-0.3,1.1-0.1,1.3,0.4l15,26C-241.1,938.7-241.3,939.3-241.7,939.6z"/>
																				
																					<rect x="-425.9" y="625.6" transform="matrix(0.8653 -0.5012 0.5012 0.8653 -340.0277 12.3158)" width="557.6" height="26.6"/>
																				<path class="st20" d="M125.2,279.7c-7.8,4.5-240.8,139.5-338.7,196.2c0,0-16.5,9.6-42.7,24.7
																					C-354,557.3-587,692.3-594.9,696.8c-9.9,5.7-18.6,15-9.1,21.9s121.3,75.3,132.9,82.2c11.7,6.9,14,2.1,19.5-1
																					L-175.5,640l42.7-24.7l276.1-159.9c5.4-3.1,10.7-2.8,10.6-16.4c-0.2-13.6-3.9-144.5-5.1-156.2
																					C147.5,271.1,135.2,274,125.2,279.7z"/>
																			</g>
																			<g>
																				<path class="st21" d="M991.8,817.1c0,0-44.4,23.8-48.7,26.5s-16.5,1.6-19.2-2.2s-6.5-11.4-8.4-16
																					s-1.9-11.6,3.5-14.6s49.8-33.6,49.8-33.6L991.8,817.1z"/>
																				<circle class="st21" cx="1059.3" cy="742.8" r="98.6"/>
																				<circle class="st22" cx="1059.3" cy="742.8" r="84"/>
																				<path class="st21" d="M980.8,802.5c0,0-44.9,30.7-49.3,33.7c-4.4,3.1-3.6,8.2,0,8.5"/>
																			</g>
																			<g>
																				<path class="st21" d="M1107.7,1172.4l-161.1-137.5l-13.8-19.2l-8.1-11.3l32.6,16l160.5,138.5
																					c0,0,0.9,3.1-3.4,8.9C1110,1173.6,1107.7,1172.4,1107.7,1172.4z"/>
																				<polygon class="st22" points="937.9,1016 932.7,1015.7 924.6,1004.4 939.5,1011.8 																				"/>
																				<path class="st22" d="M946.5,1034.9c0,0,8.7,0.3,7.6-5.4c5.8-0.4,5.4-8.9,4.2-9"/>
																			</g>
																		</g>
																	</g>
																</g>
															</g>
															<g>
																<rect id="SVGID_1_" x="-12.8" y="707.3" class="st3" width="1132.8" height="740.5"/>
															</g>
														</g>
													</g>
												</g>
											</g>
											<g>
												<path id="SVGID_2_" class="st3" d="M1114.5,1449.4H-7.4c-3,0-5.4-2.4-5.4-5.4V577.5c0-3,2.4-5.4,5.4-5.4h1121.9
													c3,0,5.4,2.4,5.4,5.4V1444C1120,1447,1117.6,1449.4,1114.5,1449.4z"/>
											</g>
										</g>
										<g>
											<circle class="st23" cx="65.5" cy="653.4" r="38.9"/>
											<g class="st15">
												<path class="st7" d="M142.7,660.6H129l-2.6,8.1h-4.1l10.9-33.4c1.3-0.3,3.6-0.6,5.3-0.6l11.1,34h-4.4L142.7,660.6z
													 M141.6,656.8l-5.6-17.9l-5.7,17.9H141.6z"/>
												<path class="st7" d="M171.5,645.3v23.1c0,7.1-3.5,11.3-11.3,11.3c-2.4,0-4.8-0.5-6.9-1.5c0-1.1,0.1-2.6,0.3-3.7
													c2.1,1,4.6,1.6,6.5,1.6c4.7,0,7.2-2.5,7.2-7.3v-3.2c-1.3,2.3-3.2,3.7-6.3,3.7c-5.8,0-9.6-4.1-9.6-12.5
													c0-7.9,3.5-12.9,11.7-12.9C166.4,643.9,169.1,644.4,171.5,645.3z M167.3,663.5v-15.6c-1.2-0.3-2.5-0.5-4.1-0.5
													c-5.6,0-7.5,3.8-7.5,9.3c0,6.1,2.2,9.1,6.5,9.1C164.2,665.8,165.9,665,167.3,663.5z"/>
												<path class="st7" d="M196.3,657.9h-15.8c0.4,5.8,3.2,7.9,7.9,7.9c2.4,0,4.9-0.6,7.3-2c-0.1,1.1-0.3,2.8-0.6,3.8
													c-2,1.2-4.5,1.7-7.1,1.7c-7.9,0-11.8-4.8-11.8-12.9c0-7,3.3-12.5,10.6-12.5c6.7,0,9.8,4.4,9.8,10.8
													C196.5,655.8,196.4,657.3,196.3,657.9z M180.5,654.5h11.7c0-4.2-1.6-7.1-5.7-7.1C183,647.4,180.9,650,180.5,654.5z"/>
												<path class="st7" d="M220.7,652.5v16.2h-4.2v-15.6c0-3.9-1.5-5.7-5.9-5.7c-1.6,0-3.2,0.2-4.8,0.6v20.7h-4.2v-23.3
													c3.1-0.9,6-1.5,9.1-1.5C218.2,643.9,220.7,647.4,220.7,652.5z"/>
												<path class="st7" d="M234.4,665.7c1.2,0,2.5-0.3,3.6-0.9c-0.1,1.4-0.3,2.4-0.5,3.6c-1.3,0.7-2.6,0.9-4,0.9
													c-4.2,0-7-2.2-7-7.5v-23.9c1.4-0.5,2.8-0.6,4.2-0.6v7.3h7.4c-0.1,1.3-0.2,2.3-0.4,3.5h-7v13.4
													C230.6,664.5,231.9,665.7,234.4,665.7z"/>
												<path class="st7" d="M260.2,657.9h-15.8c0.4,5.8,3.2,7.9,7.9,7.9c2.4,0,4.9-0.6,7.3-2c-0.1,1.1-0.3,2.8-0.6,3.8
													c-2,1.2-4.5,1.7-7.1,1.7c-7.9,0-11.8-4.8-11.8-12.9c0-7,3.3-12.5,10.6-12.5c6.7,0,9.8,4.4,9.8,10.8
													C260.4,655.8,260.3,657.3,260.2,657.9z M244.4,654.5h11.7c0-4.2-1.6-7.1-5.7-7.1C246.9,647.4,244.8,650,244.4,654.5z"/>
												<path class="st7" d="M273.1,668.7c0-1.3,0.1-2.5,0.3-3.7c0.9,0.1,1.9,0.2,2.5,0.2c3.8,0,5.5-1.9,5.5-6.9v-23.2
													c1.1-0.3,2.9-0.7,4.3-0.7v24.3c0,6.8-3.1,10.1-9.2,10.1C275.4,669,274.1,669,273.1,668.7z"/>
											</g>
											<g class="st15">
												<path class="st7" d="M377.8,660.6h-13.7l-2.6,8.1h-4.1l10.9-33.4c1.3-0.3,3.6-0.6,5.3-0.6l11.1,34h-4.4L377.8,660.6z
													 M376.7,656.8l-5.6-17.9l-5.7,17.9H376.7z"/>
												<path class="st7" d="M421.7,652.3v16.4h-4.2v-15.6c0-3.9-1.7-5.7-5.7-5.7c-1.9,0-3.8,0.5-5.5,1.4
													c0.4,1.1,0.6,2.3,0.6,3.7v16.2h-4.2v-15.6c0-3.9-1.5-5.7-5.9-5.7c-1.6,0-3.2,0.2-4.8,0.6v20.7h-4.2v-23.3
													c3.1-0.9,6-1.5,9.1-1.5c3.7,0,6.2,0.8,7.8,2.3c2.3-1.7,5.1-2.3,8.1-2.3C418.8,643.9,421.7,647.1,421.7,652.3z"/>
												<path class="st7" d="M427.1,636.7c0-1.7,1.1-2.7,2.7-2.7c1.5,0,2.7,1.1,2.7,2.7c0,1.6-1.2,2.7-2.7,2.7
													C428.2,639.5,427.1,638.4,427.1,636.7z M427.7,644.5h4.2v24.2h-4.2V644.5z"/>
												<path class="st7" d="M456.9,645.3v23.1c0,7.1-3.5,11.3-11.3,11.3c-2.4,0-4.8-0.5-6.9-1.5c0-1.1,0.1-2.6,0.3-3.7
													c2.1,1,4.6,1.6,6.5,1.6c4.7,0,7.2-2.5,7.2-7.3v-3.2c-1.3,2.3-3.2,3.7-6.3,3.7c-5.8,0-9.6-4.1-9.6-12.5
													c0-7.9,3.5-12.9,11.7-12.9C451.8,643.9,454.5,644.4,456.9,645.3z M452.7,663.5v-15.6c-1.2-0.3-2.5-0.5-4.1-0.5
													c-5.6,0-7.5,3.8-7.5,9.3c0,6.1,2.2,9.1,6.5,9.1C449.6,665.8,451.4,665,452.7,663.5z"/>
												<path class="st7" d="M461.5,656.6c0-7.8,3.8-12.7,10.9-12.7s10.9,4.8,10.9,12.7c0,7.8-3.9,12.7-10.9,12.7
													S461.5,664.5,461.5,656.6z M479,656.6c0-5.8-2.1-9.2-6.6-9.2s-6.6,3.4-6.6,9.2c0,5.9,2.1,9.2,6.6,9.2
													S479,662.5,479,656.6z"/>
												<path class="st7" d="M486.6,667.6c0-1.4,0.2-2.4,0.6-3.5c2,1.2,4.5,1.7,6.5,1.7c3.5,0,5.2-1.1,5.2-3.3
													c0-2-1.3-2.9-3.9-3.9l-2-0.8c-3.6-1.4-6.3-3.2-6.3-7.3c0-4.2,3-6.7,8.7-6.7c2.5,0,4.9,0.3,6.9,1.1
													c-0.1,1.1-0.2,2.3-0.5,3.5c-2-0.7-3.8-1.1-6.1-1.1c-3.3,0-4.9,1.1-4.9,3.1c0,1.9,1.3,2.9,4.1,4l2,0.8
													c4.1,1.6,6.2,3.4,6.2,6.9c0,4.1-3.2,7.1-9.3,7.1C491,669.3,488.4,668.7,486.6,667.6z"/>
												<path class="st7" d="M517.3,657.7v-22.5c1.1-0.3,2.9-0.7,4.2-0.7v23c0,5.3,3.1,8,7.9,8c5,0,8-2.7,8-8.1v-22.2
													c1-0.3,2.9-0.7,4.2-0.7v23.2c0,7-4.7,11.7-12.2,11.7S517.3,664.7,517.3,657.7z"/>
												<path class="st7" d="M566.9,652.5v16.2h-4.2v-15.6c0-3.9-1.5-5.7-5.9-5.7c-1.6,0-3.2,0.2-4.8,0.6v20.7h-4.2v-23.3
													c3.1-0.9,6-1.5,9.1-1.5C564.4,643.9,566.9,647.4,566.9,652.5z"/>
												<path class="st7" d="M572.3,636.7c0-1.7,1.1-2.7,2.7-2.7c1.5,0,2.7,1.1,2.7,2.7c0,1.6-1.2,2.7-2.7,2.7
													C573.4,639.5,572.3,638.4,572.3,636.7z M572.9,644.5h4.2v24.2h-4.2V644.5z"/>
												<path class="st7" d="M601.7,644.5l-8.7,24.2h-4.1l-8.7-24.2h4.4l6.4,19.6l6.4-19.6H601.7z"/>
												<path class="st7" d="M622.8,657.9H607c0.4,5.8,3.2,7.9,7.9,7.9c2.4,0,4.9-0.6,7.3-2c-0.1,1.1-0.3,2.8-0.6,3.8
													c-2,1.2-4.5,1.7-7.1,1.7c-7.9,0-11.8-4.8-11.8-12.9c0-7,3.3-12.5,10.6-12.5c6.7,0,9.8,4.4,9.8,10.8
													C623,655.8,622.9,657.3,622.8,657.9z M607,654.5h11.7c0-4.2-1.6-7.1-5.7-7.1C609.5,647.4,607.4,650,607,654.5z"/>
												<path class="st7" d="M641.1,644.5c0,1.2-0.1,2.8-0.4,3.6c-1.3-0.3-2.9-0.4-4.5-0.4c-1.2,0-2.5,0.1-3.8,0.4v20.7h-4.2
													v-23.4c2-0.7,5.3-1.3,7.9-1.3C638.1,644,639.7,644.2,641.1,644.5z"/>
												<path class="st7" d="M643.5,667.6c0-1.4,0.2-2.4,0.6-3.5c2,1.2,4.5,1.7,6.5,1.7c3.5,0,5.2-1.1,5.2-3.3
													c0-2-1.3-2.9-3.9-3.9l-2-0.8c-3.6-1.4-6.3-3.2-6.3-7.3c0-4.2,3-6.7,8.7-6.7c2.5,0,4.9,0.3,6.9,1.1
													c-0.1,1.1-0.2,2.3-0.5,3.5c-2-0.7-3.8-1.1-6.1-1.1c-3.3,0-4.9,1.1-4.9,3.1c0,1.9,1.3,2.9,4.1,4l2,0.8
													c4.1,1.6,6.2,3.4,6.2,6.9c0,4.1-3.2,7.1-9.3,7.1C648,669.3,645.4,668.7,643.5,667.6z"/>
												<path class="st7" d="M664.2,636.7c0-1.7,1.1-2.7,2.7-2.7c1.5,0,2.7,1.1,2.7,2.7c0,1.6-1.2,2.7-2.7,2.7
													C665.3,639.5,664.2,638.4,664.2,636.7z M664.8,644.5h4.2v24.2h-4.2V644.5z"/>
												<path class="st7" d="M694,634.3v34.4h-3.9l-0.2-3.3c-1.3,2.4-3.2,3.9-6.4,3.9c-5.8,0-9.6-4.1-9.6-12.5
													c0-7.9,3.5-12.9,11.8-12.9c1.5,0,2.9,0.1,4.2,0.3V635C691.1,634.5,692.7,634.3,694,634.3z M689.8,663.5v-15.6
													c-1.2-0.3-2.5-0.5-4.1-0.5c-5.6,0-7.5,3.8-7.5,9.3c0,6.1,2.2,9.1,6.5,9.1C686.8,665.8,688.5,665,689.8,663.5z"/>
												<path class="st7" d="M718.7,645.3v23.4h-3.9l-0.2-3.2c-1.3,2.3-3.3,3.8-6.3,3.8c-5.7,0-9.4-3.9-9.4-12.6
													c0-7.9,3.5-12.8,11.6-12.8C713.9,643.9,716.3,644.4,718.7,645.3z M714.5,663.5v-15.6c-1.2-0.3-2.5-0.5-4.1-0.5
													c-5.4,0-7.2,3.8-7.2,9.2c0,6.4,2.3,9.2,6.2,9.2C711.5,665.8,713.2,665,714.5,663.5z"/>
												<path class="st7" d="M743.7,634.3v34.4h-3.9l-0.2-3.3c-1.3,2.4-3.2,3.9-6.4,3.9c-5.8,0-9.6-4.1-9.6-12.5
													c0-7.9,3.5-12.9,11.8-12.9c1.5,0,2.9,0.1,4.2,0.3V635C740.8,634.5,742.3,634.3,743.7,634.3z M739.5,663.5v-15.6
													c-1.2-0.3-2.5-0.5-4.1-0.5c-5.6,0-7.5,3.8-7.5,9.3c0,6.1,2.2,9.1,6.5,9.1C736.4,665.8,738.1,665,739.5,663.5z"/>
											</g>
											<g>
												<g>
													<path d="M57.2,635.1c0.2-1.1,1-2,2.2-2h3.2c1.2,0,2.2,1,2.3,2.2h2.3c0.1-1.2,1-2.2,2.3-2.2h3.2c1.1,0,1.9,0.8,2.1,1.9
														l2-0.3c-1.2-5.1-5.7-8.9-11.1-8.9s-9.9,3.8-11.1,8.9L57.2,635.1z"/>
													<path d="M74.8,636.7v0.2c0,1.3-1,2.3-2.3,2.3h-3.2c-1.2,0-2.2-1-2.3-2.2h-2.3c-0.1,1.2-1,2.2-2.3,2.2h-3.2
														c-1.3,0-2.3-1-2.3-2.3l0,0l-3-0.5c0,0.2-0.1,0.5-0.1,0.7c0,6.3,5.1,11.4,11.4,11.4s11.4-5.1,11.4-11.4
														c0-0.3-0.1-0.5-0.1-0.7L74.8,636.7z"/>
												</g>
												<path d="M65.5,651.3L65.5,651.3L65.5,651.3C65.4,651.3,65.4,651.3,65.5,651.3L65.5,651.3c-11.5,0-20.5,11-20.5,17.6
													c0,6.5,4.3,7.2,10.2,7.2c5.7,0,9.9,0,10.2,0h0.1c0.3,0,4.6,0,10.2,0c5.9,0,10.2-0.7,10.2-7.2
													C86,662.3,77,651.3,65.5,651.3z"/>
											</g>
											<path class="st7" d="M335.8,652.9l-23.4-21.1c-0.5-0.4-1.2-0.1-1.2,0.5v42.2c0,0.6,0.7,0.9,1.2,0.5l23.4-21.1
												C336.1,653.7,336.1,653.2,335.8,652.9z"/>
										</g>
									</g>
									<g>
										<g>
											<text transform="matrix(1 0 0 1 -657.4424 465.0187)" class="st7" style="font-family:'ArialMT'; font-size:41.6478px;">Agente J</text>
											<g>
												<circle class="st24" cx="-706" cy="452" r="33.3"/>
												<g>
													<g>
														<path d="M-713.1,436.3c0.1-1,0.9-1.7,1.9-1.7h2.7c1,0,1.9,0.8,1.9,1.9h1.9c0.1-1,0.9-1.9,1.9-1.9h2.7
															c0.9,0,1.6,0.7,1.8,1.6l1.7-0.3c-1-4.3-4.9-7.6-9.5-7.6s-8.5,3.2-9.5,7.6L-713.1,436.3z"/>
														<path d="M-698,437.7v0.2c0,1.1-0.9,2-2,2h-2.7c-1,0-1.9-0.8-1.9-1.9h-1.9c-0.1,1-0.9,1.9-1.9,1.9h-2.7
															c-1.1,0-2-0.9-2-2l0,0l-2.5-0.4c0,0.2-0.1,0.4-0.1,0.6c0,5.4,4.4,9.8,9.8,9.8c5.4,0,9.8-4.4,9.8-9.8
															c0-0.2-0.1-0.4-0.1-0.6L-698,437.7z"/>
													</g>
													<path d="M-706,450.1L-706,450.1L-706,450.1C-706,450.1-706.1,450.1-706,450.1L-706,450.1c-9.9,0.1-17.6,9.5-17.6,15
														c0,5.6,3.7,6.2,8.7,6.2c4.8,0,8.5,0,8.7,0h0.1c0.3,0,3.9,0,8.7,0c5,0,8.7-0.6,8.7-6.2
														C-688.5,459.6-696.2,450.2-706,450.1z"/>
												</g>
											</g>
										</g>
										<g>
											<g>
												<polygon class="st7" points="-733.3,631 -717.5,631 -733.6,614.9 												"/>
												<path class="st25" d="M-727.2,625.3c4.4-5.3,11-8.7,18.4-8.7c13.2,0,23.8,10.7,23.8,23.8c0,13.2-10.7,23.8-23.8,23.8
													c-12.5,0-22.8-9.7-23.8-22c0-0.6-0.1-1.2-0.1-1.8"/>
												<polyline class="st25" points="-708.9,629.5 -708.9,640.5 -698.7,650.6 												"/>
											</g>
											<text transform="matrix(1 0 0 1 -657.4424 653.2793)" class="st7" style="font-family:'ArialMT'; font-size:41.6478px;">Recuerdos</text>
										</g>
										<g>
											<g>
												<g>
													<circle class="st7" cx="-717.3" cy="525.3" r="9.9"/>
													<path class="st7" d="M-717.3,540.5L-717.3,540.5L-717.3,540.5C-717.4,540.5-717.4,540.5-717.3,540.5L-717.3,540.5
														c-11.1,0.1-19.7,10.6-19.7,16.8c0,6.3,4.2,6.9,9.8,6.9c5.4,0,9.5,0,9.8,0h0.1c0.3,0,4.4,0,9.8,0c5.6,0,9.8-0.6,9.8-6.9
														C-697.7,551.1-706.3,540.6-717.3,540.5z"/>
												</g>
												<g>
													<circle class="st7" cx="-696.1" cy="530.1" r="7.4"/>
													<path class="st7" d="M-693.3,557.3c0-4.5-3-10.2-7.9-14.7c1.6-0.6,3.3-1.1,5.1-1.1l0,0l0,0l0,0l0,0
														c8.2,0.1,14.7,8,14.7,12.7s-3.1,5.2-7.4,5.2c-1.9,0-3.6,0-4.9,0C-693.4,558.7-693.3,558.1-693.3,557.3z"/>
												</g>
											</g>
											<text transform="matrix(1 0 0 1 -657.4424 559.397)" class="st7" style="font-family:'ArialMT'; font-size:41.6478px;">Amigos</text>
										</g>
										<g>
											<path class="st7" d="M-706.5,759.6l12.1,6.5c1.5,0.8,3.3-0.3,3.3-2v-48.8c0-1.7-1.4-3-3-3h-28.3c-1.7,0-3,1.4-3,3v48.8
												c0,1.7,1.8,2.8,3.3,2l12.1-6.5C-709.1,759-707.7,759-706.5,759.6z"/>
											<text transform="matrix(1 0 0 1 -657.4424 750.6084)" class="st7" style="font-family:'ArialMT'; font-size:41.6478px;">Guardado</text>
										</g>
										<g>
											<text transform="matrix(1 0 0 1 -657.4424 851.9692)" class="st7" style="font-family:'ArialMT'; font-size:41.6478px;">Ver ms</text>
											<g>
												<circle class="st10" cx="-707.9" cy="840.1" r="33.7"/>
												<polyline class="st9" points="-731.3,834.3 -707.9,852 -684.6,834.3 												"/>
											</g>
										</g>
									</g>
									<line class="st3" x1="-739.3" y1="942.2" x2="-180.6" y2="942.2"/>
									<g>
										<text transform="matrix(1 0 0 1 -741.5991 1014.3457)" class="st7" style="font-family:'ArialMT'; font-size:41.6478px;">Tus accesos directos</text>
										<g>
											<path class="st7" d="M-676.7,1132.9h-62.5c-1.3,0-2.4-1.1-2.4-2.4V1068c0-1.3,1.1-2.4,2.4-2.4h62.5
												c1.3,0,2.4,1.1,2.4,2.4v62.5C-674.3,1131.9-675.3,1132.9-676.7,1132.9z"/>
											
												<text transform="matrix(1 0 0 1 -649.7432 1112.3643)" class="st7" style="font-family:'ArialMT'; font-size:41.6478px;">Amigos Universidad</text>
										</g>
										<g>
											<path class="st7" d="M-676.7,1229.2h-62.5c-1.3,0-2.4-1.1-2.4-2.4v-62.5c0-1.3,1.1-2.4,2.4-2.4h62.5
												c1.3,0,2.4,1.1,2.4,2.4v62.5C-674.3,1228.1-675.3,1229.2-676.7,1229.2z"/>
											
												<text transform="matrix(1 0 0 1 -649.7432 1208.6475)" class="st7" style="font-family:'ArialMT'; font-size:41.6478px;">Familia</text>
										</g>
										<g>
											<path class="st7" d="M-676.7,1325.5h-62.5c-1.3,0-2.4-1.1-2.4-2.4v-62.5c0-1.3,1.1-2.4,2.4-2.4h62.5
												c1.3,0,2.4,1.1,2.4,2.4v62.5C-674.3,1324.4-675.3,1325.5-676.7,1325.5z"/>
											<text transform="matrix(1 0 0 1 -649.7432 1304.916)" class="st7" style="font-family:'ArialMT'; font-size:41.6478px;">Club</text>
										</g>
										<g>
											<path class="st7" d="M-676.7,1421.8h-62.5c-1.3,0-2.4-1.1-2.4-2.4v-62.5c0-1.3,1.1-2.4,2.4-2.4h62.5
												c1.3,0,2.4,1.1,2.4,2.4v62.5C-674.3,1420.7-675.3,1421.8-676.7,1421.8z"/>
											
												<text transform="matrix(1 0 0 1 -649.7432 1401.1963)" class="st7" style="font-family:'ArialMT'; font-size:41.6478px;">Galactic Bowl</text>
										</g>
										<g>
											<path class="st7" d="M-676.7,1518h-62.5c-1.3,0-2.4-1.1-2.4-2.4v-62.5c0-1.3,1.1-2.4,2.4-2.4h62.5c1.3,0,2.4,1.1,2.4,2.4
												v62.5C-674.3,1517-675.3,1518-676.7,1518z"/>
											
												<text transform="matrix(1 0 0 1 -649.7432 1497.4678)" class="st7" style="font-family:'ArialMT'; font-size:41.6478px;">Vacaciones Intergalcticas</text>
										</g>
										<g>
											<path class="st7" d="M-676.7,1614.3h-62.5c-1.3,0-2.4-1.1-2.4-2.4v-62.5c0-1.3,1.1-2.4,2.4-2.4h62.5
												c1.3,0,2.4,1.1,2.4,2.4v62.5C-674.3,1613.2-675.3,1614.3-676.7,1614.3z"/>
											
												<text transform="matrix(1 0 0 1 -649.7432 1593.7402)" class="st7" style="font-family:'ArialMT'; font-size:41.6478px;">Renta Casas en Saturno</text>
										</g>
									</g>
									<text transform="matrix(1 0 0 1 1294.4014 441.5132)" class="st7" style="font-family:'ArialMT'; font-size:41.6478px;">Publicidad</text>
									<text transform="matrix(1 0 0 1 1294.4014 1064.3076)" class="st7" style="font-family:'ArialMT'; font-size:41.6478px;">Contactos</text>
									<g>
										<path class="st7" d="M1512.8,705.1h-213.6c-2.6,0-4.8-2.1-4.8-4.8V486.6c0-2.6,2.1-4.8,4.8-4.8h213.6
											c2.6,0,4.8,2.1,4.8,4.8v213.6C1517.6,702.9,1515.5,705.1,1512.8,705.1z"/>
										<text transform="matrix(1 0 0 1 1546.417 613.6748)" class="st7" style="font-family:'ArialMT'; font-size:41.6478px;">Mercado</text>
									</g>
									<g>
										<path class="st7" d="M1512.8,958.1h-213.6c-2.6,0-4.8-2.1-4.8-4.8V739.7c0-2.6,2.1-4.8,4.8-4.8h213.6
											c2.6,0,4.8,2.1,4.8,4.8v213.6C1517.6,956,1515.5,958.1,1512.8,958.1z"/>
										<text transform="matrix(1 0 0 1 1546.417 866.7266)" class="st7" style="font-family:'ArialMT'; font-size:41.6478px;">Super Mercado</text>
									</g>
									<g>
										<circle class="st6" cx="1762.5" cy="1046.1" r="17.4"/>
										<g>
											<path class="st7" d="M1786,1070.6c-1-0.9-1.9-1.9-2.9-2.9l-2.8-3c-1.9-2-3.8-4-5.6-6c-0.1-0.1-0.1-0.4,0-0.5
												s0.4-0.1,0.5,0c2,1.9,4,3.8,6,5.6l3,2.8c1,1,2,1.9,2.9,2.9c0.3,0.3,0.3,0.7,0,1C1786.7,1070.8,1786.2,1070.8,1786,1070.6
												z"/>
										</g>
									</g>
									<text transform="matrix(1 0 0 1 1820.9199 1046.1436)" class="st7" style="font-family:'ArialMT'; font-size:61.3263px;">...</text>
									<g>
										<text transform="matrix(1 0 0 1 1370.4434 1141.8311)" class="st7" style="font-family:'ArialMT'; font-size:41.6478px;">Agente A</text>
										<g>
											<circle class="st24" cx="1321.9" cy="1128.8" r="33.3"/>
											<g>
												<g>
													<path d="M1314.8,1113.1c0.1-1,0.9-1.7,1.9-1.7h2.7c1,0,1.9,0.8,1.9,1.9h1.9c0.1-1,0.9-1.9,1.9-1.9h2.7
														c0.9,0,1.6,0.7,1.8,1.6l1.7-0.3c-1-4.3-4.9-7.6-9.5-7.6s-8.5,3.2-9.5,7.6L1314.8,1113.1z"/>
													<path d="M1329.8,1114.5v0.2c0,1.1-0.9,2-2,2h-2.7c-1,0-1.9-0.8-1.9-1.9h-1.9c-0.1,1-0.9,1.9-1.9,1.9h-2.7
														c-1.1,0-2-0.9-2-2l0,0l-2.5-0.4c0,0.2-0.1,0.4-0.1,0.6c0,5.4,4.4,9.8,9.8,9.8s9.8-4.4,9.8-9.8c0-0.2-0.1-0.4-0.1-0.6
														L1329.8,1114.5z"/>
												</g>
												<path d="M1321.9,1126.9L1321.9,1126.9L1321.9,1126.9L1321.9,1126.9L1321.9,1126.9c-9.9,0.1-17.6,9.5-17.6,15
													c0,5.6,3.7,6.2,8.7,6.2c4.8,0,8.5,0,8.7,0h0.1c0.3,0,3.9,0,8.7,0c5,0,8.7-0.6,8.7-6.2
													C1339.4,1136.4,1331.7,1127,1321.9,1126.9z"/>
											</g>
										</g>
									</g>
									<g>
										<text transform="matrix(1 0 0 1 1370.4434 1238.9268)" class="st7" style="font-family:'ArialMT'; font-size:41.6478px;">Agente B</text>
										<g>
											<circle class="st24" cx="1321.9" cy="1225.9" r="33.3"/>
											<g>
												<g>
													<path d="M1314.8,1210.2c0.1-1,0.9-1.7,1.9-1.7h2.7c1,0,1.9,0.8,1.9,1.9h1.9c0.1-1,0.9-1.9,1.9-1.9h2.7
														c0.9,0,1.6,0.7,1.8,1.6l1.7-0.3c-1-4.3-4.9-7.6-9.5-7.6s-8.5,3.2-9.5,7.6L1314.8,1210.2z"/>
													<path d="M1329.8,1211.6v0.2c0,1.1-0.9,2-2,2h-2.7c-1,0-1.9-0.8-1.9-1.9h-1.9c-0.1,1-0.9,1.9-1.9,1.9h-2.7
														c-1.1,0-2-0.9-2-2l0,0l-2.5-0.4c0,0.2-0.1,0.4-0.1,0.6c0,5.4,4.4,9.8,9.8,9.8s9.8-4.4,9.8-9.8c0-0.2-0.1-0.4-0.1-0.6
														L1329.8,1211.6z"/>
												</g>
												<path d="M1321.9,1224L1321.9,1224L1321.9,1224L1321.9,1224L1321.9,1224c-9.9,0.1-17.6,9.5-17.6,15
													c0,5.6,3.7,6.2,8.7,6.2c4.8,0,8.5,0,8.7,0h0.1c0.3,0,3.9,0,8.7,0c5,0,8.7-0.6,8.7-6.2
													C1339.4,1233.5,1331.7,1224.1,1321.9,1224z"/>
											</g>
										</g>
									</g>
									<g>
										<text transform="matrix(1 0 0 1 1370.4434 1336.0283)" class="st7" style="font-family:'ArialMT'; font-size:41.6478px;">Agente C</text>
										<g>
											<circle class="st24" cx="1321.9" cy="1323" r="33.3"/>
											<g>
												<g>
													<path d="M1314.8,1307.3c0.1-1,0.9-1.7,1.9-1.7h2.7c1,0,1.9,0.8,1.9,1.9h1.9c0.1-1,0.9-1.9,1.9-1.9h2.7
														c0.9,0,1.6,0.7,1.8,1.6l1.7-0.3c-1-4.3-4.9-7.6-9.5-7.6s-8.5,3.2-9.5,7.6L1314.8,1307.3z"/>
													<path d="M1329.8,1308.7v0.2c0,1.1-0.9,2-2,2h-2.7c-1,0-1.9-0.8-1.9-1.9h-1.9c-0.1,1-0.9,1.9-1.9,1.9h-2.7
														c-1.1,0-2-0.9-2-2l0,0l-2.5-0.4c0,0.2-0.1,0.4-0.1,0.6c0,5.4,4.4,9.8,9.8,9.8s9.8-4.4,9.8-9.8c0-0.2-0.1-0.4-0.1-0.6
														L1329.8,1308.7z"/>
												</g>
												<path d="M1321.9,1321.1L1321.9,1321.1L1321.9,1321.1L1321.9,1321.1L1321.9,1321.1c-9.9,0.1-17.6,9.5-17.6,15
													c0,5.6,3.7,6.2,8.7,6.2c4.8,0,8.5,0,8.7,0h0.1c0.3,0,3.9,0,8.7,0c5,0,8.7-0.6,8.7-6.2
													C1339.4,1330.6,1331.7,1321.2,1321.9,1321.1z"/>
											</g>
										</g>
									</g>
									<g>
										<text transform="matrix(1 0 0 1 1370.4434 1433.1211)" class="st7" style="font-family:'ArialMT'; font-size:41.6478px;">Agente D</text>
										<g>
											<circle class="st24" cx="1321.9" cy="1420.1" r="33.3"/>
											<g>
												<g>
													<path d="M1314.8,1404.4c0.1-1,0.9-1.7,1.9-1.7h2.7c1,0,1.9,0.8,1.9,1.9h1.9c0.1-1,0.9-1.9,1.9-1.9h2.7
														c0.9,0,1.6,0.7,1.8,1.6l1.7-0.3c-1-4.3-4.9-7.6-9.5-7.6s-8.5,3.2-9.5,7.6L1314.8,1404.4z"/>
													<path d="M1329.8,1405.8v0.2c0,1.1-0.9,2-2,2h-2.7c-1,0-1.9-0.8-1.9-1.9h-1.9c-0.1,1-0.9,1.9-1.9,1.9h-2.7
														c-1.1,0-2-0.9-2-2l0,0l-2.5-0.4c0,0.2-0.1,0.4-0.1,0.6c0,5.4,4.4,9.8,9.8,9.8s9.8-4.4,9.8-9.8c0-0.2-0.1-0.4-0.1-0.6
														L1329.8,1405.8z"/>
												</g>
												<path d="M1321.9,1418.2L1321.9,1418.2L1321.9,1418.2L1321.9,1418.2L1321.9,1418.2c-9.9,0.1-17.6,9.5-17.6,15
													c0,5.6,3.7,6.2,8.7,6.2c4.8,0,8.5,0,8.7,0h0.1c0.3,0,3.9,0,8.7,0c5,0,8.7-0.6,8.7-6.2
													C1339.4,1427.7,1331.7,1418.3,1321.9,1418.2z"/>
											</g>
										</g>
									</g>
									<g>
										<text transform="matrix(1 0 0 1 1370.4434 1530.2217)" class="st7" style="font-family:'ArialMT'; font-size:41.6478px;">Agente E</text>
										<g>
											<circle class="st24" cx="1321.9" cy="1517.2" r="33.3"/>
											<g>
												<g>
													<path d="M1314.8,1501.5c0.1-1,0.9-1.7,1.9-1.7h2.7c1,0,1.9,0.8,1.9,1.9h1.9c0.1-1,0.9-1.9,1.9-1.9h2.7
														c0.9,0,1.6,0.7,1.8,1.6l1.7-0.3c-1-4.3-4.9-7.6-9.5-7.6s-8.5,3.2-9.5,7.6L1314.8,1501.5z"/>
													<path d="M1329.8,1502.9v0.2c0,1.1-0.9,2-2,2h-2.7c-1,0-1.9-0.8-1.9-1.9h-1.9c-0.1,1-0.9,1.9-1.9,1.9h-2.7
														c-1.1,0-2-0.9-2-2l0,0l-2.5-0.4c0,0.2-0.1,0.4-0.1,0.6c0,5.4,4.4,9.8,9.8,9.8s9.8-4.4,9.8-9.8c0-0.2-0.1-0.4-0.1-0.6
														L1329.8,1502.9z"/>
												</g>
												<path d="M1321.9,1515.3L1321.9,1515.3L1321.9,1515.3L1321.9,1515.3L1321.9,1515.3c-9.9,0.1-17.6,9.5-17.6,15
													c0,5.6,3.7,6.2,8.7,6.2c4.8,0,8.5,0,8.7,0h0.1c0.3,0,3.9,0,8.7,0c5,0,8.7-0.6,8.7-6.2
													C1339.4,1524.8,1331.7,1515.4,1321.9,1515.3z"/>
											</g>
										</g>
									</g>
									<g>
										<text transform="matrix(1 0 0 1 1370.4434 1627.3271)" class="st7" style="font-family:'ArialMT'; font-size:41.6478px;">Agente F</text>
										<g>
											<circle class="st24" cx="1321.9" cy="1614.3" r="33.3"/>
											<g>
												<g>
													<path d="M1314.8,1598.6c0.1-1,0.9-1.7,1.9-1.7h2.7c1,0,1.9,0.8,1.9,1.9h1.9c0.1-1,0.9-1.9,1.9-1.9h2.7
														c0.9,0,1.6,0.7,1.8,1.6l1.7-0.3c-1-4.3-4.9-7.6-9.5-7.6s-8.5,3.2-9.5,7.6L1314.8,1598.6z"/>
													<path d="M1329.8,1600v0.2c0,1.1-0.9,2-2,2h-2.7c-1,0-1.9-0.8-1.9-1.9h-1.9c-0.1,1-0.9,1.9-1.9,1.9h-2.7
														c-1.1,0-2-0.9-2-2l0,0l-2.5-0.4c0,0.2-0.1,0.4-0.1,0.6c0,5.4,4.4,9.8,9.8,9.8s9.8-4.4,9.8-9.8c0-0.2-0.1-0.4-0.1-0.6
														L1329.8,1600z"/>
												</g>
												<path d="M1321.9,1612.4L1321.9,1612.4L1321.9,1612.4L1321.9,1612.4L1321.9,1612.4c-9.9,0.1-17.6,9.5-17.6,15
													c0,5.6,3.7,6.2,8.7,6.2c4.8,0,8.5,0,8.7,0h0.1c0.3,0,3.9,0,8.7,0c5,0,8.7-0.6,8.7-6.2
													C1339.4,1621.9,1331.7,1612.5,1321.9,1612.4z"/>
											</g>
										</g>
									</g>
									<line class="st3" x1="1294.4" y1="1000" x2="1853.1" y2="1000"/>
								</g>
							</g>
						</g>
					</g>
					<g>
						<rect id="SVGID_4_" x="-17" y="-269.6" class="st26" width="1147.9" height="2705.6"/>
					</g>
				</g>
				<g>
					<g>
						<line class="st27" x1="82.1" y1="1773.2" x2="1031.7" y2="1773.2"/>
						<path class="st28" d="M1031.7,1773.2v-314c0-4.2-3.5-7.7-7.7-7.7H89.8c-4.2,0-7.7,3.5-7.7,7.7v314H1031.7z"/>
						<path class="st29" d="M82.1,1773.2v314c0,4.2,3.5,7.7,7.7,7.7h934.3c4.2,0,7.7-3.5,7.6-7.7v-314H82.1z"/>
					</g>
					<g class="st15">
						<path d="M267,1627.1c-7.3-4.5-12.9-10.8-16.6-18.9c-3.8-8.2-5.6-17.7-5.6-28.6s1.9-20.3,5.7-28.4s9.3-14.3,16.5-18.6
							c7.2-4.3,15.6-6.5,25.4-6.5c9.5,0,17.1,1.3,22.7,4c-0.1,5.9-0.9,11.4-2.5,16.3c-5.6-2.4-11.9-3.6-18.7-3.6
							c-5.8,0-11,1.5-15.4,4.4s-7.8,7.1-10.2,12.7c-2.4,5.5-3.6,12.2-3.6,20c0,7.9,1.3,14.7,3.9,20.2c2.6,5.6,6.2,9.8,10.9,12.7
							c4.7,2.9,10.2,4.3,16.5,4.3c7,0,13.5-1.4,19.6-4.2c-0.5,5.3-1.5,11.2-3,17.5c-5.8,2.2-12.2,3.3-19.1,3.3
							C283.2,1633.8,274.3,1631.6,267,1627.1z"/>
						<path d="M337.1,1628.4c-5.3-3.1-9.3-7.5-12.1-13.3c-2.8-5.8-4.2-12.8-4.2-20.8c0-8.1,1.4-15.1,4.1-20.9s6.7-10.3,12-13.3
							c5.3-3.1,11.6-4.6,19.1-4.6s13.8,1.5,19.1,4.6c5.3,3.1,9.3,7.5,12.1,13.3c2.8,5.8,4.2,12.8,4.2,20.9c0,8-1.4,14.9-4.2,20.8
							c-2.8,5.8-6.8,10.3-12.1,13.3c-5.3,3.1-11.6,4.6-19.1,4.6C348.7,1633,342.4,1631.5,337.1,1628.4z M368,1612
							c2.6-3.9,3.9-9.7,3.9-17.6c0-8-1.3-13.9-3.9-17.8s-6.6-5.8-12-5.8c-5.3,0-9.3,1.9-11.9,5.8s-3.9,9.8-3.9,17.8
							c0,7.9,1.3,13.8,3.9,17.6c2.6,3.9,6.5,5.8,11.9,5.8S365.4,1615.8,368,1612z"/>
						<path d="M502.1,1562.5c4.6,4.7,7,11.3,7,19.8v48.9h-19v-47.5c0-4.5-1-7.9-3-9.9c-2-2.1-5.4-3.1-10-3.1
							c-4.4,0-8.7,0.8-12.6,2.5c0.7,2.5,1,5.5,1,9v48.9h-19v-46.9c0-4.9-1.1-8.5-3.2-10.7s-5.7-3.3-10.8-3.3c-3.5,0-7,0.4-10.7,1.2
							v59.6h-19v-71c4.8-1.5,9.9-2.6,15.1-3.5c5.2-0.8,10.2-1.3,15.1-1.3c10.6,0,18.5,2,23.9,6.1c6.3-4.1,14.2-6.1,23.6-6.1
							C490.2,1555.5,497.4,1557.8,502.1,1562.5z"/>
						<path d="M580.8,1565c6.2,6.4,9.3,15.7,9.3,28.1c0,8.1-1.4,15.2-4.2,21.1c-2.8,6-7.1,10.6-12.8,13.9s-12.8,4.9-21.4,4.9
							c-3,0-5.9-0.1-8.8-0.4v30.1h-19v-101.3c4.5-1.9,9.4-3.3,14.5-4.4c5.1-1,10.1-1.6,15.1-1.6
							C565.5,1555.5,574.6,1558.7,580.8,1565z M566.5,1611.4c2.9-4.2,4.4-10,4.4-17.6c0-7.7-1.4-13.5-4.3-17.3
							c-2.9-3.8-7.5-5.7-13.9-5.7c-3.3,0-6.5,0.4-9.6,1.3v44.6c2.9,0.6,5.9,0.9,9.2,0.9C558.8,1617.6,563.6,1615.5,566.5,1611.4z"/>
						<path d="M663.9,1559.2v72.1h-17.4l-1.2-10.4c-3.8,8.1-9.9,12.2-18.5,12.2c-8.7,0-15.6-3.1-20.6-9.4s-7.6-15.9-7.6-28.8
							c0-12.6,3-22.2,8.9-29.1c5.9-6.8,15.5-10.2,28.6-10.2C646,1555.5,655.3,1556.7,663.9,1559.2z M645,1612.9v-41.2
							c-2.7-0.6-5.8-0.9-9.3-0.9c-6.6,0-11.2,2-13.9,6c-2.6,4-3.9,9.9-3.9,17.6c0,8.2,1.2,14.2,3.7,17.9c2.5,3.7,6.1,5.6,11,5.6
							C637.6,1617.8,641.8,1616.1,645,1612.9z"/>
						<path d="M722.9,1556.8c0,2.8-0.2,5.5-0.5,8.3s-0.8,5.2-1.3,7.3c-3.6-0.6-7.9-0.9-12.9-0.9c-3.4,0-6.6,0.2-9.6,0.6v59.2h-19
							v-71.6c4.2-1.1,8.8-2,13.6-2.7s9.5-1.1,14-1.1C713.1,1555.8,718.4,1556.1,722.9,1556.8z"/>
						<path d="M752.6,1614.9c1.6,1.8,4.1,2.7,7.4,2.7c1.6,0,3.3-0.2,5-0.7c1.8-0.4,3.4-1,4.9-1.7c-0.5,6.1-1.2,11.2-2.1,15.1
							c-3.5,1.8-7.8,2.7-12.9,2.7c-7.7,0-13.6-2.1-17.6-6.2c-4.1-4.2-6.1-10.4-6.1-18.8v-71.2c5.8-1.7,12.2-2.5,19-2.5v23h20.5
							c-0.3,5.1-0.8,10.1-1.6,15h-18.8v33.8C750.2,1610.1,751,1613,752.6,1614.9z"/>
						<path d="M783.9,1541.8c-2.1-2.1-3.2-4.7-3.2-8s1.1-5.9,3.2-8c2.1-2.1,4.8-3.1,7.9-3.1c2,0,3.8,0.5,5.5,1.4s3,2.3,3.9,3.9
							c0.9,1.7,1.4,3.6,1.4,5.8c0,2.1-0.5,4-1.4,5.6c-0.9,1.7-2.2,3-3.9,4s-3.5,1.5-5.5,1.5C788.7,1544.9,786.1,1543.9,783.9,1541.8
							z M782.4,1557.3h19v74h-19V1557.3z"/>
						<path d="M860.4,1556.8c0,2.8-0.2,5.5-0.5,8.3s-0.8,5.2-1.3,7.3c-3.6-0.6-7.9-0.9-12.9-0.9c-3.4,0-6.6,0.2-9.6,0.6v59.2h-19
							v-71.6c4.2-1.1,8.8-2,13.6-2.7s9.5-1.1,14-1.1C850.6,1555.8,855.8,1556.1,860.4,1556.8z"/>
					</g>
					<g class="st15">
						<path class="st7" d="M430.5,1978.2c2.8,4.4,4.2,9.4,4.2,15.3s-1.4,11.1-4.1,15.5s-6.8,7.8-12.2,10.2
							c-5.4,2.4-11.9,3.6-19.7,3.6h-35.6v-102.6c3.7-0.8,8.1-1.4,13.4-1.9c5.3-0.4,10.6-0.7,15.8-0.7c13.1,0,22.9,2.4,29.2,7.3
							c6.3,4.9,9.5,11.8,9.5,20.7c0,5.1-1.2,9.7-3.6,13.6s-5.6,6.9-9.8,9.1C423.5,1970.6,427.7,1973.9,430.5,1978.2z M382.1,1934
							v28.6H395c5.4,0,9.7-1.2,12.7-3.5s4.5-6.1,4.5-11.3c0-4.6-1.6-8.2-4.7-10.7c-3.2-2.5-8-3.7-14.5-3.7
							C388.9,1933.4,385.3,1933.6,382.1,1934z M410.6,2003.8c3.1-2.3,4.7-6,4.7-11c0-9.9-6.3-14.8-18.8-14.8h-14.4v29.4h15
							C403,2007.3,407.5,2006.1,410.6,2003.8z"/>
						<path class="st7" d="M458.5,2020c-5.3-3.1-9.3-7.5-12.1-13.3c-2.8-5.8-4.2-12.8-4.2-20.8c0-8.1,1.4-15.1,4.1-20.9
							s6.7-10.3,12-13.3c5.3-3.1,11.6-4.6,19.1-4.6s13.8,1.5,19.1,4.6c5.3,3.1,9.3,7.5,12.1,13.3c2.8,5.8,4.2,12.8,4.2,20.9
							c0,8-1.4,14.9-4.2,20.8c-2.8,5.8-6.8,10.3-12.1,13.3c-5.3,3.1-11.6,4.6-19.1,4.6C470.1,2024.6,463.8,2023.1,458.5,2020z
							 M489.5,2003.6c2.6-3.9,3.9-9.7,3.9-17.6c0-8-1.3-13.9-3.9-17.8s-6.6-5.8-12-5.8c-5.3,0-9.3,1.9-11.9,5.8s-3.9,9.8-3.9,17.8
							c0,7.9,1.3,13.8,3.9,17.6c2.6,3.9,6.5,5.8,11.9,5.8S486.9,2007.4,489.5,2003.6z"/>
						<path class="st7" d="M567.6,1948.4c0,2.8-0.2,5.5-0.5,8.3s-0.8,5.2-1.3,7.3c-3.6-0.6-7.9-0.9-12.9-0.9c-3.4,0-6.6,0.2-9.6,0.6
							v59.2h-19v-71.6c4.3-1.1,8.8-2,13.6-2.7s9.5-1.1,14-1.1C557.8,1947.4,563.1,1947.7,567.6,1948.4z"/>
						<path class="st7" d="M620,1948.4c0,2.8-0.2,5.5-0.5,8.3s-0.8,5.2-1.3,7.3c-3.6-0.6-7.9-0.9-12.9-0.9c-3.4,0-6.6,0.2-9.6,0.6
							v59.2h-19v-71.6c4.3-1.1,8.8-2,13.6-2.7s9.5-1.1,14-1.1C610.2,1947.4,615.4,1947.7,620,1948.4z"/>
						<path class="st7" d="M688.2,1950.8v72.1h-17.4l-1.2-10.4c-3.8,8.1-9.9,12.2-18.5,12.2c-8.7,0-15.6-3.1-20.6-9.4
							s-7.6-15.9-7.6-28.8c0-12.6,3-22.2,8.9-29.1c5.9-6.8,15.5-10.2,28.6-10.2C670.4,1947.1,679.6,1948.3,688.2,1950.8z
							 M669.4,2004.5v-41.2c-2.7-0.6-5.8-0.9-9.3-0.9c-6.6,0-11.2,2-13.9,6c-2.6,4-3.9,9.9-3.9,17.6c0,8.2,1.2,14.2,3.7,17.9
							s6.1,5.6,11,5.6C662,2009.4,666.1,2007.7,669.4,2004.5z"/>
						<path class="st7" d="M747.2,1948.4c0,2.8-0.2,5.5-0.5,8.3s-0.8,5.2-1.3,7.3c-3.6-0.6-7.9-0.9-12.9-0.9c-3.4,0-6.6,0.2-9.6,0.6
							v59.2h-19v-71.6c4.2-1.1,8.8-2,13.6-2.7s9.5-1.1,14-1.1C737.4,1947.4,742.7,1947.7,747.2,1948.4z"/>
					</g>
				</g>
			</g>
		</g>
	</g>
</g>
<g transform="matrix(.866 .5 -.5 .866 -75.763 -54.598)">
	<path class="st30" d="M1904,1283.2c5.3,2.9,9.2,7.8,10.8,13.7c1.6,5.8,0.8,12.1-2.2,17.3l0,0c-6.1,10.6-19.6,14.4-30.3,8.5
		l-30.2-16.6l-11.2,31.2c-1,2.7-3.5,4.7-6.4,4.9c-2.9,0.3-5.7-1.2-7.2-3.7l-56.3-97.4c-1.4-2.4-1.3-5.3,0.1-7.6s3.9-3.7,6.7-3.7
		l114.5,3.2c3,0.1,5.7,1.9,6.8,4.7c1.1,2.8,0.4,6-1.7,8.1l-21.9,21.7L1904,1283.2z"/>
</g>
</svg>
