<?xml version="1.0" encoding="utf-8"?>
<!-- Generator: Adobe Illustrator 24.0.0, SVG Export Plug-In . SVG Version: 6.00 Build 0)  -->
<svg version="1.1" id="Layer_1" xmlns="http://www.w3.org/2000/svg" xmlns:xlink="http://www.w3.org/1999/xlink" x="0px" y="0px"
	 viewBox="0 0 1920 1080" style="enable-background:new 0 0 1920 1080;" xml:space="preserve">
<style type="text/css">
	.st0{clip-path:url(#SVGID_2_);}
	.st1{fill:#ED1C24;}
	.st2{stroke:#FFFFFF;stroke-width:1.3457;stroke-miterlimit:10;}
	.st3{fill:#FFFFFF;}
</style>
<g>
	<defs>
		<rect id="SVGID_1_" x="0" y="0" width="1918.5" height="1081.7"/>
	</defs>
	<use xlink:href="#SVGID_1_"  style="overflow:visible;"/>
	<clipPath id="SVGID_2_">
		<use xlink:href="#SVGID_1_"  style="overflow:visible;"/>
	</clipPath>
	<g class="st0">
		<path class="st1" d="M1650.2,15.7c-357.9,334.5-352.1,370.1,80.6,350.6c-447.3,100.8-467.8,146.7-135.8,226.3
			c-395.1,13-437.7,59.8-94.9,588.6c-445.9-443.7-500-410.8-605-8c2-358.4-46.9-347.1-259.5,120.3
			c129.9-468.6,96.1-481.1-362.6-144.6c416.4-387.9,410.5-423.4-74-385.9c499.1-118.9,519.5-164.8,178.2-240.1
			c404.4-17.3,447-64.1,164.5-511.7c385.7,362.5,439.8,329.6,531-58.2c11.7,343.5,60.6,332.1,269.8-88
			C1216.2,286.4,1249.9,298.9,1650.2,15.7z"/>
		<g>
			<path class="st2" d="M773.5,863.8c-12-27.8-52.1-38.4-76.2-20.1c2.3-15.6-15.4-27.8-31.1-26.9c-13,0.8-24.7,7.4-36.1,14
				l94.3,201.6l168.2-78.6c0-0.1-0.1-0.2-0.1-0.3c-11.4-25-23.3-50.7-43.2-69.7C829.2,864.7,799.1,853.7,773.5,863.8z"/>
			<path class="st2" d="M949.2,969c-0.4,0.5-0.7,1-1,1.5l237.8,65.7l73.6-266.2c-27.2-8.2-57.3-2.3-85.4,3.8
				c-5,9.3-10.1,18.5-15.1,27.8c-3.3,6.1-6.8,12.4-12.2,16.7s-13.5,6.1-19.4,2.5c-1,8.5-2.2,17.5-7.3,24.4
				c-5.1,6.9-15.5,10.8-22.5,5.9c-5.2-3.6-7.1-10.7-12.2-14.4c-4.6-3.4-11.5-3.3-16,0.3c-4.5,3.6-6.1,10.3-3.8,15.5
				c-7.4-2-14.8-4.1-22.2-6.1c0.1,3.8,0.1,7.5,0.2,11.3c-2.7-0.6-5.4-1.1-8.1-1.7c1.6,7.7-4.9,15.1-12.3,17.6
				c-7.4,2.5-15.5,1.6-23.3,1.4c-7.8-0.3-16.3,0.4-22.3,5.4c-5.8,4.7-8.2,12.4-9.8,19.6c-5,22.2-5.6,45.3-1.9,67.7
				C961.5,963.5,953.1,964,949.2,969z"/>
			<path class="st2" d="M1026.5,737.7c-22.9-27.5-45.8-54.9-68.7-82.4c-18.7-22.4-38.2-46.7-41.2-75.8c-22.4-5.7-34.7-30-38.6-52.8
				c-3.9-22.8-2.2-46.6-9.9-68.4c-14.5-40.7-56.8-63-93.3-86.2c-26.5-16.9-53.4-40.5-63.8-68.6v443.8c13.2-1.1,26.5-2.2,38.6,2.7
				c14.6,5.8,25.5,24.5,16.8,37.6c29.6-6.3,61.5,20.3,60.6,50.5c27.5,1.6,50.1,24.3,60,50c10,25.6,9.9,53.9,9.6,81.5
				c0,0.1,0,0.2,0,0.3h40c0.1-0.6,0.3-1.2,0.5-1.7c2.4-5.8,10.3-8.6,15.9-5.6c-9.6-20.6-15.1-43.1-16.2-65.8
				c-0.4-7.4-0.1-15.4,4.2-21.5c4.5-6.4,12.5-9.3,20.1-11.1c7.6-1.8,15.6-3.1,22.1-7.5c6.5-4.4,10.8-13.3,7.2-20.3
				c2.8-0.2,5.5-0.4,8.3-0.5c-1.1-3.6-2.2-7.2-3.2-10.8c7.7,0,15.3,0,23,0c-3.6-4.4-3.9-11.3-0.5-16c3.3-4.7,10-6.6,15.3-4.6
				c5.9,2.3,9.6,8.6,15.6,10.6c8.1,2.8,17.1-3.6,20.2-11.7c1.5-3.9,2-8.1,1.9-12.3C1056.1,773.2,1041.3,755.5,1026.5,737.7z"/>
			<path class="st2" d="M1089.7,313.8c-16.2,12.2-32.5,24.5-48.7,36.7c-15.4,11.6-31,23.3-48.8,30.6c-14.5,6-30.9,9.3-43.6,17.9
				c15.3,10.6,28.4,23.3,36.7,40.1c10.2,20.7,11.3,44.6,17.8,66.7c6.5,22.2,21.6,44.9,44.5,47.9c6.4,28.5,28.6,50.4,49.8,70.5
				c26,24.6,51.9,49.2,77.9,73.8c16.8,15.9,33.5,31.8,50.3,47.7c-0.6-4.4-1.7-8.7-2.9-12.9c6.8,1.1,13.6-3.6,17-9.7
				c3.4-6,4.3-13.1,5-20c1.2-10.5,2.3-21,3.5-31.4c23.8-16.2,49.4-33.1,77.7-35.7l-45.7-388.1l-127,14.9
				C1133.1,281.1,1111.4,297.5,1089.7,313.8z"/>
			<path class="st2" d="M903.4,308c16.2-10.5,29.4-24.8,42.4-39.1c13.7-15,27.4-30,41.1-45c18.3-20,36.7-40.2,53-61.8L711,264.3
				l0.2,0.7c18.2,23.8,51,38.4,81.3,46.6c23.6,6.4,49,12,71.2,21.9C874.7,322.7,890.2,316.5,903.4,308z"/>
			<g>
				<polygon class="st1" points="-233.1,-975.1 -250.4,-961.4 923.9,675.2 1070.8,538 				"/>
				<polygon class="st3" points="-237.7,-971.5 -245.8,-965.1 967.6,640.6 1043.8,580.5 				"/>
			</g>
			<path class="st3" d="M1252.7,380.8c-141.6,132.4-139.3,146.4,31.9,138.7c-177,39.9-185.1,58.1-53.7,89.6
				c-156.3,5.2-173.2,23.7-37.6,232.9c-176.5-175.6-197.8-162.5-239.4-3.2c0.8-141.8-18.6-137.3-102.7,47.6
				c51.4-185.4,38-190.4-143.5-57.2c164.8-153.5,162.4-167.5-29.3-152.7c197.5-47,205.6-65.2,70.5-95c160-6.8,176.9-25.4,65.1-202.5
				c152.6,143.5,174,130.4,210.1-23c4.6,135.9,24,131.4,106.8-34.8C1081,487.9,1094.3,492.8,1252.7,380.8z"/>
		</g>
	</g>
</g>
</svg>
