<?xml version="1.0" encoding="utf-8"?>
<!-- Generator: Adobe Illustrator 24.0.0, SVG Export Plug-In . SVG Version: 6.00 Build 0)  -->
<svg version="1.1" id="Layer_1" xmlns="http://www.w3.org/2000/svg" xmlns:xlink="http://www.w3.org/1999/xlink" x="0px" y="0px"
	 viewBox="0 0 1125 2436" style="enable-background:new 0 0 1125 2436;" xml:space="preserve">
<style type="text/css">
	.st0{clip-path:url(#SVGID_2_);}
	.st1{stroke:#FFFFFF;stroke-width:1.2561;stroke-miterlimit:10;}
	.st2{fill:#F1F2F2;}
	.st3{fill:#FFFFFF;}
	.st4{stroke:#D1D3D4;stroke-width:1.2561;stroke-miterlimit:10;}
	.st5{fill:#FFFFFF;stroke:#FFFFFF;stroke-width:1.2561;stroke-miterlimit:10;}
	.st6{fill:#231F20;}
	.st7{fill:#FFFFFF;stroke:#231F20;stroke-width:0.2015;stroke-linecap:round;stroke-linejoin:round;stroke-miterlimit:10;}
	.st8{fill:#FFFFFF;stroke:#231F20;stroke-width:0.1008;stroke-linecap:round;stroke-linejoin:round;stroke-miterlimit:10;}
	.st9{fill:none;stroke:#231F20;stroke-width:0.1008;stroke-linecap:round;stroke-linejoin:round;stroke-miterlimit:10;}
	.st10{fill:none;stroke:#231F20;stroke-width:0.2687;stroke-linecap:round;stroke-linejoin:round;stroke-miterlimit:10;}
	.st11{fill:none;stroke:#231F20;stroke-width:0.2015;stroke-linecap:round;stroke-linejoin:round;stroke-miterlimit:10;}
	.st12{fill:none;stroke:#231F20;stroke-width:0.1343;stroke-linecap:round;stroke-linejoin:round;stroke-miterlimit:10;}
	.st13{fill:none;stroke:#231F20;stroke-width:0.3023;stroke-linecap:round;stroke-linejoin:round;stroke-miterlimit:10;}
	.st14{fill:none;stroke:#231F20;stroke-width:6.717306e-02;stroke-linecap:round;stroke-linejoin:round;stroke-miterlimit:10;}
	.st15{clip-path:url(#SVGID_4_);}
	.st16{fill:none;stroke:#231F20;stroke-width:4.097452e-02;stroke-linecap:round;stroke-linejoin:round;stroke-miterlimit:10;}
	
		.st17{clip-path:url(#SVGID_4_);fill:#FFFFFF;stroke:#231F20;stroke-width:8.194903e-02;stroke-linecap:round;stroke-linejoin:round;stroke-miterlimit:10;}
	.st18{fill:#FFFFFF;stroke:#231F20;stroke-width:8.194903e-02;stroke-linecap:round;stroke-linejoin:round;stroke-miterlimit:10;}
	.st19{fill:#F4DAD7;}
	.st20{fill:#EFC9C8;}
	.st21{fill:none;stroke:#231F20;stroke-width:0.1639;stroke-linecap:round;stroke-linejoin:round;stroke-miterlimit:10;}
	.st22{fill:none;stroke:#231F20;stroke-width:0.1093;stroke-linecap:round;stroke-linejoin:round;stroke-miterlimit:10;}
	.st23{fill:#FFFFFF;stroke:#231F20;stroke-width:0.2732;stroke-linecap:round;stroke-linejoin:round;stroke-miterlimit:10;}
	.st24{fill:#FFFFFF;stroke:#231F20;stroke-width:0.2458;stroke-linecap:round;stroke-linejoin:round;stroke-miterlimit:10;}
	.st25{fill:#FFFFFF;stroke:#231F20;stroke-width:0.1635;stroke-linecap:round;stroke-linejoin:round;stroke-miterlimit:10;}
	.st26{clip-path:url(#SVGID_6_);}
	.st27{fill:#FFFFFF;stroke:#231F20;stroke-width:8.174302e-02;stroke-linecap:round;stroke-linejoin:round;stroke-miterlimit:10;}
	.st28{fill:#FFFFFF;stroke:#231F20;stroke-width:0.327;stroke-linecap:round;stroke-linejoin:round;stroke-miterlimit:10;}
	.st29{fill:#FFFFFF;stroke:#231F20;stroke-width:0.2725;stroke-linecap:round;stroke-linejoin:round;stroke-miterlimit:10;}
	.st30{fill:#FFFFFF;stroke:#231F20;stroke-width:0.218;stroke-linecap:round;stroke-linejoin:round;stroke-miterlimit:10;}
</style>
<g>
	<defs>
		<rect id="SVGID_1_" x="-0.3" y="5.5" width="1124.4" height="2426.6"/>
	</defs>
	<clipPath id="SVGID_2_">
		<use xlink:href="#SVGID_1_"  style="overflow:visible;"/>
	</clipPath>
	<g class="st0">
		<rect x="-2289" y="-1423.7" class="st1" width="6120.5" height="5102.8"/>
		<polygon class="st2" points="3831.5,2895.8 -1898.9,-1423.7 3831.5,-1423.7 		"/>
		<g>
			<g>
				<g>
					<g>
						<path class="st3" d="M2784.1,2077.5c0-43.5-535.2-43.5-535.2,0c0,1.5,0,16.1,0,17.6c0,43.5,119.8,78.8,267.6,78.8
							c147.8,0,267.6-35.3,267.6-78.8C2784.1,2093.6,2784.1,2079,2784.1,2077.5z"/>
						<path class="st4" d="M2728.3,2030.1c-113.8-43.3-184.9-121.4-185.5-206.2c0-0.9,0-1.8,0-2.8c0-18.4,0-478.1,0-525.6
							c0-140,85.3-192.4,145.2-231.7l-171.5-12.7c0-1,0-1.5,0-1.5l-10.2,0.8l-10.2-0.8c0,0,0,0.6,0,1.5l-171.5,12.7
							c59.8,39.3,145.2,91.7,145.2,231.7c0,47.5,0,507.2,0,525.6c0,28.4-3.5,53.1-9.6,74.9c-15.5,55.5-68.9,104.4-146.5,130.9
							c-40.3,13.8-64.7,31.7-64.7,51.4c0,43.5,119.8,78.8,267.6,78.8c147.8,0,267.6-35.3,267.6-78.8
							C2784.1,2060.1,2763.3,2043.4,2728.3,2030.1z"/>
						<path class="st3" d="M2610.5,1992.5c-28.9-43.3-77.7-83.8-77.9-168.7c0-0.9,0-1.8,0-2.8c0-18.4,0-478.1,0-525.6
							c0-140,21.7-192.4,36.9-231.7L2526,1051c0-1,0-1.5,0-1.5l-2.6,0.8l-2.6-0.8c0,0,0,0.6,0,1.5l-43.5,12.7
							c15.2,39.3,36.9,91.7,36.9,231.7c0,47.5,0,372.4,0,390.8c0,28.4-3.8,92.2-2.4,114c4.8,75.9,21.7,115.1,53.6,166.3
							c9.1,14.6,39.7,84.1,48,101.9c28.3,60.3,70,71.4,125.4,40.9c32.9-18.1-18-52.7-49.9-64.5
							C2671.9,2038.5,2619.4,2005.8,2610.5,1992.5z"/>
					</g>
					<g>
						<path class="st3" d="M898.6,2077.5c0-43.5-535.2-43.5-535.2,0c0,1.5,0,16.1,0,17.6c0,43.5,119.8,78.8,267.6,78.8
							c147.8,0,267.6-35.3,267.6-78.8C898.6,2093.6,898.6,2079,898.6,2077.5z"/>
						<path class="st4" d="M842.8,2030.1c-113.8-43.3-184.9-121.4-185.5-206.2c0-0.9,0-1.8,0-2.8c0-18.4,0-478.1,0-525.6
							c0-140,85.3-192.4,145.2-231.7L631,1051c0-1,0-1.5,0-1.5l-10.2,0.8l-10.2-0.8c0,0,0,0.6,0,1.5L439,1063.7
							c59.8,39.3,145.2,91.7,145.2,231.7c0,47.5,0,507.2,0,525.6c0,28.4-3.5,53.1-9.6,74.9c-15.5,55.5-68.9,104.4-146.5,130.9
							c-40.3,13.8-64.7,31.7-64.7,51.4c0,43.5,119.8,78.8,267.6,78.8c147.8,0,267.6-35.3,267.6-78.8
							C898.6,2060.1,877.8,2043.4,842.8,2030.1z"/>
						<path class="st3" d="M725,1992.5c-28.9-43.3-77.7-83.8-77.9-168.7c0-0.9,0-1.8,0-2.8c0-18.4,0-478.1,0-525.6
							c0-140,21.7-192.4,36.9-231.7l-43.5-12.7c0-1,0-1.5,0-1.5l-2.6,0.8l-2.6-0.8c0,0,0,0.6,0,1.5l-43.5,12.7
							c15.2,39.3,36.9,91.7,36.9,231.7c0,47.5,0,372.4,0,390.8c0,28.4-3.8,92.2-2.4,114c4.8,75.9,21.7,115.1,53.6,166.3
							c9.1,14.6,39.7,84.1,48,101.9c28.3,60.3,70,71.4,125.4,40.9c32.9-18.1-18-52.7-49.9-64.5
							C786.4,2038.5,733.9,2005.8,725,1992.5z"/>
					</g>
				</g>
				<g>
					<path class="st3" d="M3049.3,1062.9c0-58.1-2951.1-58.1-2951.1,0c0,6.7,0,29,0,34.6c0,61,517.1,77.5,644.4,59.4
						c122.8-17.5,298.9-41.1,831.2-42.8c532.3,1.7,708.4,25.3,831.2,42.8c127.3,18.1,644.4,1.6,644.4-59.4
						C3049.3,1092,3049.3,1069.6,3049.3,1062.9z"/>
					<path class="st4" d="M3049.3,1067.3c0,67.1-517.1,85.3-644.4,65.3c-122.8-19.3-298.9-45.3-831.2-47.1
						c-532.3,1.8-708.4,27.8-831.2,47.1c-127.3,20-644.4,1.8-644.4-65.3c0-63.9,626.6-103.2,1415.5-106.8v-0.3c20.1,0,40.1,0,60,0.1
						c19.9,0,39.9-0.1,60-0.1v0.3C2422.7,964.1,3049.3,1003.4,3049.3,1067.3z"/>
				</g>
			</g>
			<g>
				<ellipse class="st5" cx="1142.7" cy="1041.9" rx="152.8" ry="22.4"/>
				<path class="st1" d="M1153.8,942.5V670.3h-22.1v272.2c0,37.8-28.9,69.4-66.6,72.7c-45,3.9-75.2,11.1-75.2,19.3
					c0,12.4,68.4,22.4,152.8,22.4c84.4,0,152.8-10,152.8-22.4c0-8.2-30.2-15.4-75.2-19.3C1182.7,1011.9,1153.8,980.3,1153.8,942.5z"
					/>
				<circle class="st1" cx="1142.7" cy="667.9" r="19.6"/>
				<rect x="727.8" y="394.2" class="st1" width="829.8" height="533.1"/>
			</g>
			<g>
				<polygon class="st3" points="452.3,1100.6 489.2,1026.4 615,1026.4 651.8,1100.6 				"/>
				<path class="st6" d="M614.8,1026.7l36.6,73.6H452.8l36.6-73.6H614.8 M615.2,1026.2H489l-37.1,74.7h200.5L615.2,1026.2
					L615.2,1026.2z"/>
			</g>
			<g>
				<polygon class="st3" points="364.4,1090.2 422.2,999.4 584.8,1016.7 622.3,1117.6 				"/>
				<path class="st6" d="M422.4,999.8l162.2,17.2l37.1,100.1L365,1089.9L422.4,999.8 M422,999l-58.3,91.5l259.1,27.5l-37.7-101.7
					L422,999L422,999z"/>
			</g>
			<g>
				<polygon class="st3" points="667.6,1091.4 628.3,998.2 790.8,998.3 871.2,1091.4 				"/>
				<path class="st6" d="M628.9,998.6l161.7,0l79.8,92.4l-202.5,0L628.9,998.6 M627.7,997.9l39.6,93.9l204.7,0l-81-93.9L627.7,997.9
					L627.7,997.9z"/>
			</g>
			<g>
				<polygon class="st3" points="2759.8,1102.8 2720.5,1009.6 2883,1009.7 2963.4,1102.8 				"/>
				<path class="st6" d="M2721.1,1010l161.7,0l79.8,92.4l-202.5,0L2721.1,1010 M2720,1009.3l39.6,93.9l204.7,0l-81-93.9L2720,1009.3
					L2720,1009.3z"/>
			</g>
			<g>
				<polygon class="st3" points="2470.3,1087 2431,993.8 2593.5,993.9 2673.9,1087 				"/>
				<path class="st6" d="M2431.6,994.2l161.7,0l79.8,92.4l-202.5,0L2431.6,994.2 M2430.5,993.5l39.6,93.9l204.7,0l-81-93.9
					L2430.5,993.5L2430.5,993.5z"/>
			</g>
			<g>
				<polygon class="st3" points="2547.6,1148 2508.3,1054.9 2670.8,1054.9 2751.2,1148.1 				"/>
				<path class="st6" d="M2508.9,1055.2l161.7,0l79.8,92.4l-202.5,0L2508.9,1055.2 M2507.8,1054.5l39.6,93.9l204.7,0l-81-93.9
					L2507.8,1054.5L2507.8,1054.5z"/>
			</g>
			<g>
				<polygon class="st3" points="2257.2,1111.5 2217.9,1018.3 2380.4,1018.3 2460.8,1111.5 				"/>
				<path class="st6" d="M2218.5,1018.7l161.7,0l79.8,92.4l-202.5,0L2218.5,1018.7 M2217.3,1017.9l39.6,93.9l204.7,0l-81-93.9
					L2217.3,1017.9L2217.3,1017.9z"/>
			</g>
			<g>
				<polygon class="st3" points="288.9,1113.1 249.6,1019.9 412.1,1020 492.5,1113.1 				"/>
				<path class="st6" d="M250.2,1020.3l161.7,0l79.8,92.4l-202.5,0L250.2,1020.3 M249,1019.6l39.6,93.9l204.7,0l-81-93.9L249,1019.6
					L249,1019.6z"/>
			</g>
			<g>
				<polygon class="st3" points="464.4,1095.1 549.1,999.6 712.7,999.6 669.5,1095.1 				"/>
				<path class="st6" d="M549.2,1000l162.9,0l-42.9,94.8l-204,0L549.2,1000 M548.9,999.2l-85.4,96.3l206.2,0l43.6-96.3L548.9,999.2
					L548.9,999.2z"/>
			</g>
			<g>
				<polygon class="st3" points="2319.1,1104 2403.8,1008.5 2567.5,1008.5 2524.2,1104 				"/>
				<path class="st6" d="M2404,1008.8l162.9,0l-42.9,94.8l-204,0L2404,1008.8 M2403.6,1008.1l-85.4,96.3l206.2,0l43.6-96.3
					L2403.6,1008.1L2403.6,1008.1z"/>
			</g>
			<g>
				<g>
					<polygon class="st3" points="541.6,1136.8 592.1,1023.2 706.2,1023.2 729.3,1136.8 					"/>
					<path class="st6" d="M705.9,1023.6l22.9,112.8H542.2l50.2-112.8H705.9 M706.5,1022.8H591.9L541,1137.1h188.7L706.5,1022.8
						L706.5,1022.8z"/>
				</g>
				<g>
					<path class="st7" d="M603.6,1050.9l6.4-19.7c0.1-0.3,0.8-0.6,1.5-0.6H674c0.7,0,1.3,0.3,1.3,0.6l0.5,19.7
						c0,0.4-0.6,0.7-1.4,0.7h-69.6C604,1051.6,603.4,1051.3,603.6,1050.9z"/>
					<path class="st8" d="M618.8,1043.1c-3.1,0-5.2-1-5.2-2.4l0.1-2.9c0-0.7,0.6-1.4,1.8-1.9c1.4-0.7,3.5-1.1,5.5-1.1
						c2,0,3.9,0.4,5,1.1c0.9,0.6,1.2,1.2,0.7,1.9l-1.4,2.9C624.5,1042.2,621.8,1043.1,618.8,1043.1"/>
					<path class="st8" d="M618.8,1043.1c-3.1,0-5.2-1-5.2-2.4l0.1-2.9c0-0.7,0.6-1.4,1.8-1.9c1.4-0.7,3.5-1.1,5.5-1.1
						c2,0,3.9,0.4,5,1.1c0.9,0.6,1.2,1.2,0.7,1.9l-1.4,2.9C624.5,1042.2,621.8,1043.1,618.8,1043.1"/>
					<path class="st8" d="M625.5,1044.3c-1.4,0-3.3,0.2-4.5,0.3c-0.2,0-0.5,0.1-0.7,0.1c-0.7,0.1-1.5,0.2-1.9,0.2
						c-0.5,0-0.9-0.1-1.4-0.1c-0.1,0-0.2,0-0.3,0c-0.6-0.1-1.3-0.2-2-0.2c-0.2,0-0.4,0-0.5,0c-0.9-0.1-1.8-0.2-2.6-0.2
						c-1.2,0-2.4,0.1-3.4,0.2l-0.4,1.3c-0.1,0.4,0.4,0.7,1.1,0.7H627c0.7,0,1.4-0.3,1.5-0.7l0.3-1.3
						C627.8,1044.4,626.7,1044.3,625.5,1044.3z"/>
					<path class="st8" d="M657,1039.2c-1.8,0-3.2-0.6-3.4-1.4l-0.3-1.7c-0.1-0.4,0.2-0.8,0.8-1.2c0.8-0.4,2-0.7,3.2-0.7
						c1.2,0,2.4,0.2,3.1,0.7c0.6,0.3,0.8,0.7,0.7,1.2l-0.5,1.7C660.3,1038.6,658.8,1039.2,657,1039.2"/>
					<path class="st8" d="M657,1039.2c-1.8,0-3.2-0.6-3.4-1.4l-0.3-1.7c-0.1-0.4,0.2-0.8,0.8-1.2c0.8-0.4,2-0.7,3.2-0.7
						c1.2,0,2.4,0.2,3.1,0.7c0.6,0.3,0.8,0.7,0.7,1.2l-0.5,1.7C660.3,1038.6,658.8,1039.2,657,1039.2"/>
					<path class="st8" d="M661.1,1039.9c-0.8,0-1.9,0.1-2.6,0.2c-0.1,0-0.3,0-0.4,0.1c-0.4,0.1-0.8,0.1-1.1,0.1
						c-0.3,0-0.6,0-0.8-0.1c-0.1,0-0.1,0-0.2,0c-0.4,0-0.8-0.1-1.2-0.1c-0.1,0-0.2,0-0.3,0c-0.5,0-1.1-0.1-1.6-0.1
						c-0.7,0-1.4,0.1-2,0.1l-0.1,0.5c0,0.3,0.5,0.6,1.3,0.6h9.7c0.7,0,1.3-0.3,1.3-0.6l0-0.5
						C662.5,1039.9,661.8,1039.9,661.1,1039.9z"/>
					<line class="st9" x1="625.1" y1="1031.7" x2="628.2" y2="1031.7"/>
					<line class="st10" x1="612.6" y1="1032" x2="623.8" y2="1032"/>
					<line class="st9" x1="625" y1="1032.2" x2="628.1" y2="1032.2"/>
					<line class="st11" x1="613.5" y1="1032.9" x2="619.5" y2="1032.9"/>
					<line class="st12" x1="632" y1="1033.6" x2="633.6" y2="1033.6"/>
					<line class="st12" x1="631.9" y1="1034.1" x2="634.6" y2="1034.1"/>
					<line class="st11" x1="635.5" y1="1033.8" x2="636.3" y2="1033.8"/>
					<line class="st11" x1="631.7" y1="1035.4" x2="644.5" y2="1035.4"/>
					<line class="st11" x1="631.4" y1="1036.8" x2="638.4" y2="1036.8"/>
					<line class="st11" x1="631.1" y1="1038.1" x2="639" y2="1038.1"/>
					<line class="st11" x1="630.8" y1="1039.5" x2="640.8" y2="1039.5"/>
					<line class="st11" x1="630.5" y1="1041.1" x2="632" y2="1041.1"/>
					<line class="st11" x1="630.2" y1="1042.6" x2="640.4" y2="1042.6"/>
					<line class="st11" x1="652.2" y1="1042.6" x2="662.3" y2="1042.6"/>
					<line class="st11" x1="639.1" y1="1041.1" x2="653.6" y2="1041.1"/>
					<line class="st11" x1="632.1" y1="1033.1" x2="632.9" y2="1033.1"/>
					<line class="st11" x1="631.8" y1="1034.7" x2="635.6" y2="1034.7"/>
					<line class="st11" x1="631.5" y1="1036.1" x2="635.3" y2="1036.1"/>
					<line class="st11" x1="631.2" y1="1037.4" x2="637" y2="1037.4"/>
					<line class="st11" x1="631" y1="1038.9" x2="641.2" y2="1038.9"/>
					<line class="st11" x1="630.7" y1="1040.2" x2="632.7" y2="1040.2"/>
					<line class="st11" x1="640" y1="1040.2" x2="649.3" y2="1040.2"/>
					<line class="st11" x1="630.4" y1="1041.8" x2="640.7" y2="1041.8"/>
					<line class="st11" x1="652.2" y1="1041.8" x2="661.8" y2="1041.8"/>
					<line class="st11" x1="630" y1="1043.4" x2="636.9" y2="1043.4"/>
					<line class="st11" x1="652.1" y1="1043.4" x2="656.5" y2="1043.4"/>
					<line class="st11" x1="638.3" y1="1033.1" x2="651.6" y2="1033.1"/>
					<line class="st11" x1="655.8" y1="1033.1" x2="661.9" y2="1033.1"/>
					<line class="st11" x1="646.4" y1="1033.8" x2="649" y2="1033.8"/>
					<line class="st11" x1="661.8" y1="1033.8" x2="670.3" y2="1033.8"/>
					<line class="st13" x1="608.8" y1="1048.3" x2="672.5" y2="1048.3"/>
					<line class="st13" x1="608.2" y1="1050.2" x2="672.5" y2="1050.2"/>
					<line class="st12" x1="636.5" y1="1034.8" x2="641" y2="1034.8"/>
					<line class="st12" x1="636.3" y1="1036.1" x2="643.4" y2="1036.1"/>
					<line class="st12" x1="638.2" y1="1037.5" x2="644.3" y2="1037.5"/>
					<line class="st12" x1="633.4" y1="1040.2" x2="636.2" y2="1040.2"/>
					<line class="st12" x1="642.2" y1="1038.8" x2="651.4" y2="1038.8"/>
					<line class="st12" x1="650.2" y1="1040.3" x2="658.5" y2="1040.3"/>
					<line class="st12" x1="641.8" y1="1041.9" x2="650.8" y2="1041.9"/>
					<line class="st12" x1="638.3" y1="1043.4" x2="650.3" y2="1043.4"/>
					<line class="st12" x1="657.8" y1="1043.4" x2="662.8" y2="1043.4"/>
					<line class="st11" x1="652.3" y1="1046" x2="657.4" y2="1046"/>
					<line class="st12" x1="663" y1="1041.9" x2="672.4" y2="1041.9"/>
					<line class="st12" x1="653" y1="1038.8" x2="664" y2="1038.8"/>
					<line class="st12" x1="652.2" y1="1037.4" x2="666.9" y2="1037.4"/>
					<line class="st12" x1="638" y1="1034.1" x2="645.2" y2="1034.1"/>
					<line class="st12" x1="655.7" y1="1034.1" x2="661" y2="1034.1"/>
					<line class="st12" x1="637.4" y1="1033.6" x2="643.7" y2="1033.6"/>
					<line class="st12" x1="655.8" y1="1033.6" x2="659.6" y2="1033.6"/>
					<path class="st14" d="M658.6,1043.8c-0.4,0.3-0.9,0.6-1.6,0.8c-0.4,0.1-0.7,0.2-1,0.4c0.8-0.2,0.9-0.6,1.5-0.9
						c-0.1,0.2-0.5,0.4-1.1,0.5c-0.1,0-0.3,0.1-0.4,0c-0.1,0-0.1,0-0.2-0.1c-0.2-0.1-0.4-0.2-0.6-0.3c0.6,0.1,1.2,0.2,1.9,0.1
						c-0.3,0-0.5-0.1-0.7-0.1c0.2,0,0.3-0.1,0.5-0.1c0.2,0,0.4,0,0.6,0c-0.1,0.1-0.3,0.3-0.6,0.4c0.4-0.2,0.8-0.3,1.2-0.4
						c-0.2,0.1-0.5,0.2-0.7,0.3c0.2-0.1,0.4-0.2,0.6-0.2c-0.3,0.1-0.4,0.1-0.5,0.2c3.2-0.3,6.5-0.4,9.8-0.6"/>
					<g>
						<path class="st14" d="M629.6,1045.5c0.6-0.3,1.3-0.6,2.1-0.7c0.1,0.1,0.1,0.1,0,0.2c-0.2,0.3-0.5,0.5-0.9,0.8
							c0.1,0,0.2-0.1,0.3-0.1c-0.4,0.1-0.9,0.1-1.3,0c0.5-0.1,1,0,1.6,0c0.5,0,0.9-0.1,1.4-0.2c0.2,0,0.3-0.1,0.4-0.1s0.1-0.2,0-0.2
							c-0.1,0.1-0.2,0.3-0.2,0.4c0.2-0.1,0.3-0.2,0.4-0.3c-0.1,0.1-0.1,0.2-0.2,0.3c0.2-0.1,0.3-0.1,0.5-0.2c0,0.1,0,0.1,0.1,0.2
							c0.2-0.1,0.4-0.2,0.5-0.3c0,0,0,0.1,0,0.1c0.1,0,0.2-0.1,0.2-0.2c0.3-0.3,0.5-0.7,0.8-1c-0.4,0.5-0.7,1-1,1.6
							c0.1-0.1,0.2-0.2,0.3-0.3c0.2-0.1,0.4-0.2,0.6-0.2c0.1,0,0.2-0.1,0.3-0.1c0,0.1-0.1,0.1-0.1,0.2c0.3-0.2,1-0.2,1.3-0.4
							c0,0.1-0.1,0.2-0.1,0.2c0.1-0.1,0.3-0.1,0.5-0.1c0,0,0,0.1,0.1,0.1c0.3,0,0.5-0.1,0.7-0.2c0.2-0.1,0.3-0.2,0.5-0.3
							c0.3-0.3,0.7-0.6,0.7-0.9c-0.2,0.1-0.3,0.3-0.4,0.4c-0.2,0.4-0.5,0.8-0.8,1.2c0-0.1,0.1-0.3,0.2-0.4c0,0-0.1,0-0.1,0.1
							c0.3-0.1,0.6-0.1,1-0.1c-0.1,0.1-0.2,0.2-0.4,0.2c0.5-0.3,1.1-0.5,1.6-0.8c0,0.1-0.3,0.3-0.2,0.4c0.1,0,0.2,0.1,0.3,0.1
							c0.4,0,0.9,0.1,1.3,0.1c-0.8,0.1-1.6,0.1-2.3,0c0.1,0,0.2,0,0.3-0.1"/>
						<path class="st14" d="M633.6,1045.1c1.6-0.2,3.3-0.4,4.9-0.5c0.7-0.1,1.4-0.1,2.2-0.2c0.5,0,1.1,0,1.5,0.1
							c0.2,0,0.4,0.1,0.4,0.2c0,0-0.1,0.1-0.2,0.1c-0.4,0.2-0.9,0.2-1.5,0.3c-0.9,0.1-1.9,0.2-2.8,0.2c-2.3,0.2-4.7,0.5-7,0.5
							c0,0,0.1,0,0.1,0"/>
					</g>
					<g>
						<g>
							<path d="M626.2,1036.5c-2,0-3.4-0.8-3.2-1.7c0.2-0.9,2-1.6,4-1.6s3.4,0.7,3.2,1.6C630,1035.7,628.2,1036.5,626.2,1036.5z
								 M626.9,1033.4c-1.7,0-3.3,0.6-3.5,1.4c-0.2,0.8,1.1,1.5,2.8,1.5s3.3-0.7,3.5-1.5C629.9,1034,628.6,1033.4,626.9,1033.4z"/>
							<g>
								<path d="M629.2,1034.8c-0.1,0.7-1.4,1.2-2.9,1.2c-1.5,0-2.5-0.5-2.3-1.2c0.2-0.7,1.5-1.2,2.9-1.2
									C628.3,1033.6,629.3,1034.1,629.2,1034.8z"/>
							</g>
						</g>
					</g>
				</g>
			</g>
			<g>
				<g>
					<polygon class="st3" points="363.7,1037.4 508.4,1037.1 558,1094.3 315.3,1095.1 					"/>
					<path class="st6" d="M508.2,1037.5l48.9,56.4l-241.1,0.8l47.8-57L508.2,1037.5 M508.6,1036.7l-145.1,0.3l-49,58.5l244.3-0.8
						L508.6,1036.7L508.6,1036.7z"/>
				</g>
				<g>
					<g>
						<defs>
							<path id="SVGID_3_" d="M444.2,1075.7l-44.3,0.1c-2.3,0-3.9-0.9-3.5-2l8.6-27c0.2-0.7,1.8-1.2,3.5-1.2l33.5-0.1
								c1.7,0,3.2,0.5,3.3,1.2l2.9,27C448.3,1074.8,446.5,1075.7,444.2,1075.7z"/>
						</defs>
						<use xlink:href="#SVGID_3_"  style="overflow:visible;fill:#FFFFFF;"/>
						<clipPath id="SVGID_4_">
							<use xlink:href="#SVGID_3_"  style="overflow:visible;"/>
						</clipPath>
						<g class="st15">
							<polyline class="st16" points="406.5,1074.3 406,1074.3 405.7,1075.3 407.6,1075.3 407.9,1073.9 409.8,1073.9 409.5,1074.9 
								409,1074.9 							"/>
							<polyline class="st16" points="403.8,1074.3 403.4,1074.3 403.1,1075.3 404.9,1075.3 405.3,1073.9 407.1,1073.9 
								406.9,1074.9 406.4,1074.9 							"/>
							<polyline class="st16" points="409.1,1074.3 408.6,1074.3 408.4,1075.3 410.3,1075.3 410.6,1073.9 412.4,1073.9 
								412.2,1074.9 411.7,1074.9 							"/>
							<polyline class="st16" points="414.4,1074.2 413.9,1074.2 413.7,1075.3 415.6,1075.3 415.8,1073.9 417.7,1073.9 
								417.5,1074.9 417,1074.9 							"/>
							<polyline class="st16" points="411.7,1074.2 411.3,1074.3 411.1,1075.3 412.9,1075.3 413.2,1073.9 415,1073.9 414.8,1074.9 
								414.3,1074.9 							"/>
							<polyline class="st16" points="417,1074.2 416.5,1074.2 416.4,1075.3 418.2,1075.3 418.4,1073.8 420.3,1073.8 420.2,1074.9 
								419.6,1074.9 							"/>
							<polyline class="st16" points="419.6,1074.2 419.2,1074.2 419,1075.3 420.9,1075.3 421.1,1073.8 422.9,1073.8 422.8,1074.9 
								422.3,1074.9 							"/>
							<polyline class="st16" points="422.3,1074.2 421.8,1074.2 421.7,1075.3 423.6,1075.3 423.7,1073.8 425.5,1073.8 
								425.5,1074.9 424.9,1074.9 							"/>
							<polyline class="st16" points="427.5,1074.2 427.1,1074.2 427,1075.3 428.9,1075.3 429,1073.8 430.8,1073.8 430.8,1074.9 
								430.2,1074.9 							"/>
							<polyline class="st16" points="424.9,1074.2 424.5,1074.2 424.4,1075.3 426.2,1075.3 426.3,1073.8 428.2,1073.8 
								428.1,1074.9 427.6,1074.9 							"/>
							<polyline class="st16" points="430.2,1074.2 429.7,1074.2 429.7,1075.3 431.5,1075.2 431.6,1073.8 433.4,1073.8 
								433.4,1074.9 432.9,1074.9 							"/>
							<polyline class="st16" points="435.5,1074.2 435,1074.2 435,1075.2 436.9,1075.2 436.8,1073.8 438.7,1073.8 438.7,1074.8 
								438.2,1074.8 							"/>
							<polyline class="st16" points="432.8,1074.2 432.4,1074.2 432.3,1075.2 434.2,1075.2 434.2,1073.8 436,1073.8 436.1,1074.8 
								435.5,1074.9 							"/>
							<polyline class="st16" points="438.1,1074.2 437.6,1074.2 437.7,1075.2 439.5,1075.2 439.5,1073.8 441.3,1073.8 
								441.3,1074.8 440.8,1074.8 							"/>
							<polyline class="st16" points="440.7,1074.2 440.3,1074.2 440.3,1075.2 442.2,1075.2 442.1,1073.8 443.9,1073.8 444,1074.8 
								443.5,1074.8 							"/>
							<polyline class="st16" points="443.4,1074.2 442.9,1074.2 443,1075.2 444.8,1075.2 444.7,1073.8 446.5,1073.8 446.6,1074.8 
								446.1,1074.8 							"/>
							<polyline class="st16" points="448.6,1074.1 448.2,1074.1 448.3,1075.2 450.1,1075.2 450,1073.8 451.8,1073.8 451.9,1074.8 
								451.4,1074.8 							"/>
							<polyline class="st16" points="446,1074.2 445.5,1074.2 445.6,1075.2 447.5,1075.2 447.3,1073.8 449.2,1073.8 449.3,1074.8 
								448.8,1074.8 							"/>
							<polyline class="st16" points="451.3,1074.1 450.8,1074.1 450.9,1075.2 452.8,1075.2 452.6,1073.8 454.4,1073.7 
								454.6,1074.8 454.1,1074.8 							"/>
						</g>
						<path class="st17" d="M396.7,1078.5c-8.1,0-10.6-9.7-6.4-19.8c3.6-8.5,10.8-14.5,16.7-14.5c5.9,0,9.6,5.9,8,14.4
							C413.2,1068.7,404.8,1078.4,396.7,1078.5z"/>
						
							<use xlink:href="#SVGID_3_"  style="overflow:visible;fill:none;stroke:#231F20;stroke-width:0.1639;stroke-linecap:round;stroke-linejoin:round;stroke-miterlimit:10;"/>
					</g>
					<g>
						<path class="st18" d="M418.7,1066l-0.7,5.1c-0.1,1,1.4,1.8,3.5,1.8l17.1,0c2.1,0,3.7-0.8,3.7-1.8l-0.3-5.1
							c-0.1-0.9-1.7-1.6-3.6-1.6l-15.9,0C420.5,1064.4,418.9,1065.1,418.7,1066z"/>
						<g>
							<path class="st18" d="M442,1065l0.4,7c0,0.4-0.7,0.8-1.6,0.8l-0.8,0c-1.7,0-3.2-1-3.2-2.3c0-0.2,0.1-0.5,0.2-0.8
								c0-0.1,0-0.1,0.1-0.2c0.1-0.2,0.2-0.4,0.3-0.6c0,0,0-0.1,0.1-0.1c0.1-0.1,0.2-0.3,0.2-0.4c0-0.1-0.1-0.3-0.2-0.5
								c0-0.1-0.1-0.1-0.1-0.2c-0.2-0.4-0.4-0.9-0.4-1.3c0-1.2,1.2-2.1,2.9-2.1l0.7,0C441.3,1064.4,441.9,1064.7,442,1065"/>
							<path class="st18" d="M435.3,1068.4c0,0.9-1.3,1.6-3.3,1.8l-4,0.2c-1,0.1-2-0.1-2.8-0.4c-0.9-0.4-1.5-1-1.4-1.6
								c0.1-0.6,0.7-1.2,1.7-1.6c0.8-0.3,1.8-0.4,2.7-0.4l3.9,0.2C434,1066.9,435.3,1067.6,435.3,1068.4"/>
						</g>
					</g>
					<g>
						<path class="st18" d="M422.4,1046.9l-0.2,1.6c0,0.3,0.5,0.5,1.2,0.5l6.4,0c0.7,0,1.2-0.2,1.2-0.5l0.1-1.6
							c0-0.2-0.5-0.4-1.2-0.4l-6.2,0C423,1046.4,422.5,1046.6,422.4,1046.9z"/>
						<g>
							<path class="st18" d="M431.1,1046.6l-0.1,2.1c0,0.1-0.3,0.2-0.6,0.2l-0.3,0c-0.6,0-1.1-0.3-1.1-0.7c0-0.1,0-0.2,0.1-0.2
								c0,0,0,0,0,0c0-0.1,0.1-0.1,0.1-0.2c0,0,0,0,0,0c0,0,0.1-0.1,0.1-0.1c0,0,0-0.1-0.1-0.2c0,0,0,0,0-0.1
								c-0.1-0.1-0.1-0.3-0.1-0.4c0-0.4,0.5-0.6,1.1-0.6l0.3,0C430.8,1046.4,431.1,1046.5,431.1,1046.6"/>
							<path class="st19" d="M428.5,1047.7c0,0.3-0.5,0.5-1.2,0.5l-1.5,0.1c-0.4,0-0.7,0-1-0.1c-0.3-0.1-0.5-0.3-0.5-0.5
								c0-0.2,0.3-0.4,0.6-0.5c0.3-0.1,0.7-0.1,1-0.1l1.4,0.1C428.1,1047.2,428.5,1047.4,428.5,1047.7"/>
							<path class="st20" d="M427,1048.1l-1.8,0.1c-0.1,0-0.2,0-0.3,0c0.3,0.1,0.6,0.1,0.9,0.1l1.5-0.1c0.7,0,1.2-0.3,1.2-0.5
								c0,0,0-0.1,0-0.1C428.3,1047.8,427.8,1048,427,1048.1"/>
							<path class="st18" d="M428.5,1047.7c0,0.3-0.5,0.5-1.2,0.5l-1.5,0.1c-0.4,0-0.7,0-1-0.1c-0.3-0.1-0.5-0.3-0.5-0.5
								c0-0.2,0.3-0.4,0.6-0.5c0.3-0.1,0.7-0.1,1-0.1l1.4,0.1C428.1,1047.2,428.5,1047.4,428.5,1047.7"/>
						</g>
					</g>
					<g>
						<line class="st21" x1="419.8" y1="1063.2" x2="420.2" y2="1060.4"/>
						<line class="st21" x1="417.4" y1="1063.2" x2="418" y2="1059.7"/>
						<line class="st21" x1="422.1" y1="1063.2" x2="422.5" y2="1059.7"/>
						<line class="st21" x1="424.5" y1="1063.2" x2="425.1" y2="1057.2"/>
						<line class="st21" x1="426.8" y1="1063.2" x2="427.1" y2="1059.7"/>
						<line class="st21" x1="429.2" y1="1063.2" x2="429.5" y2="1056.6"/>
						<line class="st21" x1="431.5" y1="1063.2" x2="431.7" y2="1057.7"/>
						<line class="st21" x1="433.9" y1="1063.2" x2="433.9" y2="1059.6"/>
						<line class="st21" x1="436.2" y1="1063.2" x2="436.1" y2="1050.6"/>
						<line class="st21" x1="438.6" y1="1063.2" x2="438.3" y2="1053.6"/>
						<line class="st21" x1="438" y1="1046.6" x2="438.2" y2="1052"/>
						<line class="st21" x1="440.9" y1="1063.2" x2="440.7" y2="1059.6"/>
						<line class="st21" x1="440.5" y1="1055.7" x2="440.4" y2="1053.4"/>
						<line class="st21" x1="443.3" y1="1063.2" x2="443" y2="1059.6"/>
						<line class="st21" x1="442.7" y1="1055.7" x2="442.5" y2="1053.4"/>
						<line class="st21" x1="440.3" y1="1050.8" x2="440.2" y2="1049.3"/>
						<line class="st21" x1="442.3" y1="1050.8" x2="442.2" y2="1049.3"/>
						<line class="st22" x1="416.8" y1="1049.8" x2="417.4" y2="1046.2"/>
						<line class="st22" x1="418.1" y1="1049.2" x2="418.5" y2="1046.8"/>
						<line class="st22" x1="419.2" y1="1048.6" x2="419.4" y2="1047.3"/>
					</g>
					<path d="M441.6,1046.6C441.5,1046.7,441.5,1046.7,441.6,1046.6c-0.1,0.1-0.1,0.1-0.1,0.1l0,0.1c0,0.1,0.2,0.1,0.3,0.1
						c0.2,0,0.4,0.1,0.4,0.2c0,0.1-0.3,0.2-0.6,0.2l-0.2,0c0,0-0.1,0-0.2,0c0,0-0.1,0-0.1,0c0,0-0.1,0-0.1,0c-0.1,0-0.1,0-0.2,0
						c0,0-0.3,0.1-0.4,0.1l-0.1,0c-0.1,0-0.1,0.1-0.1,0.1c0,0,0,0.1,0,0.1c0,0-0.4,0.2-0.4,0.2c-0.1,0-0.1,0.1,0,0.1l0,0l0.1,0
						c0,0,0,0,0,0c-0.1,0.1-0.3,0.3-0.3,0.3l0,0c-0.1,0.1,0.1,0.2,0.3,0.2c0.1,0,0.1,0,0.2,0c0,0,1.5-0.4,1.5-0.4c0,0,0.1,0,0.1-0.1
						c0,0-0.1-0.1-0.2-0.1c0,0-0.1,0-0.1,0c0,0-1.3,0.3-1.3,0.3c0,0,0,0,0,0c0,0,0,0,0.1,0c1.2-0.3,1.4-0.4,1.4-0.4c0,0,0,0,0,0
						c0.1,0,0.1,0,0.2,0l0.3,0c0.1,0,0.2,0,0.2-0.1c0,0,0.5-0.4,0.6-0.4c0.1,0,0.1-0.1,0.1-0.1c0,0,0-0.1-0.1-0.1
						c-0.1,0-0.3-0.2-0.4-0.3c0,0-0.1-0.1-0.1-0.1c0-0.1,0-0.1-0.2-0.2l-0.4-0.1C441.7,1046.6,441.6,1046.6,441.6,1046.6z"/>
					<g>
						<g>
							<path d="M408.3,1072.5c-0.3,1.1-2.4,2.1-4.8,2.1c-2.4,0-4.1-0.9-3.8-2.1c0.3-1.1,2.5-2,4.8-2
								C406.9,1070.4,408.6,1071.3,408.3,1072.5z M400.2,1072.5c-0.3,1,1.2,1.8,3.3,1.8c2.1,0,4-0.8,4.3-1.8c0.2-1-1.3-1.8-3.3-1.8
								C402.4,1070.7,400.5,1071.5,400.2,1072.5z"/>
							<g>
								<path d="M404.4,1071c1.7,0,3,0.6,2.8,1.5c-0.2,0.8-1.8,1.5-3.5,1.5c-1.8,0-3-0.7-2.8-1.5
									C401.1,1071.7,402.7,1071,404.4,1071z"/>
							</g>
						</g>
					</g>
					<line class="st23" x1="403.9" y1="1064.7" x2="408.9" y2="1046.5"/>
					<line class="st23" x1="407.5" y1="1064.7" x2="410.6" y2="1051.6"/>
					<line class="st24" x1="404.7" y1="1069.7" x2="405.6" y2="1066.1"/>
				</g>
			</g>
			<g>
				<g>
					<polygon class="st3" points="503.1,1040.4 581.9,1002.3 676.1,1078.4 590.1,1138.2 					"/>
					<path class="st6" d="M581.8,1002.7l93.6,75.7l-85.3,59.4l-86.5-97.2L581.8,1002.7 M581.9,1001.8l-79.4,38.5l87.6,98.4
						l86.6-60.3L581.9,1001.8L581.9,1001.8z"/>
				</g>
				<g>
					<g>
						<path class="st25" d="M571.5,1081.6l-18.6-19.2c-0.9-0.9-0.6-2.3,0.8-3l40.1-21.9c1.2-0.6,2.9-0.5,3.9,0.3l19.4,16.8
							c1.1,0.9,0.9,2.2-0.3,3l-41,24.5C574.4,1082.8,572.5,1082.6,571.5,1081.6z"/>
						<g>
							<defs>
								<path id="SVGID_5_" d="M570.1,1061.3l-8.4,4.7c-0.6,0.3-0.7,0.9-0.3,1.3l8.4,8.6c0.4,0.4,1.2,0.5,1.8,0.2l8.4-4.9
									c0.6-0.3,0.7-0.9,0.2-1.4l-8.5-8.3C571.4,1061.1,570.6,1061,570.1,1061.3z"/>
							</defs>
							<use xlink:href="#SVGID_5_"  style="overflow:visible;fill:#FFFFFF;"/>
							<clipPath id="SVGID_6_">
								<use xlink:href="#SVGID_5_"  style="overflow:visible;"/>
							</clipPath>
							<g class="st26">
								<path class="st27" d="M583.2,1071.6l-11.9,7c-0.7,0.4-1.6,0.3-2.1-0.2l-0.4-0.4c-1-1-0.1-2.8,2-4c0.4-0.2,0.9-0.5,1.4-0.6
									c0.1,0,0.2-0.1,0.3-0.1c0.4-0.2,0.8-0.3,1.2-0.4c0.1,0,0.1,0,0.2-0.1c0.3-0.1,0.6-0.2,0.8-0.3c0.2-0.1,0.5-0.4,0.8-0.7
									c0.1-0.1,0.2-0.2,0.3-0.3c0.5-0.5,1.2-1.1,1.9-1.5c2.1-1.2,4.4-1.4,5.4-0.4l0.4,0.4C584,1070.5,583.9,1071.2,583.2,1071.6"
									/>
								<path class="st27" d="M573.3,1071.1c-1.5,0.9-3.4,0.8-4.8-0.2l-2.6-2c-0.7-0.5-1-1.2-0.9-1.9c0.1-0.9,0.8-1.8,1.8-2.4
									c1-0.6,2.4-0.8,3.5-0.6c1,0.1,1.7,0.6,2.2,1.2l1.9,2.4C575.2,1068.8,574.8,1070.2,573.3,1071.1"/>
								<path class="st27" d="M568.7,1070.1l-3.2-2.5c-0.2-0.1-0.4-0.3-0.5-0.5c0,0.6,0.3,1.2,0.9,1.7l2.6,2c1.3,1,3.3,1.1,4.8,0.2
									c0.2-0.1,0.4-0.2,0.5-0.4C572.1,1071.4,570.1,1071.2,568.7,1070.1"/>
								<path class="st27" d="M573.3,1071.1c-1.5,0.9-3.4,0.8-4.8-0.2l-2.6-2c-0.7-0.5-1-1.2-0.9-1.9c0.1-0.9,0.8-1.8,1.8-2.4
									c1-0.6,2.4-0.8,3.5-0.6c1,0.1,1.7,0.6,2.2,1.2l1.9,2.4C575.2,1068.8,574.8,1070.2,573.3,1071.1"/>
							</g>
							
								<use xlink:href="#SVGID_5_"  style="overflow:visible;fill:none;stroke:#231F20;stroke-width:8.174302e-02;stroke-linecap:round;stroke-linejoin:round;stroke-miterlimit:10;"/>
						</g>
						<line class="st27" x1="572.1" y1="1079" x2="583.4" y2="1072.2"/>
						<line class="st27" x1="571.4" y1="1078.2" x2="582.7" y2="1071.5"/>
						<line class="st27" x1="577.3" y1="1054.4" x2="588.7" y2="1048.1"/>
						<line class="st27" x1="577.7" y1="1058.5" x2="595.1" y2="1048.7"/>
						<line class="st27" x1="581.2" y1="1058.1" x2="592.6" y2="1051.6"/>
						<line class="st27" x1="579.1" y1="1062.4" x2="600" y2="1050.5"/>
						<line class="st27" x1="582.6" y1="1062.1" x2="598.4" y2="1053"/>
						<line class="st27" x1="585.4" y1="1062.1" x2="596.9" y2="1055.5"/>
						<line class="st27" x1="592.9" y1="1062.9" x2="604.3" y2="1056.3"/>
						<line class="st27" x1="597.1" y1="1066.8" x2="608.5" y2="1060"/>
						<line class="st27" x1="580.2" y1="1054.1" x2="587.6" y2="1049.9"/>
						<line class="st27" x1="572.9" y1="1079.8" x2="574.4" y2="1081.3"/>
						<line class="st27" x1="584.3" y1="1073.1" x2="585.8" y2="1074.6"/>
						<line class="st27" x1="574" y1="1079.2" x2="575.4" y2="1080.7"/>
						<line class="st27" x1="575.1" y1="1078.5" x2="576.6" y2="1080.1"/>
						<line class="st27" x1="576.4" y1="1077.8" x2="577.9" y2="1079.3"/>
						<line class="st27" x1="575.8" y1="1078.1" x2="577.3" y2="1079.6"/>
						<line class="st27" x1="578.2" y1="1076.7" x2="579.7" y2="1078.2"/>
						<line class="st27" x1="579.9" y1="1075.7" x2="581.4" y2="1077.2"/>
						<line class="st27" x1="581" y1="1075" x2="582.5" y2="1076.5"/>
						<line class="st27" x1="581.5" y1="1074.7" x2="583" y2="1076.2"/>
						<line class="st27" x1="582.5" y1="1074.1" x2="584" y2="1075.6"/>
						<line class="st27" x1="583.4" y1="1073.6" x2="584.9" y2="1075.1"/>
						<line class="st27" x1="579" y1="1076.2" x2="580.5" y2="1077.7"/>
						<line class="st27" x1="577.3" y1="1077.2" x2="578.8" y2="1078.7"/>
						<line class="st28" x1="566" y1="1056" x2="589.1" y2="1043.2"/>
						<polygon class="st27" points="612.3,1056.8 591.8,1069 588.9,1066.2 609.4,1054.2 						"/>
						<g>
							<line class="st27" x1="599.4" y1="1045.5" x2="596.8" y2="1047"/>
							<line class="st27" x1="602.9" y1="1043.6" x2="600.2" y2="1045.1"/>
						</g>
						<line class="st27" x1="598.1" y1="1047" x2="602.6" y2="1044.5"/>
						<line class="st29" x1="598.2" y1="1044.8" x2="599.5" y2="1044.1"/>
						<line class="st27" x1="598.2" y1="1047.8" x2="603.7" y2="1044.8"/>
						<path class="st27" d="M598.2,1061.3c0.1,0.7,0.1,1.5-0.2,2.4c-0.2,0.4-0.4,0.9-0.3,1.3c0.5-0.9-0.2-1.6,0-2.5
							c0.3,0.5,0.2,1.1-0.2,1.6c-0.1,0.1-0.2,0.3-0.4,0.3c-0.1,0-0.2,0-0.3,0c-0.4,0-0.8-0.1-1.2-0.1c0.8-0.2,1.7-0.5,2.4-1
							c-0.3,0.1-0.7,0.2-1,0.3c0.1-0.2,0.2-0.4,0.3-0.5c0.2-0.2,0.4-0.4,0.7-0.4c0.2,0.3,0.2,0.6,0.1,1c0.1-0.5,0.3-1,0.6-1.5
							c-0.1,0.3-0.1,0.7-0.2,1c0.1-0.3,0.1-0.5,0.2-0.8c-0.2,0.3-0.2,0.5-0.1,0.7c3.1-2.6,6.4-5,9.8-7.3"/>
						<line class="st27" x1="574.5" y1="1078.9" x2="576" y2="1080.4"/>
						<line class="st27" x1="574.6" y1="1078.8" x2="576.1" y2="1080.3"/>
						<line class="st27" x1="575.5" y1="1078.3" x2="577" y2="1079.8"/>
						<line class="st27" x1="577.8" y1="1076.9" x2="579.3" y2="1078.4"/>
						<line class="st27" x1="578.3" y1="1076.6" x2="579.8" y2="1078.1"/>
						<line class="st27" x1="579.2" y1="1076.1" x2="580.7" y2="1077.6"/>
						<line class="st27" x1="580.5" y1="1075.4" x2="581.9" y2="1076.8"/>
						<line class="st27" x1="582.1" y1="1074.4" x2="583.6" y2="1075.9"/>
						<line class="st27" x1="582.2" y1="1074.3" x2="583.7" y2="1075.8"/>
						<line class="st27" x1="583" y1="1073.9" x2="584.5" y2="1075.4"/>
						<line class="st27" x1="583.6" y1="1073.5" x2="585.1" y2="1075"/>
						<line class="st27" x1="579.6" y1="1075.9" x2="581.1" y2="1077.4"/>
						<line class="st30" x1="570.3" y1="1055.7" x2="586.9" y2="1046.5"/>
						<line class="st28" x1="556.9" y1="1060.8" x2="561.2" y2="1058.5"/>
					</g>
					<g>
						<path d="M597.3,1043c-1.3,0.7-3.1,0.5-4.2-0.4c-1-0.9-0.8-2.2,0.4-2.9c1.3-0.7,3.1-0.5,4.1,0.4
							C598.7,1041,598.5,1042.3,597.3,1043z M593.8,1039.9c-1.1,0.6-1.3,1.8-0.4,2.6c0.9,0.8,2.6,0.9,3.7,0.3
							c1.1-0.6,1.3-1.8,0.4-2.6C596.5,1039.5,594.9,1039.3,593.8,1039.9z"/>
						<path d="M597.1,1040.4c0.8,0.7,0.6,1.6-0.3,2.1c-0.9,0.5-2.3,0.4-3-0.3c-0.7-0.7-0.6-1.6,0.3-2.1
							C595,1039.7,596.3,1039.8,597.1,1040.4z"/>
					</g>
				</g>
			</g>
		</g>
	</g>
</g>
</svg>
