<?xml version="1.0" encoding="utf-8"?>
<!-- Generator: Adobe Illustrator 24.0.0, SVG Export Plug-In . SVG Version: 6.00 Build 0)  -->
<svg version="1.1" id="Layer_1" xmlns="http://www.w3.org/2000/svg" xmlns:xlink="http://www.w3.org/1999/xlink" x="0px" y="0px"
	 viewBox="0 0 1920 1080" style="enable-background:new 0 0 1920 1080;" xml:space="preserve">
<style type="text/css">
	.st0{clip-path:url(#SVGID_2_);}
	.st1{fill:#FFFFFF;}
	.st2{fill:#D1D3D4;}
	.st3{fill:#ED1C24;}
	.st4{stroke:#FFFFFF;stroke-width:1.2781;stroke-linecap:round;stroke-linejoin:round;stroke-miterlimit:10;}
	.st5{fill:none;stroke:#FFFFFF;stroke-width:1.2781;stroke-miterlimit:10;}
	.st6{stroke:#FFFFFF;stroke-width:1.2781;stroke-miterlimit:10;}
	.st7{fill:#FFFFFF;stroke:#FFFFFF;stroke-width:1.2781;stroke-miterlimit:10;}
</style>
<g>
	<defs>
		<rect id="SVGID_1_" x="-11.8" y="-6.7" width="1944" height="1096.1"/>
	</defs>
	<use xlink:href="#SVGID_1_"  style="overflow:visible;fill:#FFFFFF;"/>
	<clipPath id="SVGID_2_">
		<use xlink:href="#SVGID_1_"  style="overflow:visible;"/>
	</clipPath>
	<g class="st0">
		<rect x="-76.7" y="-386.9" width="2073.8" height="1057.9"/>
		<g>
			<path class="st1" d="M290.9,479c0,0,1.6,2.2,3,2.3c2.1-1.4,6.6-6.2,7.1-6.5c0.5-0.3,2.9-2.8,3.9-1.9c1,0.9,3.7-0.2,5-1
				s9.8-8.2,10.8-10.6c3.1,1.6,4.4,1.4,5.4,0.2c1-1.2,1.9-4.5,2-5.6s2.7-3.3,2.7-6c0-2.7-2.4-12.4-3.3-14.4c-0.9-2-3-6-7.6-9
				c-4.6-3-18.6-7.3-21-7.3c-2.4,0-11.3,4.3-12.9,6c-1.6,1.7-4.1,3.3-5.8,4.1s-7.7,12.8-7.6,16.1c0,3.3,2.3,24.7,2.5,27.1
				c0.2,2.4,3.5,10,4.3,10.8s5.8-0.6,6.7-2.9c0.9,0.5,1.7,1.1,2.4-1.3C289.8,480.6,290.9,479,290.9,479z"/>
			<path class="st1" d="M186.5,516.8c0.6,1.7,17.3,44,19.9,48.7c2.6,4.7-1.8,21.2-4.9,25.1S180,641.2,180,641.2
				s-10.3,11.9-11.4,13.4c-1,1.6-2.8,14.5-3.4,16.5s-3.9,9.3-3.9,9.3H158c0,0,3.6,1.3,5.2,2.3c1.6,1,9.8,6.7,11.9,8.3
				c2.1,1.6,15.3,2.6,16.8,3.4c1.6,0.8,0,5.2,0,5.2c2.4,0,3.9,2.3,2.3,3s-16.5,4.8-21.1,4s-27.5-4.3-27.5-4.3s-0.2,1.7-0.6,4.8
				c-20.3,2.7-22.9-3.3-22.9-3.7c0-0.3,0.3-10.3,1.4-12.8c1.1-2.5,6-9.5,6-9.5s-1.8-0.6-2.1-0.7c-0.2-0.1-1-1.9,0.2-2.9
				c1.2-1,1.9-7.2,3.2-10.4c1.3-3.2,12.5-34.2,12.5-34.2s2.7-8.5,4-10.9s10.1-26.9,10.1-26.9s3.2-8,3.2-8.5s4.3-3.7,4.3-3.7
				l-0.5-3.9c0,0-0.8-2.7-0.8-3.7s4.8-1.6,4.8-1.6s-3.9-3.1-4.1-3.1c-0.2,0-0.9-1.3-1.2-2.8c-0.2-1.5,0.8-5.1,0.8-5.1
				c-1.2-0.2-2.8-5.1-2.8-5.1s-4.8-3.2-5.6-3.8s-7.1-8.7-7.6-11.2c-0.5-2.5-16.3-26.7-16.3-27c-0.1-0.3-8.2-9.3-8.2-9.3
				s-10.7-15.3-10.9-19.1c-0.2-3.7-1.6-15.7-1.6-15.7c3.8-13.6,16-26.7,27.4-22.3S178.4,495.8,186.5,516.8z"/>
			<path class="st1" d="M196,518.8c1,1.5,26.2,38.7,29.7,42.8s2.5,18.7,0.2,22.1s-11.2,44.6-11.2,44.6s-7.9,10.5-8.7,11.8
				s0.1,12.7,0,14.6c-0.1,1.8-2,8.2-2,8.2h-3.4c0,0,3.9,1.1,5.6,2c1.8,0.9,11.2,5.9,13.6,7.3s15.8,2.3,17.5,3s1,4.6,1,4.6
				c2.4,0,4.3,2,2.9,2.6s-15.5,4.2-20.3,3.5c-4.7-0.7-28.3-3.8-28.3-3.8s0.1,1.5,0.4,4.2c-19.8,2.3-23.6-2.9-23.6-3.2
				c-0.1-0.3-1.7-9.1-1.2-11.2c0.6-2.2,4.1-8.3,4.1-8.3s-1.9-0.5-2.2-0.6c-0.3-0.1-1.4-1.7-0.3-2.6c1-0.9,0.5-6.4,1.1-9.1
				s5.6-30.1,5.6-30.1s1-7.4,1.8-9.6c0.8-2.1,4.7-23.7,4.7-23.7s1.6-7.1,1.5-7.5s3.6-3.3,3.6-3.3l-1.3-3.4c0,0-1.4-2.4-1.6-3.2
				c-0.2-0.8,4.5-1.4,4.5-1.4s-4.5-2.7-4.8-2.7c-0.2,0-1.2-1.2-1.7-2.5c-0.6-1.3-0.2-4.5-0.2-4.5c-1.3-0.2-3.8-4.5-3.8-4.5
				s-5.4-2.8-6.4-3.4c-1-0.6-8.9-7.7-9.9-9.9S141.2,518.3,141,518c-0.1-0.3-10.1-8.2-10.1-8.2s-13.8-13.5-14.7-16.8
				c-0.9-3.3-4.7-13.8-4.7-13.8c1-12,10.6-23.5,22.9-19.7C146.5,463.4,183.7,500.3,196,518.8z"/>
			<path class="st1" d="M276.7,476.1c3.2-7.4,3.6-17.5,5.1-30.4c0.7-6.3-0.7-16.3-0.9-18.1c-0.2-1.8-1.2-1.8-3.2-2
				c-1.9-0.2-4.9-1.2-4.9-1.2s-3.5-2-6-2.1c-7.7-4.4-19.8-11.7-51.6-15.9c-31.8-4.2-55.7,5.3-71.4,17.3
				c-15.7,12-32.4,26.6-33.4,42.6c-1,16,3,17.1,3,17.1s47.6,12.6,72.5,27.2c4.3-5.3,14.1-23.4,14.1-23.4s3.3,6.6,6.5,8.1
				c3.2,1.5,14.4-3.2,17.4-3.1c3,0,6.8,0.5,9.5,0.9c2.7,0.5,10.2-0.5,12.6-2.4c2.4-1.9,12.1-10.3,14.2-10
				C262.4,481,276,477.8,276.7,476.1z"/>
			<path class="st1" d="M274.7,467c-0.4-4.8-9.8-8.4-16.7-5.8c-6.9,2.6-9.1,11-9.2,28.9s3.6,42.4,3.7,45c0.1,2.5-0.3,4.4,11.6,13.6
				c11.9,9.2,36.1,23.2,37.6,23.8c1.5,0.5,5.6-1.8,5.6-1.8s2,4,2.6,5.4s4.6,3.5,4.9,5.1s-1.7,3.8-0.7,4.2c1,0.4,4.2,0.7,5-1.6
				c1.2,2,4.4,2.4,5.7-1.5c2,2.6,5.1,4.2,3.6,8.5c1.7,2.7,5.6-2,6-3.7c0.5-1.7-3.3-6.9-3.3-6.9s4.9,4.4,4.1,8.6c2,3,5.8-1,5.9-4.7
				c0.2-3.7-5.3-11.5-6.5-13.6s-3.5-4.5-8.2-6.6c-4.6-2.1-10.1-5-10.1-5s0.9-3,0.1-4c-0.8-0.9-38.3-31.8-38.3-31.8
				S275.4,474.9,274.7,467z"/>
			<path class="st1" d="M292.5,576.2c0,0-2.9,4-4.9,2.7c-2-1.2-45.2-31.4-48.3-33.2c-3.1-1.8-5.9-1.8-6.8-14.5s-2.7-37.6-2.7-40.4
				s1.8-13.8,4.6-14.3c2.9-0.5,17-11.3,20.2,5.3s5,46.3,5,46.3l40.8,32.2c0,0,9.7,2.3,11,3.9c0.7,0.9,5.6,6.4,5.9,7.2
				s9.7,7.3,10.5,8.6c0.8,1.4,4.9,4.9,4.1,6.3c-0.8,1.4-3.1,2.3-4.4,1.4c0.9,2.9-1.6,4-4,2.9c0.2,2.5-2.5,4.8-5.6,1.8
				c1,2.6-0.8,4.3-4.9,2.2c-4.1-2.1-14.3-9.9-16.2-12.3C295,580.1,292.5,576.2,292.5,576.2z"/>
			<path class="st1" d="M318.7,580.5l29.5-21.2c0,0,52.6,11.7,65.2,26.3c-34.4,45.1-51,52.6-51,52.6l-51.8-50.6L318.7,580.5z"/>
			<path class="st1" d="M313.4,581.8l25-26.4c0,0,53.8,1.5,69,13.5c-25.3,50.8-40.1,61.3-40.1,61.3l-60.5-39.8L313.4,581.8z"/>
			<path class="st1" d="M239.9,656.5l25-26.4c0,0,53.8,1.5,69,13.5c-25.3,50.8-40.1,61.3-40.1,61.3L233.4,665L239.9,656.5z"/>
		</g>
		<g>
			<path d="M581,358.7c-5.3-2.7-19.2-4.3-23.8-5.6c-4.6-1.3-24.4,6.6-29.8,9.2c-5.5,2.5-13.9,2.5-17.6,3.4
				c-3.8,0.8-9.2,0.5-10.1,5.3c-14.4-0.4-21-1.2-34.4,1c-13.4,2.2-65,27.4-67.1,34.9c-2.1,7.4-4,8.6,18,18.9
				c14.5,6.8,15.9,5.3,38.5,6.8c16.8,1.1,71.8,3.4,76,2.9c4.2-0.4,12-0.9,16.9,11.9C548,401.8,581,358.7,581,358.7z"/>
			<g>
				<g>
					<path d="M683.3,751.4c0,0-3.7,33.2-4.7,37.5c-1.1,4.3-4.6,33.2-3.6,38.5s4.2,21.1,4,25.7c-0.1,4.6,0.9,15.3-1.9,21.1
						s1.3,25,1.9,29.3c0.6,4.3,8.1,42.1,8.8,50c0.7,7.9,7.1,73.2,6.4,78.5c-0.7,5.4-1.4,25-1.8,31c-0.4,6.1,4.6,18.2,3.9,20.3
						s-49.8,5-56.9,6.4c-6.8-9.3-4.8-36-4.8-39.2s-4.9-31-4.6-39.6s-18.9-95.3-19.3-98.8c-0.4-3.6,5-12.1,4.3-13.9
						c-0.7-1.8-2.2-17.8-4.3-18.9c-2.1-1.1,0.7-6.5,0-8.2c-2.5-6.4-5-19.3-3.6-30.7c-7.1-21.4-22.9-107.4-22.3-144.5
						c0.6-37.1,67.6-66.7,67.6-66.7L683.3,751.4z"/>
					<path class="st1" d="M630.1,852.2c0,0-19.3-21-26.2-23.8s-12.2-59.5-13.8-69.8c-2.5-15.9-3.4-33.2-3.8-37.4
						c-0.4-4.1,5.7,1.7,5.7,1.7s1.6,6.7,3.7,13.2c2.1,6.6,4.4,24.5,17.1,41.9c-13-16-18.9-41-19.6-42s0.7,21.9,1,23.6
						c0.3,1.7,4.1,18.2,5.3,22.1s18.7,33,20.1,36.2c1.4,3.1-10.7-11-11.8-11.7c-1.1-0.7-7.7-10.8-7-8c0.7,2.8,5.1,17.9,6.3,20.5
						C608.1,821.3,630.1,852.2,630.1,852.2z"/>
				</g>
				<path class="st1" d="M627.7,856.6c0,0,6.6,21.3,9,14.4c2.4-6.9,8.6-30.7,9.4-41.1c0.8-10.4-17.1-41.2-17.1-41.2
					s12.4,30.6,13.2,34.5c0.8,3.9-5.4,39.4-5.5,41.5C636.5,866.7,627.7,856.6,627.7,856.6z"/>
			</g>
			<g>
				<path d="M630.1,670.1c0.8,11.4,27,50.4,37.6,63.3c10.6,12.9,13,35.4,21.1,41.1c8.1,5.6,43.3,121.2,57,123.1
					c11.7,34.7,31.9,75.2,34.4,81.6c2.5,6.4,15.1,74.6,36.6,89.6c8.1-4.8,33.7-8.5,34.5-8.5c1.1-24.2-3-34.7-4.4-58.6
					c-0.7-11.1-1.2-12.9-6.5-36.3c-3.2-14.2-4.8-33-11.3-46.7c-6.5-13.7-17.3-39.9-24-51c-6.6-11.1-16-46.5-20.2-63.5
					c-4.2-16.9-15.5-105.5-21.6-120.6c-18.6-45.9-26.1-79.5-26.1-79.5l-95.8,4.2L630.1,670.1z"/>
				<path class="st2" d="M784.8,876.3c0,0,7.4-30.6,1.5-55.2s-16.2-87.5-19.8-98S737,616.7,734.6,610.6c-2.4-6.1,2.4-6.3,2.4-6.3
					h4.3c0,0,23.3,75,25.2,88.2c1.9,13.2,18.6,94.2,21,100.8C789.9,799.8,796.6,854.6,784.8,876.3z"/>
				<path class="st2" d="M790.9,871c0,0,7.2-11.7,6.6-15.6s-6.6-20.1-6.6-20.1l-0.9-10.5c0,0,10.2,28.1,10.2,31.8
					C800.2,860.3,790.9,871,790.9,871z"/>
				<path class="st1" d="M791.6,876.3c0,0,20.3,24.1,28.3,27.6s10.4,14.4,12.6,24.1c2.2,9.7,13,40.3,15.3,55.5
					c4,25.5,3.3,77.1,3.3,77.1s-3.8-59-6.9-76.7c-3-17.6-14.1-50.8-16-57.7c-1.9-6.9-4.3-10.7-11.9-18.4
					C808.8,900,791.6,876.3,791.6,876.3z"/>
			</g>
			<g>
				<path d="M595.6,349.9c-2.1,2.8-9.3,4.4-9.3,4.4s12,18.7,18.9,20.5c6.9,1.8,23.8-12.2,33.4-23.4c9.6-11.1,17.1-19.2,18.2-23
					c1.8-6.1-2.8-7.4-7.5-8.3c-4.8-1-18.6,4.7-17.2,5C633.6,325.3,595.6,349.9,595.6,349.9z"/>
				<g>
					<path class="st1" d="M606.3,371.9c0,0-10.6-16.1-14.5-21.8c-4-5.7-9.5-13.1-11.6-13.6c0,0,23.3-9.4,25.1-14s2.6-23,2.6-23
						l19.3-10.1c0,0,8.1,12.9,9.2,16.5c1.1,3.5,1.5,12.8,9.7,19.5C654.2,332,606.3,371.9,606.3,371.9z"/>
					<path d="M618.1,374.1c1.5-1.7,2.7-20.8,0.4-23.6c-2.2-2.9-7-14.3-11.4-14s-13.8,1-12.4-0.3c1.3-1.3,15.2-13.8,17.5-17.4
						c2.3-3.6,2.3-16.2,3.7-18.7c1.4-2.5,14.7-5.2,15.6-0.1c0.9,5.1,5.7,24.7,9.1,29.3c3.4,4.7,4.9,8.9,4.9,8.9s-6,14.5-12.3,20.9
						C629.3,363,618.1,374.1,618.1,374.1z"/>
				</g>
			</g>
			<g>
				<path class="st2" d="M550,280.5c0,0-2.3,12.8-2,15.4c0.3,2.6,5.6,19.4,5.6,19.4l4.1-10L550,280.5z"/>
				<g>
					<g>
						<g>
							<path class="st1" d="M576.2,344.6c-5,0.6-12.5,1.8-15.4,1c-3.7-0.9-4.1-6.8-3.9-12.9c0.1-2.5,0.6-1.8-1.2-7
								c-0.3-0.8-2.1-2.7-2.4-3.5c-0.3-0.8,0.2-2.4,0-3.2c-1.9-11,3.5-14.5,1.5-15.1c-4.5-1.4-10-2.9-6.2-10.4
								c1.9-3.8,3.9-6.1,1.3-8.9c-2.6-2.8-3.5-3.9-2.3-10.2c1.2-6.3,2.5-20.1,3.8-26.2s43.6-47.9,79.3-11.3
								c9.2,9.4,8.9,25.7,9.4,35.3c0.4,9.6,2.6,18.7-7,26.6c-9.6,7.8-12.6,9.7-15.4,8.9c-1.7,13.1,2.2,17.3-5.4,21.7
								c-7.6,4.4-21,12.7-22.9,12.9C587,342.2,581.2,344,576.2,344.6z"/>
							<path class="st1" d="M633.7,312.6c0,0,4.6,1.3,4.8-6.8c0.2-8.1,5.6-28,6-35.5c0.3-7.5,0-16.1-3.5-19.7c1-4,0.7-8.1-3.8-11.1
								s-10.3-9.8-11.8-12.1c-1.5-2.3-3.6-1-5.6-2.3c-2-1.3-7.6-5.5-14.4-6c-6.8-0.5-8.4-1.2-9.5-2.5c-1.2-1.3-2.6,0.4-4.7,0.5
								s-12.8-0.2-15.4,0.8c-2.7,1-2.2,1.8-3.8,3c-1.4,0.9-1.9-0.4-4.1-0.3c-2,0.1-6,4.8-7.8,4.3c-1.8-0.5-2.3,0.6-3.4,2.7
								c-2,0-3,1.9-4.1,2.9c-3.1,0.5-2.9,3.7-3.5,5.2c-2.1,0.6-3.2,1-3.8,3.1c-0.5,1.9-1,5.3,1.5,7.5c2.5,2.2,7.1,6.5,7.1,6.5
								s7.8-2,12.8-7.6c5-5.6,26.2-10.1,30.5-11.3c4.3-1.2,0.7,0.2,0,3c-0.7,2.8-4.3,16.1-4.1,20.4c0.2,4.3-1.3,7,4.1,8.1
								c5.5,1.2,7.1,3.2,8,9.1c0.8,6,1.5,13.8,1.5,13.8l7.3,0.3c0,0,0.9-5.9,6.6-12.6c5.6-6.5,12.4-7.6,15.6-3.3
								c3.2,4.3,3.2,12.8,1.5,17.8c-1.6,4.7-4.1,7.4-6.1,9.5C632.2,305,633.7,312.6,633.7,312.6z"/>
						</g>
						<path d="M588.8,341.1c-5.5,2.5-12.9,5.9-19.5,5.8c-4.7-0.1-10.9-2.1-8.7-2.7c7.5,1.2,14.6-2.7,18.8-10.1
							c1.8-3.2,2-1.5,4.7-5.4c3.7-5.5,4.2-6.9,6.3-12.8c1.8-5.1-6.3-14.1-2.7-20s4-13.2,0-14.8s-4.9-4.9-7.6-3
							c-2.6,2-10.7,1.4-10.7,1.4s2.8,5.2,11.3,1.9c-2,4.3-11.2,3.6-12.8,2.6c0,0-2.5,4.4-1.5,7.5c1,3.2,0.9,6.7,4.8,9.3
							c3.8,2.7,1.5,11.5,2.9,13.9c-2.2-1.7-2.3-9.4-3.6-10.7c-1.3-1.3-4.6-3.7-4.6-3.7s-1.5,3.5-3.3,2.2c-1.8-1.3-4.9-0.2-4.9,1.6
							c0,1.8-0.7,7.1-1.5,7.3c-0.7,0.2-2.2,0.9-1.5-2.6c0.7-3.5,0.8-6.3-0.6-6.3s-3.5-1.5-4.2-4c-0.7-2.6-0.5-3.6,3.2-9.8
							c3.7-6.2,5.8-11.5,6.2-13.7c0.4-2.2-0.3-6.5,1.6-6.9c1.8-0.4,12.8-1.6,15.2-1.9c2.3-0.2,7.3,1.3,9.3,1.3s-3.8-5.4-6.8-6.2
							c-3-0.7-6.5,0.3-7.3-2.1c-0.9-2.5,0.5-13.8,1.7-18.9c0,0-8.3,4.3-11,4.5c-2.7,0.1-9.6,3.4-12-7.6c3.8,4.9,4.7,2.5,4.7,2.5
							s-4.2-3.6-2.7-8.4c0.5,4.7,5.4,4.5,5.4,4.5s-3.9-3.9-0.8-7.8c-0.2,4.2,4.2,4,4.2,4s-3.6-1.4-1.8-6.3c0.6,2.8,2.2,2.3,2.2,2.3
							s1-2.9,2.9-3.1c1.9-0.2,10.4-0.6,11.9-1.9c1.6-1.3,10.1-3.7,12.8-2.8c0,0,10.4,0.8,12.8,0.5c2.5-0.3,7.5-0.8,10.3,0.8
							c2.8,1.6,13,4.9,14.4,7.4c6.3,11.5-3.7,18.3-3.1,24.6c0.6,6.3,0.6,16.9,0.6,16.9s3.6-4.4,10.9,3.8s0.4,22.5-4,26.3
							c-4.4,3.8-15.8,9.2-18.3,3c0,0,4.7,15.7-1,22.4c-1.6,1.8-6.1,6.5-9.6,8.9C595.2,339.1,594.3,338.7,588.8,341.1z"/>
						<path d="M547.7,282c-1.4-2.4,0.2-10,0.4-11.3c0.2-1.3,3.9-2.2,5.3-1.4s3.1,9.9,2.3,11.2c-0.8,1.3-5.7,11-6.6,11.5
							c0.6-1.3,0.9-2.1,1.3-4.8C550.8,284.6,549.1,284.4,547.7,282z"/>
						<path d="M634.6,277.4c0,0,2.5-5.5,2.8-7.2c0.3-1.7-0.1-6.5-0.8-6.8s2.6-2,0.9-4.4c0,0,2.4-7,0.5-7.7c0.4-4.4-0.1-6.3-1.3-6.8
							c-1.2-0.6-5.4-2-6.2-2.3c-0.7-0.3-2.1-2.5-3.2-2.7s-5.2,4.5-6.1,6.2c-0.8,1.7-5.4,22.5-5.4,22.5l5.2,14.7L634.6,277.4z"/>
						<path d="M553.5,320c0.3-0.6,1.9-0.8,3-0.5c1,0.3,4.9-0.5,6-1.2s11.7-0.4,12.6,0.3c3.1,3.1,4.4,1.9,4.4,1.9s-2.9-1.8-4.1-3.1
							c-1.1-1.3-7.5-1.1-11.5-1.8c-4.2-0.8-4.1-0.4-7.1,1.3c-1.6-0.4-2.4-0.7-3,0.6c-0.6,1.3-0.2,0.7-0.6,1.4
							c-0.4,0.6-0.1,2.5-0.1,2.5S553.2,320.6,553.5,320z"/>
						<path d="M554.3,323.8c3.4-1.3,9.1,0.1,10.7-0.4c3.5-1,6.7-3.5,6.7-3.5l-2.1,3c0,0-0.8,8.7-8.7,4.1c-3.8-2.2-3.5,1-4.2,2.4
							c-0.5-1.5-0.9-2.4-1.6-3.9C554.7,324.3,554.8,324.7,554.3,323.8z"/>
						<path class="st2" d="M573.9,274.2c6.4-0.8,4.7-0.2,7.9,2.2c1.9,1.5,4.1,1.8,6.6,2.8c-1.7-4.3-3.9-7-8.2-6.7
							c-2,0.2-4.5,0.2-6.5,0.7C571.3,273.7,569.8,274.7,573.9,274.2z"/>
					</g>
					<path class="st1" d="M632.4,308.2c0.2,0,3.4,2.8,4.4,0.3s0.9-2.3,1.7-5.7c0.8-3.4,1.2-5.7,1.2-5.7c0,0-0.9,10.6-1.6,12.2
						s-2.6,4.4-4.5,4.4C631.6,313.6,632.4,308.2,632.4,308.2z"/>
				</g>
			</g>
			<g>
				<path d="M555.8,272.7c-4.3-1.2-6.3-2-9.6-1.9c-3.4,0.1-7.3,0.2-6.9,5c0.9,9.6,0.4,11.3,6.7,13.2c5.6,1.6,5.4-1.1,7.6-6.1
					c2.5-5.7,4-6.4,5.5-6.3c1.5,0.1,0.8,0.8,1.4,4.7c0.6,4,2.9,10.9,16.9,10c11.1-0.7,9.6,2.4,15.6-10.7c0,0,24.2-1,23.9-0.8
					s3.6-4.6,3.6-4.6s-24.1,1.1-27.5,1.3c-0.6-5.1,0.9-7.3-15.8-6.6c-18.1,0.7-16.3,2.6-17.9,2.8S555.8,272.7,555.8,272.7z"/>
				<path class="st2" d="M541,285c0,0-0.5-2.4-0.8-4.9s-0.6-6.4,0.8-7.7s9.5-1.3,14.3,1.1c-4.3-0.8-11.9-2.6-13.6-0.3
					S541,285,541,285z"/>
				<path class="st2" d="M562.1,283.9c-1.5-4.9-2.2-10.7,0-11.3c2.2-0.6,8-1.8,15-1.5c-5.3,0.5-7.1,0.6-10.7,1.2
					c-5.4,0.9-5.1,1.1-4.7,7.2c0.4,6.5,5.2,11.1,9.6,10.9C564.6,290.9,562.1,283.9,562.1,283.9z"/>
				<path class="st2" d="M575.3,290.5c0,0,6.6,0.7,11-1.2c2.1-0.9,2.7-2.8,3.5-5c2.7-6.8,1.6-12.2-1.8-12.9
					c-3.4-0.7-9.8-0.5-9.8-0.5s12.3-1.4,13.5,2c1.3,3.6,0,9.4-1.3,11.8C587.2,290.4,588.6,290.8,575.3,290.5z"/>
				<path class="st2" d="M595.6,277.9c3.1,0,22.8-1.4,22.8-1.4l1-1c0,0-23,1.2-24.7,1.3S592.5,277.9,595.6,277.9z"/>
				<path class="st2" d="M549.6,288.5c0,0-3.9-0.6-6.1-1.8s-2.7-1.9-2.7-4.8c-0.1-3.5-0.9-4.5-0.7-2.8c0.2,1.7-0.1,6.3,1.9,7.3
					s3.6,1.6,5,1.8C548.4,288.4,549.6,288.5,549.6,288.5z"/>
			</g>
			<g>
				<path d="M605.1,373.4c9.1-0.4,37.7-28.7,47.8-49.7c2.9-6,9,4.4,13.5,10c2.7,3.3,21,8.2,29.6,10c43.4,9.4,40.9,15.3,42.8,27.2
					c1.2,7.2,7.3,88.6,8.8,98.5s-11.2,48.2-11.1,54.1c0.1,17.5,20.3,61.4,24.2,70c10,22.1,17.3,40.7,26.8,74.7
					c-17.4,37.4-85.6,52.9-90.3,52.9S648.9,649,640,630.2c3.1,68.8,6.5,97.6,6.5,97.6s-60.8-12-65.5-24.1
					c-6.7-32.1-10.7-90.2-8.7-107.6c2-17.4-13.3-129-19.4-142.3c-6-13.4-8.3-59.4,1.4-76.5c12.2-21.4,23-21.9,35.3-24.2
					C595.6,363.2,605.1,373.4,605.1,373.4z"/>
				<path class="st1" d="M605.1,375.7c0,0,1.2,0,2.3-0.6c6.3-3.5,28.8-17.7,40.7-36.7c-0.8,15.4-12.9,50.2-18,64.9
					C630.1,403.4,617.9,382.6,605.1,375.7z"/>
				<path class="st1" d="M605.1,375.1c-0.8-0.3-14.9,3.2-19.8,24.9c-2.2-11.5,2-32.4,6.3-43.8C594.9,362.6,603.7,374.7,605.1,375.1z
					"/>
				<path class="st3" d="M594.9,395.6c0,0-4.1-6.2,0.1-11.2c4.5-5.5,7-6,7.7-6.2c0.7-0.1,6.2,5.3,6.7,6.7s-2.8,8.2-5,8.2
					c-3,0-2.4,0.1-4.9-0.2C596.9,392.7,594.9,395.6,594.9,395.6z"/>
				<path class="st3" d="M595.6,397.4c2-2,4-2.5,7.7-0.8c-2.2,8.3-0.6,37.2,8.6,77.5c-6.1,19.7-8,34.2-8.1,34.3
					c0,0-8.5-19.7-10.3-35.6C593.1,464.5,594.3,402.6,595.6,397.4z"/>
				<path class="st1" d="M592.9,400c-2.6,23.8-2.8,40.9-2.7,47.3c-2.1-26.1-3.9-38.6-3.9-42.8c0.1-4.7,2.8-8.3,4.3-11.3
					C590.8,395.6,591.8,398.7,592.9,400z"/>
				<path class="st1" d="M569.7,356.8c-4.1,2.9-27,17.1-28,42c-1,24.8,1.2,44.9,11.2,73.4c6.2,17.8,18.4,88.1,18.1,111.4
					c-0.3,20.9,2.4,81.4,4.3,86.5c14.8-0.4,15.4,0,16-9.2c0.5-8.1,0.2-21.1,0.2-21.1s-3.3,0.9-17.7,1c0,0,5.6-1.4,5.4-3.8
					c-0.8-8-2.4-28-1.3-50.6c1.3-29.5-19.2-97-24.9-142.7c-3.4-27.5,8.3-69.3,30.3-89.4C575.4,354.8,573,354.6,569.7,356.8z"/>
				<path class="st1" d="M576.2,673c0,0,11.7,0.3,15.1-1.4c1.7-3.4,2.6-13.6,2.6-13.6s3,42.9,10,58.6c-11.8-2.4-23-7.7-24.2-13.8
					C578.5,696.7,576.2,673,576.2,673z"/>
				<path class="st1" d="M574.7,589.9c0,0.4,5,24.5,5.9,29.9s2.7,18.4,3.6,18.7c0.8,0.2,5.1,0.4,5.9-0.5s-10.8-49.3-12.6-63.6
					c-1.8-14.3-4.6-14.4-4.4-8.1S574.7,589.9,574.7,589.9z"/>
				<path class="st1" d="M610.1,397.9c0,0,3.4-2,4.3-5.8c10.9,9.5,13.8,18.4,13.8,18.4s-1.2,10.5-10.3,36.8
					C616.2,433.1,611.9,421.5,610.1,397.9z"/>
				<path class="st1" d="M595,649.8c0,1.6,17.1,54.2,24.4,66.9c-11.9-15.2-26.3-52.3-26.3-52.3L595,649.8z"/>
				<path class="st1" d="M613.9,545.8c0,0-14.9-25.3-24.5-50.3c-1.1-2.9-3.4-29.7-4.6-32.7c-7.4-19.3-9.6-21.1-10.6-36.8
					c-2.6-39.4,15.4-72.9,15.4-72.9s-5.9,3.6-8.6,5.6c-2.7,2-23.6,24.8-25.3,66.3C554.8,450.5,613.9,545.8,613.9,545.8z"/>
				<path class="st1" d="M656.6,388.6l-19.2,23.6c-6.3,8.3-28.3,102.8-28.3,102.8l58.6-112.9L656.6,388.6z"/>
				<path class="st1" d="M573,504.3c-2.7-14.1,53.7,114.8,55.3,125.7s1,38,2.6,51.5c1.5,13.5,8.8,48.7-11.6-5.4
					C598.8,622,578,530.6,573,504.3z"/>
				<path class="st1" d="M650.1,335.9c8.5-4.6,10.2-9.2,11.9-4.1c1.7,5.1-4.1,23.9,5.6,20c9.7-3.9,11.9-5.6,23.3-3.4
					c-32.4,30.7-27.8,29-27.8,29l19.9-6.4c0,0-50.3,98.4-56.4,135.8c46.8-103.4,59.2-121.5,69.5-122.6c-27.3,59-34.7,84.6-34.7,84.6
					s57.1-119.3,75.7-106.8c-7-16.1-10-17.2-25.4-19.6c-9.8-1.6-30.5-5.4-38.1-6.7c-2.5-0.4-4.8-1.9-6.6-3.9
					c-7.3-8.4-6.5-10.6-17.6-11.5C664.7,325,652.9,332.4,650.1,335.9z"/>
			</g>
			<g>
				<path d="M683.5,401.2c2.6,16.7,13.9,44.2,16.6,48c2.7,3.8,9.2,30.2,16.2,35c7,4.9,15.1,10.8,15.1,12.4c0,1.6,0,13.5,5.9,20.5
					c5.9,7,15.2,24.7,18.9,23.7c2.5-0.7,3.6-2,3.6-2s-1.8,7.7,0,9.1s3.9,3.6,3.9,3.6s-0.4,14,0,16.7c0.4,2.7-3.6,13.8,0,16.8
					c-2.5,3.2-2.7,22.6-2.9,28.5c-0.2,5.9-5.7,27-2.9,27.9c-1.6,9-2.7,25.1-3.2,29c-0.5,3.9,9.1,3.2,28.6,4.8
					c19.5,1.6,23.5,0.6,26-0.3s2-9.3,3.4-14.3c1.4-5,4.3-21.4,5.4-26.1c1.1-4.7,2.3-26.6,2.3-28.2c0-1.6,4.4-29.2,4.8-32.6
					s-3-21.7-2.8-24.2c0.2-2.5-2.1-14.6-9.2-30.2c-7.2-15.6-53.4-120-61.4-134.6c-6.4-11.6-16.5-39.3-33.8-34.6
					C699.9,355.3,681.3,387.4,683.5,401.2z"/>
				<path class="st1" d="M702.7,360.3c0,0,15.7-21.7,30.6-6c14.9,15.7,25.8,41.2,27.8,45.6c0.5,1.2,8.7,14.7,15.4,29
					c1.7,3.6-0.9,7,0.8,10.7c6.9,15,15.4,28.6,16.2,31.5c4.3,14.2,27.4,63,30.1,69.1c2.7,6.1,0,11.6,0,11.6s6.6,17.9,5,21.5
					c-1.6,3.6-4.4,30.4-6.3,33.1c0,18.8-3.2,40.9-4.1,43.4c-0.9,2.6-5,25.6-6.3,26.4s-4.1,0.9-6.6-0.2c-2.5-1.2,3.1-4.8,4.3-11.8
					c2.6-15.3,13.7-112.1,8.9-124.4c-2.7-6.8-24-51.2-43.8-94.3c-1.8-3.9,0.5-9-1.2-12.8c-14-30-29.8-57.6-34.7-61.7
					C726.6,360.5,722.5,349.7,702.7,360.3z"/>
				<g>
					<path class="st1" d="M820.3,545.8c0,0-16-26.2-30.7-31.4c12.2-1.6,16.3-4.1,21.1,5c0.5,2.5,1,4.1,1,4.1s-3-4.4-5.4-6.7
						c-2.5-2.3-13.2-2.3-12.4-2.1c0.8,0.2,20,17.7,22.7,21C819.2,538.9,820.3,545.8,820.3,545.8z"/>
				</g>
				<path class="st1" d="M807.3,512.9c-3.6-3.8-4.6-10.9-12.3-13.3c-7.7-2.5-17.3-2.8-17.3-2.8s20.9-0.8,24.2,3.4
					C805.3,504.2,807.3,512.9,807.3,512.9z"/>
				<path class="st1" d="M791.5,481.6c0,0-2.7-9.9-7-10.1c-4.3-0.2-5.1-3.7-6.7-6.1c-0.3-0.5,3.9,4.6,6.8,4.1
					c2.9-0.5,4.2-1.4,6.4,2.6C793.1,476.2,791.5,481.6,791.5,481.6z"/>
			</g>
			<g>
				<path d="M766.8,665.2c0,0-2.2,15.2-3.6,18.6c-1.4,3.4-5,4.8-6.4,11.8c-1.4,7-4.4,12.2-4.4,17.3s-4.6,20.1-4.4,21.9
					c-2.8,5.2-4.2,7.8-2.2,8.6c2,0.8,9.6-0.2,11.6-5c2-4.8,5.4-13.2,5.4-13.2s0.4,6.2,2.2,7.4c-0.2,5.8,0,7.6,0,9.8s1.8,5.6,1.8,7.8
					s0.3,9.9,0.5,11.5c0.2,1.6,1.1,6.2,3.1,6.3c4.2,0.4,5.7-1.1,6.1-4.7c2.1,3.5,9.1,2.6,10.1-7c1.5,1.6,7.9,1.8,9.3-3.4
					c1.4-5.2,2.9-7.6,2.9-7.6s-0.1,3.5,2.3,2.3c3.2-1.6,5.1-3.1,5.7-7c0.6-3.8,1.9-12.8,1.1-16c-0.8-3.2-2.4-26.7-3.6-28.3
					c-1.2-1.6-3.2-7.4-4-10.4s-0.6-16.3-0.6-16.3L766.8,665.2z"/>
				<path class="st1" d="M789.8,757.7c0,0,4.6,1,7.1-5.6c2.5-6.7,4.6-11.3,3.3-15s-1.7-10.4-1-12.3c0.6-1.9,1.7-4.6,0.4-6.5
					c0.1,3.8-2.1,6.8-2,8.4c0.1,2.2,1.1,9.5,1.3,11.7c0.2,2.2-2.5,12.4-4.2,15.4C792.7,757.2,789.8,757.7,789.8,757.7z"/>
				<path class="st1" d="M799.4,747.7c1.6-0.4,4.3-0.5,5.8-4.6c1.5-4.1,2.7-8.1,2.7-12.4c0-4.3-1-14.7-1.5-15.2s-2.1-1.3-2-2.2
					c0.1-1-1.2-16.6-1.4-17.7s-2-6.7-1.8-6.5s5.1,6.3,6.4,25c0.1,2,0.8,11.9,1,15.5s-1.1,11.9-2.1,14
					C805.4,745.7,801.6,749.4,799.4,747.7z"/>
				<path class="st1" d="M780.1,765.3c0.2,0.1,4.6-0.2,5.9-4.1c1.1-3.1,2.2-12.2,2.3-13.1c0.1-0.9-1-19.1,0-20.7
					c1-1.6,1.9-5.4,0-7.7c-1.9-2.3-1.4-1.4-0.5,1.8c1.1,3.5-1.8,6.8-1.8,8.3c0,1.6,0.2,19.2-1,19.7c1.1,0.7,1.5,0.8,1.2,3
					c-0.2,2.2-1.3,9.9-3.3,11.5C781.3,765.3,780.1,765.3,780.1,765.3z"/>
				<path class="st1" d="M771.2,768.1c3.1,0.2,5.5-0.6,5.4-5.6c-0.1-5-0.3-12.3-0.3-14.6c0-2.3-0.8-11.7-0.9-13.2
					c-0.2-1.6,0.8-2.6,1.3-4.7c0.5-2,0.4-4.7-0.6-5.3c-0.4,2.9-0.5,8.7-2,9.9s1-0.1,1.2,5.4s0,9.5,0.5,10.9
					c0.5,1.4,0.5,12.8,0.1,13.7S775.9,767.1,771.2,768.1z"/>
				<path class="st1" d="M764.9,740c0-2.1-0.5-7.3-0.5-7.3s-1.8-3.5-1.8-6.7c-2.5-4.8-4.2-16-4.4-19.8c0,0,4.5,17.7,5.2,18.8
					c0.7,1,1.2,7.2,3,7.3C765.2,734.3,764.9,740,764.9,740z"/>
				<path class="st1" d="M745.7,743.4c0,0,8.7-0.1,10.2-4.6c1.5-4.4,6.5-15.7,6.5-15.7s0.7,0.6,1.1,1.8c0.4,1.2-4.9,13.4-6.1,15.1
					C756.2,741.6,750.2,745,745.7,743.4z"/>
			</g>
			<path d="M816,1061.8c0.9,4-1.5,20.9-1.8,23.7s-3.7,24.9-3.7,27.7s4.2,18.8,6.1,19.5c2,0.6,14.1,0.2,18.2-0.4
				c4-0.6,20.2-12.3,24.8-20.6c4.6-8.4,3.4-19.6,2.1-23c-1.2-3.4,1.7-9.5,1.3-13.5c-0.3-4-9-20.7-11.9-22
				C848.2,1051.9,816,1061.8,816,1061.8z"/>
			<path d="M393.3,405c0.8-3.8,11.8-36,13.1-39.3c1.3-3.4,39.4-56.5,41.5-58.2c2.1-1.7,6.9-4.7,7-4.9c2.8-5.6,12.1-18.2,12.5-18.8
				c0.6-0.9,7.1-2.9,20.6,3.8c13.4,6.7,21,14.3,20.2,16c-0.8,1.7-13.9,24.4-16.8,26.8c-2.9,2.4-6.5,3.9-6.2,8.4
				c0.2,3.1-2.6,11.4-6,17.5c-3.4,6.1-7.6,3.6-9.2,9.1c-1.7,5.5-6.3,23.1-12.6,27.9c-6.3,4.8-35.1,23.5-44.1,26.5
				C406.3,421.9,391.3,414.9,393.3,405z"/>
			<path class="st1" d="M499.7,370.9c0,0-0.8-4.6,4.6-4.9s17.6-1.8,19.9-3.4s26.8-10.7,30.1-10.7s16.5,3.3,22.7,4.3
				s-27.4,35.5-29.4,35.9c-1.9,0.4-7.8-21.2-11.8-22.6c-2.1-0.8-9.1-2.7-11.3-2.5c-2.2,0.3-17,1.2-18.7,1.5c-1.7,0.3-1.4,4-1.4,4
				s20.6,10.7,30.7,30.3C516.9,380.6,499.7,370.9,499.7,370.9z"/>
			<path class="st1" d="M461.2,374.1c0.2,0.3,2.4-2,10.6-3.5c3.1-0.6,5.8-1.9,9.1-0.5c7.1-0.3,14.9-0.6,21-0.2l2.7,2.6
				c0,0-6.9-2.4-10.5,0.3c9.3,3.2,24.4,16.9,32.6,30.6c-17-23.1-37.7-31-44.1-30.6c7.2,8.3,8.2,17.9,6.5,22.8
				c1.7-11.2-9.3-24.6-13.7-23.7S461.2,374.1,461.2,374.1z"/>
			<path class="st1" d="M397,414.7c0,0-3.5-1.8-1.5-9.6c4.6-17.9,30.6-34.7,33.2-37.9c2.6-3.2,22.8-9,22.8-9s-21.4,4-23.7,4.8
				c-2.3,0.9-15.5,13.3-16.2,12c-5.3-9.4,5.3-15.7,9.7-20.7c4.4-5,25.3-16.3,25.3-16.3s15.4-3.7,14.5-4.7
				c-0.9-0.9-12.3,0.9-13.5,0.3s-19.3,6.6-19.3,6.8s22.3-27.8,22.3-27.8s14.3-5.9,17.5-4.2c3.2,1.8,12.7,1.1,15,6.8
				c-6.4-12.1-14.5-9.8-15.9-11.2c-1.5-1.5-2.6-3.8-2.6-3.8l10.5-15.3c0,0,22.6,5.6,27.8,12.1c-16-15.8-33.6-16.6-33.6-16.6
				L454,302.3l-5.3,2.6l-42.8,58c0,0-5.9,18.1-7.7,22.2c-1.8,4.1-8.1,17.4-8.1,19.7S397,414.7,397,414.7z"/>
			<g>
				<path class="st1" d="M501,301.6l5.3-5.1c0,0,10.1,0,12.6-0.9c2.5-0.9,16.4-11.9,18.3-14.7s4.6-5,8.6-6.8c4-1.8,7-2.5,5.7-4.3
					c-1.3-1.9-5.2-4.2-7.1-3.5c2.8-0.8,7.8-0.7,9.1-2.3c4.7,1,8.8-1,8.8-1s12.4-0.9,7.6-8.7c2.2-1.8,3.8-6.8-3.2-6.3
					c-1.2-3.2-3.5-4.2-5.5-3.8c-2,0.4-14.5-0.3-16.5-0.1c-2,0.2-9,0.2-9.5,0.7c-0.5,0.4,4.1-3.5,3.4-6.1c-0.7-2.7-3.5-3.1-4.1-2.2
					c-0.7,0.9-12.6,7.9-14.5,9.4s-13.3,6.6-15,7.9c-1.8,1.3-13.1,15.5-15.1,18c-2,2.6-12.5,13.5-14.3,15c-1.8,1.6-0.6,1.2-2.4,4.6
					c-1.8,3.3,15.2,8.3,15.2,8.3L501,301.6z"/>
				<path d="M530.7,286.2c0,0-8.8,4.3-10.5,5.4s-9.5,1.6-11,1.3s-3.2-5.1-3.2-5.1l-6,3.1l-6.9-0.5l-9.4-5.5c0,0,4.6,8,5.5,9.4
					c0.9,1.4,7.6,2.7,8.4,2.7c0.8,0-5.1,7.9-5.1,7.9s9.7-0.6,9.9-1.1c0.2-0.4,2.9-7,2.9-7l11,1l12.3-5.8c0,0,9.7-11.8,11.6-13.1
					c1.9-1.3,8.5-6.2,8.6-7.4c0.1-1.2-4.7-5.1-4.3-5.1s7.6-0.2,9.8-2.2c7,0.8,8.3-1.1,8.3-1.1s5.6-0.1,8.2-4.4
					c-4.4,1.1-5.1,0.5-5.1-0.5c4.2-2.6,4.1-5.4,4.1-5.4s-3.2,1.5-7.5,0c3.1-3,4.7-4.1,4.2-6.3c-6.8,4.5-12.7,5.3-14.6,5.7
					c-1.9,0.4-11,0.5-11,0.5s-9.8,3.7-10.9,3c-1.1-0.6-2.6-1.7-0.8-3.4c1.8-1.7,8.3-7.6,10.3-7.6c-4.2-0.3-3.7-0.5-3.7-0.5
					s4.3-3.1,2.6-6.2c-1.2,2.8-8.8,11.4-9.3,12.2c-0.4,0.8-7.3,3.2-9,4.2s-7.6,0-7.6,0s1.9,2.8,3.8,3s9.7,1,9.7,1s-1.1,3-2.9,3.7
					c-1.8,0.6-13.7,1-15.1,0.8s-2.2,2.4-0.8,2.7c1.4,0.3,10.5,1.5,10.5,1.5s8.8,1,11.6,2.5s2.7,5.2,2.7,5.2s-3,4.4-2.6,5.8
					C530,281.6,530.7,286.2,530.7,286.2z"/>
				<path d="M503.5,287.1c1.6-0.8,7-3.4,10.1-5.6C506.5,284,503.5,287.1,503.5,287.1z"/>
				<path d="M501.9,282.8c0.8,0,4.6-2.2,10.2-5.9c5.6-3.7,5.6-3.7,5.6-3.7s-9.6,2.6-11.9,5.7C503.6,282.1,501.9,282.8,501.9,282.8z"
					/>
				<path d="M508.6,273.2c0.8-0.3,9.8-4.2,12.3-4.8c2.5-0.5,12.2,0.5,12.6,0.8c0.4,0.3-0.3,7.2-1.2,8.2c-1,1-5.6,2.7-7.9,3.3
					s-6.6,0-6.6,0s6,1.2,9.3,0.8c3.3-0.4,7.2-4.6,7.4-5.3c0.1-0.7,1.1-7.9,1.1-7.9s-12.4-2.4-13.5-1.8
					C521,267.2,508.6,273.2,508.6,273.2z"/>
			</g>
			<path class="st1" d="M504.3,428.1c1.3,0,5.5,4.2,5.5,4.2s14.8,2.1,16.9,1.4c2-0.8,12.9-0.2,14.9,1c1.9,1.2,5.5,9.4,5.5,9.4
				s-7.3-6.9-9.4-7.5s-49.2-1.5-59.6-1.7s-47.9-2.3-50.2-2.9c-2.3-0.6-18.9-9.9-18.9-9.9c0.5,0.2,21,7.4,25.8,7.4
				c4.8,0,24.9,2.5,28.4,1.2c3.5-1.3,22.5-8.3,22.1-7.5c-0.4,0.8-15.7,7.1-14.6,7.9"/>
		</g>
		<g>
			<rect x="1558.5" y="487" class="st4" width="316.1" height="979.9"/>
			<polygon class="st4" points="1559.7,1467.3 1393.8,1406.2 1393.8,481.6 1559.7,486.2 			"/>
			<line class="st5" x1="1395.4" y1="507.7" x2="1558.6" y2="514.3"/>
			<g>
				<line class="st4" x1="1392.7" y1="1009.9" x2="1558.7" y2="1047.4"/>
				<line class="st4" x1="1392.4" y1="877.7" x2="1558.3" y2="907.4"/>
				<line class="st4" x1="1392" y1="745.6" x2="1558" y2="767.4"/>
				<line class="st4" x1="1391.7" y1="613.5" x2="1557.6" y2="627.4"/>
				<line class="st4" x1="1391.3" y1="481.4" x2="1557.3" y2="487.4"/>
			</g>
			<g>
				<rect x="1288.4" y="563.6" class="st6" width="261.6" height="194.7"/>
				<polygon class="st7" points="1550,563.6 1392.9,549.9 1168,542.4 1277.8,553.9 1289.2,553.9 1288.4,563.6 				"/>
				<polygon class="st6" points="1047.8,530.5 1276.9,553 1276.9,765.3 1047.8,742.8 				"/>
				<rect x="1277.8" y="553.9" class="st6" width="11.5" height="211.4"/>
			</g>
			<g>
				<g>
					<path d="M1350.6,549c-2.8-2.8-10.8-7-14.9-8.5c-4-1.5-9.1-3.4-9.8-7.7c-0.6-4.3-2.7-17-4.4-19.1c-1.7-2.1,17.4-21.7,18.9-22.7
						s20.2,8.7,20.2,8.7l25.5,9.1c0,0,11.5,9.4,14.9,11.5c3.4,2.1,19.4,25.3,19.4,25.3s-6.2,2.6-8.5,0.4c0,0-5.5,1.9-7.4,0.4
						s-7.9-6.2-8.5-7.4c-0.6-1.3-7.7-11.3-8.9-11.5s-14-1.5-14-1.5s4.3,10,5.1,12.1s3,6.6,1.3,7.4c-1.7,0.9-6,1.3-9.1-4.7
						c-3.2-6-6.8-13.6-10.8-13.8c-4-0.2-9.8-0.4-10,1.5c-0.2,1.9,3.2,6.6,6,10c2.8,3.4,4.9,9.4,4,10S1350.6,549,1350.6,549z"/>
					<path d="M1220.1,459.7c4.5-9.2,20.9-24.3,30-23c9,1.3,52.4,23.2,57.3,27.6s30.5,15.8,33.1,16.5c2.6,0.8,0.8,3.9,0.8,3.9
						l10.4,7.7c0,0-12-0.9-21,11.2c-5,6.8-9.3,9-9,10.1c0.3,1-8.3-2.3-8.3-2.3s0.3,5.2-1.8,5.4c-2.1,0.3-23.2-9-25.3-9.3
						c-2.1-0.3-49.6-17.3-55-20.7C1225.7,483.5,1216.5,467.2,1220.1,459.7z"/>
					<path d="M1066.7,408.9c5.7-1.1,29.9-2.4,45.9,6.7c16,9,92.7,18.6,101,18.1s36.4,1,36.4,3.1s-11.4,54.8-11.4,54.8
						s-116,2.8-121.9,1.5s-37.7-28.7-46.2-37.7C1062,446.3,1066.7,408.9,1066.7,408.9z"/>
					<path class="st1" d="M1066.7,408.9c6.2-6.9,40.6-3.9,59.3,10.6c48.8,11.4,74.1,13.3,81.9,12.7c7.8-0.6,37.4,0,42.8,0.6
						c5.4,0.6,47.6,23.5,61.5,30.7c13.9,7.2,29,17.2,29,17.2s2.6,2.5,0.3,4.5c-1.9,1.6-3.9,1.8-5.9,1.8c-2.4,0-54.1-29.5-59.5-31.9
						c-5.4-2.4,7.2,12.1,7.2,12.1s-25.3-23.5-27.1-24.1c-1.8-0.6-32.5,3-39.2,4.2c-6.6,1.2-21.1-1.8-21.1-1.8s39.2-4.1,41.6-6
						c3-2.4-39.2-0.6-45.2-1.8c-6-1.2-44.6-7.2-50.6-7.2c-6,0,12.7,9,12.7,9s-23.5-5.4-28.9-9c-5.4-3.6-12.1-9.6-20.5-12.1
						c-8.4-2.4-27.1-5.4-32.5-3.6S1066.7,408.9,1066.7,408.9z"/>
				</g>
				<g>
					<g>
						<path d="M1033.4,1469.1c-25.1,1.6-45,3.2-59.4-24.1c-14.5-27.3-16.6-26.2-15.5-85.1c1.1-58.9-5.4-131.2-3.7-157.9
							c1.6-26.8,2.1-66.9,12.3-79.8c10.2-12.8,10.2-20.3,8-25.7c-2.1-5.4,0.5-19.8,2.7-31.6c2.1-11.8-6.4-27.3-5.9-35.9
							c0.5-8.6,1.1-13.9,1.1-23.6c0-9.6-6.4-54.1-6.4-54.1s-7-2.7-4.8-11.2c2.1-8.6-4.8-9.1-5.9-15.5c-1.1-6.4-2.7-1.1-1.1-6.4
							c1.6-5.4-7-57.3-5.9-86.7c1.1-29.4,20.4-81.8,22-88.2c1.6-6.4,14.1-31.8,15.7-30.7c1.6,1.1,74.7-5.8,106.8-11.7
							s58.4-1.6,58.4-1.6s3.9,12.3,2.3,28.3s2,83.7-34.4,140.8c-15,89.4-41.8,217.3-49.8,241.4c-8,24.1-21.9,80.3-28.9,123.1
							c-7,42.8-7,89.4-7,99s10.7,33.7,10.2,40.7s-7,18.2-7,18.2l4.8,18.7c0,0,7,2.1,9.1,11.2c2.1,9.1,1.6,38,1.6,38
							S1042,1468.6,1033.4,1469.1z"/>
						<path d="M1079.5,1403.3c11.8-2.7,35.3,4.8,45.5,3.2c10.2-1.6,19.8-7,16.6-15c-3.2-8-12.3-21.9-12.3-28.9
							c0-7,6.4-10.2,6.4-15.5s-2.1-15.5-3.2-22.5c-1.1-7,2.1-51.4,2.1-62.6s2.7-47.1,2.7-47.1s5.9-10.2,6.4-18.7s-5.4-26.8,0-57.3
							s8.6-35.9,22.5-110.3c13.9-74.4,30.5-140.3,24.6-194.9s-29.8-120.2-33.5-128.3s-21.9-12.7-37.9-5.2
							c-16.1,7.5-74.7,7.2-74.7,7.2s13.4,418.6,15,434.7c1.6,16.1-2.7,71.7-5.9,90.5c-3.2,18.7-11.2,52.5-7.5,66.9
							c3.7,14.5,9.6,53.5,12.3,61s-5.4,13.4-5.4,21.9s4.8,16.6,4.8,16.6L1079.5,1403.3z"/>
						<path d="M941.6,840.2c0,0,178.6-5.2,185.6-9.3c7-4.1,27.3-83.2,27.3-95.4c1.2,85.5,5.2,87.8,8.7,88.4
							c3.5,0.6,30.2-9.3,31.4-11.1c1.2-1.7-20.5-114.4-39-140.8c-8.1-11.6-12.5-58.2-10.8-62.8c1.7-4.7,19.6-53.6,19.6-69.3
							c0-15.7-21-70.3-25.1-76.7c-4.1-6.4-11.6-24.4-23.3-30.2c-11.6-5.8-30.8-22.7-34.9-25.6c-4.1-2.9-8.7-14.5-11.6-18.6
							c-2.9-4.1-64-38.4-83.2-26.2c-19.2,12.2-55.8,39-62.8,47.7c-7,8.7-12.8,25.6-11.6,34.9c1.2,9.3,28.5,97.7,37.2,116.9
							c8.7,19.2,31.6,81.3,32.2,93.6s-21.2,67-25.8,83.3C950.9,755.3,935.7,813.5,941.6,840.2z"/>
						<path class="st1" d="M1072.2,417.3c0,0-36.1-5.9-70.2-40.3c0.6,1.4,23.6,53.7,45.6,70.6
							C1055.6,430.2,1072.2,417.3,1072.2,417.3z"/>
						<path class="st1" d="M1072.1,417.2c3-16.9-2.4-28.6-2.4-28.6s20.4,22,20.6,39.6C1081.7,418.9,1075.9,419,1072.1,417.2z"/>
						<path class="st3" d="M1063.8,427.8c-0.6-1.5,7.7-8.2,8.4-8.8s5.7,0.7,7.5,2.4c1.8,1.7,2.8,3.9,3.1,5.6c0.3,1.7,0,8.8-0.4,10.7
							s-5,2.7-7.3,2.7S1066.8,434.9,1063.8,427.8z"/>
						<path class="st3" d="M1074.2,442.1c0,0,7.3,1.5,10.1-3.2c9.9,21.4,13,34.4,13,35.4s2,45.1,2,45.1s-24.5-27.8-24.5-28.6
							S1074.2,442.1,1074.2,442.1z"/>
						<path class="st1" d="M1073.6,489.5c-12.3-14.1-29-34.5-36.6-48c10.9,10.7,11.7,10.1,11.7,9.6c-0.1-0.4,11.4-11.9,17.7-14
							c1.4,2.8,5.4,4.5,5.4,4.5S1071.9,480.1,1073.6,489.5z"/>
						<path class="st1" d="M1085.1,437.6c0,0,0.3-7.2-0.4-10.1c5.4,2.3,6.2,3.1,6.2,3.1s3.5,23.8,4.2,31.7
							C1091.4,451.9,1085.1,437.6,1085.1,437.6z"/>
						<path class="st1" d="M1106.7,551c0,0-98.7-83.2-127.4-144.2c26,32.1,31.8,40.9,31.8,40.9l12.3-10.5l-7.7,15l64.6,54.6
							c0,0-77.7-107.4-80.7-111.9c-3.1-4.6-13.3-32.3-13.3-32.3s-52.5,35.6-62.8,47.7c-8.1,7.6-20.3,30.5-5,62.7
							c0,0,1.5-44.4,26-27.5c24.5,16.8,47.4,41.3,52,58.1c0,0-44.2-77.9-50.5-84.2c-6.3-6.2,7.4-14,15.3-18.4
							C981.2,445.5,1032.6,496.4,1106.7,551z"/>
						<path class="st1" d="M1092.2,417.1c0,0,12.5,83.9,11.2,128.4c1.5-31.8-0.7-85.6-2.4-93.2
							C1099.3,444.8,1092.2,417.1,1092.2,417.1z"/>
						<polygon class="st1" points="1107.2,458.9 1099.1,447.2 1103,509.6 						"/>
						<path class="st1" d="M1098,446.8l10,8c0,0-15.9-38.4-15.7-37.2C1092.6,419.2,1098,446.8,1098,446.8z"/>
						<path class="st1" d="M939.4,841.6c0,0-3.8-11.6,2.1-51.4c5.8-39.7,37.7-128.7,37.7-132.5c0-3.8,1.4-8.6-12.3-44.2
							c-13.7-35.6-51.4-142.1-52.4-153s43.5,110.2,50.7,122.9s29.8,72.9,31.8,79.8c2.1,6.8-26,89-17.8,180.4
							C954.1,845.7,939.4,841.6,939.4,841.6z"/>
						<path class="st1" d="M949.8,856c0,0,2.3,39.5,3.4,42.5c1.1,3,0.6,8.4,0.6,12.2c0,3.8-2.3,11.4,0,10.9c2.3-0.6,8.6-5.9,9.3-4.4
							c0.8,1.5-0.4,13.2-0.6,17.5c-0.2,4.4-2.9,8.2-2.1,10.5c0.8,2.3,3,5.5,6,6.3c-2.6-6.8-2.6-9.3,2-15.6
							c4.6-6.3,13.7-22.9,13.7-22.9s-15.1,43.6-13.9,51.1c1.1,7.4,3.8,40.4,3.8,44.2c0,3.8-1.3,22.5,0.2,26.5
							c4.4-17.9,9.9-37,9.9-37s-2.5,56.6-3.2,61.6c-0.8,5-5.1,20.2-5.3,25.5c-0.2,5.3-0.2,10.1,2.3,16c1.1-12.2,4.2-30.1,5.3-36.4
							c1.1-6.3,4.2,33-7.4,48.6c-11.6,15.6-15.1,18.9-17,40.8s-5,80-2.9,106.5c2.1,26.5,3,111.5,3.2,115.7
							c0.2,4.2-2.3,46.7,12.4,60.6c0,0,17.7-1.9,24,0.6c0,0-17.1-3.9-18.9-6.5c-5.3-7.7-4.8-62.3-6.3-86.7s-2.6-106.6,6.6-132.6
							c9.2-26,11.2-35.2,12.2-53c0,0-18.9,50.5-23.5,59.7c0-49,14.3-90.3,20.4-106.6s6.6-60.7,9.2-67.8s15.3-39.3,15.3-39.3
							s-20.4,33.7-20.4,29.1s1-63.2-1.5-76s0.5-44.9,0-51.5s-8.7-31.6-7.1-46.9C962.4,863.7,949.8,856,949.8,856z"/>
					</g>
					<g>
						<g>
							<path d="M1167.4,291.6c2.4-2.9,26.1-5.5,24.9-23.1c-1.2-17.6-19.6-57.4-40.8-52.6c-22.4-30.6-82.7-38.8-98.6-23.4
								c-15.9,15.4-71.3,43.7-68.9,100.7c0.6,14.5-17.2,30.7-47,49.7c-20.1,12.8-12.9,46.4-6.9,67.9c7.3,20,20.5,4.1,21.7,1
								c-10.8-3.2-5.5-13.2,2.9-16.9c34.2-15,84.9-17.9,84.9-17.9L1167.4,291.6z"/>
							<path class="st1" d="M1066.7,408.9c0,0,0.8-3.6,1.7-8.3c1.4-6.9,3.4-16.1,4-19.2c1-5.2-2.1-47.2-5.2-52.9
								c-3.1-5.7-7.8-20.2-8.8-9.8c-1,10.4-28.9,36.4-36.7,50.9c-6,11.3-3.9,8,1.8,14.2S1066.7,408.9,1066.7,408.9z"/>
							<path d="M1067.1,410c9.3-13,10.2-37.8,19.9-29.6c10.7,8.9,22.5,13,26.8,9.1s2.9-10.5,3.7-12.3c1.9-4.4,9.6-3.5,12.7-3.5
								c3.1,0,5.2-5.2,2.5-10.6c6.2,1,8.4-1.2,8.4-1.2l1.5-10.6c0,0,5.9,2.7,12.7,0.8c1-0.7,2.4-1.2,2.1-2.3
								c-4.7-17.5-4.1-32.9-4.1-32.9s10.2-11.7,12.2-17.2s4.7-21.8-1.6-31.7s-14.6-18.1-14.6-18.1s-50.1,26.4-55.2,27.2
								c-5.1,0.8-13,3.9-14.6-0.4c-1.6-4.3-8.7-15.4-12.6-14.2c-3.9,1.2-13.4,28.8-11,39c2.4,10.2,1.1,25.3,0.8,31.6
								c-1,21.7,3.9,19.6,4.9,29.4c1,10.1-14,26.5-15,34.8C1045.9,403.4,1062.9,409.4,1067.1,410z"/>
							<path class="st1" d="M1104.4,387c-3.9-2.5-34.7-38.8-36.2-49.8c-1.6-11,3.1-40.6,7.4-48.8c4.3-8.3,30.8-12.5,36.3-16.4
								c5.5-3.9,27.3-12.2,33.8-12.2c6.2,14.4,10.4,29.7,10.4,33.3c0,3.5-10.6-3-18.5-3c-7.9,0-16.8,5.2-18.7,7.2
								c-2,2,14.7,23.1,12.8,30.6c-1.2,4.6-15.8,9.9-17,18.2c-0.3,2.2-2,6-0.1,7.2c1.7,1,5.6,9.6,3.6,10c-4.7,0.8-6.8,6.5-6,10.3
								C1113.7,380.6,1108.2,389.5,1104.4,387z"/>
							<path class="st1" d="M1068.3,312.5c-1.9,2.1-7.6,1-10.5-5.4c-2.9-6.4-3.3-14.6-2.3-18.3c1-3.7,6.2-22.2,8.6-25.3
								c2.3-3.1,7.8-2.5,11.1,3.1c3.3,5.6,5.4,11.9,5.4,11.9s-8.2-9.3-10.3-8.4c-2.1,1-4.3,2.3-4.3,5.8c0,3.5-1.9,14.4-2.3,15.2
								c-0.4,0.8,3.5-4.3,4.1-6.2c0.6-1.9,1.9-8.6,1.9-8.6s-1,14.6-1.9,16.9s0.2,7.4,0.2,7.4s-2.5-1.4-4.1-3.9
								c-1.6-2.5-1.6,0.8-1.2,2.5c0.4,1.7,4.9,8.4,6,8.6S1068.3,312.5,1068.3,312.5z"/>
							<path class="st1" d="M1136.4,355.5c-0.7-0.4-7.7-1.8-10.8-1c-1.8,0.5-7.4-2.3-7.8-3s-2-1.3-2.5-1.1c-0.5,0.3-2.3,1.3-2.3,1.3
								s1.9-7.5,2.9-8.8c2.7-3.2,10.1-5,11.7-5.7c1.6-0.7,10.6,0.9,10.6,0.9s0,3.7,0,5.9C1138.2,346.2,1137,355.9,1136.4,355.5z"/>
							<path class="st1" d="M1114.2,353.1c0.4,0,5.2,2,7.4,2.7c2.2,0.7,6.8,4.2,7.2,5.3s1.9,4.3,1.9,5.9c0,1.6-1.3,3.9-2.9,3.2
								c-1.6-0.7-8.5-8.4-10.5-10.8C1115.2,357,1114.2,353.1,1114.2,353.1z"/>
							<path class="st1" d="M1140.3,345c-0.5-1.9,3-4.5,4-4.9c1-0.4,5.8,7.1,5.8,7.1s-4.7-2.1-6.2-1.8
								C1142.5,345.6,1140.9,346.9,1140.3,345z"/>
							<path class="st1" d="M1127.7,294.1c3.1-0.7,7.2-1.6,9.7-0.6c2.4,1,4.7,2.8,5.8,4c1.1,1.2-1,6.8-1,6.8s-3.4-2.5-6.2-3.3
								c-2.8-0.8-15.6-2.7-17.7-3.7L1127.7,294.1z"/>
						</g>
						<path d="M1093.5,377.9c1.7,2.2,9.4,11.6,11.6,11.6s10.2-12.4,10.8-14.9c0.6-2.5,15.2-1.7,15.4-3.3c0.3-1.7-1.9-11.6-1.7-12.4
							s9.9-3,9.9-3.9s4.4-6.6,5.2-6.6c0.8,0,5.4-1.2,5.4-1.2l-0.7-42.4c0,0,11-8.3,10.8-9.7c-0.3-1.4-9.4-39.7-14.6-38.6
							c-5.2,1.1-37.5,15.7-37.5,15.7s20.7-3.9,23.7-4.4c3-0.6,6.3,8,4.1,10.5c-2.2,2.5,6.3-5-2.2,2.5c-8.6,7.4-21.8,13-26.8,14.6
							c-5,1.7,2.5,19.6,0.8,24.6c-1.7,5-13.8,5.5-15.7,10.2S1092.6,376.8,1093.5,377.9z"/>
						<polygon points="1082.8,279.8 1115.8,305.3 1121.3,298.9 1087.7,275.8 						"/>
						<path class="st1" d="M951.6,415.7c0,0-5.5,7.9-11.7,5.9s-11-5.5-11.7-16.2c-6.2-4.1-24.4-4.5-21.7-24.1
							c2.4,12.7,12.1,9.3,12.1,4.8s-5.9-26.2-3.1-33.4c2.8-7.2,22.7-18.6,32-21.4s35.5-23.1,34.8-33.4c-0.7-10.3-2.8-40.6,5.2-55.1
							s51-39.9,57.9-47.5s54-35.3,106.2,20.6c-31.1-15.1-51.8-28.2-73.8-17.8c-22,10.3-47.9,35.8-32.7,37.9
							c15.2,2.1,43.7,15.2,57.2,9.6c13.4-5.5,39.3,4.8,39.3,4.8s-25.1-1.4-33.4-0.7s-34.8,15.5-41.7,16.2s-57.2-5.9-61.3-1
							c-4.1,4.8-11.7,35.7-4.8,40.3c19.7,13.1-29.8,19.4-37.5,38.9c-2.4,6.1,6.9,16.5,18.3,12.7c11.4-3.8,23.4-9.6,24.8,1
							c1.4,10.7-9.3,25.8-22,25.5c-12.7-0.3-26.2-11.4-25.1-2.4s-16.5,10.7-19.6,6.2c-3.1-4.5-8.3-1.4-5.5,7.9
							C936.1,404.3,934.7,418.8,951.6,415.7z"/>
						<path class="st1" d="M1152.4,280c0,0,9.5,10.7,14.9,11.6s23.3-9,24.7-11.3s4.7-16.9-1.2-24.8s-6.6-11.3-6.6-11.3
							s3.8,18.5,3.5,22.5s-4.2,13.6-9.4,15.2C1173.3,283.5,1171.4,292.2,1152.4,280z"/>
						<path class="st1" d="M1163.9,295.3c0,0-0.1,0.8-1,4.1s-9.2,14.4-10.1,15.3c-0.9,0.9,0.3,27.1,0.3,28.3c0,9.7-7.2-3.1-8.1-3.1
							s-4,4.9-4,5.6c0,0.7,3.4,0.3,4.3,0.1s9.1,3.5,10.2,4.2c1.1,0.7,1.9-0.5,1.5-1.7c-0.5-1.2-2.6-18-3.1-21.8
							c-0.5-3.7-0.7-9.3-0.7-9.3s9.5-10.6,10.9-14.1c1.4-3.5,2.6-6.7,2.7-8C1165.2,295.9,1163.9,295.3,1163.9,295.3z"/>
						<path class="st1" d="M1141.2,361.8c0,0-2.3-5.1-2.8-5.1c-0.6,0,1.7-5.6,2-6.5c0.3-0.9,2.1,0.3,2.3,1
							C1142.8,351.8,1141.2,361.8,1141.2,361.8z"/>
						<path class="st1" d="M1132.8,363c0.1,0.5,1.5,5.4,0.6,7.6c-0.9,2.2-1.1,0.9-2.1,0.7c-1-0.2-3.1-1.2-4-2
							c-0.9-0.8-1.5-8-2.9-10.1s1.5-0.8,4,0.8C1130.7,361.5,1132.7,362.4,1132.8,363z"/>
						<path class="st1" d="M1129.8,367.5c-0.3,1.6,0.8,2.8-0.9,3.9s-8.2,0.5-10.8,0.7c-2.6,0.2-3.4,1.9-3.4,4.6
							c0,2.7-0.3,8.5-1.7,10.5c-1.4,2-5,3.4-7,3.3c5.9,1.2,9.3-1.1,10.2-4.5s0.5-9.5,2.2-10.5s6.9-2.2,9.3-2
							c2.4,0.1,5.7-0.6,5.7-2.8S1130,366.2,1129.8,367.5z"/>
					</g>
					<path class="st1" d="M1119.8,313.8c-3.1-5-0.7-14.4,1.3-17.9s8.8-4.9,19.7,3.5c7.9,6,7.9,8.5,7.9,8.5s-8-8-11.4-9.3
						c-11.8-4.4-14.9-2.4-16.3,4.2c-0.3,1.5-1.2,6.4-0.7,8.8c0.9,4.3,3.8,8.3,5,10C1125.3,321.5,1122.9,318.8,1119.8,313.8z"/>
					<path class="st1" d="M1118.7,299c-0.4,0.1-37.2-26.6-37.2-26.6s-0.1,4.5,0.3,4.5c0.4,0,35.7,26.9,35.7,26.9L1118.7,299z"/>
					<path d="M1052.1,265.8c6.4,0.5,20-0.9,27.9-5.1c7.9-4.2,20.3-3.6,20.3-3.2s-13.2,8.6-16.7,10.1c-3.5,1.5-20.6,7.1-29.5,6.4
						C1045.1,273.2,1052.1,265.8,1052.1,265.8z"/>
					<path class="st1" d="M1021.4,252.6c-6.2,3.7-18.4,15.6-16.2,25.8c2.2,10.3,13.1,26.5,14.3,30.8c1.2,4.4,2.2,14.3-3.4,15.6
						s-13.7-0.6-17.8,4s-6.2,8.1-1.9,11.8c4.4,3.7,14.6,3.4,15.9,5.9c1.2,2.5,5.3,11.2,1.6,17.4c10-7.2,5.9-22.1,2.2-22.7
						c-3.7-0.6-10-6.9-4.4-7.2c5.6-0.3,14,0,18.7-5.6c4.7-5.6,7.8-23.7,5-29.6c-2.8-5.9-7.2-24.9,3.4-28s27.1-5.3,21.2-12.5
						C1054.1,251.3,1021.4,252.6,1021.4,252.6z"/>
				</g>
				<g>
					<path d="M1094.7,608.7c-12.8,4.2-36.3-2.9-41.5-6.8c-5.2-3.9-97.7-99.4-111-114.3c-13.3-14.9-21.3-48.8-20.4-62.7
						c1.2-17.8,16.5-17.1,28.7-18c12.2-0.9,54.8,4.6,61.2,42.7c16.6,18.4,46.3,50.7,54.8,64.5s18.8,23.7,18.8,23.7
						s16.6,26.9,19.9,37.7C1108.3,586.3,1101.8,606.4,1094.7,608.7z"/>
					<path d="M1064,588.4c-1.8-14,5.5-45.1,12.8-54.3c7.3-9.2,66.5-29.9,74.4-34.2c7.9-4.3,40.3-23.8,42.7-23.8s2.4,0,2.4,0
						s13.4-7.9,17.1-7.9s23.8-1.2,29.3,12.2c5.5,13.4-6.7,23.2-6.7,23.2l-6.1,3.7l2.4,11c0,0-37.8,29.2-59.4,45.7
						c-6.7,5.1-11.8,9-13.8,10.4c-8.5,6.1-58,31.1-66.5,34.8C1084.2,612.8,1064,588.4,1064,588.4z"/>
					<path d="M1218.4,498.1c0,0,16.5,9.2,26.2,11c9.8,1.8,29.9,9.2,29.9,9.2s8.5,9.8,8.5,14.6s2.4,22.6,7.3,22.6s4.9,0,4.9,0
						s-5.5-12.8-5.5-18.3c0-5.5,1.2-12.2,1.2-12.2s5.6,9.5,6.7,12.3c1.1,2.8,1.1,14.3,3.8,15.3c1.1,0.4,3.6,0.7,4.5-0.5
						c1.6,1.4,3.9,1.6,4.4,1.6c0.9,0,1.1-4.5,1.1-4.5s2.1,3,4.9,3.4s5.5-0.4,5.5-0.4s-2.1-7.9-3.4-9.1c-1.3-1.3-1.1-9.5-3.6-10.8
						c-2.4-1.3-6-8.3-6.4-9.1c-0.4-0.9-4.5-5.7-5.7-7c-1.3-1.3-7.7-16.8-8.1-18.1c-0.4-1.3-3.6-8.3-7-8.9
						c-3.4-0.6-30.8-14.9-36.2-17.2c-5.3-2.3-17.4-5.1-22.8-5.1c-5.3,0-14.3,3.6-16.8,6.2C1209.4,475.4,1218.4,498.1,1218.4,498.1z"
						/>
					<path class="st1" d="M1106,599.3c0,0-20,4.9-32.3,1s-30.8-23.5-36.7-44.5c-0.5,13.7,5.9,21,5.9,21s-29.3-29.8-36.2-36.2
						s-16.6-25.9-19.5-37.6c2,20.5-1,17.1-1,17.1s-6.4-7.8-10.8-14.2s-9.3-14.2-7.3-14.7c2-0.5,36.5-2.5,24.9-3.4
						c-23.9-2-29.3-15.6-42-24.4c-12.7-8.8-21-25.4-24.4-31.8c-3.4-6.4-1-16.6-1-16.6s-10.8,5.4-8.8,20c2,14.7,6.7,34.7,25.3,52.5
						c18.6,17.8,62.6,64.7,70.9,72.6c8.3,7.8,31.8,37.6,37.1,40.6c5.4,2.9,22,9.8,31.3,10.3C1090.8,611.5,1106,599.3,1106,599.3z"/>
					<path class="st1" d="M1153.6,499.1c2.2,0,39.6-19.3,40.3-19.2c17.7,0.6,29.7,9.9,33.4,27.1c4.9,9.7,5.4,12.1,5.4,12.1l-2.4-9.9
						l3-3.7c0,0,7.9-10.2,3.2-22.2c-4.9-12.3-20.9-15.3-23.1-14.9c-2.1,0.4-17.1,7.9-17.1,7.9l-3.9-0.6L1153.6,499.1z"/>
					<path class="st1" d="M1227.9,476.4c3.9-1.1,15.2-2.5,23.2,0.6c8.1,3.1,31.3,11.9,33.2,12.4c-3.9,1.2,0.2,1.2,1.4,1.3
						c1.2,0.1,6.1,2.6,7.8,5.5s-2-5.7-3.4-6.3c-1.4-0.6-5.9-3-7.3-3s-30-15.8-34.6-16.9s-12.9-4.8-19.5-3.3
						c-6.7,1.5-10.9,1.7-10.9,3.5S1227.9,476.4,1227.9,476.4z"/>
				</g>
				<path class="st1" d="M1352.1,495.2c0.3,0.1-0.5-2.8-0.5-2.8l-10.2-7.4c0,0-24.6,5.6-28.1,26.3c6.9,3.2,9,3.3,9,3.3
					S1336.4,492.6,1352.1,495.2z"/>
			</g>
		</g>
	</g>
</g>
</svg>
