<?xml version="1.0" encoding="utf-8"?>
<!-- Generator: Adobe Illustrator 24.0.0, SVG Export Plug-In . SVG Version: 6.00 Build 0)  -->
<svg version="1.1" id="Layer_1" xmlns="http://www.w3.org/2000/svg" xmlns:xlink="http://www.w3.org/1999/xlink" x="0px" y="0px"
	 viewBox="0 0 1125 2436" style="enable-background:new 0 0 1125 2436;" xml:space="preserve">
<style type="text/css">
	.st0{fill:#FFFFFF;stroke:#231F20;stroke-width:0.9705;stroke-miterlimit:10;}
	.st1{fill:#FFFFFF;stroke:#231F20;stroke-width:0.9792;stroke-miterlimit:10;}
	.st2{clip-path:url(#SVGID_2_);}
	.st3{fill:none;stroke:#231F20;stroke-width:0.3264;stroke-miterlimit:10;}
	.st4{fill:none;stroke:#231F20;stroke-width:0.6528;stroke-miterlimit:10;}
	.st5{fill:none;stroke:#231F20;stroke-width:0.9792;stroke-miterlimit:10;}
	.st6{fill:#FFFFFF;}
	.st7{stroke:#231F20;stroke-width:0.9792;stroke-miterlimit:10;}
	.st8{clip-path:url(#SVGID_4_);}
	.st9{fill:#ED1C24;stroke:#231F20;stroke-width:0.4321;stroke-miterlimit:10;}
	.st10{clip-path:url(#SVGID_6_);}
	.st11{clip-path:url(#SVGID_6_);fill:#FFFFFF;}
</style>
<rect x="-9.6" y="-13.5" width="1140.6" height="2461.5"/>
<path class="st0" d="M535.3,646.6c-28,0-39,16.1-43.4,27.6h84.1C575.9,674.2,568.4,646.6,535.3,646.6z"/>
<path class="st0" d="M479.4,695.8c2.1-9.4,8-24.4,22-24.4c9.2,0,19.3,0,30.3,0c1.5,0,3,0,4.5,0c10.9,0,21.1,0,30.3,0
	c13.9,0,19.9,15,22,24.4c2.1,9.4,0,20.2,0,20.2H538h-8.2h-50.4C479.4,716,477.3,705.2,479.4,695.8z"/>
<path class="st0" d="M600,762.7c0,0,0-30.3,0-37.8c0-7.6-12-11.9-20.8-11.9s-59.9,0.5-80.2,0c-20.3-0.5-26.8,7.6-26.8,7.6v41.7
	L600,762.7z"/>
<path class="st1" d="M584.3,1880.1c0,0,40-20.6,44.5-38c4.5-17.4,9.2-116.8,9.1-152.5c-0.2-51.1-9.1-102.8-13.6-117.1
	c-4.5-14.3-8.4-21.8-8.4-21.8s-8.9,13.5-5.1,21.8c0.9,2,13.8,52.8,15.9,116.3c0.8,24.2-4.8,74-10.7,85.3
	C603.9,1771.2,584.3,1880.1,584.3,1880.1z"/>
<g>
	<defs>
		<path id="SVGID_1_" d="M534.3,1217.2c-22,0-45.5,0-52.2,0s-11.8,1.5-11.8,18.4c0,16.9,0,536.2,0,556.8s-9.5,125.6,60.2,125.6
			s69-77.1,69-121.9s0-570.7,0-572.9s-1.5-5.9-17.6-5.9C565.9,1217.2,534.3,1217.2,534.3,1217.2z"/>
	</defs>
	<use xlink:href="#SVGID_1_"  style="overflow:visible;fill:#FFFFFF;"/>
	<clipPath id="SVGID_2_">
		<use xlink:href="#SVGID_1_"  style="overflow:visible;"/>
	</clipPath>
	<g class="st2">
		<line class="st3" x1="475.4" y1="1793" x2="475.4" y2="1217.4"/>
		<line class="st3" x1="483.5" y1="1793" x2="483.5" y2="1217.4"/>
		<line class="st4" x1="563" y1="1793" x2="563" y2="1217.4"/>
		<line class="st3" x1="577.4" y1="1793" x2="577.4" y2="1217.4"/>
		<line class="st3" x1="589.3" y1="1793" x2="589.3" y2="1217.4"/>
		<line class="st4" x1="496.8" y1="1793" x2="496.8" y2="1217.4"/>
		<line class="st4" x1="547.4" y1="1793" x2="547.4" y2="1217.4"/>
		<line class="st5" x1="512.7" y1="1793" x2="512.7" y2="1217.4"/>
		<line class="st5" x1="530.3" y1="1217.4" x2="530.3" y2="1793"/>
		<path class="st3" d="M599.7,1784.9c0,0,4.6,8.1-42.8,8.1s-52.1,0-66.8,0c-14.7,0-20.2-4-20.2-4"/>
	</g>
	<g class="st2">
		<path d="M478.5,1789.5c0,0,0,33.6,0,54.7s20,55.2,29.8,55.2c9.7,0,15.7-4.3,15.7-17.3s0-19,0-19s-6.5,2.7-6.5,0
			c0-2.7-3.8-69.3,0-69.3c3.8,0,28.5,0,28.5,0v69.3h-7.4c0,0-4.9,19-4.9,23.8c0,4.9,0,9.2,6.5,7.6c6.5-1.6,14.6-1.1,14.6-1.1
			s-19.5,15.7-38.2,12.5c20.3,3.2,40.9,4.9,51.2-17.9c-3.8,16.8-13,24.9-35.2,24.9c-22.2,0-62.3-26.5-62.3-73.1s0-50.4,0-50.4H478.5
			z"/>
		<circle class="st6" cx="531.4" cy="1844.6" r="6.6"/>
		<circle class="st6" cx="531.4" cy="1810.6" r="6.6"/>
	</g>
	<path class="st2" d="M588.2,1881.8c-1.8-3.1-1.3-9.6,1.1-15.5c2.5-6,3.6-22.6,5.2-28.4c1.6-5.8-0.9-26,2.2-34l6.6-15
		c0,0,0.2,69.6-3.5,75.8C596,1870.9,588.2,1881.8,588.2,1881.8z"/>
	<use xlink:href="#SVGID_1_"  style="overflow:visible;fill:none;stroke:#231F20;stroke-width:0.9792;stroke-miterlimit:10;"/>
</g>
<path class="st1" d="M599.7,1792c0,0,7.5,5.6,8.6,8.6s8.2,15,19.1,8.6c10.9-6.4,1.5-21.4-5.2-27.4c-6.7-6-22.5-17.6-22.5-17.6V1792z
	"/>
<circle class="st1" cx="620.8" cy="1798.6" r="4.7"/>
<path class="st1" d="M586.7,1217.2c0-4,0-451.9,0-451.9s-14.3-2.5-51.9-2.5s-51.1,2.5-51.1,2.5v2.5v449.4H586.7z"/>
<g>
	<path class="st7" d="M472.3,762.7c0.5,2.3,11.6,5,11.6,5s2.1-2.9,5-3.2c2.9-0.3,36.9-1.9,46-1.9c9.1,0,10.6-5.5,0-6
		c-10.6-0.5-45,2.5-52.1,2.8C475.7,759.8,472.3,762.7,472.3,762.7z"/>
	<path class="st7" d="M600,762.7c-0.5,2.3-11.6,5-11.6,5s-2.1-2.9-5-3.2c-2.9-0.3-36.9-1.9-46-1.9c-9.1,0-10.6-5.5,0-6
		c10.6-0.5,45,2.5,52.1,2.8C596.6,759.8,600,762.7,600,762.7z"/>
</g>
<g>
	<line class="st3" x1="475.4" y1="756.7" x2="475.4" y2="715.5"/>
	<line class="st3" x1="483.5" y1="756.7" x2="483.5" y2="715.5"/>
	<line class="st4" x1="563" y1="756.7" x2="563" y2="715.5"/>
	<line class="st3" x1="577.4" y1="756.7" x2="577.4" y2="715.5"/>
	<line class="st3" x1="589.3" y1="756.7" x2="589.3" y2="715.5"/>
	<line class="st4" x1="496.8" y1="756.7" x2="496.8" y2="715.5"/>
	<line class="st4" x1="547.4" y1="756.7" x2="547.4" y2="715.5"/>
	<line class="st5" x1="512.7" y1="756.7" x2="512.7" y2="715.5"/>
	<line class="st5" x1="530.3" y1="715.5" x2="530.3" y2="756.7"/>
</g>
<g>
	<defs>
		<path id="SVGID_3_" d="M479.4,695.8c1.5-6.9,5.1-16.8,12.5-21.6h0c4.4-11.5,15.4-27.6,43.4-27.6c33.2,0,40.7,27.6,40.7,27.6h0
			c7.3,4.8,10.9,14.7,12.5,21.6c2.1,9.4,0,20.2,0,20.2H538h-8.2h-50.4C479.4,716,477.3,705.2,479.4,695.8z"/>
	</defs>
	<clipPath id="SVGID_4_">
		<use xlink:href="#SVGID_3_"  style="overflow:visible;"/>
	</clipPath>
	<g class="st8">
		<ellipse cx="574.4" cy="701.1" rx="10" ry="9.9"/>
		<path d="M571,671.4c0,0-12-10.1-17-9.8s-7.8,7.7-7.5,9.8C546.7,673.4,571,671.4,571,671.4z"/>
		<g>
			<path d="M517.4,713.1c0,0,11.1-25.2-6.6-40c12-4.4,14.3-9.8,10-13.6s-20.2,4.4-19,8.9c-6.3,5.9-22.1,11.8-20.9,44.7
				c-1.8,4.7-11.4-0.3-10.5-2.7c0.9-2.4,12.3-54.5,20.3-61c8.1-6.5,42.8-11.6,45.5-8.3c2.7,3.3,3.3,70.5,3.3,71.7
				c0,1.2-6.3,16.6-7.2,15.7C531.5,727.7,517.4,713.1,517.4,713.1z"/>
			<path d="M532.7,721.4c8.1-2.1,18.5-7.4,22.1-20.3c3.6-12.9-0.6-29.2-8.4-29.8c0,0,2.5-14.2-2-16c-4.5-1.8-13.5-1.5-13.5-1.5
				L532.7,721.4z"/>
		</g>
	</g>
</g>
<rect x="512.7" y="716" transform="matrix(-1 -4.521329e-11 4.521329e-11 -1 1068.2778 1472.7672)" width="42.9" height="40.7"/>
<rect x="245.7" y="1484.2" transform="matrix(-4.490915e-11 1 -1 -4.490915e-11 2038.6711 970.3933)" width="577" height="40.7"/>
<rect x="279.1" y="1500" transform="matrix(-4.491004e-11 1 -1 -4.491004e-11 2072.0874 936.977)" width="577" height="9.1"/>
<rect x="210.8" y="1500" transform="matrix(-4.490915e-11 1 -1 -4.490915e-11 2003.843 1005.2214)" width="577" height="9.1"/>
<rect x="199.9" y="1500" transform="matrix(-4.492602e-11 1 -1 -4.492602e-11 1992.9025 1016.162)" width="577" height="9.1"/>
<rect x="295.8" y="1500" transform="matrix(-4.491004e-11 1 -1 -4.491004e-11 2088.8567 920.2079)" width="577" height="9.1"/>
<rect x="492.9" y="762.3" transform="matrix(-1 -4.475854e-11 4.475854e-11 -1 1068.8795 1978.3188)" width="83" height="453.8"/>
<path class="st9" d="M1264.6,737.9c0,2.7-562.3,4.9-689.2,5.3c-0.7,4.5-2.3,8.6-4.6,12.3C608,793.9,752.5,936,746.5,942.1
	c-6,6-148.1-138.4-186.6-175.6c-3.8,2.3-8,3.9-12.6,4.6c-0.5,78.6-2.5,447.3-5,447.3c-2.5,0-4.5-368.7-5-447.3
	c-4.6-0.7-8.8-2.3-12.6-4.6c-38.5,37.2-180.6,181.7-186.6,175.6c-6-6,138.4-148.1,175.6-186.6c-2.3-3.7-3.9-7.9-4.6-12.3
	c-126.9-0.3-689.2-2.6-689.2-5.3c0-2.7,562.3-4.9,689.2-5.3c0.7-4.5,2.3-8.6,4.6-12.3C476.5,681.8,332,539.7,338.1,533.7
	c6-6,148.1,138.4,186.6,175.6c3.8-2.3,8-3.9,12.6-4.6c0.5-78.6,2.5-447.3,5-447.3c2.5,0,4.5,368.7,5,447.3c4.6,0.7,8.8,2.3,12.6,4.6
	c38.5-37.2,180.6-181.7,186.6-175.6c6,6-138.4,148.1-175.6,186.6c2.3,3.7,3.9,7.9,4.6,12.3C702.3,732.9,1264.6,735.2,1264.6,737.9"
	/>
<g>
	<path class="st6" d="M234,737.9c0-1.2,240-2.1,294.1-2.2c0.3-1.9,1-3.7,1.9-5.3c-15.9-16.4-77.5-77.1-75-79.6
		c2.6-2.6,63.2,59.1,79.6,75c1.6-1,3.4-1.7,5.4-2c0.2-33.5,1.1-190.9,2.1-190.9c1.1,0,1.9,157.4,2.1,190.9c1.9,0.3,3.8,1,5.4,2
		c16.4-15.9,77.1-77.5,79.6-75c2.6,2.6-59.1,63.2-75,79.6c1,1.6,1.6,3.4,1.9,5.3c54.2,0.1,294.1,1.1,294.1,2.2s-240,2.1-294.1,2.2
		c-0.3,1.9-1,3.7-1.9,5.3c15.9,16.4,77.5,77.1,75,79.6c-2.6,2.6-63.2-59.1-79.6-75c-1.6,1-3.4,1.7-5.4,2
		c-0.2,33.5-1.1,190.9-2.1,190.9c-1.1,0-1.9-157.4-2.1-190.9c-1.9-0.3-3.8-1-5.4-2c-16.4,15.9-77.1,77.5-79.6,75
		c-2.6-2.6,59.1-63.2,75-79.6c-1-1.6-1.6-3.4-1.9-5.3C474,740,234,739,234,737.9z"/>
</g>
<g>
	<g>
		<defs>
			<path id="SVGID_5_" d="M298.6,2167.9c33.2-39.4,74.4-120.8,74.4-120.8s39.5-29,60.4-54.6c45.3-39.5,55.8-102.3,55.8-102.3
				s-13.9,1.2-13.9-18.6s7-68.6,7-68.6l58.1-25.6c0,0,25.6,7,32.5,0c23.2,11.6,22.1,16.3,22.1,16.3s37.2-11.6,53.4-23.2
				s23.2-27.9,22.1-50c-1.2-22.1-3.5-32.5-26.7-46.5c-23.2-13.9-65.1-36-80.2-33.7c-15.1,2.3-86,8.1-86,8.1v-66.2l15.1-25.6
				c0,0,26.7,13.9,45.3,9.3c13.9,32.5,32.5,58.1,45.3,63.9c12.8,5.8,50,1.2,50,1.2l11.6-40.7c0,0,22.1-55.8,12.8-81.3
				c-9.3-25.6-31.4-45.3-31.4-45.3s33.9-17.4,44.3-43c10.3-25.6-1.3-54.6-12.9-63.9c-11.6-9.3-67.4-58.1-97.6-63.9
				c-30.2-5.8-57.5-31.4-73.5-27.9c-16,3.5-41.6-0.3-41.6-0.3s34.3-22.9,41.6-29.9c7.2-7,76.9-24.4,86.2-33.7
				c9.3-9.3,19.8-36,12.8-59.3c-7-23.2-8.1-73.2-70.9-54.6c-62.7,18.6-87.1,19.8-96.4,25.6c-9.3,5.8-68.6,30.2-93,50
				c-24.4,19.8-33.7,20.9-59.3,72s-45.3,83.7-55.8,96.4c-10.5,12.8-20.9,18.6-26.7,30.2c-5.8,11.6,11.6,60.4,0,70.9
				c-11.6,10.5-39.5,72-39.5,84.8s29,146.4,31.4,166.2c2.3,19.8,17.4,73.2,15.1,103.4c-2.3,30.2-19.8,99.9-20.9,122
				c-1.2,22.1,23.2,140.6,32.5,158c9.3,17.4,54.6,108.1,54.6,108.1S270.7,2160.9,298.6,2167.9z"/>
		</defs>
		<use xlink:href="#SVGID_5_"  style="overflow:visible;fill:#FFFFFF;"/>
		<clipPath id="SVGID_6_">
			<use xlink:href="#SVGID_5_"  style="overflow:visible;"/>
		</clipPath>
		<path class="st10" d="M202.8,2012.4l10.8-99.1c0,0,1.5-162.7,0-190.5s-37.2-165.8-37.2-165.8l37.9,6.2c0,0-42.5-34.1-47.2-51.1
			s11.5-57.3,23.6-72.8c12-15.5,61.6-63.5,64.7-79s41.8-63.5,54.2-75.9c0,0-55,72.8-71.7,83.7s-41.4,18.6-49.2,37.2
			c6.2-35.6,29.4-58.9,40.3-80.6c10.8-21.7,54.2-110,60.4-117.7s74.4-57.3,97.6-65.1s105.3-29.4,105.3-29.4s-26.3,27.9-18.6,44.9
			s31,27.9,43.4,26.3c12.4-1.5,44.9-9.3,44.9-9.3s20.1,15.5-17,29.4c0,0-35.6,1.5-54.2,7.7c-18.6,6.2-46.5,7.7-65.1,15.5
			c-18.6,7.7-80.6,29.4-89.8,35.6s-10.8,17-10.8,17s52.7-12.4,62-4.6c9.3,7.7,122.4,7.7,122.4,7.7s75.7,43.5,88.1,49.7
			c12.4,6.2-2.7,31.2,2,45.1c4.6,13.9,25.6,21.4,18.6,14.5c-24.8-24.8-3.2-45.6-3.2-45.6s46,28.4,52.7,35.8c0,0,4.7,37.7-6.1,37.7
			c-10.8,0-22-7.1-22-7.1l-12.4-9.6L654,1428c0,0-46.4,32-60.8,29.4c-79.4-14.2-101.2-57.8-135.3-59.3s-27.5,15.7-66.9,44.1
			c-31.2,22.5-108.6,72.3-108.6,72.3s-20.8,11.4-25.4,13c-4.6,1.5,52.4,2,71.7-10.5c25.5-16.4,108-77.8,125-90.2
			c17-12.4,43.4-3.1,51.1,18.6c7.7,21.7,126.7,73,137.6,73s-12.9,102.9-16,110.7c-3.1,7.7-45.9,5.9-77.9-71.5
			c-42.1,5-66.6-20.2-68.2-15.6s-15.7,31.3-17.3,57.7c-1.5,26.3-3.2,48.7,10.7,45.6c-49.6,7.7-89.8-21.7-89.8-21.7
			s-6.2,49.6,51.1,46.5c57.3-3.1,122.4-15.5,136.3-21.7c13.9-6.2,38.7,17,40.3,44.9c1.5,27.9-17,60.4-37.2,66.6
			c-20.1,6.2-105,51.1-157.1,31c28.5,17,52.1,20.1,52.1,20.1s-37.5,17-80.9,3.1c29.4,18.6,75.9,23.2,71.3,24.8
			c-4.6,1.5-88.3-10.8-127,10.8c0,0,34.1,1.5,65.1,6.2s50.7,32.5,53.3,55.8c2.5,23.2-2.1,49.6-23.8,63.5
			c-21.7,13.9-62,57.3-134.8,21.7c74.4,38.7,91.4,29.4,91.4,29.4l-44.9,62c0,0-55.8,103.8-63.5,108.4c-7.7,4.6-74.4-23.2-74.4-32.5
			S202.8,2012.4,202.8,2012.4z"/>
		<path class="st10" d="M466.4,1139.4c7.2-6,69.5-23,75.5-27.1c6-4.1,12,10.3,12,19.9c0,9.6,4.2,27.6,0,31.8
			c-4.2,4.2-39.6,11.1-47.9,13.2c-8.3,2.1-35.4,0-39.6-13.8S466.4,1139.4,466.4,1139.4z"/>
		<path class="st11" d="M218.1,1581.8c0.1,20.6,7.4,54.3,24.5,85.8c0,0-31-19-33.7-34.1C206.1,1618.5,218.1,1581.8,218.1,1581.8z"/>
		<path class="st11" d="M266.9,1707.6c-3.6,10.9-7.3,37.3-3.6,40.4s15.5,24.9,23.8,26.9c0,0-17.6-23.3-19.2-29.5
			c-1.6-6.2-2-25.9,6.5-29.5c8.5-3.6,25.1-2.6,25.1-2.6s-2.6-10.9-13.5-9.8C275.1,1704.5,266.9,1707.6,266.9,1707.6z"/>
		<path class="st11" d="M214.3,1594.6c1.6-5.8,1.9-13.4,11.2-18.6c9.2-5.2,30.5-8.8,30.5-8.8s-6.2,7.3-15.5,10.9
			c-9.3,3.6-20,30-16.8,41.1s-6,9.1-6,9.1L214.3,1594.6z"/>
	</g>
	<path class="st6" d="M465.8,1937.5c4.6,18.3,12,193.7-56.4,222.3s-112-2.3-124.6,0c-12.6,2.3-27.9,15.1-27.9,15.1
		s27.9,26.2,31.4,36.5c3.4,10.3,1.1,52.7,1.1,52.7s67.6,0.8,94-34.5c26.4-35.4,90.5-99.5,97.4-128.7s2.3-165.6-6.9-173.6
		C464.6,1919.2,465.8,1937.5,465.8,1937.5z"/>
	<path class="st6" d="M271,2264.1c0,0,14.2-43.7,0-66.5c-14.2-22.7-68.8-139.8-76.8-160.4c-8-20.6-25.2-129.5-24.1-152.4
		c1.1-22.9-12.7,37.8-0.1,113.4C182.7,2073.8,232,2222.8,271,2264.1z"/>
</g>
</svg>
