<?xml version="1.0" encoding="utf-8"?>
<!-- Generator: Adobe Illustrator 24.0.0, SVG Export Plug-In . SVG Version: 6.00 Build 0)  -->
<svg version="1.1" id="Layer_1" xmlns="http://www.w3.org/2000/svg" xmlns:xlink="http://www.w3.org/1999/xlink" x="0px" y="0px"
	 viewBox="0 0 1125 2436" style="enable-background:new 0 0 1125 2436;" xml:space="preserve">
<style type="text/css">
	.st0{clip-path:url(#SVGID_2_);}
	.st1{fill:#FFFFFF;}
	.st2{fill:#D1D3D4;}
	.st3{fill:#ED1C24;}
	.st4{stroke:#FFFFFF;stroke-width:1.2781;stroke-linecap:round;stroke-linejoin:round;stroke-miterlimit:10;}
	.st5{fill:none;stroke:#FFFFFF;stroke-width:1.2781;stroke-miterlimit:10;}
	.st6{stroke:#FFFFFF;stroke-width:1.2781;stroke-miterlimit:10;}
	.st7{fill:#FFFFFF;stroke:#FFFFFF;stroke-width:1.2781;stroke-miterlimit:10;}
</style>
<g>
	<defs>
		<rect id="SVGID_1_" width="1128.8" height="2436"/>
	</defs>
	<use xlink:href="#SVGID_1_"  style="overflow:visible;fill:#FFFFFF;"/>
	<clipPath id="SVGID_2_">
		<use xlink:href="#SVGID_1_"  style="overflow:visible;"/>
	</clipPath>
	<g class="st0">
		<rect x="-859.2" y="-56.4" width="2847.1" height="1452.4"/>
		<g>
			<path class="st1" d="M70.4,1132.4c0,0,2.2,3,4.2,3.2c2.9-2,9.1-8.6,9.8-9c0.7-0.4,4-3.8,5.4-2.6c1.4,1.2,5.1-0.2,6.8-1.4
				c1.7-1.2,13.4-11.2,14.8-14.6c4.2,2.2,6,2,7.4,0.3c1.3-1.7,2.6-6.2,2.7-7.7s3.7-4.5,3.8-8.3c0-3.7-3.2-17-4.5-19.7
				c-1.3-2.7-4.1-8.2-10.5-12.4s-25.5-10-28.8-10c-3.3,0-15.5,6-17.7,8.3c-2.2,2.3-5.6,4.5-7.9,5.6c-2.3,1.2-10.5,17.5-10.5,22.1
				c0,4.6,3.2,33.8,3.4,37.2c0.2,3.3,4.8,13.7,6,14.8c1.2,1.1,7.9-0.9,9.2-4c1.2,0.7,2.3,1.5,3.3-1.7
				C68.9,1134.5,70.4,1132.4,70.4,1132.4z"/>
			<path class="st1" d="M-73,1184.3c0.9,2.3,23.8,60.4,27.3,66.8c3.6,6.4-2.5,29.1-6.7,34.4c-4.3,5.3-29.5,69.6-29.5,69.6
				s-14.2,16.3-15.6,18.5s-3.9,19.9-4.6,22.7c-0.7,2.8-5.3,12.8-5.3,12.8h-4.6c0,0,5,1.8,7.1,3.2s13.5,9.2,16.3,11.4
				c2.8,2.1,20.9,3.6,23.1,4.6c2.1,1.1,0,7.1,0,7.1c3.2,0,5.3,3.2,3.1,4.1c-2.2,0.9-22.7,6.6-28.9,5.5c-6.3-1.1-37.7-5.9-37.7-5.9
				s-0.3,2.4-0.8,6.6c-27.9,3.6-31.4-4.6-31.4-5c0-0.5,0.5-14.1,1.9-17.5c1.5-3.4,8.2-13,8.2-13s-2.5-0.8-2.8-0.9
				c-0.3-0.1-1.4-2.6,0.3-4c1.7-1.4,2.6-9.9,4.4-14.2s17.2-46.9,17.2-46.9s3.8-11.6,5.5-14.9c1.7-3.3,13.9-36.9,13.9-36.9
				s4.4-11,4.4-11.7c0-0.7,5.9-5.1,5.9-5.1l-0.7-5.4c0,0-1.1-3.8-1.1-5s6.6-2.2,6.6-2.2s-5.4-4.2-5.7-4.2c-0.3,0-1.3-1.8-1.6-3.9
				c-0.3-2.1,1.1-6.9,1.1-6.9c-1.7-0.3-3.9-6.9-3.9-6.9s-6.6-4.3-7.7-5.2c-1.1-0.9-9.8-12-10.5-15.4c-0.7-3.4-22.3-36.7-22.4-37.1
				s-11.3-12.8-11.3-12.8s-14.7-21.1-14.9-26.2s-2.2-21.5-2.2-21.5c5.2-18.7,22-36.7,37.6-30.7C-123.4,1097.8-84,1155.5-73,1184.3z"
				/>
			<path class="st1" d="M-59.9,1187c1.3,2,36,53.2,40.8,58.8s3.4,25.6,0.2,30.3s-15.4,61.2-15.4,61.2s-10.9,14.4-11.9,16.2
				s0.1,17.5,0,20s-2.7,11.2-2.7,11.2h-4.6c0,0,5.3,1.6,7.7,2.8c2.4,1.2,15.4,8.1,18.6,10s21.7,3.1,24,4.1s1.4,6.2,1.4,6.2
				c3.2,0,5.9,2.8,4,3.6s-21.3,5.8-27.8,4.8s-38.9-5.2-38.9-5.2s0.1,2.1,0.5,5.8c-27.2,3.2-32.4-4-32.4-4.4
				c-0.1-0.4-2.4-12.4-1.6-15.4c0.8-3,5.6-11.4,5.6-11.4s-2.7-0.7-3-0.8c-0.4-0.1-1.9-2.3-0.5-3.5c1.4-1.2,0.6-8.7,1.6-12.5
				c0.9-3.8,7.7-41.3,7.7-41.3s1.4-10.2,2.5-13.1c1-2.9,6.4-32.5,6.4-32.5s2.2-9.7,2.1-10.3c-0.1-0.6,4.9-4.5,4.9-4.5l-1.8-4.7
				c0,0-1.9-3.3-2.2-4.4s6.2-1.9,6.2-1.9s-6.2-3.7-6.5-3.7s-1.6-1.6-2.4-3.4c-0.8-1.8-0.3-6.1-0.3-6.1c-1.8-0.3-5.3-6.1-5.3-6.1
				s-7.5-3.8-8.8-4.6s-12.2-10.5-13.6-13.5c-1.4-3-29.7-32.3-29.9-32.7c-0.2-0.4-13.9-11.2-13.9-11.2s-18.9-18.5-20.2-23.1
				c-1.3-4.5-6.5-19-6.5-19c1.4-16.5,14.6-32.3,31.4-27S-76.8,1161.6-59.9,1187z"/>
			<path class="st1" d="M50.9,1128.5c4.4-10.1,4.9-24,7-41.8c1-8.6-0.9-22.4-1.3-24.8c-0.3-2.4-1.7-2.4-4.3-2.7s-6.8-1.7-6.8-1.7
				s-4.8-2.8-8.2-2.9c-10.6-6-27.1-16-70.8-21.8c-43.7-5.8-76.4,7.3-98,23.7s-44.5,36.5-45.8,58.5c-1.4,22,4.1,23.4,4.1,23.4
				s65.3,17.3,99.5,37.3c5.9-7.3,19.4-32.1,19.4-32.1s4.6,9.1,8.9,11.1c4.3,2,19.7-4.3,23.9-4.3c4.1,0,9.4,0.6,13.1,1.3
				s14-0.6,17.3-3.3s16.6-14.1,19.5-13.7C31.2,1135.1,49.9,1130.7,50.9,1128.5z"/>
			<path class="st1" d="M48.2,1115.9c-0.5-6.6-13.4-11.5-22.9-7.9s-12.6,15.2-12.7,39.6c-0.1,24.5,5,58.3,5.1,61.8
				c0.2,3.5-0.4,6,16,18.7s49.5,31.9,51.7,32.6c2.1,0.7,7.7-2.5,7.7-2.5s2.7,5.5,3.6,7.3c0.8,1.9,6.3,4.8,6.8,7s-2.3,5.2-1,5.7
				c1.3,0.5,5.7,1,6.8-2.2c1.6,2.8,6,3.2,7.8-2.1c2.8,3.6,7.1,5.7,4.9,11.6c2.4,3.7,7.6-2.7,8.3-5c0.7-2.3-4.5-9.4-4.5-9.4
				s6.8,6.1,5.7,11.9c2.8,4.1,7.9-1.4,8.1-6.4s-7.3-15.8-8.9-18.6c-1.6-2.8-4.9-6.2-11.2-9.1c-6.4-2.9-13.8-6.9-13.8-6.9
				s1.2-4.2,0.1-5.5c-1.1-1.3-52.6-43.6-52.6-43.6S49.1,1126.7,48.2,1115.9z"/>
			<path class="st1" d="M72.6,1265.8c0,0-4,5.4-6.7,3.8c-2.8-1.6-62-43.1-66.3-45.6s-8.1-2.5-9.3-20s-3.7-51.6-3.7-55.5
				c0-3.8,2.5-18.9,6.4-19.6s23.3-15.5,27.8,7.2s6.9,63.5,6.9,63.5l56,44.3c0,0,13.3,3.1,15.1,5.3c1,1.2,7.6,8.7,8.1,9.8
				c0.5,1.1,13.3,10,14.5,11.8s6.7,6.8,5.6,8.7c-1.1,1.9-4.3,3.2-6.1,2c1.2,4-2.1,5.5-5.5,4c0.3,3.4-3.5,6.6-7.7,2.5
				c1.3,3.6-1.1,6-6.7,3c-5.6-3-19.7-13.6-22.3-16.9S72.6,1265.8,72.6,1265.8z"/>
			<path class="st1" d="M108.6,1271.7l40.5-29.1c0,0,72.2,16,89.6,36.1c-47.2,61.9-70,72.2-70,72.2l-71.2-69.4L108.6,1271.7z"/>
			<path class="st1" d="M101.4,1273.5l34.3-36.2c0,0,73.9,2.1,94.8,18.5c-34.7,69.7-55,84.1-55,84.1l-83-54.7L101.4,1273.5z"/>
			<path class="st1" d="M0.4,1376.1l34.3-36.2c0,0,73.9,2.1,94.8,18.5c-34.7,69.7-55,84.1-55,84.1l-83-54.7L0.4,1376.1z"/>
		</g>
		<g>
			<path d="M271.1,722.3c-7.3-3.8-26.3-5.8-32.6-7.7c-6.3-1.8-33.4,9.1-40.9,12.6c-7.5,3.5-19,3.5-24.2,4.6
				c-5.2,1.2-12.7,0.6-13.8,7.2c-19.8-0.5-28.8-1.7-47.3,1.3c-18.5,3-89.2,37.6-92.1,47.9c-2.9,10.2-5.4,11.9,24.8,25.9
				c19.9,9.3,21.8,7.3,52.9,9.3c23,1.5,98.6,4.6,104.4,4c5.8-0.6,16.4-1.3,23.2,16.4C225.8,781.3,271.1,722.3,271.1,722.3z"/>
			<g>
				<g>
					<path d="M411.5,1261.4c0,0-5,45.6-6.5,51.4s-6.4,45.6-4.9,52.9s5.7,28.9,5.6,35.3c-0.2,6.4,1.3,21.1-2.6,28.9
						s1.8,34.3,2.6,40.2c0.8,5.9,11.1,57.8,12.1,68.6c1,10.8,9.8,100.4,8.8,107.8s-2,34.3-2.4,42.6s6.4,25,5.4,27.9
						c-1,2.9-68.4,6.8-78.2,8.8c-9.3-12.7-6.6-49.4-6.6-53.8c0-4.4-6.8-42.6-6.3-54.4c0.5-11.8-26-130.8-26.5-135.7
						c-0.5-4.9,6.9-16.7,5.9-19.1s-3-24.5-5.9-26c-2.9-1.5,0.9-9,0-11.3c-3.4-8.8-6.8-26.4-4.9-42.1
						c-9.8-29.4-31.4-147.5-30.7-198.4c0.8-50.9,92.9-91.6,92.9-91.6L411.5,1261.4z"/>
					<path class="st1" d="M338.4,1399.7c0,0-26.5-28.8-35.9-32.6c-9.4-3.9-16.7-81.6-19-95.8c-3.5-21.8-4.7-45.6-5.2-51.3
						c-0.6-5.7,7.8,2.3,7.8,2.3s2.2,9.1,5.1,18.1c2.9,9,6,33.6,23.4,57.5c-17.8-21.9-25.9-56.3-26.9-57.7c-1-1.4,0.9,30.1,1.3,32.5
						c0.4,2.3,5.7,25,7.2,30.3s25.6,45.4,27.6,49.7c1.9,4.3-14.7-15.1-16.2-16c-1.6-1-10.6-14.9-9.6-11s7.1,24.6,8.6,28.2
						S338.4,1399.7,338.4,1399.7z"/>
				</g>
				<path d="M428.6,1712.9c0,0,14.4,22.3,15.2,30.1s0.3,20.2,0.3,20.2l2.3,10.3c0,0-9.3,9.1-57.4,15.5c-2.9-8.8-2.6-11.7-2.6-11.7
					s-16.3,7.4-21.9,11.9c-5.6,4.5-10.8,8.9-31.4,13.5c-20.7,4.6-64.2-4.6-64.6-4s-5.6-14.8,12.3-18.8c18-4,48.7-12.2,50.5-16.8
					c1.8-4.6,15.2-33.5,20-37.4c4.8-3.9,11.9-7.8,30.6-11C400.5,1711.6,428.6,1712.9,428.6,1712.9z"/>
				<path class="st1" d="M335.1,1405.7c0,0,9,29.2,12.3,19.8c3.3-9.4,11.9-42.2,12.9-56.4c1.1-14.2-23.5-56.6-23.5-56.6
					s17.1,42,18.2,47.3c1.1,5.3-7.4,54.1-7.6,56.9C347.2,1419.6,335.1,1405.7,335.1,1405.7z"/>
			</g>
			<g>
				<path d="M338.4,1149.8c1.1,15.7,37.1,69.3,51.6,86.9s17.8,48.6,28.9,56.4c11.1,7.7,59.4,166.4,78.3,169
					c16.1,47.6,43.8,103.2,47.2,112.1c3.4,8.9,20.7,102.4,50.2,123.1c11.1-6.6,46.2-11.6,47.3-11.6c1.5-33.2-4.1-47.6-6.1-80.5
					c-0.9-15.2-1.7-17.7-8.9-49.9c-4.4-19.6-6.6-45.4-15.5-64.2s-23.8-54.8-32.9-70s-21.9-63.9-27.7-87.1s-21.3-144.8-29.6-165.5
					c-25.5-63-35.9-109.1-35.9-109.1l-131.5,5.8L338.4,1149.8z"/>
				<path class="st2" d="M550.8,1432.8c0,0,10.1-42,2-75.7c-8.1-33.7-22.3-120.1-27.1-134.6S485.2,1076.4,482,1068
					c-3.2-8.4,3.3-8.7,3.3-8.7h5.9c0,0,32,102.9,34.6,121.1c2.6,18.1,25.6,129.3,28.8,138.3C557.8,1327.8,567.1,1403,550.8,1432.8z"
					/>
				<path class="st2" d="M559.2,1425.5c0,0,9.9-16,9-21.4c-0.9-5.3-9.1-27.6-9.1-27.6l-1.2-14.5c0,0,14,38.6,14,43.7
					C572,1410.8,559.2,1425.5,559.2,1425.5z"/>
				<path class="st1" d="M560.1,1432.8c0,0,27.9,33.1,38.9,37.9c11,4.8,14.3,19.8,17.3,33c3,13.3,17.8,55.3,21.1,76.1
					c5.4,35,4.6,105.8,4.6,105.8s-5.3-81.1-9.5-105.2c-4.2-24.2-19.3-69.8-21.9-79.2c-2.6-9.5-5.9-14.7-16.3-25.2
					C583.8,1465.4,560.1,1432.8,560.1,1432.8z"/>
			</g>
			<g>
				<path d="M291.2,710.1c-2.9,3.8-12.7,6-12.7,6s16.5,25.7,26,28.2c9.5,2.5,32.7-16.8,45.9-32.1s23.5-26.4,25-31.6
					c2.4-8.4-3.8-10.1-10.3-11.4s-25.5,6.5-23.6,6.8C343.3,676.4,291.2,710.1,291.2,710.1z"/>
				<g>
					<path class="st1" d="M305.7,740.3c0,0-14.5-22.1-19.9-29.9c-5.4-7.8-13-18-16-18.7c0,0,32-12.9,34.4-19.2s3.6-31.6,3.6-31.6
						l26.6-13.9c0,0,11.2,17.8,12.7,22.6s2.1,17.5,13.3,26.8C371.5,685.6,305.7,740.3,305.7,740.3z"/>
					<path d="M321.9,743.4c2.1-2.4,3.7-28.5,0.6-32.5c-3-3.9-9.6-19.6-15.6-19.2c-6.1,0.4-18.9,1.3-17.1-0.4
						c1.8-1.8,20.8-19,24-23.9s3.2-22.2,5.1-25.7c1.9-3.5,20.1-7.2,21.4-0.1c1.2,7,7.9,33.9,12.5,40.3c4.6,6.4,6.7,12.2,6.7,12.2
						s-8.2,20-16.8,28.7C337.4,728.1,321.9,743.4,321.9,743.4z"/>
				</g>
			</g>
			<g>
				<path class="st2" d="M228.5,614.8c0,0-3.1,17.5-2.8,21.1c0.4,3.6,7.7,26.7,7.7,26.7L239,649L228.5,614.8z"/>
				<g>
					<g>
						<g>
							<path class="st1" d="M264.4,702.8c-6.8,0.8-17.2,2.4-21.2,1.4c-5-1.3-5.6-9.3-5.3-17.7c0.1-3.5,0.9-2.5-1.6-9.6
								c-0.4-1.1-2.9-3.8-3.3-4.9c-0.4-1,0.2-3.3,0-4.4c-2.6-15.1,4.8-19.9,2-20.8c-6.2-1.9-13.7-3.9-8.6-14.2
								c2.6-5.2,5.4-8.4,1.8-12.3c-3.6-3.9-4.8-5.4-3.2-14.1c1.7-8.7,3.5-27.5,5.2-35.9s59.8-65.8,108.9-15.6
								c12.6,12.9,12.3,35.3,12.9,48.5c0.6,13.2,3.6,25.7-9.6,36.5c-13.2,10.8-17.4,13.3-21.1,12.2c-2.4,18,3,23.7-7.5,29.7
								c-10.5,6-28.9,17.5-31.4,17.7C279.3,699.6,271.3,702,264.4,702.8z"/>
							<path class="st1" d="M343.4,658.9c0,0,6.4,1.8,6.6-9.3c0.2-11.2,7.7-38.5,8.2-48.7s0-22.1-4.8-27.1
								c1.4-5.5,0.9-11.2-5.2-15.3c-6.1-4.1-14.1-13.4-16.2-16.6c-2-3.2-5-1.4-7.7-3.2s-10.5-7.5-19.8-8.2
								c-9.3-0.7-11.5-1.6-13.1-3.5c-1.6-1.8-3.6,0.5-6.5,0.7c-3,0.2-17.5-0.2-21.2,1.1c-3.6,1.4-3,2.5-5.3,4.1
								c-1.9,1.3-2.6-0.6-5.7-0.5c-2.8,0.1-8.3,6.6-10.7,5.9c-2.4-0.7-3.1,0.8-4.6,3.7c-2.7,0-4.1,2.6-5.6,4
								c-4.3,0.7-3.9,5.1-4.8,7.2c-2.8,0.9-4.5,1.4-5.3,4.2c-0.8,2.6-1.4,7.3,2,10.2c3.4,3,9.8,8.9,9.8,8.9s10.7-2.7,17.5-10.4
								c6.8-7.7,35.9-13.9,41.9-15.5c5.9-1.6,0.9,0.2,0,4.1c-0.9,3.9-5.9,22.1-5.7,28c0.2,5.9-1.8,9.6,5.7,11.2s9.8,4.3,10.9,12.5
								c1.1,8.2,2,18.9,2,18.9l10,0.5c0,0,1.2-8.1,9.1-17.3c7.7-9,17.1-10.5,21.4-4.6c4.3,5.9,4.4,17.6,2.1,24.5
								c-2.2,6.5-5.6,10.2-8.4,13.1C341.4,648.4,343.4,658.9,343.4,658.9z"/>
						</g>
						<path d="M281.7,698.1c-7.6,3.4-17.7,8.1-26.7,7.9c-6.4-0.1-14.9-2.9-11.9-3.6c10.3,1.6,20.1-3.7,25.9-13.8
							c2.5-4.4,2.8-2.1,6.4-7.4c5.1-7.5,5.7-9.5,8.6-17.6c2.5-7.1-8.7-19.3-3.7-27.4c5-8.1,5.4-18.1,0-20.3
							c-5.4-2.3-6.8-6.8-10.4-4.1c-3.6,2.7-14.7,1.9-14.7,1.9s3.8,7.1,15.6,2.6c-2.7,5.9-15.4,5-17.6,3.6c0,0-3.5,6-2.1,10.3
							c1.4,4.3,1.3,9.2,6.5,12.8c5.3,3.7,2.1,15.8,4,19.1c-3-2.3-3.2-12.9-4.9-14.6c-1.8-1.8-6.3-5-6.3-5s-2,4.8-4.5,3
							c-2.5-1.8-6.8-0.3-6.8,2.3c0,2.5-1,9.8-2,10c-1,0.3-3,1.3-2-3.5c1-4.8,1.1-8.6-0.9-8.6c-2,0-4.7-2-5.7-5.5s-0.7-4.9,4.3-13.5
							c5-8.5,8-15.8,8.5-18.8c0.5-3-0.5-9,2.3-9.5c2.5-0.5,17.6-2.3,20.8-2.6s10,1.8,12.8,1.8c2.8,0-5.3-7.5-9.4-8.5
							c-4.1-1-8.9,0.5-10.1-2.9c-1.2-3.4,0.7-18.9,2.3-26c0,0-11.4,6-15.1,6.1c-3.6,0.2-13.2,4.6-16.5-10.4c5.3,6.8,6.4,3.5,6.4,3.5
							s-5.8-5-3.6-11.6c0.7,6.5,7.4,6.1,7.4,6.1s-5.3-5.3-1.2-10.8c-0.3,5.8,5.8,5.5,5.8,5.5s-5-2-2.5-8.6c0.8,3.8,3,3.1,3,3.1
							s1.3-4,4-4.3c2.6-0.3,14.2-0.8,16.4-2.6c2.2-1.8,13.9-5.1,17.5-3.8c0,0,14.3,1.2,17.6,0.7c3.4-0.4,10.3-1.1,14.1,1.1
							c3.8,2.2,17.9,6.8,19.8,10.1c8.7,15.7-5.1,25.2-4.2,33.8c0.9,8.6,0.9,23.2,0.9,23.2s5-6,14.9,5.2c10,11.2,0.5,30.9-5.5,36.1
							c-6,5.2-21.7,12.6-25.1,4.1c0,0,6.5,21.6-1.4,30.7c-2.1,2.5-8.4,8.9-13.2,12.2C290.5,695.4,289.3,694.7,281.7,698.1z"/>
						<path d="M225.3,617c-1.9-3.3,0.2-13.7,0.5-15.5c0.3-1.7,5.3-3,7.3-1.9s4.2,13.6,3.1,15.3c-1.1,1.7-7.9,15.2-9,15.7
							c0.9-1.8,1.2-2.8,1.8-6.6C229.6,620.4,227.3,620.3,225.3,617z"/>
						<path d="M344.6,610.6c0,0,3.5-7.5,3.9-9.9s-0.2-8.9-1.2-9.3c-1-0.4,3.5-2.7,1.3-6c0,0,3.3-9.7,0.6-10.5
							c0.6-6.1-0.1-8.6-1.8-9.4c-1.7-0.8-7.5-2.7-8.4-3.1c-1-0.4-2.9-3.5-4.4-3.7c-1.5-0.2-7.2,6.2-8.3,8.5s-7.3,30.9-7.3,30.9
							l7.2,20.2L344.6,610.6z"/>
						<path d="M233.4,669.1c0.4-0.8,2.6-1.1,4.1-0.7s6.7-0.7,8.3-1.6c1.5-0.9,16-0.6,17.3,0.5c4.2,4.3,6,2.7,6,2.7s-4-2.4-5.6-4.2
							s-10.3-1.5-15.8-2.5c-5.8-1.1-5.6-0.6-9.7,1.7c-2.2-0.6-3.3-0.9-4.2,0.9c-0.8,1.8-0.3,1-0.8,1.9s-0.1,3.4-0.1,3.4
							S232.9,670,233.4,669.1z"/>
						<path d="M234.4,674.3c4.7-1.8,12.5,0.1,14.8-0.6c4.8-1.4,9.2-4.8,9.2-4.8l-2.8,4.2c0,0-1.1,12-12,5.6c-5.2-3-4.8,1.4-5.7,3.3
							c-0.7-2-1.3-3.2-2.2-5.4C235,675,235.1,675.5,234.4,674.3z"/>
						<path class="st2" d="M261.4,606.2c8.8-1.1,6.5-0.3,10.8,3c2.6,2,5.7,2.5,9,3.8c-2.3-6-5.3-9.6-11.3-9.2
							c-2.8,0.2-6.1,0.3-9,0.9C257.7,605.5,255.7,606.9,261.4,606.2z"/>
					</g>
					<path class="st1" d="M341.6,652.8c0.3,0,4.7,3.8,6,0.4c1.3-3.4,1.2-3.1,2.3-7.9s1.6-7.8,1.6-7.8c0,0-1.2,14.5-2.1,16.7
						s-3.6,6-6.2,6C340.5,660.4,341.6,652.8,341.6,652.8z"/>
				</g>
			</g>
			<g>
				<path d="M236.5,604.1c-5.9-1.6-8.6-2.8-13.2-2.6s-10.1,0.2-9.4,6.9c1.2,13.2,0.6,15.6,9.2,18.1c7.7,2.2,7.4-1.5,10.4-8.4
					c3.4-7.8,5.5-8.8,7.5-8.7s1,1.1,1.9,6.4c0.9,5.4,3.9,15,23.3,13.8c15.3-0.9,13.2,3.3,21.4-14.7c0,0,33.3-1.4,32.8-1.1
					c-0.5,0.3,4.9-6.3,4.9-6.3s-33.1,1.5-37.8,1.8c-0.8-7,1.3-10-21.8-9.1c-24.8,1-22.4,3.6-24.5,3.8
					C239,604.3,236.5,604.1,236.5,604.1z"/>
				<path class="st2" d="M216.2,621c0,0-0.7-3.3-1.2-6.7c-0.4-3.4-0.9-8.7,1.2-10.6c2-1.8,13-1.8,19.7,1.5
					c-5.9-1.1-16.3-3.5-18.7-0.4S216.2,621,216.2,621z"/>
				<path class="st2" d="M245.1,619.5c-2-6.7-3.1-14.7,0-15.6c3.1-0.8,11-2.4,20.5-2c-7.2,0.7-9.7,0.8-14.6,1.7
					c-7.4,1.3-7.1,1.5-6.5,9.9c0.6,8.9,7.2,15.2,13.2,15C248.6,629.2,245.1,619.5,245.1,619.5z"/>
				<path class="st2" d="M263.2,628.6c0,0,9.1,1,15.1-1.6c2.9-1.3,3.6-3.9,4.8-6.9c3.7-9.3,2.2-16.8-2.4-17.7
					c-4.7-0.9-13.5-0.7-13.5-0.7s16.9-1.9,18.5,2.7c1.7,4.9,0.1,12.9-1.7,16.2C279.6,628.5,281.5,629,263.2,628.6z"/>
				<path class="st2" d="M291.2,611.3c4.3,0,31.3-1.9,31.3-1.9l1.4-1.4c0,0-31.6,1.7-33.9,1.8C287.6,609.9,286.9,611.3,291.2,611.3z
					"/>
				<path class="st2" d="M228,625.8c0,0-5.4-0.9-8.3-2.4c-3-1.5-3.7-2.6-3.8-6.6c-0.1-4.8-1.3-6.2-1-3.8c0.3,2.4-0.1,8.6,2.6,10.1
					c2.7,1.5,4.9,2.2,6.8,2.4C226.3,625.7,228,625.8,228,625.8z"/>
			</g>
			<g>
				<path d="M304.1,742.3c12.5-0.6,51.7-39.4,65.6-68.2c4-8.2,12.4,6,18.6,13.7c3.6,4.6,28.8,11.2,40.7,13.8
					c59.6,12.9,56.2,21.1,58.8,37.3c1.6,9.9,10.1,121.7,12.1,135.2s-15.3,66.2-15.3,74.3c0.2,24,27.9,84.3,33.3,96.1
					c13.7,30.4,23.8,55.8,36.7,102.5c-23.9,51.4-117.5,72.6-124,72.6c-6.4,0-66.3-99.1-78.6-124.8c4.3,94.5,8.9,133.9,8.9,133.9
					s-83.5-16.5-89.9-33c-9.2-44-14.7-123.8-11.9-147.7s-18.3-177.1-26.6-195.4c-8.3-18.3-11.4-81.6,2-105
					c16.8-29.4,31.6-30.1,48.5-33.2C291,728.3,304.1,742.3,304.1,742.3z"/>
				<path class="st1" d="M304.1,745.6c0,0,1.7,0,3.1-0.8c8.6-4.8,39.6-24.3,55.9-50.4c-1.1,21.1-17.7,68.9-24.7,89.1
					C338.5,783.5,321.8,755,304.1,745.6z"/>
				<path class="st1" d="M304.1,744.7c-1.1-0.4-20.5,4.4-27.2,34.2c-3-15.8,2.7-44.5,8.6-60.1C290.1,727.6,302.2,744.2,304.1,744.7z
					"/>
				<path class="st3" d="M290.1,772.9c0,0-5.6-8.5,0.1-15.4c6.2-7.5,9.6-8.3,10.6-8.5c1-0.2,8.6,7.3,9.1,9.1
					c0.6,1.9-3.8,11.3-6.8,11.3c-4.2,0-3.3,0.1-6.8-0.2S290.1,772.9,290.1,772.9z"/>
				<path class="st3" d="M291.1,775.3c2.7-2.7,5.5-3.4,10.5-1.1c-3,11.4-0.9,51.1,11.8,106.5c-8.4,27.1-11,46.9-11.1,47.1
					c0,0-11.6-27-14.1-48.9C287.7,867.5,289.4,782.5,291.1,775.3z"/>
				<path class="st1" d="M287.5,778.9c-3.6,32.6-3.9,56.1-3.7,64.9c-2.9-35.9-5.4-53-5.3-58.8c0.1-6.4,3.9-11.5,5.9-15.5
					C284.5,772.9,285.9,777.2,287.5,778.9z"/>
				<path class="st1" d="M255.6,719.6c-5.7,3.9-37.1,23.5-38.4,57.7c-1.4,34.1,1.7,61.7,15.4,100.8c8.5,24.4,25.2,120.9,24.8,152.9
					c-0.4,28.7,3.2,111.7,5.9,118.7c20.4-0.6,21.1,0,21.9-12.6c0.7-11.1,0.3-29,0.3-29s-4.6,1.3-24.3,1.4c0,0,7.7-1.9,7.4-5.2
					c-1.1-11-3.2-38.4-1.8-69.5c1.8-40.5-26.4-133.2-34.2-195.9c-4.7-37.8,11.3-95.1,41.6-122.7C263.4,716.9,260,716.5,255.6,719.6z
					"/>
				<path class="st1" d="M264.4,1153.8c0,0,16,0.5,20.7-1.9c2.4-4.7,3.6-18.7,3.6-18.7s4.2,58.9,13.7,80.5
					c-16.2-3.3-31.6-10.6-33.2-19C267.6,1186.3,264.4,1153.8,264.4,1153.8z"/>
				<path class="st1" d="M262.4,1039.7c0,0.5,6.9,33.6,8.2,41c1.3,7.3,3.8,25.3,4.9,25.6c1.1,0.3,6.9,0.5,8-0.7
					s-14.8-67.7-17.3-87.4c-2.5-19.7-6.3-19.8-6.1-11.1C260.2,1015.8,262.4,1039.7,262.4,1039.7z"/>
				<path class="st1" d="M311.1,776c0,0,4.6-2.7,6-7.9c15,13.1,18.9,25.3,18.9,25.3s-1.7,14.5-14.1,50.5
					C319.4,824.4,313.4,808.5,311.1,776z"/>
				<path class="st1" d="M290.3,1121.8c0,2.3,23.5,74.4,33.5,91.9c-16.3-20.9-36.1-71.7-36.1-71.7L290.3,1121.8z"/>
				<path class="st1" d="M316.3,979.1c0,0-20.5-34.7-33.7-69.1c-1.5-4-4.7-40.7-6.3-44.9c-10.2-26.5-13.2-28.9-14.6-50.5
					c-3.5-54.1,21.2-100.1,21.2-100.1s-8.1,4.9-11.8,7.7c-3.7,2.8-32.4,34.1-34.7,91.1C235.1,848.2,316.3,979.1,316.3,979.1z"/>
				<path class="st1" d="M374.8,763.3l-26.4,32.4c-8.6,11.4-38.8,141.2-38.8,141.2L390,781.8L374.8,763.3z"/>
				<path class="st1" d="M260.1,922.1c-3.7-19.4,73.7,157.6,75.9,172.6c2.2,14.9,1.4,52.2,3.5,70.7c2.1,18.5,12.1,66.9-16-7.4
					C295.4,1083.7,266.9,958.3,260.1,922.1z"/>
				<path class="st1" d="M365.9,690.9c11.6-6.2,14-12.7,16.4-5.7c2.3,7-5.6,32.8,7.7,27.4s16.4-7.7,32-4.6
					c-44.4,42.1-38.2,39.8-38.2,39.8l27.3-8.8c0,0-69.1,135-77.4,186.5c64.3-141.9,81.3-166.8,95.3-168.4
					c-37.4,81.1-47.7,116.1-47.7,116.1s78.4-163.8,104-146.6c-9.7-22.1-13.7-23.6-34.8-26.9c-13.5-2.1-41.9-7.4-52.3-9.2
					c-3.4-0.6-6.5-2.6-9-5.4c-10-11.5-9-14.6-24.2-15.8C386,675.9,369.8,686.2,365.9,690.9z"/>
			</g>
			<g>
				<path d="M411.7,780.6c3.5,22.9,19.1,60.7,22.8,65.9c3.7,5.2,12.6,41.4,22.2,48.1c9.6,6.7,20.7,14.8,20.7,17s0,18.5,8.1,28.1
					s20.9,34,25.9,32.6c3.5-1,5-2.7,5-2.7s-2.5,10.6,0,12.5c2.5,2,5.4,4.9,5.4,4.9s-0.5,19.2,0,22.9c0.5,3.7-4.9,18.9,0,23.1
					c-3.4,4.4-3.7,31-3.9,39.1c-0.2,8.1-7.9,37.1-3.9,38.3c-2.2,12.3-3.7,34.4-4.4,39.8s12.5,4.4,39.3,6.6
					c26.8,2.2,32.3,0.8,35.7-0.4c3.4-1.2,2.7-12.8,4.7-19.7s5.9-29.4,7.4-35.8c1.5-6.4,3.2-36.5,3.2-38.7c0-2.2,6-40.1,6.6-44.7
					s-4.1-29.7-3.9-33.2s-2.8-20-12.7-41.4c-9.8-21.4-73.3-164.7-84.3-184.8c-8.7-16-22.6-54-46.4-47.5
					C434.2,717.6,408.8,761.6,411.7,780.6z"/>
				<path class="st1" d="M438.2,724.4c0,0,21.5-29.7,42-8.2c20.5,21.5,35.4,56.5,38.2,62.7c0.7,1.6,12,20.2,21.1,39.8
					c2.3,4.9-1.2,9.6,1.1,14.6c9.5,20.6,21.1,39.2,22.3,43.2c5.9,19.5,37.6,86.5,41.4,94.9c3.7,8.4,0,15.9,0,15.9s9,24.6,6.8,29.6
					s-6.1,41.7-8.7,45.4c0,25.8-4.4,56.1-5.6,59.6s-6.8,35.1-8.7,36.3c-1.9,1.2-5.6,1.3-9-0.3c-3.4-1.6,4.2-6.5,5.9-16.2
					c3.6-21,18.8-153.9,12.2-170.7c-3.7-9.3-33-70.3-60.1-129.5c-2.4-5.3,0.7-12.4-1.7-17.6c-19.2-41.3-40.9-79.1-47.6-84.8
					C470.9,724.7,465.3,709.8,438.2,724.4z"/>
				<g>
					<path class="st1" d="M599.6,979.1c0,0-22-36-42.2-43.2c16.8-2.3,22.3-5.6,29,6.8c0.7,3.4,1.4,5.6,1.4,5.6s-4.1-6-7.5-9.1
						c-3.4-3.2-18.1-3.2-17-2.9c1.1,0.3,27.4,24.3,31.1,28.8C598,969.6,599.6,979.1,599.6,979.1z"/>
				</g>
				<path class="st1" d="M581.8,933.8c-4.9-5.2-6.3-14.9-16.8-18.3s-23.8-3.9-23.8-3.9s28.6-1.1,33.2,4.6
					C579,922,581.8,933.8,581.8,933.8z"/>
				<path class="st1" d="M560,890.9c0,0-3.7-13.6-9.6-13.8s-6.9-5-9.3-8.4c-0.5-0.7,5.4,6.3,9.4,5.7c4-0.6,5.7-1.9,8.7,3.6
					C562.3,883.5,560,890.9,560,890.9z"/>
			</g>
			<g>
				<path d="M526.1,1142.9c0,0-3,20.8-5,25.5c-1.9,4.7-6.9,6.6-8.8,16.3c-1.9,9.6-6.1,16.8-6.1,23.7c0,6.9-6.3,27.6-6.1,30
					c-3.9,7.2-5.8,10.7-3,11.9c2.8,1.1,13.2-0.3,16-6.9c2.8-6.6,7.4-18.2,7.4-18.2s0.6,8.5,3,10.2c-0.3,8,0,10.5,0,13.5
					c0,3,2.5,7.7,2.5,10.7c0,3,0.4,13.6,0.6,15.8s1.6,8.5,4.3,8.7c5.8,0.5,7.8-1.4,8.3-6.4c2.9,4.8,12.5,3.6,13.9-9.7
					c2,2.2,10.9,2.5,12.8-4.7c1.9-7.2,4-10.4,4-10.4s-0.2,4.8,3.1,3.2c4.5-2.2,6.9-4.3,7.8-9.5c0.8-5.2,2.6-17.6,1.5-22
					c-1.1-4.4-3.3-36.7-5-38.9s-4.4-10.2-5.5-14.3c-1.1-4.1-0.8-22.3-0.8-22.3L526.1,1142.9z"/>
				<path class="st1" d="M557.7,1270c0,0,6.3,1.4,9.7-7.7c3.4-9.2,6.3-15.5,4.6-20.6c-1.7-5.2-2.3-14.3-1.4-16.9
					c0.9-2.6,2.3-6.3,0.6-8.9c0.1,5.2-2.9,9.4-2.7,11.6c0.2,3.1,1.5,13.1,1.8,16c0.3,3-3.5,17.1-5.8,21.1
					C561.7,1269.4,557.7,1270,557.7,1270z"/>
				<path class="st1" d="M571,1256.3c2.2-0.6,5.9-0.7,7.9-6.3s3.8-11.2,3.8-17.1s-1.4-20.2-2.1-20.9c-0.7-0.6-2.8-1.8-2.8-3.1
					c0.1-1.3-1.6-22.8-1.9-24.3c-0.2-1.5-2.7-9.1-2.5-8.9c0.2,0.2,7.1,8.7,8.8,34.3c0.2,2.7,1.1,16.4,1.3,21.2
					c0.2,4.8-1.5,16.3-2.9,19.2C579.2,1253.5,574,1258.5,571,1256.3z"/>
				<path class="st1" d="M544.4,1280.4c0.3,0.2,6.3-0.3,8.1-5.6c1.5-4.2,3-16.8,3.1-18c0.2-1.2-1.3-26.3,0-28.4s2.7-7.4,0-10.6
					c-2.7-3.1-2-1.9-0.6,2.4c1.5,4.8-2.5,9.3-2.5,11.5s0.2,26.4-1.4,27.1c1.5,1,2,1.2,1.7,4.1c-0.3,3-1.7,13.6-4.6,15.9
					C546.1,1280.4,544.4,1280.4,544.4,1280.4z"/>
				<path class="st1" d="M532.2,1284.3c4.3,0.3,7.6-0.8,7.4-7.7c-0.2-6.9-0.4-16.8-0.4-20s-1-16-1.2-18.2c-0.2-2.2,1-3.6,1.8-6.4
					c0.7-2.8,0.5-6.5-0.8-7.3c-0.5,3.9-0.6,12-2.7,13.5c-2.1,1.6,1.3-0.1,1.7,7.4s0,13,0.7,15s0.6,17.6,0.1,18.8
					C538.1,1280.7,538.6,1282.9,532.2,1284.3z"/>
				<path class="st1" d="M523.6,1245.7c0-2.8-0.7-10.1-0.7-10.1s-2.4-4.8-2.4-9.2c-3.4-6.6-5.8-21.9-6-27.1c0,0,6.1,24.3,7.1,25.8
					s1.7,9.8,4.1,10C523.9,1237.8,523.6,1245.7,523.6,1245.7z"/>
				<path class="st1" d="M497.2,1250.3c0,0,12-0.2,14-6.3c2-6.1,8.9-21.6,8.9-21.6s0.9,0.8,1.5,2.5s-6.7,18.4-8.4,20.7
					C511.5,1248,503.3,1252.5,497.2,1250.3z"/>
			</g>
			<path d="M593.7,1687.5c1.3,5.5-2.1,28.7-2.5,32.5c-0.4,3.8-5.1,34.2-5.1,38s5.7,25.9,8.4,26.7c2.7,0.8,19.4,0.3,24.9-0.5
				c5.5-0.9,27.7-16.9,34.1-28.3c6.4-11.5,4.6-26.9,2.9-31.6c-1.7-4.7,2.3-13,1.8-18.6s-12.3-28.5-16.4-30.2
				C637.9,1673.9,593.7,1687.5,593.7,1687.5z"/>
			<path d="M587.3,1767.6c0,0,3.8,17.7,6.3,18.1c2.5,0.4,24.5,0.8,26.7-0.4c2.2-1.2,18.4-6.9,35-30.1c1.9-6.4,2.5-8.3,2.5-8.3
				s0,8.7-3.5,13.8c-3.5,5-15,16.1-27.6,23.1c-7.2,4-6.6,4.5-24,4.5c-5.9,0-9.8,0.2-10.3-1.2
				C587.3,1773.7,587.3,1767.6,587.3,1767.6z"/>
			<path d="M13.4,785.7c1.1-5.2,16.2-49.4,17.9-54c1.7-4.6,54.1-77.6,57-79.9s9.5-6.4,9.7-6.7c3.9-7.6,16.6-25,17.1-25.8
				c0.8-1.3,9.8-4,28.3,5.2c18.5,9.2,28.8,19.6,27.7,21.9s-19,33.4-23.1,36.8c-4,3.3-8.9,5.4-8.5,11.6c0.3,4.3-3.6,15.6-8.2,24
				c-4.6,8.3-10.4,4.9-12.7,12.4s-8.6,31.7-17.3,38.3c-8.6,6.6-48.2,32.3-60.5,36.3C31.2,809,10.7,799.4,13.4,785.7z"/>
			<path class="st1" d="M159.5,739c0,0-1.2-6.4,6.3-6.8c7.5-0.4,24.1-2.5,27.3-4.6c3.2-2.1,36.8-14.7,41.3-14.7s22.7,4.5,31.2,5.9
				c8.5,1.4-37.6,48.8-40.3,49.3c-2.7,0.5-10.7-29.1-16.2-31.1c-2.9-1-12.5-3.8-15.5-3.4c-3,0.4-23.3,1.7-25.6,2s-2,5.5-2,5.5
				s28.3,14.7,42.1,41.6C183,752.3,159.5,739,159.5,739z"/>
			<path class="st1" d="M106.5,743.4c0.3,0.4,3.2-2.7,14.5-4.8c4.3-0.8,7.9-2.6,12.5-0.7c9.7-0.5,20.5-0.8,28.8-0.2l3.7,3.5
				c0,0-9.4-3.3-14.4,0.4c12.7,4.4,33.5,23.3,44.7,42c-23.4-31.7-51.7-42.5-60.5-42c9.9,11.4,11.3,24.5,8.9,31.4
				c2.4-15.4-12.8-33.8-18.8-32.6C120,741.5,106.5,743.4,106.5,743.4z"/>
			<path class="st1" d="M18.5,799.1c0,0-4.8-2.5-2-13.2c6.4-24.6,42-47.6,45.6-52c3.6-4.4,31.3-12.3,31.3-12.3S64,727,60.8,728.2
				s-21.2,18.2-22.2,16.4c-7.2-12.9,7.2-21.6,13.3-28.4c6-6.8,34.8-22.3,34.8-22.3s21.2-5.1,20-6.4c-1.2-1.3-16.9,1.2-18.5,0.4
				c-1.6-0.8-26.5,9.1-26.5,9.3c0,0.2,30.6-38.2,30.6-38.2s19.6-8.1,24.1-5.7c4.4,2.4,17.4,1.5,20.7,9.4
				C128,646,117,649.2,115,647.2s-3.6-5.2-3.6-5.2l14.5-21c0,0,31.1,7.7,38.1,16.6c-22-21.7-46.2-22.8-46.2-22.8l-21,30l-7.2,3.6
				L30.8,728c0,0-8.1,24.9-10.6,30.5S9.2,782.4,9.2,785.6C9.2,788.8,18.5,799.1,18.5,799.1z"/>
			<g>
				<path class="st1" d="M161.2,643.8l7.2-6.9c0,0,13.9,0,17.3-1.2s22.5-16.4,25.1-20.2c2.6-3.8,6.3-6.9,11.8-9.3
					c5.5-2.4,9.6-3.4,7.8-6c-1.8-2.6-7.2-5.8-9.8-4.7c3.8-1.1,10.7-0.9,12.5-3.2c6.4,1.4,12.1-1.4,12.1-1.4s17-1.2,10.4-11.9
					c3.1-2.4,5.2-9.3-4.4-8.7c-1.7-4.4-4.7-5.8-7.5-5.2s-19.9-0.4-22.6-0.1s-12.4,0.3-13.1,0.9s5.6-4.7,4.7-8.4
					c-0.9-3.7-4.7-4.3-5.7-3.1c-0.9,1.2-17.3,10.9-19.9,12.8c-2.6,2-18.2,9-20.6,10.9c-2.4,1.8-18,21.3-20.8,24.8
					s-17.1,18.5-19.6,20.6s-0.9,1.7-3.3,6.3c-2.4,4.6,20.9,11.4,20.9,11.4L161.2,643.8z"/>
				<path d="M202.1,622.7c0,0-12.1,5.9-14.5,7.4s-13,2.2-15.1,1.8s-4.4-6.9-4.4-6.9l-8.3,4.3l-9.5-0.7l-12.8-7.5
					c0,0,6.4,10.9,7.5,12.8s10.5,3.7,11.5,3.7s-6.9,10.8-6.9,10.8s13.3-0.9,13.6-1.5c0.3-0.6,4-9.6,4-9.6l15.1,1.3l16.8-8
					c0,0,13.3-16.2,16-18c2.7-1.8,11.7-8.6,11.8-10.2c0.1-1.6-6.5-6.9-5.9-6.9c0.6,0,10.5-0.3,13.4-3c9.6,1,11.4-1.5,11.4-1.5
					s7.7-0.1,11.2-6.1c-6.1,1.5-6.9,0.7-6.9-0.7c5.8-3.5,5.6-7.4,5.6-7.4s-4.4,2.1-10.3,0c4.3-4.1,6.5-5.6,5.8-8.7
					c-9.3,6.2-17.4,7.2-20.1,7.8c-2.7,0.6-15.1,0.7-15.1,0.7s-13.4,5-14.9,4.1c-1.5-0.9-3.5-2.4-1-4.7c2.5-2.4,11.4-10.5,14.2-10.5
					c-5.8-0.4-5-0.7-5-0.7s5.9-4.3,3.5-8.6c-1.6,3.8-12.1,15.7-12.7,16.7s-10,4.4-12.4,5.8s-10.5,0-10.5,0s2.7,3.8,5.2,4.1
					c2.5,0.3,13.3,1.3,13.3,1.3s-1.5,4.1-4,5c-2.5,0.9-18.8,1.3-20.7,1c-1.9-0.3-3,3.2-1,3.7c1.9,0.4,14.5,2.1,14.5,2.1
					s12.1,1.3,16,3.4c3.8,2.1,3.7,7.1,3.7,7.1s-4.1,6.1-3.5,8S202.1,622.7,202.1,622.7z"/>
				<path d="M164.7,624c2.3-1.1,9.6-4.7,13.9-7.7C168.8,619.7,164.7,624,164.7,624z"/>
				<path d="M162.4,618c1.1,0,6.4-3,14.1-8.1s7.7-5.1,7.7-5.1s-13.2,3.5-16.3,7.9C164.7,617.1,162.4,618,162.4,618z"/>
				<path d="M171.6,604.8c1.1-0.4,13.5-5.8,16.9-6.6c3.4-0.8,16.7,0.8,17.3,1.1c0.6,0.4-0.4,9.9-1.7,11.3s-7.7,3.8-10.9,4.5
					c-3.2,0.8-9,0-9,0s8.3,1.7,12.8,1.1c4.5-0.6,9.9-6.4,10.1-7.3c0.2-0.9,1.5-10.9,1.5-10.9s-17.1-3.4-18.5-2.4
					C188.7,596.6,171.6,604.8,171.6,604.8z"/>
			</g>
			<path class="st1" d="M165.8,817.5c1.8,0,7.5,5.8,7.5,5.8s20.3,2.9,23.1,1.9c2.8-1.1,17.7-0.3,20.4,1.3c2.7,1.7,7.5,12.9,7.5,12.9
				s-10.1-9.5-13-10.3c-2.9-0.8-67.5-2.1-81.8-2.4s-65.7-3.2-68.9-4c-3.2-0.8-25.9-13.5-25.9-13.5c0.6,0.3,28.8,10.1,35.4,10.1
				c6.6,0,34.2,3.4,39,1.6c4.7-1.8,30.8-11.3,30.3-10.3c-0.5,1.1-21.6,9.8-20,10.8"/>
			<path d="M266.7,1799.4c0,0,6.5,1.1,10.3,1.9c3.8,0.8,36.6,7,48.7,4.7s30.4-7.3,32.6-9.5c2.2-2.2,25.3-17.1,29.9-18.8
				c4.6-1.7,1.6,2.5,1.6,2.5s-20.7,12.7-29.9,18.2c-9.2,5.5-24.4,9.7-43.7,10.3c-19.3,0.6-48.1-7-51.9-8.4c-3.8-1.4,2.2-2.7,2.2-2.7
				L266.7,1799.4z"/>
		</g>
		<g>
			<rect x="1447" y="898.4" class="st4" width="434" height="1345.2"/>
			<polygon class="st4" points="1448.7,2244.2 1220.9,2160.3 1220.9,890.9 1448.7,897.3 			"/>
			<line class="st5" x1="1223.1" y1="926.8" x2="1447.2" y2="935.8"/>
			<g>
				<line class="st4" x1="1220.9" y1="2160.3" x2="1448.7" y2="2244.2"/>
				<line class="st4" x1="1220.4" y1="1978.9" x2="1448.2" y2="2052"/>
				<line class="st4" x1="1219.9" y1="1797.5" x2="1447.8" y2="1859.8"/>
				<line class="st4" x1="1219.4" y1="1616.2" x2="1447.3" y2="1667.7"/>
				<line class="st4" x1="1219" y1="1434.8" x2="1446.8" y2="1475.5"/>
				<line class="st4" x1="1218.5" y1="1253.4" x2="1446.3" y2="1283.3"/>
				<line class="st4" x1="1218" y1="1072" x2="1445.8" y2="1091.1"/>
				<line class="st4" x1="1217.5" y1="890.6" x2="1445.3" y2="898.9"/>
			</g>
			<g>
				<rect x="1076.2" y="1003.5" class="st6" width="359.2" height="267.2"/>
				<polygon class="st7" points="1435.3,1003.5 1219.6,984.7 911,974.4 1061.6,990.2 1077.4,990.2 1076.2,1003.5 				"/>
				<polygon class="st6" points="745.9,958.1 1060.4,989 1060.4,1280.4 745.9,1249.5 				"/>
				<rect x="1061.6" y="990.2" class="st6" width="15.7" height="290.2"/>
			</g>
			<g>
				<g>
					<path d="M1161.6,983.4c-3.8-3.8-14.9-9.6-20.4-11.7c-5.5-2-12.6-4.7-13.4-10.5s-3.6-23.3-6-26.2s23.8-29.7,25.9-31.2
						c2-1.5,27.7,11.9,27.7,11.9l35,12.6c0,0,15.8,12.8,20.4,15.8s26.6,34.8,26.6,34.8s-8.5,3.5-11.7,0.6c0,0-7.6,2.6-10.2,0.6
						c-2.6-2-10.8-8.5-11.7-10.2s-10.5-15.5-12.3-15.8c-1.8-0.3-19.3-2-19.3-2s5.8,13.7,7,16.6s4.1,9.1,1.8,10.2s-8.2,1.8-12.6-6.4
						c-4.4-8.2-9.3-18.7-14.9-19c-5.5-0.3-13.4-0.6-13.7,2c-0.3,2.6,4.4,9.1,8.2,13.7s6.7,12.8,5.5,13.7
						C1172.4,983.7,1161.6,983.4,1161.6,983.4z"/>
					<path d="M982.4,860.9c6.1-12.7,28.7-33.3,41.1-31.6c12.4,1.8,72,31.9,78.7,37.9c6.7,6,41.8,21.6,45.4,22.7s1.1,5.3,1.1,5.3
						l14.3,10.5c0,0-16.5-1.2-28.8,15.4c-6.9,9.3-12.8,12.4-12.4,13.8c0.4,1.4-11.3-3.2-11.3-3.2s0.4,7.1-2.5,7.4
						c-2.8,0.4-31.9-12.4-34.7-12.8c-2.8-0.4-68.1-23.8-75.5-28.4S977.4,871.2,982.4,860.9z"/>
					<path d="M771.8,791.1c7.8-1.5,41.1-3.2,63.1,9.2c22,12.4,127.3,25.5,138.6,24.8c11.3-0.7,50,1.4,50,4.3
						c0,2.8-15.6,75.2-15.6,75.2s-159.2,3.9-167.4,2.1c-8.2-1.8-51.8-39.4-63.5-51.8S771.8,791.1,771.8,791.1z"/>
					<path class="st1" d="M771.8,791.1c8.6-9.5,55.7-5.4,81.4,14.5c67,15.7,101.7,18.2,112.5,17.4s51.3,0,58.7,0.8
						s65.3,32.3,84.4,42.2s39.8,23.6,39.8,23.6s3.6,3.4,0.4,6.1c-2.7,2.3-5.4,2.5-8.1,2.5c-3.3,0-74.3-40.5-81.7-43.8
						c-7.4-3.3,9.9,16.5,9.9,16.5s-34.7-32.3-37.2-33.1c-2.5-0.8-44.7,4.1-53.8,5.8c-9.1,1.7-29-2.5-29-2.5s53.8-5.6,57.1-8.3
						c4.1-3.3-53.8-0.8-62-2.5c-8.3-1.7-61.2-9.9-69.5-9.9c-8.3,0,17.4,12.4,17.4,12.4s-32.3-7.4-39.7-12.4
						c-7.4-5-16.5-13.2-28.1-16.5c-11.6-3.3-37.2-7.4-44.7-5C772.1,801.5,771.8,791.1,771.8,791.1z"/>
				</g>
				<g>
					<g>
						<path d="M726.2,2246.7c-34.5,2.2-61.7,4.4-81.6-33.1c-19.8-37.5-22.8-36-21.3-116.9c1.5-80.8-7.3-180.1-5.1-216.8
							c2.2-36.7,2.9-91.9,16.9-109.5c14-17.6,14-27.9,11-35.3c-2.9-7.3,0.7-27.2,3.7-43.4c2.9-16.2-8.8-37.5-8.1-49.2
							s1.5-19.1,1.5-32.3c0-13.2-8.8-74.2-8.8-74.2s-9.6-3.7-6.6-15.4s-6.6-12.5-8.1-21.3s-3.7-1.5-1.5-8.8s-9.6-78.6-8.1-119.1
							c1.5-40.4,28-112.3,30.2-121.1c2.2-8.8,19.3-43.7,21.5-42.2s102.5-8,146.6-16c44.1-8.1,80.1-2.2,80.1-2.2s5.3,16.9,3.1,38.9
							c-2.2,22,2.7,114.9-47.2,193.3c-20.6,122.7-57.3,298.4-68.3,331.5c-11,33.1-30.1,110.2-39.7,169c-9.6,58.8-9.6,122.7-9.6,136
							c0,13.2,14.7,46.3,14,55.9c-0.7,9.6-9.6,25-9.6,25l6.6,25.7c0,0,9.6,2.9,12.5,15.4c2.9,12.5,2.2,52.2,2.2,52.2
							S737.9,2245.9,726.2,2246.7z"/>
						<path d="M789.4,2156.3c16.2-3.7,48.5,6.6,62.5,4.4c14-2.2,27.2-9.6,22.8-20.6c-4.4-11-16.9-30.1-16.9-39.7
							c0-9.6,8.8-14,8.8-21.3c0-7.3-2.9-21.3-4.4-30.9c-1.5-9.6,2.9-70.6,2.9-86c0-15.4,3.7-64.7,3.7-64.7s8.1-14,8.8-25.7
							c0.7-11.8-7.3-36.7,0-78.6c7.3-41.9,11.8-49.2,30.9-151.4s41.9-192.6,33.8-267.5s-40.9-165.1-46-176.1
							c-5.1-11-30-17.5-52.1-7.2c-22,10.3-102.5,9.8-102.5,9.8s18.4,574.7,20.6,596.8c2.2,22-3.7,98.5-8.1,124.2s-15.4,72-10.3,91.9
							c5.1,19.8,13.2,73.5,16.9,83.8c3.7,10.3-7.3,18.4-7.3,30.1s6.6,22.8,6.6,22.8L789.4,2156.3z"/>
						<path d="M742.5,2216c0,0,13.7,35.6,18.1,46.2s48.7,71.2,54.3,79.9s11.9,31.2,6.9,40s-96.8-1.2-106.8-3.7
							c-10-2.5-29.4-21.9-28.7-31.8s-1.9-24.4-1.9-24.4l-9.4,3.7l-20.6-6.9c0,0-2.5-34.3-4.4-45c-1.9-10.6-18.7-36.8-15.6-52.5
							c3.1-15.6,5-25.6,7.5-25.6s86.8-7.5,86.8-7.5L742.5,2216z"/>
						<path d="M764.9,2116.8c-1.9-1.2-14.4,18.7-14.4,29.4s3.1,14.4,10,28.1c6.9,13.7,9.4,56.2,9.4,60.6c0,4.4,23.1,3.7,23.1,3.7
							l6.2-8.7l-6.2-47.5c0,0,27.5,14.4,35,26.9s26.9,48.1,44.3,52.5c17.5,4.4,91.2-2.5,100.5-6.2c9.4-3.7,10.6-12.5,7.5-17.5
							c-3.1-5-74.9-43.7-79.3-51.8c-4.4-8.1-28.7-38.7-39.3-50C851.1,2124.9,766.8,2118,764.9,2116.8z"/>
						<path d="M600.1,1383.3c0,0,245.2-7.2,254.8-12.8c9.6-5.6,37.5-114.2,37.5-131c1.6,117.4,7.2,120.6,12,121.4
							c4.8,0.8,41.5-12.8,43.1-15.2c1.6-2.4-28.1-157-53.5-193.3c-11.2-16-17.2-79.9-14.8-86.3c2.4-6.4,26.9-73.6,26.9-95.2
							c0-21.6-28.9-96.5-34.5-105.3s-16-33.5-31.9-41.5c-16-8-42.3-31.1-47.9-35.1c-5.6-4-12-20-16-25.6
							c-4-5.6-87.8-52.7-114.2-35.9c-26.4,16.8-76.7,53.5-86.2,65.5c-9.6,12-17.6,35.1-16,47.9c1.6,12.8,39.1,134.2,51.1,160.5
							c12,26.4,43.4,111.7,44.2,128.4c0.8,16.8-29,92-35.4,114.3S592.1,1346.5,600.1,1383.3z"/>
						<path class="st1" d="M779.4,802.7c0,0-49.6-8-96.4-55.3c0.8,1.9,32.5,73.7,62.5,96.9C756.6,820.3,779.4,802.7,779.4,802.7z"/>
						<path class="st1" d="M779.2,802.5c4.2-23.2-3.3-39.3-3.3-39.3s28,30.3,28.3,54.4C792.4,804.8,784.5,805.1,779.2,802.5z"/>
						<path class="st3" d="M767.9,817.1c-0.9-2.1,10.5-11.3,11.5-12.1c1-0.8,7.9,1,10.3,3.3c2.5,2.3,3.8,5.4,4.2,7.7
							c0.4,2.3,0,12.1-0.6,14.7c-0.6,2.7-6.9,3.6-10,3.6S771.9,826.9,767.9,817.1z"/>
						<path class="st3" d="M782.1,836.7c0,0,10,2.1,13.9-4.4c13.7,29.4,17.9,47.3,17.9,48.7s2.8,62,2.8,62s-33.6-38.2-33.6-39.2
							S782.1,836.7,782.1,836.7z"/>
						<path class="st1" d="M781.3,901.8c-16.9-19.3-39.8-47.3-50.3-65.9c15,14.7,16.1,13.8,16,13.2c-0.1-0.6,15.7-16.3,24.3-19.2
							c2,3.8,7.5,6.2,7.5,6.2S779,888.9,781.3,901.8z"/>
						<path class="st1" d="M797.1,830.6c0,0,0.3-9.9-0.6-13.8c7.5,3.1,8.5,4.3,8.5,4.3s4.8,32.7,5.8,43.5
							C805.7,850.1,797.1,830.6,797.1,830.6z"/>
						<path class="st1" d="M826.8,986.2c0,0-135.5-114.3-174.9-198c35.7,44.1,43.7,56.2,43.7,56.2l16.9-14.4l-10.6,20.6l88.7,74.9
							c0,0-106.6-147.4-110.8-153.7c-4.2-6.3-18.2-44.4-18.2-44.4s-72,48.8-86.2,65.5c-11.1,10.4-27.9,41.9-6.9,86
							c0,0,2.1-60.9,35.7-37.8c33.6,23.1,65.1,56.7,71.4,79.8c0,0-60.7-107-69.3-115.5c-8.6-8.6,10.1-19.2,21-25.2
							C654.5,841.4,725,911.3,826.8,986.2z"/>
						<path class="st1" d="M806.9,802.4c0,0,17.1,115.1,15.4,176.2c2-43.6-1-117.5-3.4-127.9C816.7,840.4,806.9,802.4,806.9,802.4z"
							/>
						<polygon class="st1" points="827.4,859.8 816.3,843.7 821.7,929.3 						"/>
						<path class="st1" d="M814.8,843.2l13.8,10.9c0,0-21.8-52.7-21.5-51C807.4,805.3,814.8,843.2,814.8,843.2z"/>
						<path class="st1" d="M597.1,1385.2c0,0-5.2-16,2.8-70.5c8-54.5,51.7-176.7,51.7-181.9s1.9-11.7-16.9-60.6
							c-18.8-48.9-70.5-195-71.9-210.1c-1.4-15,59.7,151.3,69.6,168.7c9.9,17.4,40.9,100.1,43.7,109.5s-35.7,122.2-24.4,247.7
							C617.3,1390.8,597.1,1385.2,597.1,1385.2z"/>
						<path class="st1" d="M611.4,1404.9c0,0,3.1,54.2,4.7,58.3s0.8,11.5,0.8,16.7c0,5.2-3.1,15.7,0,14.9c3.1-0.8,11.8-8.1,12.8-6
							c1,2.1-0.5,18.1-0.8,24.1c-0.3,6-3.9,11.3-2.9,14.4c1,3.1,4.1,7.5,8.2,8.6c-3.5-9.4-3.5-12.8,2.8-21.4
							c6.3-8.6,18.8-31.4,18.8-31.4s-20.7,59.9-19.1,70.1c1.6,10.2,5.2,55.5,5.2,60.7c0,5.2-1.8,30.9,0.3,36.4
							c6-24.6,13.6-50.8,13.6-50.8s-3.4,77.7-4.4,84.5c-1,6.8-7.1,27.7-7.3,35.1s-0.3,13.9,3.1,22c1.6-16.7,5.8-41.3,7.3-50
							c1.6-8.6,5.8,45.3-10.2,66.7c-16,21.5-20.7,25.9-23.3,56c-2.6,30.1-6.8,109.9-3.9,146.3c2.9,36.4,4.2,153.1,4.4,158.8
							c0.3,5.8-3.1,64.1,17,83.2c0,0,24.3-2.6,33,0.8c0,0-23.4-5.3-25.9-8.9c-7.3-10.6-6.6-85.5-8.7-119.1
							c-2.1-33.6-3.5-146.3,9.1-182c12.6-35.7,15.4-48.3,16.8-72.8c0,0-25.9,69.3-32.2,81.9c0-67.2,19.6-123.9,28-146.3
							s9.1-83.3,12.6-93.1c3.5-9.8,21-53.9,21-53.9s-28,46.2-28,39.9c0-6.3,1.4-86.8-2.1-104.3c-3.5-17.5,0.7-61.6,0-70.7
							c-0.7-9.1-11.9-43.4-9.8-64.4C628.7,1415.4,611.4,1404.9,611.4,1404.9z"/>
						<path class="st1" d="M724.4,2371.1c-6.7-1.5-8.1-4.7-13.4-8.9c21.9,5.3,60,8.7,68.9,8.5c0,0,26.9,0.3,24.4-8
							s-10.2-15.9-24.2-20.3c-5.9-1.9-30.9,4-56.7-17.1c-12-9.8-57.6-116.1-57.6-116.1s-2.4-2.8-10.9-2.3
							c-8.5,0.5-17.1,0.8-17.1,0.8s-12.4,17.9-1.6,38.1c10.9,20.2,18,73.4,18,73.4l20.6,6.9c0,0-13-54.6-18.4-66.3
							c-1-2.2-1.3-5.5-1.1-9.3c9.4,13.5,24,36.9,28.3,48.1c3.7,9.7,5.7,23.2,6.8,32.6c-0.5,6-1.1,17.5,0.5,21.4
							c2.3,5.4,9.6,17.9,28.1,23.4s95.9,6.2,95.9,6.2l1.4-5.2C816.6,2376.9,749.3,2375.7,724.4,2371.1z"/>
						<path class="st1" d="M777,2138.2c-17.9-2.8-24-2-25.2-6.5s7.7-24.8,8.5-28.8s-12.6-75.6-15.4-80.9c-2.8-5.3-5.3-27.6-3.3-41
							s16.3-84.9,16.3-97.9c0-13,4.5-81.3,4.5-81.3s13.8-31.7,14.6-35.8c-6.5,76.4-11.4,127.2-12.6,134.9c-1.2,7.7,22.8-28,24-34.5
							c1.2-6.5-11,37.4-19.1,51.6c-8.1,14.2-21.5,60.1-20.7,66.6c0.8,6.5,20.3-41.8,20.3-41.8s-19.1,53.6-17.5,64.6
							s13.4,47.1,16.7,62.6c3.3,15.4,46.7,44.7,56.5,44.3c-26-0.4-39.8-7.7-45.5-11.4c-5.7-3.7,13,37,20.3,40.2
							C780.3,2140.2,777,2138.2,777,2138.2z"/>
						<path class="st1" d="M752.2,2139.1c0,0,34.3,9.1,40.5,9.1c18.8,13.5,28.2,51,27.3,50.8c-0.9-0.3-26.9-16.6-26.9-16.6l-8-1.9
							l8,58.1c0,0-16.8,4.5-23.1-3.7c-1.6-15.3-3.7-43.5-7.2-49.6s-10.5-22.6-11.7-28.2C748.7,2146.7,752.2,2139.1,752.2,2139.1z"/>
					</g>
					<g>
						<g>
							<path d="M910.1,630.1c3.3-4,35.9-7.5,34.2-31.7c-1.7-24.2-26.9-78.8-56-72.2c-30.8-42-113.5-53.3-135.3-32.1
								s-97.8,60-94.6,138.3c0.8,20-23.7,42.2-64.6,68.3c-27.6,17.6-17.7,63.7-9.5,93.2c10.1,27.5,28.1,5.6,29.9,1.3
								c-14.8-4.4-7.5-18.1,4-23.1c46.9-20.7,116.6-24.5,116.6-24.5L910.1,630.1z"/>
							<path class="st1" d="M771.8,791.1c0,0,1-5,2.4-11.4c2-9.5,4.6-22.1,5.4-26.3c1.4-7.1-2.8-64.8-7.1-72.6
								c-4.3-7.8-10.7-27.8-12.1-13.5c-1.4,14.2-39.7,50-50.3,69.8c-8.3,15.5-5.4,10.9,2.5,19.5
								C720.4,765.1,771.8,791.1,771.8,791.1z"/>
							<path d="M772.5,792.6c12.7-17.9,13.9-51.9,27.3-40.7c14.6,12.2,30.8,17.9,36.8,12.4s4-14.4,5.1-16.9c2.6-6,13.1-4.7,17.4-4.8
								c4.3,0,7.2-7.2,3.5-14.5c8.4,1.4,11.5-1.7,11.5-1.7l2-14.6c0,0,8.1,3.8,17.4,1.1c1.4-1,3.3-1.6,2.9-3.1
								c-6.4-24-5.6-45.1-5.6-45.1s14.1-16.1,16.8-23.7c2.7-7.6,6.5-29.9-2.2-43.5c-8.7-13.5-20-24.9-20-24.9s-68.7,36.3-75.8,37.3
								c-7,1.1-17.9,5.4-20-0.5s-11.9-21.1-17.3-19.5c-5.4,1.6-18.4,39.5-15.2,53.6c3.2,14.1,1.6,34.7,1.1,43.4
								c-1.4,29.8,5.4,26.9,6.7,40.4c1.3,13.9-19.2,36.3-20.6,47.7C743.2,783.6,766.7,791.8,772.5,792.6z"/>
							<path class="st1" d="M823.6,761.1c-5.3-3.4-47.6-53.3-49.8-68.4c-2.2-15.2,4.3-55.7,10.2-67s42.2-17.2,49.8-22.6
								c7.6-5.4,37.4-16.7,46.3-16.7c8.4,19.8,14.3,40.8,14.3,45.7c0,4.9-14.6-4.1-25.4-4.1c-10.8,0-23,7.1-25.7,9.8
								c-2.7,2.7,20.2,31.8,17.6,42c-1.6,6.3-21.7,13.6-23.3,25c-0.4,3.1-2.8,8.3-0.1,9.8c2.3,1.4,7.7,13.2,5,13.7
								c-6.4,1.1-9.4,8.9-8.2,14.2C836.4,752.3,828.9,764.6,823.6,761.1z"/>
							<path class="st1" d="M774,658.7c-2.7,2.9-10.4,1.3-14.4-7.5s-4.5-20-3.2-25.1c1.3-5.1,8.5-30.4,11.7-34.7s10.7-3.5,15.2,4.3
								c4.5,7.7,7.5,16.3,7.5,16.3s-11.2-12.8-14.1-11.5c-2.9,1.3-5.9,3.2-5.9,8s-2.7,19.7-3.2,20.8c-0.5,1.1,4.8-5.9,5.6-8.5
								c0.8-2.7,2.7-11.7,2.7-11.7s-1.3,20-2.7,23.2c-1.3,3.2,0.3,10.1,0.3,10.1s-3.5-1.9-5.6-5.3s-2.1,1.1-1.6,3.5
								s6.7,11.5,8.3,11.7S774,658.7,774,658.7z"/>
							<path class="st1" d="M867.5,717.8c-0.9-0.5-10.6-2.5-14.8-1.3c-2.5,0.7-10.2-3.2-10.7-4.1c-0.5-0.9-2.7-1.8-3.5-1.5
								c-0.7,0.4-3.1,1.8-3.1,1.8s2.6-10.3,4-12c3.6-4.4,13.9-6.9,16-7.8c2.2-0.9,14.6,1.2,14.6,1.2s0,5.1,0,8.1
								S868.4,718.3,867.5,717.8z"/>
							<path class="st1" d="M837.1,714.5c0.6,0,7.1,2.8,10.1,3.8c3,1,9.3,5.7,9.9,7.3c0.6,1.6,2.6,5.9,2.6,8.1c0,2.2-1.8,5.3-4,4.4
								c-2.2-1-11.7-11.5-14.5-14.9C838.5,719.9,837.1,714.5,837.1,714.5z"/>
							<path class="st1" d="M873,703.5c-0.7-2.5,4.1-6.1,5.5-6.7c1.3-0.6,8,9.7,8,9.7s-6.4-2.8-8.5-2.5
								C875.9,704.2,873.7,706,873,703.5z"/>
							<path class="st1" d="M855.6,633.5c4.3-0.9,9.9-2.2,13.3-0.9s6.5,3.8,8,5.5c1.5,1.7-1.4,9.3-1.4,9.3s-4.6-3.4-8.5-4.6
								c-3.9-1.1-21.4-3.7-24.4-5L855.6,633.5z"/>
						</g>
						<path d="M808.6,748.6c2.3,3,12.9,15.9,15.9,15.9s14-17,14.8-20.5c0.8-3.4,20.8-2.3,21.2-4.5c0.4-2.3-2.7-15.9-2.3-17
							c0.4-1.1,13.6-4.2,13.6-5.3c0-1.1,6.1-9.1,7.2-9.1c1.1,0,7.4-1.6,7.4-1.6l-1-58.2c0,0,15.1-11.4,14.8-13.3s-12.9-54.5-20.1-53
							c-7.2,1.5-51.5,21.6-51.5,21.6s28.4-5.3,32.6-6.1c4.2-0.8,8.7,11,5.7,14.4s8.7-6.8-3,3.4c-11.7,10.2-29.9,17.8-36.7,20.1
							c-6.8,2.3,3.4,26.9,1.1,33.7c-2.3,6.8-18.9,7.6-21.6,14C804.1,689.5,807.5,747.1,808.6,748.6z"/>
						<polygon points="793.9,613.9 839.2,648.9 846.8,640.2 800.7,608.4 						"/>
						<path class="st1" d="M613.8,800.5c0,0-7.6,10.9-16.1,8c-8.5-2.8-15.1-7.6-16.1-22.2c-8.5-5.7-33.6-6.1-29.8-33.1
							c3.3,17.5,16.5,12.8,16.5,6.6s-8-35.9-4.3-45.9c3.8-9.9,31.2-25.5,44-29.3c12.8-3.8,48.7-31.7,47.7-45.9s-3.8-55.8,7.1-75.6
							s70-54.8,79.4-65.2c9.5-10.4,74.1-48.4,145.8,28.3c-42.7-20.7-71.1-38.7-101.4-24.5c-30.3,14.2-65.7,49.2-44.9,52
							c20.8,2.8,60,20.8,78.5,13.2s53.9,6.6,53.9,6.6s-34.5-1.9-45.9-0.9c-11.3,0.9-47.7,21.3-57.2,22.2c-9.5,0.9-78.5-8-84.1-1.4
							s-16.1,49-6.6,55.3c27,18-40.9,26.6-51.5,53.4c-3.3,8.4,9.5,22.7,25.1,17.5c15.6-5.2,32.1-13.2,34,1.4
							c1.9,14.7-12.8,35.5-30.3,35c-17.5-0.5-35.9-15.6-34.5-3.3c1.4,12.3-22.7,14.7-26.9,8.5c-4.3-6.1-11.3-1.9-7.6,10.9
							C592.6,784.9,590.7,804.7,613.8,800.5z"/>
						<path class="st1" d="M889.6,614.2c0,0,13,14.7,20.5,15.9c7.5,1.2,31.9-12.4,33.9-15.6c1.9-3.2,6.4-23.2-1.6-34.1
							c-8-10.9-9-15.4-9-15.4s5.1,25.4,4.8,30.9c-0.3,5.5-5.8,18.7-12.9,20.9C918.2,619,915.6,630.9,889.6,614.2z"/>
						<path class="st1" d="M905.3,635.1c0,0-0.2,1.1-1.4,5.6s-12.6,19.8-13.8,21c-1.2,1.2,0.4,37.2,0.4,38.8
							c0,13.3-9.9-4.3-11.1-4.3s-5.4,6.7-5.4,7.6s4.7,0.5,5.9,0.2s12.4,4.8,14,5.8c1.6,0.9,2.6-0.6,2-2.3
							c-0.6-1.7-3.6-24.7-4.2-29.9c-0.6-5.1-0.9-12.8-0.9-12.8s13.1-14.6,14.9-19.4c1.9-4.8,3.6-9.2,3.7-11
							C907,636.1,905.3,635.1,905.3,635.1z"/>
						<path class="st1" d="M874.1,726.5c0,0-3.1-7-3.9-7c-0.8,0,2.3-7.6,2.8-8.9c0.5-1.2,2.8,0.5,3.1,1.3
							C876.4,712.7,874.1,726.5,874.1,726.5z"/>
						<path class="st1" d="M862.6,728.1c0.1,0.7,2,7.5,0.8,10.4s-1.5,1.2-2.9,0.9c-1.3-0.3-4.3-1.7-5.5-2.8c-1.2-1.1-2-11-4-13.8
							c-2-2.8,2-1.1,5.4,1.1C859.8,726.1,862.4,727.3,862.6,728.1z"/>
						<path class="st1" d="M858.5,734.4c-0.4,2.1,1.1,3.9-1.2,5.3c-2.3,1.4-11.2,0.6-14.8,0.9c-3.6,0.3-4.7,2.6-4.7,6.4
							c0,3.7-0.5,11.7-2.3,14.5c-1.9,2.8-6.8,4.7-9.6,4.5c8.1,1.7,12.8-1.6,14-6.2c1.2-4.7,0.6-13.1,3-14.5c2.3-1.4,9.5-3,12.8-2.8
							c3.3,0.2,7.8-0.8,7.8-3.9S858.8,732.5,858.5,734.4z"/>
					</g>
					<path class="st1" d="M844.8,660.6c-4.2-6.8-1-19.8,1.8-24.6c2.8-4.8,12-6.7,27.1,4.7c10.8,8.2,10.8,11.7,10.8,11.7
						s-11-11-15.7-12.8c-16.3-6-20.4-3.3-22.4,5.7c-0.4,2.1-1.7,8.9-1,12c1.3,5.9,5.3,11.4,6.8,13.7
						C852.4,671.2,849,667.5,844.8,660.6z"/>
					<path class="st1" d="M843.2,640.2c-0.5,0.2-51.1-36.5-51.1-36.5s-0.2,6.2,0.4,6.2s49,37,49,37L843.2,640.2z"/>
					<path d="M751.8,594.6c8.7,0.6,27.4-1.2,38.3-7.1s27.9-5,27.9-4.4c0,0.6-18.1,11.9-22.9,13.9s-28.3,9.8-40.5,8.7
						C742.3,604.8,751.8,594.6,751.8,594.6z"/>
					<path class="st1" d="M709.7,576.5c-8.6,5.1-25.2,21.4-22.2,35.5c3,14.1,18,36.3,19.7,42.3c1.7,6,3,19.7-4.7,21.4
						c-7.7,1.7-18.8-0.9-24.4,5.6c-5.6,6.4-8.6,11.1-2.6,16.2c6,5.1,20.1,4.7,21.8,8.1c1.7,3.4,7.3,15.4,2.1,23.9
						c13.7-9.8,8.1-30.4,3-31.2c-5.1-0.9-13.7-9.4-6-9.8c7.7-0.4,19.2,0,25.7-7.7c6.4-7.7,10.7-32.5,6.8-40.6
						c-3.8-8.1-9.8-34.2,4.7-38.5c14.5-4.3,37.2-7.3,29.1-17.1C754.6,574.8,709.7,576.5,709.7,576.5z"/>
				</g>
				<g>
					<path d="M810.2,1065.5c-17.5,5.8-49.8-4-56.9-9.3S619.2,919.7,600.9,899.2s-29.3-67-28.1-86.1c1.6-24.5,22.7-23.5,39.4-24.7
						c16.7-1.2,75.2,6.3,84,58.6c22.8,25.2,63.6,69.6,75.3,88.6c11.7,19,25.9,32.6,25.9,32.6s22.8,37,27.3,51.8
						C829,1034.7,820.1,1062.2,810.2,1065.5z"/>
					<path d="M768.2,1037.6c-2.5-19.3,7.5-62,17.6-74.5c10-12.6,91.3-41,102.2-46.9c10.9-5.9,55.3-32.7,58.6-32.7s3.3,0,3.3,0
						s18.4-10.9,23.4-10.9s32.7-1.7,40.2,16.7c7.5,18.4-9.2,31.8-9.2,31.8l-8.4,5l3.3,15.1c0,0-51.8,40.1-81.5,62.8
						c-9.2,7-16.2,12.3-19,14.3c-11.7,8.4-79.6,42.7-91.3,47.7C795.8,1071.1,768.2,1037.6,768.2,1037.6z"/>
					<path d="M980.1,913.7c0,0,22.6,12.6,36,15.1c13.4,2.5,41,12.6,41,12.6s11.7,13.4,11.7,20.1s3.3,31,10,31s6.7,0,6.7,0
						s-7.5-17.6-7.5-25.1c0-7.5,1.7-16.7,1.7-16.7s7.7,13.1,9.2,16.9c1.5,3.8,1.5,19.6,5.3,21c1.5,0.6,5,0.9,6.2-0.7
						c2.2,1.9,5.4,2.2,6.1,2.2c1.2,0,1.5-6.1,1.5-6.1s2.9,4.1,6.7,4.7c3.8,0.6,7.6-0.6,7.6-0.6s-2.9-10.8-4.7-12.6
						c-1.8-1.8-1.5-13.1-5-14.9c-3.4-1.8-8.2-11.4-8.8-12.6c-0.6-1.2-6.1-7.9-7.9-9.6c-1.8-1.8-10.5-23.1-11.1-24.8
						c-0.6-1.8-5-11.4-9.6-12.3c-4.7-0.9-42.3-20.4-49.6-23.7c-7.3-3.2-23.9-7-31.2-7c-7.3,0-19.6,5-23.1,8.5
						S980.1,913.7,980.1,913.7z"/>
					<path class="st1" d="M825.8,1052.5c0,0-27.5,6.7-44.3,1.3s-42.3-32.2-50.3-61.1c-0.7,18.8,8.1,28.8,8.1,28.8
						S699,980.7,689.6,972s-22.8-35.6-26.8-51.7c2.7,28.2-1.3,23.5-1.3,23.5s-8.7-10.7-14.8-19.5s-12.7-19.5-10.1-20.1
						c2.7-0.7,50.1-3.4,34.2-4.7c-32.9-2.7-40.3-21.5-57.7-33.5c-17.4-12.1-28.8-34.9-33.5-43.6s-1.3-22.8-1.3-22.8
						s-14.8,7.4-12.1,27.5c2.7,20.1,9.2,47.7,34.8,72.1s86,88.9,97.4,99.6c11.4,10.7,43.6,51.7,51,55.7c7.4,4,30.2,13.4,42.9,14.1
						C805,1069.3,825.8,1052.5,825.8,1052.5z"/>
					<path class="st1" d="M891.2,914.9c3.1,0,54.3-26.4,55.4-26.4c24.4,0.8,40.8,13.6,45.9,37.2c6.7,13.3,7.4,16.7,7.4,16.7
						l-3.3-13.6l4.1-5.1c0,0,10.9-14,4.4-30.5c-6.7-16.9-28.7-21-31.7-20.5s-23.4,10.9-23.4,10.9l-5.4-0.9L891.2,914.9z"/>
					<path class="st1" d="M993.2,883.8c5.3-1.5,20.8-3.4,31.9,0.9c11.1,4.3,42.9,16.4,45.6,17c-5.3,1.6,0.3,1.6,1.9,1.8
						c1.6,0.1,8.4,3.5,10.8,7.5c2.4,4-2.8-7.8-4.7-8.7c-1.9-0.9-8.1-4.1-10-4.1s-41.2-21.7-47.5-23.2c-6.3-1.5-17.7-6.6-26.8-4.6
						c-9.2,2.1-14.9,2.3-14.9,4.9S993.2,883.8,993.2,883.8z"/>
				</g>
				<path class="st1" d="M1163.7,909.7c0.4,0.1-0.7-3.9-0.7-3.9l-14-10.1c0,0-33.8,7.7-38.6,36.1c9.4,4.3,12.3,4.5,12.3,4.5
					S1142.1,906,1163.7,909.7z"/>
			</g>
		</g>
	</g>
</g>
</svg>
