<?xml version="1.0" encoding="utf-8"?>
<!-- Generator: Adobe Illustrator 24.0.0, SVG Export Plug-In . SVG Version: 6.00 Build 0)  -->
<svg version="1.1" id="Layer_1" xmlns="http://www.w3.org/2000/svg" xmlns:xlink="http://www.w3.org/1999/xlink" x="0px" y="0px"
	 viewBox="0 0 1125 2436" style="enable-background:new 0 0 1125 2436;" xml:space="preserve">
<style type="text/css">
	.st0{clip-path:url(#SVGID_2_);}
	.st1{fill:#ED1C24;}
	.st2{stroke:#FFFFFF;stroke-width:1.3457;stroke-miterlimit:10;}
	.st3{fill:#FFFFFF;}
</style>
<g>
	<defs>
		<rect id="SVGID_1_" x="-3" width="1128.8" height="2436"/>
	</defs>
	<use xlink:href="#SVGID_1_"  style="overflow:visible;"/>
	<clipPath id="SVGID_2_">
		<use xlink:href="#SVGID_1_"  style="overflow:visible;"/>
	</clipPath>
	<g class="st0">
		<path class="st1" d="M1522.5,487.5c-497.9,465.4-489.8,514.8,112.2,487.8c-622.2,140.3-650.7,204.1-188.9,314.9
			c-549.6,18.1-608.9,83.3-132.1,818.9c-620.3-617.2-695.5-571.4-841.6-11.1c2.8-498.6-65.3-482.8-361,167.4
			c180.7-651.8,133.7-669.3-504.4-201.1c579.2-539.5,571-589-102.9-536.8c694.2-165.4,722.7-229.2,247.9-334.1
			c562.5-24.1,621.8-89.2,228.8-711.9c536.5,504.3,611.7,458.5,738.7-80.9c16.3,477.8,84.4,462,375.3-122.4
			C918.7,864,965.7,881.5,1522.5,487.5z"/>
		<g>
			<path class="st2" d="M303,1667.3c-16.7-38.6-72.5-53.4-106.1-27.9c3.2-21.6-21.5-38.7-43.3-37.5c-18.1,1.1-34.4,10.2-50.3,19.4
				l131.1,280.4l234-109.4c-0.1-0.1-0.1-0.3-0.2-0.4c-15.9-34.8-32.4-70.5-60.1-97C380.4,1668.4,338.6,1653.1,303,1667.3z"/>
			<path class="st2" d="M547.4,1813.6c-0.5,0.7-1,1.4-1.3,2.1l330.8,91.4l102.4-370.4c-37.9-11.4-79.7-3.1-118.8,5.3
				c-7,12.9-14,25.8-21,38.7c-4.6,8.5-9.4,17.2-17,23.2c-7.6,6-18.7,8.5-27,3.5c-1.4,11.9-3.1,24.3-10.2,34
				c-7.1,9.6-21.5,15-31.3,8.2c-7.3-5-9.9-14.8-17-20.1c-6.4-4.7-16-4.5-22.2,0.5c-6.2,5-8.5,14.3-5.2,21.6
				c-10.3-2.8-20.6-5.7-30.9-8.5c0.1,5.2,0.2,10.5,0.3,15.7c-3.8-0.8-7.5-1.6-11.3-2.3c2.2,10.7-6.8,21-17.1,24.5
				c-10.3,3.5-21.5,2.3-32.4,1.9s-22.7,0.6-31.1,7.5c-8,6.6-11.4,17.2-13.6,27.3c-6.9,30.8-7.8,63-2.7,94.2
				C564.4,1805.9,552.8,1806.7,547.4,1813.6z"/>
			<path class="st2" d="M655,1491.9c-31.9-38.2-63.7-76.4-95.6-114.6c-26-31.2-53.2-65-57.4-105.4c-31.1-7.9-48.3-41.8-53.7-73.4
				c-5.4-31.7-3-64.9-13.8-95.1c-20.1-56.6-79.1-87.6-129.8-119.9c-36.9-23.5-74.3-56.4-88.8-95.5v617.3c18.3-1.6,36.9-3,53.8,3.7
				c20.3,8.1,35.4,34,23.4,52.3c41.2-8.8,85.5,28.2,84.2,70.2c38.2,2.3,69.6,33.9,83.5,69.5s13.7,75,13.4,113.3c0,0.2,0,0.3,0,0.5
				h55.6c0.2-0.8,0.4-1.6,0.7-2.4c3.4-8.1,14.4-12,22.1-7.8c-13.3-28.7-21-60-22.5-91.5c-0.5-10.4-0.1-21.5,5.9-30
				c6.3-8.9,17.4-12.9,28-15.5c10.6-2.6,21.8-4.3,30.7-10.5c9-6.2,15-18.5,10-28.2c3.8-0.2,7.7-0.5,11.5-0.8c-1.5-5-3-10.1-4.5-15.1
				c10.7,0,21.3,0,32,0c-5.1-6.2-5.4-15.8-0.7-22.2c4.7-6.5,13.9-9.2,21.3-6.4c8.2,3.2,13.4,11.9,21.7,14.8
				c11.3,3.9,23.8-5.1,28-16.2c2.1-5.5,2.7-11.2,2.7-17.1C696.1,1541.2,675.5,1516.6,655,1491.9z"/>
			<path class="st2" d="M742.8,902.2c-22.6,17-45.1,34-67.7,51.1c-21.4,16.1-43.1,32.5-67.9,42.6c-20.2,8.3-43,12.9-60.7,24.9
				c21.3,14.7,39.5,32.4,51.1,55.8c14.2,28.8,15.8,62,24.8,92.9c9,30.8,30.1,62.4,61.9,66.7c8.9,39.7,39.8,70.1,69.3,98
				c36.1,34.2,72.2,68.5,108.3,102.7c23.3,22.1,46.6,44.2,69.9,66.3c-0.8-6.1-2.4-12.1-4-18c9.5,1.5,18.9-5,23.6-13.4
				c4.8-8.4,5.9-18.3,7-27.9c1.6-14.6,3.2-29.2,4.8-43.7c33.1-22.6,68.7-46,108-49.7l-63.5-539.9l-176.7,20.8
				C803.2,856.6,773,879.4,742.8,902.2z"/>
			<path class="st2" d="M483.6,894c22.5-14.5,40.9-34.6,59-54.3c19.1-20.9,38.2-41.7,57.2-62.6c25.5-27.9,51.1-55.9,73.8-86
				L216,833.2l0.3,1c25.4,33.1,70.9,53.4,113.1,64.9c32.9,8.9,68.2,16.7,99.1,30.5C443.7,914.6,465.3,905.9,483.6,894z"/>
			<g>
				<polygon class="st1" points="-1097.3,-890.8 -1121.4,-871.8 512.2,1404.9 716.5,1214 				"/>
				<polygon class="st3" points="-1103.7,-885.7 -1114.9,-876.9 573,1356.8 678.9,1273.1 				"/>
			</g>
			<path class="st3" d="M969.6,995.3c-197,184.1-193.8,203.7,44.4,193c-246.2,55.5-257.5,80.8-74.7,124.6
				c-217.5,7.2-240.9,32.9-52.3,324c-245.5-244.2-275.2-226.1-333-4.4c1.1-197.3-25.8-191.1-142.8,66.2
				c71.5-257.9,52.9-264.8-199.6-79.6c229.2-213.5,226-233.1-40.7-212.4c274.7-65.4,286-90.7,98.1-132.2
				c222.6-9.5,246.1-35.3,90.5-281.7c212.3,199.6,242.1,181.4,292.3-32c6.4,189.1,33.4,182.8,148.5-48.4
				C730.7,1144.3,749.3,1151.2,969.6,995.3z"/>
		</g>
	</g>
</g>
</svg>
