<?xml version="1.0" encoding="utf-8"?>
<!-- Generator: Adobe Illustrator 24.0.0, SVG Export Plug-In . SVG Version: 6.00 Build 0)  -->
<svg version="1.1" id="Layer_1" xmlns="http://www.w3.org/2000/svg" xmlns:xlink="http://www.w3.org/1999/xlink" x="0px" y="0px"
	 viewBox="0 0 1125 2436" style="enable-background:new 0 0 1125 2436;" xml:space="preserve">
<style type="text/css">
	.st0{clip-path:url(#SVGID_2_);}
	.st1{fill:#FFFFFF;}
	.st2{fill:none;stroke:#FFFFFF;stroke-width:4.169032e-02;stroke-miterlimit:10;}
	.st3{fill:#ED1C24;}
	.st4{fill:#FFFFFF;stroke:#231F20;stroke-width:1.266;stroke-miterlimit:10;}
	.st5{fill:none;stroke:#FFFFFF;stroke-width:0.7332;stroke-miterlimit:10;}
	.st6{fill:none;stroke:#FFFFFF;stroke-width:0.1833;stroke-linecap:round;stroke-linejoin:round;stroke-miterlimit:10;}
</style>
<g>
	<g>
		<defs>
			<rect id="SVGID_1_" x="-9.7" y="-21" width="1147.4" height="2476.2"/>
		</defs>
		<use xlink:href="#SVGID_1_"  style="overflow:visible;fill:#FFFFFF;"/>
		<clipPath id="SVGID_2_">
			<use xlink:href="#SVGID_1_"  style="overflow:visible;"/>
		</clipPath>
		<g class="st0">
			<rect x="-867.2" y="-57.1" width="2869.8" height="1173.6"/>
			<g>
				<g>
					<g>
						<g>
							<g>
								<path class="st1" d="M1022.2,856.5c1.4-10.1,0-23.9,0.7-31.8c0.7-8,18.1-23.1,25.3-29.7c7.2-6.5,19.5-21.7,26.8-18.1
									c7.2,3.6,11.6,9.4,11.6,9.4s19.5-8,26-6.5c6.5,1.4,19.5,14.5,23.9,21.7c4.3,7.2,0.7,34,8,39.1c7.2,5.1,16.6,19.5,21,26.8
									s10.1,16.6,5.1,27.5c-5.1,10.8-25.3,24.6-26,31.8c-0.7,7.2-2.2,22.4,3.6,26.8s0,15.9,0,15.9l-23.9,34l-61.5,22.4l-42.7-93.3
									c0,0-0.6-33.4-4.3-47.4S1022.2,856.5,1022.2,856.5z"/>
								<path d="M1029.2,898.4c-5.1-7.7-4.8-9.2-5.1-15s2.2-7,4.4-8.4c2.2-1.5,8.1-7.7,5.5-9.2c-2.6-1.5-2.2-3.7-4-8.1
									c-1.8-4.4-2.2-7-1.8-11s-2.9-9.5,0.7-11.4s0.4-3.7,7-8.4c6.6-4.8,13.2-5.1,20.9-11s18-13.6,20.2-15.4
									c2.2-1.8,9.5-1.8,10.3,0.7s2.2-6.6,2.2-8.1s10.6,0.7,10.6,0.7s8.1-3.7,11.7-1.8c3.7,1.8,13.2-1.1,13.2-1.1s6.2,0.4,9.9,5.9
									s3.7,30.4,3.7,30.4s-2.2,17.2,2.6,20.2s17.2,22,17.2,22s6.6,8.8,4.4,16.9c-2.2,8.1,0,9.9-5.9,15.4
									c-5.9,5.5-11.4,10.3-13.2,13.9c-1.8,3.7-5.1,15-5.1,15l2.2,25.3l-6.2,12.1c0,0-103.8-43.3-106.3-52.4
									C1025.5,906.4,1029.2,898.4,1029.2,898.4z"/>
							</g>
							<g>
								<g>
									<path d="M1155.6,1507.1c-1.8-11.5-6-26.9-23.6-36.9c-13.5-7.7-18.7-11.8-21.5-14.9c15.6-2.3,28.6-4.3,28.6-4.3l0.1-15.9
										c0,0-33-4.5-47.3-5.3c-3.4-0.2-16.7-7.4-29-2.3c-2.6,1.1-14.6,5.6-20.9,10.9c-0.1,0-0.2,0-0.3,0c-8-0.6-34-13.9-42.8-17.8
										c-8.9-3.9-19.4-13.9-29.7-13.6c-10.3,0.3-101.7-3.2-112.7,7.3c-11,10.5-11.5,29.8,15.2,41.1c26.6,11.2,76.8,19.6,95.5,22.9
										c23.6,4.2,43.8,5.4,54.7,8.5c18.5,5.5,30.9,9.8,38,11.3c21,4.4,37.7,7.8,37.7,7.8s13.3,2.1,17.8,7.3
										c4.5,5.2,3.2,14.8,8,22.2c4.8,7.4,10.7,14.8,10.7,14.8c8,1.2,8,1.2,8,1.2S1157.4,1518.6,1155.6,1507.1z"/>
									<path class="st1" d="M863.1,1441.4c5.9-0.2,38,3.6,41.9,3.6c3.9,0,16.2-5,19.7-8.5c3.5-3.5,14.2-12.2,14.2-12.2
										s-12.6,19.4-16.3,21.4s-18.7,7-18.7,7s-0.6,5.8,7.7,5.1c8.3-0.7,20.3,0.2,24.5-1.7s19.9-3,19.9-3l-15.7,8.1
										c0,0,19.5,4.8,22.1,1.9c2.6-2.9,20.6-6.5,20.6-6.5l-9.6,9.6l19.2,3.2l58,25.6c0,0-47.1-10-55.2-11.3
										c-8.1-1.2-94.9-17.8-101.7-20c-6.8-2.3-38.4-18.1-41-19.6C850.1,1442.8,863.1,1441.4,863.1,1441.4z"/>
									<path class="st1" d="M1145.5,1543.4c-3.5-0.4-9.5-3.4-10.3-10.4s-0.8-18.7-2.3-21.8c-1.6-3.1-6.2-14.8-10.1-9.7
										c-3.9,5.1-16,0.8-19.5,1.6c-3.5,0.8-28.8-7.8-35.4-8.2c-6.6-0.4-25.3-2.7-25.3-2.7s11.3,4.2,17.3,6
										c6,1.8,55,11.6,55.5,15.1c0.4,3.5,0.8,12.5,3.2,16.7c2.3,4.3,5.5,10.4,7,13.1c1.6,2.9,4.3,7.3,10.5,8.1
										c6.2,0.8,6.3,1,7.2-1.6C1144.6,1545.3,1145.5,1543.4,1145.5,1543.4z"/>
								</g>
								<path d="M906.9,1429.9c13-1.2,66.9-46.5,81.2-52.7s56.4-20.4,59.5-32.2c3.1-11.8-73.1-124.5-78.1-122.7
									c-5,1.9-24.8,11.8-27.9,16.7c-3.1,5-47.1,72.5-55.1,85.5c-8.1,13-40.9,60.1-42.1,70.6c-1.2,10.5-5,35.3,6.2,43.4
									S906.9,1429.9,906.9,1429.9z"/>
								<path d="M1082.9,1851.1c0,1.1-10.8,21.5-11.3,26.3c-0.5,4.8-18.8,16.1-27.4,19.4c-8.6,3.2-40.3-1.1-45.7-0.5
									c-5.4,0.5-11.8-5.4-10.8-9.7c1.1-4.3,14.5-10.2,18.3-14s15.1-8.6,16.1-15.6c1.1-7,3.2-24.7,3.2-28.5c0-3.8-3.8-6.5-2.7-10.8
									c1.1-4.3,4.3-14.5,4.8-17.2c0.5-2.7,0.5-17.2,0.5-19.4c0-2.2,7-7,8.1-14s-1.1-15.6-2.7-19.4s4.3-75.3,3.2-83.9
									c-1.1-8.6-7.5-66.7-10.2-74.2c-2.7-7.5-4.3-28-4.8-36s-5.4-33.3-5.4-33.3s7.5-155.9,5.9-165c-1.6-9.1-24.7-79-29-84.4
									s-19.9-27.4-22.6-34.4s-1.1-22.6-1.1-25.3s16.1,20.4,50.5,22.6c34.4,2.2,105.9-3.8,109.1-4.8c3.2-1.1,3.2-1.1,3.2-1.1
									s18.8,24.2,18.8,55.9c0,31.7-22.6,95.1-27.4,107c-4.8,11.8-25.8,89.2-37.6,113.4c9.1,10.8,2.2,33.9,1.6,38.7
									c-0.5,4.8,9.7,62.9,12.9,74.2c3.2,11.3-1.6,95.7-0.5,105.9c1.1,10.2,7.5,27.4,6.5,34.9c-1.1,7.5-3.8,21.5-3.8,21.5
									l-1.6,24.2c0,0,5.4,1.6,5.9,9.1c0.5,7.5-4.8,65-4.8,65h-15.6L1082.9,1851.1z"/>
								<path class="st1" d="M1024.3,1832.8c0.4-4.1,5.2-8.2,9.7-9.4c4.5-1.1,26.2-9.7,26.2-9.7s-23.2,7.9-25.9,4.9
									c-2.6-3-2.6-4.1-2.6-11.2c0-7.1,1.1-20.2,1.9-21.4s15.7-27.7,16.9-30.7c1.1-3,6.7-33.4,6.7-30.4s-15,32.2-15.7,37.1
									s-2.6-11.6-3.4-14.2s1.1-15.4,1.1-15.4s3.7-55.9,3.7-58.5c0-2.6,6.4-18.4,6.7-22.1c0.4-3.7-5.2,3.7-7.1,7.5
									c-1.9,3.7-11.2-66-11.2-66s9.4-16.9,9.7-20.2s-5.6,4.9-7.5,8.6c-1.9,3.7-3.7-4.5-3.7-4.5s-3.7-9.4-3.7-17.2
									c0-7.9-0.7-16.1,3-13.1c3.7,3,11.2,8.2,10.1,7.9s-7.9-8.2-9.4-12c-1.5-3.7-7.9-18-8.6-23.6c-0.7-5.6-1.9-14.2-1.5-19.5
									c0.4-5.2,5.2-90,5.2-90c1.1-13.1,1.1-51.7,0-55.5c-1.1-3.7-13.5-30.7-12.7-28.9s8.9,28,9.9,30.3c1,2.3,0.2,32.3,0.2,40.5
									c0,8.2-1.1,13.9-1.1,16.1s-7.1,105-4.9,115.8c2.2,10.9,4.1,41.2,4.5,45s4.9,21.4,5.6,26.6c0.7,5.2,10.1,64.5,10.1,64.5
									s-6,70.1-6,74.2c0,4.1,3.7,16.1,3.4,21c-0.4,4.9-8.2,16.9-8.6,21.4c-0.4,4.5-0.4,18.4-0.4,18.4s-2.2,10.9-3.4,15
									C1020.6,1818.2,1024.3,1832.8,1024.3,1832.8z"/>
								<path class="st1" d="M850.9,1432.2c-1.6-4.3-4.3-23-3.1-30s37.4-67.4,43.2-77.1c5.8-9.7,30.4-43.2,30.4-43.2s-2.7-8.6-3.1-7
									s-55.3,85.7-60.4,94.6s-15.6,17.1-15.6,36.2c0,19.1,0.8,26.5,3.5,30C848.5,1439.2,850.9,1432.2,850.9,1432.2z"/>
								<path d="M932.3,1283c-7.9-4.2-14.3-17.4-16.1-19.2c-1.9-1.9,47.7-106.6,48.3-123.3c0.6-16.7,6.2-49.6,0-59.5
									c-6.2-9.9-16.7-44-16.1-51.4c0.6-7.4,26.6-47.1,28.5-54.5s25.4-59.5,34.1-71.3s15.5-11.8,17.4-8.7
									c1.9,3.1,16.1,26,18.6,31.6s69.4,9.3,73.7,13s57,49,60.1,51.4s-26.6,53.3-30.4,62s-35.9,66.3-35.9,81.8s1.9,51.4,8.7,59.5
									s24.2,49.6,26.6,53.9s-6.2,13.6-14.3,18.6S1045.7,1342.5,932.3,1283z"/>
								<path d="M978.9,998.5c-1.4-7.7,0.7-35.2-3.5-47.2c-4.2-12-28.9-89.5-33.1-104.3c-4.2-14.8-14.8-91.6-18.3-104.3
									s-3.2-92.7-3.5-96.5c-0.3-3.8,5.6-4.1,5.6-4.1v-14.2c0,0,5.3-5.3,7.1-4.8c0,0-0.3-17,0.8-20.3c1-3.3,19.8-15.2,21-16.7
									c1.3-1.5,5.6-3.3,5.3-4.3s-5.6-1.8-6.3-4.6c-0.8-2.8-2.8-2.5,3.5-7.3c6.3-4.8,18-11.1,20.8-11.1c2.8,0,12.7,1.5,14.7,4.6
									c2,3,4.8,8.4,5.1,10.9c0,0,1.3,12.7,1.3,15s-0.8,6.8-2,9.6c-1.3,2.8-10.9,9.4-14.4,11.1s-17.7,8.9-19.5,11.9
									c-1.8,3-1.8,4.8-1.8,4.8l3.3,4.3l-1.3,9.9l6.1,2.3c0,0,4.6,71,5.1,74c0.5,3,3.8,23.8,3.8,23.8s8.9,53.5,10.6,59
									c1.8,5.6,7.3,28.4,7.6,35c0.3,6.6,4.8,28.4,8.6,30.9s7.6,10.9,10.4,19s5.3,20.3,4.6,24.1c-0.8,3.8-10.6,57.5-16.5,71.2
									C998,994,978.9,998.5,978.9,998.5z"/>
								<path class="st1" d="M987.4,984.9c0.4-1.7,12-28.2,10.3-42.8c0,0-7.3,19.2-10.3,23.1c-3,3.8-5.6-10.7-5.1-14.5
									c0.4-3.8,6.4-27.8,5.6-31.6s-3.4-12.4-3.4-12.4s2.1,11.5-1.3,16.7s-7.3,12.8-7.3,11.5s2.6-28.2,2.6-31.6s4.3-19.7,4.3-19.7
									s-10.3,14.5-10.7,19.7c-0.4,5.1-2.6,13.7-2.6,13.7l-10.7-31.6c0,0-9.3-31.1-8.6-29.9c0.1,0.1,3.2,5.7,5.7,5.7
									c2.5,0-0.6-11.8-3.7-15.5c-3.1-3.7-8.7-13-9.9-16.7c-1.2-3.7,1.9-14.3,0.6-18.6c-1.2-4.3-14.9-72.5-14.9-79.9
									s0.6-79.3,0.6-79.3s-6.4-1.3-8.1-4.6c-0.6,27.5-2.5,83.3-1.2,88.9c1.2,5.6,15.5,63.2,15.5,71.9c0,8.7-3.7,32.8,2.5,39
									c3.1,15.5,29.7,89.2,31.6,96.7c1.9,7.4,10.5,35.9,9.9,42.1c-0.6,6.2-5.9,17.2,0.1,13.6C985,994.9,987.4,984.9,987.4,984.9z"
									/>
								<g>
									<path d="M1177,1187.6c-1.3-10.3-28.9-34-28.9-34s-93.7-43-98.1-46.8s-12.8-4.5-12.8-4.5s-9-21.8-9.6-28.2
										s-8.3-20.5-8.3-20.5s-26.3,0.6-28.9,1.9s-8.3,16-10.3,21.8s0,12.8,1.3,15.4s8.3,9.6,13.5,9.6s12.2,8.3,12.8,12.8
										s16,12.8,16,12.8l6.4,5.8l-1.9,18c0,0,107.1,52,118,52s33.4,9.6,33.4,9.6L1177,1187.6z"/>
									<path class="st1" d="M1026.8,1130.6l-7.1-5.1c0,0-11.1-5.9-12.1-10.3c-0.9-3.8-6-16.5-9.2-20.8c-0.5-0.7-1-1.3-1.6-1.8
										c-4.2-4.2-7.8-6.4-8-3.9c-0.1,2.3,0.4,4.8,2.7,6.2c2.3,1.4,5.8,0.2,6.3,2.4c0.5,2.2-1,3.3-5.8,3.3s-9-5.4-10.5-7.5
										c-1.4-2.1-2.5-9.3-1.9-10.6s1.5-3.5,7-3.3c5.4,0.2,9.7-2.5,11.1-1.3s4.8,4.1,10.2,11.7c5.4,7.6,10.7,13.9,15.8,18.3
										c5.1,4.4,8.2,9.8,8,11.7C1031.3,1121.4,1026.8,1130.6,1026.8,1130.6z"/>
									<path class="st1" d="M980.9,1074.7c2.8-0.5,15.3-0.5,19.7-1.2c4.4-0.7,6.9-1.2,3.6-2.5c-3.3-1.3-21.1-0.6-22.7-0.2
										C980,1071.3,980.9,1074.7,980.9,1074.7z"/>
									<path class="st1" d="M1009.6,1065.3c-9.1-1.9-22.2-1.8-22.2-1.8C990.1,1064.9,1012.4,1065.9,1009.6,1065.3"/>
									<path class="st1" d="M1028.6,1132.4c0,0,10.8-22.7,8.6-30.1c5.7,1.2,8.2,2.7,8.4,3.2s-2.8,18.9-6.8,22.6
										c-4,3.7-8.6,5.7-8.6,5.7L1028.6,1132.4z"/>
								</g>
								<path class="st1" d="M1048.1,904c0,0-0.8,9.4-2.6,20.6c-0.2,1.2,7,31.3,6.1,30.5c-4.1-3.8-9.7-14.9-10.8-13.1
									c-3.4,5.4-6.8,14.8-5.7,22.5c0.1,0.6,14.1-11.6,17.2-8.7c15,6.3,18.8,31.4,20,30.7c8.3-4.7,14.2-8.3,15.4-9.5
									c2.1-2.1,7.8-12.5,9.4-22.5c-22.2,5.9-46.5,1.3-44.6,1.2c8.9-0.4,45.8-9.3,47.4-14.4c3.7-12.1,8.3-20.9,10.3-25.8
									c4.5-11.1-0.7-22.4-16-24.9C1079.1,887.9,1055.5,879,1048.1,904z"/>
								<path d="M1105,914.6c-0.4,2.5-10.4,17.2-12.5,18.8s-28.1,16-39.2,19.9c-0.4-30.4-2.9-39.9-4.2-47.3s15.2-13.9,22.6-13.1
									C1079.1,893.6,1105,914.6,1105,914.6z"/>
								<g>
									<path d="M1066.4,927.5c5.5,0.7,9.9,2.8,23.3-4.5c13.3-7.3,20-11.4,22.8-18.2c2.7-6.8,5.6-20.4,5.2-21.7s1.5-13.8,2-17.4
										c0.5-3.7-5.9-26.7-8.2-29.7c-2.4-3-12.4-14.5-14.5-17.9s-11.7-5.9-14.4-7c-2.7-1.1-10.4-1.7-13.7-0.1
										c-3.3,1.6-12.7,6-17.3,16c-4.7,10-10.3,27.8-10.9,31.1c-0.6,3.3-0.7,15.8-1.2,19.7c-0.5,3.8,0.5,16.9,2.7,20.3
										c2.1,3.5,10.2,15.9,11.7,18.8C1055.2,919.8,1062.2,927,1066.4,927.5z"/>
									<path class="st1" d="M1053.2,883.3c6.3-0.8,11.8-7.7,15.1-7.3c1.1,0.1,2.6,1.6,2.8,1.3c0.5-0.7-1.3-3.8-2.7-4
										c-2-0.3-2.6-1.9-3-3s6-4.9,8.2-6.9c-7.8,2.7-9.9,1.1-11,1s5.2-0.7,7.2-2.8c-8.5-0.1-14.7-0.6-16.3-1.8s-3.3-5.1-3.6-5.6
										c-0.3-0.6,2.3-3.5,4.6-4.4c2.3-0.9,11.1,0.3,12,0.7c0.9,0.4,6,4,6.8,7.4c-0.7-5.6-1.1-7.1-3.3-7.6
										c-2.2-0.5-8.3-1.9-9.9-2.8c-1.6-0.9-4.6-2.4-5.9-2.4c-1,0-6,1.4-7.6,2.8s1.2-3.2,4.9-4.1c3.8-0.8,9.6-2.4,10.8-1
										s6.9-19.2,8.8-23.3s6.3-9.1,6.6-9.3c0.4-0.2-4.9-1.7-7.9-0.2c-3.1,1.4-15.9,8.8-18.6,15.7c-0.8,2-8.8,25.2-9.8,28.3
										c-1,3.1-1.5,12.3-1.9,17.4c-0.4,5.1,0,18.8,1.2,22.3c1.1,3.2,5.3,11.2,6.5,12.8c1.2,1.6,5,9.2,6.3,11.1
										c1.3,2,6.2,7.9,10.4,8.8c0,0-5.4-6-6.5-9.4c-1-3.4-4.1-13.6-4.6-16.8c-0.5-3.2-0.2-12-0.1-12.8s-2-0.9-2.9-0.8
										C1048.9,886.5,1046.8,884.1,1053.2,883.3z"/>
									<path class="st1" d="M1076.3,883.6c-0.4,1.3,0.8,1.5,1.9,1.6c1.1,0.1,3.5-2.1,4.1-2.5s0.7-4,0.4-5.1
										c-0.3-1.1,1.2-12.5,1.3-14.7s-0.1-6.5-0.3-5s-3.7,13.8-4.2,15.6C1078.9,875.3,1076.5,882.7,1076.3,883.6z"/>
									<path class="st1" d="M1083.5,884.7c1,0.4,3.7,0.8,4.4-0.3s-0.3-3.7-1.5-3.8c-1.2-0.1-4.5,1.5-4.5,1.5s-2.2,3.1-5.5,2.5
										C1078.7,886.5,1083.5,884.7,1083.5,884.7z"/>
									<path class="st1" d="M1060.4,893.8c0,0,0.7,3.8,3.6,5.6c2.9,1.8,8.2,4.6,10.9,4.9c2.7,0.4,11.3-1.7,15.3-5
										c-7.4,0-14.6-0.8-18.9-1.6S1060.4,893.8,1060.4,893.8z"/>
									<path class="st1" d="M1069.7,923.7c0.6-3,3.9-4.7,5.6-4.9c1.8-0.2,4.8-1.1,6.5-1.5c1.6-0.5,6.2-4.1,5.7-4.2
										c-0.4,0-9.5,0.7-10-0.3c-0.5-1.1,1.6-1.8,3.1-2.2c1.5-0.5,7.1-3.5,8.5-5.3c1.4-1.8,5-5.1,5-5.1s1.8-2.5,0.2-2
										c-1.6,0.5-10.8-1-11.9-1.1c-1.2-0.1-4.6-1.8-4.6-1.8l1.1-4.6c0,0,1.7-1.2,3.9-1.9c2.2-0.7,4.1-0.8,4.9-1.9
										c0.8-1.1,2.4-3.3,2.4-3.3s3.4,1.5,4.3,6.9c0.3,1.9,3.2,5.5,3.2,5.5l-1.4,3.5c0,0,2.3-1.7,2.2-0.3s-0.8,4.6-0.8,4.6
										s2-3.3,2.4-4.2c0.4-0.8,0.7-4.1-0.2-4.9c-2.9-2.4-4.5-8.7-5-9.7c-0.9-1.6-3.1-3.4-4.2-4.4c-1.1-1-2-1.9-2.7-2
										c-0.7-0.1-3-0.2-3.2,0.2c-0.2,0.4,1.7-4.5,1.9-5.7s0.9-6.2,0.9-6.2l1.7-3.6c0,0,5.3,4.9,7.7,5.8c2.4,0.9,13.4,0.8,15-0.3
										c1.5-1,6.4,0.1,6.5,4.6c0.1,4.5-0.2,7.9-0.9,10.3c-0.8,3.1-3,5.3-6.3,7.4c-1.2,0.8-4.8,2.7-5.1,4.2c-0.3,1.4-0.4,5,0,4.3
										c0.3-0.7,3.1-3.6,3.8-4.3c2.4-2.5,5.5-6.5,5.4-4.6c-0.1,1.9-1,2.3-2,7.5c-1,5.1-3,8.9-4,11c-1,2.1-10.9,9.2-15,11.6
										c-4.1,2.4-11.8,6.8-15,6.9c-3.2,0.2-6.8,1.6-8.4-0.4S1069.7,923.7,1069.7,923.7z"/>
									<path class="st1" d="M1113.6,864.7c-0.4-0.3-3.8-7.4-11.1-6.9c-7.3,0.4-12.1,3.1-13.2,4c-1.1,0.9,1.1-6.9,2-6.5
										c0.8,0.4,13.5,1.1,14.9,1c1.3,0,7.9,0.3,7.9,0.3s4,3.2,4.8,5.3c0.9,2.1,0.7,8.2,0.6,8.6c0,0.4-2.9-5.3-4.6-5.6
										C1113.2,864.7,1113.6,864.7,1113.6,864.7z"/>
									<path class="st2" d="M1093.5,900.7c0,0,0.6-0.1-4.4,4.6c-4.7,4.3-13.3,6.5-17.8,5.7c-10.1-1.7-15.1-16.8-15.1-16.8"/>
									<g>
										<g>
											<g>
												<g>
													<path d="M1120.8,863.3c0.1-0.8,0-1.5,0-1.9c-0.1-1.1-1.1-1.5-5.3-2.6c-2.5-0.7-5.9-1.5-9.2-2.3l-0.3-0.1
														c-7-1.7-13.2-1.8-15.8-1.5c-2.3,0.2-5.4,1.4-6,2.4c-0.1,0.1-0.1,0.2-0.1,0.3c-1.2,0.2-2.6,0-4.2-0.5
														c-0.2-0.1-0.8-0.2-1.1-0.5c0-0.1,0-0.3,0-0.4c-0.2-1.1-2.6-3.4-4.6-4.5c-2.3-1.2-8-3.6-15.1-4.8l-0.3,0
														c-3.3-0.5-6.8-1.1-9.3-1.5c-4.3-0.6-5.4-0.7-5.9,0.3c-0.2,0.3-0.5,1-0.7,1.7c-0.2,0.5-0.7,2.2,0.7,2.9
														c0.1,0,0.2,0.1,0.3,0.1c0.7,0.4,0.9,0.5,0.9,0.8c0,0.2,0,0.8,0,1.4c0,3.7,0.1,7.5,0.7,9.1c0.1,0.4,0.2,0.7,0.4,1.1
														c0.5,1.6,1,3.3,3.7,5c2,1.3,5.2,2.7,8.5,3.4c1.4,0.3,2.7,0.4,4.1,0.4c4.6,0,8.8-2,10.7-5c0.6-0.9,1.4-2.3,2.2-3.7
														c0.7-1.3,1.7-2.9,2.4-4.1c0.6,0.3,1.2,0.5,1.7,0.7c0.6,0.2,1.1,0.3,1.7,0.4c1.4,0.3,2.6,0.3,3.8,0.2
														c0.2,1.4,0.5,3.4,0.7,4.9c0.2,1.7,0.4,3.2,0.6,4.3c0.5,3.5,3.6,6.9,7.9,8.7c1.2,0.5,2.5,0.9,3.9,1.2
														c3.3,0.7,6.8,0.6,9.2,0.2c3.1-0.5,4.3-1.9,5.3-3.2c0.3-0.3,0.5-0.6,0.8-0.9c1.2-1.3,2.7-4.7,4.2-8.1
														c0.2-0.6,0.5-1.1,0.6-1.3c0.1-0.2,0.3-0.3,1.1-0.4c0.1,0,0.2,0,0.3,0C1120.5,865.6,1120.7,863.9,1120.8,863.3z"/>
												</g>
											</g>
										</g>
									</g>
								</g>
								<path class="st3" d="M1046.2,961.7c2.8-1.9,7.1-3.2,9.3,0.3s1.2,8.3,0.4,9.9c-0.8,1.6-6.1,4.7-8.2,5
									c-2.1,0.3-5.1-0.9-6.4-1.7c-0.8-0.5-3.2-4.9-1.6-8.5C1040.6,964.8,1043.7,963.4,1046.2,961.7z"/>
								<path class="st3" d="M992,1028.3l46.9-25.8l7.3-22.6c0,0-8.7-0.5-9-3.1c-10.8,7.4-24,17.8-24,17.8L992,1028.3z"/>
								<path class="st1" d="M948.6,1039.2c-1.1-3.7-1.8-11.7-0.9-13.9c0.9-2.2,29.3-51.7,29.5-53.1c0.2-1.3,25.3-36.8,28-47.6
									c0,0-10.1,31.7-10.6,34.3c-0.4,2.6-24.9,63.6-27.3,66.7c-2.4,3.1-14.3,5.3-14.8,6.6c-0.4,1.3,14.5,48.4,15.2,51.5
									s2.6,42.1,1.8,49.1c-0.9,7-19.4,74.4-25.3,95.6c-5.9,21.1-14.1,37-11.7,39.2c2.4,2.2,27.7,18.7,38.8,21.8
									c-33-9-48-17.2-51.3-19.4c-3.3-2.2-7-9-7-9s49.5-124,50.4-130.1c0.9-6.2,1.5-46.2,1.5-46.2L948.6,1039.2z"/>
								<path class="st1" d="M1014.2,992.3c0.1-0.4,18.5-32.8,18.5-32.8s-1.2,10.8,0.7,10.4c0.4-0.1,4.5-2.3,4.5-2.3s-1.3,6.2-1,7.2
									C1020.8,985.6,1014.2,992.3,1014.2,992.3z"/>
								<path class="st1" d="M1042.2,1000.9c0,0,5.8-17.5,7.3-21.3c9.8-2.6,10.1-6.6,10.1-6.6s9.2,13.8,9.1,14.2
									S1042.2,1000.9,1042.2,1000.9z"/>
							</g>
						</g>
						<path class="st1" d="M989.5,1891.6c1.1,2.6-4.9-4.9,0-7.9c4.9-3,23.2-19.1,27.7-21c4.5-1.9,20.2,3.4,24.4,0.4
							c4.1-3-4.5,12-8.6,13.5c-4.1,1.5-36.4,7.5-38.6,8.2C992.1,1885.6,988.3,1889,989.5,1891.6z"/>
					</g>
					<path class="st1" d="M926.2,628.4c0,0,9,2,9,7.5c1.8-4.3,4.1-5,9.3-4.7s18.3,0.7,18.3,0.7l-1.4,9.5c0,0-13.8,5-22.4,5
						s-13-3.9-13-3.9L926.2,628.4z"/>
					<path class="st1" d="M944.4,616.3c-0.5-4.2,3-12.4,5.7-14.2c2.7-1.8,15.4-12.1,17.8-17.2s5.1-6,7.5-5.1
						c2.4,0.9,3.6,3.3,3.6,3.3s-3-2.4-5.1-1.2c-2.1,1.2-5.1,6.9-6.6,9s-13.6,12.1-15.1,16c-1.5,3.9,0,9,6,6.3c6-2.7,1.2,4.8-1.2,7.2
						C954.6,622.9,945.9,628.9,944.4,616.3z"/>
					<path class="st1" d="M939,615c-0.6-2.7-3-8.4-2.7-10.5c0.3-2.1,22.3-20.5,21.4-19.9c-0.9,0.6-20.5,14.5-22.9,16.3
						c-2.4,1.8-2.7,10.5-2.4,14.2c0.3,3.6,2.1,9.9,3.6,6.6S939,615,939,615z"/>
					<path class="st1" d="M964.6,580.4c-0.9-2.1,22-14.2,23.8-14.2s-7.5-0.3-10.8,2.4c-3.3,2.7-16,7.8-16.6,10.2
						c-0.6,2.4,3.3,4.8,3.3,4.8L964.6,580.4z"/>
					<path class="st1" d="M957.3,580.4c0,0-1.2-4.2,1.5-5.7c2.7-1.5,22.6-12.7,22.6-12.7s-25.3,11.1-26.2,12.7
						C954.3,576.2,954,580.1,957.3,580.4z"/>
				</g>
				<path class="st1" d="M1.7,1262.3c5.3,0,12.1-3.2,13.9-8.2c1.8-5,4.6-14.6,3.9-17.4c-0.7-2.8-2.8-5-3.6-9.2s0-10,1.1-14.9
					s3.9-10.3,2.8-12.1c-1.1-1.8,0.7-5.7,0.7-7.5c0-1.8-0.4-14.2-2.1-19.2c-1.8-5,2.8-18.1,5-24.9s4.3-27.4,3.9-34.8
					c-0.4-7.5-1.1-34.1-1.1-44.8c0-10.7,1.4-33.4,0.4-39.1c-1.1-5.7-2.1-6.4,0-11.4c2.1-5,3.2-11.7,3.2-11.7s3.2-2.8,3.2-7.5
					s-0.7-10.7-0.4-13.2c0.4-2.5,3.6-10,4.3-12.1c0.7-2.1,4.3,1.4,3.2,4.6c-1.1,3.2-4.3,4.6-2.5,11c1.8,6.4,7.1,22.4,7.1,22.4
					l-2.1,37.7c0,0,2.1,2.5,2.1,6s-2.1,29.9-1.4,34.5c0.7,4.6,1.8,38.4,1.8,38.4l8.9,20.3c0,0,3.2,7.1,2.8,9.6
					c-0.4,2.5-2.8,11-2.8,11s-0.4,8.2-0.4,14.6c0,6.4,0.7,11.4,0.7,16s2.5,9.6,3.2,13.2s0.7,8.2-0.7,13.9c-1.4,5.7-3.6,6.4-2.1,12.1
					c1.4,5.7,2.5,11.7,5,14.9c2.5,3.2,8.9,5.3,10.7,4.6c1.8-0.7,8.2-1.4,10-7.5c1.8-6,5.3-19.6,4.3-23.8s-4.3-23.5-4.6-24.5
					c-0.4-1.1,10.3-1.1,10.3-1.1s2.1-22.4,1.8-29.5c-0.4-7.1,5.3-32.7,3.9-38.7s-5.7-16-6-22.8c-0.4-6.8,2.8-22,2.5-31.3
					c-0.4-9.2-2.1-17.4-2.5-27.4c-0.4-10,10.3-89.9,10.3-89.9s-1.8-5.3-1.8-8.5s10.3-6,10.3-7.8s2.1-50.8,0.4-58.7s-7.1-53-7.1-53
					l-3.2-46.2l11.7-37c0,0,16-27,16.7-30.9c0.7-3.9-0.4-23.1-0.4-23.1s20.3-44.4,21-49.1c0.7-4.6,4.3-19.9,4.3-23.8s2.2-9,4.3-13.5
					c1.8-4.1,6.5-11.1,6.7-13.7c0.2-2.6,1.7-6.7-0.9-8.4c-2.6-1.7-8.4-6.1-11.2-7.1c-2.8-0.9-4.1-3.3-5.8-2.4c-1.7,0.9-2,2.8-3.9,3
					s-2.6,0.4-2.6,1.5s-3.5,4.3-3.5,7.3s-0.2,6.7,0,8.6s-0.6,3,0.7,4.8c1.3,1.9,1.1,4.5,1.1,4.5l-9.3,19.9c0,0-4.3,0.2-5.2,1.3
					c-0.9,1.1-5.4,14.3-5.4,14.3L99.7,679c0,0-7.1,14.5-7.4,18.4s0,5.9-1.5,5.4c-1.5-0.6-3.9-5-6.7-3.3c-2.8,1.7-4.8,5-7.1,10.2
					c-2.2,5.2-4.1,8.9-6.5,9.5c-2.4,0.6-4.5,2.6-3.7-2.2c0.7-4.8,3.5-16.5,3.5-16.5s0.9,1.1,2.4,1.1s3-5.6,3.5-8.4
					c0.6-2.8-1.3-6.3-1.3-6.3s1.5-11.4,2-15.4c0.6-4.3-6.5-23.1-23.4-23.2c-16.9-0.2-28.8,11.9-29.7,17.7
					c-0.9,5.8-1.1,17.3-1.1,17.3s-3,0.4-3,4.1s1.7,12.5,4.6,12.5c0.6,10.4,0.9,18.4,0.4,18.2c-0.6-0.2-3.5,0.7-4.3,4.5
					c-3.2-7.4-11.2-19.7-13.6-22.1c-2.4-2.4-7.3-5.6-9.9-3.7s-8.4,6.1-8.4,6.1c-3.2-0.6-5-8.2-7.6-12.5c-2.6-4.3-6.1-22.7-8.9-36.3
					c-2.8-13.6-4.5-37.9-4.5-39.2s-1.5-1.7-1.9-2.4c-0.4-0.7,0.2-6.5-0.2-7.6c0,0-1.1-10-0.4-13.6c0.7-3.5,8.2-7.8,9.7-11.7
					c1.5-3.9,3-12.5,2.8-13.6c-0.2-1.1-2.2-3-2.8-3c-0.6,0,0.6-3.7-0.7-3.3c-1.3,0.4-17.3-3-19.9-0.9c-2.6,2-2.8,7.3-4.3,9.3
					c-1.5,2-3,14.7-3,14.7l-2.2,21.4c0,0-2.2,0.4-2.6,1.7c-0.4,1.3-1.5,5.2-1.5,5.2s-5.2,1.1-6.1,2.4s-0.7,6.5-0.4,10.2
					s2.6,18,2.8,26c0.2,8-1.9,24.4-0.2,27.1c1.7,2.8,8.7,16.4,11.3,22.1s10.8,16.2,13.4,21.2s13,42.6,12.6,49.8
					c-0.4,7.3,3.3,79.2,2.4,89.1c-0.9,9.9-5.2,35.1-6.3,45.2c-1.1,10-4.3,24.2-2.8,29.2c1.5,5,8.2,14.9,8.2,14.9s1.5,45.6,2,56.5
					c0.6,11,3.7,17.5,4.1,26.2s-0.9,58.8-0.9,58.8s0,21.8,0.2,30.7c0.2,8.9-3.3,19.9-3.9,24.9s0,22.5,0,22.5s8.4,20.3,9.5,23.4
					c1.1,3.2,2,12.1,2.8,15.1c0.7,3-0.9,13.4-0.9,18.2s-2.8,14.7-0.7,20.3c2,5.6,4.5,11.9,6.9,15.2
					C-2.9,1263.2,1.7,1262.3,1.7,1262.3z"/>
				<g>
					<path class="st4" d="M287,424.8c25.5-84.7,120-144.9,112-244c0,0,90.4-7,129.7,24.7s90.7-0.3,90.7,6.7
						c0,7-124.9,141.4-136.2,166.6C472,404.2,436,455.3,436,455.3S341.3,406,287,424.8z"/>
					<path class="st4" d="M275.7,430.4c49.9-73,158.2-101.9,180.5-198.8c0,0,86.7,20.9,127.9,50.2c42.6,30.2,74.8,39.8,72.7,46.4
						c-2.1,6.6-161.8,97-180.2,117.7c-18.4,20.7-68.1,58.6-68.1,58.6S333.2,428.9,275.7,430.4z"/>
					<path class="st4" d="M294.8,437.8c58.7-66.1,169.8-81.1,204.2-174.4c0,0,61.9,29,104.8,55.7c37.8,23.6,84.9,59.1,82,65.4
						c-2.9,6.3-160.1,75-193.6,94c-24.1,13.6-75,49.5-75,49.5S352,443.6,294.8,437.8z"/>
					<g>
						<g>
							<g>
								<path d="M362.2,1096.1c-14.5,11.9-7.3-67.6-13.1-80.8s-73.9-110.6-82.3-124.3c-8.4-13.6-32-69.2-34.1-76
									c-2.1-6.8-5.2-14.2-5.2-14.2s-14.7-12.1-16.3-20.5s0.5-58.2-0.5-70.8c-1-12.6-11.5-59.3-17.3-83.9c-5.8-24.6,0.5-57.2,0-64
									c-0.5-6.8,10.5-14.2,10.5-14.2s1-13.1,0.5-16.8c-0.5-3.7,14.8-12.3,14.8-12.3c2-31.5-1.5-65.5-3.4-75.5
									c-1.6-8.3,5.1-41.5,5.6-44.1c0.5-2.6,6.3-7,12.8-6.5c6.8,0.5,10.6-5.3,13.8-8.4c3.1-3.1,12.6-0.5,15.2-2.1
									c2.6-1.6,7.9-5.8,14.7-6.8c6.8-1,12.6,2.1,17.8,4.7c15.7,0,26.7-0.5,27.3,4.2c0.5,4.7,1,28.3-3.1,29.4
									c12.1-0.5,25.7,7.3,25.7,7.3s3.1,11.5,2.6,18.9c-0.5,7.3-11,21.5-13.6,24.1c-2.6,2.6-20.5,6.8-26.7,13.6
									c-6.3,6.8-24.1,11.5-27.3,11c1.6,21.5,1.6,29.4,1.6,29.4s12.1-3.1,13.6,4.7c1.6,7.9-2.1,29.9-2.1,29.9s4.7-1,5.2,4.7
									c0.5,5.8,2.6,76.6,6.8,93.3c4.2,16.8,7.3,64.5,15.2,75s16.3,42.5,28.8,51.4c12.6,8.9,24.6,32.5,30.9,46.1
									c6.3,13.6,22.5,33.6,34.6,33.6s33-13.1,40.9-15.2s21.5-12.6,24.6,5.2C483.9,864.3,382.7,1079.3,362.2,1096.1z"/>
								<path class="st1" d="M214.8,589c13.4,4.1,40.8,3.1,47.5-1.5c6.7-4.6,29.4-31.6,31.2-35.2s1.3-9.8,1.3-21.6
									c-7.2,8.3-41.3,3.1-47.5,5.2c-6.2,2.1-17.6,1-20.1,4.1c-2.6,3.1-9.8,11.4-9.8,11.4s-8.8-14.5-6.7-23.2
									c-4.1,27.4-3.6,48.5-3.1,52.7C208.1,584.9,214.8,589,214.8,589z"/>
								<path class="st1" d="M216.4,541.5c0,0,3.1-53.2,3.1-56.8s-3.1-23.2-5.2-33s2.3-30.1,2.8-35.8c0.5-5.7,3.1-14,3.1-16.1
									s6.5-9,9.6-4.4c3.1,4.6,8.3,13.4,10.3,16c2.1,2.6,6.2,3.6,7.2,6.7c1,3.1,1,11.9,1,15s3.1,8.8,5.2,10.3
									c-9.8-1.5-10.8-7.7-12.9-22.2c-5.7,2.1-8.5-4.8-9.6-7.9c-1-3.1-3.3-9.2-3.3-7.6c0,1.5,5.2,15.5,4.1,20.1
									c-1,4.6-3.1,8.3-3.1,8.3s5.6,3.5,7.2,6.1c1.5,2.6,2.1,8.3,1.6,14c-0.5,5.7-2.6,16,0.5,17c3.1,1,6.7,1,6.2,7.2
									c-0.5,6.2-3.6,11.9-7.2,12.4c-3.6,0.5-4.1,38.2-4.1,38.2l-8.8-1.5L216.4,541.5z"/>
								<path class="st1" d="M226,399.1c0,0,1.2-7.2,16.9-6.3c-9.1-2.7-22.8-0.1-22.5,6.7C220.7,406.2,226,399.1,226,399.1z"/>
								<path class="st1" d="M275.5,407.4c-4,1.3-7,2.5-12.4-2.5c-5.5-5-16.9-13.4-17.9-15.4c-1-2,4.5-7.5,11.4-5.5
									c-5.5,5-7.5,7.5,0,10.9S277,406.9,275.5,407.4z"/>
								<path class="st1" d="M265.1,386.5c1.3-0.7,18.4,4.5,20.9,5.5c2.5,1,8.9,5.5,8.9,2.5c0-3,3-8.4-6-9.4
									c-8.9-1-25.9-3.1-25.9-3.1C259.6,383.5,264.1,387,265.1,386.5z"/>
								<path class="st1" d="M311.3,392.9c-2-2.5-7.5-7-8.9-8.4s9.9-0.5,12.4,2.5C317.3,390,311.3,392.9,311.3,392.9z"/>
								<path class="st1" d="M374.6,1097.2c-6.8-3.1-14.3-36.7-16.2-45.4c-1.9-8.7,10.6-41.1,17.4-47.9
									c-17.4,13.7-17.4,13.7-17.4,13.7s2.5-8.1,14.3-26.8c11.8-18.7,14.9-33,14.3-31.1s-33,38-33,38s15.6-36.7,16.8-41.1
									c1.2-4.4,8.1-27.4,2.5-22.4c-5.6,5-8.1-9.3-9.3-13.1c-1.2-3.7-2.5,21.2-4.4,33s-5,25.5-6.2,21.8c-1.2-3.7-0.6-29.3-0.6-37.4
									c0-8.1-5,3.1-5.6,14.3c-0.6,11.2-6.8,9.3-6.8,9.3s-0.6-54.2-2.5-48.6c-1.9,5.6-13.1,29.3-13.1,29.3s-4.4-11.8-2.5-18.1
									c1.9-6.2,7.5-35.5,6.8-33c-0.6,2.5-11.8,18.7-14.3,25.5c-2.5,6.8-12.5,8.7-12.5,3.1s0-43-2.5-32.4s-9.3,18.7-9.3,18.7
									s-24.3-39.2-31.1-47.9c-6.8-8.7-20.5-32.4-20.5-34.9c0-2.5,6.2,3.7,9.3,7.5c3.1,3.7,10,5,10,5s-13.7-28-20.5-31.1
									c-6.8-3.1-15.6-12.5-18.7-18.7c-3.1-6.2-0.6-24.3-0.6-24.3s6.2-37.4,3.1-50.4c-3.1-13.1-5-44.8-10.6-63.5s-5.5-33.6-7-45.2
									c-1.7-13.5,1.4-24.3-3.9-27.2c-6.2-3.4-6.2-19.1-6.2-19.1s-10.4,51.6,4,100.2c5.5,18.7,16.2,62.3,13.1,97.7
									c-3.1,35.5,3.7,36.7,11.8,44.2c8.1,7.5,8.1,7.5,8.1,7.5s-2.5,10,10,34.9c12.5,24.9,44.8,90.9,52.9,100.8
									s46.7,43.6,49.8,59.1s5,55.4,8.1,72.8C354.7,1091.6,374.6,1097.2,374.6,1097.2z"/>
							</g>
							<path d="M674.2,2627.2c22.3,3.4,56.1-19.9,66.1-29.4c10-9.4,16.8-55.1,13.6-62.9c-3.1-7.9-15.2-82.3-19.4-88.6
								c-4.2-6.3-8.9-15.7-12.6-21s-41.9-11.5-49.8-9.4c-7.9,2.1-25.2,7.3-25.2,16.3c0,8.9-1.6,58.2-3.7,75.5
								c-2.1,17.3-2.1,33-5.8,45.1c-3.7,12.1-2.1,31.5,7.9,48.2C655.3,2617.8,667.4,2626.2,674.2,2627.2z"/>
							<path d="M529.5,2383.9c0,0-19.4,28.3-26.2,38.8c-6.8,10.5-26.7,28.3-44.6,39.3c-17.8,11-39.9,14.7-38.8,31.5
								c1,16.8,0,17.8,1,16.8c1-1,68.7,9.4,92.8,2.6c24.1-6.8,61.9-33,66.1-37.8s11.5-9.4,11.5-7.3s3.7,14.7,3.7,14.7
								s54.5-1.6,64-16.8c0,0-4.2-50.3-6.8-57.7c-2.6-7.3-24.6-33.6-33-38.8C610.8,2364,529.5,2383.9,529.5,2383.9z"/>
							<path d="M526.9,2394.4c10-0.5,58.2-1,74.5,1c16.3,2.1,56.6-10.5,56.6-12.1c0-1.6-15.7-66.1-25.2-73.9s-36.2-34.6-38.3-37.2
								c-2.1-2.6-55.1-157.3-60.8-172c-5.8-14.7-19.9-30.9-23.6-38.3c-3.7-7.3-0.5-24.6-3.1-31.5c-2.6-6.8-13.1-16.8-17.3-23.1
								c-4.2-6.3-2.6-14.7-2.6-21c0-6.3-2.6-14.2-6.3-23.1c-3.7-8.9-11-51.4-12.1-61.4s4.7-27.3-2.6-37.8c4.2-9.4-0.5-15.7-3.1-24.6
								c-2.6-8.9,2.1-143.7,2.1-143.7l-12.6-35.1c0,0-48.8-155.7-95.4-187.7s-72.4-91.2-89.1-62.4c-16.8,28.8-21,158.9-15.7,187.7
								c5.2,28.8,32.5,190.3,33.6,217.6s17.8,76,34.6,130.6c16.8,54.5,12.6,64,22,75c9.4,11,26.2,32,27.8,35.1
								c1.6,3.1,45.4,118.5,58.5,136.9c13.1,18.4,54.8,86.2,56.3,96.1c1.6,10-0.6,29.4,6.7,34.7c7.3,5.2,14.3,10.2,18.5,28.6
								c4.2,18.4,4.7,36.2,5.8,40.4C516.9,2397.6,526.9,2394.4,526.9,2394.4z"/>
							<path d="M648.5,2435.8c13.1,2.1,41.4,5.8,53,4.7c11.5-1,33.6-8.9,33.6-17.8s14.7-65,10-84.9c-4.7-19.9-10-62.4-12.6-82.9
								c-2.6-20.5-6.8-212.4-10.5-241.2s-9.4-46.1-11.5-60.8s3.1-21-7.9-28.3c-11-7.3-12.6-4.2-12.6-10.5c0-6.3-2.6-20.5-4.7-19.4
								s-0.5-14.2-0.5-22s-2.1-5.2-7.3-13.6c-5.2-8.4-3.7-64.5-5.8-100.7s-13.1-123.2-13.6-134.8c-0.5-11.5,3.1-46.7,3.7-66.1
								c0.5-19.4,3.7-35.7-2.1-55.1c-5.8-19.4-16.3-53.5-16.3-53.5s-198.7,13.6-290.5-15.2s-65-22-63.4,0.5
								c1.6,22.5,53.5,178.8,82.9,182.5c29.4,3.7,92.3,81.3,92.8,79.2c0.5-2.1,18.9,37.2,18.9,37.2c11,29.4,29.9,87,36.7,106.4
								s21.5,38.3,20.5,62.9c-1,24.6-4.2,38.3,3.7,48.8c7.9,10.5,16.8,18.4,16.8,18.4s-5.2,26.7,18.4,61.9
								c-2.1,42.5,5.8,80.2,15.7,108.5c10,28.3,18.9,106.4,21.5,118.5c2.6,12.1-4.7,25.7-2.6,43s1.6,58.7,7.9,72.4
								s18.9,59.3,19.4,62.4S648.5,2435.8,648.5,2435.8z"/>
							<path d="M662.2,1619.4c2.3,9.7-0.5-88.6-3.1-112.2s-10-129-0.5-145.8s45.6-56.1,53-63.4c7.3-7.3,39.9-49.3,50.9-71.3
								c11-22,64.5-123.2,68.2-135.3c3.7-12.1-0.5-26.2-16.3-28.8c-15.7-2.6-22.5-10.5-25.2-10.5s-92.3-92.8-92.3-92.8
								s-178.3-56.5-182.5-57.6c-4.2-1-26.1-44.2-30.5-57c-4.4-12.6-23.9-8.1-34.9,1.3s-27.9,11-29,23c-1,12.1-5.2,38.8-7.3,53.5
								c-2.1,14.7-23.6,50.3-26.2,64.5c-2.6,14.2-22,78.1-41.9,118.5c-19.9,40.4-120,277.9-121.7,360.8c-1,53,5.8,72.4,5.8,72.4
								c14.7-0.5,167.8,13.6,183-21s21.5-65.5,21.5-64s28.3,77.1,87,80.8S658,1602.1,662.2,1619.4z"/>
							<path d="M713.5,1401.8c-1.6-10.5,2.1-24.1,0.5-28.3c-1.6-4.2-5.2-8.9-6.3-17.3c-1-8.4,4.2-20.5,2.6-33.6
								c-1.6-13.1,1.6-22.5-1-33c-2.6-10.5,22.5-95.4,28.3-115.4c5.8-19.9,51.4-91.2,60.3-98.1c8.9-6.8,34.6,0,36.7,11.5
								c2.1,11.5,7.3,40.4-4.2,55.6c6.3,20.5,7.3,61.9,5.2,69.2s-10.5,17.8-10.5,17.8s8.9,4.2,1.6,22.5c3.7,5.8,5.8,2.1,5.2,12.1
								c-0.5,10,0,50.3-5.2,58.7c-5.2,8.4-6.3,25.7-4.7,30.4c1.6,4.7,1,34.1-0.5,44.6c-1.6,10.5-4.7,16.3-14.2,24.6
								c-9.4,8.4-41.4,7.9-59.8,7.9C729.3,1431.2,713.5,1401.8,713.5,1401.8z"/>
							<path d="M659.6,1502.7c0,0,11.5,27.8,29.4,25.7c17.8-2.1,101.2-68.7,108-77.6c6.8-8.9,17.3-17.8,18.4-30.4
								c1-12.6,6.3-32-7.9-37.2c-14.2-5.2-29.4-10-38.3-8.9c-8.9,1-39.9,10.5-49.8,18.4c-10,7.9-35.1,18.4-38.8,20.5
								c-3.7,2.1-10,10.5-10,10.5s-7.9-3.1-14.7-6.3c-6.8-3.1-12.6-11-19.9-14.7c-7.3-3.7-11-12.6-22.5-10.5
								c-11.5,2.1-23.6-3.7-26.2-1s-11,8.9-14.7,11.5s-15.7,3.1-16.3,6.3c-0.5,3.1,4.2,12.6,10.5,11.5c-0.5,10-3.7,22.5,4.2,24.6
								c-5.2,13.6-5.2,22.5,1,25.2c-6.8,11.5-4.2,22.5,0.5,24.1c-5.2,11,4.2,20.5,10.5,21.5s29.4,5.2,36.7,3.1
								c7.3-2.1,23.6-2.6,27.3-8.4C650.7,1504.8,659.6,1502.7,659.6,1502.7z"/>
							<path class="st1" d="M566.6,1408.1c-8.4,2.1-8.2,2.4-8.1,2.5c4.2,2,14.6-1.5,21.6-4.1c7.6-2.8,16.1-4.2,20.3-4.2
								s12.3,3.4,14.8,4.7c2.5,1.3,10.2,5.9,10.2,5.9s-8,5.1-11.9,6.4c-3.8,1.3-29.2-1.3-33.5,1.3s-12.7,3.8-11.9,11.9
								c9.7-4.2,4.7-8.9,21.2-7.6c16.5,1.3,57.3-9.4,67.1-7.3c-9.1-7.8-13.5-11.9-20.9-16.2c-8.2-4.8-12.7-10.8-16.8-10.5
								c-20.8,1.3-27.9-3.5-32.5,0.1c-8.2,6.4-13.3,12.6-22.7,14.1c-8.6,1.4-8.6,2.6-6.7,4.5
								C557.3,1409.8,557.6,1410.1,566.6,1408.1z"/>
							<g>
								<path class="st1" d="M474.5,856.3c-2.4,4.3-37.1,52.3-41.3,61.4c-4.3,9.1-26.7,21.9-29.2,27.9c-2.4,6.1-24.3,60.2-29.8,71.1
									s-84.5,215.1-85.1,217.5c-0.6,2.4-7.3,13.4-7.3,13.4s-68.7,151.9-62.6,230.3c6.1,78.4,0.8,56.1,23.7,60.2
									c35.7,6.4,158.9,13,158.9,13s-75.6-30.5-117.1-15.5c-5.5-6.1-14.4-195.1,0.5-248.3c14.9-53.2,29.6-74.5,32.6-90.9
									c3-16.4,23.6-74.5,24.2-59.3s4.3,70.4,4.3,70.4s9.1-101.3,12.1-115.9c3-14.6,27.9-79,27.9-71.1s20.7,45,20.7,45
									s-4.9-70.5-1.8-86.3c3-15.8,23.7-45,29.8-51C441.1,921.9,474.5,856.3,474.5,856.3z"/>
								<path class="st1" d="M438.3,895.9c-1.8-5.7-8.4-32.2-10.2-36.2c-1.8-4-0.9-4.4,6.6-8.8s31.4-15.5,33.1-16.8
									c1.8-1.3,13.7,3.5,17.2,8c3.5,4.4,10.2,24.3,10.6,28.3s17.2,16.8,18.1,22.1c0.9,5.3,22.9,60.8,19.8,62.5
									c-3.1,1.8-34.4-51.5-34.4-51.5l-9.7-35.8c0,0-12.4-15-13.7-15.9c-1.3-0.9,0.2,1.3-3.4,9.2
									C468.9,868.9,438.3,895.9,438.3,895.9z"/>
								<path class="st1" d="M417.9,912.7c2.7-2.2,9.7-16.3,9.7-16.3l-4-17.7v-8c0,0-1.8-14.1-3.5-10.6s-4,11-4.9,18.6
									c-0.9,7.5-1.8,22.5-2.2,27.8C412.6,911.8,417.9,912.7,417.9,912.7z"/>
							</g>
							<path class="st1" d="M537.4,930c-2,4.7,29.7,58.6,61.9,89.8c-20.8,3.5-28.2,20-39,48.4C560.3,1066.2,537.4,930,537.4,930z"/>
							<path class="st1" d="M600.7,1020.1c0,0,67-34.7,74.5-62.9c-14,76.1-55.4,127.8-55.4,126.3S617.8,1032.7,600.7,1020.1z"/>
							<path class="st5" d="M686.5,953.3c-3,21.9-4,76.9-137.8,227.9c22.5-186.8-40-286.9-40-286.9"/>
							<path class="st3" d="M575.3,1074.9c11.1,2.5,15,5.9,19.4,3.8c4.4-2.1,14.4-16.7,15.6-21.1s-3.2-27.6-10.3-30.5
								c-19.4,7.3-28.2,21.7-27.9,25.5C572.3,1056.5,572.6,1074.4,575.3,1074.9z"/>
							<path class="st3" d="M572.9,1078.5c-0.7,0.7,15,6.2,21.1,5c-5.3,38.7-6.2,47.2-6.2,47.2s-36.4,45.8-36.4,44.6
								c0-1.2,5-55.5,3.8-69.5C567.9,1083.2,573.2,1078.2,572.9,1078.5z"/>
							<g>
								<path class="st1" d="M489,865.1c-0.2,15.4-0.1,30.8,0.7,46.2c0.8,15.4,2.1,30.7,4,46c1.9,15.3,4.4,30.5,7.4,45.6
									c3,15.1,6.4,30.1,9.8,45.2c7,30,14,60.1,16.9,90.8c1.5,15.3,2.1,30.8,1.7,46.2c-0.3,15.4-1.6,30.8-3.6,46.1
									c1.9-15.3,3.2-30.7,3.5-46.1c0.3-15.4-0.3-30.8-1.8-46.1c-3-30.7-10.1-60.8-17.1-90.8c-3.5-15-6.9-30-9.9-45.1
									c-3-15.1-5.5-30.3-7.5-45.6c-1.9-15.3-3.3-30.7-4.1-46.1c-0.8-15.4-0.9-30.8-0.8-46.2L489,865.1z"/>
							</g>
							<g>
								<path class="st1" d="M538.5,1209.9c10.2-8.4,20.2-17,30.1-25.6c10-8.6,19.8-17.3,29.6-26.2c9.8-8.8,19.5-17.7,29.1-26.8
									c9.6-9.1,19-18.3,28.1-27.8c4.5-4.8,9-9.7,13.1-14.7c2.1-2.5,4.1-5.1,6-7.9c1.8-2.7,3.4-5.6,5-8.5
									c6.3-11.5,11.6-23.7,15.6-36.2c4-12.5,6.8-25.5,7.7-38.6c0.4-6.6,0.3-13.2-0.6-19.7c-0.9-6.5-2.6-12.9-5.8-18.7
									c-0.1-0.2,0-0.4,0.1-0.5c0.2-0.1,0.4,0,0.5,0.1l0,0c3.2,5.8,4.9,12.4,5.8,18.9c0.9,6.6,0.9,13.2,0.5,19.8
									c-0.9,13.2-3.7,26.2-7.8,38.7c-4.1,12.6-9.4,24.7-15.8,36.2c-1.6,2.9-3.2,5.8-5,8.5c-1.9,2.7-3.9,5.3-6,7.9
									c-4.2,5.1-8.7,10-13.2,14.7c-9.1,9.5-18.6,18.7-28.1,27.8c-9.6,9-19.3,17.9-29.1,26.7c-9.8,8.8-19.7,17.5-29.7,26.1
									C558.7,1193,548.7,1201.6,538.5,1209.9z"/>
							</g>
							<path class="st1" d="M566.7,1458.8c0-3.8,1.2-7.1,4.4-7.6c7.6-1.2,37.6,2.1,40-0.8s6.7-1.3,7.2,3.8c0.5,5.1-1.8,4.1-7.6,1.6
								c0,0-30.2-2.7-33.7-1.3C573.4,1456,566.7,1463.6,566.7,1458.8z"/>
							<path class="st1" d="M567.2,1484.9c-0.2-2.5-0.2-14,4.6-14.6c11.8-1.6,36.8-1.1,35.8-0.7c-1.1,0.4,10.6,0.2,10.6,0.2
								s3.2-1.3,4.2,3.2c0.7,3.4,1.4,8.4-2.9,7.8c-4.3-0.6,0.8-5.7-3-6s-43.7-0.5-45.1,1.9C566.9,1484.4,567.8,1493.9,567.2,1484.9z
								"/>
							<path class="st1" d="M570.7,1502c-0.4-2.9-0.1-5.8,1.1-6.9c2.8-2.5,44.7-2,49-1.8c5-2.1,8.4,0.8,7.7,3.3
								c-0.7,2.5-0.5,6.8-3.8,6.7c-3.3-0.2-7-5.4-9.1-7.1c-1-0.8-22.2-1-33.1-0.5c-1.7,0.1-7.2-0.8-8,2.3
								C573.7,1501.5,571,1504,570.7,1502z"/>
							<path class="st1" d="M659.6,1502.7c0,0,5.8-5.2,9.6-4.8s6.2,3.8,13.1,4.2c6.9,0.4,15.4-10.4,15.8-21.1s6.9-50-20.8-59.2
								c11.5-2.3,36.9,1.9,36.5,25.4s0,49.2-20.8,58.4S659.6,1502.7,659.6,1502.7z"/>
							<path class="st1" d="M251.5,1551c0,0,26,10.1,29.4,9.2s28.5-2.5,36.9,5c8.4,7.5,57.9,44.4,53.7,45.3s-41.1-10.1-53.7-12.6
								c-12.6-2.5-19.3,3.4,6.7,12.6c26,9.2,55.3,40.3,55.3,40.3s-15.1-7.5-33.5-11.7c-18.4-4.2-43.6-19.3-56.2-23.5
								c-12.6-4.2,16.8,1.7,29.4,8.4c12.6,6.7-13.4-17.6-26.8-20.1s-29.4,1.7-29.4,1.7s45.3,26.8,48.6,28.5s-2.5,1.7-14.3,5
								c-11.7,3.4-21.8,10.1-15.9,9.2c5.9-0.8,47,6.7,51.2,7.5s47.8,15.1,47.8,16.8s-16.8,4.2-27.7,0.8s-30.2-11.7-36.9-12.6
								c-6.7-0.8,13.4,8.4,17.6,11.7s15.1,7.5,5.9,8.4c-9.2,0.8-31,0-38.6,5c-7.5,5-17.6,10.9-5.9,10.9s35.2,4.2,35.2,4.2l-7.5,16.8
								c0,0-25.2,12.6-14.3,12.6s20.1,10.9,20.1,10.9s-10.9,25.2-12.6,30.2c-1.7,5-6.7,19.3-3.4,25.2c3.4,5.9,34.4,148.4,40.3,172.8
								c5.9,24.3,9.2,47,17.6,74.6c8.4,27.7,62.1,140.9,71.3,151.8c9.2,10.9,55.3,63.7,73.8,73.8c18.4,10.1,67.1,42.8,57,40.3
								c-10.1-2.5-67.1-33.5-77.2-37.7c-10.1-4.2-5.9,15.9,0,23.5c5.9,7.5,15.9,31.9,15.9,31.9s16.8,4.2,22.6-0.8s42.8,3.4,42.8,3.4
								s-35.2,0.8-38.6,3.4c-3.4,2.5-21.8,8.4-24.3,5.9c-2.5-2.5-8.4-10.1-14.3-10.1c-5.9,0-2.8,6.1-10.6-6.2
								c-7.8-12.3,0.5-32.6-10-43c-10.5-10.4-48.8-82.4-64.7-107.8c-10.5-16.8-32.3-63.2-49.7-121.5c-36.1-36.9-26-41.9-34.4-70.4
								c-29.4-78.8-50.3-146.8-50.3-163.5c0-16.8,3.4-42.8-0.8-57c-4.2-14.3-16.8-85.5-23.5-110.7C249,1624,251.5,1551,251.5,1551z"
								/>
							<path class="st1" d="M513.3,2360.5c2.8-0.9,22.3-7.4,26.1-3.7c3.7,3.7,54.9,6.5,55.8,0c0.9-6.5-5.6-15.8-5.6-15.8
								s17.7,14.9,17.7,19.5s-44.7,5.6-51.2,7.4c-6.5,1.9-10.2,3.7-6.5,12.1c3.7,8.4-0.9,14.9-0.9,14.9l-32.8-1.6L513.3,2360.5z"/>
							<path class="st1" d="M424,2486.2c2.8-6.5,14-16.7,29.8-15.8c15.8,0.9,74.4-17.7,80-22.3c5.6-4.7,2-26.3-4.7-27
								c-17.7-1.9-25.8,1.7-25.8,1.7s-35,33.8-44.6,39.3C449.1,2467.5,424,2471.3,424,2486.2z"/>
							<path class="st1" d="M632.4,1903.7c3.4-1.7,0,175.9,0.9,193.5c0.9,17.7,10.2,220.5,10.2,232.6c0,12.1,5,106,5,106
								s-5,0.1-11.5-15.8c-6.5-15.8-22.3-50.2-23.3-56.8c-0.9-6.5,0.4-48.1,0.6-61.7s3.1,47.8,6.8,55.2s8.4,17.7,8.4,17.7
								s-7.4-96.8-8.4-104.2c-0.9-7.4-7.4-35.4-9.3-40.9c-1.9-5.6-3.7-48.4-7.4-63.3s-16.7-63.3-19.5-71.6
								c-2.8-8.4-6.5-27.9-6.5-37.2c0-9.3-2.8-36.3-2.8-36.3s-15.3-1.1-14.2-51.2c-22.1-18.5-26.8-44.6-26.8-76.2
								C518.9,1833,465,1696,465,1696s-12.2-61.2,39-86.3c-27,27-27,72.6-21.4,80.9s13,31.6,13,31.6s37.2-12.1,49.3-12.1
								c-36.3,10.2-48.4,30.7-48.4,30.7s3.7,17.7,22.3,20.5s59.5,18.6,59.5,18.6s-54.9-7.4-61.4-7.4c-6.5,0-5.6,22.3,4.7,27.9
								c10.2,5.6,67,32.6,63.3,31.6s-55.8-18.6-62.3-19.5c-6.5-0.9,6.5,23.3,9.3,28.8c2.8,5.6,9.1,61.2,9.1,61.2s4.8,36.5,11.4,23.5
								c6.5-13,23.3-35.4,27-44.7s20.5-18.6,20.5-18.6l7.4,31.6c-0.9,29.8-19.5,134.9-20.5,147c-0.9,12.1,26.1-20.5,27-31.6
								c0.9-11.2,0.9,118.2,0.9,137.7c0,19.5,8.4,82.8,10.2,68.9s-1.9-186.1-1.9-204.7s0.9-93,0-107
								C622.2,1890.7,630.5,1904.6,632.4,1903.7z"/>
						</g>
						<path class="st1" d="M563.8,898.8c4.5,4.5,16.8,10.4,21.2,10.4c4.5,0,9.9,1.6,7.1,5.6s-13.4,6.9-17.1,7.3
							c-3.7,0.4-11.8-4.9-12.2-8.1C562.4,910.8,563.8,898.8,563.8,898.8z"/>
						<path class="st6" d="M598.3,906.3c-23.5,4.9-34.5-15.4-46.1-14.2"/>
						<path class="st1" d="M530.3,884.7c0,0,13.1,47.4,14.4,50.7c1.3,3.3,54.3,74.2,54.3,74.2s58-37.3,61.3-45.9s5.7-88.7,1.7-93.4
							C658.1,865.8,530.3,884.7,530.3,884.7z"/>
						<path d="M540,866.4c0-16.8,14,69.2,23.4,86s33.3,54.6,35.6,57.3c2.2,2.6,45.3-23.6,48.5-44.6s7.4-99.8,2.1-104s-43.1,0-43.1,0
							S540,867.4,540,866.4z"/>
						<g>
							<path class="st1" d="M592.8,841.3c1.3-2.2,9.3-3.1,9.5-4.9c0.2-1.8-2.9-5.5-4.4-6.2c-1.6-0.7-4.7-3.8-4.9-0.9
								C592.8,832.3,592.8,841.3,592.8,841.3z"/>
							<path d="M510,829.2c-3.3-3.3-5.8-11.2-7.9-17.4s-6.1-32.6-7.4-37.6c-1.2-5,0.5-19.2-1.9-25.8c-2.5-6.6-1.7-21.7,0-25.8
								c1.7-4.1,13.9-5.6,16.4-8.1s7.5-18.3,8.3-21.6c0.8-3.3,10.8-6.2,14.1-10.4c3.3-4.1,16.3-4,20-7.7c3.7-3.7,9-4.2,14-6.3
								c5-2.1,25.2-7,29.5-5.9c6.9,1.8,19.3,1.5,22.4,1.8c5.3,0.6,23.5,9.8,24.7,14.8c1.2,5,7.9,12.4,12,12
								c4.1-0.4,16.2,2.1,17.8,4.6c1.7,2.5,5,8.7,5.4,14.5c0.4,5.8,6.2,17,7,23.2s0.8,12.4,0.8,17c0,4.6-2.1,14.5-3.3,19.9
								s-7,20.7-7,20.7s-6.2,17.4-7.9,19.1S510,829.2,510,829.2z"/>
							<path d="M594.3,944.6c11.3,0,15.6,0,26-2.5c10.4-2.5,27.7-30.1,32.9-35.9c5.2-5.9,16.5-22.6,15.6-33.4s-0.9-35.1-0.9-35.1
								s5.1,3.7,10.3-2.2c5.2-5.9,9.2-16.3,9.7-32.9c0.5-17-7.8-34.3-13-28.4s-5.2,15.9-8.7,17.6c-3.5,1.7-8.7-3.3-8.7-3.3
								s0.9-24.2-4.3-29.3c-5.2-5-9.5-26.7-15.6-31.8c-6.1-5-26.9-9.2-26.9-9.2s-26,5-32.9,5.9c-6.9,0.8-24.3,4.2-32.1,1.7
								c-7.8-2.5-18.2,7.5-21.7,13.4c-3.5,5.9-14.7,25.9-14.7,30.1s3.5,20.9,3.5,20.9l0.4,16.9l2.6,9.2c0,0-11.2-2.8-6.5,23.2
								c1.8,10,2.6,25.1,13.9,23.4c5.2,16.7,14.7,34.3,20.8,38.4c6.1,4.2,21.7,24.2,24.3,29.3C570.9,935.4,590.8,944.6,594.3,944.6z
								"/>
							<path class="st1" d="M552.1,724.5c-1.4,0.5-13.1-2.6-15.5-1.7c-2.4,1-14.6,13.6-15.3,15.8s-9.1,28.9-8.6,33.2
								c0.5,4.3,1.7,46.8,2.9,50.9c1.2,4.1,4.1,24.4,5.5,28.7c1.4,4.3,6.2,22.2,6.9,27c0.7,4.8,1,6,11.2,17.9
								c10.3,11.9,34.1,38.3,34.1,38.3s-35.7-47.4-36.2-53.4c-0.4-4.5-2.7-24.5-7.4-27c0,0,3.3,7.9,5.5,13.4s18.2,32.5,18.2,32.5
								s15.9,33,20.7,35.6c4.8,2.6,17.1,11.6,22.7,9.3c-6-1.2-27-28.4-21-31.7c11.5-6.3-3.5-11.4-4.8-17.3
								c-0.5-2.4-10.7-11-12.9-11.2c-2.1-0.2-4.5-0.2-2.6-2.4c1.9-2.1,11.5-16.5,16.5-15.8s1.7-6.9-0.2-8.8c-1.9-1.9-5-1.4-7.2-3.6
								s-4.8-6-5-2.1c-0.2,3.8-4.3,18.2-4.5,20.8c-0.2,2.6-4.8,2.6-4.8,2.6s-0.7-10.3-0.7-17.2c0-6.9,2.6-24.4,1.4-27.7
								s-0.5-5.7-4.1-3.1c-3.6,2.6-11.9-0.5-12.7-1s14.6,0.5,17-9.3c-7.9,1.2-15.5,2.1-18.2,4.5c-2.6,2.4-7.2,1.4-6.9-1.2
								c0.2-2.6,2.1-11.5,10.7-14.1c8.1-2.1,15.8-1.9,15-2.1c-0.7-0.2-13.1-5-16.2-3.8c-3.1,1.2-9.3,5.3-11.9,6.4
								c-2.6,1.2-4.8,0.2-3.3-5.3c1.4-5.5,5.3-10.7,6.9-12.2c1.7-1.4,22.7-1.2,27.9-1.9s1.2-10.3-2.4-19.8
								C549.2,758.2,552.1,724.5,552.1,724.5z"/>
							<path class="st1" d="M651.6,910.1c0.5-0.7,16.4-23,16.6-26.7c0.2-3.7-1.5-40.4-1.5-43.3s1.2-39.6,0.2-42.6
								s-3.7-19.1-6.1-24.2c-2.4-5.1-7.1-21.8-11-25.9s-6.1-6.4-6.9-6.1c-0.7,0.2-8.3,22.8-8.3,22.8l4.9,18.1l13.2,19.6l-8.6,12.5
								c0,0-6.4,12.2-4.4,13.5s11.5,22,11.5,22l6.6,19.3c0,0,4.2,10.5,3.2,15.9C660.1,890.3,651.6,910.1,651.6,910.1z"/>
							<path class="st1" d="M573,839.1c-2-2.2-4.9-4.6-5.9-2.2c-1,2.4-1.7,8.6-1.7,7.6s3.4,2.9,5.4,2s6.9,1.2,10.5,1.7
								c3.7,0.5,2.9-5.9,0.7-10.3c-2.2-4.4-0.4-9.1-1.5-13.9c-1.2-5.6-2-14.5-3.3-18.2c-1.2-3.7-3-4.3-2.3,1.3s-0.3,14.9-0.1,21.3
								C575.2,833.9,573,839.1,573,839.1z"/>
							<g>
								<g>
									<g>
										<g>
											<g>
												<path d="M666.5,779c-0.3-1.5-0.9-3-1.2-3.6c-1-2-3.1-2.1-11.8-1.5c-5.2,0.3-12.2,1-18.9,1.5l-0.5,0
													c-14.4,1.3-32.1,7-36.9,9.1c-4.2,1.9-9.4,6.2-9.9,8.3c-0.1,0.2-0.1,0.4-0.1,0.6c-2.1,1.1-4.9,1.7-8.4,1.8
													c-0.5,0-1.6,0-2.4-0.2c0-0.3-0.1-0.6-0.3-0.9c-1-1.9-7.1-4.8-11.6-5.6c-5.1-0.9-11.7-3.5-26-1.2l-0.5,0.1
													c-6.7,1.1-13.6,2.2-18.7,3.2c-8.6,1.6-10.6,2.2-11.1,4.4c-0.1,0.6-0.3,2.2-0.3,3.7c0,1.1,0.1,4.6,3.3,5.1
													c0.2,0,0.4,0.1,0.6,0.1c1.6,0.2,2,0.4,2.1,0.9c0.2,0.4,0.5,1.5,0.9,2.6c2.4,7,5,14.1,7.2,16.8c0.5,0.6,0.9,1.2,1.4,1.8
													c1.9,2.6,4.1,5.6,10.2,7.2c4.7,1.2,5.8,3.6,12.5,2.8c2.8-0.3,5.5-0.9,8-1.8c8.8-3.1,15.5-9.5,17.1-16.3
													c0.5-2.1,1.1-5.2,1.8-8.5c0.6-2.9,1.3-6.6,2-9.4c1.3,0.3,2.6,0.3,3.7,0.3c1.2,0,2.4-0.1,3.5-0.3c2.8-0.4,5.3-1,7.4-2.1
													c1.3,2.5,3.1,6.1,4.4,8.8c1.5,3,2.8,5.9,3.8,7.7c3.3,6.2,11.4,10.8,20.6,11.6c2.6,0.2,5.4,0.1,8.2-0.2
													c6.7-0.9,19.2-5,23.4-7.3c5.5-3,6.9-6.4,8.1-9.5c0.3-0.7,0.6-1.4,0.9-2.1c1.5-3.2,2.2-10.7,2.8-18.1
													c0.1-1.2,0.2-2.3,0.2-2.8c0.1-0.5,0.3-0.8,1.9-1.4c0.2-0.1,0.4-0.2,0.6-0.2C667.5,783.5,666.7,780.1,666.5,779z"/>
											</g>
										</g>
									</g>
								</g>
								<path class="st1" d="M510.1,799.3c-0.3-3,0.5-5.2,7.4-6.6c6.8-1.4,24.7-4.5,38.7-3.6c14,0.9,18.5,5.9,18.5,5.9
									s-12.8-4.8-31.5-2.6s-25.5,2.1-24.5,6.7c1,4.6,5.6,20.5,9.4,26.7c3.3,5.3,15.7,9.4,25.7,4.8c0,0-0.7,3-17.5,1.8
									c-11.7-0.8-14.3-13.5-17-20.8c-3.6-10-3.5-10.2-6-10C510.7,801.8,510.4,802.2,510.1,799.3z"/>
								<path class="st1" d="M625.1,778.9c0,0,35.4-5,37.8-4.2s3.6,7.1,3.1,7.6c-0.5,0.5-3.9,2-4.3,2.3c-0.5,0.3-1.2,20.9-7.1,28.5
									c2.8-9.6,4.5-27.9,4-30.7c-0.5-2.8-0.8-5.3-5.4-5.4C648.5,776.9,625.1,778.9,625.1,778.9z"/>
								<path class="st1" d="M592.7,789.7c0,0-3.8,2.6-0.4,10.1s6.1,23.2,25.3,25.2c0,0-12.3-1.5-18.5-14.4
									C592.8,797.6,592.7,789.7,592.7,789.7z"/>
							</g>
							<path class="st1" d="M565,880.5c0,0,14.3-16,56.6-11.9c-10.7,6.4-42.3,11.7-46.1,12.4C571.7,881.7,565,880.5,565,880.5z"/>
							<path class="st1" d="M615.4,894.5c-0.3,0.4-4.9,6.7-11.5,8.7s-10.6-1-17.7,0c-5.3,0.7-20-11-23.1-13.5c0,0-3.3-3.3-3.9-3.9
								c-0.6-0.6,10.4,2.9,12.8,4.4s10.2,6.8,14.1,6.2c3.9-0.6,11.4-1.4,13.7-0.6c2.3,0.8,14.9-2.7,17.4-7S615.4,894.5,615.4,894.5z
								"/>
							<path class="st1" d="M523.2,868.1c-6.7,1.6-11.6-6.5-12.6-10.9c-1-4.4-6.1-22.2-4.7-25.6c1.3-3.4,6.1-7.1,9.1-5.4
								c3,1.7,3,6.7,0,7.7c-3,1-3.7,3-2.7,8.4c1,5.4,5.7,17.8,7.7,18.5C522,861.6,528.3,866.8,523.2,868.1z"/>
							<path class="st1" d="M509.3,831.3c0,0-3.7-9.4-5.7-13.1c-2-3.7-6.7-34.3-8.8-38c-2-3.7-4.4-12.1-7.1-16.8
								c-2.7-4.7,2-13.8,1-18.5c-1-4.7,1.3-18.2,1.3-18.2s2.4-11.1,5.7-12.5c3.4-1.3,13.8-4,15.8-8.1s3.4-7.1,3-12.5
								c-0.3-5.4,5.4-6.4,8.8-9.1c3.4-2.7,41.7-16.8,47.1-20.5c5.4-3.7,39.4-5.7,43.1-3.4c3.7,2.4,4.4,3,8.8,4.4
								c4.4,1.3,9.8,7.1,9.8,7.1s-14.5-1.7-18.2-2.4c-3.7-0.7-14.1,1.7-19.2,3.4s-27.9,5.7-31.6,7.1c-3.7,1.3-15.5,7.4-20.9,9.1
								c-5.4,1.7-11.8,11.1-11.8,11.1s-7.4,9.4-8.1,11.4c-0.7,2,7.4,8.4,8.8,7.4c1.3-1-0.7,5.7-3.7,4.4c-3-1.3-10.8-4-14.1-3.4
								s-7.4,1.3-9.4,5c-2,3.7-2.4,11.8-2.7,15.5s-0.7,3.4-1.3,8.4c-0.7,5-3,4.7-1.7,10.1c1.3,5.4,0,8.1,3.7,9.4s2,3,1,6.4
								c-1,3.4-3.7,7.1-0.7,10.4c3,3.4,4.7,2.4,4,8.1c-0.7,5.7-1,8.8,2,12.1c3,3.4-1,3.7,0.7,7.1s4.4,17.2,4.4,17.2L509.3,831.3z"/>
						</g>
					</g>
				</g>
			</g>
		</g>
	</g>
</g>
</svg>
