<?xml version="1.0" encoding="utf-8"?>
<!-- Generator: Adobe Illustrator 24.0.0, SVG Export Plug-In . SVG Version: 6.00 Build 0)  -->
<svg version="1.1" id="Layer_1" xmlns="http://www.w3.org/2000/svg" xmlns:xlink="http://www.w3.org/1999/xlink" x="0px" y="0px"
	 viewBox="0 0 1920 1080" style="enable-background:new 0 0 1920 1080;" xml:space="preserve">
<style type="text/css">
	.st0{clip-path:url(#SVGID_3_);}
	.st1{fill:#FFFFFF;}
	.st2{clip-path:url(#SVGID_5_);}
	.st3{fill:none;stroke:#FFFFFF;stroke-width:4.169032e-02;stroke-miterlimit:10;}
	.st4{fill:#ED1C24;}
	.st5{fill:#FFFFFF;stroke:#231F20;stroke-width:1.266;stroke-miterlimit:10;}
	.st6{fill:none;stroke:#FFFFFF;stroke-width:0.7332;stroke-miterlimit:10;}
	.st7{fill:none;stroke:#FFFFFF;stroke-width:0.1833;stroke-linecap:round;stroke-linejoin:round;stroke-miterlimit:10;}
</style>
<defs>
	<rect id="SVGID_2_" width="1920" height="1080"/>
</defs>
<clipPath id="SVGID_3_">
	<use xlink:href="#SVGID_2_"  style="overflow:visible;"/>
</clipPath>
<g class="st0">
	<g>
		<rect id="SVGID_1_" x="-14.7" y="-8.3" class="st1" width="1945" height="1096.6"/>
	</g>
	<g>
		<defs>
			<rect id="SVGID_4_" x="-14.7" y="-8.3" width="1945" height="1096.6"/>
		</defs>
		<clipPath id="SVGID_5_">
			<use xlink:href="#SVGID_4_"  style="overflow:visible;"/>
		</clipPath>
		<g class="st2">
			<rect x="-68.3" y="-440.5" width="2057.5" height="1082.1"/>
			<g>
				<g>
					<g>
						<g>
							<g>
								<path class="st1" d="M1373.4,518.7c1-7.3,0-17.1,0.5-22.8c0.5-5.7,13-16.6,18.2-21.3c5.2-4.7,14-15.6,19.2-13
									s8.3,6.7,8.3,6.7s14-5.7,18.7-4.7s14,10.4,17.1,15.6s0.5,24.4,5.7,28s11.9,14,15,19.2c3.1,5.2,7.3,11.9,3.6,19.7
									s-18.2,17.6-18.7,22.8s-1.6,16.1,2.6,19.2c4.1,3.1,0,11.4,0,11.4l-17.1,24.4l-44.1,16.1l-30.6-66.9c0,0-0.5-23.9-3.1-34
									C1366.2,529,1373.4,518.7,1373.4,518.7z"/>
								<path d="M1378.4,548.7c-3.7-5.5-3.4-6.6-3.7-10.8c-0.3-4.2,1.6-5,3.2-6c1.6-1.1,5.8-5.5,3.9-6.6c-1.8-1.1-1.6-2.6-2.9-5.8
									s-1.6-5-1.3-7.9s-2.1-6.8,0.5-8.2s0.3-2.6,5-6s9.5-3.7,15-7.9c5.5-4.2,12.9-9.7,14.5-11s6.8-1.3,7.4,0.5
									c0.5,1.8,1.6-4.7,1.6-5.8s7.6,0.5,7.6,0.5s5.8-2.6,8.4-1.3s9.5-0.8,9.5-0.8s4.5,0.3,7.1,4.2s2.6,21.8,2.6,21.8
									s-1.6,12.4,1.8,14.5c3.4,2.1,12.4,15.8,12.4,15.8s4.7,6.3,3.2,12.1c-1.6,5.8,0,7.1-4.2,11s-8.2,7.4-9.5,10
									s-3.7,10.8-3.7,10.8l1.6,18.1l-4.5,8.7c0,0-74.4-31-76.2-37.6C1375.8,554.4,1378.4,548.7,1378.4,548.7z"/>
							</g>
							<g>
								<g>
									<path d="M1469.1,985.1c-1.3-8.2-4.3-19.3-16.9-26.4c-9.7-5.5-13.4-8.5-15.4-10.7c11.2-1.6,20.5-3,20.5-3l0.1-11.4
										c0,0-23.7-3.2-33.9-3.8c-2.4-0.1-11.9-5.3-20.8-1.7c-1.9,0.8-10.4,4-15,7.8c-0.1,0-0.2,0-0.2,0c-5.8-0.4-24.4-10-30.7-12.8
										c-6.4-2.8-13.9-10-21.3-9.8s-72.9-2.3-80.8,5.2s-8.2,21.4,10.9,29.4s55.1,14,68.5,16.4c16.9,3,31.4,3.8,39.2,6.1
										c13.3,3.9,22.2,7.1,27.2,8.1c15,3.1,27,5.6,27,5.6s9.5,1.5,12.7,5.2s2.3,10.6,5.7,15.9c3.5,5.3,7.7,10.6,7.7,10.6
										c5.7,0.8,5.7,0.8,5.7,0.8S1470.4,993.3,1469.1,985.1z"/>
									<path class="st1" d="M1259.4,938c4.2-0.1,27.2,2.6,30,2.6s11.6-3.6,14.1-6.1s10.2-8.8,10.2-8.8s-9,13.9-11.7,15.3
										c-2.7,1.4-13.4,5.1-13.4,5.1s-0.4,4.2,5.5,3.7s14.6,0.1,17.5-1.3s14.3-2.2,14.3-2.2l-11.3,5.8c0,0,14,3.4,15.9,1.4
										s14.8-4.6,14.8-4.6l-6.9,6.9l13.8,2.3l41.6,18.4c0,0-33.8-7.2-39.6-8.1c-5.8-0.9-68-12.7-72.9-14.4
										c-4.9-1.6-27.6-13-29.4-14S1259.4,938,1259.4,938z"/>
									<path class="st1" d="M1461.8,1011.1c-2.5-0.3-6.8-2.4-7.4-7.4s-0.6-13.4-1.7-15.6c-1.1-2.2-4.5-10.6-7.3-7
										s-11.4,0.6-14,1.1c-2.5,0.6-20.7-5.6-25.4-5.9s-18.1-2-18.1-2s8.1,3,12.4,4.3s39.4,8.3,39.8,10.8s0.6,8.9,2.3,12
										c1.7,3.1,4,7.4,5,9.4c1.2,2.1,3.1,5.2,7.6,5.8c4.5,0.5,4.5,0.7,5.2-1.2C1461.2,1012.5,1461.8,1011.1,1461.8,1011.1z"/>
								</g>
								<path d="M1290.7,929.7c9.3-0.9,48-33.3,58.2-37.8c10.2-4.4,40.4-14.7,42.6-23.1c2.2-8.4-52.4-89.3-56-88s-17.8,8.4-20,12
									s-33.8,52-39.5,61.3c-5.8,9.3-29.3,43.1-30.2,50.6c-0.9,7.6-3.6,25.3,4.4,31.1C1258.3,941.7,1290.7,929.7,1290.7,929.7z"/>
								<path d="M1417,1231.7c0,0.8-7.7,15.4-8.1,18.9s-13.5,11.6-19.7,13.9s-28.9-0.8-32.8-0.4s-8.5-3.9-7.7-6.9s10.4-7.3,13.1-10
									s10.8-6.2,11.6-11.2s2.3-17.7,2.3-20.4s-2.7-4.6-1.9-7.7c0.8-3.1,3.1-10.4,3.5-12.3s0.4-12.3,0.4-13.9s5-5,5.8-10
									s-0.8-11.2-1.9-13.9s3.1-54,2.3-60.1c-0.8-6.2-5.4-47.8-7.3-53.2c-1.9-5.4-3.1-20-3.5-25.8s-3.9-23.9-3.9-23.9
									s5.4-111.8,4.2-118.3c-1.2-6.6-17.7-56.7-20.8-60.5c-3.1-3.9-14.3-19.7-16.2-24.7c-1.9-5-0.8-16.2-0.8-18.1
									c0-1.9,11.6,14.6,36.2,16.2c24.7,1.5,75.9-2.7,78.2-3.5s2.3-0.8,2.3-0.8s13.5,17.3,13.5,40.1s-16.2,68.2-19.7,76.7
									s-18.5,64-27,81.3c6.6,7.7,1.5,24.3,1.2,27.7s6.9,45.1,9.2,53.2c2.3,8.1-1.2,68.6-0.4,75.9c0.8,7.3,5.4,19.7,4.6,25
									c-0.8,5.4-2.7,15.4-2.7,15.4l-1.2,17.3c0,0,3.9,1.2,4.2,6.6c0.4,5.4-3.5,46.6-3.5,46.6h-11.2L1417,1231.7z"/>
								<path class="st1" d="M1375,1218.6c0.3-3,3.8-5.9,7-6.7s18.8-7,18.8-7s-16.7,5.6-18.5,3.5s-1.9-3-1.9-8.1s0.8-14.5,1.3-15.3
									s11.3-19.9,12.1-22s4.8-23.9,4.8-21.8s-10.8,23.1-11.3,26.6s-1.9-8.3-2.4-10.2c-0.5-1.9,0.8-11,0.8-11s2.7-40,2.7-41.9
									s4.6-13.2,4.8-15.9c0.3-2.7-3.8,2.7-5.1,5.4c-1.3,2.7-8.1-47.3-8.1-47.3s6.7-12.1,7-14.5s-4,3.5-5.4,6.2
									c-1.3,2.7-2.7-3.2-2.7-3.2s-2.7-6.7-2.7-12.4c0-5.6-0.5-11.6,2.2-9.4c2.7,2.2,8.1,5.9,7.3,5.6c-0.8-0.3-5.6-5.9-6.7-8.6
									s-5.6-12.9-6.2-16.9c-0.5-4-1.3-10.2-1.1-14c0.3-3.8,3.8-64.5,3.8-64.5c0.8-9.4,0.8-37.1,0-39.8s-9.7-22-9.1-20.7
									c0.5,1.3,6.4,20.1,7.1,21.7s0.2,23.1,0.2,29.1s-0.8,9.9-0.8,11.6s-5.1,75.3-3.5,83c1.6,7.8,3,29.6,3.2,32.3
									c0.3,2.7,3.5,15.3,4,19.1c0.5,3.8,7.3,46.2,7.3,46.2s-4.3,50.3-4.3,53.2c0,3,2.7,11.6,2.4,15.1s-5.9,12.1-6.2,15.3
									s-0.3,13.2-0.3,13.2s-1.6,7.8-2.4,10.8C1372.3,1208.1,1375,1218.6,1375,1218.6z"/>
								<path class="st1" d="M1250.6,931.4c-1.1-3.1-3.1-16.5-2.2-21.5c0.8-5,26.8-48.3,31-55.3s21.8-31,21.8-31s-2-6.1-2.2-5
									c-0.3,1.1-39.6,61.4-43.3,67.8c-3.6,6.4-11.2,12.3-11.2,26s0.6,19,2.5,21.5C1248.9,936.4,1250.6,931.4,1250.6,931.4z"/>
								<path d="M1308.9,824.4c-5.7-3-10.2-12.4-11.6-13.8c-1.3-1.3,34.2-76.4,34.7-88.4c0.4-12,4.4-35.5,0-42.6s-12-31.5-11.6-36.9
									c0.4-5.3,19.1-33.8,20.4-39.1s18.2-42.6,24.4-51.1c6.2-8.4,11.1-8.4,12.4-6.2s11.6,18.7,13.3,22.7c1.8,4,49.8,6.7,52.9,9.3
									c3.1,2.7,40.9,35.1,43.1,36.9c2.2,1.8-19.1,38.2-21.8,44.4c-2.7,6.2-25.8,47.5-25.8,58.6s1.3,36.9,6.2,42.6
									s17.3,35.5,19.1,38.7c1.8,3.1-4.4,9.8-10.2,13.3C1448.9,816.4,1390.2,867.1,1308.9,824.4z"/>
								<path d="M1342.4,620.5c-1-5.6,0.5-25.3-2.5-33.8c-3-8.6-20.7-64.1-23.7-74.7c-3-10.6-10.6-65.7-13.1-74.7
									c-2.5-9.1-2.3-66.4-2.5-69.2s4-2.9,4-2.9V355c0,0,3.8-3.8,5.1-3.5c0,0-0.2-12.2,0.5-14.5c0.7-2.4,14.2-10.9,15.1-12
									s4-2.4,3.8-3.1s-4-1.3-4.5-3.3s-2-1.8,2.5-5.3s12.9-8,14.9-8s9.1,1.1,10.5,3.3c1.5,2.2,3.5,6,3.6,7.8c0,0,0.9,9.1,0.9,10.7
									s-0.5,4.9-1.5,6.9c-0.9,2-7.8,6.7-10.4,8c-2.5,1.3-12.7,6.4-14,8.5s-1.3,3.5-1.3,3.5l2.4,3.1l-0.9,7.1l4.4,1.6
									c0,0,3.3,50.9,3.6,53c0.4,2.2,2.7,17.1,2.7,17.1s6.4,38.3,7.6,42.3c1.3,4,5.3,20.3,5.5,25.1c0.2,4.7,3.5,20.3,6.2,22.2
									c2.7,1.8,5.5,7.8,7.4,13.6c2,5.8,3.8,14.5,3.3,17.3c-0.5,2.7-7.6,41.2-11.8,51.1S1342.4,620.5,1342.4,620.5z"/>
								<path class="st1" d="M1348.5,610.7c0.3-1.2,8.6-20.2,7.4-30.7c0,0-5.2,13.8-7.4,16.6s-4-7.7-3.7-10.4s4.6-19.9,4-22.7
									s-2.5-8.9-2.5-8.9s1.5,8.3-0.9,12c-2.5,3.7-5.2,9.2-5.2,8.3s1.8-20.2,1.8-22.7s3.1-14.1,3.1-14.1s-7.4,10.4-7.7,14.1
									c-0.3,3.7-1.8,9.8-1.8,9.8l-7.7-22.7c0,0-6.7-22.3-6.1-21.5c0.1,0.1,2.3,4.1,4.1,4.1c1.8,0-0.4-8.4-2.7-11.1
									c-2.2-2.7-6.2-9.3-7.1-12s1.3-10.2,0.4-13.3c-0.9-3.1-10.7-52-10.7-57.3s0.4-56.9,0.4-56.9s-4.6-1-5.8-3.3
									c-0.4,19.7-1.8,59.7-0.9,63.7s11.1,45.3,11.1,51.5s-2.7,23.5,1.8,28c2.2,11.1,21.3,64,22.7,69.3s7.6,25.8,7.1,30.2
									c-0.4,4.4-4.3,12.4,0.1,9.7S1348.5,610.7,1348.5,610.7z"/>
								<g>
									<path d="M1489.5,617.6c0.5,10.6,10.6,106.2,9.2,119.6s-10.1,35.9-12.4,37.3s-23.9-27.1-24.8-31.7s-4.1-31.7-5.1-40.9
										c-0.9-9.2-7.4-31.3-7.4-31.3s5.5-39.6,10.1-46s14.7-15.6,19.8-14.7C1484,610.7,1489.5,617.6,1489.5,617.6z"/>
									<path d="M1484.4,756c-0.9-7.4-20.7-24.4-20.7-24.4s-67.1-30.8-70.4-33.6c-3.2-2.8-9.2-3.2-9.2-3.2s-6.4-15.6-6.9-20.2
										c-0.5-4.6-6-14.7-6-14.7s-18.9,0.5-20.7,1.4s-6,11.5-7.4,15.6s0,9.2,0.9,11s6,6.9,9.7,6.9s8.7,6,9.2,9.2s11.5,9.2,11.5,9.2
										l4.6,4.1l-1.4,12.9c0,0,76.8,37.3,84.6,37.3c7.8,0,23.9,6.9,23.9,6.9L1484.4,756z"/>
									<path class="st1" d="M1376.7,715.1l-5.1-3.7c0,0-8-4.2-8.7-7.4c-0.6-2.7-4.3-11.9-6.6-14.9c-0.4-0.5-0.7-0.9-1.1-1.3
										c-3-3-5.6-4.6-5.7-2.8c-0.1,1.6,0.3,3.4,1.9,4.5c1.7,1,4.1,0.1,4.5,1.7c0.4,1.6-0.7,2.3-4.2,2.4c-3.4,0-6.5-3.9-7.5-5.4
										s-1.8-6.7-1.4-7.6c0.4-0.9,1.1-2.5,5-2.4c3.9,0.2,6.9-1.8,7.9-1s3.4,2.9,7.3,8.4c3.9,5.4,7.6,9.9,11.3,13.1
										c3.7,3.2,5.9,7,5.7,8.4C1379.9,708.5,1376.7,715.1,1376.7,715.1z"/>
									<path class="st1" d="M1343.8,675.1c2-0.4,11-0.4,14.1-0.9c3.2-0.5,5-0.8,2.6-1.8s-15.2-0.4-16.3-0.1
										C1343.2,672.6,1343.8,675.1,1343.8,675.1z"/>
									<path class="st1" d="M1364.4,668.3c-6.5-1.3-15.9-1.3-15.9-1.3C1350.4,668,1366.4,668.8,1364.4,668.3"/>
									<path class="st1" d="M1378,716.4c0,0,7.8-16.2,6.1-21.6c4.1,0.9,5.9,1.9,6,2.3s-2,13.6-4.9,16.2s-6.2,4.1-6.2,4.1
										L1378,716.4z"/>
								</g>
								<path class="st1" d="M1392,552.7c0,0-0.6,6.7-1.9,14.7c-0.1,0.8,5,22.4,4.4,21.8c-2.9-2.8-7-10.7-7.8-9.4
									c-2.4,3.9-4.9,10.6-4.1,16.1c0.1,0.4,10.1-8.3,12.3-6.3c10.7,4.5,13.5,22.5,14.4,22c6-3.4,10.2-5.9,11-6.8
									c1.5-1.5,5.6-9,6.8-16.2c-15.9,4.2-33.3,0.9-31.9,0.9c6.4-0.3,32.8-6.7,34-10.3c2.7-8.6,5.9-15,7.4-18.5
									c3.2-7.9-0.5-16-11.4-17.9C1414.2,541.1,1397.3,534.8,1392,552.7z"/>
								<path d="M1432.8,560.3c-0.3,1.8-7.5,12.3-8.9,13.5s-20.1,11.5-28.1,14.3c-0.3-21.8-2.1-28.6-3-33.9
									c-0.9-5.3,10.9-10,16.2-9.4C1414.2,545.3,1432.8,560.3,1432.8,560.3z"/>
								<g>
									<path d="M1405.1,569.6c3.9,0.5,7.1,2,16.7-3.2s14.4-8.2,16.3-13.1c2-4.9,4-14.6,3.7-15.6s1.1-9.9,1.4-12.5
										s-4.2-19.1-5.9-21.3c-1.7-2.1-8.9-10.4-10.4-12.9s-8.4-4.2-10.3-5s-7.5-1.2-9.8-0.1s-9.1,4.3-12.4,11.5s-7.4,20-7.8,22.3
										s-0.5,11.4-0.8,14.1c-0.3,2.8,0.4,12.1,1.9,14.6s7.3,11.4,8.4,13.5C1397,564,1402.1,569.2,1405.1,569.6z"/>
									<path class="st1" d="M1395.6,537.8c4.5-0.6,8.4-5.6,10.8-5.2c0.8,0.1,1.8,1.2,2,0.9c0.4-0.5-1-2.7-1.9-2.9
										c-1.4-0.2-1.8-1.4-2.1-2.2c-0.3-0.8,4.3-3.5,5.9-5c-5.6,2-7.1,0.8-7.9,0.7s3.7-0.5,5.2-2c-6.1-0.1-10.6-0.4-11.7-1.3
										c-1.1-0.9-2.4-3.6-2.6-4s1.7-2.5,3.3-3.2s7.9,0.2,8.6,0.5c0.6,0.3,4.3,2.9,4.9,5.3c-0.5-4-0.8-5.1-2.4-5.5s-6-1.4-7.1-2
										c-1.1-0.6-3.3-1.7-4.2-1.7c-0.7,0-4.3,1-5.5,2c-1.1,1,0.8-2.3,3.5-2.9s6.9-1.7,7.7-0.7c0.9,1,4.9-13.8,6.3-16.7
										s4.5-6.5,4.8-6.7c0.3-0.1-3.5-1.2-5.7-0.2s-11.4,6.3-13.3,11.3c-0.6,1.4-6.3,18.1-7,20.3s-1.1,8.8-1.4,12.5s0,13.5,0.8,16
										c0.8,2.3,3.8,8,4.7,9.2c0.8,1.1,3.6,6.6,4.5,8c1,1.4,4.5,5.6,7.5,6.3c0,0-3.9-4.3-4.6-6.7s-2.9-9.8-3.3-12
										c-0.4-2.3-0.1-8.6-0.1-9.1s-1.4-0.6-2.1-0.6C1392.5,540.1,1391.1,538.4,1395.6,537.8z"/>
									<path class="st1" d="M1412.2,538.1c-0.3,0.9,0.6,1.1,1.4,1.2s2.5-1.5,2.9-1.8c0.4-0.2,0.5-2.9,0.3-3.7s0.8-8.9,1-10.5
										c0.1-1.6,0-4.6-0.3-3.6c-0.2,1-2.7,9.9-3,11.2C1414.1,532.1,1412.4,537.4,1412.2,538.1z"/>
									<path class="st1" d="M1417.4,538.9c0.7,0.3,2.6,0.5,3.1-0.2c0.5-0.8-0.2-2.7-1-2.7s-3.3,1.1-3.3,1.1s-1.6,2.2-4,1.8
										C1413.9,540.2,1417.4,538.9,1417.4,538.9z"/>
									<path class="st1" d="M1400.8,545.4c0,0,0.5,2.7,2.6,4s5.9,3.3,7.8,3.5s8.1-1.2,11-3.6c-5.3,0-10.5-0.6-13.5-1.2
										C1405.7,547.6,1400.8,545.4,1400.8,545.4z"/>
									<path class="st1" d="M1407.5,566.8c0.5-2.1,2.8-3.4,4-3.5c1.3-0.1,3.5-0.8,4.6-1.1c1.2-0.3,4.4-3,4.1-3s-6.8,0.5-7.2-0.2
										c-0.4-0.8,1.1-1.3,2.2-1.6s5.1-2.5,6.1-3.8s3.6-3.7,3.6-3.7s1.3-1.8,0.1-1.4s-7.7-0.7-8.6-0.8c-0.8-0.1-3.3-1.3-3.3-1.3
										l0.8-3.3c0,0,1.2-0.8,2.8-1.3s3-0.6,3.5-1.4c0.6-0.8,1.7-2.4,1.7-2.4s2.4,1.1,3,4.9c0.2,1.3,2.3,3.9,2.3,3.9l-1,2.5
										c0,0,1.7-1.2,1.6-0.2s-0.6,3.3-0.6,3.3s1.4-2.4,1.7-3s0.5-3-0.2-3.5c-2.1-1.7-3.2-6.3-3.6-7c-0.7-1.1-2.2-2.5-3-3.1
										s-1.5-1.4-2-1.4s-2.2-0.2-2.3,0.1c-0.1,0.3,1.2-3.2,1.4-4.1s0.7-4.4,0.7-4.4l1.2-2.6c0,0,3.8,3.5,5.5,4.2s9.6,0.5,10.7-0.2
										s4.6,0,4.6,3.3c0.1,3.2-0.2,5.7-0.6,7.4c-0.6,2.3-2.2,3.8-4.5,5.3c-0.9,0.6-3.5,2-3.6,3c-0.2,1-0.3,3.6,0,3.1
										c0.2-0.5,2.2-2.6,2.7-3.1c1.7-1.8,4-4.7,3.9-3.3c-0.1,1.3-0.7,1.7-1.4,5.4c-0.7,3.7-2.2,6.4-2.9,7.9
										c-0.7,1.5-7.8,6.6-10.7,8.3c-2.9,1.7-8.5,4.8-10.8,5c-2.3,0.1-4.9,1.2-6-0.3C1407,568,1407.5,566.8,1407.5,566.8z"/>
									<path class="st1" d="M1438.9,524.5c-0.3-0.2-2.7-5.3-7.9-5s-8.7,2.2-9.5,2.9s0.8-4.9,1.4-4.7c0.6,0.3,9.7,0.8,10.7,0.7
										c0.9,0,5.7,0.2,5.7,0.2s2.8,2.3,3.4,3.8s0.5,5.9,0.5,6.2s-2.1-3.8-3.3-4C1438.6,524.5,1438.9,524.5,1438.9,524.5z"/>
									<path class="st3" d="M1424.6,550.3c0,0,0.4-0.1-3.2,3.3c-3.3,3.1-9.5,4.7-12.8,4.1c-7.3-1.3-10.8-12.1-10.8-12.1"/>
									<g>
										<g>
											<g>
												<g>
													<path d="M1444.1,523.5c0.1-0.5,0-1.1,0-1.3c-0.1-0.8-0.8-1.1-3.8-1.9c-1.8-0.5-4.2-1.1-6.6-1.6h-0.2
														c-5-1.2-9.5-1.3-11.3-1.1c-1.6,0.2-3.9,1-4.3,1.7c0,0.1-0.1,0.1-0.1,0.2c-0.9,0.1-1.9,0-3-0.4c-0.2,0-0.5-0.2-0.8-0.3
														c0-0.1,0-0.2,0-0.3c-0.1-0.8-1.8-2.4-3.3-3.2c-1.6-0.9-5.8-2.6-10.8-3.4h-0.2c-2.4-0.4-4.8-0.8-6.7-1.1
														c-3.1-0.4-3.8-0.5-4.2,0.2c-0.1,0.2-0.4,0.7-0.5,1.2c-0.1,0.4-0.5,1.6,0.5,2.1c0.1,0,0.1,0.1,0.2,0.1
														c0.5,0.3,0.6,0.4,0.6,0.5c0,0.2,0,0.6,0,1c0,2.7,0.1,5.4,0.5,6.5c0.1,0.3,0.2,0.5,0.3,0.8c0.3,1.1,0.7,2.4,2.6,3.6
														c1.5,0.9,3.7,1.9,6.1,2.4c1,0.2,2,0.3,2.9,0.3c3.3,0,6.3-1.4,7.7-3.6c0.4-0.7,1-1.6,1.6-2.7c0.5-0.9,1.2-2.1,1.7-3
														c0.4,0.2,0.8,0.4,1.2,0.5c0.4,0.1,0.8,0.2,1.2,0.3c1,0.2,1.9,0.2,2.7,0.1c0.2,1,0.3,2.4,0.5,3.5
														c0.1,1.2,0.3,2.3,0.4,3.1c0.4,2.5,2.6,4.9,5.6,6.3c0.9,0.4,1.8,0.7,2.8,0.9c2.4,0.5,4.9,0.5,6.6,0.2
														c2.2-0.4,3.1-1.4,3.8-2.3c0.2-0.2,0.4-0.4,0.6-0.6c0.9-0.9,2-3.4,3-5.8c0.2-0.4,0.3-0.8,0.4-0.9
														c0.1-0.2,0.2-0.2,0.8-0.3c0.1,0,0.2,0,0.2,0C1443.9,525.2,1444,523.9,1444.1,523.5z"/>
												</g>
											</g>
										</g>
									</g>
								</g>
								<path class="st4" d="M1390.6,594.1c2-1.4,5.1-2.3,6.7,0.2s0.9,5.9,0.3,7.1c-0.6,1.2-4.4,3.4-5.9,3.6
									c-1.5,0.2-3.6-0.7-4.6-1.3c-0.6-0.4-2.3-3.5-1.2-6.1C1386.6,596.3,1388.9,595.3,1390.6,594.1z"/>
								<path class="st4" d="M1351.8,641.8l33.6-18.5l5.2-16.2c0,0-6.2-0.3-6.4-2.2c-7.8,5.3-17.2,12.8-17.2,12.8L1351.8,641.8z"/>
								<path class="st1" d="M1320.7,649.7c-0.8-2.7-1.3-8.4-0.6-9.9c0.6-1.6,21-37.1,21.2-38s18.2-26.4,20-34.1
									c0,0-7.3,22.7-7.6,24.6c-0.3,1.9-17.8,45.6-19.6,47.8s-10.3,3.8-10.6,4.7c-0.3,0.9,10.4,34.7,10.9,36.9s1.9,30.2,1.3,35.2
									c-0.6,5.1-13.9,53.4-18.2,68.5s-10.1,26.5-8.4,28.1s19.9,13.4,27.8,15.6c-23.7-6.5-34.4-12.3-36.8-13.9
									c-2.4-1.6-5.1-6.5-5.1-6.5s35.5-88.9,36.1-93.3s1.1-33.2,1.1-33.2L1320.7,649.7z"/>
								<path class="st1" d="M1367.7,616c0.1-0.3,13.2-23.5,13.2-23.5s-0.9,7.8,0.5,7.4c0.3-0.1,3.2-1.7,3.2-1.7s-1,4.4-0.7,5.2
									C1372.4,611.2,1367.7,616,1367.7,616z"/>
								<path class="st1" d="M1387.7,622.2c0,0,4.2-12.5,5.2-15.3c7-1.9,7.2-4.7,7.2-4.7s6.6,9.9,6.5,10.2
									C1406.7,612.6,1387.7,622.2,1387.7,622.2z"/>
							</g>
						</g>
					</g>
					<path class="st1" d="M1304.6,355.1c0,0,6.5,1.5,6.5,5.3c1.3-3.1,2.9-3.6,6.6-3.4s13.1,0.5,13.1,0.5l-1,6.8c0,0-9.9,3.6-16,3.6
						c-6.2,0-9.3-2.8-9.3-2.8L1304.6,355.1z"/>
					<path class="st1" d="M1317.6,346.4c-0.4-3,2.2-8.9,4.1-10.2c1.9-1.3,11-8.6,12.7-12.3s3.7-4.3,5.4-3.7c1.7,0.6,2.6,2.4,2.6,2.4
						s-2.2-1.7-3.7-0.9c-1.5,0.9-3.7,5-4.8,6.5c-1.1,1.5-9.7,8.6-10.8,11.5s0,6.5,4.3,4.5c4.3-1.9,0.9,3.5-0.9,5.2
						S1318.7,355.5,1317.6,346.4z"/>
					<path class="st1" d="M1313.7,345.5c-0.4-1.9-2.2-6-1.9-7.6s16-14.7,15.3-14.3c-0.6,0.4-14.7,10.4-16.4,11.7
						c-1.7,1.3-1.9,7.6-1.7,10.2c0.2,2.6,1.5,7.1,2.6,4.8C1312.7,347.9,1313.7,345.5,1313.7,345.5z"/>
					<path class="st1" d="M1332.1,320.7c-0.6-1.5,15.8-10.2,17.1-10.2s-5.4-0.2-7.8,1.7c-2.4,1.9-11.5,5.6-11.9,7.3
						c-0.4,1.7,2.4,3.5,2.4,3.5L1332.1,320.7z"/>
					<path class="st1" d="M1326.9,320.7c0,0-0.9-3,1.1-4.1c1.9-1.1,16.2-9.1,16.2-9.1s-18.1,8-18.8,9.1
						C1324.8,317.7,1324.5,320.5,1326.9,320.7z"/>
				</g>
				<path class="st1" d="M394.9,764.9c3.8,0,8.7-2.3,9.9-5.9c1.3-3.6,3.3-10.4,2.8-12.5c-0.5-2-2-3.6-2.5-6.6
					c-0.5-3.1,0-7.1,0.8-10.7c0.8-3.6,2.8-7.4,2-8.7s0.5-4.1,0.5-5.4c0-1.3-0.3-10.2-1.5-13.8c-1.3-3.6,2-13,3.6-17.8
					c1.5-4.8,3.1-19.6,2.8-25c-0.3-5.4-0.8-24.5-0.8-32.1s1-24,0.3-28s-1.5-4.6,0-8.2c1.5-3.6,2.3-8.4,2.3-8.4s2.3-2,2.3-5.4
					c0-3.3-0.5-7.6-0.3-9.4c0.3-1.8,2.5-7.1,3.1-8.7c0.5-1.5,3.1,1,2.3,3.3s-3.1,3.3-1.8,7.9c1.3,4.6,5.1,16.1,5.1,16.1l-1.5,27
					c0,0,1.5,1.8,1.5,4.3s-1.5,21.4-1,24.7s1.3,27.5,1.3,27.5l6.4,14.5c0,0,2.3,5.1,2,6.9s-2,7.9-2,7.9s-0.3,5.9-0.3,10.4
					c0,4.6,0.5,8.2,0.5,11.5s1.8,6.9,2.3,9.4s0.5,5.9-0.5,9.9s-2.5,4.6-1.5,8.7c1,4.1,1.8,8.4,3.6,10.7c1.8,2.3,6.4,3.8,7.6,3.3
					c1.3-0.5,5.9-1,7.1-5.4c1.3-4.3,3.8-14,3.1-17.1c-0.8-3.1-3.1-16.8-3.3-17.6c-0.3-0.8,7.4-0.8,7.4-0.8s1.5-16.1,1.3-21.2
					c-0.3-5.1,3.8-23.4,2.8-27.8c-1-4.3-4.1-11.5-4.3-16.3s2-15.8,1.8-22.4c-0.3-6.6-1.5-12.5-1.8-19.6s7.4-64.5,7.4-64.5
					s-1.3-3.8-1.3-6.1s7.4-4.3,7.4-5.6s1.5-36.4,0.3-42.1c-1.3-5.6-5.1-38-5.1-38l-2.3-33.1l8.4-26.5c0,0,11.5-19.4,12-22.2
					c0.5-2.8-0.3-16.6-0.3-16.6s14.5-31.9,15-35.2c0.5-3.3,3.1-14.3,3.1-17.1c0-2.8,1.6-6.4,3.1-9.7c1.3-2.9,4.6-8,4.8-9.8
					c0.1-1.9,1.2-4.8-0.7-6c-1.9-1.2-6-4.4-8-5.1s-2.9-2.4-4.1-1.7c-1.2,0.7-1.5,2-2.8,2.1s-1.9,0.3-1.9,1.1c0,0.8-2.5,3.1-2.5,5.2
					s-0.1,4.8,0,6.1s-0.4,2.1,0.5,3.5c0.9,1.3,0.8,3.2,0.8,3.2l-6.7,14.3c0,0-3.1,0.1-3.7,0.9c-0.7,0.8-3.9,10.3-3.9,10.3
					l-12.4,24.7c0,0-5.1,10.4-5.3,13.2c-0.3,2.8,0,4.3-1.1,3.9s-2.8-3.6-4.8-2.4s-3.5,3.6-5.1,7.3s-2.9,6.4-4.7,6.8
					c-1.7,0.4-3.2,1.9-2.7-1.6s2.5-11.9,2.5-11.9s0.7,0.8,1.7,0.8c1.1,0,2.1-4,2.5-6s-0.9-4.5-0.9-4.5s1.1-8.2,1.5-11.1
					c0.4-3.1-4.7-16.5-16.8-16.7s-20.7,8.5-21.3,12.7c-0.7,4.1-0.8,12.4-0.8,12.4s-2.1,0.3-2.1,2.9s1.2,8.9,3.3,8.9
					c0.4,7.5,0.7,13.2,0.3,13.1c-0.4-0.1-2.5,0.5-3.1,3.2c-2.3-5.3-8-14.1-9.7-15.9c-1.7-1.7-5.2-4-7.1-2.7s-6,4.4-6,4.4
					c-2.3-0.4-3.6-5.9-5.5-8.9c-1.9-3.1-4.4-16.3-6.4-26s-3.2-27.2-3.2-28.1s-1.1-1.2-1.3-1.7c-0.3-0.5,0.1-4.7-0.1-5.5
					c0,0-0.8-7.2-0.3-9.7s5.9-5.6,6.9-8.4c1.1-2.8,2.1-8.9,2-9.7c-0.1-0.8-1.6-2.1-2-2.1s0.4-2.7-0.5-2.4
					c-0.9,0.3-12.4-2.1-14.3-0.7c-1.9,1.5-2,5.2-3.1,6.7s-2.1,10.5-2.1,10.5l-1.6,15.3c0,0-1.6,0.3-1.9,1.2
					c-0.3,0.9-1.1,3.7-1.1,3.7s-3.7,0.8-4.4,1.7c-0.7,0.9-0.5,4.7-0.3,7.3s1.9,12.9,2,18.7c0.1,5.7-1.3,17.5-0.1,19.5
					c1.2,2,6.3,11.7,8.1,15.9c1.9,4.1,7.7,11.6,9.6,15.2s9.3,30.5,9.1,35.7c-0.3,5.2,2.4,56.8,1.7,63.9c-0.7,7.1-3.7,25.2-4.5,32.4
					c-0.8,7.2-3.1,17.3-2,20.9c1.1,3.6,5.9,10.7,5.9,10.7s1.1,32.7,1.5,40.5c0.4,7.9,2.7,12.5,2.9,18.8c0.3,6.3-0.7,42.1-0.7,42.1
					s0,15.6,0.1,22s-2.4,14.3-2.8,17.9c-0.4,3.6,0,16.1,0,16.1s6,14.5,6.8,16.8s1.5,8.7,2,10.8s-0.7,9.6-0.7,13.1s-2,10.5-0.5,14.5
					s3.2,8.5,4.9,10.9C391.7,765.6,394.9,764.9,394.9,764.9z"/>
				<g>
					<path class="st5" d="M764.1,209.1c18.3-60.7,86-103.9,80.3-175c0,0,64.8-5,93,17.7s65-0.2,65,4.8S912.8,158,904.8,176.1
						S870.9,231,870.9,231S803,195.7,764.1,209.1z"/>
					<path class="st5" d="M756,213.1c35.8-52.4,113.4-73,129.4-142.5c0,0,62.1,15,91.7,36c30.5,21.6,53.6,28.5,52.1,33.3
						s-116,69.6-129.2,84.4c-13.2,14.8-48.8,42-48.8,42S797.2,212.1,756,213.1z"/>
					<path class="st5" d="M769.7,218.5c42.1-47.4,121.7-58.1,146.4-125c0,0,44.4,20.8,75.1,40c27.1,16.9,60.9,42.4,58.8,46.9
						s-114.8,53.8-138.8,67.4c-17.3,9.8-53.7,35.5-53.7,35.5S810.7,222.6,769.7,218.5z"/>
					<g>
						<g>
							<g>
								<path d="M818,690.4c-10.4,8.5-5.3-48.5-9.4-57.9c-4.1-9.4-53-79.3-59-89.1s-22.9-49.6-24.4-54.5s-3.8-10.2-3.8-10.2
									s-10.5-8.6-11.7-14.7c-1.1-6,0.4-41.7-0.4-50.8s-8.3-42.5-12.4-60.2s0.4-41,0-45.9s7.5-10.2,7.5-10.2s0.8-9.4,0.4-12
									c-0.4-2.6,10.6-8.8,10.6-8.8c1.4-22.6-1.1-46.9-2.5-54.1c-1.1-5.9,3.6-29.7,4-31.6c0.4-1.9,4.5-5,9.2-4.7
									c4.9,0.4,7.6-3.8,9.9-6c2.3-2.3,9-0.4,10.9-1.5s5.6-4.1,10.5-4.9c4.9-0.8,9,1.5,12.8,3.4c11.3,0,19.2-0.4,19.5,3
									c0.4,3.4,0.8,20.3-2.3,21.1c8.6-0.4,18.4,5.3,18.4,5.3s2.3,8.3,1.9,13.5c-0.4,5.3-7.9,15.4-9.8,17.3
									c-1.9,1.9-14.7,4.9-19.2,9.8c-4.5,4.9-17.3,8.3-19.5,7.9c1.1,15.4,1.1,21.1,1.1,21.1s8.6-2.3,9.8,3.4
									c1.1,5.6-1.5,21.4-1.5,21.4s3.4-0.8,3.8,3.4c0.4,4.1,1.9,54.9,4.9,66.9s5.3,46.2,10.9,53.8s11.7,30.5,20.7,36.8
									s17.7,23.3,22.2,33.1c4.5,9.8,16.2,24.1,24.8,24.1s23.7-9.4,29.3-10.9s15.4-9,17.7,3.8C905.3,524.2,832.7,678.4,818,690.4z"
									/>
								<path class="st1" d="M712.4,326.9c9.6,3,29.2,2.2,34.1-1.1c4.8-3.3,21.1-22.7,22.4-25.2c1.3-2.6,0.9-7,0.9-15.5
									c-5.2,5.9-29.6,2.2-34.1,3.7c-4.4,1.5-12.6,0.7-14.4,3c-1.9,2.2-7,8.1-7,8.1s-6.3-10.4-4.8-16.7c-3,19.6-2.6,34.8-2.2,37.8
									C707.6,323.9,712.4,326.9,712.4,326.9z"/>
								<path class="st1" d="M713.5,292.8c0,0,2.2-38.1,2.2-40.7c0-2.6-2.2-16.7-3.7-23.7s1.7-21.6,2-25.7c0.4-4.1,2.2-10,2.2-11.5
									s4.6-6.5,6.9-3.1c2.2,3.3,5.9,9.6,7.4,11.5s4.4,2.6,5.2,4.8c0.7,2.2,0.7,8.5,0.7,10.7s2.2,6.3,3.7,7.4
									c-7-1.1-7.8-5.6-9.3-15.9c-4.1,1.5-6.1-3.4-6.9-5.7c-0.7-2.2-2.4-6.6-2.4-5.5s3.7,11.1,3,14.4c-0.7,3.3-2.2,5.9-2.2,5.9
									s4,2.5,5.1,4.4s1.5,6,1.1,10c-0.4,4.1-1.9,11.5,0.4,12.2c2.2,0.7,4.8,0.7,4.4,5.2c-0.4,4.4-2.6,8.5-5.2,8.9
									c-2.6,0.4-3,27.4-3,27.4l-6.3-1.1L713.5,292.8z"/>
								<path class="st1" d="M720.4,190.7c0,0,0.9-5.2,12.1-4.5c-6.5-1.9-16.3-0.1-16.1,4.8S720.4,190.7,720.4,190.7z"/>
								<path class="st1" d="M755.9,196.6c-2.9,1-5,1.8-8.9-1.8s-12.1-9.6-12.8-11s3.2-5.3,8.2-3.9c-3.9,3.6-5.3,5.3,0,7.8
									C747.7,190.2,757,196.3,755.9,196.6z"/>
								<path class="st1" d="M748.4,181.7c1-0.5,13.2,3.2,15,3.9s6.4,3.9,6.4,1.8c0-2.1,2.1-6.1-4.3-6.8c-6.4-0.7-18.5-2.2-18.5-2.2
									C744.5,179.5,747.7,182,748.4,181.7z"/>
								<path class="st1" d="M781.6,186.3c-1.4-1.8-5.3-5-6.4-6.1c-1.1-1.1,7.1-0.4,8.9,1.8C785.8,184.1,781.6,186.3,781.6,186.3z"
									/>
								<path class="st1" d="M826.9,691.2c-4.9-2.2-10.3-26.3-11.6-32.6c-1.3-6.2,7.6-29.5,12.5-34.4c-12.5,9.8-12.5,9.8-12.5,9.8
									s1.8-5.8,10.3-19.2s10.7-23.7,10.3-22.3s-23.7,27.2-23.7,27.2s11.2-26.3,12.1-29.5s5.8-19.6,1.8-16.1
									c-4,3.6-5.8-6.7-6.7-9.4s-1.8,15.2-3.1,23.7s-3.6,18.3-4.5,15.6s-0.4-21-0.4-26.8s-3.6,2.2-4,10.3c-0.4,8-4.9,6.7-4.9,6.7
									s-0.4-38.8-1.8-34.8c-1.3,4-9.4,21-9.4,21s-3.1-8.5-1.8-12.9s5.4-25.4,4.9-23.7c-0.4,1.8-8.5,13.4-10.3,18.3
									c-1.8,4.9-8.9,6.2-8.9,2.2s0-30.8-1.8-23.2s-6.7,13.4-6.7,13.4s-17.4-28.1-22.3-34.4c-4.9-6.2-14.7-23.2-14.7-25
									s4.5,2.7,6.7,5.4c2.2,2.7,7.1,3.6,7.1,3.6s-9.8-20.1-14.7-22.3c-4.9-2.2-11.2-8.9-13.4-13.4S715,451,715,451
									s4.5-26.8,2.2-36.2c-2.2-9.4-3.6-32.1-7.6-45.5s-4-24.1-5-32.4c-1.2-9.7,1-17.4-2.8-19.5c-4.4-2.4-4.4-13.7-4.4-13.7
									s-7.4,37,2.9,71.8c4,13.4,11.6,44.6,9.4,70.1s2.7,26.3,8.5,31.7c5.8,5.4,5.8,5.4,5.8,5.4s-1.8,7.1,7.1,25
									c8.9,17.9,32.1,65.2,37.9,72.3s33.5,31.2,35.7,42.4s3.6,39.7,5.8,52.2C812.7,687.2,826.9,691.2,826.9,691.2z"/>
							</g>
							<path d="M936.1,1621.2c7.1-0.4,41.7-0.8,53.4,0.8s40.6-7.5,40.6-8.6s-11.3-47.4-18-53c-6.8-5.6-25.9-24.8-27.4-26.7
								s-39.5-112.8-43.6-123.3s-14.3-22.2-16.9-27.4c-2.6-5.3-0.4-17.7-2.3-22.6c-1.9-4.9-9.4-12-12.4-16.5s-1.9-10.5-1.9-15
								s-1.9-10.2-4.5-16.5c-2.6-6.4-7.9-36.8-8.6-44c-0.8-7.1,3.4-19.5-1.9-27.1c3-6.8-0.4-11.3-2.3-17.7c-1.9-6.4,1.5-103,1.5-103
								l-9-25.2c0,0-35-111.7-68.4-134.6s-51.9-65.4-63.9-44.7s-15,113.9-11.3,134.6c3.8,20.7,23.3,136.5,24.1,156
								s12.8,54.5,24.8,93.6s9,45.9,15.8,53.8s18.8,22.9,19.9,25.2c1.1,2.3,32.5,85,41.9,98.1c9.4,13.2,39.3,61.8,40.4,68.9
								c1.1,7.1-0.5,21.1,4.8,24.9s10.2,7.3,13.2,20.5s3.4,25.9,4.1,28.9S936.1,1621.2,936.1,1621.2z"/>
							<path d="M1023.3,1650.9c9.4,1.5,29.7,4.1,38,3.4c8.3-0.8,24.1-6.4,24.1-12.8s10.5-46.6,7.1-60.9s-7.1-44.7-9-59.4
								s-4.9-152.3-7.5-172.9c-2.6-20.7-6.8-33.1-8.3-43.6s2.3-15-5.6-20.3s-9-3-9-7.5s-1.9-14.7-3.4-13.9s-0.4-10.2-0.4-15.8
								c0-5.6-1.5-3.8-5.3-9.8s-2.6-46.2-4.1-72.2c-1.5-25.9-9.4-88.3-9.8-96.6c-0.4-8.3,2.3-33.5,2.6-47.4
								c0.4-13.9,2.6-25.6-1.5-39.5s-11.7-38.3-11.7-38.3s-142.5,9.8-208.3-10.9s-46.6-15.8-45.5,0.4s38.3,128.2,59.4,130.8
								c21.1,2.6,66.2,58.3,66.5,56.8c0.4-1.5,13.5,26.7,13.5,26.7c7.9,21.1,21.4,62.4,26.3,76.3c4.9,13.9,15.4,27.4,14.7,45.1
								c-0.8,17.7-3,27.4,2.6,35c5.6,7.5,12,13.2,12,13.2s-3.8,19.2,13.2,44.4c-1.5,30.5,4.1,57.5,11.3,77.8
								c7.1,20.3,13.5,76.3,15.4,85c1.9,8.6-3.4,18.4-1.9,30.8s1.1,42.1,5.6,51.9s13.5,42.5,13.9,44.7
								C1018.8,1653.6,1023.3,1650.9,1023.3,1650.9z"/>
							<path d="M1033.1,1065.6c1.7,6.9-0.4-63.5-2.3-80.5c-1.9-16.9-7.1-92.5-0.4-104.5c6.8-12,32.7-40.2,38-45.5
								s28.6-35.3,36.5-51.1s46.2-88.3,48.9-97s-0.4-18.8-11.7-20.7c-11.3-1.9-16.2-7.5-18-7.5s-66.2-66.5-66.2-66.5
								S930,551.7,927,551s-18.7-31.7-21.9-40.9c-3.1-9-17.1-5.8-25,1c-7.9,6.8-20,7.9-20.8,16.5s-3.8,27.8-5.3,38.3
								s-16.9,36.1-18.8,46.2s-15.8,56-30.1,85c-14.3,28.9-86,199.2-87.2,258.7c-0.8,38,4.1,51.9,4.1,51.9
								c10.5-0.4,120.3,9.8,131.2-15s15.4-47,15.4-45.9s20.3,55.3,62.4,57.9S1030.1,1053.2,1033.1,1065.6z"/>
							<path d="M1069.9,909.6c-1.1-7.5,1.5-17.3,0.4-20.3s-3.8-6.4-4.5-12.4c-0.8-6,3-14.7,1.9-24.1c-1.1-9.4,1.1-16.2-0.8-23.7
								s16.2-68.4,20.3-82.7c4.1-14.3,36.8-65.4,43.2-70.3s24.8,0,26.3,8.3s5.3,28.9-3,39.9c4.5,14.7,5.3,44.4,3.8,49.6
								c-1.5,5.3-7.5,12.8-7.5,12.8s6.4,3,1.1,16.2c2.6,4.1,4.1,1.5,3.8,8.6c-0.4,7.1,0,36.1-3.8,42.1s-4.5,18.4-3.4,21.8
								s0.8,24.4-0.4,32s-3.4,11.7-10.2,17.7c-6.8,6-29.7,5.6-42.9,5.6C1081.2,930.6,1069.9,909.6,1069.9,909.6z"/>
							<path d="M1031.3,981.9c0,0,8.3,19.9,21.1,18.4s72.6-49.2,77.4-55.6s12.4-12.8,13.2-21.8c0.8-9,4.5-22.9-5.6-26.7
								c-10.2-3.8-21.1-7.1-27.4-6.4s-28.6,7.5-35.7,13.2c-7.1,5.6-25.2,13.2-27.8,14.7c-2.6,1.5-7.1,7.5-7.1,7.5s-5.6-2.3-10.5-4.5
								c-4.9-2.3-9-7.9-14.3-10.5s-7.9-9-16.2-7.5s-16.9-2.6-18.8-0.8c-1.9,1.9-7.9,6.4-10.5,8.3c-2.6,1.9-11.3,2.3-11.7,4.5
								c-0.4,2.3,3,9,7.5,8.3c-0.4,7.1-2.6,16.2,3,17.7c-3.8,9.8-3.8,16.2,0.8,18c-4.9,8.3-3,16.2,0.4,17.3
								c-3.8,7.9,3,14.7,7.5,15.4c4.5,0.8,21.1,3.8,26.3,2.3c5.3-1.5,16.9-1.9,19.5-6C1024.9,983.4,1031.3,981.9,1031.3,981.9z"/>
							<path class="st1" d="M964.6,914.1c-6,1.5-5.9,1.8-5.8,1.8c3,1.4,10.4-1.1,15.5-2.9c5.5-2,11.5-3,14.6-3s8.8,2.4,10.6,3.3
								s7.3,4.3,7.3,4.3s-5.8,3.6-8.5,4.6c-2.7,0.9-21-0.9-24,0.9s-9.1,2.7-8.5,8.5c7-3,3.3-6.4,15.2-5.5
								c11.8,0.9,41.1-6.8,48.1-5.2c-6.5-5.6-9.7-8.5-15-11.6c-5.9-3.4-9.1-7.7-12.1-7.5c-14.9,1-20-2.5-23.3,0.1
								c-5.9,4.6-9.5,9-16.3,10.1c-6.2,1-6.1,1.9-4.8,3.3C957.9,915.3,958.1,915.5,964.6,914.1z"/>
							<g>
								<path class="st1" d="M898.6,518.5c-1.7,3-26.6,37.5-29.6,44s-19.2,15.7-20.9,20c-1.7,4.4-17.4,43.1-21.3,51
									s-60.5,154.2-61,155.9s-5.2,9.6-5.2,9.6s-49.2,108.9-44.9,165.1c4.4,56.2,0.6,40.2,17,43.1c25.6,4.6,113.9,9.3,113.9,9.3
									s-54.2-21.9-84-11.1c-3.9-4.4-10.3-139.9,0.3-178c10.7-38.2,21.2-53.4,23.4-65.2s16.9-53.4,17.3-42.5s3.1,50.4,3.1,50.4
									s6.5-72.7,8.7-83.1s20-56.6,20-51c0,5.7,14.8,32.2,14.8,32.2s-3.5-50.5-1.3-61.9s17-32.2,21.3-36.6
									C874.6,565.5,898.6,518.5,898.6,518.5z"/>
								<path class="st1" d="M872.6,546.9c-1.3-4.1-6-23.1-7.3-26s-0.6-3.2,4.8-6.3c5.4-3.2,22.5-11.1,23.8-12s9.8,2.5,12.4,5.7
									c2.5,3.2,7.3,17.4,7.6,20.3c0.3,2.9,12.4,12,13,15.8s16.4,43.6,14.2,44.8c-2.2,1.3-24.7-36.9-24.7-36.9l-7-25.7
									c0,0-8.9-10.8-9.8-11.4c-1-0.6,0.1,0.9-2.4,6.6C894.5,527.5,872.6,546.9,872.6,546.9z"/>
								<path class="st1" d="M858,558.9c1.9-1.6,7-11.7,7-11.7l-2.9-12.7v-5.7c0,0-1.3-10.1-2.5-7.6c-1.3,2.5-2.9,7.9-3.5,13.3
									s-1.3,16.2-1.6,20S858,558.9,858,558.9z"/>
							</g>
							<path class="st1" d="M943.6,571.3c-1.5,3.3,21.3,42,44.4,64.4c-14.9,2.5-20.2,14.3-28,34.7C960,669,943.6,571.3,943.6,571.3z
								"/>
							<path class="st1" d="M989,636c0,0,48-24.9,53.4-45.1c-10,54.5-39.7,91.6-39.7,90.5S1001.3,645,989,636z"/>
							<path class="st6" d="M1050.5,588c-2.2,15.7-2.9,55.1-98.8,163.4c16.2-134-28.7-205.7-28.7-205.7"/>
							<path class="st4" d="M970.8,675.2c8,1.8,10.7,4.2,13.9,2.7s10.3-12,11.2-15.1c0.8-3.2-2.3-19.8-7.4-21.9
								c-13.9,5.3-20.2,15.6-20,18.3C968.7,662,968.9,674.8,970.8,675.2z"/>
							<path class="st4" d="M969.1,677.8c-0.5,0.5,10.7,4.4,15.1,3.6c-3.8,27.8-4.4,33.9-4.4,33.9s-26.1,32.8-26.1,32
								s3.6-39.8,2.7-49.9C965.5,681.1,969.3,677.6,969.1,677.8z"/>
							<g>
								<path class="st1" d="M909.1,524.8c-0.2,11-0.1,22.1,0.5,33.1c0.5,11,1.5,22,2.9,33s3.2,21.9,5.3,32.7s4.6,21.6,7,32.4
									c5,21.5,10,43.1,12.1,65.1c1.1,11,1.5,22.1,1.2,33.1s-1.2,22.1-2.6,33c1.4-11,2.3-22,2.5-33s-0.2-22.1-1.3-33.1
									c-2.2-22-7.2-43.6-12.3-65.1c-2.5-10.8-5-21.5-7.1-32.4c-2.2-10.8-4-21.7-5.4-32.7s-2.4-22-3-33c-0.5-11-0.7-22.1-0.6-33.2
									L909.1,524.8z"/>
							</g>
							<g>
								<path class="st1" d="M944.4,772c7.3-6,14.4-12.2,21.6-18.4c7.1-6.2,14.2-12.4,21.2-18.8c7-6.3,14-12.7,20.8-19.2
									c6.9-6.5,13.6-13.1,20.1-20c3.2-3.4,6.4-6.9,9.4-10.6c1.5-1.8,2.9-3.7,4.3-5.6c1.3-1.9,2.4-4,3.6-6.1
									c4.5-8.3,8.3-17,11.2-25.9c2.9-9,4.9-18.3,5.5-27.7c0.3-4.7,0.2-9.4-0.4-14.1c-0.7-4.6-1.8-9.3-4.1-13.3
									c-0.1-0.2,0-0.4,0.1-0.5c0.2-0.1,0.4,0,0.5,0.1l0,0c2.3,4.2,3.5,8.9,4.2,13.6c0.6,4.7,0.7,9.5,0.4,14.2
									c-0.6,9.5-2.7,18.8-5.6,27.8s-6.8,17.7-11.3,26c-1.2,2.1-2.3,4.1-3.6,6.1c-1.3,2-2.8,3.8-4.3,5.6c-3,3.6-6.2,7.1-9.5,10.6
									c-6.5,6.8-13.3,13.4-20.2,19.9s-13.9,12.8-20.9,19.1s-14.1,12.5-21.3,18.7C958.9,759.9,951.7,766.1,944.4,772z"/>
							</g>
							<path class="st1" d="M964.6,950.5c0-2.7,0.9-5.1,3.1-5.5c5.5-0.8,26.9,1.5,28.7-0.6s4.8-0.9,5.1,2.7s-1.3,2.9-5.5,1.1
								c0,0-21.6-1.9-24.2-0.9C969.5,948.4,964.6,953.9,964.6,950.5z"/>
							<path class="st1" d="M965,969.2c-0.1-1.8-0.1-10,3.3-10.5c8.5-1.1,26.4-0.8,25.7-0.5c-0.8,0.3,7.6,0.2,7.6,0.2s2.3-0.9,3,2.3
								c0.5,2.4,1,6.1-2.1,5.6s0.6-4.1-2.2-4.3c-2.8-0.3-31.3-0.4-32.4,1.4C964.8,968.8,965.5,975.6,965,969.2z"/>
							<path class="st1" d="M967.5,981.4c-0.3-2.1-0.1-4.1,0.8-4.9c2-1.8,32-1.4,35.1-1.3c3.6-1.5,6,0.6,5.5,2.3
								c-0.5,1.8-0.3,4.9-2.7,4.8c-2.4-0.1-5-3.9-6.6-5.1c-0.7-0.6-15.9-0.7-23.7-0.3c-1.2,0.1-5.2-0.6-5.7,1.6
								C969.7,981,967.7,982.8,967.5,981.4z"/>
							<path class="st1" d="M1031.3,981.9c0,0,4.1-3.7,6.9-3.4s4.4,2.8,9.4,3c5,0.3,11-7.4,11.3-15.2c0.3-7.7,5-35.8-14.9-42.5
								c8.3-1.7,26.5,1.4,26.2,18.2s0,35.3-14.9,41.9C1040.4,990.6,1031.3,981.9,1031.3,981.9z"/>
							<path class="st1" d="M738.7,1016.6c0,0,18.6,7.2,21,6.6s20.4-1.8,26.5,3.6c6,5.4,41.5,31.9,38.5,32.5s-29.5-7.2-38.5-9
								s-13.8,2.4,4.8,9s39.7,28.9,39.7,28.9s-10.8-5.4-24.1-8.4c-13.2-3-31.3-13.8-40.3-16.8s12,1.2,21,6s-9.6-12.6-19.2-14.4
								c-9.6-1.8-21,1.2-21,1.2s32.5,19.2,34.9,20.4c2.4,1.2-1.8,1.2-10.2,3.6s-15.6,7.2-11.4,6.6c4.2-0.6,33.7,4.8,36.7,5.4
								s34.3,10.8,34.3,12s-12,3-19.8,0.6s-21.6-8.4-26.5-9c-4.8-0.6,9.6,6,12.6,8.4s10.8,5.4,4.2,6s-22.2,0-27.7,3.6
								c-5.4,3.6-12.6,7.8-4.2,7.8c8.4,0,25.3,3,25.3,3l-5.4,12c0,0-18,9-10.2,9s14.4,7.8,14.4,7.8s-7.8,18-9,21.6s-4.8,13.8-2.4,18
								c2.4,4.2,24.7,106.4,28.9,123.9c4.2,17.4,6.6,33.7,12.6,53.5s44.5,101,51.1,108.8s39.7,45.7,52.9,52.9
								c13.2,7.2,48.1,30.7,40.9,28.9c-7.2-1.8-48.1-24.1-55.3-27.1s-4.2,11.4,0,16.8s11.4,22.8,11.4,22.8s12,3,16.2-0.6
								s30.7,2.4,30.7,2.4s-25.3,0.6-27.7,2.4s-15.6,6-17.4,4.2c-1.8-1.8-6-7.2-10.2-7.2s-2,4.4-7.6-4.4s0.4-23.4-7.1-30.8
								s-35-59.1-46.4-77.3c-7.6-12-23.1-45.3-35.6-87.1c-25.9-26.5-18.6-30.1-24.7-50.5c-21-56.5-36.1-105.2-36.1-117.2
								s2.4-30.7-0.6-40.9s-12-61.3-16.8-79.4C736.8,1068.9,738.7,1016.6,738.7,1016.6z"/>
							<path class="st1" d="M1011.7,1269.4c2.5-1.2,0,126.1,0.7,138.8c0.7,12.7,7.3,158.1,7.3,166.8c0,8.7,3.6,76,3.6,76
								s-3.6,0-8.2-11.3c-4.7-11.3-16-36-16.7-40.7s0.3-34.5,0.5-44.3s2.2,34.3,4.9,39.6c2.7,5.3,6,12.7,6,12.7s-5.3-69.4-6-74.7
								c-0.7-5.3-5.3-25.3-6.7-29.4s-2.7-34.7-5.3-45.4c-2.7-10.7-12-45.4-14-51.4s-4.7-20-4.7-26.7s-2-26-2-26s-11-0.8-10.2-36.7
								c-15.9-13.3-19.2-32-19.2-54.6c-11.3-43.4-50-141.6-50-141.6s-8.7-43.9,28-61.9c-19.3,19.3-19.3,52-15.3,58
								s9.3,22.7,9.3,22.7s26.7-8.7,35.4-8.7c-26,7.3-34.7,22-34.7,22s2.7,12.7,16,14.7s42.7,13.3,42.7,13.3s-39.4-5.3-44-5.3
								c-4.7,0-4,16,3.3,20s48,23.3,45.4,22.7c-2.7-0.7-40-13.3-44.7-14s4.7,16.7,6.7,20.7s6.5,43.9,6.5,43.9s3.5,26.2,8.1,16.8
								c4.7-9.3,16.7-25.3,19.3-32c2.7-6.7,14.7-13.3,14.7-13.3l5.3,22.7c-0.7,21.3-14,96.7-14.7,105.4
								c-0.7,8.7,18.7-14.7,19.3-22.7c0.7-8,0.7,84.7,0.7,98.7s6,59.4,7.3,49.4s-1.3-133.4-1.3-146.8c0-13.3,0.7-66.7,0-76.7
								C1004.4,1260.1,1010.4,1270.1,1011.7,1269.4z"/>
						</g>
						<path class="st1" d="M962.6,549c3.2,3.2,12,7.5,15.2,7.5s7.1,1.1,5.1,4s-9.6,5-12.2,5.2c-2.6,0.3-8.5-3.5-8.7-5.8
							C961.6,557.6,962.6,549,962.6,549z"/>
						<path class="st7" d="M987.3,554.3c-16.9,3.5-24.7-11.1-33.1-10.2"/>
						<path class="st1" d="M938.5,538.9c0,0,9.4,34,10.3,36.4c1,2.4,39,53.2,39,53.2s41.6-26.7,43.9-32.9c2.4-6.2,4.1-63.6,1.2-66.9
							S938.5,538.9,938.5,538.9z"/>
						<path d="M945.5,525.7c0-12.1,10,49.6,16.8,61.7c6.8,12.1,23.9,39.2,25.5,41c1.6,1.9,32.5-16.9,34.7-32
							c2.3-15.1,5.3-71.6,1.5-74.6c-3.8-3-30.9,0-30.9,0S945.5,526.5,945.5,525.7z"/>
						<g>
							<path class="st1" d="M983.4,507.8c1-1.6,6.7-2.2,6.8-3.5c0.2-1.3-2.1-4-3.2-4.5s-3.3-2.7-3.5-0.6S983.4,507.8,983.4,507.8z"
								/>
							<path d="M924,499.1c-2.4-2.4-4.2-8-5.6-12.5s-4.4-23.4-5.3-27c-0.9-3.6,0.4-13.8-1.4-18.5c-1.8-4.8-1.2-15.5,0-18.5
								s10-4,11.7-5.8c1.8-1.8,5.3-13.1,5.9-15.5s7.7-4.5,10.1-7.4s11.7-2.9,14.4-5.6s6.4-3,10-4.5s18.1-5,21.1-4.2
								c5,1.3,13.8,1,16.1,1.3c3.8,0.4,16.9,7,17.7,10.6c0.9,3.6,5.6,8.9,8.6,8.6s11.6,1.5,12.8,3.3s3.6,6.2,3.9,10.4
								s4.5,12.2,5,16.6c0.6,4.5,0.6,8.9,0.6,12.2s-1.5,10.4-2.4,14.3s-5,14.9-5,14.9s-4.5,12.5-5.6,13.7S924,499.1,924,499.1z"/>
							<path d="M984.4,581.8c8.1,0,11.2,0,18.6-1.8c7.5-1.8,19.9-21.6,23.6-25.8s11.8-16.2,11.2-24c-0.6-7.8-0.6-25.2-0.6-25.2
								s3.6,2.6,7.4-1.6c3.7-4.2,6.6-11.7,6.9-23.6c0.3-12.2-5.6-24.6-9.3-20.4s-3.7,11.4-6.2,12.6s-6.2-2.4-6.2-2.4
								s0.6-17.4-3.1-21s-6.8-19.2-11.2-22.8c-4.4-3.6-19.3-6.6-19.3-6.6s-18.6,3.6-23.6,4.2s-17.4,3-23,1.2s-13.1,5.4-15.5,9.6
								s-10.6,18.6-10.6,21.6s2.5,15,2.5,15l0.3,12.1l1.9,6.6c0,0-8-2-4.6,16.6c1.3,7.2,1.9,18,9.9,16.8c3.7,12,10.6,24.6,14.9,27.6
								s15.5,17.4,17.4,21C967.6,575.2,981.9,581.8,984.4,581.8z"/>
							<path class="st1" d="M954.2,424c-1,0.3-9.4-1.9-11.1-1.2c-1.7,0.7-10.4,9.8-11,11.3c-0.5,1.5-6.5,20.7-6.2,23.8
								c0.3,3.1,1.2,33.6,2.1,36.5s2.9,17.5,3.9,20.6s4.5,15.9,5,19.4c0.5,3.4,0.7,4.3,8,12.8c7.4,8.6,24.4,27.5,24.4,27.5
								s-25.6-34-26-38.3c-0.3-3.2-1.9-17.6-5.3-19.4c0,0,2.4,5.7,3.9,9.6c1.5,3.9,13,23.3,13,23.3s11.4,23.7,14.8,25.5
								s12.3,8.3,16.3,6.7c-4.3-0.9-19.4-20.3-15-22.7c8.3-4.5-2.5-8.2-3.4-12.4c-0.4-1.7-7.7-7.9-9.2-8c-1.5-0.2-3.3-0.2-1.9-1.7
								c1.4-1.5,8.2-11.8,11.8-11.3s1.2-5-0.2-6.3s-3.6-1-5.1-2.6c-1.5-1.5-3.4-4.3-3.6-1.5c-0.2,2.7-3.1,13-3.3,14.9
								s-3.4,1.9-3.4,1.9s-0.5-7.4-0.5-12.3c0-5,1.9-17.5,1-19.9s-0.3-4.1-2.9-2.2c-2.6,1.9-8.6-0.3-9.1-0.7
								c-0.5-0.3,10.4,0.3,12.2-6.7c-5.7,0.9-11.1,1.5-13,3.3s-5.1,1-5-0.9c0.2-1.9,1.5-8.2,7.7-10.1c5.8-1.5,11.3-1.4,10.8-1.5
								c-0.5-0.2-9.4-3.6-11.6-2.7c-2.2,0.9-6.7,3.8-8.6,4.6c-1.9,0.9-3.4,0.2-2.4-3.8c1-3.9,3.8-7.7,5-8.7s16.3-0.9,20-1.4
								c3.8-0.5,0.9-7.4-1.7-14.2S954.2,424,954.2,424z"/>
							<path class="st1" d="M1025.5,557.1c0.4-0.5,11.8-16.5,11.9-19.1s-1.1-29-1.1-31.1s0.9-28.4,0.2-30.5s-2.6-13.7-4.4-17.4
								c-1.8-3.7-5.1-15.6-7.9-18.6c-2.8-3-4.4-4.6-4.9-4.4s-6,16.3-6,16.3l3.5,13l9.5,14l-6.1,8.9c0,0-4.6,8.8-3.2,9.7
								c1.4,0.9,8.2,15.8,8.2,15.8l4.7,13.9c0,0,3,7.5,2.3,11.4C1031.6,542.9,1025.5,557.1,1025.5,557.1z"/>
							<path class="st1" d="M969.2,506.2c-1.4-1.6-3.5-3.3-4.2-1.6c-0.7,1.8-1.2,6.1-1.2,5.4s2.5,2.1,3.9,1.4
								c1.4-0.7,4.9,0.9,7.5,1.2c2.6,0.4,2.1-4.2,0.5-7.4c-1.6-3.2-0.3-6.5-1.1-10c-0.9-4-1.5-10.4-2.3-13.1s-2.2-3.1-1.6,0.9
								c0.5,4-0.2,10.7-0.1,15.2C970.7,502.5,969.2,506.2,969.2,506.2z"/>
							<g>
								<g>
									<g>
										<g>
											<g>
												<path d="M1036.2,463.1c-0.2-1.1-0.7-2.1-0.9-2.5c-0.7-1.5-2.2-1.5-8.5-1.1c-3.8,0.2-8.7,0.7-13.6,1.1h-0.4
													c-10.3,0.9-23,5-26.4,6.5c-3,1.3-6.7,4.5-7.1,6c0,0.2,0,0.3,0,0.5c-1.5,0.8-3.5,1.2-6,1.3c-0.3,0-1.1,0-1.7-0.1
													c0-0.2-0.1-0.4-0.2-0.6c-0.7-1.4-5.1-3.5-8.3-4c-3.7-0.6-8.4-2.5-18.6-0.8l-0.4,0.1c-4.8,0.8-9.7,1.6-13.4,2.3
													c-6.2,1.2-7.6,1.6-7.9,3.2c-0.1,0.5-0.2,1.6-0.2,2.7c0,0.8,0.1,3.3,2.4,3.7c0.1,0,0.3,0,0.4,0.1
													c1.2,0.2,1.4,0.3,1.5,0.6c0.1,0.3,0.4,1,0.7,1.9c1.7,5,3.6,10.1,5.2,12.1c0.4,0.4,0.7,0.9,1,1.3c1.4,1.9,2.9,4,7.3,5.1
													c3.4,0.9,4.2,2.6,9,2c2-0.2,3.9-0.7,5.7-1.3c6.3-2.2,11.1-6.8,12.2-11.7c0.3-1.5,0.8-3.7,1.3-6.1c0.4-2.1,1-4.8,1.4-6.7
													c0.9,0.2,1.8,0.2,2.7,0.2s1.7-0.1,2.5-0.2c2-0.3,3.8-0.7,5.3-1.5c1,1.8,2.2,4.4,3.1,6.3c1,2.2,2,4.2,2.7,5.6
													c2.3,4.5,8.1,7.7,14.8,8.3c1.9,0.2,3.9,0.1,5.9-0.2c4.8-0.6,13.7-3.6,16.8-5.2c3.9-2.2,4.9-4.6,5.8-6.8
													c0.2-0.5,0.4-1,0.6-1.5c1.1-2.3,1.6-7.7,2-13c0.1-0.9,0.1-1.7,0.2-2c0-0.4,0.2-0.5,1.3-1c0.1-0.1,0.3-0.1,0.4-0.2
													C1036.9,466.3,1036.4,463.9,1036.2,463.1z"/>
											</g>
										</g>
									</g>
								</g>
								<path class="st1" d="M924,477.6c-0.2-2.1,0.4-3.7,5.3-4.8c4.9-1,17.7-3.2,27.7-2.5s13.3,4.2,13.3,4.2s-9.2-3.4-22.6-1.8
									c-13.4,1.6-18.3,1.5-17.5,4.8s4,14.7,6.7,19.1c2.3,3.8,11.3,6.8,18.4,3.5c0,0-0.5,2.1-12.6,1.3c-8.4-0.6-10.3-9.7-12.2-14.9
									c-2.6-7.2-2.5-7.3-4.3-7.2C924.5,479.4,924.3,479.7,924,477.6z"/>
								<path class="st1" d="M1006.5,463c0,0,25.4-3.6,27.1-3s2.6,5.1,2.2,5.4c-0.3,0.3-2.8,1.4-3.1,1.7c-0.3,0.2-0.9,15-5.1,20.4
									c2-6.9,3.2-20,2.9-22s-0.6-3.8-3.9-3.9C1023.3,461.6,1006.5,463,1006.5,463z"/>
								<path class="st1" d="M983.3,470.8c0,0-2.7,1.9-0.3,7.2c2.4,5.4,4.4,16.6,18.2,18.1c0,0-8.8-1.1-13.3-10.4
									C983.4,476.4,983.3,470.8,983.3,470.8z"/>
							</g>
							<path class="st1" d="M963.4,535.8c0,0,10.3-11.5,40.6-8.6c-7.7,4.6-30.3,8.4-33.1,8.9C968.2,536.7,963.4,535.8,963.4,535.8z"
								/>
							<path class="st1" d="M999.6,545.9c-0.2,0.3-3.5,4.8-8.2,6.2s-7.6-0.7-12.7,0c-3.8,0.5-14.3-7.9-16.5-9.7c0,0-2.4-2.4-2.8-2.8
								c-0.4-0.4,7.5,2.1,9.1,3.2c1.7,1.1,7.3,4.9,10.1,4.4s8.2-1,9.8-0.4c1.7,0.6,10.7-1.9,12.5-5
								C1002.8,538.8,999.6,545.9,999.6,545.9z"/>
							<path class="st1" d="M933.4,526.9c-4.8,1.2-8.3-4.7-9-7.8s-4.3-15.9-3.4-18.3c1-2.4,4.3-5.1,6.5-3.9s2.2,4.8,0,5.6
								c-2.2,0.7-2.7,2.2-1.9,6c0.7,3.9,4.1,12.8,5.6,13.3C932.6,522.3,937.1,526,933.4,526.9z"/>
							<path class="st1" d="M923.5,500.6c0,0-2.7-6.8-4.1-9.4c-1.4-2.7-4.8-24.6-6.3-27.3c-1.4-2.7-3.1-8.7-5.1-12.1
								c-1.9-3.4,1.4-9.9,0.7-13.3s1-13,1-13s1.7-8,4.1-8.9c2.4-1,9.9-2.9,11.3-5.8c1.4-2.9,2.4-5.1,2.2-8.9
								c-0.2-3.9,3.9-4.6,6.3-6.5c2.4-1.9,29.9-12.1,33.8-14.7c3.9-2.7,28.2-4.1,30.9-2.4s3.1,2.2,6.3,3.1c3.1,1,7,5.1,7,5.1
								s-10.4-1.2-13-1.7c-2.7-0.5-10.1,1.2-13.8,2.4c-3.6,1.2-20,4.1-22.7,5.1s-11.1,5.3-15,6.5s-8.4,8-8.4,8s-5.3,6.8-5.8,8.2
								c-0.5,1.4,5.3,6,6.3,5.3s-0.5,4.1-2.7,3.1s-7.7-2.9-10.1-2.4c-2.4,0.5-5.3,1-6.8,3.6c-1.4,2.7-1.7,8.4-1.9,11.1s-0.5,2.4-1,6
								s-2.2,3.4-1.2,7.2c1,3.9,0,5.8,2.7,6.8s1.4,2.2,0.7,4.6s-2.7,5.1-0.5,7.5s3.4,1.7,2.9,5.8c-0.5,4.1-0.7,6.3,1.4,8.7
								c2.2,2.4-0.7,2.7,0.5,5.1s3.1,12.3,3.1,12.3L923.5,500.6z"/>
						</g>
					</g>
				</g>
			</g>
		</g>
	</g>
</g>
</svg>
