<?xml version="1.0" encoding="utf-8"?>
<!-- Generator: Adobe Illustrator 24.0.0, SVG Export Plug-In . SVG Version: 6.00 Build 0)  -->
<svg version="1.1" id="Layer_1" xmlns="http://www.w3.org/2000/svg" xmlns:xlink="http://www.w3.org/1999/xlink" x="0px" y="0px"
	 viewBox="0 0 1920 1080" style="enable-background:new 0 0 1920 1080;" xml:space="preserve">
<style type="text/css">
	.st0{clip-path:url(#SVGID_2_);}
	.st1{stroke:#FFFFFF;stroke-width:1.343;stroke-miterlimit:10;}
	.st2{fill:#F1F2F2;}
	.st3{fill:#FFFFFF;}
	.st4{stroke:#D1D3D4;stroke-width:1.343;stroke-miterlimit:10;}
	.st5{fill:#FFFFFF;stroke:#FFFFFF;stroke-width:1.343;stroke-miterlimit:10;}
	.st6{fill:#231F20;}
	.st7{fill:#FFFFFF;stroke:#231F20;stroke-width:0.2155;stroke-linecap:round;stroke-linejoin:round;stroke-miterlimit:10;}
	.st8{fill:#FFFFFF;stroke:#231F20;stroke-width:0.1077;stroke-linecap:round;stroke-linejoin:round;stroke-miterlimit:10;}
	.st9{fill:none;stroke:#231F20;stroke-width:0.1077;stroke-linecap:round;stroke-linejoin:round;stroke-miterlimit:10;}
	.st10{fill:none;stroke:#231F20;stroke-width:0.2873;stroke-linecap:round;stroke-linejoin:round;stroke-miterlimit:10;}
	.st11{fill:none;stroke:#231F20;stroke-width:0.2155;stroke-linecap:round;stroke-linejoin:round;stroke-miterlimit:10;}
	.st12{fill:none;stroke:#231F20;stroke-width:0.1436;stroke-linecap:round;stroke-linejoin:round;stroke-miterlimit:10;}
	.st13{fill:none;stroke:#231F20;stroke-width:0.3232;stroke-linecap:round;stroke-linejoin:round;stroke-miterlimit:10;}
	.st14{fill:none;stroke:#231F20;stroke-width:7.182233e-02;stroke-linecap:round;stroke-linejoin:round;stroke-miterlimit:10;}
	.st15{clip-path:url(#SVGID_4_);}
	.st16{fill:none;stroke:#231F20;stroke-width:4.381050e-02;stroke-linecap:round;stroke-linejoin:round;stroke-miterlimit:10;}
	
		.st17{clip-path:url(#SVGID_4_);fill:#FFFFFF;stroke:#231F20;stroke-width:8.762100e-02;stroke-linecap:round;stroke-linejoin:round;stroke-miterlimit:10;}
	.st18{fill:#FFFFFF;stroke:#231F20;stroke-width:8.762100e-02;stroke-linecap:round;stroke-linejoin:round;stroke-miterlimit:10;}
	.st19{fill:#F4DAD7;}
	.st20{fill:#EFC9C8;}
	.st21{fill:none;stroke:#231F20;stroke-width:0.1752;stroke-linecap:round;stroke-linejoin:round;stroke-miterlimit:10;}
	.st22{fill:none;stroke:#231F20;stroke-width:0.1168;stroke-linecap:round;stroke-linejoin:round;stroke-miterlimit:10;}
	.st23{fill:#FFFFFF;stroke:#231F20;stroke-width:0.2921;stroke-linecap:round;stroke-linejoin:round;stroke-miterlimit:10;}
	.st24{fill:#FFFFFF;stroke:#231F20;stroke-width:0.2629;stroke-linecap:round;stroke-linejoin:round;stroke-miterlimit:10;}
	.st25{fill:#FFFFFF;stroke:#231F20;stroke-width:0.1748;stroke-linecap:round;stroke-linejoin:round;stroke-miterlimit:10;}
	.st26{clip-path:url(#SVGID_6_);}
	.st27{fill:#FFFFFF;stroke:#231F20;stroke-width:8.740073e-02;stroke-linecap:round;stroke-linejoin:round;stroke-miterlimit:10;}
	.st28{fill:#FFFFFF;stroke:#231F20;stroke-width:0.3496;stroke-linecap:round;stroke-linejoin:round;stroke-miterlimit:10;}
	.st29{fill:#FFFFFF;stroke:#231F20;stroke-width:0.2913;stroke-linecap:round;stroke-linejoin:round;stroke-miterlimit:10;}
	.st30{fill:#FFFFFF;stroke:#231F20;stroke-width:0.2331;stroke-linecap:round;stroke-linejoin:round;stroke-miterlimit:10;}
</style>
<g>
	<defs>
		<rect id="SVGID_1_" x="0.1" y="-0.4" width="1915.7" height="1080.1"/>
	</defs>
	<use xlink:href="#SVGID_1_"  style="overflow:visible;fill:#FFFFFF;"/>
	<clipPath id="SVGID_2_">
		<use xlink:href="#SVGID_1_"  style="overflow:visible;"/>
	</clipPath>
	<g class="st0">
		<rect x="-1463.3" y="-1243.7" class="st1" width="4715.7" height="3931.6"/>
		<polygon class="st2" points="3252.3,2084.4 -1162.7,-1243.7 3252.3,-1243.7 		"/>
		<g>
			<g>
				<g>
					<g>
						<path class="st3" d="M2561.1,1280.7c0-33.5-412.4-33.5-412.4,0c0,1.2,0,12.4,0,13.6c0,33.5,92.3,60.7,206.2,60.7
							c113.9,0,206.2-27.2,206.2-60.7C2561.1,1293,2561.1,1281.8,2561.1,1280.7z"/>
						<path class="st4" d="M2518.1,1244.2c-87.6-33.4-142.4-93.5-143-158.9c0-0.7,0-1.4,0-2.1c0-14.2,0-368.4,0-405
							c0-107.9,65.8-148.3,111.9-178.5l-132.1-9.8c0-0.7,0-1.2,0-1.2l-7.9,0.6l-7.9-0.6c0,0,0,0.4,0,1.2l-132.1,9.8
							c46.1,30.3,111.9,70.7,111.9,178.5c0,36.6,0,390.8,0,405c0,21.8-2.7,40.9-7.4,57.7c-11.9,42.8-53.1,80.4-112.9,100.8
							c-31.1,10.6-49.9,24.5-49.9,39.6c0,33.5,92.3,60.7,206.2,60.7c113.9,0,206.2-27.2,206.2-60.7
							C2561.1,1267.3,2545,1254.4,2518.1,1244.2z"/>
						<path class="st3" d="M2427.3,1215.2c-22.3-33.4-59.9-64.6-60-130c0-0.7,0-1.4,0-2.1c0-14.2,0-368.4,0-405
							c0-107.9,16.7-148.3,28.4-178.5l-33.5-9.8c0-0.7,0-1.2,0-1.2l-2,0.6l-2-0.6c0,0,0,0.4,0,1.2l-33.5,9.8
							c11.7,30.3,28.4,70.7,28.4,178.5c0,36.6,0,286.9,0,301.1c0,21.8-2.9,71-1.9,87.8c3.7,58.5,16.7,88.7,41.3,128.1
							c7,11.2,30.6,64.8,37,78.5c21.8,46.4,53.9,55,96.6,31.5c25.3-13.9-13.9-40.6-38.4-49.7
							C2474.6,1250.6,2434.2,1225.5,2427.3,1215.2z"/>
					</g>
					<g>
						<path class="st3" d="M1108.3,1280.7c0-33.5-412.4-33.5-412.4,0c0,1.2,0,12.4,0,13.6c0,33.5,92.3,60.7,206.2,60.7
							c113.9,0,206.2-27.2,206.2-60.7C1108.3,1293,1108.3,1281.8,1108.3,1280.7z"/>
						<path class="st4" d="M1065.4,1244.2c-87.6-33.4-142.4-93.5-143-158.9c0-0.7,0-1.4,0-2.1c0-14.2,0-368.4,0-405
							c0-107.9,65.8-148.3,111.9-178.5l-132.1-9.8c0-0.7,0-1.2,0-1.2l-7.9,0.6l-7.9-0.6c0,0,0,0.4,0,1.2l-132.1,9.8
							c46.1,30.3,111.9,70.7,111.9,178.5c0,36.6,0,390.8,0,405c0,21.8-2.7,40.9-7.4,57.7c-11.9,42.8-53.1,80.4-112.9,100.8
							c-31.1,10.6-49.9,24.5-49.9,39.6c0,33.5,92.3,60.7,206.2,60.7c113.9,0,206.2-27.2,206.2-60.7
							C1108.3,1267.3,1092.3,1254.4,1065.4,1244.2z"/>
						<path class="st3" d="M974.6,1215.2c-22.3-33.4-59.9-64.6-60-130c0-0.7,0-1.4,0-2.1c0-14.2,0-368.4,0-405
							c0-107.9,16.7-148.3,28.4-178.5l-33.5-9.8c0-0.7,0-1.2,0-1.2l-2,0.6l-2-0.6c0,0,0,0.4,0,1.2l-33.5,9.8
							c11.7,30.3,28.4,70.7,28.4,178.5c0,36.6,0,286.9,0,301.1c0,21.8-2.9,71-1.9,87.8c3.7,58.5,16.7,88.7,41.3,128.1
							c7,11.2,30.6,64.8,37,78.5c21.8,46.4,53.9,55,96.6,31.5c25.3-13.9-13.9-40.6-38.4-49.7
							C1021.9,1250.6,981.5,1225.5,974.6,1215.2z"/>
					</g>
				</g>
				<g>
					<path class="st3" d="M2765.4,499c0-44.8-2273.8-44.8-2273.8,0c0,5.1,0,22.4,0,26.7c0,47,398.4,59.7,496.5,45.8
						c94.6-13.5,230.3-31.7,640.4-33c410.1,1.3,545.8,19.5,640.4,33c98.1,14,496.5,1.3,496.5-45.8
						C2765.4,521.3,2765.4,504.1,2765.4,499z"/>
					<path class="st4" d="M2765.4,502.3c0,51.7-398.4,65.7-496.5,50.3c-94.6-14.8-230.3-34.9-640.4-36.3
						c-410.1,1.4-545.8,21.4-640.4,36.3c-98.1,15.4-496.5,1.4-496.5-50.3c0-49.2,482.8-79.5,1090.6-82.3v-0.2
						c15.5,0,30.9,0,46.2,0.1c15.4,0,30.8-0.1,46.2-0.1v0.2C2282.6,422.8,2765.4,453.1,2765.4,502.3z"/>
				</g>
			</g>
			<g>
				<ellipse class="st5" cx="1520.9" cy="461.8" rx="117.7" ry="17.2"/>
				<path class="st1" d="M1529.4,385.2V175.5h-17v209.7c0,29.1-22.3,53.5-51.3,56c-34.7,3-57.9,8.5-57.9,14.8
					c0,9.5,52.7,17.2,117.7,17.2c65,0,117.7-7.7,117.7-17.2c0-6.3-23.3-11.8-57.9-14.8C1551.7,438.7,1529.4,414.3,1529.4,385.2z"/>
				<circle class="st1" cx="1520.9" cy="173.6" r="15.1"/>
				<rect x="1201.2" y="-37.3" class="st1" width="639.3" height="410.7"/>
			</g>
			<g>
				<polygon class="st3" points="764.6,527.9 792.9,470.9 889.8,470.9 918.1,527.9 				"/>
				<path class="st6" d="M889.6,471.2l28,56.3H765.1l28-56.3H889.6 M890,470.6h-97.2l-28.6,57.6h154.4L890,470.6L890,470.6z"/>
			</g>
			<g>
				<polygon class="st3" points="696.9,519.9 741.3,450.2 866.5,463.5 895.3,541 				"/>
				<path class="st6" d="M741.5,450.6l124.7,13.3l28.4,76.7l-197.1-20.9L741.5,450.6 M741.1,449.7l-44.9,70.5l199.7,21.2l-29.1-78.4
					L741.1,449.7L741.1,449.7z"/>
			</g>
			<g>
				<polygon class="st3" points="930.4,520.8 900.3,449.2 1025.2,449.3 1087,520.8 				"/>
				<path class="st6" d="M900.9,449.6l124.2,0l61.1,70.8l-155.4,0L900.9,449.6 M899.7,448.8l30.5,72.4l157.7,0l-62.4-72.4
					L899.7,448.8L899.7,448.8z"/>
			</g>
			<g>
				<polygon class="st3" points="2542.4,529.6 2512.2,458 2637.2,458 2699,529.6 				"/>
				<path class="st6" d="M2512.9,458.4l124.2,0l61.1,70.8l-155.4,0L2512.9,458.4 M2511.6,457.6l30.5,72.4l157.7,0l-62.4-72.4
					L2511.6,457.6L2511.6,457.6z"/>
			</g>
			<g>
				<polygon class="st3" points="2319.4,517.4 2289.2,445.8 2414.2,445.9 2475.9,517.4 				"/>
				<path class="st6" d="M2289.8,446.2l124.2,0L2475,517l-155.4,0L2289.8,446.2 M2288.6,445.4l30.5,72.4l157.7,0l-62.4-72.4
					L2288.6,445.4L2288.6,445.4z"/>
			</g>
			<g>
				<polygon class="st3" points="2378.9,564.4 2348.8,492.9 2473.7,492.9 2535.5,564.5 				"/>
				<path class="st6" d="M2349.4,493.3l124.2,0l61.1,70.8l-155.4,0L2349.4,493.3 M2348.2,492.5l30.5,72.4l157.7,0l-62.4-72.4
					L2348.2,492.5L2348.2,492.5z"/>
			</g>
			<g>
				<polygon class="st3" points="2155.2,536.3 2125,464.7 2250,464.7 2311.7,536.3 				"/>
				<path class="st6" d="M2125.6,465.1l124.2,0l61.1,70.8l-155.4,0L2125.6,465.1 M2124.4,464.3l30.5,72.4l157.7,0l-62.4-72.4
					L2124.4,464.3L2124.4,464.3z"/>
			</g>
			<g>
				<polygon class="st3" points="638.6,537.5 608.5,466 733.4,466 795.2,537.5 				"/>
				<path class="st6" d="M609.1,466.3l124.2,0l61.1,70.8l-155.4,0L609.1,466.3 M607.9,465.6l30.5,72.4l157.7,0l-62.4-72.4
					L607.9,465.6L607.9,465.6z"/>
			</g>
			<g>
				<polygon class="st3" points="774,523.7 839.1,450.3 965,450.3 931.7,523.7 				"/>
				<path class="st6" d="M839.3,450.7l125.1,0l-32.9,72.6l-156.6,0L839.3,450.7 M838.9,449.9l-65.8,74.2l158.9,0l33.6-74.2
					L838.9,449.9L838.9,449.9z"/>
			</g>
			<g>
				<polygon class="st3" points="2203,530.5 2268.1,457.1 2394,457.1 2360.8,530.5 				"/>
				<path class="st6" d="M2268.3,457.5l125.1,0l-32.9,72.6l-156.6,0L2268.3,457.5 M2267.9,456.7l-65.8,74.2l158.9,0l33.6-74.2
					L2267.9,456.7L2267.9,456.7z"/>
			</g>
			<g>
				<g>
					<polygon class="st3" points="833.4,555.7 872.3,468.5 960,468.5 977.8,555.7 					"/>
					<path class="st6" d="M959.7,468.9l17.6,86.5H834.1l38.5-86.5H959.7 M960.4,468.1H872l-39.2,88.1h145.4L960.4,468.1L960.4,468.1
						z"/>
				</g>
				<g>
					<path class="st7" d="M881,489.7l5-15.2c0.1-0.2,0.6-0.4,1.1-0.4h48.1c0.5,0,1,0.2,1,0.4l0.4,15.2c0,0.3-0.5,0.6-1.1,0.6H882
						C881.3,490.2,880.9,490,881,489.7z"/>
					<path class="st8" d="M892.7,483.7c-2.4,0-4-0.8-4-1.9l0.1-2.2c0-0.5,0.5-1.1,1.4-1.5c1.1-0.5,2.7-0.8,4.3-0.8
						c1.5,0,3,0.3,3.8,0.8c0.7,0.4,0.9,1,0.6,1.5l-1.1,2.2C897.1,483,895.1,483.7,892.7,483.7"/>
					<path class="st8" d="M892.7,483.7c-2.4,0-4-0.8-4-1.9l0.1-2.2c0-0.5,0.5-1.1,1.4-1.5c1.1-0.5,2.7-0.8,4.3-0.8
						c1.5,0,3,0.3,3.8,0.8c0.7,0.4,0.9,1,0.6,1.5l-1.1,2.2C897.1,483,895.1,483.7,892.7,483.7"/>
					<path class="st8" d="M897.9,484.6c-1.1,0-2.5,0.1-3.5,0.2c-0.2,0-0.4,0-0.6,0.1c-0.6,0.1-1.1,0.1-1.5,0.1c-0.4,0-0.7,0-1.1-0.1
						c-0.1,0-0.2,0-0.2,0c-0.5-0.1-1-0.1-1.5-0.2c-0.1,0-0.3,0-0.4,0c-0.7-0.1-1.4-0.1-2-0.1c-0.9,0-1.8,0.1-2.6,0.2l-0.3,1
						c-0.1,0.3,0.3,0.5,0.9,0.5h14c0.6,0,1.1-0.2,1.2-0.5l0.2-1C899.7,484.7,898.9,484.6,897.9,484.6z"/>
					<path class="st8" d="M922.2,480.7c-1.4,0-2.4-0.4-2.6-1.1l-0.2-1.3c-0.1-0.3,0.1-0.6,0.6-0.9c0.6-0.3,1.5-0.5,2.5-0.5
						c0.9,0,1.8,0.2,2.4,0.5c0.5,0.3,0.6,0.6,0.5,0.9l-0.4,1.3C924.7,480.2,923.6,480.7,922.2,480.7"/>
					<path class="st8" d="M922.2,480.7c-1.4,0-2.4-0.4-2.6-1.1l-0.2-1.3c-0.1-0.3,0.1-0.6,0.6-0.9c0.6-0.3,1.5-0.5,2.5-0.5
						c0.9,0,1.8,0.2,2.4,0.5c0.5,0.3,0.6,0.6,0.5,0.9l-0.4,1.3C924.7,480.2,923.6,480.7,922.2,480.7"/>
					<path class="st8" d="M925.4,481.2c-0.7,0-1.5,0.1-2,0.1c-0.1,0-0.2,0-0.3,0c-0.3,0-0.6,0.1-0.9,0.1c-0.2,0-0.4,0-0.7-0.1
						c0,0-0.1,0-0.1,0c-0.3,0-0.6-0.1-0.9-0.1c-0.1,0-0.2,0-0.3,0c-0.4,0-0.8-0.1-1.2-0.1c-0.5,0-1.1,0-1.5,0.1l0,0.4
						c0,0.3,0.4,0.5,1,0.5h7.4c0.6,0,1-0.2,1-0.5l0-0.4C926.4,481.3,925.9,481.2,925.4,481.2z"/>
					<line class="st9" x1="897.6" y1="474.9" x2="900" y2="474.9"/>
					<line class="st10" x1="888" y1="475.1" x2="896.6" y2="475.1"/>
					<line class="st9" x1="897.5" y1="475.3" x2="899.9" y2="475.3"/>
					<line class="st11" x1="888.7" y1="475.8" x2="893.3" y2="475.8"/>
					<line class="st12" x1="902.9" y1="476.4" x2="904.1" y2="476.4"/>
					<line class="st12" x1="902.8" y1="476.7" x2="904.9" y2="476.7"/>
					<line class="st11" x1="905.6" y1="476.6" x2="906.3" y2="476.6"/>
					<line class="st11" x1="902.7" y1="477.8" x2="912.5" y2="477.8"/>
					<line class="st11" x1="902.5" y1="478.8" x2="907.9" y2="478.8"/>
					<line class="st11" x1="902.3" y1="479.9" x2="908.4" y2="479.9"/>
					<line class="st11" x1="902" y1="481" x2="909.7" y2="481"/>
					<line class="st11" x1="901.8" y1="482.2" x2="902.9" y2="482.2"/>
					<line class="st11" x1="901.5" y1="483.3" x2="909.4" y2="483.3"/>
					<line class="st11" x1="918.5" y1="483.3" x2="926.3" y2="483.3"/>
					<line class="st11" x1="908.4" y1="482.1" x2="919.5" y2="482.1"/>
					<line class="st11" x1="903" y1="476" x2="903.7" y2="476"/>
					<line class="st11" x1="902.8" y1="477.2" x2="905.7" y2="477.2"/>
					<line class="st11" x1="902.6" y1="478.3" x2="905.5" y2="478.3"/>
					<line class="st11" x1="902.4" y1="479.3" x2="906.8" y2="479.3"/>
					<line class="st11" x1="902.1" y1="480.4" x2="910" y2="480.4"/>
					<line class="st11" x1="901.9" y1="481.5" x2="903.5" y2="481.5"/>
					<line class="st11" x1="909.1" y1="481.4" x2="916.3" y2="481.4"/>
					<line class="st11" x1="901.7" y1="482.7" x2="909.7" y2="482.7"/>
					<line class="st11" x1="918.5" y1="482.7" x2="925.9" y2="482.7"/>
					<line class="st11" x1="901.4" y1="483.9" x2="906.7" y2="483.9"/>
					<line class="st11" x1="918.4" y1="483.9" x2="921.8" y2="483.9"/>
					<line class="st11" x1="907.8" y1="476" x2="918.1" y2="476"/>
					<line class="st11" x1="921.3" y1="476" x2="926" y2="476"/>
					<line class="st11" x1="914.1" y1="476.6" x2="916" y2="476.6"/>
					<line class="st11" x1="925.9" y1="476.5" x2="932.4" y2="476.5"/>
					<line class="st13" x1="885.1" y1="487.7" x2="934.1" y2="487.7"/>
					<line class="st13" x1="884.6" y1="489.2" x2="934.1" y2="489.2"/>
					<line class="st12" x1="906.4" y1="477.3" x2="909.9" y2="477.3"/>
					<line class="st12" x1="906.3" y1="478.3" x2="911.7" y2="478.3"/>
					<line class="st12" x1="907.7" y1="479.4" x2="912.4" y2="479.4"/>
					<line class="st12" x1="904" y1="481.5" x2="906.2" y2="481.5"/>
					<line class="st12" x1="910.8" y1="480.4" x2="917.9" y2="480.4"/>
					<line class="st12" x1="917" y1="481.5" x2="923.3" y2="481.5"/>
					<line class="st12" x1="910.5" y1="482.7" x2="917.4" y2="482.7"/>
					<line class="st12" x1="907.8" y1="483.9" x2="917" y2="483.9"/>
					<line class="st12" x1="922.8" y1="483.9" x2="926.7" y2="483.9"/>
					<line class="st11" x1="918.6" y1="485.9" x2="922.5" y2="485.9"/>
					<line class="st12" x1="926.9" y1="482.7" x2="934.1" y2="482.7"/>
					<line class="st12" x1="919.1" y1="480.4" x2="927.6" y2="480.4"/>
					<line class="st12" x1="918.5" y1="479.3" x2="929.9" y2="479.3"/>
					<line class="st12" x1="907.5" y1="476.7" x2="913.1" y2="476.7"/>
					<line class="st12" x1="921.2" y1="476.8" x2="925.3" y2="476.8"/>
					<line class="st12" x1="907.1" y1="476.4" x2="912" y2="476.4"/>
					<line class="st12" x1="921.2" y1="476.4" x2="924.2" y2="476.4"/>
					<path class="st14" d="M923.4,484.2c-0.3,0.2-0.7,0.4-1.2,0.6c-0.3,0.1-0.6,0.2-0.8,0.3c0.6-0.2,0.7-0.5,1.2-0.7
						c-0.1,0.2-0.4,0.3-0.8,0.4c-0.1,0-0.2,0-0.3,0c-0.1,0-0.1,0-0.1,0c-0.1-0.1-0.3-0.1-0.4-0.2c0.4,0.1,0.9,0.1,1.4,0.1
						c-0.2,0-0.4,0-0.6-0.1c0.1,0,0.2-0.1,0.4-0.1c0.1,0,0.3,0,0.5,0c-0.1,0.1-0.2,0.2-0.4,0.3c0.3-0.1,0.6-0.2,1-0.3
						c-0.2,0.1-0.4,0.2-0.5,0.2c0.1-0.1,0.3-0.1,0.4-0.2c-0.2,0-0.3,0.1-0.4,0.2c2.5-0.2,5-0.3,7.6-0.4"/>
					<g>
						<path class="st14" d="M901.1,485.6c0.4-0.2,1-0.4,1.6-0.5c0.1,0,0,0.1,0,0.2c-0.2,0.2-0.4,0.4-0.7,0.6c0.1,0,0.2-0.1,0.3-0.1
							c-0.3,0.1-0.7,0.1-1,0c0.4-0.1,0.8,0,1.2,0c0.4,0,0.7,0,1-0.1c0.1,0,0.2-0.1,0.3-0.1c0.1-0.1,0.1-0.1,0-0.2
							c-0.1,0.1-0.1,0.2-0.2,0.3c0.1-0.1,0.2-0.1,0.3-0.2c0,0.1-0.1,0.1-0.1,0.2c0.1,0,0.2-0.1,0.3-0.1c0,0.1,0,0.1,0,0.2
							c0.2-0.1,0.3-0.1,0.4-0.2c0,0,0,0.1,0,0.1c0.1,0,0.1-0.1,0.2-0.1c0.2-0.2,0.4-0.5,0.6-0.8c-0.3,0.4-0.5,0.8-0.7,1.2
							c0.1-0.1,0.1-0.2,0.3-0.2c0.1-0.1,0.3-0.1,0.5-0.2c0.1,0,0.2,0,0.2-0.1c0,0-0.1,0.1-0.1,0.1c0.2-0.2,0.8-0.2,1-0.3
							c0,0.1-0.1,0.1-0.1,0.2c0.1-0.1,0.3-0.1,0.4-0.1c0,0,0,0,0.1,0.1c0.2,0,0.4,0,0.6-0.1c0.2-0.1,0.3-0.2,0.4-0.3
							c0.3-0.2,0.5-0.5,0.6-0.7c-0.2,0.1-0.2,0.2-0.3,0.3c-0.2,0.3-0.4,0.6-0.6,0.9c0-0.1,0-0.2,0.2-0.3c0,0,0,0-0.1,0
							c0.2-0.1,0.5-0.1,0.8-0.1c0,0.1-0.1,0.1-0.3,0.1c0.4-0.2,0.8-0.4,1.3-0.6c0,0.1-0.2,0.2-0.1,0.3c0,0,0.1,0,0.2,0
							c0.3,0,0.7,0.1,1,0.1c-0.6,0.1-1.2,0.1-1.8,0c0.1,0,0.1,0,0.2-0.1"/>
						<path class="st14" d="M904.2,485.2c1.3-0.1,2.5-0.3,3.8-0.4c0.6-0.1,1.1-0.1,1.7-0.1c0.4,0,0.8,0,1.2,0c0.2,0,0.3,0.1,0.3,0.2
							c0,0-0.1,0.1-0.1,0.1c-0.3,0.1-0.7,0.2-1.1,0.2c-0.7,0.1-1.4,0.1-2.2,0.2c-1.8,0.1-3.6,0.4-5.4,0.4c0,0,0.1,0,0.1,0"/>
					</g>
					<g>
						<g>
							<path d="M898.5,478.6c-1.5,0-2.7-0.6-2.5-1.3c0.2-0.7,1.6-1.3,3.1-1.3c1.5,0,2.6,0.6,2.5,1.3
								C901.4,478,900,478.6,898.5,478.6z M899,476.2c-1.3,0-2.5,0.5-2.7,1.1c-0.2,0.6,0.8,1.1,2.2,1.1s2.6-0.5,2.7-1.1
								C901.3,476.7,900.3,476.2,899,476.2z"/>
							<g>
								<path d="M900.8,477.3c-0.1,0.5-1.1,0.9-2.2,0.9c-1.1,0-1.9-0.4-1.8-0.9c0.1-0.5,1.1-0.9,2.2-0.9
									C900.1,476.4,900.9,476.8,900.8,477.3z"/>
							</g>
						</g>
					</g>
				</g>
			</g>
			<g>
				<g>
					<polygon class="st3" points="696.2,479.4 807.7,479.2 845.7,523 659.2,523.6 					"/>
					<path class="st6" d="M807.5,479.6l37.3,43L660,523.2l36.4-43.4L807.5,479.6 M807.8,478.8L696.1,479l-37.8,45l188.2-0.6
						L807.8,478.8L807.8,478.8z"/>
				</g>
				<g>
					<g>
						<defs>
							<path id="SVGID_3_" d="M758.2,508.8l-34.2,0.1c-1.8,0-3-0.7-2.7-1.5l6.6-20.8c0.2-0.5,1.4-0.9,2.7-0.9l25.8-0.1
								c1.3,0,2.5,0.4,2.5,0.9l2.2,20.8C761.4,508.1,760,508.8,758.2,508.8z"/>
						</defs>
						<use xlink:href="#SVGID_3_"  style="overflow:visible;fill:#FFFFFF;"/>
						<clipPath id="SVGID_4_">
							<use xlink:href="#SVGID_3_"  style="overflow:visible;"/>
						</clipPath>
						<g class="st15">
							<polyline class="st16" points="729.2,507.7 728.8,507.7 728.6,508.5 730.1,508.5 730.3,507.4 731.7,507.4 731.5,508.2 
								731.1,508.2 							"/>
							<polyline class="st16" points="727.1,507.7 726.8,507.7 726.6,508.5 728,508.5 728.3,507.4 729.7,507.4 729.5,508.2 
								729.1,508.2 							"/>
							<polyline class="st16" points="731.2,507.7 730.8,507.7 730.7,508.5 732.1,508.5 732.3,507.4 733.7,507.4 733.6,508.2 
								733.2,508.2 							"/>
							<polyline class="st16" points="735.3,507.7 734.9,507.7 734.8,508.5 736.2,508.5 736.4,507.4 737.8,507.4 737.7,508.2 
								737.3,508.2 							"/>
							<polyline class="st16" points="733.2,507.7 732.9,507.7 732.7,508.5 734.2,508.5 734.4,507.4 735.8,507.4 735.6,508.2 
								735.2,508.2 							"/>
							<polyline class="st16" points="737.3,507.7 736.9,507.7 736.8,508.5 738.3,508.5 738.4,507.4 739.8,507.4 739.7,508.2 
								739.3,508.2 							"/>
							<polyline class="st16" points="739.3,507.7 739,507.7 738.9,508.5 740.3,508.5 740.4,507.4 741.8,507.4 741.8,508.2 
								741.4,508.2 							"/>
							<polyline class="st16" points="741.4,507.7 741,507.7 740.9,508.5 742.3,508.5 742.5,507.4 743.9,507.4 743.8,508.2 
								743.4,508.2 							"/>
							<polyline class="st16" points="745.4,507.7 745.1,507.7 745,508.5 746.4,508.5 746.5,507.4 747.9,507.4 747.9,508.2 
								747.5,508.2 							"/>
							<polyline class="st16" points="743.4,507.7 743,507.7 743,508.5 744.4,508.5 744.5,507.4 745.9,507.4 745.8,508.2 
								745.4,508.2 							"/>
							<polyline class="st16" points="747.4,507.7 747.1,507.7 747.1,508.5 748.5,508.5 748.5,507.4 749.9,507.4 749.9,508.2 
								749.5,508.2 							"/>
							<polyline class="st16" points="751.5,507.6 751.2,507.6 751.2,508.5 752.6,508.5 752.6,507.3 754,507.3 754,508.1 
								753.6,508.1 							"/>
							<polyline class="st16" points="749.5,507.6 749.1,507.6 749.1,508.5 750.5,508.5 750.5,507.3 752,507.3 752,508.2 
								751.6,508.2 							"/>
							<polyline class="st16" points="753.5,507.6 753.2,507.6 753.2,508.4 754.6,508.4 754.6,507.3 756,507.3 756.1,508.1 
								755.6,508.1 							"/>
							<polyline class="st16" points="755.6,507.6 755.2,507.6 755.3,508.4 756.7,508.4 756.6,507.3 758,507.3 758.1,508.1 
								757.7,508.1 							"/>
							<polyline class="st16" points="757.6,507.6 757.2,507.6 757.3,508.4 758.7,508.4 758.6,507.3 760.1,507.3 760.1,508.1 
								759.7,508.1 							"/>
							<polyline class="st16" points="761.7,507.6 761.3,507.6 761.4,508.4 762.8,508.4 762.7,507.3 764.1,507.3 764.2,508.1 
								763.8,508.1 							"/>
							<polyline class="st16" points="759.6,507.6 759.3,507.6 759.3,508.4 760.8,508.4 760.7,507.3 762.1,507.3 762.2,508.1 
								761.8,508.1 							"/>
							<polyline class="st16" points="763.7,507.6 763.3,507.6 763.4,508.4 764.9,508.4 764.7,507.3 766.1,507.3 766.2,508.1 
								765.8,508.1 							"/>
						</g>
						<path class="st17" d="M721.6,510.9c-6.2,0-8.2-7.5-4.9-15.3c2.7-6.6,8.3-11.2,12.9-11.2c4.5,0,7.4,4.6,6.2,11.1
							C734.3,503.4,727.9,510.9,721.6,510.9z"/>
						
							<use xlink:href="#SVGID_3_"  style="overflow:visible;fill:none;stroke:#231F20;stroke-width:0.1752;stroke-linecap:round;stroke-linejoin:round;stroke-miterlimit:10;"/>
					</g>
					<g>
						<path class="st18" d="M738.6,501.3l-0.6,3.9c-0.1,0.8,1.1,1.4,2.7,1.4l13.2,0c1.6,0,2.9-0.6,2.8-1.4l-0.2-3.9
							c0-0.7-1.3-1.2-2.8-1.2l-12.3,0C740,500.1,738.7,500.7,738.6,501.3z"/>
						<g>
							<path class="st18" d="M756.5,500.6l0.3,5.4c0,0.3-0.5,0.6-1.2,0.6l-0.6,0c-1.3,0-2.4-0.8-2.5-1.8c0-0.2,0.1-0.4,0.1-0.6
								c0,0,0-0.1,0-0.1c0.1-0.2,0.1-0.3,0.2-0.5c0,0,0,0,0-0.1c0.1-0.1,0.1-0.2,0.1-0.3c0-0.1-0.1-0.3-0.2-0.4
								c0-0.1-0.1-0.1-0.1-0.2c-0.1-0.3-0.3-0.7-0.3-1c0-0.9,0.9-1.6,2.2-1.6l0.6,0C756,500.1,756.5,500.3,756.5,500.6"/>
							<path class="st18" d="M751.4,503.2c0,0.7-1,1.2-2.5,1.4l-3.1,0.2c-0.8,0.1-1.5,0-2.1-0.3c-0.7-0.3-1.1-0.8-1.1-1.2
								c0-0.5,0.5-0.9,1.3-1.2c0.6-0.2,1.4-0.3,2.1-0.3l3,0.2C750.4,502,751.4,502.5,751.4,503.2"/>
						</g>
					</g>
					<g>
						<path class="st18" d="M741.5,486.6l-0.2,1.2c0,0.2,0.4,0.4,0.9,0.4l4.9,0c0.5,0,1-0.2,1-0.4l0.1-1.2c0-0.2-0.4-0.3-0.9-0.3
							l-4.8,0C741.9,486.3,741.5,486.4,741.5,486.6z"/>
						<g>
							<path class="st18" d="M748.1,486.4l-0.1,1.6c0,0.1-0.2,0.2-0.4,0.2l-0.2,0c-0.5,0-0.9-0.2-0.8-0.5c0-0.1,0-0.1,0.1-0.2
								c0,0,0,0,0,0c0,0,0.1-0.1,0.1-0.1c0,0,0,0,0,0c0,0,0.1-0.1,0.1-0.1c0,0,0-0.1-0.1-0.1c0,0,0,0,0,0c0-0.1-0.1-0.2-0.1-0.3
								c0-0.3,0.4-0.5,0.9-0.5l0.2,0C748,486.2,748.1,486.3,748.1,486.4"/>
							<path class="st19" d="M746.2,487.2c0,0.2-0.4,0.4-0.9,0.4l-1.1,0.1c-0.3,0-0.6,0-0.8-0.1c-0.3-0.1-0.4-0.2-0.4-0.4
								c0-0.1,0.2-0.3,0.5-0.4c0.2-0.1,0.5-0.1,0.8-0.1l1.1,0C745.8,486.8,746.2,487,746.2,487.2"/>
							<path class="st20" d="M745,487.5l-1.4,0.1c-0.1,0-0.2,0-0.2,0c0.2,0.1,0.4,0.1,0.7,0.1l1.1-0.1c0.6,0,0.9-0.2,0.9-0.4
								c0,0,0-0.1,0-0.1C746,487.3,745.6,487.5,745,487.5"/>
							<path class="st18" d="M746.2,487.2c0,0.2-0.4,0.4-0.9,0.4l-1.1,0.1c-0.3,0-0.6,0-0.8-0.1c-0.3-0.1-0.4-0.2-0.4-0.4
								c0-0.1,0.2-0.3,0.5-0.4c0.2-0.1,0.5-0.1,0.8-0.1l1.1,0C745.8,486.8,746.2,487,746.2,487.2"/>
						</g>
					</g>
					<g>
						<line class="st21" x1="739.4" y1="499.2" x2="739.7" y2="497.1"/>
						<line class="st21" x1="737.6" y1="499.2" x2="738.1" y2="496.5"/>
						<line class="st21" x1="741.2" y1="499.2" x2="741.6" y2="496.5"/>
						<line class="st21" x1="743.1" y1="499.2" x2="743.5" y2="494.5"/>
						<line class="st21" x1="744.9" y1="499.2" x2="745.1" y2="496.4"/>
						<line class="st21" x1="746.7" y1="499.2" x2="746.9" y2="494.1"/>
						<line class="st21" x1="748.5" y1="499.2" x2="748.6" y2="495"/>
						<line class="st21" x1="750.3" y1="499.2" x2="750.3" y2="496.4"/>
						<line class="st21" x1="752.1" y1="499.2" x2="752" y2="489.5"/>
						<line class="st21" x1="753.9" y1="499.2" x2="753.7" y2="491.8"/>
						<line class="st21" x1="753.5" y1="486.4" x2="753.6" y2="490.5"/>
						<line class="st21" x1="755.7" y1="499.2" x2="755.6" y2="496.4"/>
						<line class="st21" x1="755.4" y1="493.4" x2="755.3" y2="491.6"/>
						<line class="st21" x1="757.5" y1="499.2" x2="757.3" y2="496.4"/>
						<line class="st21" x1="757.1" y1="493.4" x2="757" y2="491.6"/>
						<line class="st21" x1="755.2" y1="489.6" x2="755.1" y2="488.5"/>
						<line class="st21" x1="756.8" y1="489.6" x2="756.7" y2="488.5"/>
						<line class="st22" x1="737.1" y1="488.8" x2="737.6" y2="486.1"/>
						<line class="st22" x1="738.1" y1="488.4" x2="738.4" y2="486.5"/>
						<line class="st22" x1="739" y1="487.9" x2="739.2" y2="487"/>
					</g>
					<path d="M756.2,486.4C756.2,486.4,756.1,486.5,756.2,486.4C756.1,486.5,756.1,486.5,756.2,486.4l-0.1,0.1
						c0,0.1,0.1,0.1,0.2,0.1c0.2,0,0.3,0.1,0.3,0.2c0,0.1-0.2,0.2-0.4,0.2l-0.2,0c0,0-0.1,0-0.1,0c0,0,0,0-0.1,0c0,0,0,0-0.1,0
						c-0.1,0-0.1,0-0.1,0c0,0-0.2,0.1-0.3,0.1l-0.1,0c-0.1,0-0.1,0.1-0.1,0.1c0,0,0,0.1,0,0.1c0,0-0.3,0.1-0.3,0.1
						c-0.1,0-0.1,0.1,0,0.1l0,0l0.1,0c0,0,0,0,0,0c0,0-0.2,0.2-0.3,0.3l0,0c-0.1,0.1,0.1,0.1,0.2,0.1c0,0,0.1,0,0.1,0
						c0,0,1.1-0.3,1.1-0.3c0,0,0.1,0,0.1,0c0,0-0.1-0.1-0.1-0.1c0,0-0.1,0-0.1,0c0,0-1,0.2-1,0.2c0,0,0,0,0,0c0,0,0,0,0.1,0
						c0.9-0.3,1.1-0.3,1.1-0.3c0,0,0,0,0,0c0,0,0.1,0,0.1,0l0.2,0c0.1,0,0.1,0,0.2,0c0,0,0.4-0.3,0.5-0.3c0,0,0.1-0.1,0.1-0.1
						c0,0,0-0.1-0.1-0.1c-0.1,0-0.2-0.1-0.3-0.2c0,0,0,0,0-0.1c0-0.1,0-0.1-0.2-0.1l-0.3,0C756.3,486.4,756.3,486.4,756.2,486.4z"/>
					<g>
						<g>
							<path d="M730.6,506.3c-0.2,0.9-1.9,1.6-3.7,1.6c-1.9,0-3.2-0.7-2.9-1.6c0.3-0.9,1.9-1.6,3.7-1.6
								C729.5,504.8,730.8,505.4,730.6,506.3z M724.4,506.3c-0.2,0.8,0.9,1.4,2.6,1.4c1.6,0,3.1-0.6,3.3-1.4c0.2-0.8-1-1.4-2.6-1.4
								C726.1,505,724.6,505.6,724.4,506.3z"/>
							<g>
								<path d="M727.6,505.2c1.3,0,2.3,0.5,2.1,1.1c-0.1,0.6-1.4,1.2-2.7,1.2c-1.4,0-2.3-0.5-2.1-1.2
									C725,505.7,726.3,505.2,727.6,505.2z"/>
							</g>
						</g>
					</g>
					<line class="st23" x1="727.2" y1="500.4" x2="731.1" y2="486.3"/>
					<line class="st23" x1="729.9" y1="500.3" x2="732.4" y2="490.3"/>
					<line class="st24" x1="727.8" y1="504.2" x2="728.5" y2="501.4"/>
				</g>
			</g>
			<g>
				<g>
					<polygon class="st3" points="803.8,481.7 864.3,452.4 936.7,510.9 870.7,556.8 					"/>
					<path class="st6" d="M864.2,452.8l71.8,58l-65.3,45.5l-66.3-74.5L864.2,452.8 M864.3,451.9l-61.2,29.7l67.5,75.8l66.7-46.5
						L864.3,451.9L864.3,451.9z"/>
				</g>
				<g>
					<g>
						<path class="st25" d="M856.3,513.3L842,498.5c-0.7-0.7-0.4-1.8,0.6-2.3l30.9-16.9c0.9-0.5,2.2-0.4,3,0.3l15,12.9
							c0.8,0.7,0.7,1.7-0.2,2.3l-31.6,18.9C858.6,514.3,857.1,514.1,856.3,513.3z"/>
						<g>
							<defs>
								<path id="SVGID_5_" d="M855.2,497.7l-6.4,3.6c-0.4,0.2-0.5,0.7-0.2,1l6.5,6.6c0.3,0.3,1,0.4,1.4,0.1l6.5-3.8
									c0.4-0.3,0.5-0.7,0.2-1.1l-6.6-6.4C856.3,497.6,855.7,497.5,855.2,497.7z"/>
							</defs>
							<use xlink:href="#SVGID_5_"  style="overflow:visible;fill:#FFFFFF;"/>
							<clipPath id="SVGID_6_">
								<use xlink:href="#SVGID_5_"  style="overflow:visible;"/>
							</clipPath>
							<g class="st26">
								<path class="st27" d="M865.3,505.7l-9.2,5.4c-0.5,0.3-1.3,0.2-1.6-0.2l-0.3-0.3c-0.7-0.8-0.1-2.1,1.5-3.1
									c0.3-0.2,0.7-0.3,1.1-0.5c0.1,0,0.2-0.1,0.2-0.1c0.3-0.1,0.6-0.2,0.9-0.3c0,0,0.1,0,0.2,0c0.2-0.1,0.4-0.1,0.6-0.2
									c0.2-0.1,0.4-0.3,0.6-0.5c0.1-0.1,0.1-0.1,0.2-0.2c0.4-0.4,0.9-0.8,1.5-1.2c1.6-0.9,3.4-1.1,4.2-0.3l0.3,0.3
									C865.9,504.8,865.8,505.4,865.3,505.7"/>
								<path class="st27" d="M857.7,505.2c-1.2,0.7-2.6,0.6-3.7-0.1l-2-1.6c-0.5-0.4-0.8-0.9-0.7-1.5c0.1-0.7,0.6-1.4,1.4-1.8
									c0.8-0.4,1.8-0.6,2.7-0.5c0.7,0.1,1.3,0.4,1.7,0.9l1.4,1.9C859.2,503.5,858.9,504.6,857.7,505.2"/>
								<path class="st27" d="M854.2,504.5l-2.5-1.9c-0.2-0.1-0.3-0.2-0.4-0.4c0,0.5,0.3,0.9,0.7,1.3l2,1.6c1,0.8,2.5,0.8,3.7,0.1
									c0.2-0.1,0.3-0.2,0.4-0.3C856.8,505.5,855.3,505.3,854.2,504.5"/>
								<path class="st27" d="M857.7,505.2c-1.2,0.7-2.6,0.6-3.7-0.1l-2-1.6c-0.5-0.4-0.8-0.9-0.7-1.5c0.1-0.7,0.6-1.4,1.4-1.8
									c0.8-0.4,1.8-0.6,2.7-0.5c0.7,0.1,1.3,0.4,1.7,0.9l1.4,1.9C859.2,503.5,858.9,504.6,857.7,505.2"/>
							</g>
							
								<use xlink:href="#SVGID_5_"  style="overflow:visible;fill:none;stroke:#231F20;stroke-width:8.740073e-02;stroke-linecap:round;stroke-linejoin:round;stroke-miterlimit:10;"/>
						</g>
						<line class="st27" x1="856.8" y1="511.3" x2="865.5" y2="506.1"/>
						<line class="st27" x1="856.2" y1="510.8" x2="865" y2="505.6"/>
						<line class="st27" x1="860.8" y1="492.4" x2="869.6" y2="487.5"/>
						<line class="st27" x1="861.1" y1="495.6" x2="874.5" y2="488"/>
						<line class="st27" x1="863.8" y1="495.2" x2="872.6" y2="490.3"/>
						<line class="st27" x1="862.2" y1="498.6" x2="878.3" y2="489.4"/>
						<line class="st27" x1="864.9" y1="498.3" x2="877" y2="491.3"/>
						<line class="st27" x1="867.1" y1="498.3" x2="875.9" y2="493.2"/>
						<line class="st27" x1="872.8" y1="499" x2="881.6" y2="493.8"/>
						<line class="st27" x1="876" y1="501.9" x2="884.8" y2="496.7"/>
						<line class="st27" x1="863" y1="492.2" x2="868.7" y2="489"/>
						<line class="st27" x1="857.4" y1="512" x2="858.6" y2="513.2"/>
						<line class="st27" x1="866.2" y1="506.8" x2="867.3" y2="507.9"/>
						<line class="st27" x1="858.2" y1="511.5" x2="859.4" y2="512.7"/>
						<line class="st27" x1="859.1" y1="511" x2="860.2" y2="512.2"/>
						<line class="st27" x1="860.1" y1="510.4" x2="861.3" y2="511.5"/>
						<line class="st27" x1="859.7" y1="510.7" x2="860.8" y2="511.8"/>
						<line class="st27" x1="861.5" y1="509.6" x2="862.6" y2="510.7"/>
						<line class="st27" x1="862.8" y1="508.8" x2="863.9" y2="509.9"/>
						<line class="st27" x1="863.7" y1="508.3" x2="864.8" y2="509.4"/>
						<line class="st27" x1="864.1" y1="508.1" x2="865.2" y2="509.2"/>
						<line class="st27" x1="864.8" y1="507.6" x2="866" y2="508.7"/>
						<line class="st27" x1="865.5" y1="507.2" x2="866.6" y2="508.3"/>
						<line class="st27" x1="862.1" y1="509.2" x2="863.3" y2="510.4"/>
						<line class="st27" x1="860.8" y1="510" x2="862" y2="511.1"/>
						<line class="st28" x1="852.1" y1="493.6" x2="869.9" y2="483.8"/>
						<polygon class="st27" points="887.8,494.2 871.9,503.6 869.7,501.5 885.5,492.3 						"/>
						<g>
							<line class="st27" x1="877.8" y1="485.6" x2="875.8" y2="486.7"/>
							<line class="st27" x1="880.5" y1="484.1" x2="878.5" y2="485.2"/>
						</g>
						<line class="st27" x1="876.8" y1="486.7" x2="880.3" y2="484.8"/>
						<line class="st29" x1="876.9" y1="485" x2="877.9" y2="484.4"/>
						<line class="st27" x1="876.9" y1="487.3" x2="881.1" y2="485"/>
						<path class="st27" d="M876.9,497.7c0.1,0.6,0.1,1.2-0.2,1.8c-0.1,0.3-0.3,0.7-0.3,1c0.4-0.7-0.1-1.2,0-1.9
							c0.2,0.3,0.1,0.8-0.1,1.3c-0.1,0.1-0.2,0.2-0.3,0.3c-0.1,0-0.2,0-0.3,0c-0.3,0-0.6,0-0.9-0.1c0.6-0.2,1.3-0.4,1.8-0.8
							c-0.3,0.1-0.5,0.2-0.8,0.2c0.1-0.1,0.1-0.3,0.3-0.4c0.1-0.1,0.3-0.3,0.5-0.3c0.1,0.2,0.2,0.5,0.1,0.8c0.1-0.4,0.2-0.8,0.4-1.2
							c0,0.3-0.1,0.5-0.1,0.8c0-0.2,0.1-0.4,0.1-0.6c-0.1,0.2-0.2,0.4-0.1,0.6c2.4-2,4.9-3.9,7.5-5.7"/>
						<line class="st27" x1="858.6" y1="511.3" x2="859.8" y2="512.4"/>
						<line class="st27" x1="858.7" y1="511.2" x2="859.9" y2="512.4"/>
						<line class="st27" x1="859.4" y1="510.8" x2="860.6" y2="512"/>
						<line class="st27" x1="861.2" y1="509.8" x2="862.3" y2="510.9"/>
						<line class="st27" x1="861.6" y1="509.5" x2="862.7" y2="510.7"/>
						<line class="st27" x1="862.3" y1="509.1" x2="863.4" y2="510.3"/>
						<line class="st27" x1="863.2" y1="508.6" x2="864.4" y2="509.7"/>
						<line class="st27" x1="864.5" y1="507.8" x2="865.6" y2="508.9"/>
						<line class="st27" x1="864.6" y1="507.8" x2="865.7" y2="508.9"/>
						<line class="st27" x1="865.2" y1="507.4" x2="866.3" y2="508.5"/>
						<line class="st27" x1="865.6" y1="507.1" x2="866.8" y2="508.3"/>
						<line class="st27" x1="862.6" y1="509" x2="863.7" y2="510.1"/>
						<line class="st30" x1="855.4" y1="493.4" x2="868.2" y2="486.3"/>
						<line class="st28" x1="845.1" y1="497.4" x2="848.4" y2="495.5"/>
					</g>
					<g>
						<path d="M876.2,483.6c-1,0.5-2.4,0.4-3.2-0.3c-0.8-0.7-0.6-1.7,0.3-2.2c1-0.5,2.4-0.4,3.2,0.3
							C877.3,482.1,877.2,483.1,876.2,483.6z M873.5,481.2c-0.9,0.5-1,1.4-0.3,2c0.7,0.6,2,0.7,2.8,0.2c0.9-0.5,1-1.4,0.3-2
							C875.6,480.9,874.3,480.8,873.5,481.2z"/>
						<path d="M876,481.6c0.6,0.5,0.5,1.2-0.2,1.6c-0.7,0.4-1.8,0.3-2.3-0.2c-0.6-0.5-0.5-1.2,0.2-1.6
							C874.4,481,875.4,481.1,876,481.6z"/>
					</g>
				</g>
			</g>
		</g>
	</g>
</g>
</svg>
