<?xml version="1.0" encoding="utf-8"?>
<!-- Generator: Adobe Illustrator 24.0.0, SVG Export Plug-In . SVG Version: 6.00 Build 0)  -->
<svg version="1.1" id="Layer_1" xmlns="http://www.w3.org/2000/svg" xmlns:xlink="http://www.w3.org/1999/xlink" x="0px" y="0px"
	 viewBox="0 0 1920 1080" style="enable-background:new 0 0 1920 1080;" xml:space="preserve">
<style type="text/css">
	.st0{clip-path:url(#SVGID_5_);}
	.st1{clip-path:url(#SVGID_7_);}
	.st2{fill:#FFFFFF;stroke:#231F20;stroke-width:0.9705;stroke-miterlimit:10;}
	.st3{fill:#FFFFFF;stroke:#231F20;stroke-width:0.9792;stroke-miterlimit:10;}
	.st4{fill:#FFFFFF;}
	.st5{clip-path:url(#SVGID_9_);}
	.st6{fill:none;stroke:#231F20;stroke-width:0.3264;stroke-miterlimit:10;}
	.st7{fill:none;stroke:#231F20;stroke-width:0.6528;stroke-miterlimit:10;}
	.st8{fill:none;stroke:#231F20;stroke-width:0.9792;stroke-miterlimit:10;}
	.st9{clip-path:url(#SVGID_11_);}
	.st10{clip-path:url(#SVGID_13_);}
	.st11{stroke:#231F20;stroke-width:0.9792;stroke-miterlimit:10;}
	.st12{clip-path:url(#SVGID_15_);}
	.st13{fill:#ED1C24;}
	.st14{fill:#231F20;}
</style>
<g>
	<defs>
		<rect id="SVGID_4_" width="1920" height="1080"/>
	</defs>
	<clipPath id="SVGID_5_">
		<use xlink:href="#SVGID_4_"  style="overflow:visible;"/>
	</clipPath>
	<g class="st0">
		<g>
			<rect id="SVGID_1_" width="1918.8" height="1080.2"/>
		</g>
		<g>
			<g>
				<defs>
					<rect id="SVGID_6_" x="342.2" y="192.7" width="1234.3" height="694.9"/>
				</defs>
				<clipPath id="SVGID_7_">
					<use xlink:href="#SVGID_6_"  style="overflow:visible;"/>
				</clipPath>
				<g class="st1">
					<path class="st2" d="M946.9,279.3c-12.8,0-17.8,7.3-19.8,12.6h38.4C965.4,291.9,962,279.3,946.9,279.3z"/>
					<path class="st2" d="M921.3,301.8c1-4.3,3.7-11.1,10-11.1c4.2,0,8.8,0,13.8,0c0.6,0,1.4,0,2.1,0c5,0,9.6,0,13.8,0
						c6.4,0,9.1,6.9,10,11.1c1,4.3,0,9.3,0,9.3h-23h-3.7h-23C921.3,311,920.4,306.1,921.3,301.8z"/>
					<path class="st2" d="M976.4,332.4c0,0,0-13.8,0-17.3s-5.5-5.5-9.5-5.5c-4,0-27.3,0.2-36.6,0s-12.2,3.5-12.2,3.5v19L976.4,332.4
						z"/>
					<path class="st3" d="M969.2,843c0,0,18.3-9.4,20.3-17.4c2.1-7.9,4.2-53.3,4.1-69.7c-0.1-23.4-4.1-47-6.2-53.5
						c-2.1-6.6-3.9-10-3.9-10s-4.1,6.2-2.4,10c0.4,0.9,6.3,24.1,7.3,53.2c0.4,11.1-2.2,33.8-4.9,39C978.2,793.2,969.2,843,969.2,843
						z"/>
					<g>
						<g>
							<path id="SVGID_3_" class="st4" d="M946.4,540c-10.1,0-20.8,0-23.9,0s-5.3,0.6-5.3,8.4s0,245,0,254.4s-4.4,57.4,27.5,57.4
								s31.6-35.3,31.6-55.7c0-20.5,0-260.9,0-261.8c0-1-0.6-2.7-8-2.7C960.9,540,946.4,540,946.4,540z"/>
						</g>
						<g>
							<g>
								<defs>
									<path id="SVGID_8_" d="M946.4,540c-10.1,0-20.8,0-23.9,0s-5.3,0.6-5.3,8.4s0,245,0,254.4s-4.4,57.4,27.5,57.4
										s31.6-35.3,31.6-55.7c0-20.5,0-260.9,0-261.8c0-1-0.6-2.7-8-2.7C960.9,540,946.4,540,946.4,540z"/>
								</defs>
								<clipPath id="SVGID_9_">
									<use xlink:href="#SVGID_8_"  style="overflow:visible;"/>
								</clipPath>
								<g class="st5">
									<line class="st6" x1="919.5" y1="803.2" x2="919.5" y2="540.1"/>
									<line class="st6" x1="923.2" y1="803.2" x2="923.2" y2="540.1"/>
									<line class="st7" x1="959.5" y1="803.2" x2="959.5" y2="540.1"/>
									<line class="st6" x1="966.1" y1="803.2" x2="966.1" y2="540.1"/>
									<line class="st6" x1="971.6" y1="803.2" x2="971.6" y2="540.1"/>
									<line class="st7" x1="929.2" y1="803.2" x2="929.2" y2="540.1"/>
									<line class="st7" x1="952.4" y1="803.2" x2="952.4" y2="540.1"/>
									<line class="st8" x1="936.5" y1="803.2" x2="936.5" y2="540.1"/>
									<line class="st8" x1="944.6" y1="540.1" x2="944.6" y2="803.2"/>
									<path class="st6" d="M976.3,799.5c0,0,2.1,3.7-19.6,3.7s-23.8,0-30.6,0c-6.7,0-9.3-1.9-9.3-1.9"/>
								</g>
							</g>
						</g>
						<g>
							<g>
								<defs>
									<path id="SVGID_10_" d="M946.4,540c-10.1,0-20.8,0-23.9,0s-5.3,0.6-5.3,8.4s0,245,0,254.4s-4.4,57.4,27.5,57.4
										s31.6-35.3,31.6-55.7c0-20.5,0-260.9,0-261.8c0-1-0.6-2.7-8-2.7C960.9,540,946.4,540,946.4,540z"/>
								</defs>
								<clipPath id="SVGID_11_">
									<use xlink:href="#SVGID_10_"  style="overflow:visible;"/>
								</clipPath>
								<g class="st9">
									<path d="M920.9,801.6c0,0,0,15.3,0,25s9.1,25.2,13.6,25.2s7.2-2,7.2-7.9s0-8.7,0-8.7s-3,1.2-3,0c0-1.2-1.7-31.6,0-31.6
										s13.1,0,13.1,0v31.6h-3.4c0,0-2.3,8.7-2.3,10.9s0,4.2,3,3.5s6.7-0.5,6.7-0.5s-8.9,7.2-17.4,5.7c9.3,1.5,18.7,2.3,23.4-8.2
										c-1.7,7.7-5.9,11.4-16.1,11.4c-10.2,0-28.4-12.1-28.4-33.4s0-23,0-23h3.7L920.9,801.6L920.9,801.6z"/>
									<circle class="st4" cx="945.1" cy="826.7" r="3"/>
									<circle class="st4" cx="945.1" cy="811.2" r="3"/>
								</g>
							</g>
						</g>
						<g>
							<g>
								<defs>
									<path id="SVGID_12_" d="M946.4,540c-10.1,0-20.8,0-23.9,0s-5.3,0.6-5.3,8.4s0,245,0,254.4s-4.4,57.4,27.5,57.4
										s31.6-35.3,31.6-55.7c0-20.5,0-260.9,0-261.8c0-1-0.6-2.7-8-2.7C960.9,540,946.4,540,946.4,540z"/>
								</defs>
								<clipPath id="SVGID_13_">
									<use xlink:href="#SVGID_12_"  style="overflow:visible;"/>
								</clipPath>
								<path class="st10" d="M971,843.8c-0.8-1.4-0.6-4.4,0.5-7.1c1.2-2.7,1.6-10.4,2.4-12.9c0.8-2.6-0.4-11.8,1-15.5l3-6.9
									c0,0,0.1,31.8-1.6,34.6C974.6,838.8,971,843.8,971,843.8z"/>
							</g>
						</g>
						<g>
							<path id="SVGID_2_" class="st8" d="M946.4,540c-10.1,0-20.8,0-23.9,0s-5.3,0.6-5.3,8.4s0,245,0,254.4s-4.4,57.4,27.5,57.4
								s31.6-35.3,31.6-55.7c0-20.5,0-260.9,0-261.8c0-1-0.6-2.7-8-2.7C960.9,540,946.4,540,946.4,540z"/>
						</g>
					</g>
					<path class="st3" d="M976.3,802.8c0,0,3.4,2.6,3.9,3.9c0.5,1.4,3.8,6.9,8.7,3.9c5-2.9,0.7-9.8-2.4-12.5c-3.1-2.7-10.3-8-10.3-8
						L976.3,802.8L976.3,802.8z"/>
					<circle class="st3" cx="986" cy="805.8" r="2.2"/>
					<path class="st3" d="M970.3,540c0-1.8,0-206.5,0-206.5s-6.5-1.2-23.7-1.2c-17.2,0-23.4,1.2-23.4,1.2v1.2V540H970.3z"/>
					<g>
						<path class="st11" d="M918,332.4c0.2,1,5.3,2.3,5.3,2.3s1-1.4,2.3-1.5c1.3-0.1,16.9-0.8,21-0.8s4.8-2.5,0-2.7
							s-20.5,1.2-23.8,1.3C919.6,331,918,332.4,918,332.4z"/>
						<path class="st11" d="M976.4,332.4c-0.2,1-5.3,2.3-5.3,2.3s-1-1.4-2.3-1.5c-1.3-0.1-16.9-0.8-21-0.8c-4.2,0-4.8-2.5,0-2.7
							c4.8-0.2,20.5,1.2,23.8,1.3C974.8,331,976.4,332.4,976.4,332.4z"/>
					</g>
					<g>
						<line class="st6" x1="919.5" y1="329.6" x2="919.5" y2="310.8"/>
						<line class="st6" x1="923.2" y1="329.6" x2="923.2" y2="310.8"/>
						<line class="st7" x1="959.5" y1="329.6" x2="959.5" y2="310.8"/>
						<line class="st6" x1="966.1" y1="329.6" x2="966.1" y2="310.8"/>
						<line class="st6" x1="971.6" y1="329.6" x2="971.6" y2="310.8"/>
						<line class="st7" x1="929.2" y1="329.6" x2="929.2" y2="310.8"/>
						<line class="st7" x1="952.4" y1="329.6" x2="952.4" y2="310.8"/>
						<line class="st8" x1="936.5" y1="329.6" x2="936.5" y2="310.8"/>
						<line class="st8" x1="944.6" y1="310.8" x2="944.6" y2="329.6"/>
					</g>
					<g>
						<g>
							<g>
								<defs>
									<path id="SVGID_14_" d="M921.3,301.8c0.7-3.2,2.4-7.7,5.7-9.8l0,0c2-5.3,7-12.6,19.8-12.6c15.2,0,18.6,12.6,18.6,12.6l0,0
										c3.3,2.2,5,6.7,5.7,9.8c1,4.3,0,9.3,0,9.3h-23h-3.8h-23C921.3,311,920.4,306.1,921.3,301.8z"/>
								</defs>
								<clipPath id="SVGID_15_">
									<use xlink:href="#SVGID_14_"  style="overflow:visible;"/>
								</clipPath>
								<g class="st12">
									<ellipse cx="964.7" cy="304.2" rx="4.6" ry="4.5"/>
									<path d="M963.1,290.6c0,0-5.5-4.6-7.8-4.4c-2.3,0.1-3.5,3.5-3.4,4.4S963.1,290.6,963.1,290.6z"/>
									<g>
										<path d="M938.7,309.7c0,0,5.1-11.5-3-18.3c5.5-2.1,6.6-4.4,4.6-6.2c-2-1.7-9.2,2.1-8.7,4.1c-2.9,2.7-10.1,5.4-9.6,20.5
											c-0.8,2.2-5.2-0.1-4.8-1.2c0.4-1.1,5.6-24.9,9.3-27.9c3.7-3,19.6-5.3,20.8-3.8s1.5,32.2,1.5,32.7c0,0.5-2.9,7.6-3.3,7.2
											C945.1,316.3,938.7,309.7,938.7,309.7z"/>
										<path d="M945.6,313.5c3.7-1,8.5-3.4,10.1-9.3c1.6-5.9-0.3-13.4-3.8-13.6c0,0,1.2-6.5-1-7.3c-2.1-0.8-6.2-0.7-6.2-0.7
											L945.6,313.5z"/>
									</g>
								</g>
							</g>
						</g>
					</g>
					<rect x="936.6" y="311" width="19.6" height="18.6"/>
					<g>
						<path class="st13" d="M950,540.7c-0.4,0-1.2,0-2.4-200.6v-3.8c-2-0.3-3.9-1-5.6-2.1c-3.9,3.8-10.3,10.2-17.7,17.4
							c-25.2,25-63.4,62.8-67.4,62.8c-0.1,0-0.3-0.1-0.3-0.1c-2.1-2.1,28.5-33.2,62.7-67.7c7.3-7.3,13.6-13.7,17.4-17.7
							c-1-1.7-1.7-3.5-2-5.5c-27-0.1-105.9-0.4-179.2-0.8c-135.9-0.8-135.9-1.4-135.9-1.7c0-0.3,0-1,135.9-1.7
							c73.1-0.5,152.1-0.7,179.2-0.8c0.3-1.9,1-3.8,2-5.5c-3.8-3.9-10.2-10.3-17.4-17.7c-34.2-34.5-64.8-65.6-62.7-67.7
							c0.1-0.1,0.2-0.1,0.3-0.1c4.1,0,42.1,37.8,67.4,62.8c7.3,7.3,13.7,13.6,17.7,17.4c1.7-1,3.6-1.7,5.6-2.1v-3.8
							c1.2-200.6,2-200.6,2.4-200.6c0.4,0,1.2,0,2.4,200.8v3.7c2,0.3,3.9,1,5.6,2.1c3.9-3.8,10.3-10.2,17.7-17.4
							c25.2-25,63.4-62.8,67.4-62.8c0.1,0,0.3,0.1,0.3,0.1c2.1,2.1-28.5,33.2-62.7,67.7c-7.3,7.3-13.6,13.7-17.4,17.7
							c1,1.7,1.7,3.5,2,5.5c27,0.1,105.9,0.4,179.2,0.8c135.9,0.8,135.9,1.4,135.9,1.7c0,0.3,0,1-135.9,1.7
							c-73.1,0.5-152.1,0.7-179.2,0.8c-0.3,1.9-1,3.8-2,5.5c3.8,3.9,10.2,10.3,17.4,17.7c34.2,34.5,64.8,65.7,62.7,67.7
							c-0.1,0.1-0.2,0.1-0.3,0.1l0,0c-4.1,0-42.1-37.8-67.4-62.8c-7.3-7.3-13.7-13.6-17.7-17.4c-1.7,1-3.6,1.7-5.6,2.1v3.7
							C951.3,540.7,950.5,540.7,950,540.7z"/>
						<path class="st14" d="M950,101.4c1.2,0,2.1,168.5,2.3,204.4c2.1,0.3,4.1,1,5.7,2.1c17.2-16.7,79.9-80.3,85-80.3
							c0.1,0,0.2,0,0.3,0.1c2.8,2.8-63.3,67.7-80.3,85.3c1,1.7,1.7,3.6,2.1,5.6c58,0.1,315,1.2,315,2.4s-257,2.3-315,2.4
							c-0.3,2.1-1,3.9-2.1,5.6c17,17.6,83,82.5,80.3,85.3c-0.1,0.1-0.1,0.1-0.3,0.1c-5.1,0-67.8-63.7-85-80.3
							c-1.7,1.1-3.7,1.8-5.7,2.1c-0.2,35.9-1.2,204.4-2.3,204.4c-1.2,0-2.1-168.5-2.3-204.4c-2.1-0.3-4.1-1-5.7-2.1
							c-17.2,16.7-79.9,80.3-85,80.3c-0.1,0-0.2,0-0.3-0.1C854,411.5,920,346.6,937,329c-1-1.7-1.7-3.6-2.1-5.6
							c-58-0.1-315-1.2-315-2.4c0-1.2,257-2.3,315-2.4c0.3-2.1,1-3.9,2.1-5.6c-17-17.6-83-82.6-80.3-85.4c0.1-0.1,0.1-0.1,0.3-0.1
							c5.1,0,67.8,63.7,85,80.3c1.7-1.1,3.7-1.8,5.7-2.1C947.9,269.9,948.9,101.4,950,101.4 M950,101.1c-0.4,0-0.5,0-0.7,7.1
							c-0.1,4.2-0.3,10.4-0.4,18.4c-0.2,13.9-0.5,33.7-0.6,58.8c-0.4,44.7-0.7,94.9-0.8,116.3v3.8c-1.9,0.3-3.7,1-5.4,2
							c-4-3.9-10.3-10.1-17.6-17.4c-33.4-33.1-63.7-62.9-67.5-62.9c-0.3,0-0.4,0.1-0.5,0.2c-0.5,0.5-1.6,1.6,21,25.3
							c12.7,13.4,28.9,29.6,41.8,42.6c7.3,7.3,13.6,13.6,17.4,17.6c-1,1.6-1.7,3.4-2,5.3c-27.1,0.1-105.9,0.4-179,0.8
							c-40.1,0.3-72,0.5-94.7,0.7c-13,0.1-23.1,0.3-29.9,0.5c-11.5,0.3-11.5,0.3-11.5,0.7c0,0.4,0,0.5,11.5,0.7
							c6.8,0.1,16.9,0.3,29.9,0.5c22.6,0.3,54.6,0.5,94.7,0.7c73.1,0.5,151.9,0.7,179,0.8c0.3,1.9,1,3.7,2,5.3
							c-3.9,4-10.1,10.3-17.4,17.6c-12.9,13.1-29.1,29.3-41.8,42.6c-22.5,23.7-21.5,24.8-21,25.3c0.1,0.1,0.3,0.2,0.5,0.2
							c3.8,0,34.1-29.8,67.5-62.9c7.3-7.3,13.6-13.6,17.6-17.4c1.7,1,3.5,1.7,5.4,2v3.8c0.1,21.4,0.4,71.6,0.8,116.3
							c0.2,25.1,0.5,44.9,0.6,58.8c0.1,8,0.3,14.2,0.4,18.4c0.2,7.1,0.3,7.1,0.7,7.1c0.4,0,0.5,0,0.7-7.1c0.1-4.2,0.3-10.4,0.4-18.5
							c0.2-14,0.5-33.8,0.6-58.9c0.4-44.8,0.7-94.9,0.8-116.3v-3.6c1.9-0.3,3.7-1,5.4-2c4,3.9,10.3,10.1,17.6,17.4
							c33.4,33.1,63.7,62.9,67.5,62.9c0.3,0,0.4-0.1,0.5-0.2c0.5-0.5,1.6-1.6-21-25.3c-12.7-13.4-28.9-29.6-41.8-42.6
							c-7.3-7.3-13.6-13.6-17.4-17.6c1-1.6,1.7-3.4,2-5.3c27.1-0.1,105.9-0.4,179-0.8c40.1-0.3,72-0.5,94.7-0.7
							c13-0.1,23.1-0.3,29.9-0.5c11.5-0.3,11.5-0.3,11.5-0.7c0-0.4,0-0.5-11.5-0.7c-6.8-0.1-16.9-0.3-29.9-0.5
							c-22.6-0.3-54.6-0.5-94.7-0.7c-73.1-0.5-151.9-0.7-179-0.8c-0.3-1.9-1-3.7-2-5.3c3.9-4,10.1-10.3,17.4-17.6
							c12.9-13.1,29.1-29.3,41.8-42.6c22.5-23.7,21.5-24.8,21-25.3c-0.1-0.1-0.3-0.2-0.5-0.2c-3.8,0-34.1,29.8-67.5,62.9
							c-7.3,7.3-13.6,13.6-17.6,17.4c-1.7-1-3.5-1.7-5.4-2V302c-0.1-21.4-0.4-71.5-0.8-116.3c-0.2-25.2-0.5-45-0.6-58.9
							c-0.1-8-0.3-14.3-0.4-18.5C950.5,101.1,950.4,101.1,950,101.1L950,101.1z"/>
					</g>
					<g>
						<path class="st4" d="M809.1,321c0-0.5,109.7-1,134.4-1c0.1-0.9,0.5-1.7,0.9-2.4c-7.3-7.5-35.4-35.2-34.3-36.4
							c1.2-1.2,28.9,27,36.4,34.3c0.7-0.5,1.5-0.8,2.4-0.9c0.1-15.3,0.5-87.2,1-87.2s0.9,71.9,1,87.2c0.9,0.1,1.7,0.5,2.4,0.9
							c7.5-7.3,35.2-35.4,36.4-34.3c1.2,1.2-27,28.9-34.3,36.4c0.5,0.7,0.8,1.5,0.9,2.4c24.8,0.1,134.4,0.5,134.4,1
							c0,0.5-109.7,1-134.4,1c-0.1,0.9-0.5,1.7-0.9,2.4c7.3,7.5,35.4,35.2,34.3,36.4c-1.2,1.2-28.9-27-36.4-34.3
							c-0.7,0.5-1.5,0.8-2.4,0.9c-0.1,15.3-0.5,87.2-1,87.2c-0.5,0-0.9-71.9-1-87.2c-0.9-0.1-1.7-0.5-2.4-0.9
							c-7.5,7.3-35.2,35.4-36.4,34.3c-1.2-1.2,27-28.9,34.3-36.4c-0.5-0.7-0.8-1.5-0.9-2.4C918.8,322,809.1,321.5,809.1,321z"/>
					</g>
				</g>
			</g>
		</g>
	</g>
</g>
</svg>
