<?xml version="1.0" encoding="utf-8"?>
<!-- Generator: Adobe Illustrator 24.0.0, SVG Export Plug-In . SVG Version: 6.00 Build 0)  -->
<svg version="1.1" id="Layer_1" xmlns="http://www.w3.org/2000/svg" xmlns:xlink="http://www.w3.org/1999/xlink" x="0px" y="0px"
	 viewBox="0 0 1920 1080" style="enable-background:new 0 0 1920 1080;" xml:space="preserve">
<style type="text/css">
	.st0{clip-path:url(#SVGID_5_);}
	.st1{clip-path:url(#SVGID_8_);}
	.st2{fill:#FFFFFF;stroke:#231F20;stroke-width:0.9705;stroke-miterlimit:10;}
	.st3{fill:#FFFFFF;stroke:#231F20;stroke-width:0.9792;stroke-miterlimit:10;}
	.st4{fill:#FFFFFF;}
	.st5{clip-path:url(#SVGID_10_);}
	.st6{fill:none;stroke:#231F20;stroke-width:0.3264;stroke-miterlimit:10;}
	.st7{fill:none;stroke:#231F20;stroke-width:0.6528;stroke-miterlimit:10;}
	.st8{fill:none;stroke:#231F20;stroke-width:0.9792;stroke-miterlimit:10;}
	.st9{clip-path:url(#SVGID_12_);}
	.st10{clip-path:url(#SVGID_14_);}
	.st11{stroke:#231F20;stroke-width:0.9792;stroke-miterlimit:10;}
	.st12{clip-path:url(#SVGID_16_);}
	.st13{fill:#ED1C24;}
	.st14{fill:#231F20;}
	.st15{clip-path:url(#SVGID_18_);}
	.st16{clip-path:url(#SVGID_20_);}
	.st17{clip-path:url(#SVGID_22_);fill:#FFFFFF;}
	.st18{clip-path:url(#SVGID_24_);fill:#FFFFFF;}
	.st19{clip-path:url(#SVGID_26_);fill:#FFFFFF;}
</style>
<defs>
	<rect id="SVGID_4_" width="1920" height="1080"/>
</defs>
<clipPath id="SVGID_5_">
	<use xlink:href="#SVGID_4_"  style="overflow:visible;"/>
</clipPath>
<g class="st0">
	<g>
		<rect id="SVGID_1_" x="-17.9" y="-10.1" width="1937" height="1092.1"/>
	</g>
	<g>
		<defs>
			<rect id="SVGID_6_" x="-17.9" y="-10.1" width="1937" height="1092.1"/>
		</defs>
		<clipPath id="SVGID_8_">
			<use xlink:href="#SVGID_6_"  style="overflow:visible;"/>
		</clipPath>
		<g class="st1">
			<g>
				<path class="st2" d="M932.4,126.1c-20.1,0-28,11.6-31.2,19.8h60.4C961.6,145.9,956.2,126.1,932.4,126.1z"/>
				<path class="st2" d="M892.3,161.4c1.5-6.8,5.8-17.5,15.8-17.5c6.6,0,13.9,0,21.8,0c1.1,0,2.1,0,3.2,0c7.9,0,15.1,0,21.8,0
					c10,0,14.3,10.8,15.8,17.5c1.5,6.8,0,14.5,0,14.5h-36.2h-5.9h-36.2C892.3,175.9,890.8,168.2,892.3,161.4z"/>
				<path class="st2" d="M978.9,209.5c0,0,0-21.7,0-27.2c0-5.4-8.6-8.6-14.9-8.6c-6.3,0-43,0.3-57.6,0s-19.2,5.4-19.2,5.4V209
					L978.9,209.5z"/>
				<path class="st3" d="M967.6,1012.1c0,0,28.7-14.8,32-27.3s6.6-83.9,6.5-109.6c-0.1-36.7-6.5-73.8-9.8-84.1s-6.1-15.7-6.1-15.7
					s-6.4,9.7-3.7,15.7c0.6,1.4,9.9,37.9,11.4,83.6c0.6,17.3-3.5,53.2-7.7,61.3C981.7,933.8,967.6,1012.1,967.6,1012.1z"/>
				<g>
					<g>
						<path id="SVGID_3_" class="st4" d="M931.7,535.9c-15.8,0-32.7,0-37.5,0c-4.7,0-8.4,1.1-8.4,13.2c0,12.1,0,385.1,0,399.9
							c0,14.8-6.9,90.2,43.3,90.2s49.6-55.4,49.6-87.6s0-409.9,0-411.5s-1.1-4.2-12.7-4.2S931.7,535.9,931.7,535.9z"/>
					</g>
					<g>
						<defs>
							<path id="SVGID_9_" d="M931.7,535.9c-15.8,0-32.7,0-37.5,0c-4.7,0-8.4,1.1-8.4,13.2c0,12.1,0,385.1,0,399.9
								c0,14.8-6.9,90.2,43.3,90.2s49.6-55.4,49.6-87.6s0-409.9,0-411.5s-1.1-4.2-12.7-4.2S931.7,535.9,931.7,535.9z"/>
						</defs>
						<clipPath id="SVGID_10_">
							<use xlink:href="#SVGID_9_"  style="overflow:visible;"/>
						</clipPath>
						<g class="st5">
							<line class="st6" x1="889.4" y1="949.5" x2="889.4" y2="536"/>
							<line class="st6" x1="895.2" y1="949.5" x2="895.2" y2="536"/>
							<line class="st7" x1="952.3" y1="949.5" x2="952.3" y2="536"/>
							<line class="st6" x1="962.7" y1="949.5" x2="962.7" y2="536"/>
							<line class="st6" x1="971.2" y1="949.5" x2="971.2" y2="536"/>
							<line class="st7" x1="904.7" y1="949.5" x2="904.7" y2="536"/>
							<line class="st7" x1="941.1" y1="949.5" x2="941.1" y2="536"/>
							<line class="st8" x1="916.2" y1="949.5" x2="916.2" y2="536"/>
							<line class="st8" x1="928.8" y1="536" x2="928.8" y2="949.5"/>
							<path class="st6" d="M978.7,943.7c0,0,3.3,5.8-30.7,5.8c-34.1,0-37.4,0-48,0s-14.5-2.9-14.5-2.9"/>
						</g>
					</g>
					<g>
						<defs>
							<path id="SVGID_11_" d="M931.7,535.9c-15.8,0-32.7,0-37.5,0c-4.7,0-8.4,1.1-8.4,13.2c0,12.1,0,385.1,0,399.9
								c0,14.8-6.9,90.2,43.3,90.2s49.6-55.4,49.6-87.6s0-409.9,0-411.5s-1.1-4.2-12.7-4.2S931.7,535.9,931.7,535.9z"/>
						</defs>
						<clipPath id="SVGID_12_">
							<use xlink:href="#SVGID_11_"  style="overflow:visible;"/>
						</clipPath>
						<g class="st9">
							<path d="M891.6,947c0,0,0,24.1,0,39.3S906,1026,913,1026s11.3-3.1,11.3-12.4s0-13.6,0-13.6s-4.7,1.9-4.7,0s-2.7-49.8,0-49.8
								s20.5,0,20.5,0v49.8h-5.3c0,0-3.5,13.6-3.5,17.1s0,6.6,4.7,5.4s10.5-0.8,10.5-0.8s-14,11.3-27.4,8.9
								c14.6,2.3,29.4,3.5,36.8-12.8c-2.7,12.1-9.3,17.9-25.3,17.9s-44.7-19.1-44.7-52.5s0-36.2,0-36.2L891.6,947L891.6,947z"/>
							<circle class="st4" cx="929.6" cy="986.6" r="4.8"/>
							<circle class="st4" cx="929.6" cy="962.2" r="4.8"/>
						</g>
					</g>
					<g>
						<defs>
							<path id="SVGID_13_" d="M931.7,535.9c-15.8,0-32.7,0-37.5,0c-4.7,0-8.4,1.1-8.4,13.2c0,12.1,0,385.1,0,399.9
								c0,14.8-6.9,90.2,43.3,90.2s49.6-55.4,49.6-87.6s0-409.9,0-411.5s-1.1-4.2-12.7-4.2S931.7,535.9,931.7,535.9z"/>
						</defs>
						<clipPath id="SVGID_14_">
							<use xlink:href="#SVGID_13_"  style="overflow:visible;"/>
						</clipPath>
						<path class="st10" d="M970.4,1013.3c-1.3-2.2-1-6.9,0.8-11.2s2.6-16.2,3.7-20.4c1.2-4.1-0.6-18.6,1.6-24.4l4.7-10.8
							c0,0,0.1,50-2.5,54.4C976.1,1005.5,970.4,1013.3,970.4,1013.3z"/>
					</g>
					<g>
						<path id="SVGID_2_" class="st8" d="M931.7,535.9c-15.8,0-32.7,0-37.5,0c-4.7,0-8.4,1.1-8.4,13.2c0,12.1,0,385.1,0,399.9
							c0,14.8-6.9,90.2,43.3,90.2s49.6-55.4,49.6-87.6s0-409.9,0-411.5s-1.1-4.2-12.7-4.2S931.7,535.9,931.7,535.9z"/>
					</g>
				</g>
				<path class="st3" d="M978.7,948.8c0,0,5.4,4,6.2,6.2s5.9,10.8,13.7,6.2s1.1-15.4-3.8-19.7s-16.2-12.7-16.2-12.7L978.7,948.8
					L978.7,948.8z"/>
				<circle class="st3" cx="993.8" cy="953.5" r="3.4"/>
				<path class="st3" d="M969.4,535.9c0-2.8,0-324.6,0-324.6s-10.2-1.8-37.3-1.8s-36.7,1.8-36.7,1.8v1.8v322.8H969.4z"/>
				<g>
					<path class="st11" d="M887.1,209.5c0.3,1.6,8.3,3.6,8.3,3.6s1.5-2.1,3.6-2.3s26.5-1.3,33.1-1.3s7.6-4,0-4.3s-32.3,1.8-37.4,2
						S887.1,209.5,887.1,209.5z"/>
					<path class="st11" d="M978.9,209.5c-0.3,1.6-8.3,3.6-8.3,3.6s-1.5-2.1-3.6-2.3s-26.5-1.3-33.1-1.3s-7.6-4,0-4.3
						s32.3,1.8,37.4,2S978.9,209.5,978.9,209.5z"/>
				</g>
				<g>
					<line class="st6" x1="889.4" y1="205.2" x2="889.4" y2="175.5"/>
					<line class="st6" x1="895.2" y1="205.2" x2="895.2" y2="175.5"/>
					<line class="st7" x1="952.3" y1="205.2" x2="952.3" y2="175.5"/>
					<line class="st6" x1="962.7" y1="205.2" x2="962.7" y2="175.5"/>
					<line class="st6" x1="971.2" y1="205.2" x2="971.2" y2="175.5"/>
					<line class="st7" x1="904.7" y1="205.2" x2="904.7" y2="175.5"/>
					<line class="st7" x1="941.1" y1="205.2" x2="941.1" y2="175.5"/>
					<line class="st8" x1="916.2" y1="205.2" x2="916.2" y2="175.5"/>
					<line class="st8" x1="928.8" y1="175.5" x2="928.8" y2="205.2"/>
				</g>
				<g>
					<g>
						<defs>
							<path id="SVGID_15_" d="M892.3,161.4c1.1-5,3.7-12.1,9-15.5l0,0c3.2-8.2,11.1-19.8,31.2-19.8c23.8,0,29.2,19.8,29.2,19.8l0,0
								c5.3,3.4,7.9,10.5,9,15.5c1.5,6.8,0,14.5,0,14.5h-36.2h-5.9h-36.2C892.3,175.9,890.8,168.2,892.3,161.4z"/>
						</defs>
						<clipPath id="SVGID_16_">
							<use xlink:href="#SVGID_15_"  style="overflow:visible;"/>
						</clipPath>
						<g class="st12">
							<ellipse cx="960.5" cy="165.3" rx="7.2" ry="7.1"/>
							<path d="M958,143.9c0,0-8.6-7.2-12.2-7c-3.7,0.2-5.6,5.5-5.4,7C940.6,145.4,958,143.9,958,143.9z"/>
							<g>
								<path d="M919.6,173.9c0,0,7.9-18.1-4.7-28.7c8.6-3.2,10.3-7,7.2-9.8s-14.5,3.2-13.6,6.4c-4.5,4.3-15.9,8.5-15,32.1
									c-1.3,3.4-8.2-0.2-7.5-1.9s8.8-39.1,14.6-43.8s30.7-8.3,32.7-6c1.9,2.3,2.4,50.6,2.4,51.5s-4.5,11.9-5.2,11.3
									S919.6,173.9,919.6,173.9z"/>
								<path d="M930.5,179.8c5.8-1.5,13.3-5.3,15.9-14.6c2.6-9.3-0.5-21-6-21.4c0,0,1.8-10.2-1.5-11.5s-9.7-1.1-9.7-1.1
									L930.5,179.8z"/>
							</g>
						</g>
					</g>
				</g>
				<rect x="916.2" y="176" width="30.8" height="29.2"/>
				<rect x="917" y="535.1" width="29.2" height="414.4"/>
				<rect x="952.3" y="535.1" width="6.6" height="414.4"/>
				<rect x="903.3" y="535.1" width="6.6" height="414.4"/>
				<rect x="895.4" y="535.1" width="6.6" height="414.4"/>
				<rect x="964.3" y="535.1" width="6.6" height="414.4"/>
				<rect x="902" y="209.2" width="59.6" height="325.9"/>
				<g>
					<path class="st13" d="M937.4,536.9c-0.6,0-1.9,0-3.8-315.2v-6.1c-3.1-0.5-6.1-1.6-8.8-3.2c-6.2,6-16.2,15.9-27.8,27.4
						c-39.6,39.3-99.5,98.8-105.9,98.8c-0.2,0-0.4-0.1-0.5-0.2c-3.2-3.2,44.8-52.2,98.6-106.4c11.5-11.6,21.4-21.6,27.4-27.8
						c-1.6-2.6-2.7-5.5-3.2-8.6c-42.3-0.1-166.5-0.6-281.5-1.3c-213.6-1.3-213.6-2.2-213.6-2.7s0-1.5,213.6-2.7
						c115-0.7,239.2-1.1,281.5-1.3c0.5-3.1,1.6-6,3.2-8.6c-6-6.2-15.9-16.2-27.4-27.8C835.4,97,787.4,48.1,790.6,44.8
						c0.1-0.1,0.3-0.2,0.5-0.2c6.3,0,66.2,59.5,105.9,98.8c11.6,11.5,21.6,21.4,27.8,27.4c2.7-1.6,5.7-2.7,8.8-3.2v-6.1
						c1.8-315.2,3.1-315.2,3.8-315.2c0.6,0,1.9,0,3.8,315.4v5.9c3.1,0.5,6.1,1.6,8.8,3.2c6.2-6,16.2-15.9,27.8-27.4
						c39.6-39.3,99.6-98.8,105.9-98.8c0.2,0,0.4,0.1,0.5,0.2c3.3,3.3-44.8,52.2-98.6,106.4c-11.5,11.6-21.4,21.6-27.4,27.8
						c1.6,2.6,2.7,5.5,3.2,8.6c42.3,0.1,166.5,0.6,281.5,1.3c213.6,1.3,213.6,2.2,213.6,2.7s0,1.5-213.6,2.7
						c-115,0.7-239.2,1.1-281.5,1.3c-0.5,3.1-1.6,6-3.2,8.6c6,6.2,15.9,16.2,27.4,27.8c53.8,54.2,101.9,103.2,98.6,106.4
						c-0.1,0.1-0.3,0.2-0.5,0.2l0,0c-6.3,0-66.2-59.5-105.9-98.8c-11.6-11.5-21.6-21.4-27.8-27.4c-2.7,1.6-5.7,2.7-8.8,3.2v5.9
						C939.4,536.9,938,536.9,937.4,536.9z"/>
					<path class="st14" d="M937.4-153.5c1.8,0,3.3,264.9,3.6,321.3c3.3,0.5,6.3,1.6,9,3.3c27.1-26.2,125.6-126.3,133.7-126.3
						c0.2,0,0.3,0,0.4,0.1c4.3,4.3-99.4,106.4-126.2,134c1.6,2.7,2.8,5.6,3.3,8.8c91.2,0.2,495.1,1.8,495.1,3.8
						s-403.9,3.5-495.1,3.8c-0.5,3.2-1.6,6.2-3.3,8.8c26.7,27.7,130.5,129.7,126.2,134c-0.1,0.1-0.2,0.1-0.4,0.1
						c-8.1,0-106.6-100.1-133.7-126.3c-2.7,1.7-5.8,2.8-9,3.3c-0.3,56.4-1.8,321.3-3.6,321.3s-3.3-264.9-3.6-321.3
						c-3.3-0.5-6.3-1.6-9-3.3c-27.1,26.2-125.6,126.3-133.7,126.3c-0.2,0-0.3,0-0.4-0.1c-4.3-4.3,99.4-106.4,126.2-134
						c-1.6-2.7-2.8-5.6-3.3-8.8c-91.2-0.2-495.1-1.8-495.1-3.8s403.9-3.5,495.1-3.8c0.5-3.2,1.6-6.2,3.3-8.8
						C890.2,151.4,786.4,49.3,790.8,45c0.1-0.1,0.2-0.1,0.4-0.1c8.1,0,106.6,100.1,133.7,126.3c2.7-1.7,5.8-2.8,9-3.3
						C934.2,111.4,935.6-153.5,937.4-153.5 M937.4-153.9c-0.6,0-0.7,0-1.1,11.2c-0.2,6.6-0.4,16.3-0.6,29c-0.3,21.9-0.7,53-1,92.5
						c-0.6,70.3-1.1,149.1-1.3,182.8v5.9c-3,0.5-5.9,1.6-8.5,3.1c-6.2-6-16.2-15.9-27.7-27.3c-52.5-52.1-100.1-98.9-106-98.9
						c-0.4,0-0.6,0.1-0.7,0.3c-0.8,0.8-2.5,2.5,32.9,39.7c20,21,45.3,46.5,65.7,67c11.4,11.5,21.3,21.5,27.3,27.7
						c-1.5,2.6-2.6,5.4-3.1,8.4c-42.5,0.1-166.5,0.6-281.4,1.3c-63.1,0.4-113.2,0.8-148.8,1.2c-20.5,0.2-36.3,0.4-47,0.7
						c-18,0.4-18,0.5-18,1.1s0,0.8,18,1.1c10.7,0.2,26.5,0.4,47,0.7c35.6,0.4,85.7,0.8,148.8,1.2c114.9,0.7,238.9,1.1,281.4,1.3
						c0.5,3,1.6,5.8,3.1,8.4c-6,6.2-15.9,16.2-27.3,27.7c-20.3,20.5-45.7,46-65.7,67c-35.4,37.2-33.7,38.9-32.9,39.7
						c0.2,0.2,0.4,0.3,0.7,0.3c5.9,0,53.5-46.8,106-98.9c11.5-11.4,21.5-21.3,27.7-27.3c2.6,1.6,5.5,2.6,8.5,3.1v5.9
						c0.2,33.7,0.7,112.5,1.3,182.8c0.3,39.5,0.7,70.6,1,92.5c0.2,12.6,0.4,22.4,0.6,29c0.3,11.2,0.5,11.2,1.1,11.2s0.7,0,1.1-11.2
						c0.2-6.6,0.4-16.4,0.6-29.1c0.3-21.9,0.7-53.1,1-92.7c0.6-70.5,1.1-149.2,1.3-182.8v-5.6c3-0.5,5.9-1.6,8.5-3.1
						c6.2,6,16.2,15.9,27.7,27.3c52.5,52.1,100.1,98.9,106.1,98.9c0.4,0,0.6-0.1,0.7-0.3c0.8-0.8,2.5-2.5-32.9-39.7
						c-20-21-45.4-46.5-65.7-67c-11.4-11.5-21.3-21.4-27.3-27.7c1.5-2.6,2.6-5.4,3.1-8.4c42.5-0.1,166.5-0.6,281.4-1.3
						c63.1-0.4,113.2-0.8,148.8-1.2c20.5-0.2,36.3-0.4,47-0.7c18-0.4,18-0.5,18-1.1s0-0.8-18-1.1c-10.7-0.2-26.5-0.4-47-0.7
						c-35.6-0.4-85.7-0.8-148.8-1.2c-114.9-0.7-238.8-1.1-281.4-1.3c-0.5-3-1.6-5.8-3.1-8.4c6-6.2,15.9-16.2,27.3-27.7
						c20.3-20.5,45.7-46,65.7-67c35.4-37.2,33.7-38.9,32.9-39.7c-0.2-0.2-0.4-0.3-0.7-0.3c-5.9,0-53.5,46.8-106,98.9
						c-11.5,11.4-21.5,21.3-27.7,27.3c-2.6-1.6-5.5-2.6-8.5-3.1v-5.6c-0.2-33.6-0.7-112.3-1.3-182.8c-0.4-39.6-0.7-70.8-1-92.7
						c-0.2-12.7-0.4-22.4-0.6-29.1C938.1-153.9,938-153.9,937.4-153.9L937.4-153.9z"/>
				</g>
				<g>
					<path class="st4" d="M716,191.6c0-0.8,172.4-1.5,211.3-1.6c0.2-1.4,0.7-2.6,1.4-3.8c-11.4-11.8-55.7-55.4-53.8-57.2
						c1.9-1.9,45.4,42.4,57.2,53.8c1.2-0.7,2.5-1.2,3.9-1.4c0.1-24.1,0.8-137.1,1.5-137.1c0.8,0,1.4,113,1.5,137.1
						c1.4,0.2,2.7,0.7,3.9,1.4c11.8-11.4,55.4-55.7,57.2-53.8c1.9,1.9-42.4,45.4-53.8,57.2c0.7,1.1,1.2,2.4,1.4,3.8
						c38.9,0.1,211.3,0.8,211.3,1.6s-172.4,1.5-211.3,1.6c-0.2,1.4-0.7,2.6-1.4,3.8c11.4,11.8,55.7,55.4,53.8,57.2
						c-1.9,1.9-45.4-42.4-57.2-53.8c-1.2,0.7-2.5,1.2-3.9,1.4c-0.1,24.1-0.8,137.1-1.5,137.1c-0.8,0-1.4-113-1.5-137.1
						c-1.4-0.2-2.7-0.7-3.9-1.4c-11.8,11.4-55.4,55.7-57.2,53.8c-1.9-1.9,42.4-45.4,53.8-57.2c-0.7-1.1-1.2-2.4-1.4-3.8
						C888.4,193.1,716,192.5,716,191.6z"/>
				</g>
			</g>
			<g>
				<g>
					<g>
						<path id="SVGID_7_" class="st4" d="M762.4,1218.8c23.8-28.3,53.4-86.8,53.4-86.8s28.4-20.9,43.4-39.2
							c32.5-28.4,40.1-73.4,40.1-73.4s-10,0.8-10-13.4s5-49.2,5-49.2l41.7-18.4c0,0,18.4,5,23.4,0c16.7,8.3,15.9,11.7,15.9,11.7
							s26.7-8.3,38.4-16.7c11.7-8.3,16.7-20,15.9-35.9s-2.5-23.4-19.2-33.4s-46.7-25.9-57.6-24.2c-10.8,1.7-61.8,5.8-61.8,5.8v-47.6
							l10.8-18.4c0,0,19.2,10,32.5,6.7c10,23.4,23.4,41.7,32.5,45.9c9.2,4.2,35.9,0.8,35.9,0.8l8.3-29.2c0,0,15.9-40.1,9.2-58.4
							c-6.7-18.4-22.5-32.5-22.5-32.5s24.4-12.5,31.8-30.9c7.4-18.4-0.9-39.2-9.3-45.9c-8.3-6.7-48.4-41.7-70.1-45.9
							s-41.3-22.5-52.8-20s-29.9-0.2-29.9-0.2s24.7-16.5,29.9-21.5s55.3-17.5,61.9-24.2c6.7-6.7,14.2-25.9,9.2-42.6
							s-5.8-52.6-50.9-39.2c-45.1,13.4-62.6,14.2-69.3,18.4c-6.7,4.2-49.2,21.7-66.8,35.9c-17.5,14.2-24.2,15-42.6,51.7
							s-32.5,60.1-40.1,69.3c-7.5,9.2-15,13.4-19.2,21.7s8.3,43.4,0,50.9s-28.4,51.7-28.4,60.9s20.9,105.2,22.5,119.3
							s12.5,52.6,10.8,74.3s-14.2,71.8-15,87.6c-0.8,15.9,16.7,101,23.4,113.5s39.2,77.6,39.2,77.6S742.4,1213.8,762.4,1218.8z"/>
					</g>
					<g>
						<defs>
							<path id="SVGID_17_" d="M762.4,1218.8c23.8-28.3,53.4-86.8,53.4-86.8s28.4-20.9,43.4-39.2c32.5-28.4,40.1-73.4,40.1-73.4
								s-10,0.8-10-13.4s5-49.2,5-49.2l41.7-18.4c0,0,18.4,5,23.4,0c16.7,8.3,15.9,11.7,15.9,11.7s26.7-8.3,38.4-16.7
								c11.7-8.3,16.7-20,15.9-35.9s-2.5-23.4-19.2-33.4s-46.7-25.9-57.6-24.2c-10.8,1.7-61.8,5.8-61.8,5.8v-47.6l10.8-18.4
								c0,0,19.2,10,32.5,6.7c10,23.4,23.4,41.7,32.5,45.9c9.2,4.2,35.9,0.8,35.9,0.8l8.3-29.2c0,0,15.9-40.1,9.2-58.4
								c-6.7-18.4-22.5-32.5-22.5-32.5s24.4-12.5,31.8-30.9c7.4-18.4-0.9-39.2-9.3-45.9c-8.3-6.7-48.4-41.7-70.1-45.9
								s-41.3-22.5-52.8-20s-29.9-0.2-29.9-0.2s24.7-16.5,29.9-21.5s55.3-17.5,61.9-24.2c6.7-6.7,14.2-25.9,9.2-42.6
								s-5.8-52.6-50.9-39.2c-45.1,13.4-62.6,14.2-69.3,18.4c-6.7,4.2-49.2,21.7-66.8,35.9c-17.5,14.2-24.2,15-42.6,51.7
								s-32.5,60.1-40.1,69.3c-7.5,9.2-15,13.4-19.2,21.7s8.3,43.4,0,50.9s-28.4,51.7-28.4,60.9s20.9,105.2,22.5,119.3
								s12.5,52.6,10.8,74.3s-14.2,71.8-15,87.6c-0.8,15.9,16.7,101,23.4,113.5s39.2,77.6,39.2,77.6S742.4,1213.8,762.4,1218.8z"/>
						</defs>
						<clipPath id="SVGID_18_">
							<use xlink:href="#SVGID_17_"  style="overflow:visible;"/>
						</clipPath>
						<path class="st15" d="M693.6,1107.1l7.8-71.2c0,0,1.1-116.8,0-136.9c-1.1-20-26.7-119.1-26.7-119.1l27.2,4.5
							c0,0-30.5-24.5-33.9-36.7c-3.3-12.2,8.3-41.2,16.9-52.3c8.7-11.1,44.3-45.6,46.5-56.7s30-45.6,38.9-54.5
							c0,0-39.5,52.3-51.5,60.1c-11.9,7.8-29.7,13.4-35.3,26.7c4.5-25.6,21.1-42.3,28.9-57.9c7.8-15.6,38.9-79,43.4-84.6
							s53.4-41.2,70.1-46.7c16.7-5.6,75.7-21.1,75.7-21.1s-18.9,20-13.4,32.3c5.6,12.2,22.3,20,31.2,18.9c8.9-1.1,32.3-6.7,32.3-6.7
							s14.5,11.1-12.2,21.1c0,0-25.6,1.1-38.9,5.6s-33.4,5.6-46.7,11.1c-13.4,5.6-57.9,21.1-64.5,25.6s-7.8,12.2-7.8,12.2
							s37.8-8.9,44.5-3.3c6.7,5.6,87.9,5.6,87.9,5.6s54.4,31.2,63.3,35.7c8.9,4.5-1.9,22.4,1.4,32.4s18.4,15.4,13.4,10.4
							c-17.8-17.8-2.3-32.7-2.3-32.7s33,20.4,37.9,25.7c0,0,3.4,27.1-4.4,27.1s-15.8-5.1-15.8-5.1l-8.9-6.9l19.2,17.8
							c0,0-33.3,23-43.7,21.1c-57-10.2-72.7-41.5-97.2-42.6s-19.7,11.3-48.1,31.7c-22.4,16.2-78,51.9-78,51.9s-14.9,8.2-18.3,9.3
							c-3.3,1.1,37.6,1.4,51.5-7.5c18.3-11.8,77.5-55.9,89.8-64.8c12.2-8.9,31.2-2.2,36.7,13.4c5.6,15.6,91,52.5,98.8,52.5
							s-9.3,73.9-11.5,79.5s-33,4.3-55.9-51.4c-30.2,3.6-47.9-14.5-49-11.2s-11.3,22.5-12.4,41.4c-1.1,18.9-2.3,35,7.7,32.7
							c-35.6,5.6-64.5-15.6-64.5-15.6s-4.5,35.6,36.7,33.4c41.2-2.2,87.9-11.1,97.9-15.6s27.8,12.2,28.9,32.3s-12.2,43.4-26.7,47.8
							c-14.5,4.5-75.4,36.7-112.8,22.3c20.5,12.2,37.4,14.5,37.4,14.5s-26.9,12.2-58.1,2.2c21.1,13.4,54.5,16.7,51.2,17.8
							s-63.4-7.8-91.2,7.8c0,0,24.5,1.1,46.7,4.5c22.3,3.3,36.4,23.4,38.3,40.1c1.8,16.7-1.5,35.6-17.1,45.6s-44.5,41.2-96.8,15.6
							c53.4,27.8,65.6,21.1,65.6,21.1l-32.3,44.5c0,0-40.1,74.6-45.6,77.9c-5.6,3.3-53.4-16.7-53.4-23.4S693.6,1107.1,693.6,1107.1z
							"/>
					</g>
					<g>
						<defs>
							<path id="SVGID_19_" d="M762.4,1218.8c23.8-28.3,53.4-86.8,53.4-86.8s28.4-20.9,43.4-39.2c32.5-28.4,40.1-73.4,40.1-73.4
								s-10,0.8-10-13.4s5-49.2,5-49.2l41.7-18.4c0,0,18.4,5,23.4,0c16.7,8.3,15.9,11.7,15.9,11.7s26.7-8.3,38.4-16.7
								c11.7-8.3,16.7-20,15.9-35.9s-2.5-23.4-19.2-33.4s-46.7-25.9-57.6-24.2c-10.8,1.7-61.8,5.8-61.8,5.8v-47.6l10.8-18.4
								c0,0,19.2,10,32.5,6.7c10,23.4,23.4,41.7,32.5,45.9c9.2,4.2,35.9,0.8,35.9,0.8l8.3-29.2c0,0,15.9-40.1,9.2-58.4
								c-6.7-18.4-22.5-32.5-22.5-32.5s24.4-12.5,31.8-30.9c7.4-18.4-0.9-39.2-9.3-45.9c-8.3-6.7-48.4-41.7-70.1-45.9
								s-41.3-22.5-52.8-20s-29.9-0.2-29.9-0.2s24.7-16.5,29.9-21.5s55.3-17.5,61.9-24.2c6.7-6.7,14.2-25.9,9.2-42.6
								s-5.8-52.6-50.9-39.2c-45.1,13.4-62.6,14.2-69.3,18.4c-6.7,4.2-49.2,21.7-66.8,35.9c-17.5,14.2-24.2,15-42.6,51.7
								s-32.5,60.1-40.1,69.3c-7.5,9.2-15,13.4-19.2,21.7s8.3,43.4,0,50.9s-28.4,51.7-28.4,60.9s20.9,105.2,22.5,119.3
								s12.5,52.6,10.8,74.3s-14.2,71.8-15,87.6c-0.8,15.9,16.7,101,23.4,113.5s39.2,77.6,39.2,77.6S742.4,1213.8,762.4,1218.8z"/>
						</defs>
						<clipPath id="SVGID_20_">
							<use xlink:href="#SVGID_19_"  style="overflow:visible;"/>
						</clipPath>
						<path class="st16" d="M882.9,480c5.2-4.3,49.9-16.5,54.2-19.5c4.3-2.9,8.6,7.4,8.6,14.3s3,19.8,0,22.8s-28.5,7.9-34.4,9.5
							c-6,1.5-25.4,0-28.4-9.9C879.9,487.4,882.9,480,882.9,480z"/>
					</g>
					<g>
						<defs>
							<path id="SVGID_21_" d="M762.4,1218.8c23.8-28.3,53.4-86.8,53.4-86.8s28.4-20.9,43.4-39.2c32.5-28.4,40.1-73.4,40.1-73.4
								s-10,0.8-10-13.4s5-49.2,5-49.2l41.7-18.4c0,0,18.4,5,23.4,0c16.7,8.3,15.9,11.7,15.9,11.7s26.7-8.3,38.4-16.7
								c11.7-8.3,16.7-20,15.9-35.9s-2.5-23.4-19.2-33.4s-46.7-25.9-57.6-24.2c-10.8,1.7-61.8,5.8-61.8,5.8v-47.6l10.8-18.4
								c0,0,19.2,10,32.5,6.7c10,23.4,23.4,41.7,32.5,45.9c9.2,4.2,35.9,0.8,35.9,0.8l8.3-29.2c0,0,15.9-40.1,9.2-58.4
								c-6.7-18.4-22.5-32.5-22.5-32.5s24.4-12.5,31.8-30.9c7.4-18.4-0.9-39.2-9.3-45.9c-8.3-6.7-48.4-41.7-70.1-45.9
								s-41.3-22.5-52.8-20s-29.9-0.2-29.9-0.2s24.7-16.5,29.9-21.5s55.3-17.5,61.9-24.2c6.7-6.7,14.2-25.9,9.2-42.6
								s-5.8-52.6-50.9-39.2c-45.1,13.4-62.6,14.2-69.3,18.4c-6.7,4.2-49.2,21.7-66.8,35.9c-17.5,14.2-24.2,15-42.6,51.7
								s-32.5,60.1-40.1,69.3c-7.5,9.2-15,13.4-19.2,21.7s8.3,43.4,0,50.9s-28.4,51.7-28.4,60.9s20.9,105.2,22.5,119.3
								s12.5,52.6,10.8,74.3s-14.2,71.8-15,87.6c-0.8,15.9,16.7,101,23.4,113.5s39.2,77.6,39.2,77.6S742.4,1213.8,762.4,1218.8z"/>
						</defs>
						<clipPath id="SVGID_22_">
							<use xlink:href="#SVGID_21_"  style="overflow:visible;"/>
						</clipPath>
						<path class="st17" d="M704.5,797.8c0.1,14.8,5.3,39,17.6,61.6c0,0-22.3-13.7-24.2-24.5C696,824.1,704.5,797.8,704.5,797.8z"/>
					</g>
					<g>
						<defs>
							<path id="SVGID_23_" d="M762.4,1218.8c23.8-28.3,53.4-86.8,53.4-86.8s28.4-20.9,43.4-39.2c32.5-28.4,40.1-73.4,40.1-73.4
								s-10,0.8-10-13.4s5-49.2,5-49.2l41.7-18.4c0,0,18.4,5,23.4,0c16.7,8.3,15.9,11.7,15.9,11.7s26.7-8.3,38.4-16.7
								c11.7-8.3,16.7-20,15.9-35.9s-2.5-23.4-19.2-33.4s-46.7-25.9-57.6-24.2c-10.8,1.7-61.8,5.8-61.8,5.8v-47.6l10.8-18.4
								c0,0,19.2,10,32.5,6.7c10,23.4,23.4,41.7,32.5,45.9c9.2,4.2,35.9,0.8,35.9,0.8l8.3-29.2c0,0,15.9-40.1,9.2-58.4
								c-6.7-18.4-22.5-32.5-22.5-32.5s24.4-12.5,31.8-30.9c7.4-18.4-0.9-39.2-9.3-45.9c-8.3-6.7-48.4-41.7-70.1-45.9
								s-41.3-22.5-52.8-20s-29.9-0.2-29.9-0.2s24.7-16.5,29.9-21.5s55.3-17.5,61.9-24.2c6.7-6.7,14.2-25.9,9.2-42.6
								s-5.8-52.6-50.9-39.2c-45.1,13.4-62.6,14.2-69.3,18.4c-6.7,4.2-49.2,21.7-66.8,35.9c-17.5,14.2-24.2,15-42.6,51.7
								s-32.5,60.1-40.1,69.3c-7.5,9.2-15,13.4-19.2,21.7s8.3,43.4,0,50.9s-28.4,51.7-28.4,60.9s20.9,105.2,22.5,119.3
								s12.5,52.6,10.8,74.3s-14.2,71.8-15,87.6c-0.8,15.9,16.7,101,23.4,113.5s39.2,77.6,39.2,77.6S742.4,1213.8,762.4,1218.8z"/>
						</defs>
						<clipPath id="SVGID_24_">
							<use xlink:href="#SVGID_23_"  style="overflow:visible;"/>
						</clipPath>
						<path class="st18" d="M739.6,888.2c-2.6,7.8-5.2,26.8-2.6,29s11.2,17.9,17.1,19.4c0,0-12.7-16.7-13.8-21.2s-1.5-18.6,4.7-21.2
							c6.1-2.6,18-1.9,18-1.9s-1.9-7.8-9.7-7.1C745.6,885.9,739.6,888.2,739.6,888.2z"/>
					</g>
					<g>
						<defs>
							<path id="SVGID_25_" d="M762.4,1218.8c23.8-28.3,53.4-86.8,53.4-86.8s28.4-20.9,43.4-39.2c32.5-28.4,40.1-73.4,40.1-73.4
								s-10,0.8-10-13.4s5-49.2,5-49.2l41.7-18.4c0,0,18.4,5,23.4,0c16.7,8.3,15.9,11.7,15.9,11.7s26.7-8.3,38.4-16.7
								c11.7-8.3,16.7-20,15.9-35.9s-2.5-23.4-19.2-33.4s-46.7-25.9-57.6-24.2c-10.8,1.7-61.8,5.8-61.8,5.8v-47.6l10.8-18.4
								c0,0,19.2,10,32.5,6.7c10,23.4,23.4,41.7,32.5,45.9c9.2,4.2,35.9,0.8,35.9,0.8l8.3-29.2c0,0,15.9-40.1,9.2-58.4
								c-6.7-18.4-22.5-32.5-22.5-32.5s24.4-12.5,31.8-30.9c7.4-18.4-0.9-39.2-9.3-45.9c-8.3-6.7-48.4-41.7-70.1-45.9
								s-41.3-22.5-52.8-20s-29.9-0.2-29.9-0.2s24.7-16.5,29.9-21.5s55.3-17.5,61.9-24.2c6.7-6.7,14.2-25.9,9.2-42.6
								s-5.8-52.6-50.9-39.2c-45.1,13.4-62.6,14.2-69.3,18.4c-6.7,4.2-49.2,21.7-66.8,35.9c-17.5,14.2-24.2,15-42.6,51.7
								s-32.5,60.1-40.1,69.3c-7.5,9.2-15,13.4-19.2,21.7s8.3,43.4,0,50.9s-28.4,51.7-28.4,60.9s20.9,105.2,22.5,119.3
								s12.5,52.6,10.8,74.3s-14.2,71.8-15,87.6c-0.8,15.9,16.7,101,23.4,113.5s39.2,77.6,39.2,77.6S742.4,1213.8,762.4,1218.8z"/>
						</defs>
						<clipPath id="SVGID_26_">
							<use xlink:href="#SVGID_25_"  style="overflow:visible;"/>
						</clipPath>
						<path class="st19" d="M701.9,807c1.2-4.1,1.4-9.6,8-13.4c6.6-3.7,21.9-6.3,21.9-6.3s-4.5,5.2-11.2,7.8s-14.4,21.6-12.1,29.5
							c2.3,8-4.3,6.6-4.3,6.6L701.9,807z"/>
					</g>
				</g>
				<path class="st4" d="M882.5,1053.3c3.3,13.2,8.6,139.1-40.5,159.7c-49.2,20.6-80.5-1.6-89.5,0c-9.1,1.6-20.1,10.8-20.1,10.8
					s20.1,18.8,22.5,26.2c2.5,7.4,0.8,37.9,0.8,37.9s48.6,0.6,67.5-24.8s65-71.5,70-92.5s1.6-118.9-4.9-124.7
					C881.7,1040.1,882.5,1053.3,882.5,1053.3z"/>
				<path class="st4" d="M742.6,1287.9c0,0,10.2-31.4,0-47.7s-49.4-100.4-55.1-115.2s-18.1-93-17.3-109.5s-9.1,27.2,0,81.5
					C679.2,1151.2,714.6,1258.2,742.6,1287.9z"/>
			</g>
		</g>
	</g>
</g>
</svg>
