<?xml version="1.0" encoding="utf-8"?>
<!-- Generator: Adobe Illustrator 24.0.0, SVG Export Plug-In . SVG Version: 6.00 Build 0)  -->
<svg version="1.1" id="Layer_1" xmlns="http://www.w3.org/2000/svg" xmlns:xlink="http://www.w3.org/1999/xlink" x="0px" y="0px"
	 viewBox="0 0 1200 900" style="enable-background:new 0 0 1200 900;" xml:space="preserve">
<style type="text/css">
	.st0{clip-path:url(#SVGID_2_);}
	.st1{fill:#F1F2F2;}
	.st2{fill:#FFFFFF;stroke:#231F20;stroke-width:1.7015;stroke-miterlimit:10;}
	.st3{fill:#FFFFFF;stroke:#231F20;stroke-width:1.425;stroke-miterlimit:10;}
	.st4{fill:#231F20;}
	.st5{stroke:#231F20;stroke-width:1.425;stroke-miterlimit:10;}
	.st6{stroke:#231F20;stroke-width:1.425;stroke-linejoin:round;stroke-miterlimit:10;}
	.st7{fill:#FFFFFF;}
	.st8{fill:#ED1C24;}
</style>
<g>
	<defs>
		<rect id="SVGID_1_" y="0" width="1200" height="900"/>
	</defs>
	<clipPath id="SVGID_2_">
		<use xlink:href="#SVGID_1_"  style="overflow:visible;"/>
	</clipPath>
	<g class="st0">
		<g>
			<g>
				<g>
					<g>
						<g>
							<rect y="0" class="st1" width="1200" height="900"/>
							<polygon class="st2" points="903.2,656.9 571.1,677.4 539,213.2 866.2,168 917.4,652.6 							"/>
							<polygon class="st2" points="912.8,652 580.2,662 562.6,197 891,162.1 927.1,648.1 							"/>
							<polygon class="st2" points="918,658 585.5,648.1 595.7,182.9 925.5,167.6 932.5,654.9 							"/>
							<g>
								<path class="st3" d="M957.5,750.5c-10.5-13.2-26.8-37.7-28.3-52.1c-13.7-8.3-29.9-39.2-30.4-55.1
									c-0.5-15.9,4.3-34.8-2.3-51.5c-6.6-16.7-19.9-37.4-25-51.3c-5.2-13.8-8.8-31.5,2-37.2c10.9-5.7,16.2-2,24.6,13.5
									c8.4,15.4,11.8,15.9,15.4,22.6c3.6,6.7,13.7,26.4,17.8,30.7c3.9-3.4,4-5.7,4-5.7s-3.9-28.1,2.4-36.4
									c6.3-8.2,3.8-6.3,3.8-6.3s-11.4-11.9-10.3-24.3c1.2-12.3,0.2-39.1,0.9-38.3c0.8,0.8,17.4,4.8,20.5,7.8
									c3.3,3,6.8,16.4,12.3,25.8c5.4,9.4,22,38.4,24.3,44.8c2.3,6.4,2.3,17.9,2.8,25.8c0.5,7.9,11.1,84.6,13.4,94.4
									s19.5,49.3,19.5,49.3s-23,6-42.3,20.9C963.3,742.9,957.5,750.5,957.5,750.5z"/>
								<g>
									<path d="M973.2,747c-0.8-2.3-5.8-11-13-23.9c-5-8.8-9.8-17.3-10.5-19.2c-1.1-2.8,0.2-5.1,1.7-8c0.8-1.5,1.7-3.3,2.4-5.2
										c0.3-0.9,0.7-1.8,0.9-2.5c0.9-2.3,1.2-3.1,0.8-3.6c-0.1-0.2-0.3-0.3-0.7-0.3c-0.5,0-1.2,0.3-2.8,1.3c0,0-0.3,0.2-1.6,0.2
										c-5.8,0-26-3.6-35.5-14.9c-10.5-12.4-13-44.2-8.7-56.8c6.9,7.8,13.1,10.5,13.4,10.5c0.1,0,0.2,0.1,0.3,0.1
										c0.2,0,0.3-0.1,0.4-0.3c0.2-0.3,0.2-0.4,0-0.7c-0.2-0.2-11.4-13-12-18.1c-0.1-0.6-0.2-1.3-0.3-2.3
										c-0.8-7-2.3-21.5-6.7-26.6c-7.8-9.1-11.4-16.3-15.6-24.7c-1-2.1-2.1-4.2-3.3-6.5c-4.9-9.5-6.1-15-6.1-17
										c1.4,1.7,4.7,5.6,6.2,7.3c0.3,0.4,0.8,0.7,1.3,0.7c1.1,0,2.3-1.2,3.5-2.7c1.4-1.5,3.2-3.4,5.3-4.3c1.3-0.6,2.3-0.9,3.3-0.9
										c1.7,0,2.3,1.3,2.8,2.8c0.6,1.8,1.2,5.3,1.4,6.5c-1.8,1-8.8,5.2-9.7,8.2c-0.1,0.3,0,0.4,0.3,0.5c0.1,0.1,0.3,0.1,0.3,0.1
										c0.1,0,0.2,0,0.3-0.1l1.9-1.1c3.9-2.3,7.5-4.4,8.8-4.4c0.1,0,0.2,0,0.2,0c0.3,0.3,0.3,0.8,0.3,1.3c-0.1,0.6-0.5,2-2.6,3.3
										c-2.8,1.8-6.6,4.3-6.6,4.4c-0.3,0.2-0.3,0.4-0.2,0.8c0.1,0.2,0.3,0.3,0.4,0.3c0.1,0,0.2,0,0.3-0.1l10.9-5.5
										c1.2,0.5,2.7,1.5,2.7,2.3c0,0.3-0.3,0.5-0.7,0.8c-2.8,1.8-9.4,6.2-9.5,6.2c-0.3,0.2-0.3,0.5-0.2,0.8
										c0.1,0.2,0.3,0.3,0.4,0.3c0.1,0,0.3,0,0.3-0.1c0.1-0.1,6.3-3.9,9.5-3.9c0.5,0,0.9,0.1,1.2,0.3c2.3,1.7,5.8,7.4,7.5,10.9
										c0.7,1.3,2.5,4.2,4.6,7.6c2.7,4.3,5.6,9.1,6.6,11.1c1.6,3.4,1.8,4.2-0.5,8.6c-0.4,0.9-0.5,1.6-0.3,2.3
										c0.4,0.8,1.5,0.8,2.4,0.8c0.6,0,1.2-0.1,1.8-0.1c0.8-0.1,1.5-0.1,2.3-0.1c2.1,0,3.3,0.3,4.1,1.3c1.1,1.3,2.2,3.8,3.2,6.5
										c2,5,4.3,10.7,8.3,10.7c0.3,0,0.4,0,0.7-0.1c1-0.2,1.9-0.8,2.6-1.9c2.9-4.9,0.3-18.6-0.8-22.4c2.3,1.8,9.9,9.9,12.3,13.3
										c0.1,0.2,0.3,0.3,0.4,0.3c0.1,0,0.3,0,0.3-0.1c0.3-0.2,0.3-0.4,0.2-0.7l-0.4-0.8c-3.3-6-6.8-12.3-9.6-13.2
										c-3.8-1.3-5.5-5-5.7-6.7c-0.1-1.4-1-3-2.3-5.4c-0.8-1.5-1.8-3.3-2.9-5.4c-2.5-5.2,0.8-12.5,3.1-16.1
										c2.2-3.3,11.9-6.8,12.1-6.8c0.3-0.1,0.3-0.3,0.3-0.5s-0.2-0.4-0.3-0.5c-0.1,0-2.7-0.7-5.7-0.7c-3.3,0-5.8,0.8-7.4,2.3
										c-0.3-2.3-0.7-4.2-1-6.2c-1.8-9.5-2.9-15.8,7.8-26.1c0.3-0.3,0.3-0.5,0.1-0.7c-0.1-0.2-0.3-0.3-0.4-0.3
										c-0.1,0-0.2,0-0.3,0.1c-0.6,0.3-1.2,0.5-1.8,0.5l0,0c-2,0-4.2-1.8-6.2-4.9c-4.8-7.8-7.2-21.5-2-32.1
										c0.1-0.2,0.1-0.3-0.1-0.5c-0.1-0.2-0.3-0.3-0.4-0.3H941c-4.2,0.7-6.4,1.3-7.7,1.6c-0.2,0.1-0.3,0.1-0.4,0.2
										c-0.2-6.5,0-8.5,0.1-9.2c0.2,0,0.3,0,0.5,0.1c2.3,0.3,8.5,0.9,10.6,3.3c2.5,2.8,1.6,7.5,1.6,7.6c0,0.2,0,0.3,0.1,0.3
										c0.6,1,4.3,9.6,8.3,18.8c5.3,12.2,11.3,26,12.7,28.3c0.9,1.6,2.3,3,3.4,4.4c1.9,2.3,4,4.5,4.8,7.6c0.7,2.4-2.8,5.4-5.9,8.1
										c-2.9,2.6-5.5,4.8-5.1,6.8c0.2,0.6,0.5,1.4,1.8,1.4c0.9,0,2.1-0.3,3.5-0.9c1.6-0.6,3.5-1.2,5.3-1.2c1.8,0,3.1,0.8,4,2.3
										c3.8,6.7,3.8,32.1,2.8,40.3c-0.6,4.3-2.7,10.4-4.6,16.2c-1.9,5.6-3.7,10.9-3.8,13.9c-0.3,5.7,43.3,83.2,47.3,90.4
										C1002.3,728.2,976.5,746.1,973.2,747z"/>
									<path class="st4" d="M932.9,468.7L932.9,468.7c2.1,0.3,8.3,0.8,10.4,3.1c2.3,2.6,1.5,7.1,1.4,7.2c-0.1,0.3,0,0.5,0.2,0.8
										c0.6,1,4.3,9.6,8.3,18.7c5.3,12.3,11.4,26,12.7,28.4c0.9,1.6,2.3,3.1,3.5,4.5c1.9,2.3,3.9,4.4,4.7,7.3
										c0.6,2.2-2.9,5.2-5.8,7.6c-3.1,2.7-5.8,4.9-5.3,7.3c0.3,1.1,1.1,1.8,2.3,1.8c1,0,2.3-0.4,3.6-0.9c1.6-0.5,3.5-1.2,5.1-1.2
										c1.6,0,2.8,0.7,3.5,2.1c3.5,6.2,3.9,30.6,2.7,39.9c-0.6,4.3-2.7,10.4-4.6,16.1c-1.9,5.7-3.7,11-3.9,14
										c-0.1,1-0.3,3.9,23.8,48c10.5,19.3,21.1,38.2,23.4,42.3c-15.8,11.4-40.6,28.7-45.3,30.6c-1.3-2.8-5.8-11.1-12.9-23.5
										c-4.8-8.5-9.8-17.2-10.5-19.1c-1-2.5,0.1-4.7,1.7-7.6c0.8-1.6,1.7-3.3,2.4-5.3c0.3-0.9,0.7-1.8,0.9-2.5
										c0.9-2.4,1.3-3.3,0.8-4.2c-0.3-0.3-0.7-0.6-1.1-0.6c-0.6,0-1.3,0.3-3.1,1.4c-0.1,0-0.3,0.1-1.3,0.1
										c-5.8,0-25.7-3.6-35.1-14.6c-4.8-5.6-8.3-16.1-9.9-28.8c-1.3-10.4-0.9-20.5,0.9-26.6c6.8,7.3,12.7,9.9,13,10
										c0.2,0.1,0.3,0.1,0.3,0.1c0.3,0,0.7-0.2,0.9-0.4c0.3-0.3,0.3-0.9-0.1-1.3c-3.1-3.5-11.4-13.7-11.9-17.8
										c-0.1-0.6-0.2-1.3-0.3-2.3c-0.8-7-2.3-21.6-6.8-26.9c-7.8-9-11.3-16.2-15.5-24.5c-1-2.1-2.1-4.2-3.3-6.5
										c-4-7.7-5.4-12.5-5.8-15.1c1.6,1.9,3.9,4.7,5.1,6c0.6,0.7,1.3,0.8,1.7,0.8c1.3,0,2.5-1.3,4-2.8c1.4-1.5,3.1-3.3,5.2-4.2
										c1.3-0.6,2.3-0.8,3-0.8c1.3,0,1.8,0.8,2.3,2.4c0.6,1.6,1.1,4.7,1.3,6c-2.4,1.4-8.8,5.3-9.6,8.3c-0.1,0.4,0.1,0.8,0.3,1.1
										c0.3,0.2,0.4,0.3,0.7,0.3c0.2,0,0.3-0.1,0.5-0.2c0.7-0.3,1.3-0.8,1.9-1.1c3.3-1.9,7-4.2,8.3-4.3c0.1,0.2,0.1,0.3,0,0.7
										c-0.2,1-1,2.2-2.3,2.9c-2.8,1.8-6.6,4.3-6.6,4.4c-0.4,0.3-0.6,0.9-0.3,1.4c0.3,0.3,0.5,0.5,0.9,0.5c0.2,0,0.3,0,0.4-0.2
										l10.7-5.4c1.2,0.6,2.2,1.3,2.2,1.6c0,0-0.1,0.2-0.3,0.3c-2.8,1.9-9.4,6.3-9.4,6.3c-0.4,0.3-0.6,0.9-0.3,1.5
										c0.3,0.3,0.5,0.5,0.9,0.5c0.3,0,0.3-0.1,0.5-0.2c1.7-1,6.7-3.8,9.3-3.8c0.3,0,0.7,0.1,0.8,0.2c2.3,1.6,5.7,7.3,7.3,10.6
										c0.7,1.3,2.5,4.3,4.6,7.7c2.7,4.3,5.6,9.1,6.5,11.1c1.5,3.3,1.7,3.8-0.5,8.2c-0.3,0.4-0.8,1.6-0.2,2.7
										c0.6,0.9,1.8,1.1,2.8,1.1c0.6,0,1.3-0.1,1.9-0.1c0.8-0.1,1.5-0.1,2.3-0.1c1.9,0,3,0.3,3.6,1c1,1.3,2.1,3.8,3.1,6.3
										c2.1,5.2,4.4,11,8.8,11c0.3,0,0.5,0,0.8-0.1c1.3-0.3,2.3-0.9,2.9-2.2c2.8-4.6,1-15.7-0.3-21.1c3,2.8,8.7,9.3,10.9,11.9
										c0.5,0.9,0.8,1.3,1.4,1.3c0.3,0,0.6-0.2,0.8-0.3c0.2-0.2,0.3-0.4,0.3-0.9c-0.1-0.3-0.2-0.5-0.7-1.1
										c-0.2-0.3-0.3-0.4-0.3-0.8c-3.4-6.4-7-12.4-9.9-13.4c-3.5-1.2-5.2-4.7-5.3-6.2c-0.1-1.5-1.1-3.3-2.4-5.6
										c-0.9-1.6-1.8-3.3-2.8-5.4c-2.3-4.9,0.8-12.1,3.1-15.6c1.7-2.6,9.2-5.7,11.8-6.7c0.4-0.2,0.8-0.6,0.7-1
										c0-0.4-0.3-0.9-0.8-0.9c-0.1,0-2.8-0.8-5.8-0.8c-2.9,0-5.3,0.6-7.1,1.8c-0.3-1.8-0.6-3.6-0.9-5.3
										c-1.8-9.4-2.8-15.5,7.6-25.7c0.3-0.3,0.4-0.9,0.1-1.4c-0.3-0.3-0.5-0.4-0.8-0.4c-0.2,0-0.3,0.1-0.5,0.2
										c-0.5,0.3-1,0.4-1.6,0.4c-1.8,0-3.9-1.7-5.8-4.8c-4.8-7.7-6.8-21.5-2-31.5c0.2-0.3,0.2-0.8-0.1-1.1
										c-0.3-0.3-0.5-0.4-0.8-0.4c-0.1,0-0.2,0-0.2,0c-3.9,0.7-6.2,1.3-7.5,1.6C932.7,471.7,932.8,469.7,932.9,468.7 M932.1,467.6
										c-0.6,0-0.3,9.9-0.3,10.3c0,0,0,0.1,0.1,0.1c0.4,0,2.8-0.9,8.6-1.8c-7.5,15.4,1,37.7,8.7,37.7c0.7,0,1.4-0.2,2.1-0.6
										c-13.5,13-8.4,20-6.7,33.9c1.8-2.3,5-2.8,7.8-2.8c3,0,5.5,0.7,5.5,0.7s-10,3.6-12.4,7.1c-2.3,3.5-5.8,11.1-3.2,16.6
										c2.6,5.4,5.1,8.6,5.3,10.6s2.2,5.9,6,7.2c3.2,1,8.2,10.8,9.8,13.7c0.3,0.3,0.4,0.7,0.5,0.8v0.1c0,0-0.3-0.3-0.5-0.8
										c-2.3-3.1-11.9-13.8-13.2-13.8c-0.3,0-0.3,0.3-0.1,0.7c1.5,4.2,4.8,23-1.3,23.9c-0.3,0-0.4,0.1-0.6,0.1
										c-5.7,0-7.8-12.9-11.1-16.9c-0.9-1.2-2.7-1.4-4.4-1.4c-1.5,0-2.9,0.2-4.2,0.2c-1.7,0-2.7-0.3-1.8-2.3
										c2.3-4.8,2.2-5.5,0.5-9.2c-1.6-3.5-9.6-15.7-11.1-18.8c-1.6-2.9-5.3-9.2-7.8-11c-0.3-0.3-0.9-0.3-1.5-0.3
										c-3.4,0-9.9,4-9.9,4s6.6-4.3,9.5-6.2c2.9-1.8-2.3-4-2.3-4l-11.1,5.6c0,0,3.7-2.6,6.6-4.3c2.8-1.8,3.3-4.3,2.5-5.3
										c-0.1-0.2-0.3-0.3-0.5-0.3c-1.6,0-6,2.8-11,5.6c0.8-3.2,9.8-8,9.8-8s-0.7-4.7-1.5-6.9c-0.5-1.6-1.3-3.1-3.3-3.1
										c-0.9,0-2,0.3-3.5,0.9c-4.2,1.9-6.8,6.9-8.6,6.9c-0.3,0-0.7-0.2-0.9-0.5c-2-2.3-6.8-8.1-6.8-8.1c-0.8,0.8-0.2,6.7,5.9,18.4
										s9.3,20,18.9,31.3c4.8,5.6,6.2,23.2,6.8,28.6c0.7,5.3,12.1,18.4,12.1,18.4s-6.6-2.8-13.8-11.1c-4.8,12-2.3,45.4,8.5,58.2
										c9.4,11.1,29.6,14.9,35.9,14.9c0.9,0,1.6-0.1,1.8-0.3c1.4-0.8,2.3-1.3,2.6-1.3c0.8,0-0.2,1.8-1.6,5.8
										c-2.1,5.8-5.9,9.2-4.2,13.6c1.8,4.4,23.2,40.8,23.6,43.3c0,0.1,0.1,0.2,0.3,0.2c3.5,0,47.2-31.6,47.2-31.6
										s-47.6-84.9-47.3-90.7c0.3-5.8,7.3-21.3,8.5-30.1c1.2-8.6,1-33.9-2.8-40.6c-1.1-1.9-2.8-2.6-4.5-2.6
										c-3.2,0-6.8,2.1-8.7,2.1c-0.7,0-1.1-0.3-1.3-0.9c-0.8-3.8,12.4-9.9,11-14.9c-1.4-5.1-5.9-8.1-8.3-12.1
										c-2.3-4-19.5-44.7-21-47c0,0,1-5-1.7-8C941.3,468.1,932.8,467.8,932.1,467.6L932.1,467.6L932.1,467.6z"/>
								</g>
							</g>
							<g>
								<path class="st3" d="M978.9,799.8c0,0-18.4-29.2-21.3-34.2c-2.9-5-9.3-11.3,11.4-26.6c20.7-15.4,37.3-25.5,46.7-28.6
									c9.3-3.1,22.9-5.1,29.5,3.9c6.7,9,26.4,40.2,26.4,40.4C1071.5,754.9,1009,764.9,978.9,799.8z"/>
								<path class="st5" d="M969.9,812.5c0,0,7.8-26.5,44.9-46.6c37.2-20,59.2-15.5,59.2-15.5s111.6,149.6,110.6,149.4
									s-127,71.2-127,71.2L969.9,812.5z"/>
							</g>
							<path class="st5" d="M952.2,599.7c0,0-3.9-16.2-10.4-20c-6.4-3.8-9-9.1-10.8-9.7c-1.7-0.6,9,6.4,11,7.3c2,0.9,6.6,6.4,9,7.7
								c2.5,1.3,12.8,15.8,12.8,15.8s-10-11.6-13.8-13.9C950.2,586.9,952.7,596,952.2,599.7z"/>
							<path class="st6" d="M884.4,528.3c-0.3-0.5-6.7-7.9-8.4-11.5c-1.7-3.5-4.2-7.2-1.3-8.7l3.4-1.6l11.9,17.9L884.4,528.3z"/>
						</g>
					</g>
				</g>
				<g>
					<g>
						<path d="M288.9,419.8c0,0-55.9,4.9-59.1,4.2c-3.3-0.8-23.3,29.7-27.3,31c-4.2,1.3-103.4,22.8-113.6,25.7
							c-10.1,2.9-16.9,55.8-17.4,84c-0.5,28.2-2.4,103.2,1.3,118.6c3.7,15.5,12.7,44.8,19.9,52.3c7.3,7.3,27.7,19.6,33.1,19.6
							c5.4,0,9.1,0.8,9.1,0.8s11,62.1,11.6,120.2c0.5,41.7-10.6,86.5-10.6,86.5s117.8,45.7,316.8-9.2c-1.4-29-8.4-46.1-9.2-66
							c-2-50.3,3.8-80.1,3.8-80.1s29.1-5,38.4-26.7c9.3-21.7,19.1-90.8,16.8-111.2c-2.4-20.4-5.9-166.4-9.1-183.9
							c-3.3-17.6-43.8-23.6-68.1-31.2c-19-5.9-56.7-14.5-61.5-16.1c-4.9-1.6-12-14.9-16.5-21.7C342.6,409.2,312.5,418.9,288.9,419.8
							z"/>
						<g>
							<path class="st1" d="M228.6,425.5c0,0-11.1-3.9-8.6,30.1c0.5,6.5,41.7,175.2,78,260.3c-22.9-48.1-47.2-117.6-57.4-159.5
								c-7.9-32.1-26.5-27.1-32.9-51.6c-5.8-22.5-8.8-40.2-9.1-41.8c-9.1,4-7.2,17.6-7.8,16.8c-0.6-0.9-4.2-20.7-16.8-18.5
								c-12.6,2.1-80.2,18.5-80.2,18.5s26.8,24.3,31.5,35.6c5.4,13.5,12,46.9,12,46.9s-11.2-36.8-15.6-45.5
								c-2.1-4.3-30-31.6-34.1-30.4c-4.3,1.3-5.5,42.3-6.2,54.4c-0.3,3.5,13.9,45.8,23.6,60.8s12.6,15.9,12.6,15.9
								s-14.9-12.2-20.9-20.9c-6-8.7-13.9-15.9-13.9-14.4c0,1.4-0.4,36-0.5,44c-0.3,8.1,3.4,29.3,7.8,37.4s12,20.4,12,20.4
								S85.9,665,83.4,663.2c-2.4-1.8-6.5-13-6.5-13l-2.9,22.4l15.5,54.8l12.3,9.1l7.9,13c0,0-20-12.6-22.5-17.4
								c-2.4-4.8-6.3-17.9-9.6-28.2c-3.4-10.1-8.7-26.1-10-49.5c-1.3-23.4,3.5-88.7,3.4-103.9c-0.5-15.2,6.8-34.1,9.4-46.1
								c2.6-12-0.1-26.3,12-31.2c12-4.8,112.9-24.8,113.5-25.6c12.5-17.5,14.5-19.1,17.9-22.4c1.1-1.1,2.6-1.6,4.3-1.5l6.2,0.1
								L228.6,425.5z"/>
							<path class="st1" d="M101.9,740.3l-4-17.5c0,0-9.7-17.9-14-34c0.5,10.6,7.9,30.9,7.9,30.9l2.6,13.4L101.9,740.3z"/>
							<path class="st1" d="M98.2,729.8c-0.5-0.9-7.2-27.8-9.3-33.6c-2.1-5.8-3.7-12.5-3.7-12.5s14.5,33.5,15.1,35.8
								C101.1,721.8,98.2,729.8,98.2,729.8z"/>
						</g>
						<g>
							<path class="st1" d="M336.5,414.7c0,0,15,2.1,14,36.1c-1.5,53.4-10.7,110.8-43.6,196.9c27-32.2,69.3-191.1,70.2-195
								c8.8,4,6.9,17.6,7.6,16.8c0.6-0.9,4-20.7,16-18.5c12,2.1,77.3,18.5,77.3,18.5s-18.5,24.3-22.9,35.6
								c-5.3,13.5-19,46.9-19,46.9s18.4-36.8,22.5-45.5c2-4.3,21.4-31.6,25.4-30.4c4,1.3,4.3,89.7,4.8,101.8
								c0.1,3.5-13.2,45.8-22.7,60.8c-9.4,14.9-12,15.9-12,15.9s14.4-12.2,20.2-20.9c5.8-8.7,13.2-15.9,13.2-14.4
								c0,1.4,0.4,36,0.5,44c0.3,8.1-1.4,46.7-5.7,54.8c-4.3,8.2-11.5,20.4-11.5,20.4s15.5-19.1,17.8-20.9c2.4-1.8,6.3-13,6.3-13
								l2.8,22.4l-14.9,54.8l-11.8,9.1l-7.7,13c0,0,19.3-12.6,21.7-17.4c2.4-4.8,6-17.9,9.2-28.2c3.1-10.1,8.3-26.1,9.4-49.5
								c1.1-23.4-4.4-153.4-4.2-168.7c0.4-15.2,1-34.1-1.5-46.1s-7.2-26.3-18.8-31.2c-11.5-4.9-116.1-26.7-116.6-27.3
								c-14.2-20.8-10.2-16.1-13.7-19.5c-1.1-1.1-4.5-2.8-6.2-2.8l-7.1,0.5L336.5,414.7z"/>
							<path class="st1" d="M470.8,794.7l3.9-17.5c0,0,9.3-17.9,13.4-34c-0.5,10.6-7.6,30.9-7.6,30.9l-2.5,13.4L470.8,794.7z"/>
							<path class="st1" d="M474.2,784.3c0.5-0.9,6.9-27.8,9.1-33.6c2-5.8,3.5-12.5,3.5-12.5s-14,33.5-14.6,35.8
								C471.5,776.2,474.2,784.3,474.2,784.3z"/>
						</g>
						<g>
							<path class="st1" d="M233,407.7c0.1,0.5,0.3,2.4,0.3,19.3c-3.4-0.4-8.8,1.8-8.8,7.9c0,30.7,29.3,122.8,30,121
								c7.6-20.5,14.9-40.6,34.1-49.9c39.2,19,41.1,49.5,41.1,49.5s16.1-69.7,11.1-133.4c-0.3-2.4,0.1-6.9-3.4-7.6
								c-2.3-8.7-5.8-17.8-6.4-29.3C329.5,361.6,233,407.7,233,407.7z"/>
							<path d="M250.6,407.8c0.1,1.4,7.7,45.2,5.2,56.8c-0.9,4.2-19.4-21.4-19.4-20.5c-0.4,3.4,17.8,39,52.5,61
								c26.8-27.6,49.1-65.5,49.1-65.5s-15,20.7-15.9,13.2c-1.9-17.8-5.3-50.9-5.8-67.8C315.5,361.7,250.6,407.8,250.6,407.8z"/>
						</g>
						<g>
							<path class="st1" d="M205.4,355.6c0.3-1.5-4.3-26.6-7.1-32c-2.6-5.3-5.3-18.5-8.1-22.9c-2.6-4.4,0.9-28.2,1.5-29.9
								c0.6-1.6,6-6.2,8.7-6.2s4.5-14.5,4.8-17.5c0.3-3,25.6-11.3,29.1-15.6c3.4-4.3,19.6-6.8,20.5-6.2c0.8,0.8,10.2-3,13.4-1.5
								c3,1.5,14.6,4.5,16.6,6.8c2,2.3,12,4.5,12,7.6s6.8,13.2,6.8,13.2s11.8,1.4,14.9,3c3,1.6,8.7,18.8,10.7,22.8
								c1.9,4.3-0.5,39.2,2.6,39.8s1.4,22.4,1.4,22.4L209.2,357"/>
							<path d="M212.3,352.7c-0.9-0.9-4.4-7.6-5.2-8.9c-0.6-1.3-1.3-5.7-1.8-7.6c-0.5-1.9-1.8-5.2-2-7.4c-0.3-2.4,1.3-6.3-0.3-6.5
								c-1.4-0.4-3-3.3-3.3-3.9c-0.3-0.6,0.6-5.9,0.3-6.3c-0.5-0.4-1.8-4.4-2.4-5.4c-0.5-1.1-2-6-1.5-7.2c0.4-1.1,0.6-4.5,0.3-5.7
								c-0.5-1.1,0-4.8,0-6.3c0-1.5,0.3-6.9,0.5-7.8c0.4-0.9,0.9-6.3,0.9-6.3l3.7-1.5c0,0,5-3.7,5.9-3.4c0.9,0.4,5.2,2.8,5.9,2.8
								c0.8,0-5.9-7.4-5.3-7.9c0.6-0.5-3.4-1.4-3.4-1.4l4.3-14.1l4.5-3.9c0,0,12.8-5.5,14.2-5.8s13-9.2,13-9.2s8.4-2,14.2-1.9
								c1.9,0.1,8.3-0.9,9.2-2.4c0.9-1.5,13,8.8,14.1,8.3c1.1-0.4,7.6,4.8,7.6,4.8s8.6,0.3,9.2,2c0.9,2.5,5.2,13.1,3.3,10.2
								c0,0,5.3,6.3,6.5,8.3c0.5,0.6,7.8-1.1,9.6-0.4c1.8,0.6,5.7,3.3,6.3,5.2c0.5,1.9,1.8,5,1.8,5s0,6.9,1.8,8.1
								c1.8,1.1,3,9.8,3,9.8l0.4,9.6c0,0,0.3,7.8,0.3,8.7c0,0.9,1.8,12.8,1.8,12.8l0.4,4.2l-7.2,5.7L212.3,352.7"/>
							<path d="M271.9,419.2c6.2,0,23.8-3.4,35.4-12.6c11.7-9.2,22.8-30.1,23.3-36.9c0.5-6.8,1.3-9.8,1.3-9.8s10.8,0.8,12.8-12.8
								c1.9-13.6,1.4-36.9-5.7-36.7c-9.7,0.4-7.6,13.7-7.6,13.7l-7.2,1.8c0,0-2.9-22.4-4.3-29.6c-1.4-7.2-8.2-16-14.6-18.9
								c-6.3-2.9,4.3-9.7-7.8-16.5c-12.1-6.8-29.2-8.8-42.7-2.4c-10.7,1.4-21.4,2.9-29.6,7.8c-8.2,4.9-14,14-14,25.7
								s4.3,14.9,0,16.8c-4.3,1.9,0.3,34.8,0.6,40.1l-5.5-0.5c0,0-2.6-10.1-8.8-10.1c-9.6,0,0.5,28.5,3,35.3
								c2.4,6.8,5.8,12.1,17,10.2c2.9,14,6,25.2,26.7,30.6C257.3,418,265.9,419.2,271.9,419.2z"/>
							<path class="st1" d="M235.5,410.2c0,0,9.7,3.4,19.4,3.5c-3.8-9.2-8.7-12.8-11.2-15.6c-2.5-2.9-2.3-8.2-1.5-14.6
								c-3.1-6-3.1-13.6,2.9-23c-1.5-1.5-1-2.5-1.4-6.3c-0.4-3.8-3.8,0.6-3.4,5.3c0.4,4.8-5,9.4-10.1,10.5c-5,1-6.3-12-3.1-17.3
								c3.3-5.3,3.5-11.6-1.6-14.4c-5.3-2.9-5-8.2-3.4-12.7c3.4-8.9,4.3-6.9,13-13c2.3-1.5-0.4-7.2-8.8-4.2
								c-3.9,1.4-13.4,10.1-12,7.8c16-26.8,42.3-11.1,41.8-15.2c-0.3-1.3,0.1-6.9,0.5-13c1-14.1-9.6-33.1-27.5-23.7
								c-6.3,3.4-19.5,18.4-17.6,27.5c1.9,9.1,3.8,13.4-0.4,15.9c-4.2,2.4,0.6,33.9,0,41.8c-0.6,7.9,1.3,17.8,5.3,27.2
								C220.3,386.4,213.6,400.1,235.5,410.2z"/>
							<path class="st1" d="M313.4,401c0,0-6.3,8.4-20.7,13.9c8.8-7.2,9.4-6.4,10.3-12.5c2.4-15.5,1.5-17.8,2.5-19.6
								c1.6-3.4,0-8.4-2.3-14.5c1.4-6.5-1.1-12.5-9.3-20c1.1-1.9,0.8-4.2,0.1-7.9c-0.6-3.8,3.8-0.4,4.8,4.3
								c0.9,4.7,7.3,7.8,12.5,7.4c5.2-0.5,3-13.2-1.4-17.5c-4.4-4.3-6.3-10.2-2.1-14.4c4.3-4.2,2.5-9.2-0.1-13
								c-2.6-3.9-8.9-13-4.8-12.3c4.2,0.5,2.9,0.5,5.2-1.3c2.3-1.6-14.9-16.8-15.5-20.8c-0.5-4.2,1.1-9.8-3.4-15.4
								c-4.4-5.5,15.2,4,15.9,13.4c0.5,9.3,1.4,7.3,7.8,12c6.7,4.8,11.1,30.4,11.8,44.7c0.4,7.9,3.4,10.1,5,20.4
								C333.1,367.5,333.1,374.5,313.4,401z"/>
							<path class="st1" d="M331.9,359.9c0,0,10.2,0,11.1-14.5c0.5-7.8-0.8-26.8-2.1-30c-2.1-4.5-7.2-0.5-9.1,2
								c-1,1.3,1.9-11,8.8-7.8c6.9,3.1,5,20.9,5.3,30.2C346.4,356.6,337.2,361.2,331.9,359.9z"/>
							<path class="st1" d="M217.5,380.5c-10.3,4.5-12.3-0.3-14.9-7.1c-0.6-1.6,0.8-3.4,2.1-4.4v0.1l4.4-3.4c0,0,0-4.5-4.4-1.9
								c0,0-1.8-3.4-3.3-9.6s0-10.6,0-10.6c0.8,1.4,1.5,2.9,1.9,4c0.8,2.4,5.8,8.6,5.7,6c-0.1-1.4-2.8-5-4.3-10.1
								c0.4,0.3,0.1-0.5-0.5-1.4c-0.5-1.3-1.4-2-2.1-2.4c-2.1-2-5.3-3.4-8.2-0.9c-5.7,5,1.5,21.4,4.2,30.4
								c4.5,16.1,14.9,17.8,19.4,14.9C217.5,383.9,220.4,379.2,217.5,380.5z M195.6,344.3c0.3-1.8,1.3-2.6,2.4-2.9
								c0.1,0,0.3,0,0.5-0.1l0,0c0.3,0,0.5,0,0.8,0c-0.5,2.5-1.1,6.8-1.4,10.1c-0.3,4,3.5,11.2,5,13.9c-0.4,1-1.3,2.3-2,3.3
								C198.2,359.8,195.2,347.1,195.6,344.3z"/>
							<path class="st1" d="M247.6,403.1c-1,3.3,1.1,7.6,4,9.3c7.2,4.4,21.4,5.9,21.4,5.9s-14-4.2-13.5-16.2
								c0.4-7.7,14.9-8.2,14.9-8.2c4.4-0.9,16.2,1.4,18.9,4.3c-14-12.7-20-8.1-23.2-12.3c-3.1-4.3-1.8-8.3-1.8-8.3s4.3,1.3,8.4-5.9
								c0.4-3.8-0.3-2.4-7.2-3.4c-4.3-0.6-8.1-0.5-11.6,2.4c-5.7,4.3-6.2,6.2-8.2,6.4c-2,0.4-4-0.9-4.8-3.5c-0.9-2.6,0.6,3.8,6,0.4
								c5.3-3.5,9.8-12.1,12-11.7c2.1,0.4-1.4-10.1-1.4-10.1s-4.9-0.8-6.3-3.4c-4.8,10.6-6.3,10-7.8,13.4
								c-1.4,3.5-8.2,12.5-1.3,18.8C244.2,390.9,244.8,399.2,247.6,403.1z"/>
							<path class="st1" d="M242.1,370.9c7.2-22.2,12-16.6,12-21c0-4.4,2.3-11.1,7.2-14.7c-3.1,6.3-5.8,9.8-3.5,10.7
								c2.6-2.6,4-3.5,7.6-1.8c3.5,1.8,3.9-4.3,4.2-6.8c0.3-2.4-2.4-7.9-3.4-8.4c-1.1-0.6-1.1-0.9-2.4-7.7
								c-1.4-6.8-3.7-13.6-3.3-14.6c0.5-1.1-2.6-2-2.6,0.9c0,2.8,2,18.8-6.5,23.2c-8.4,4.3-12.7,2.6-12.7,2.6s3.7-5,3.3-6.8
								c-7.4,2.3-15,0.9-16.8-0.9c-6.8,7.4-13.1,8.9-13,19c0.3,10.1,7.2,43.8,14.6,50.9c7.3,7.1,12.7,10.1,16.6,10.2
								c1.9,0.1-0.8-4.3-2.1-11.1C239.5,387.6,239.7,377.9,242.1,370.9z"/>
							<path class="st1" d="M307.6,311.8l-5.5-3.5c0,0-0.6,2.8-8.2,5.8C293.8,314.2,305.4,315.3,307.6,311.8z"/>
							<path class="st1" d="M306.5,306.5c0,0-4.3-9.7-12.8-8.1c-8.6,1.6-17.9,2.9-17.9,2.9s23.7-6.5,27.3-6.5c0,0,6.2,5.7,7.2,7.4
								C311.5,304,306.5,306.5,306.5,306.5z"/>
							<path class="st1" d="M258.4,301c-1.5-0.4-1.8-4.5-1.8-6.5s-0.5-10.5-0.5-9.7c0.1,2.8,3.1,3.5,3.7,3.9
								c0.5,0.4,4.3,12.1,3.4,12.7C262.1,301.6,258.4,301,258.4,301z"/>
						</g>
						<g>
							<g>
								<g>
									<g>
										<g>
											<path d="M325.6,291.9c-0.3-1.1-0.6-2.4-0.9-2.8c-0.8-1.5-2.4-1.6-9.1-1.3c-4,0.3-9.4,0.8-14.6,1.3h-0.5
												c-11.1,1-20.3,4-23.9,5.5c-3.3,1.4-7.2,4.8-7.6,6.4c0,0.3,0,0.4,0,0.5c-1.6,0.9-3.8,1.4-6.4,1.4c-0.4,0-1.3,0-1.9-0.1
												c0-0.3-0.1-0.5-0.3-0.6c-0.8-1.4-5.4-3.8-9.1-4.3c-4-0.6-13.6-1.4-24.6,0.5l-0.5,0.1c-5.2,0.9-10.5,1.8-14.5,2.4
												c-6.7,1.3-8.2,1.6-8.6,3.4c-0.1,0.5-0.3,1.6-0.3,2.9c0,0.9,0.1,3.5,2.5,3.9c0.1,0,0.4,0,0.5,0.1c1.3,0.3,1.5,0.4,1.6,0.6
												c0.1,0.3,0.5,1.1,0.6,2c1.9,5.4,3.8,11,5.5,13c0.4,0.5,0.6,0.9,1.1,1.4c1.4,2,3.1,4.3,7.8,5.5c3.7,0.9,9.1,1.4,14.1,0.6
												c2.1-0.3,4.3-0.6,6.2-1.4c6.8-2.4,12-7.3,13.1-12.6c0.4-1.5,0.9-4,1.4-6.5c0.5-2.3,1-5.2,1.5-7.2c1,0.3,2,0.3,2.9,0.3
												c0.9,0,1.8-0.1,2.6-0.3c2.1-0.3,4-0.8,5.7-1.5c1,2,2.4,4.7,3.4,6.8c1.1,2.4,2.3,4.5,3,6c2.5,4.8,8.8,8.3,15.9,8.9
												c2,0.3,4.3,0.1,6.3-0.3c5.3-0.6,10.2-2.4,13.6-4.3c4.3-2.4,5.3-5,6.3-7.3c0.3-0.5,0.5-1.1,0.6-1.6
												c1.1-2.4,1.6-8.2,2.1-14c0.1-1,0.1-1.8,0.3-2.1c0-0.4,0.3-0.5,1.4-1.1c0.1-0.1,0.4-0.1,0.5-0.3
												C326.3,295.4,325.8,292.8,325.6,291.9z"/>
										</g>
									</g>
								</g>
							</g>
							<path class="st7" d="M204.8,307.5c-0.3-2.4,0.5-4,5.7-5.2c5.3-1.1,23.6-4.9,34.4-4.3s14.2,4.5,14.2,4.5s-10-3.7-24.3-2
								c-14.5,1.8-24.2,3.1-23.4,6.5c0.8,3.5,4.3,15.9,7.2,20.7c2.5,4.2,16.6,5.8,24.4,2.4c0,0-5,3.8-18,2.8
								c-9.1-0.6-11.1-10.5-13.1-16c-2.8-7.7-2.6-7.9-4.7-7.7C205.3,309.5,204.9,309.8,204.8,307.5z"/>
							<path class="st7" d="M298,290.4c0,0,22.8-2.4,24.6-1.8c1.8,0.5,2.8,5.4,2.4,5.9c-0.4,0.4-3,1.5-3.4,1.8
								c-0.4,0.3-1,16.1-5.4,22c2.1-7.4,3.4-21.5,3.1-23.7c-0.4-2.1-0.5-4.2-4.3-4.3C311.7,290.3,298,290.4,298,290.4z"/>
							<path class="st7" d="M273,298.7c0,0-2.9,2-0.4,7.8c2.6,5.8,4.7,17.9,19.6,19.5c0,0-9.4-1.1-14.2-11.1
								C273.2,304.9,273,298.7,273,298.7z"/>
						</g>
						<path class="st8" d="M290,510.1c0,0,9.1,9.7,12.7,18c3.7,8.3-2.9,21.7-4.2,25.1c-1.3,3.4-14.7,1.9-17.5,0.8
							c-2.9-1.1-7.4-20.8-7.7-22.7C273.2,529.3,284.8,511.9,290,510.1z"/>
						<path class="st8" d="M279.7,559.3c0,0,6.2,4,18.1-0.6c7.6,42.7,9.1,50.9,9.1,50.9s-19.4,50.1-19.1,49.2
							c0.3-0.9-15.7-48.7-15.7-48.7L279.7,559.3z"/>
						<g>
							<path class="st1" d="M210.4,783.3c0,0-18.1-1.8-20.2-3c-2-1.3-17.8-17.1-21.2-24.7c-3.4-7.6-5.3-15.9-6.8-18.8
								c-1.5-2.9-2.4-2.4-2.8,0.5c-0.5,3-7.2,19.1-8.1,21.9s-4,8.6-11.3,6.5c-6.8,6.8-12.3,3.8-13,0.3c-0.5-3.5,1.8-36,3-42.1
								c1.3-6.3,29.5-23.7,33.1-25.9c3.5-2.3,38.9,2.3,42.1,4.3c3.3,2,3.4,9.6,4.8,13.6c1.4,4,11.8,19.8,12,20.4
								S210.4,783.3,210.4,783.3z"/>
							<path d="M129,765.9c0,0,3-39,4.5-42.1c1.5-3,27-21.7,28.3-22.7c1.4-1,3.8-3.5,10.8-3.4c7.1,0.3,30.2,5.5,31,7.1
								c0.8,1.4,2.4,7.2,3,8.8c-3.3-3-5.3-5-5.3-5s7.1,10.6,8.3,12.6c1.4,2,4,8.8,7.2,10.1c3.3,1.4,8.8,8.2,9.1,10.6
								c0.5,2.4-10.8,34.5-15.9,36c-5,1.4-3,3.4-12.8,2c-8.8-1.3-7.2-1.8-12.5-7.2c-5.7-5.7-12.2-11.3-14.5-16.5
								c-2.3-5.3-7.6-16.5-9.3-16.8c-1.8-0.3-7.3,14.4-9.8,19.9c-2.4,5.5-5,9.1-11.3,6.5C136.1,770,129.5,771.3,129,765.9z"/>
						</g>
						<g>
							<path class="st1" d="M269.6,529.1c0,0-14.5-27-17.8-29.1c-3.3-2.1-3.8-7.6-4.8-14c-1.1-6.4-2.3-18.8-1.6-24.3
								c0.6-5.5-3.7-10.7-1.5-13s11.1,0.1,12.6,5c1.5,4.9,2.3,14.4,2.3,16c0,1.5,3.9,5.3,3.9,5.3s1-21.7,0-28.5
								c-1.4-10.1-2.8-29.7-2.8-29.7l0.1-26.2l1.5-11.2c0,0,2.4-5.2,8.1-5.3c4.9-0.3,6.3,6,6.4,14c0.1,5,2.8,29.6,2.8,29.6
								s4.4,19.5,6,22.2c1.6,2.6,9.6,8.9,12.2,4.7c2.6-4.3,11.2-10.2,15-10.2c3.8,0,8.1,3.7,9.6,8.1c1.5,4.4,1.6,16.4,1.6,16.4
								s8.2-1.1,11.8,2.4c1.9,1.9,2.1,11.2,2.1,11.2s8.9,0.5,10.2,3.8c2.6,6.7-0.5,16.1-4.8,19.9c1.1,13-10.8,43.6-14.5,47.4
								c-3.8,3.8-20.9,10.2-24.7,13C299.7,559.2,269.6,529.1,269.6,529.1z"/>
							<path d="M309.1,549.1c4.7-4.4,17.3-19.4,19.9-24.7c2.8-5.3,5.3-25.3,5.5-27.5c-3.4,1.6,1.4-1.9,2.8-5.8
								c1.4-3.9-2.4-11.1-0.8-12s9.7-1.9,9.7-1.9s3.4-3.9-10.2-3.9c-13.6,0-18.3-2.3-20.5-0.3c-2.3,1.9-5.5,3.4-5.5,3.4
								s-0.3-10.6,7.8-11.1c8.1-0.5,19.4,0.8,19.4,0.8s-1.4-8.1-9.1-6.9c-7.8,1.1-20.3,1.1-20.3,1.1s10.1-10.8,11.2-14
								c0.5-1.4,5.2,3.4,6.5,6.3c-4.4-12.8-2.5-14.6-11.1-17c-8.1-2.4-10.5,5.2-17.5,10.7c-2.8,2.3-5.4,3.4-7.8,4
								c-2.9,0.9-11.3-24.4-11.7-28.5c-0.5-5.9-1.6-24.9-2.3-28.5c-0.6-4.8-0.3-15.7-1.9-17.1s-3.5-2.3-5.7,0c-2,2-3,4.4-3.7,12
								c-1.4,16.6-2.6,16.6-2.3,22.8c0.5,5.4,1.1,27.6,2.4,32c2.4,8.4-0.1,14,1.4,19.8c2.5,9.7,0,6.7,0.1,9.7
								c0.1,4.5-0.1,1.9-0.1,2.1c0,0.8,0.6,2.4-1.9,2.6c-2.4,0.3-5.3-4.8-5.5-7.9c-0.3-3.1-0.5-13.9-2.6-15.2
								c-2.1-1.4-1.6,0-1.6,1.5c0,2.8,1.6,12.7,2,18c0.3,5.3,7.2,34.6,8.2,37.9c0.8,3.4,3.9,6.5,7.1,9.3c3,2.8,5.2,10.5,7.9,13.6
								C281.4,537.4,309.1,549.1,309.1,549.1z"/>
							<path d="M256.4,506c0,0-5.3-9.6-6.5-11.1c-1.3-1.5-3.3-16.8-3.5-19.9c-0.4-3.3-0.3-16.8-0.8-18.5c-0.5-1.6-4.4-8.8,3.4-7.9
								c-4-2.3-7.1,0.9-6,3.8c1,2.9,2.4,13.1,2.5,18.1c0.3,5,1.4,20.9,2.6,24.2C249.2,497.8,256.4,506,256.4,506z"/>
							<path d="M248.2,451c0,0,2.5,1.6,2.8,2c0.4,0.4,1.1,6.3,1,6.7c-0.1,0.5-0.6,1-0.6,1l-3-1.4c0,0,1.9,0.8,2-0.6
								C250.6,457.4,249.9,451.7,248.2,451z"/>
							<path d="M254.7,462.4c-0.9,0.9-2.4,1.1-2.3,2.4c0.3,1.3,1.8,7.7,1.8,9.1c0,1.4,0.3,5.5,0.3,6.5c0,1,0.1,5.3-0.3,7.6
								c-0.4,2.4,0.9,5.9,1.6,7.2c0.9,1.4,4.2,8.2,4.2,8.2l3.1,6.5l2.9,2.8l0.9-9.2l-9.1-28.6L254.7,462.4z"/>
							<path class="st1" d="M268.9,385.4c0,0-2.8,0.4-3.4,0.8c0-5.2,1-9.7,1.4-10.1c0.5-0.5,3-1.5,3.9-1.4l-0.4,10.7H268.9z"/>
							<path class="st1" d="M263.2,392.3c0-0.3,1.4-5.4,4.3-5.5c3.1-0.1,0.3,1.4-0.9,3.4c-1,1.9-2,11.7-0.9,12.1
								c1.1,0.5,2.6,1.9,2.6,1.9s-5.2,2.4-5.3,4.3c-0.3,1.9,2.8,33.4,3.7,33.3c6.5-0.6,1.4,3.4-1,8.3c-2.4,4.9-2,2-2,2
								s-1.6-24.4-2-27.3c-0.4-2.8-0.9-17.8-0.6-20.3S263.2,392.3,263.2,392.3z"/>
						</g>
						<g>
							<path class="st1" d="M299.1,522.8c10,6.2,28.3,28.1,30.9,30.9s-48.7,80-57.8,94.2c-9.1,14.1-61.2,56.8-75.8,67.8
								c-14.6,11.1-60,37.4-70.9,39.4c-11.1,2.1-21.5-8.7-24.9-16.2c-3.4-7.6-14.1-51.5-11.8-62.7c2.4-11.1,30.9-43.7,45.3-56.4
								c14.5-12.8,119.8-97,119.8-97s3.1-1.8,6.3,1.4C265.5,513.7,282.9,512.6,299.1,522.8z"/>
							<path d="M321.9,564.5c0,0-10-20.5-59.8-38.7c-3.9-1.4-7.6-1.4-10.8,2.8c-3.3,4.2-21.7,21-21.7,21s-2,0.8,3-0.5
								c7.1-1.8,14.1-7.2,14.1-7.2s-21.7,16.8-24.3,18.1c-2.6,1.4-18,9.1-21.9,11.7c-3.8,2.6-47.6,37.9-50.5,41.9
								c-3,4.2-10,16-10,16s39.5-31,53.2-33.6c-17.5,10.5-41.2,27.7-60.7,43c-5.2,4-9.7-0.5-14.1,3c-9.1,7.3-16.1,20.3-19.6,25.1
								c-9.2,12.6-4.4,27.2-2.9,34.9c1.4,7.7,4.2,13.2,8.9,11.5c4.7-1.8,20.4,5,20.4,5s-23.9,12.3-21.8,20.4s7.7,12.3,11.5,14.5
								c3.8,2.1,9.4,5.3,16.8,0.9s65.6-42.8,67-46.4c1.4-3.4,33.4-37,33.4-37s-11.5,20.7-10.3,20c1.3-0.5,43.7-40.4,46.4-44.7
								c1.4-2,12.7-20.3,23.9-38.2c0.5-0.9-42.8,27.7-42.3,26.8c0.8-1.3,47.9-36.3,48.7-37.4C309.4,584.7,321.9,564.5,321.9,564.5z"
								/>
							<g>
								<path class="st1" d="M297.2,557.8c0-2.8,2.3-5.2,5-5.3c-0.5-0.3-1.1-0.4-1.8-0.4c-2.9,0-5.3,2.4-5.3,5.3s2.4,5.3,5.3,5.3
									c0.1,0,0.1,0,0.3,0C298.7,562.1,297.2,560.2,297.2,557.8z"/>
								<path class="st1" d="M289.2,568.9c0-2.8,2.3-5.2,5-5.3c-0.5-0.3-1.1-0.4-1.8-0.4c-2.9,0-5.3,2.4-5.3,5.3s2.4,5.3,5.3,5.3
									c0.1,0,0.1,0,0.3,0C290.6,572.9,289.2,571,289.2,568.9z"/>
								<path class="st1" d="M272.8,590.7c0-2.8,2.3-5.2,5-5.3c-0.5-0.3-1.1-0.4-1.8-0.4c-2.9,0-5.3,2.4-5.3,5.3s2.4,5.3,5.3,5.3
									c0.1,0,0.1,0,0.3,0C274.1,595,272.8,593.1,272.8,590.7z"/>
								<path class="st1" d="M280.9,579.7c0-2.8,2.3-5.2,5-5.3c-0.5-0.3-1.1-0.4-1.8-0.4c-2.9,0-5.3,2.4-5.3,5.3s2.4,5.3,5.3,5.3
									c0.1,0,0.1,0,0.3,0C282.4,583.9,280.9,582,280.9,579.7z"/>
							</g>
						</g>
						<path class="st1" d="M410.6,523.9c0,0-5.4,83.8-5,90.9c0.5,7.2-2.6,94.6-0.9,92.7c1.8-1.8,24.8-13.1,49.4-13.1
							c-18.6-4.2-42.1,1.8-42.1,1.8s-4.2-60.1-0.9-69.3c3.3-9.1,18.6-30.7,34.4-35.8c-14.5,1.8-35.3,17.6-34,17.1
							c1.4-0.5,7.2-40.3,11-49.8c3.7-9.4,5.9-13.6,5.9-13.6s-18.1,35.8-17.6,41.2C411.1,591.8,410.6,523.9,410.6,523.9z"/>
						<path class="st1" d="M488.4,542.1c1.4,1.8,3.7,36.1,4.2,43.5c0.5,7.3-20.4,36.5-20.4,36.5s21.7-21.7,22.2-19.9
							c0.5,1.8,7.7,33.5,8.2,32.1s-3.1-45.2-5-53.3C495.6,572.8,488.4,542.1,488.4,542.1z"/>
						<path class="st7" d="M509.2,674.6c2.3,11.8-3.7,36.7-3.1,43.8s-10,38.9-10,38.9l6.8-37.9c0,0-9.4,5-8.2,5
							c1.3,0,8.6-13.6,10-20.4C506.1,697.1,509.2,674.6,509.2,674.6z"/>
						<g>
							<path class="st1" d="M468,721.7c-4.2-4.2-30.2-17.6-36.7-16.2c-6.3,1.4-26.7,2.3-26.7,2.3l-78.7,19.9c0,0-18.1-1.4-20.8-1.4
								c-2.6,0-66-4.2-66-4.2l-3.1,6.3l-21.9-0.4c0,0-15.1,31.5-5.3,61.3c9.4,0,21.9,2.4,21.9,2.4s0.6,12,3.4,25.7
								c-3.1-19.9,5.4-82.8,7.7-86.9c2.3-4.2,7.2-3.7,7.2-3.7s32.1-0.5,35.8,3.1c3.7,3.7,5,23.9,13.6,23.9s31.2,7.2,31.2,7.2
								l-28.1-13.6c0,0-9.1-13.6-7.2-14c1.8-0.5,34-0.5,36.1-0.5c2.3,0,55.7,17.1,55.7,17.1l-44.7-20.8c0,0,68.3-17.6,69.7-18.6
								c1.4-0.9,32.1,1.4,32.1,1.4L468,721.7z"/>
							<path class="st7" d="M466,802.6c0,0-43.7,8.9-55.4,7.2s-67.8-21.3-67.8-21.3s60.1,16.2,66.9,16.8
								C416.5,805.7,466,802.6,466,802.6z"/>
							<path class="st7" d="M236.5,816.6c2.9,0.4,116.6-6.7,124.8-8.1c8.2-1.4,38.3-2.8,38.3-2.8l14.5,4.2L236.5,816.6z"/>
							<g>
								<path class="st1" d="M285.6,799.6c2.4-1.4,5.5-0.8,7.2,1.5c-0.1-0.5-0.4-1.1-0.6-1.6c-1.5-2.4-4.8-3.3-7.2-1.6
									c-2.4,1.5-3.3,4.8-1.6,7.2l0.1,0.1C282.9,803,283.8,800.8,285.6,799.6z"/>
								<path class="st1" d="M272,798.4c2.4-1.4,5.5-0.8,7.2,1.5c-0.1-0.5-0.4-1.1-0.6-1.6c-1.5-2.4-4.8-3.3-7.2-1.6
									c-2.4,1.5-3.3,4.8-1.6,7.2l0.1,0.1C269.3,801.8,270,799.6,272,798.4z"/>
								<path class="st1" d="M244.8,795.8c2.4-1.4,5.5-0.8,7.2,1.5c-0.1-0.5-0.4-1.1-0.6-1.6c-1.5-2.4-4.8-3.3-7.2-1.6
									c-2.4,1.5-3.3,4.8-1.6,7.2l0.1,0.1C242.1,799.4,242.9,797.1,244.8,795.8z"/>
								<path class="st1" d="M258.4,797.1c2.4-1.4,5.5-0.8,7.2,1.5c-0.1-0.5-0.4-1.1-0.6-1.6c-1.5-2.4-4.8-3.3-7.2-1.6
									c-2.4,1.5-3.3,4.8-1.6,7.2l0.1,0.1C255.7,800.5,256.5,798.4,258.4,797.1z"/>
							</g>
						</g>
					</g>
					<path class="st7" d="M144.3,881.5c-1.9,5.7-20.7,98.7-20.8,108.4c-0.4,9.7-5.3,14.2,5.3,17s44-2.8,62.9-6.3
						c18.9-3.4,57.4-23.3,63.5-29c0,0-56.6,22.8-66.5,22.5c-10-0.5-24.6,7.8-25.1-6.9c-0.5-14.7-3-78.1-3-85.9s-10.3-103.5-13-111
						s-10.5-19.3-10.1-16.8c0.4,2.5,7.8,64.1,8.3,74.9C146.5,859.6,144.3,881.5,144.3,881.5z"/>
				</g>
			</g>
		</g>
	</g>
</g>
</svg>
